<!-- Generated by IcoMoon.io -->
<svg version="1.1" xmlns="http://www.w3.org/2000/svg" width="147" height="32" viewBox="0 0 147 32">
<title>aankopen</title>
<path d="M7.97 0.762h0.305c0.355 0 0.634 0.051 0.838 0.152 0.229-0.101 0.482-0.152 0.761-0.152 0.203 0 0.66 0.026 1.371 0.076 0.101-0.051 0.177-0.076 0.229-0.076 0.254 0.102 0.432 0.152 0.533 0.152 0.355-0.101 0.635-0.152 0.838-0.152 0.266 0 0.469 0.127 0.609 0.381v0.229c0 0.063-0.051 0.342-0.152 0.838v0.229l1.066 4.798 1.218 5.864c0.254 0.672 0.558 2.121 0.914 4.342 0.508 2.299 0.761 3.668 0.761 4.113 0.102 0.012 0.152 0.062 0.152 0.151v1.676c0.358 0.226 0.536 0.634 0.536 1.218 0.203 0 0.33 0.607 0.381 1.827 0.139 0 0.266 0.712 0.381 2.133 0.686 0.928 1.092 1.74 1.218 2.438-0.076 0-0.152 0.076-0.229 0.228-1.015-0.050-1.777-0.077-2.285-0.077h-0.99c-0.141 0-0.293-0.050-0.457-0.151-0.33 0.101-0.559 0.151-0.686 0.151h-0.837c-0.076 0-0.178-0.099-0.305-0.305v-0.076c0.152-0.483 0.229-0.787 0.229-0.914v-0.914c-0.152-0.443-0.305-1.205-0.457-2.284-0.141-0.064-0.266-0.418-0.381-1.066-0.291 0-0.547-0.127-0.762-0.381-0.508 0.051-0.889 0.077-1.142 0.077h-2.741c-0.965 0-1.524 0.356-1.676 1.066-0.115 0.722-0.266 1.41-0.457 2.056-0.051 0.088-0.076 0.217-0.076 0.381v1.064c0 0.254 0.051 0.558 0.152 0.914-0.102 0.305-0.203 0.457-0.305 0.457h-0.228c-0.166 0-0.293-0.026-0.381-0.077l-0.457 0.077h-0.228c-0.393 0-0.748-0.026-1.066-0.077l-0.533 0.077c-0.152 0-0.33-0.026-0.533-0.077-0.483 0.051-0.94 0.077-1.371 0.077h-0.534c-0.102 0-0.152-0.050-0.152-0.152v-0.076c0-0.229 0.229-0.635 0.686-1.219 0-0.202 0.127-0.736 0.38-1.599 0.508-2.654 1.041-5.092 1.6-7.312 0.152-1.015 0.533-2.818 1.142-5.408 0-0.215 0.102-0.418 0.305-0.609v-0.076c0-0.115-0.026-0.215-0.076-0.305 0.355-1.622 0.532-2.663 0.532-3.12 0.166 0 0.291-0.533 0.381-1.599 0.254-0.776 0.66-2.527 1.219-5.256 0.203-0.699 0.305-1.104 0.305-1.219v-0.989c0-0.266-0.026-0.699-0.076-1.295 0.189-0.153 0.367-0.229 0.532-0.229zM2.945 28.484v0.609c0 0.254-0.026 0.634-0.076 1.14h0.076c0.102 0 0.152-0.050 0.152-0.151v-1.599h-0.152zM6.753 24.752v0.229c0.101 0 0.152-0.051 0.152-0.153v-0.076h-0.152zM7.591 7.693v0.381c0.012 0.102 0.064 0.152 0.152 0.152v-0.533h-0.152zM7.894 12.49v0.304c0 0.661 0.076 0.99 0.229 0.99 0.050-0.595 0.076-1.027 0.076-1.294v-0.076l0.305-0.457v-0.228c-0.178 0.33-0.381 0.583-0.61 0.761zM8.048 6.551c0 0.102-0.026 0.152-0.076 0.152 0 0.215 0.127 0.547 0.381 0.99 0 0.965 0.076 1.447 0.229 1.447v-0.152c0-0.748-0.127-1.561-0.381-2.437h-0.153zM8.275 14.242v0.229c0.051 0 0.127 0.026 0.229 0.076l0.229-0.305v-0.229c-0.166 0.153-0.319 0.229-0.458 0.229zM8.427 5.637v0.305h0.077v-0.305h-0.077zM8.427 15.308v0.076l0.076 0.381h0.076l0.076-0.381-0.152-0.076h-0.076zM8.581 19.726v0.456c0 0.065 0.229 0.294 0.686 0.686h2.589c0.152 0 0.304-0.355 0.457-1.066-0.406-2.144-0.889-4.404-1.447-6.777 0-0.545-0.102-1.053-0.305-1.523h-0.076c-0.166 0-0.369 0.787-0.609 2.361-0.291 0.977-0.494 2.094-0.609 3.351-0.152 0-0.28 0.558-0.381 1.675-0.204 0.203-0.305 0.482-0.305 0.838zM8.808 3.58v0.838h0.076v-0.838h-0.076zM9.113 12.718c-0.203 0.534-0.305 0.864-0.305 0.991 0.203 0 0.33-0.305 0.381-0.914v-0.077h-0.076zM8.808 22.848v0.609c0.101 0 0.152-0.051 0.152-0.153v-0.305c0.001-0.099-0.050-0.151-0.152-0.151zM9.038 1.753l0.228 0.304c0 0.215-0.051 0.418-0.152 0.609 0.203 0 0.38 0.813 0.533 2.437 0.166 0 0.42 0.635 0.762 1.904l0.152-0.076-0.076-0.38v-0.534c-0.102-0.736-0.152-1.142-0.152-1.218v-0.457l-0.229 0.152h-0.152c-0.152-0.051-0.229-0.203-0.229-0.457v-2.056c-0.051-0.152-0.203-0.228-0.457-0.228h-0.228zM9.038 5.637v0.305c0.012 0.102 0.063 0.152 0.152 0.152h0.076v-0.229l-0.076-0.381c-0.101 0.012-0.152 0.065-0.152 0.153zM9.265 11.044l-0.076 0.686v0.229h0.076c0-0.381 0.076-0.609 0.228-0.686-0.050-0.102-0.075-0.178-0.075-0.229h-0.153zM9.189 12.033v0.381h0.076v-0.381h-0.076zM9.493 6.627l-0.075 0.381v0.305c0 0.316 0.228 0.826 0.685 1.523 0 0.355 0.076 0.711 0.229 1.066h0.076v-0.99c0-0.152-0.229-0.584-0.686-1.295 0-0.66-0.076-0.99-0.229-0.99zM11.855 21.63c0 0.076-0.102 0.178-0.305 0.305h-0.152c-0.191-0.152-0.344-0.229-0.457-0.229l-0.152 0.229v0.152c0 0.265 0.101 0.443 0.305 0.533 0.025 0 0.152-0.101 0.381-0.305h0.076c0.203 0.102 0.305 0.254 0.305 0.457h0.076l0.076-0.533v-0.457c-0.001-0.101-0.052-0.152-0.153-0.152zM11.017 23.533c-0.102 0.33-0.152 0.558-0.152 0.685h0.229c0.101 0 0.152-0.050 0.152-0.151v-0.305c0-0.076-0.077-0.153-0.229-0.229zM11.247 6.17c-0.102 0.318-0.152 0.521-0.152 0.609 0.101 0.381 0.152 0.635 0.152 0.762 0 0.088-0.051 0.24-0.152 0.457 0.101 0.356 0.152 0.661 0.152 0.914v0.609h0.076c0.076 0 0.177-0.381 0.305-1.143l-0.077-0.381v-1.294c0-0.279-0.102-0.457-0.304-0.533zM11.779 12.187l-0.152 0.305c0.152 0.369 0.229 0.596 0.229 0.685h0.152v-0.152c-0.001-0.559-0.077-0.838-0.229-0.838zM11.855 23.381v0.305h0.076v-0.305h-0.076zM12.388 15.308v0.152c0 0.115 0.026 0.217 0.076 0.305-0.051 0.088-0.076 0.191-0.076 0.305v0.305c0.012 0.102 0.063 0.152 0.152 0.152l0.076-0.152v-1.219h-0.076c-0.102 0.012-0.152 0.063-0.152 0.152zM12.464 14.318v0.152h0.152v-0.152h-0.152zM12.464 23.99v0.077c0.012 0.101 0.063 0.151 0.152 0.151 0.102 0 0.152-0.050 0.152-0.151v-0.305h-0.076c-0.076 0-0.152 0.076-0.228 0.228zM12.616 21.63v0.914c0.012 0.101 0.063 0.151 0.152 0.151v-1.064h-0.152zM12.692 4.799v0.38h0.152v-0.38h-0.152zM12.997 18.202l-0.076 0.152v0.305c0 0.077 0.076 0.152 0.229 0.228h0.076v-0.228c0-0.266-0.077-0.418-0.229-0.457zM13.226 20.563l-0.076 0.152c0.203 0.229 0.305 0.356 0.305 0.38v0.609c0 0.051-0.026 0.077-0.076 0.077l0.076 0.152v1.37c0 0.266-0.026 0.699-0.076 1.295l0.229 0.152h0.076v-1.066c0-0.242 0.025-0.494 0.076-0.762-0.051-0.202-0.076-0.406-0.076-0.609 0.051-0.888 0.076-1.421 0.076-1.599-0.255-0.099-0.434-0.151-0.534-0.151zM13.378 15.384c0 0.166-0.026 0.293-0.076 0.381 0.101 0.356 0.152 0.66 0.152 0.914v0.305c0 0.051-0.026 0.076-0.076 0.076 0.051 0.102 0.076 0.178 0.076 0.229l0.533-0.076c0.101 0.127 0.152 0.229 0.152 0.305-0.102 0.164-0.152 0.316-0.152 0.457 0.152 0.178 0.229 0.381 0.229 0.609h0.076l0.076-0.457-0.076-0.381c0.051-0.342 0.076-0.621 0.076-0.837-0.051-0.178-0.076-0.279-0.076-0.305-0.28 0.254-0.432 0.381-0.457 0.381-0.166 0-0.266-0.33-0.305-0.99v-0.609h-0.152zM13.454 13.023c0 0.051-0.026 0.076-0.076 0.076 0 0.051 0.025 0.076 0.076 0.076l-0.076 0.381v0.076l0.076 0.381h-0.076l0.152 0.381-0.076 0.457c0.012 0.101 0.063 0.152 0.152 0.152l0.152-0.229c-0.102-0.166-0.152-0.318-0.152-0.457v-0.076c0-0.178 0.025-0.406 0.076-0.686-0.063-0.353-0.139-0.532-0.228-0.532zM13.683 19.726v0.152c0.012 0.101 0.063 0.152 0.152 0.152l0.076-0.152v-0.152h-0.228zM14.064 14.775v0.152c0.101 0.355 0.152 0.634 0.152 0.837h0.152v-0.076c0-0.127-0.076-0.432-0.229-0.914h-0.075zM14.672 19.878l-0.076 0.304 0.152 0.077h0.076c0.102 0 0.152-0.050 0.152-0.152-0.051-0.101-0.076-0.178-0.076-0.228h-0.228zM15.282 17.897v0.229h0.152v-0.381c-0.102 0.012-0.152 0.064-0.152 0.152zM15.587 30.463l0.381 0.076c0.101-0.164 0.152-0.291 0.152-0.38h-0.152c-0.255 0.126-0.381 0.228-0.381 0.304zM16.805 25.362v0.151h0.076v-0.151h-0.076zM16.882 30.006v0.152h0.076v-0.152h-0.076zM17.338 27.875v0.533c0.012 0.101 0.064 0.152 0.152 0.152v-0.685h-0.152z"></path>
<path d="M24.84 0.762h0.305c0.355 0 0.634 0.051 0.838 0.152 0.229-0.101 0.482-0.152 0.761-0.152 0.203 0 0.66 0.026 1.371 0.076 0.101-0.051 0.177-0.076 0.229-0.076 0.254 0.102 0.432 0.152 0.533 0.152 0.355-0.101 0.635-0.152 0.838-0.152 0.266 0 0.469 0.127 0.609 0.381v0.229c0 0.063-0.051 0.342-0.152 0.838v0.229l1.066 4.798 1.218 5.864c0.254 0.672 0.558 2.121 0.914 4.342 0.508 2.299 0.761 3.668 0.761 4.113 0.102 0.012 0.152 0.062 0.152 0.151v1.676c0.355 0.228 0.533 0.635 0.533 1.219 0.203 0 0.33 0.607 0.381 1.827 0.139 0 0.266 0.712 0.381 2.133 0.686 0.928 1.092 1.74 1.218 2.438-0.076 0-0.152 0.076-0.229 0.228-1.015-0.050-1.777-0.077-2.285-0.077h-0.99c-0.141 0-0.293-0.050-0.457-0.151-0.33 0.101-0.559 0.151-0.686 0.151h-0.837c-0.076 0-0.178-0.099-0.305-0.305v-0.076c0.152-0.483 0.229-0.787 0.229-0.914v-0.914c-0.152-0.443-0.305-1.205-0.457-2.284-0.141-0.064-0.266-0.418-0.381-1.066-0.291 0-0.547-0.127-0.762-0.381-0.508 0.051-0.889 0.077-1.142 0.077h-2.742c-0.965 0-1.524 0.356-1.676 1.066-0.115 0.722-0.266 1.41-0.457 2.056-0.051 0.088-0.076 0.217-0.076 0.381v1.064c0 0.254 0.051 0.558 0.152 0.914-0.102 0.305-0.203 0.457-0.305 0.457h-0.229c-0.166 0-0.293-0.026-0.381-0.077l-0.457 0.077h-0.229c-0.393 0-0.748-0.026-1.066-0.077l-0.533 0.077c-0.152 0-0.33-0.026-0.533-0.077-0.483 0.051-0.94 0.077-1.371 0.077h-0.533c-0.102 0-0.152-0.050-0.152-0.152v-0.076c0-0.229 0.229-0.635 0.686-1.219 0-0.202 0.127-0.736 0.38-1.599 0.508-2.654 1.041-5.092 1.6-7.312 0.152-1.015 0.533-2.818 1.142-5.408 0-0.215 0.102-0.418 0.305-0.609v-0.076c0-0.115-0.026-0.215-0.076-0.305 0.355-1.625 0.533-2.666 0.533-3.123 0.166 0 0.291-0.533 0.381-1.599 0.254-0.775 0.66-2.527 1.218-5.255 0.203-0.699 0.305-1.104 0.305-1.219v-0.989c0-0.266-0.026-0.699-0.076-1.295 0.195-0.153 0.371-0.229 0.537-0.229zM19.813 28.484v0.609c0 0.254-0.026 0.634-0.076 1.14h0.076c0.102 0 0.152-0.050 0.152-0.151v-1.599h-0.152zM23.621 24.752v0.229c0.101 0 0.152-0.051 0.152-0.153v-0.076h-0.152zM24.459 7.693v0.381c0.012 0.102 0.064 0.152 0.152 0.152v-0.533h-0.152zM24.764 12.49v0.304c0 0.661 0.076 0.99 0.229 0.99 0.051-0.596 0.076-1.029 0.076-1.295v-0.075l0.305-0.457v-0.228c-0.179 0.33-0.382 0.583-0.61 0.761zM24.916 6.551c0 0.102-0.026 0.152-0.076 0.152 0 0.215 0.127 0.547 0.381 0.99 0 0.965 0.076 1.447 0.229 1.447v-0.152c0-0.748-0.127-1.561-0.381-2.437h-0.153zM25.144 14.242v0.229c0.051 0 0.127 0.026 0.229 0.076l0.229-0.305v-0.229c-0.166 0.153-0.319 0.229-0.458 0.229zM25.297 5.637v0.305h0.076v-0.305h-0.076zM25.297 15.308v0.076l0.076 0.381h0.076l0.076-0.381-0.152-0.076h-0.076zM25.449 19.726v0.456c0 0.065 0.229 0.294 0.686 0.686h2.589c0.152 0 0.304-0.355 0.457-1.066-0.406-2.144-0.889-4.404-1.447-6.777 0-0.545-0.102-1.053-0.305-1.523h-0.076c-0.166 0-0.369 0.787-0.609 2.361-0.291 0.977-0.494 2.094-0.609 3.351-0.152 0-0.28 0.558-0.381 1.675-0.204 0.203-0.305 0.482-0.305 0.838zM25.678 3.58v0.838h0.076v-0.838h-0.076zM25.982 12.718c-0.203 0.533-0.305 0.863-0.305 0.99 0.203 0 0.33-0.305 0.381-0.914v-0.076h-0.076zM25.678 22.848v0.609c0.101 0 0.152-0.051 0.152-0.153v-0.305c0-0.099-0.051-0.151-0.152-0.151zM25.906 1.753l0.229 0.304c0 0.215-0.051 0.418-0.152 0.609 0.203 0 0.38 0.813 0.533 2.437 0.166 0 0.42 0.635 0.762 1.904l0.152-0.076-0.076-0.381v-0.533c-0.102-0.736-0.152-1.142-0.152-1.218v-0.457l-0.229 0.152h-0.152c-0.152-0.051-0.229-0.203-0.229-0.457v-2.056c-0.051-0.152-0.203-0.229-0.457-0.229h-0.229zM25.906 5.637v0.305c0.012 0.102 0.064 0.152 0.152 0.152h0.076v-0.229l-0.076-0.381c-0.101 0.012-0.152 0.065-0.152 0.153zM26.135 11.044l-0.076 0.686v0.229h0.076c0-0.381 0.076-0.609 0.228-0.686-0.051-0.101-0.076-0.177-0.076-0.229h-0.152zM26.059 12.033v0.381h0.076v-0.381h-0.076zM26.363 6.627l-0.076 0.381v0.305c0 0.316 0.228 0.826 0.685 1.523 0 0.355 0.076 0.711 0.229 1.066h0.076v-0.99c0-0.152-0.229-0.584-0.686-1.295 0-0.66-0.076-0.99-0.228-0.99zM28.724 21.63c0 0.076-0.102 0.178-0.305 0.305h-0.152c-0.191-0.152-0.344-0.229-0.457-0.229l-0.152 0.229v0.152c0 0.265 0.101 0.443 0.305 0.533 0.025 0 0.152-0.101 0.381-0.305h0.076c0.203 0.102 0.305 0.254 0.305 0.457h0.076l0.076-0.533v-0.457c-0.001-0.101-0.052-0.152-0.153-0.152zM27.886 23.533c-0.102 0.33-0.152 0.558-0.152 0.685h0.229c0.101 0 0.152-0.050 0.152-0.151v-0.305c0-0.076-0.076-0.153-0.229-0.229zM28.115 6.17c-0.102 0.318-0.152 0.521-0.152 0.609 0.101 0.381 0.152 0.635 0.152 0.762 0 0.088-0.051 0.24-0.152 0.457 0.101 0.356 0.152 0.661 0.152 0.914v0.609h0.076c0.076 0 0.177-0.381 0.305-1.143l-0.076-0.381v-1.294c-0.001-0.279-0.102-0.457-0.305-0.533zM28.648 12.187l-0.152 0.305c0.152 0.369 0.229 0.596 0.229 0.685h0.152v-0.152c-0.001-0.559-0.077-0.838-0.229-0.838zM28.724 23.381v0.305h0.076v-0.305h-0.076zM29.257 15.308v0.152c0 0.115 0.026 0.217 0.076 0.305-0.051 0.088-0.076 0.191-0.076 0.305v0.305c0.012 0.102 0.064 0.152 0.152 0.152l0.076-0.152v-1.219h-0.076c-0.101 0.012-0.152 0.063-0.152 0.152zM29.333 14.318v0.152h0.152v-0.152h-0.152zM29.333 23.99v0.077c0.012 0.101 0.064 0.151 0.152 0.151 0.102 0 0.152-0.050 0.152-0.151v-0.305h-0.076c-0.076 0-0.152 0.076-0.228 0.228zM29.485 21.63v0.914c0.012 0.101 0.064 0.151 0.152 0.151v-1.064h-0.152zM29.562 4.799v0.38h0.152v-0.38h-0.152zM29.866 18.202l-0.076 0.152v0.305c0 0.077 0.076 0.152 0.229 0.228h0.076v-0.228c0-0.266-0.076-0.418-0.229-0.457zM30.095 20.563l-0.076 0.152c0.203 0.229 0.305 0.356 0.305 0.38v0.609c0 0.051-0.026 0.077-0.076 0.077l0.076 0.152v1.37c0 0.266-0.026 0.699-0.076 1.295l0.229 0.152h0.076v-1.066c0-0.242 0.025-0.494 0.076-0.762-0.051-0.202-0.076-0.406-0.076-0.609 0.051-0.888 0.076-1.421 0.076-1.599-0.255-0.099-0.433-0.151-0.534-0.151zM30.247 15.384c0 0.166-0.026 0.293-0.076 0.381 0.101 0.356 0.152 0.66 0.152 0.914v0.305c0 0.051-0.026 0.076-0.076 0.076 0.051 0.102 0.076 0.178 0.076 0.229l0.533-0.076c0.101 0.127 0.152 0.229 0.152 0.305-0.102 0.164-0.152 0.316-0.152 0.457 0.152 0.178 0.229 0.381 0.229 0.609h0.076l0.076-0.457-0.076-0.381c0.051-0.342 0.076-0.621 0.076-0.837-0.051-0.178-0.076-0.279-0.076-0.305-0.28 0.254-0.432 0.381-0.457 0.381-0.166 0-0.266-0.33-0.305-0.99v-0.609h-0.152zM30.323 13.023c0 0.051-0.026 0.076-0.076 0.076 0 0.051 0.025 0.076 0.076 0.076l-0.076 0.381v0.076l0.076 0.381h-0.076l0.152 0.381-0.076 0.457c0.012 0.101 0.064 0.152 0.152 0.152l0.152-0.229c-0.102-0.166-0.152-0.318-0.152-0.457v-0.076c0-0.178 0.025-0.406 0.076-0.686-0.062-0.353-0.139-0.532-0.228-0.532zM30.552 19.726v0.152c0.012 0.101 0.064 0.152 0.152 0.152l0.076-0.152v-0.152h-0.228zM30.933 14.775v0.152c0.101 0.355 0.152 0.634 0.152 0.837h0.152v-0.076c0-0.127-0.076-0.432-0.229-0.914h-0.075zM31.542 19.878l-0.076 0.304 0.152 0.077h0.076c0.102 0 0.152-0.050 0.152-0.152-0.051-0.101-0.076-0.178-0.076-0.228h-0.228zM32.151 17.897v0.229h0.152v-0.381c-0.101 0.012-0.152 0.064-0.152 0.152zM32.456 30.463l0.381 0.076c0.101-0.164 0.152-0.291 0.152-0.38h-0.152c-0.254 0.126-0.381 0.228-0.381 0.304zM33.675 25.362v0.151h0.076v-0.151h-0.076zM33.751 30.006v0.152h0.075v-0.152h-0.075zM34.206 27.875v0.533c0.012 0.101 0.063 0.152 0.152 0.152v-0.685h-0.152z"></path>
<path d="M38.205 0.686l0.914 0.229c0.457-0.101 0.787-0.152 0.99-0.152 0.152 0 0.33 0.051 0.533 0.152 0.191-0.101 0.393-0.152 0.609-0.152h0.229c0.939 0 1.498 0.711 1.676 2.132 0.254 0.152 0.812 1.346 1.675 3.58l1.904 4.57c0 0.115 0.127 0.418 0.381 0.914 0 0.152 0.305 0.889 0.914 2.209 0.101 0.736 0.279 1.168 0.533 1.295 0 0.127 0.305 0.838 0.914 2.132 0.051 0.762 0.177 1.143 0.381 1.143h0.152c0.152-0.051 0.229-0.203 0.229-0.458v-2.742c0-0.545 0.025-0.977 0.076-1.295-0.051-0.369-0.076-0.826-0.076-1.371v-3.58c-0.102-0.736-0.152-1.143-0.152-1.219v-1.978c0-0.355 0.051-0.634 0.152-0.838-0.102-0.38-0.152-0.583-0.152-0.609 0.101-0.381 0.152-0.736 0.152-1.066v-0.686c0-0.164-0.229-0.775-0.686-1.828v-0.076c0.164-0.152 0.291-0.229 0.381-0.229 0.203 0 0.305 0.026 0.305 0.076l0.914-0.076h3.884c0.076 0 0.152 0.076 0.229 0.229v0.229c-0.203 0.191-0.381 0.699-0.533 1.523l0.076 0.914v1.447c0 0.064-0.051 0.344-0.152 0.838v3.275c0 0.355 0.051 0.635 0.152 0.837-0.051 0.28-0.076 0.483-0.076 0.609 0 0.115 0.025 0.217 0.076 0.305l-0.077 0.533c0 0.166 0.025 0.596 0.076 1.295l-0.152 0.609 0.152 0.686c-0.102 0.203-0.152 0.483-0.152 0.838v2.665c0 0.547 0.025 1.004 0.076 1.371-0.051 0.316-0.076 0.748-0.076 1.295v0.152c0 0.33 0.051 1.346 0.152 3.047-0.102 0.456-0.152 0.787-0.152 0.99v0.534l-0.229 0.304v0.609l0.152 0.228v0.077c0 0.139-0.051 0.293-0.152 0.457 0.051 1.129 0.101 1.814 0.152 2.056-0.051 0.088-0.076 0.57-0.076 1.447 0.076 0 0.279 0.229 0.609 0.685v0.153l-0.152 0.228-0.914-0.077h-0.457c-0.469 0-1.129 0.028-1.98 0.077-0.102-0.050-0.178-0.077-0.229-0.077-0.203 0.051-0.381 0.077-0.533 0.077-0.24 0-0.469-0.355-0.685-1.066-0.229-0.316-0.762-1.561-1.6-3.732-0.166-0.202-1.459-3.273-3.884-9.214-0.369-0.711-0.672-1.447-0.914-2.209-0.432-1.18-0.711-1.789-0.837-1.828v-0.686c0-0.191-0.127-0.393-0.381-0.609v-0.229c0-0.039 0.127-0.166 0.381-0.381v-0.228l-0.381 0.076c-0.076 0-0.305-0.177-0.686-0.533-0.152 0.547-0.229 0.875-0.229 0.99v0.076c0.102 0.863 0.152 1.346 0.152 1.447v0.914c0 0.166-0.051 0.521-0.152 1.066 0.166 0.457 0.266 0.686 0.305 0.686-0.051 0.686-0.076 1.193-0.076 1.524v0.837c0 0.915-0.026 1.802-0.076 2.665 0.051 0.445 0.076 0.826 0.076 1.143-0.051 0.926-0.076 1.51-0.076 1.752l0.076 0.686c-0.152 0.697-0.229 1.129-0.229 1.295 0.152 0.254 0.229 0.507 0.229 0.761v0.153c0 0.711-0.026 1.675-0.076 2.894 0.012 0.356 0.242 0.812 0.686 1.37v0.153c0 0.025-0.051 0.101-0.152 0.228-0.596-0.050-1.029-0.077-1.295-0.077h-2.894c-0.266 0-0.699 0.028-1.295 0.077-0.102-0.164-0.152-0.316-0.152-0.457l0.838-1.295c-0.051-0.762-0.076-1.32-0.076-1.676v-0.685c0-0.242 0.025-0.494 0.076-0.762-0.152-0.826-0.229-3.338-0.229-7.54v-3.504c0-0.406 0.025-0.939 0.076-1.599-0.051-0.088-0.076-0.215-0.076-0.381l0.076-0.686c0-0.051-0.026-0.254-0.076-0.609 0.051-0.344 0.076-0.623 0.076-0.838 0-0.254-0.051-0.381-0.152-0.381 0.051-0.837 0.076-1.472 0.076-1.904v-3.12c0-0.051 0.051-0.254 0.152-0.609-0.102-0.164-0.152-0.316-0.152-0.457 0-0.088 0.101-0.318 0.305-0.686-0.102-0.291-0.203-1.029-0.305-2.209-0.039 0-0.166-0.203-0.381-0.609v-0.228c0-0.164 0.432-0.266 1.295-0.305zM38.28 2.895l-0.304 1.143v0.228l0.076 0.457c-0.102 0.203-0.152 0.38-0.152 0.533 0.101 0.166 0.152 0.293 0.152 0.381h0.152c0.051-0.457 0.101-1.345 0.152-2.666v-0.076h-0.076zM38.28 24.981c0.102 0.316 0.152 0.52 0.152 0.607h0.076c0.203-1.41 0.305-2.502 0.305-3.275v-0.456c-0.242 0.001-0.418 1.041-0.533 3.123zM39.118 28.025c-0.203 0.522-0.381 1.157-0.533 1.905v0.533c0.012 0.102 0.063 0.152 0.152 0.152 0-0.406 0.152-1.066 0.457-1.981v-0.609h-0.076zM39.043 1.295l-0.152 0.229c0.215 0.063 0.367 0.191 0.457 0.381v1.447h0.076l0.076-0.381v-0.305c0-0.266-0.026-0.697-0.076-1.295l-0.381-0.076zM39.118 26.732v0.305h0.076v-0.305h-0.076zM39.5 14.851v0.685c0.101 0 0.152-0.051 0.152-0.152v-0.38c0-0.102-0.051-0.153-0.152-0.153zM40.565 1.372c-0.152 0.305-0.305 2.056-0.457 5.255-0.102 0.355-0.254 1.168-0.457 2.437l0.076 0.533c-0.051 1.41-0.076 2.551-0.076 3.427l0.152 0.076 0.152-0.533v-0.761c0.037-0.305 0.115-0.457 0.229-0.457l-0.076-0.762c0.254-2.945 0.381-4.747 0.381-5.408 0.101 0 0.203-0.685 0.304-2.056v-1.294c0-0.268-0.076-0.42-0.228-0.457zM39.805 30.006h0.152v-0.152c-0.102 0.012-0.152 0.064-0.152 0.152zM40.184 17.212v0.305h0.152v-0.152c0.001-0.102-0.050-0.153-0.152-0.153zM40.489 18.582c0.037 0.559 0.115 0.838 0.228 0.838 0.254-0.926 0.381-1.41 0.381-1.447v-0.229l-0.609 0.838zM40.643 20.486l-0.076 0.534v1.219c0.012 0.102 0.063 0.152 0.152 0.152h0.076v-0.077c0-0.088-0.025-0.699-0.076-1.828h-0.076zM40.717 11.576c-0.051 0.266-0.076 0.418-0.076 0.457l0.076 0.381c-0.051 0-0.076 0.025-0.076 0.076h0.152v-0.914h-0.076zM41.174 5.865v0.076c0 1.473-0.076 2.361-0.229 2.666 0.051 0.279 0.076 0.483 0.076 0.609-0.102 0.686-0.152 1.117-0.152 1.295v0.152h0.076c0.127 0 0.229-0.305 0.305-0.914-0.051-0.266-0.076-0.521-0.076-0.762l0.305-0.914c0-0.647 0.127-2.119 0.381-4.417 0-0.037 0.127-0.521 0.381-1.447-0.088-0.291-0.242-0.52-0.457-0.686-0.254 0-0.381 1.193-0.381 3.579-0.051 0.001-0.127 0.255-0.229 0.763zM42.623 3.58c0 0.102-0.026 0.152-0.076 0.152l0.076 0.381v0.152c-0.217 1.701-0.344 2.589-0.381 2.666 0 0.051 0.025 0.076 0.076 0.076 0 0.634-0.152 1.371-0.457 2.209-0.051 0.279-0.076 0.483-0.076 0.609 0.051 0.102 0.076 0.177 0.076 0.228h0.076c0.457-1.32 0.686-2.234 0.686-2.741 0.101-0.508 0.203-0.812 0.305-0.914-0.102-0.229-0.152-0.482-0.152-0.762l0.229-0.761v-0.304c-0.003-0.66-0.13-0.991-0.382-0.991zM42.623 9.902c0 0.152 0.101 0.508 0.305 1.066h0.076l0.076-0.381-0.076-0.914h-0.152c-0.077 0-0.153 0.077-0.229 0.229zM46.277 12.796v0.305l0.076 0.381h0.076c0-0.152 0.026-0.229 0.076-0.229-0.062-0.305-0.139-0.457-0.228-0.457zM46.429 14.47v0.305h0.076v-0.305h-0.076zM46.81 17.897v0.152c0.012 0.102 0.063 0.152 0.152 0.152l0.076-0.152v-0.152h-0.228zM46.81 19.497v0.229h0.152c-0.051-0.102-0.076-0.178-0.076-0.229h-0.076zM49.552 26.656v0.229h0.229v-0.077c0-0.101-0.051-0.152-0.152-0.152h-0.077zM53.056 21.63v3.275h0.076c0-0.355 0.025-0.533 0.076-0.533l-0.076-0.153v-2.284c0-0.051 0.025-0.076 0.076-0.076-0.051-0.102-0.076-0.178-0.076-0.229h-0.076zM53.056 25.133v1.676h0.076c0-0.101 0.025-0.152 0.076-0.152l-0.076-0.152v-0.688c0-0.050 0.025-0.076 0.076-0.076-0.051-0.051-0.076-0.254-0.076-0.609h-0.076z"></path>
<path d="M57.492 0.762h0.076c0.102 0 0.355 0.051 0.762 0.152 0.381-0.101 0.634-0.152 0.762-0.152 0.457 0.102 0.787 0.152 0.99 0.152s0.533-0.051 0.99-0.152l0.686 0.076c0.342-0.051 0.621-0.076 0.837-0.076l0.152 0.229-0.381 0.99c0.051 0.558 0.076 1.041 0.076 1.447v1.371c0 0.076-0.051 0.482-0.152 1.218v1.98c0 0.356 0.051 0.635 0.152 0.838-0.101 0.406-0.152 0.889-0.152 1.447v0.152c0 0.178 0.051 0.609 0.152 1.295-0.152 0.596-0.228 1.535-0.228 2.818v1.523h0.076c0.101 0 0.202-0.203 0.304-0.609-0.051-0.432-0.076-0.787-0.076-1.066v-0.99c0.686-1.726 1.219-2.691 1.6-2.894 0.203-0.672 1.092-2.297 2.666-4.874 0-0.164 0.432-0.926 1.295-2.285l0.914-1.599-0.076-0.381v-0.077c0-0.355 0.152-0.533 0.457-0.533 0.127 0 0.33 0.026 0.609 0.076 0.279-0.051 0.483-0.076 0.609-0.076l0.533 0.152c0.191-0.101 0.393-0.152 0.609-0.152h3.427c0.102 0.012 0.152 0.064 0.152 0.152v0.229c0 0.064-0.457 0.572-1.371 1.523-0.229 0.584-1.397 2.666-3.504 6.245-0.558 1.080-0.99 1.84-1.295 2.285-0.318 0.483-0.647 1.117-0.99 1.904-0.254 0.266-0.381 0.521-0.381 0.762v0.076c0.812 1.879 1.219 2.92 1.219 3.123 0.558 0.965 0.863 1.7 0.914 2.209 0.66 1.218 0.99 1.904 0.99 2.056 0.266 0.94 0.672 1.879 1.219 2.818 1.371 3.363 2.158 5.191 2.361 5.484 0.101 0 0.355 0.305 0.761 0.913 0.152 0.051 0.229 0.204 0.229 0.458v0.076c0 0.102-0.051 0.152-0.152 0.152h-0.685l-0.457-0.077c-0.051 0-0.076 0.028-0.076 0.077-0.596-0.050-1.029-0.077-1.295-0.077h-1.98c-0.266 0-0.699 0.028-1.295 0.077l-0.229-0.305v-0.762c0-0.406-0.229-0.99-0.686-1.752 0-0.164-0.355-1.002-1.066-2.513l-1.142-2.666-1.675-4.037c-0.178-0.050-0.28-0.076-0.305-0.076-0.166 0.672-0.293 1.055-0.381 1.142-0.393 0.827-0.926 1.74-1.6 2.741-0.101 0.204-0.152 0.483-0.152 0.838v0.762c0.101 0.863 0.152 1.346 0.152 1.447v2.97c0 0.621 0.127 1.232 0.381 1.827v0.153c0 0.076-0.102 0.151-0.305 0.228-0.445-0.050-0.723-0.077-0.837-0.077-0.229 0-0.381 0.028-0.457 0.077-0.432-0.050-0.787-0.077-1.066-0.077h-1.37c-0.266 0-0.699 0.028-1.295 0.077l-0.228-0.305c0-0.152 0.177-0.686 0.533-1.599-0.051-0.533-0.076-0.837-0.076-0.914 0.102-0.457 0.152-0.786 0.152-0.99v-2.97c0-0.266-0.026-0.496-0.076-0.685 0.051-0.266 0.076-0.52 0.076-0.763v-3.503c-0.102-0.736-0.152-1.142-0.152-1.218 0-0.025 0.051-0.406 0.152-1.142v-1.676c0-2.068-0.051-3.566-0.152-4.493 0.102-0.203 0.152-0.482 0.152-0.838v-2.815c-0.102-0.736-0.152-1.143-0.152-1.219v-1.294c0.102-0.736 0.152-1.143 0.152-1.219v-1.37c0-0.215-0.203-0.572-0.609-1.066v-0.152c0-0.077 0.076-0.155 0.228-0.231zM58.558 1.753l0.076 0.381h0.076l0.076-0.305-0.152-0.076h-0.076zM58.863 23.229l0.076 0.38c-0.152 0.342-0.229 0.623-0.229 0.838v0.152c0.012 0.101 0.063 0.152 0.152 0.152 0-0.051 0.101-0.202 0.305-0.457v-0.152l0.457-3.58-0.076-0.457 0.076-0.685-0.076-0.457c-0.355 0.28-0.584 1.701-0.685 4.266zM58.787 25.207l-0.076 0.381c0.012 0.101 0.063 0.152 0.152 0.152l0.076-0.152-0.076-0.381h-0.076zM59.015 27.113l0.076 0.305-0.076 1.066c0.051 0.277 0.076 0.483 0.076 0.609h0.076v-1.981h-0.152zM59.091 29.473v0.761h0.076v-0.761h-0.076zM59.547 8.988l-0.076 0.381c0.051 0.736 0.076 1.142 0.076 1.218h0.076l0.076-0.381v-1.218h-0.152zM59.777 12.187l-0.076 0.533v0.609c0 0.051-0.026 0.076-0.076 0.076 0.152 0.406 0.229 0.736 0.229 0.99h0.076c0.102 0 0.152-0.051 0.152-0.152v-1.904c0-0.102-0.051-0.152-0.152-0.152h-0.153zM59.853 25.894v1.981h0.076c0-1.421 0.178-2.133 0.533-2.133-0.051-0.609-0.076-1.064-0.076-1.37 0-0.178 0.127-0.407 0.381-0.686 0-0.265-0.026-0.697-0.076-1.295-0.090 0-0.369 1.168-0.838 3.503zM59.853 29.625v0.305c0.012 0.101 0.062 0.152 0.152 0.152v-0.077l-0.076-0.38h-0.076zM60.232 15.765v3.656h0.076c0.051-0.596 0.076-1.029 0.076-1.295v-2.361h-0.152zM60.613 27.875v1.295h0.152v-0.534l-0.076-0.761h-0.076zM61.070 9.597l-0.076 0.381c0.051 0.088 0.076 0.191 0.076 0.304h0.076v-0.685h-0.076zM61.224 5.408c0 0.076 0.025 0.381 0.076 0.914 0 0.369-0.051 1.156-0.152 2.361 0.127 0 0.229-0.203 0.305-0.609v-2.133c0-0.254 0.101-0.533 0.305-0.838 0.051-1.244 0.076-2.234 0.076-2.97v-0.076l-0.076-0.533c-0.141 0-0.266 1.041-0.381 3.123-0.065 0-0.116 0.254-0.153 0.761zM63.431 14.242v0.076h0.077l0.229-0.838c-0.141 0-0.243 0.254-0.306 0.762zM64.422 14.851l-0.762 1.98 0.152 0.076c0.115-0.076 0.316-0.457 0.609-1.143h0.229c0.152 0 0.228 0.178 0.228 0.533h0.076v-0.609c0-0.304-0.177-0.583-0.532-0.837zM64.117 12.566h0.229l0.305-0.228c-0.102-0.381-0.152-0.736-0.152-1.066h-0.076c-0.142 0-0.243 0.431-0.306 1.294zM68.382 9.14v0.229h0.076v-0.229h-0.076zM71.352 2.362c0 0.228-0.102 0.482-0.305 0.761v1.6c0.101 0.736 0.152 1.142 0.152 1.218 0.101 0 0.152-0.051 0.152-0.152v-0.838c0-0.115 0.076-0.445 0.229-0.99-0.102-0.508-0.152-0.838-0.152-0.99 0.051-0.279 0.076-0.482 0.076-0.609h-0.152zM71.2 24.219v0.229h0.076v-0.229h-0.076zM71.428 28.559v0.914c0.101 0 0.152-0.051 0.152-0.152v-0.762h-0.152z"></path>
<path d="M79.348 0.838h0.838c0.115 0 0.215 0.026 0.305 0.076 0.088-0.051 0.191-0.076 0.305-0.076l0.533 0.076 0.38-0.076c0.203 0.102 0.355 0.152 0.457 0.152 0.191-0.101 0.42-0.152 0.686-0.152l1.599 0.381h1.143c0.533-0.152 1.117-0.279 1.752-0.381l0.533 0.076 0.305-0.076c0.203 0.051 0.381 0.076 0.533 0.076l0.304-0.076c0.178 0 0.787 0.533 1.828 1.6 0.279 0.304 0.533 0.634 0.761 0.99 0 0.102-0.026 0.152-0.076 0.152 0.051 0.686 0.076 1.193 0.076 1.523 0 0.178-0.051 2.006-0.152 5.484v1.371c0.102 0.863 0.152 1.346 0.152 1.447v4.265c0 0.356-0.051 0.635-0.152 0.838 0.102 0.584 0.152 1.295 0.152 2.133v3.808c-0.102 0.736-0.152 1.142-0.152 1.219v1.524c0 0.329 0.026 0.835 0.076 1.523-0.228 0.393-0.837 1.053-1.828 1.981-0.254 0.356-0.533 0.533-0.838 0.533l-0.38-0.077-0.152 0.077-0.457-0.077h-0.152c-0.115 0-0.215 0.028-0.305 0.077-0.088-0.050-0.215-0.077-0.381-0.077s-0.291 0.028-0.381 0.077c-0.279-0.050-0.508-0.077-0.685-0.077h-1.219l-0.457 0.077c-0.115-0.050-0.445-0.101-0.99-0.152-0.432 0.102-0.711 0.152-0.838 0.152-0.279 0-0.559-0.026-0.838-0.077-0.584 0.051-1.142 0.077-1.675 0.077h-0.609c-0.545 0-0.977-0.279-1.295-0.837-0.229 0-0.686-0.457-1.371-1.371-0.037 0-0.115-0.127-0.229-0.381l0.076-0.914v-1.751c-0.101-1.639-0.152-2.527-0.152-2.667v-4.95c0-0.393 0.025-0.748 0.076-1.066-0.051-0.254-0.076-0.584-0.076-0.99v-1.523c0.101-0.863 0.152-1.346 0.152-1.447v-2.67c-0.152-0.482-0.228-0.863-0.228-1.142 0-1.943 0.076-3.922 0.228-5.941v-0.304c0-0.316 0.279-0.621 0.838-0.914 0.621-1.016 1.281-1.524 1.98-1.524zM78.053 19.497v0.153h0.076v-0.153h-0.076zM78.434 2.514c0.101 0.418 0.152 0.697 0.152 0.837h0.152c0-0.076-0.026-0.432-0.076-1.066 0.051-0.102 0.076-0.178 0.076-0.229h-0.076c-0.152 0.052-0.228 0.204-0.228 0.458zM78.664 10.511v0.305c0.012 0.102 0.064 0.152 0.152 0.152h0.076l-0.076-0.457h-0.152zM79.195 18.811v0.152l0.076 0.381h0.076v-0.534h-0.152zM79.195 20.030v0.228c0.012 0.101 0.064 0.152 0.152 0.152h0.076v-0.152l-0.076-0.38c-0.101 0.012-0.152 0.064-0.152 0.152zM79.5 7.465l-0.229 0.304 0.152 0.533c0.152 0 0.229-0.254 0.229-0.761l-0.152-0.076zM79.576 23.458c-0.051 0.277-0.076 0.483-0.076 0.609 0.051 0.101 0.076 0.178 0.076 0.228h0.152c0-0.203 0.026-0.305 0.076-0.305-0.102-0.255-0.152-0.432-0.152-0.533h-0.076zM79.576 25.207c0.051 0.432 0.076 0.763 0.076 0.991h0.076c0-0.087 0.051-0.293 0.152-0.609-0.102-0.164-0.152-0.293-0.152-0.381h-0.152zM79.652 26.504v0.686h0.076v-0.686h-0.076zM84.527 5.179h-0.685c-0.737 0.102-1.143 0.152-1.219 0.152h-0.152c-0.051 0-0.254-0.051-0.609-0.152l-0.381 0.076v0.381c0 0.951-0.101 1.664-0.304 2.132l-0.152 15.46h-0.076l0.076 0.152v0.609c0 0.050-0.026 0.077-0.076 0.077l0.076 0.151v1.371c0 0.051-0.026 0.077-0.076 0.077 0.164 0.558 0.469 0.837 0.914 0.837l0.305 0.305-0.076 0.381c0.152 0.482 0.305 1.218 0.457 2.209 0.215 0 0.445 0.38 0.686 1.14h0.076c0.457 0 0.685-0.151 0.685-0.456l-0.076-1.066c0.102-0.166 0.152-0.316 0.152-0.457-0.152-0.191-0.228-0.369-0.228-0.534l0.076-0.38c-0.051-0.254-0.152-0.38-0.304-0.38-0.166 0.102-0.318 0.152-0.457 0.152h-0.229c-0.076 0-0.152-0.077-0.229-0.228v-0.381c0.051-0.152 0.203-0.228 0.457-0.228h0.076c0.139 0 0.291 0.050 0.457 0.151 0.33-0.101 0.558-0.151 0.685-0.151h1.6c0.076 0 0.152 0.076 0.229 0.228l-0.076 0.533c0.101 0 0.177-0.254 0.229-0.761 0.355-0.331 0.533-0.635 0.533-0.914v-0.914c0-0.483 0.026-0.965 0.076-1.448l-0.076-0.38 0.152-3.351c-0.051-0.101-0.076-0.178-0.076-0.228l0.229-0.763-0.076-0.457c0.102-0.33 0.152-0.558 0.152-0.685-0.203-0.229-0.305-0.355-0.305-0.381v-0.381c0-0.051 0.026-0.076 0.076-0.076l-0.076-0.152v-0.305c0-0.164 0.026-0.291 0.076-0.381l-0.076-0.457v-0.685c0-0.051 0.026-0.076 0.076-0.076l-0.076-0.152v-0.761c0-1.561 0.026-3.668 0.076-6.32 0.102-0.355 0.152-0.66 0.152-0.914v-0.839c-0.215 0-0.445-0.076-0.686-0.229-0.203 0.102-0.355 0.152-0.457 0.152-0.765-0.112-1.145-0.315-1.145-0.607-0.229 0.203-0.356 0.304-0.381 0.304zM81.176 28.711v0.457l0.076 0.38h0.076v-0.837h-0.152zM81.404 30.006v0.152h0.076v-0.152h-0.076zM82.013 1.753c0 0.152 0.026 0.229 0.076 0.229l-0.076 0.381v1.066c0 0.254-0.026 0.635-0.076 1.143h0.152c0-0.127 0.076-0.533 0.229-1.219v-1.6c0-0.102-0.051-0.152-0.152-0.152-0.102 0.011-0.153 0.062-0.153 0.152zM83.232 3.961v0.229l0.076 0.381h0.229c-0.102-0.457-0.152-0.711-0.152-0.762-0.102 0.012-0.153 0.063-0.153 0.152zM83.842 1.6c0 0.051-0.026 0.076-0.076 0.076 0.191 0.711 0.393 1.066 0.609 1.066h0.076c-0.077-0.761-0.28-1.142-0.609-1.142zM84.527 2.895v0.076c0.102 0.166 0.152 0.293 0.152 0.381h0.076v-0.152c-0.076-0.204-0.152-0.305-0.228-0.305zM85.898 27.721l-0.076 0.381v0.228h0.152v-0.609h-0.076zM86.888 1.753c0 0.051-0.026 0.076-0.076 0.076 0.051 0.102 0.076 0.178 0.076 0.229 0 0.203 0.026 0.66 0.076 1.371h0.076c0.102 0 0.152-0.051 0.152-0.152-0.050-1.018-0.152-1.524-0.304-1.524zM87.421 26.199c0 0.406-0.203 0.964-0.609 1.676v0.533c0.012 0.101 0.064 0.152 0.152 0.152 0.406-1.078 0.609-1.84 0.609-2.284l-0.152-0.077zM87.726 29.473h0.152v-0.305c0.254-0.826 0.381-1.41 0.381-1.752v-0.228c-0.356 0.482-0.533 1.244-0.533 2.285zM87.802 19.878h0.152c0.051-0.266 0.076-0.42 0.076-0.457-0.152 0.051-0.228 0.202-0.228 0.457zM88.030 3.733c-0.102 0.166-0.152 0.318-0.152 0.457v0.305h0.152l0.152-0.533v-0.077c0.001-0.102-0.051-0.152-0.152-0.152zM88.563 16.603c-0.203 0.799-0.381 1.689-0.533 2.666 0.127 0 0.33-0.762 0.609-2.285v-0.381h-0.076zM88.411 5.332l-0.076 0.533c0.076 0.203 0.152 0.305 0.229 0.305v-0.686c-0.001-0.101-0.052-0.152-0.153-0.152zM88.335 23.686v0.077h0.152v-0.229c-0.101 0.012-0.152 0.064-0.152 0.152zM88.563 10.511l-0.076 0.533v1.143h0.152v-1.219l0.076-0.381-0.152-0.076zM88.563 21.172l-0.076 0.762v0.076c0.012 0.102 0.064 0.153 0.152 0.153v-0.991h-0.076zM88.944 27.797v0.457c-0.304 0.838-0.457 1.371-0.457 1.599 0.051 0.203 0.076 0.38 0.076 0.534l0.152-0.077-0.076-0.152v-0.305c0.304-0.826 0.457-1.459 0.457-1.904v-0.152h-0.152zM88.944 19.269c0 0.139-0.127 0.598-0.38 1.371 0.051 0.101 0.076 0.178 0.076 0.228h0.076l0.304-1.523v-0.077h-0.076zM88.563 22.315v0.609h0.076v-0.609h-0.076zM89.249 18.126c0 0.152-0.051 0.33-0.152 0.533h0.076c0.102 0 0.152-0.050 0.152-0.152v-0.381h-0.076zM89.096 25.818v0.458h0.076l0.076-0.458h-0.152zM89.325 2.286v0.152h0.076v-0.152h-0.076zM89.325 17.441v0.457h0.076v-0.457h-0.076zM90.085 18.126c0 0.305-0.229 1.549-0.686 3.733v0.076c0.242-0.115 0.42-0.951 0.533-2.513 0.203-0.178 0.305-0.38 0.305-0.609v-0.533c0.001-0.104-0.050-0.155-0.152-0.155zM89.477 29.625v0.152h0.229l0.152-0.534v-0.151c-0.064 0.001-0.191 0.179-0.381 0.533zM89.858 28.408v0.305h0.152l0.076-0.381v-0.076h-0.076c-0.101 0.012-0.152 0.064-0.152 0.152zM90.163 26.885c-0.102 0.164-0.152 0.316-0.152 0.456h0.076c0.076 0 0.152-0.076 0.229-0.228v-0.077c-0.001-0.101-0.052-0.151-0.153-0.151zM90.163 12.339l-0.077 0.38v0.762h0.076l0.076-0.381v-0.761h-0.075zM90.163 22.772l-0.077 0.381v0.151c0.012 0.102 0.064 0.153 0.152 0.153v-0.686h-0.075zM90.391 8.531v0.305h0.152v-0.458c-0.101 0.014-0.152 0.065-0.152 0.153zM90.62 20.411c-0.102 0.432-0.178 1.066-0.229 1.904 0.101 0 0.203-0.609 0.305-1.828v-0.076h-0.076z"></path>
<path d="M94.066 0.762l1.295 0.152 0.305-0.152c0.672 0.051 1.207 0.127 1.6 0.229 0.127 0 0.33-0.025 0.609-0.076 0.635 0.051 0.965 0.076 0.99 0.076 0.939-0.051 1.726-0.076 2.361-0.076 0.166-0.101 0.318-0.152 0.457-0.152h0.305c0.088 0 0.316 0.076 0.686 0.229 0.202-0.076 0.304-0.152 0.304-0.229 0.33 0 1.396 0.102 3.199 0.305 0.203-0.101 0.482-0.152 0.838-0.152 0.291 0 0.951 0.609 1.98 1.828 0.164 0 0.316 0.254 0.457 0.762 0 0.178-0.026 0.406-0.076 0.686 0.101 1.129 0.152 1.943 0.152 2.437-0.051 1.625-0.076 2.564-0.076 2.818 0 0.166 0.025 0.291 0.076 0.381-0.051 0.432-0.076 0.787-0.076 1.066v5.941c0 0.33-0.584 0.965-1.752 1.904-0.304 0.456-0.584 0.685-0.837 0.685-0.483 0.051-1.016 0.076-1.6 0.076h-0.304c-0.699 0-1.18-0.025-1.447-0.076-0.483 0.051-1.015 0.076-1.599 0.076h-1.828c-0.609 0-0.914-0.101-0.914-0.305l0.076-0.685c-0.203-0.762-0.33-1.802-0.381-3.123-0.152-0.203-0.254-0.305-0.305-0.305l-0.076 0.152c0.203 0.572 0.305 0.926 0.305 1.066v2.589l0.305 0.458c-0.152 0.533-0.229 0.863-0.229 0.99v0.914c0 0.699 0.026 1.611 0.076 2.741 0 0.050-0.026 0.077-0.076 0.077l0.076 0.38v4.722c0 0.279 0.152 0.863 0.457 1.752 0 0.077-0.102 0.178-0.305 0.305l-0.686-0.077-0.381 0.077c-0.279-0.050-0.508-0.077-0.685-0.077l-0.381 0.077-0.305-0.077c-0.026 0-0.355 0.028-0.99 0.077-0.634-0.050-0.99-0.077-1.066-0.077-0.28 0.051-0.508 0.077-0.686 0.077l-0.229-0.305c0.406-1.002 0.609-1.639 0.609-1.904v-8.986c0-0.279 0.025-0.635 0.076-1.066-0.051-0.050-0.076-0.254-0.076-0.609 0-0.254 0.025-0.381 0.076-0.381-0.051-0.508-0.076-0.888-0.076-1.142v-3.2c0-2.221-0.026-5.064-0.076-8.529 0.037-0.507 0.088-0.761 0.152-0.761l-0.076-0.533v-1.524c0-0.291-0.152-0.647-0.457-1.066v-0.229c0-0.076 0.076-0.153 0.229-0.229zM96.121 8.759v0.381c0.012 0.102 0.064 0.152 0.152 0.152l0.076-0.152v-0.152l-0.076-0.381c-0.101 0.012-0.152 0.063-0.152 0.152zM96.197 6.855v0.076c0.012 0.102 0.064 0.152 0.152 0.152v-0.38c-0.101 0.012-0.152 0.064-0.152 0.152zM96.197 28.635c0.102 0.255 0.152 0.432 0.152 0.534h0.076v-0.229c-0.051-0.178-0.076-0.277-0.076-0.305h-0.152zM99.777 5.332c-0.445-0.051-0.723-0.076-0.838-0.076l-0.076 0.533v0.229c0.102 0.127 0.152 0.229 0.152 0.305-0.102 0.318-0.152 0.494-0.152 0.533l0.076 0.457c0 0.191-0.076 0.902-0.229 2.132 0 0.115 0.026 0.215 0.076 0.305-0.102 0.191-0.152 0.393-0.152 0.609 0.102 0.863 0.152 1.397 0.152 1.6-0.051 0.355-0.076 0.558-0.076 0.609s0.026 0.076 0.076 0.076l-0.152 1.752c0.127 0 0.558 0.178 1.295 0.533h3.732c0.445 0 0.826-0.254 1.143-0.762v-3.275c0.152-0.66 0.229-1.015 0.229-1.066 0-0.584-0.026-1.117-0.076-1.6 0.051-0.342 0.076-0.621 0.076-0.837-0.102-1.269-0.254-1.904-0.457-1.904-0.217-0.203-0.42-0.305-0.609-0.305h-1.219c-0.064 0-0.342 0.051-0.837 0.152h-0.152c-0.736-0.101-1.117-0.152-1.143-0.152-0.471 0.101-0.751 0.152-0.839 0.152zM102.519 1.753v2.665c0.012 0.102 0.064 0.152 0.152 0.152l0.076-0.152v-0.457c0-0.215 0.026-0.494 0.076-0.838-0.101-0.203-0.152-0.482-0.152-0.837v-0.686c-0.102 0.012-0.152 0.064-0.152 0.153zM103.28 18.202v0.305h0.152v-0.305h-0.152zM105.793 3.504v0.152h0.076c0.254-0.85 0.381-1.51 0.381-1.98l-0.152-0.076h-0.076c-0.152 0-0.229 0.635-0.229 1.904zM105.793 14.318v0.381h0.152v-0.229c0.001-0.101-0.050-0.152-0.152-0.152zM106.555 12.796c0.012 0.152 0.215 0.457 0.609 0.914v0.152c-0.102 0.166-0.152 0.318-0.152 0.457v1.218c0 0.076 0.076 0.152 0.229 0.229 0.088 0 0.266-0.33 0.533-0.99 0.305-0.127 0.457-0.33 0.457-0.609v-0.686c0-0.139-0.254-0.24-0.761-0.305-0.229-0.355-0.483-0.533-0.762-0.533-0.102 0.014-0.153 0.065-0.153 0.153zM107.088 17.745v0.152c0 0.115 0.127 0.191 0.381 0.229 0.203-0.229 0.304-0.406 0.304-0.533-0.051 0-0.076-0.025-0.076-0.076-0.406 0.051-0.609 0.127-0.609 0.228zM107.241 2.286v0.304c0.101 0 0.152-0.051 0.152-0.152 0-0.102-0.051-0.152-0.152-0.152zM108.002 10.968l-0.076 0.152v0.076c0 0.393 0.102 0.623 0.305 0.686 0-0.102 0.026-0.152 0.076-0.152-0.127-0.508-0.229-0.762-0.305-0.762z"></path>
<path d="M110.82 0.762c0.152 0 0.355 0.051 0.609 0.152 0.355-0.101 0.634-0.152 0.838-0.152l0.99 0.152c0.33-0.101 0.559-0.152 0.686-0.152h1.447c0.164 0 0.519 0.051 1.066 0.152 0.152 0 0.355-0.051 0.609-0.152 0.254 0 0.381 0.026 0.381 0.076 1.092-0.051 1.904-0.076 2.437-0.076h4.95c0.457 0 0.685 0.533 0.685 1.6 0.254 1.726 0.381 2.843 0.381 3.351l-0.305 0.152c-0.393-0.051-0.799-0.229-1.218-0.533l-0.152 0.076h-0.609c-0.178 0-0.406-0.025-0.686-0.076-0.101 0.051-0.177 0.076-0.228 0.076-0.152 0-0.229-0.025-0.229-0.076-0.508 0.051-0.889 0.076-1.143 0.076h-2.437c-0.064 0-0.342-0.051-0.838-0.152h-0.533c-0.102 0-0.356 0.051-0.762 0.152-0.254-0.088-0.381-0.215-0.381-0.38 0.102-0.85 0.279-1.664 0.533-2.438-0.102-0.482-0.152-0.863-0.152-1.142v-0.076c-0.355-0.051-0.559-0.076-0.609-0.076l-0.076 0.152v0.99l-0.152 1.371c0.102 0.672 0.203 1.080 0.305 1.219 0 0.064-0.279 0.469-0.837 1.218v0.152c0 0.355 0.051 0.635 0.152 0.838-0.101 0.203-0.152 0.482-0.152 0.837v1.6c0 0.203 0.051 0.533 0.152 0.99-0.101 0.469-0.152 0.748-0.152 0.838 0 0.609 0.533 1.015 1.599 1.218 0.088 0 0.291-0.051 0.609-0.152l0.457 0.076c1.231 0 2.348-0.203 3.351-0.609h0.305c0.101 0.012 0.152 0.063 0.152 0.152v0.38c0 0.178 0.025 0.406 0.076 0.686-0.102 0.203-0.152 0.381-0.152 0.533 0.051 0.152 0.101 0.229 0.152 0.229l-0.076 0.533v2.437l0.076 0.533-0.229 0.152h-0.152c-1.029-0.406-1.611-0.609-1.752-0.609-0.356 0.051-0.559 0.076-0.609 0.076-0.088 0-0.445-0.076-1.066-0.229-0.191 0.102-0.393 0.152-0.609 0.152-0.051 0-0.127-0.026-0.229-0.076-0.203 0.051-0.381 0.076-0.533 0.076l-0.305-0.076c-0.166 0.102-0.318 0.152-0.457 0.152h-0.152l-0.229-0.152c0.064-1.967 0.166-3.186 0.305-3.656-0.037-0.305-0.191-0.457-0.457-0.457-0.101 0.166-0.152 0.293-0.152 0.381-0.051 1.561-0.076 2.578-0.076 3.047-0.102 0.33-0.152 0.559-0.152 0.686v0.076c0.393 0 0.621 0.102 0.685 0.305l-0.457 0.609c0.051 2.437 0.076 4.316 0.076 5.636v1.753c0 0.228 0.202 0.661 0.609 1.295l0.533-0.076h0.076c0.177 0 0.406 0.025 0.686 0.076l0.533-0.152c0.85 0.050 1.51 0.077 1.98 0.077h1.904c0.215 0 0.418 0.025 0.609 0.076 0.203-0.051 0.406-0.076 0.609-0.076h1.295c0.191 0 0.621-0.153 1.295-0.458h0.152c0.076 0 0.152 0.077 0.229 0.229-0.279 3.148-0.533 4.722-0.761 4.722-0.088 0.051-0.191 0.076-0.305 0.076h-2.361c-2.17 0-3.846 0.028-5.027 0.077-1.004-0.050-2.578-0.077-4.722-0.077h-0.914c-0.254 0-0.381-0.050-0.381-0.151-0.254 0.151-0.457 0.228-0.609 0.228h-0.229c-0.115 0-0.191-0.127-0.228-0.381 0.304-0.775 0.457-1.256 0.457-1.445 0-0.75-0.026-1.256-0.076-1.524 0.051-1.055 0.076-2.018 0.076-2.894v-2.057c0-0.748-0.026-1.256-0.076-1.524 0.051-0.533 0.076-1.117 0.076-1.751v-5.484c0-0.178-0.026-0.406-0.076-0.686 0.051-0.101 0.076-0.177 0.076-0.229l-0.076-0.914 0.076-1.066c0-0.393-0.026-0.748-0.076-1.066 0.051-1.687 0.076-3.16 0.076-4.417v-2.819l-0.076-0.381h0.076l-0.457-1.447v-0.076c0.104-0.203 0.255-0.305 0.458-0.305zM111.428 1.676v0.305l0.533 2.589h0.076c0.051-0.178 0.076-0.279 0.076-0.305 0-0.242-0.152-0.977-0.457-2.209 0-0.254-0.051-0.381-0.152-0.381h-0.076zM111.582 7.845l-0.152 0.305c0 1.193 0.152 2.031 0.457 2.513l-0.229 1.295 0.457 2.209v0.686c0.037 0.304 0.115 0.457 0.229 0.457 0-0.254 0.025-0.38 0.076-0.38-0.088-0.33-0.191-1.168-0.305-2.513v-2.057c0-0.127-0.127-0.634-0.381-1.523l0.076-0.381c0-0.382-0.076-0.585-0.228-0.612zM111.734 28.102c0 0.152-0.026 0.228-0.076 0.228 0.051 0.102 0.076 0.178 0.076 0.229h0.076v-0.457h-0.076zM112.039 5.028c0 0.025-0.026 0.127-0.076 0.304 0 0.229 0.203 1.092 0.609 2.589 0.305 1.51 0.457 2.754 0.457 3.732h-0.076l0.076 0.152v0.152c0 0.051-0.025 0.076-0.076 0.076 0.076 0.203 0.152 0.305 0.228 0.305 0-0.051 0.026-0.076 0.076-0.076 0-0.051-0.026-0.127-0.076-0.229 0.051-1.117 0.127-1.929 0.229-2.437-0.355 0-0.66-1.244-0.914-3.732-0.051 0-0.178-0.279-0.381-0.837h-0.076zM113.105 1.219l-0.076 0.152c0.152 0.686 0.229 1.168 0.229 1.447v0.838c0.012 0.102 0.064 0.152 0.152 0.152v-0.913c0-0.152 0.076-0.457 0.229-0.914-0.065-0.508-0.243-0.762-0.534-0.762zM113.41 26.808l-0.076 0.381v1.064h0.076c0-0.661 0.102-1.117 0.305-1.37l-0.152-0.077h-0.153zM114.018 28.711v0.077c0 0.277 0.026 0.634 0.076 1.064-0.051 0.088-0.076 0.192-0.076 0.305h0.152v-0.152c0-0.164 0.026-0.291 0.076-0.38-0.050-0.61-0.126-0.915-0.228-0.915zM114.246 13.634v0.533c0.101 0 0.152-0.051 0.152-0.152l-0.076-0.381h-0.076zM114.551 1.6v0.914c0.305 0.316 0.457 0.621 0.457 0.914 0.115 0 0.191-0.177 0.229-0.533l-0.076-0.914h0.076c-0.051-0.406-0.178-0.609-0.381-0.609-0.204 0.076-0.305 0.152-0.305 0.228zM116.074 27.266c0 0.026-0.051 0.406-0.152 1.142v0.457h0.152c0.203-0.762 0.305-1.193 0.305-1.295v-0.152c0-0.101-0.051-0.152-0.152-0.152h-0.153zM116.836 13.48c-0.203 0.102-0.305 0.94-0.305 2.513-0.102 0.012-0.152 0.064-0.152 0.152v0.229h0.152c0.254-0.66 0.381-1.015 0.381-1.066s-0.051-0.304-0.152-0.761c0.152-0.266 0.229-0.521 0.229-0.762v-0.152c-0.001-0.102-0.052-0.153-0.153-0.153zM117.598 1.6c0 0.889-0.127 1.904-0.381 3.047l0.152 0.229c0.609-0.051 0.914-0.127 0.914-0.229 0.051-1.676 0.127-2.513 0.229-2.513-0.102-0.381-0.152-0.635-0.152-0.762h-0.609c-0.104 0-0.153 0.076-0.153 0.228zM117.369 29.244c0.051 0.102 0.076 0.178 0.076 0.229h0.152c0.115-0.051 0.316-0.407 0.609-1.066 0.254-0.064 0.381-0.139 0.381-0.228v-0.381c0-0.077-0.076-0.152-0.229-0.228-0.242 0-0.469 0.406-0.685 1.219-0.037-0.001-0.139 0.149-0.304 0.454zM117.598 15.536c0.139 0 0.316-0.279 0.533-0.837l-0.076-0.152v-0.534c0-0.127 0.051-0.355 0.152-0.686l-0.152-0.076h-0.076c-0.128 0.001-0.254 0.762-0.381 2.285zM118.283 15.689l-0.076 0.381v0.076c0.012 0.102 0.064 0.152 0.152 0.152 0-0.051 0.026-0.254 0.076-0.609h-0.152z"></path>
<path d="M129.269 0.686l0.914 0.229c0.457-0.101 0.786-0.152 0.991-0.152 0.15 0 0.329 0.051 0.533 0.152 0.191-0.101 0.392-0.152 0.607-0.152h0.229c0.939 0 1.498 0.711 1.676 2.132 0.254 0.152 0.812 1.346 1.676 3.58l1.904 4.57c0 0.115 0.127 0.418 0.38 0.914 0 0.152 0.305 0.889 0.914 2.209 0.101 0.736 0.278 1.168 0.533 1.295 0 0.127 0.305 0.838 0.914 2.132 0.050 0.762 0.177 1.143 0.381 1.143h0.15c0.153-0.051 0.229-0.203 0.229-0.458v-2.742c0-0.545 0.025-0.977 0.076-1.295-0.051-0.369-0.076-0.826-0.076-1.371v-3.58c-0.102-0.736-0.152-1.143-0.152-1.219v-1.978c0-0.355 0.050-0.634 0.152-0.838-0.102-0.38-0.152-0.583-0.152-0.609 0.101-0.381 0.152-0.736 0.152-1.066v-0.686c0-0.164-0.229-0.775-0.685-1.828v-0.076c0.164-0.152 0.291-0.229 0.38-0.229 0.202 0 0.305 0.026 0.305 0.076l0.914-0.076h3.884c0.077 0 0.153 0.076 0.229 0.229v0.229c-0.203 0.191-0.38 0.699-0.534 1.523l0.077 0.914v1.447c0 0.064-0.051 0.344-0.152 0.838v3.275c0 0.355 0.051 0.635 0.152 0.837-0.051 0.28-0.077 0.483-0.077 0.609 0 0.115 0.026 0.217 0.077 0.305l-0.077 0.533c0 0.166 0.026 0.596 0.077 1.295l-0.152 0.609 0.152 0.686c-0.101 0.203-0.152 0.483-0.152 0.838v2.665c0 0.547 0.025 1.004 0.076 1.371-0.051 0.316-0.076 0.748-0.076 1.295v0.152c0 0.33 0.051 1.346 0.152 3.047-0.101 0.456-0.152 0.787-0.152 0.99v0.534l-0.229 0.304v0.609l0.153 0.228v0.077c0 0.139-0.051 0.293-0.153 0.457 0.051 1.129 0.102 1.814 0.153 2.056-0.051 0.088-0.077 0.57-0.077 1.447 0.077 0 0.279 0.229 0.609 0.685v0.153l-0.152 0.228-0.914-0.077h-0.457c-0.469 0-1.129 0.028-1.981 0.077-0.101-0.050-0.178-0.077-0.228-0.077-0.203 0.051-0.381 0.077-0.533 0.077-0.242 0-0.469-0.355-0.685-1.066-0.229-0.316-0.763-1.561-1.6-3.732-0.166-0.202-1.461-3.273-3.884-9.214-0.367-0.711-0.671-1.447-0.914-2.209-0.432-1.18-0.71-1.789-0.835-1.828v-0.686c0-0.191-0.128-0.393-0.381-0.609v-0.229c0-0.039 0.127-0.166 0.381-0.381v-0.228l-0.381 0.076c-0.077 0-0.305-0.177-0.686-0.533-0.15 0.547-0.228 0.875-0.228 0.99v0.076c0.101 0.863 0.152 1.346 0.152 1.447v0.914c0 0.166-0.051 0.521-0.152 1.066 0.166 0.457 0.266 0.686 0.305 0.686-0.050 0.686-0.077 1.193-0.077 1.524v0.837c0 0.915-0.025 1.802-0.076 2.665 0.051 0.445 0.076 0.826 0.076 1.143-0.050 0.926-0.076 1.51-0.076 1.752l0.076 0.686c-0.15 0.697-0.228 1.129-0.228 1.295 0.152 0.254 0.228 0.507 0.228 0.761v0.153c0 0.711-0.025 1.675-0.076 2.894 0.014 0.356 0.242 0.812 0.685 1.37v0.153c0 0.025-0.051 0.101-0.15 0.228-0.598-0.050-1.029-0.077-1.295-0.077h-2.894c-0.266 0-0.699 0.028-1.295 0.077-0.102-0.164-0.152-0.316-0.152-0.457l0.838-1.295c-0.051-0.762-0.076-1.32-0.076-1.676v-0.685c0-0.242 0.025-0.494 0.076-0.762-0.152-0.826-0.229-3.338-0.229-7.54v-3.504c0-0.406 0.025-0.939 0.076-1.599-0.051-0.088-0.076-0.215-0.076-0.381l0.076-0.686c0-0.051-0.026-0.254-0.076-0.609 0.051-0.344 0.076-0.623 0.076-0.838 0-0.254-0.051-0.381-0.152-0.381 0.051-0.837 0.076-1.472 0.076-1.904v-3.12c0-0.051 0.051-0.254 0.152-0.609-0.102-0.164-0.152-0.316-0.152-0.457 0-0.088 0.101-0.318 0.305-0.686-0.102-0.291-0.203-1.029-0.305-2.209-0.039 0-0.166-0.203-0.381-0.609v-0.228c-0.001-0.164 0.431-0.266 1.294-0.305zM129.345 2.895l-0.304 1.143v0.228l0.076 0.457c-0.102 0.203-0.152 0.38-0.152 0.533 0.101 0.166 0.152 0.293 0.152 0.381h0.152c0.051-0.457 0.101-1.345 0.152-2.666v-0.076h-0.076zM129.345 24.981c0.102 0.316 0.152 0.52 0.152 0.607h0.076c0.203-1.41 0.305-2.502 0.305-3.275v-0.456c-0.242 0.001-0.418 1.041-0.533 3.123zM130.183 28.025c-0.203 0.522-0.381 1.157-0.533 1.905v0.533c0.012 0.102 0.062 0.152 0.15 0.152 0-0.406 0.153-1.066 0.458-1.981v-0.609h-0.076zM130.105 1.295l-0.15 0.229c0.215 0.063 0.367 0.191 0.456 0.381v1.447h0.077l0.077-0.381v-0.305c0-0.266-0.028-0.697-0.077-1.295l-0.382-0.076zM130.183 26.732v0.305h0.077v-0.305h-0.077zM130.564 14.851v0.685c0.099 0 0.15-0.051 0.15-0.152v-0.38c0.001-0.102-0.050-0.153-0.15-0.153zM131.63 1.372c-0.15 0.305-0.305 2.056-0.456 5.255-0.102 0.355-0.255 1.168-0.458 2.437l0.077 0.533c-0.051 1.41-0.077 2.551-0.077 3.427l0.153 0.076 0.15-0.533v-0.761c0.037-0.305 0.115-0.457 0.229-0.457l-0.076-0.762c0.254-2.945 0.38-4.747 0.38-5.408 0.101 0 0.202-0.685 0.305-2.056v-1.294c0.001-0.268-0.076-0.42-0.228-0.457zM130.869 30.006h0.15v-0.152c-0.101 0.012-0.15 0.064-0.15 0.152zM131.249 17.212v0.305h0.152v-0.152c0.001-0.102-0.050-0.153-0.152-0.153zM131.554 18.582c0.037 0.559 0.113 0.838 0.228 0.838 0.255-0.926 0.381-1.41 0.381-1.447v-0.229l-0.609 0.838zM131.706 20.486l-0.077 0.534v1.219c0.014 0.102 0.065 0.152 0.152 0.152h0.077v-0.077c0-0.088-0.026-0.699-0.077-1.828h-0.075zM131.782 11.576c-0.050 0.266-0.076 0.418-0.076 0.457l0.076 0.381c-0.050 0-0.076 0.025-0.076 0.076h0.152v-0.914h-0.076zM132.238 5.865v0.076c0 1.473-0.076 2.361-0.229 2.666 0.051 0.279 0.077 0.483 0.077 0.609-0.101 0.686-0.152 1.117-0.152 1.295v0.152h0.076c0.127 0 0.229-0.305 0.305-0.914-0.050-0.266-0.076-0.521-0.076-0.762l0.305-0.914c0-0.647 0.127-2.119 0.38-4.417 0-0.037 0.127-0.521 0.381-1.447-0.088-0.291-0.242-0.52-0.457-0.686-0.254 0-0.38 1.193-0.38 3.579-0.052 0.001-0.128 0.255-0.231 0.763zM133.687 3.58c0 0.102-0.028 0.152-0.077 0.152l0.077 0.381v0.152c-0.217 1.701-0.344 2.589-0.381 2.666 0 0.051 0.026 0.076 0.077 0.076 0 0.634-0.153 1.371-0.458 2.209-0.050 0.279-0.076 0.483-0.076 0.609 0.051 0.102 0.076 0.177 0.076 0.228h0.077c0.457-1.32 0.686-2.234 0.686-2.741 0.099-0.508 0.202-0.812 0.305-0.914-0.102-0.229-0.153-0.482-0.153-0.762l0.229-0.761v-0.304c-0.003-0.66-0.128-0.991-0.382-0.991zM133.687 9.902c0 0.152 0.099 0.508 0.305 1.066h0.076l0.076-0.381-0.076-0.914h-0.152c-0.079 0-0.153 0.077-0.229 0.229zM137.341 12.796v0.305l0.077 0.381h0.077c0-0.152 0.025-0.229 0.076-0.229-0.065-0.305-0.142-0.457-0.231-0.457zM137.495 14.47v0.305h0.076v-0.305h-0.076zM137.874 17.897v0.152c0.014 0.102 0.064 0.152 0.152 0.152l0.077-0.152v-0.152h-0.229zM137.874 19.497v0.229h0.152c-0.050-0.102-0.077-0.178-0.077-0.229h-0.075zM140.618 26.656v0.229h0.228v-0.077c0-0.101-0.051-0.152-0.152-0.152h-0.076zM144.12 21.63v3.275h0.076c0-0.355 0.026-0.533 0.076-0.533l-0.076-0.153v-2.284c0-0.051 0.026-0.076 0.076-0.076-0.050-0.102-0.076-0.178-0.076-0.229h-0.076zM144.12 25.133v1.676h0.076c0-0.101 0.026-0.152 0.076-0.152l-0.076-0.152v-0.688c0-0.050 0.026-0.076 0.076-0.076-0.050-0.051-0.076-0.254-0.076-0.609h-0.076z"></path>
</svg>
