<!-- Generated by IcoMoon.io -->
<svg version="1.1" xmlns="http://www.w3.org/2000/svg" width="32" height="32" viewBox="0 0 32 32">
<title>add</title>
<path d="M0 15.882c0.048-8.904 7.203-16.010 16.080-15.968 8.826 0.041 15.94 7.2 15.926 16.025-0.014 8.923-7.221 16.078-16.132 16.010-8.832-0.069-15.919-7.242-15.874-16.067zM15.99 27.491c6.378 0.007 11.536-5.128 11.557-11.501 0.020-6.425-5.142-11.627-11.538-11.627-6.365 0-11.554 5.166-11.564 11.512-0.011 6.437 5.13 11.608 11.545 11.615z"></path>
<path d="M14.029 17.933c-1.553 0-3.045 0.001-4.537 0-1.961-0.003-2.796-1.045-2.286-2.916 0.227-0.833 0.828-1.255 1.743-1.247 1.656 0.017 3.312 0.004 5.081 0.004 0-1.653-0.006-3.212 0.001-4.771 0.006-1.513 0.607-2.103 2.124-2.103 1.506 0 2.096 0.584 2.104 2.118 0.011 1.535 0.003 3.069 0.003 4.756 1.597 0 3.115-0.001 4.634 0 1.762 0.001 2.283 0.523 2.247 2.238-0.029 1.35-0.588 1.905-1.988 1.916-1.591 0.015-3.184 0.004-4.892 0.004 0 1.604 0.003 3.101 0 4.602-0.007 1.88-1.206 2.762-3.019 2.189-0.846-0.266-1.219-0.905-1.214-1.772 0.004-1.633 0-3.262 0-5.019z"></path>
</svg>
