<!-- Generated by IcoMoon.io -->
<svg version="1.1" xmlns="http://www.w3.org/2000/svg" width="260" height="32" viewBox="0 0 260 32">
<title>anton</title>
<path d="M7.758 1.366h0.287c0.334 0 0.594 0.047 0.786 0.142 0.214-0.096 0.454-0.142 0.716-0.142 0.191 0 0.619 0.024 1.286 0.071 0.096-0.047 0.167-0.071 0.214-0.071 0.238 0.096 0.403 0.142 0.501 0.142 0.332-0.096 0.594-0.142 0.786-0.142 0.25 0 0.442 0.12 0.572 0.356v0.214c0 0.059-0.047 0.322-0.142 0.788v0.214l0.999 4.502 1.144 5.501c0.238 0.631 0.525 1.988 0.859 4.072 0.474 2.155 0.714 3.441 0.714 3.859 0.096 0.012 0.142 0.061 0.142 0.145v1.569c0.334 0.214 0.501 0.596 0.501 1.146 0.189 0 0.307 0.572 0.356 1.714 0.13 0 0.25 0.668 0.358 2.003 0.643 0.867 1.024 1.63 1.144 2.285-0.071 0-0.142 0.071-0.212 0.214-0.961-0.047-1.673-0.071-2.149-0.071h-0.93c-0.13 0-0.275-0.047-0.429-0.142-0.309 0.096-0.525 0.142-0.643 0.142h-0.786c-0.071 0-0.167-0.096-0.287-0.287v-0.071c0.142-0.454 0.214-0.739 0.214-0.859v-0.857c-0.142-0.413-0.287-1.129-0.429-2.143-0.13-0.059-0.25-0.393-0.356-0.997-0.275 0-0.513-0.12-0.716-0.358-0.476 0.047-0.832 0.071-1.070 0.071h-2.568c-0.906 0-1.429 0.334-1.571 0.997-0.108 0.68-0.25 1.323-0.429 1.931-0.047 0.083-0.071 0.203-0.071 0.358v0.997c0 0.238 0.047 0.525 0.142 0.859-0.096 0.287-0.191 0.429-0.287 0.429h-0.214c-0.155 0-0.275-0.024-0.358-0.071l-0.427 0.071h-0.216c-0.37 0-0.704-0.024-0.999-0.071l-0.501 0.071c-0.142 0-0.309-0.024-0.501-0.071-0.452 0.047-0.881 0.071-1.286 0.071h-0.499c-0.096 0-0.142-0.047-0.142-0.142v-0.071c0-0.214 0.212-0.596 0.641-1.146 0-0.191 0.12-0.688 0.358-1.498 0.476-2.489 0.975-4.778 1.5-6.86 0.142-0.954 0.501-2.644 1.070-5.074 0-0.204 0.096-0.393 0.287-0.57v-0.071c0-0.108-0.024-0.204-0.071-0.287 0.334-1.524 0.501-2.501 0.501-2.929 0.153 0 0.273-0.501 0.356-1.5 0.238-0.725 0.621-2.369 1.146-4.931 0.189-0.653 0.285-1.036 0.285-1.144v-0.928c0-0.25-0.024-0.655-0.071-1.215 0.177-0.142 0.344-0.214 0.499-0.214zM3.042 27.374v0.568c0 0.238-0.024 0.596-0.071 1.073h0.071c0.096 0 0.142-0.047 0.142-0.142v-1.498h-0.142zM6.614 23.872v0.214c0.096 0 0.142-0.047 0.142-0.142v-0.071h-0.142zM7.4 7.866v0.358c0.012 0.096 0.059 0.142 0.142 0.142v-0.501h-0.142zM7.687 12.367v0.287c0 0.621 0.071 0.928 0.214 0.928 0.049-0.56 0.071-0.965 0.071-1.215v-0.071l0.287-0.429v-0.212c-0.167 0.309-0.358 0.545-0.572 0.712zM7.829 6.795c0 0.096-0.024 0.142-0.071 0.142 0 0.204 0.12 0.513 0.358 0.928 0 0.906 0.071 1.357 0.214 1.357v-0.142c0-0.702-0.12-1.465-0.358-2.285h-0.142zM8.045 14.012v0.214c0.047 0 0.12 0.024 0.214 0.071l0.214-0.287v-0.214c-0.155 0.145-0.297 0.216-0.427 0.216zM8.187 5.938v0.285h0.071v-0.285h-0.071zM8.187 15.011v0.071l0.071 0.358h0.071l0.071-0.358-0.142-0.071h-0.071zM8.33 19.154v0.429c0 0.059 0.214 0.275 0.641 0.643h2.43c0.142 0 0.285-0.334 0.427-1.001-0.383-2.011-0.832-4.131-1.357-6.358 0-0.513-0.096-0.987-0.287-1.429h-0.067c-0.155 0-0.346 0.737-0.572 2.214-0.275 0.918-0.466 1.966-0.572 3.144-0.142 0-0.263 0.525-0.356 1.571-0.191 0.191-0.287 0.454-0.287 0.786zM8.545 4.009v0.786h0.071v-0.786h-0.071zM8.828 12.583c-0.191 0.501-0.285 0.81-0.285 0.928 0.189 0 0.307-0.285 0.356-0.857v-0.071h-0.071zM8.545 22.083v0.572c0.094 0 0.14-0.047 0.14-0.142v-0.287c0-0.094-0.047-0.142-0.14-0.142zM8.757 2.294l0.214 0.287c0 0.204-0.047 0.393-0.142 0.57 0.191 0 0.358 0.763 0.501 2.287 0.155 0 0.393 0.596 0.716 1.787l0.14-0.071-0.069-0.358v-0.501c-0.098-0.69-0.142-1.070-0.142-1.144v-0.429l-0.214 0.142h-0.142c-0.145-0.047-0.216-0.187-0.216-0.425v-1.931c-0.047-0.142-0.191-0.214-0.429-0.214h-0.216zM8.757 5.938v0.285c0.012 0.096 0.059 0.142 0.142 0.142h0.071v-0.216l-0.069-0.354c-0.096 0.012-0.145 0.059-0.145 0.142zM8.973 11.010l-0.071 0.645v0.212h0.071c0-0.356 0.071-0.57 0.214-0.641-0.047-0.096-0.071-0.167-0.071-0.216h-0.142zM8.902 11.938v0.358h0.071v-0.358h-0.071zM9.186 6.866l-0.071 0.358v0.285c0 0.297 0.214 0.775 0.643 1.429 0 0.334 0.071 0.668 0.214 1.001h0.071v-0.93c0-0.14-0.214-0.547-0.643-1.215 0.002-0.619-0.071-0.928-0.214-0.928zM11.403 20.943c0 0.071-0.096 0.167-0.287 0.287h-0.142c-0.179-0.142-0.322-0.214-0.429-0.214l-0.142 0.214v0.142c0 0.25 0.096 0.417 0.287 0.501 0.024 0 0.142-0.096 0.358-0.287h0.071c0.191 0.096 0.287 0.238 0.287 0.425h0.071l0.071-0.497v-0.429c-0.002-0.096-0.049-0.142-0.145-0.142zM10.615 22.726c-0.096 0.309-0.142 0.525-0.142 0.643h0.214c0.096 0 0.142-0.047 0.142-0.142v-0.287c0.002-0.069-0.069-0.14-0.214-0.214zM10.831 6.437c-0.096 0.297-0.142 0.488-0.142 0.572 0.096 0.358 0.142 0.596 0.142 0.714 0 0.083-0.047 0.226-0.142 0.429 0.096 0.334 0.142 0.621 0.142 0.857v0.572h0.071c0.071 0 0.167-0.358 0.287-1.070l-0.073-0.358v-1.215c0-0.263-0.094-0.429-0.285-0.501zM11.331 12.082l-0.142 0.287c0.142 0.346 0.214 0.56 0.214 0.643h0.142v-0.142c0-0.527-0.071-0.788-0.214-0.788zM11.403 22.584v0.287h0.071v-0.287h-0.071zM11.901 15.011v0.142c0 0.108 0.024 0.204 0.071 0.287-0.047 0.083-0.071 0.179-0.071 0.287v0.287c0.012 0.096 0.059 0.142 0.142 0.142l0.071-0.142v-1.146h-0.071c-0.094 0.012-0.142 0.059-0.142 0.142zM11.973 14.083v0.142h0.142v-0.142h-0.142zM11.973 23.155v0.071c0.012 0.096 0.059 0.142 0.142 0.142 0.096 0 0.142-0.047 0.142-0.142v-0.287h-0.069c-0.071 0.002-0.145 0.073-0.216 0.216zM12.117 20.943v0.859c0.012 0.096 0.059 0.142 0.142 0.142v-1.001h-0.142zM12.188 5.151v0.358h0.142v-0.358h-0.142zM12.473 17.726l-0.071 0.142v0.287c0 0.071 0.071 0.142 0.214 0.214h0.071v-0.214c0.002-0.25-0.069-0.393-0.214-0.429zM12.689 19.942l-0.071 0.142c0.191 0.214 0.287 0.334 0.287 0.358v0.572c0 0.047-0.026 0.071-0.071 0.071l0.071 0.142v1.284c0 0.25-0.026 0.655-0.071 1.217l0.212 0.142h0.071v-1.001c0-0.226 0.024-0.466 0.071-0.716-0.047-0.187-0.071-0.379-0.071-0.568 0.047-0.836 0.071-1.335 0.071-1.502-0.238-0.096-0.403-0.142-0.499-0.142zM12.831 15.082c0 0.155-0.024 0.275-0.071 0.358 0.096 0.334 0.142 0.621 0.142 0.857v0.287c0 0.047-0.026 0.071-0.071 0.071 0.047 0.094 0.071 0.167 0.071 0.214l0.499-0.071c0.096 0.12 0.142 0.214 0.142 0.287-0.096 0.155-0.142 0.297-0.142 0.429 0.142 0.167 0.214 0.356 0.214 0.57h0.071l0.071-0.429-0.069-0.356c0.049-0.322 0.071-0.584 0.071-0.788-0.047-0.167-0.071-0.261-0.071-0.285-0.263 0.238-0.405 0.356-0.429 0.356-0.155 0-0.248-0.309-0.285-0.928v-0.572h-0.142zM12.903 12.868c0 0.047-0.026 0.071-0.071 0.071 0 0.047 0.024 0.071 0.071 0.071l-0.071 0.356v0.071l0.071 0.358h-0.071l0.142 0.358-0.071 0.429c0.010 0.096 0.057 0.142 0.14 0.142l0.142-0.214c-0.094-0.155-0.14-0.299-0.14-0.429v-0.071c0-0.167 0.024-0.383 0.071-0.643-0.059-0.334-0.132-0.501-0.214-0.501zM13.116 19.154v0.142c0.012 0.096 0.059 0.142 0.142 0.142l0.071-0.142v-0.142h-0.214zM13.474 14.512v0.142c0.096 0.332 0.142 0.594 0.142 0.786h0.142v-0.071c0-0.12-0.071-0.405-0.214-0.857h-0.071zM14.046 19.297l-0.071 0.287 0.142 0.071h0.071c0.096 0 0.142-0.047 0.142-0.142-0.047-0.096-0.071-0.167-0.071-0.216h-0.214zM14.616 17.441v0.212h0.142v-0.354c-0.094 0.012-0.142 0.059-0.142 0.142zM14.903 29.23l0.358 0.071c0.096-0.155 0.142-0.275 0.142-0.358h-0.142c-0.24 0.12-0.358 0.216-0.358 0.287zM16.045 24.444v0.142h0.071v-0.142h-0.071zM16.116 28.801v0.142h0.071v-0.142h-0.071zM16.545 26.8v0.501c0.012 0.096 0.059 0.142 0.142 0.142v-0.643h-0.142z"></path>
<path d="M20.296 1.294l0.859 0.214c0.429-0.096 0.737-0.142 0.928-0.142 0.142 0 0.309 0.047 0.501 0.142 0.179-0.096 0.368-0.142 0.57-0.142h0.214c0.883 0 1.404 0.665 1.571 1.998 0.238 0.142 0.763 1.264 1.571 3.358l1.787 4.286c0 0.108 0.12 0.393 0.358 0.857 0 0.142 0.285 0.834 0.857 2.074 0.096 0.692 0.263 1.095 0.501 1.215 0 0.12 0.285 0.788 0.857 2 0.047 0.714 0.167 1.070 0.358 1.070h0.142c0.142-0.047 0.214-0.191 0.214-0.429v-2.57c0-0.511 0.024-0.916 0.071-1.215-0.047-0.346-0.071-0.773-0.071-1.286v-3.358c-0.096-0.69-0.142-1.070-0.142-1.144v-1.856c0-0.332 0.047-0.594 0.142-0.786-0.096-0.358-0.142-0.549-0.142-0.572 0.096-0.358 0.142-0.69 0.142-0.999v-0.645c0-0.153-0.214-0.724-0.643-1.714v-0.071c0.155-0.142 0.275-0.214 0.358-0.214 0.191 0 0.287 0.024 0.287 0.071l0.857-0.071h3.643c0.071 0 0.142 0.071 0.214 0.214v0.212c-0.191 0.179-0.356 0.655-0.499 1.429l0.071 0.859v1.357c0 0.059-0.047 0.322-0.142 0.786v3.073c0 0.334 0.047 0.596 0.142 0.788-0.047 0.263-0.071 0.452-0.071 0.57 0 0.108 0.024 0.204 0.071 0.287l-0.071 0.501c0 0.155 0.024 0.558 0.071 1.215l-0.142 0.572 0.142 0.641c-0.096 0.191-0.142 0.454-0.142 0.788v2.501c0 0.513 0.024 0.94 0.071 1.286-0.047 0.297-0.071 0.704-0.071 1.215v0.142c0 0.309 0.047 1.264 0.142 2.857-0.096 0.429-0.142 0.739-0.142 0.93v0.501l-0.214 0.287v0.568l0.142 0.214v0.071c0 0.13-0.047 0.275-0.142 0.429 0.047 1.060 0.096 1.705 0.142 1.931-0.047 0.083-0.071 0.533-0.071 1.355 0.071 0 0.263 0.214 0.57 0.643v0.142l-0.14 0.214-0.859-0.071h-0.429c-0.44 0-1.060 0.024-1.856 0.071-0.096-0.047-0.167-0.071-0.214-0.071-0.191 0.047-0.358 0.071-0.501 0.071-0.226 0-0.442-0.334-0.641-1.001-0.214-0.297-0.716-1.463-1.5-3.502-0.155-0.191-1.37-3.073-3.645-8.645-0.346-0.665-0.631-1.357-0.857-2.072-0.405-1.109-0.668-1.679-0.788-1.716v-0.639c0-0.179-0.12-0.37-0.356-0.57v-0.216c0-0.037 0.118-0.155 0.356-0.358v-0.214l-0.356 0.071c-0.071 0-0.287-0.167-0.643-0.501-0.142 0.513-0.214 0.822-0.214 0.93v0.071c0.096 0.808 0.142 1.262 0.142 1.357v0.857c0 0.155-0.047 0.488-0.142 0.999 0.155 0.429 0.25 0.643 0.287 0.643-0.047 0.643-0.071 1.119-0.071 1.429v0.786c0 0.859-0.024 1.691-0.071 2.501 0.047 0.417 0.071 0.773 0.071 1.073-0.047 0.867-0.071 1.414-0.071 1.642l0.071 0.643c-0.142 0.655-0.214 1.060-0.214 1.217 0.142 0.238 0.214 0.472 0.214 0.712v0.142c0 0.668-0.024 1.573-0.071 2.715 0.012 0.334 0.226 0.763 0.643 1.288v0.142c0 0.024-0.047 0.096-0.142 0.214-0.56-0.047-0.967-0.071-1.215-0.071h-2.719c-0.248 0-0.653 0.024-1.215 0.071-0.096-0.155-0.142-0.297-0.142-0.429l0.788-1.217c-0.047-0.712-0.071-1.235-0.071-1.569v-0.643c0-0.226 0.024-0.466 0.071-0.716-0.142-0.771-0.214-3.132-0.214-7.072v-3.285c0-0.381 0.024-0.881 0.071-1.5-0.049-0.083-0.073-0.201-0.073-0.356l0.071-0.643c0-0.047-0.024-0.238-0.071-0.572 0.049-0.322 0.071-0.584 0.071-0.788 0-0.238-0.047-0.358-0.142-0.358 0.047-0.786 0.071-1.382 0.071-1.787v-2.929c0-0.045 0.047-0.236 0.142-0.57-0.096-0.155-0.142-0.297-0.142-0.429 0-0.083 0.096-0.297 0.287-0.641-0.096-0.275-0.191-0.967-0.287-2.074-0.037 0-0.155-0.191-0.358-0.572v-0.214c0-0.155 0.407-0.25 1.215-0.285zM20.367 3.364l-0.285 1.072v0.212l0.069 0.429c-0.094 0.193-0.14 0.36-0.14 0.503 0.094 0.155 0.14 0.275 0.14 0.358h0.142c0.047-0.429 0.096-1.262 0.142-2.501v-0.073h-0.069zM20.367 24.085c0.096 0.297 0.142 0.488 0.142 0.572h0.071c0.191-1.323 0.287-2.349 0.287-3.073v-0.429c-0.226 0.002-0.393 0.977-0.501 2.931zM21.155 26.945c-0.191 0.488-0.358 1.081-0.501 1.785v0.501c0.012 0.096 0.059 0.142 0.142 0.142 0-0.383 0.142-1.001 0.429-1.856v-0.572h-0.071zM21.084 1.864l-0.142 0.214c0.203 0.059 0.346 0.179 0.429 0.358v1.357h0.071l0.071-0.358v-0.285c0-0.248-0.026-0.653-0.071-1.215l-0.358-0.071zM21.155 25.728v0.287h0.071v-0.287h-0.071zM21.513 14.584v0.641c0.094 0 0.14-0.047 0.14-0.142v-0.356c0-0.096-0.047-0.142-0.14-0.142zM22.512 1.935c-0.142 0.287-0.287 1.929-0.429 4.931-0.096 0.334-0.238 1.095-0.429 2.285l0.071 0.501c-0.047 1.321-0.071 2.393-0.071 3.215l0.142 0.071 0.142-0.501v-0.712c0.037-0.287 0.108-0.429 0.214-0.429l-0.071-0.716c0.238-2.762 0.358-4.453 0.358-5.071 0.096 0 0.191-0.643 0.287-1.929v-1.215c0-0.25-0.071-0.393-0.214-0.429zM21.796 28.801h0.142v-0.142c-0.094 0.010-0.142 0.059-0.142 0.142zM22.154 16.798v0.287h0.142v-0.142c0.002-0.098-0.047-0.145-0.142-0.145zM22.441 18.084c0.037 0.525 0.108 0.788 0.214 0.788 0.238-0.871 0.358-1.321 0.358-1.357v-0.216l-0.572 0.786zM22.584 19.871l-0.071 0.501v1.144c0.012 0.096 0.059 0.142 0.142 0.142h0.071v-0.071c0-0.083-0.024-0.655-0.071-1.716h-0.071zM22.655 11.511c-0.047 0.25-0.071 0.391-0.071 0.427l0.071 0.358c-0.047 0-0.071 0.024-0.071 0.071h0.142v-0.857h-0.071zM23.082 6.15v0.071c0 1.384-0.069 2.216-0.212 2.501 0.045 0.263 0.071 0.452 0.071 0.57-0.096 0.643-0.142 1.050-0.142 1.215v0.142h0.071c0.118 0 0.212-0.285 0.285-0.857-0.047-0.25-0.071-0.488-0.071-0.716l0.287-0.857c0-0.609 0.12-1.99 0.358-4.143 0-0.037 0.12-0.488 0.358-1.357-0.083-0.275-0.226-0.488-0.429-0.643-0.238 0-0.358 1.121-0.358 3.358-0.051 0.004-0.122 0.242-0.218 0.716zM24.442 4.009c0 0.096-0.026 0.142-0.071 0.142l0.071 0.358v0.14c-0.203 1.596-0.322 2.43-0.358 2.501 0 0.047 0.024 0.071 0.071 0.071 0 0.594-0.142 1.286-0.429 2.072-0.047 0.263-0.071 0.454-0.071 0.572 0.047 0.096 0.071 0.167 0.071 0.214h0.071c0.429-1.237 0.643-2.096 0.643-2.574 0.094-0.474 0.189-0.761 0.285-0.857-0.096-0.214-0.142-0.454-0.142-0.714l0.214-0.716v-0.281c0.002-0.619-0.118-0.928-0.354-0.928zM24.442 9.939c0 0.142 0.094 0.476 0.285 0.999h0.071l0.071-0.358-0.071-0.857h-0.142c-0.071 0-0.145 0.071-0.214 0.216zM27.871 12.654v0.287l0.071 0.356h0.071c0-0.14 0.024-0.212 0.071-0.212-0.059-0.289-0.13-0.431-0.214-0.431zM28.013 14.225v0.287h0.071v-0.287h-0.071zM28.371 17.441v0.142c0.012 0.096 0.059 0.14 0.142 0.14l0.071-0.14v-0.142h-0.214zM28.371 18.943v0.212h0.142c-0.047-0.094-0.071-0.165-0.071-0.212h-0.071zM30.944 25.657v0.214h0.214v-0.071c0-0.096-0.047-0.142-0.142-0.142h-0.071zM34.23 20.943v3.073h0.071c0-0.334 0.024-0.501 0.071-0.501l-0.071-0.142v-2.143c0-0.047 0.024-0.071 0.071-0.071-0.047-0.096-0.071-0.167-0.071-0.214h-0.071zM34.23 24.23v1.569h0.071c0-0.096 0.024-0.142 0.071-0.142l-0.071-0.142v-0.639c0-0.047 0.024-0.071 0.071-0.071-0.047-0.047-0.071-0.238-0.071-0.572h-0.071z"></path>
<path d="M37.535 1.437h0.999c1.917 0.332 2.99 0.499 3.215 0.499 0.523-0.189 0.857-0.285 0.999-0.285h1.716c0.442 0 1.060-0.024 1.858-0.071 0.096 0.047 0.165 0.071 0.212 0.071l0.501-0.071c0.13 0 0.608 0.024 1.429 0.071 0.071 0 0.287-0.047 0.643-0.142l0.499 0.071c0.155-0.096 0.297-0.142 0.429-0.142 0.083 0 0.203 0.047 0.358 0.142 0.309-0.096 0.523-0.142 0.641-0.142h0.142c0.429 0 0.643 0.191 0.643 0.57 0 1.298 0.071 2.513 0.214 3.645v0.142c-0.096 0.191-0.238 0.285-0.429 0.285-0.417-0.332-0.775-0.499-1.070-0.499h-0.788c-0.071 0-0.454 0.047-1.144 0.142-0.297-0.096-0.488-0.142-0.572-0.142-0.952 0.12-1.429 0.238-1.429 0.358l0.071 0.285c-0.142 0-0.238 0.954-0.285 2.857l0.212 0.501c-0.096 0.334-0.14 0.596-0.14 0.788l0.069 0.427c-0.047 0.263-0.069 0.525-0.069 0.788 0 0.226 0.022 0.464 0.069 0.714-0.047 0.25-0.069 0.393-0.069 0.429 0.045 0.537 0.069 1.036 0.069 1.5 0 0.047-0.024 0.12-0.069 0.214 0.094 0.191 0.14 0.452 0.14 0.786 0 0.25-0.024 0.466-0.071 0.643 0.047 0.309 0.071 0.619 0.071 0.928v0.287c0 1.429-0.071 2.143-0.212 2.143l0.071 0.142v0.93c0 0.332 0.045 0.594 0.14 0.786l-0.14 0.501c0.094 0.238 0.14 0.405 0.14 0.497-0.047 0.633-0.071 1.156-0.071 1.573 0 0.096-0.024 0.142-0.069 0.142l0.069 0.358v0.926c0 0.203-0.024 0.466-0.069 0.788l0.14 0.358c-0.096 0.214-0.14 0.525-0.14 0.93v0.501c0 0.138 0.212 0.806 0.641 1.998-0.071 0.191-0.142 0.287-0.214 0.287h-4.215c-0.525 0-0.786-0.071-0.786-0.214v-0.214l0.427-1.359v-0.784c0-0.108 0.024-0.203 0.071-0.287-0.047-0.083-0.071-0.179-0.071-0.287v-0.214c0-0.429 0.024-0.716 0.071-0.859-0.047-0.417-0.071-0.775-0.071-1.068v-1.001c0-0.37 0.024-0.704 0.071-1.001-0.047-0.238-0.071-0.545-0.071-0.926v-0.214c0-0.155 0.024-0.275 0.071-0.358l-0.142-1.144c0.047-0.417 0.071-0.775 0.071-1.070v-0.142c0-0.275-0.024-0.655-0.071-1.146l0.142-0.356-0.071-0.643 0.071-0.999-0.142-0.859c0.047-0.248 0.071-0.486 0.071-0.714v-0.289l0.214-0.287c-0.191-0.236-0.287-0.381-0.287-0.427 0.047-0.906 0.096-1.357 0.142-1.357l-0.071-0.358v-2.929c0-0.167 0.024-0.383 0.071-0.643 0-1.382-0.381-2.072-1.144-2.072-0.358-0.096-0.69-0.142-0.999-0.142h-0.572c-0.191 0-0.499 0.047-0.928 0.142-0.309-0.096-0.621-0.142-0.928-0.142-0.596 0.047-0.906 0.071-0.93 0.071-0.096-0.155-0.142-0.275-0.142-0.358 0.238-1.488 0.358-2.489 0.358-3.002v-0.214c0.008-0.258 0.151-0.474 0.438-0.641zM43.537 8.224l-0.214 0.287v0.142c0 0.037 0.047 0.226 0.142 0.57v0.071c-0.287 0.405-0.429 0.81-0.429 1.215 0.047 0.083 0.071 0.179 0.071 0.287 0.142 0 0.334-0.547 0.57-1.644v-0.786c0-0.096-0.047-0.142-0.14-0.142zM43.036 11.439v0.427h0.142v-0.427h-0.142zM43.108 22.083c0 0.047-0.024 0.12-0.071 0.214 0.047 0.525 0.12 1.097 0.214 1.718-0.047 0.25-0.071 0.393-0.071 0.429 0.047 0.096 0.071 0.167 0.071 0.214 0.071 0 0.142-0.071 0.214-0.214v-1.431c0-0.179-0.096-0.488-0.287-0.93h-0.069zM43.108 12.225v0.358l0.214 0.287v0.287l0.071 0.714h0.071c0-0.037 0.024-0.179 0.071-0.429 0-0.273-0.12-0.678-0.358-1.215h-0.069zM43.323 14.225l-0.142 0.501c0.332 0.761 0.499 1.215 0.499 1.357v0.499c0.012 0.096 0.059 0.142 0.142 0.142l0.071-0.142v-0.142c0-0.32-0.167-0.965-0.499-1.927v-0.287h-0.071zM43.323 17.085c0 0.191-0.024 0.287-0.071 0.287l0.071 0.356-0.071 0.429c0.047 0.083 0.071 0.203 0.071 0.358h0.142c0.045-0.476 0.071-0.832 0.071-1.070v-0.36h-0.214zM43.751 27.517l-0.142 0.568c0.057 0.287 0.128 0.429 0.212 0.429l0.071-0.358v-0.497c0.002-0.096-0.047-0.142-0.14-0.142zM43.677 2.507v0.641c0 0.25 0.096 0.417 0.287 0.501 0.142-0.322 0.238-0.749 0.287-1.286l-0.214-0.142c-0.216 0.098-0.336 0.193-0.36 0.287zM43.751 28.73l-0.071 0.358v0.071c0.047 0 0.12 0.024 0.214 0.071l0.071-0.142-0.071-0.358h-0.142zM44.036 13.012v0.427c0.096 0.621 0.142 1.121 0.142 1.5h0.071v-0.427c-0.047-0.537-0.071-1.013-0.071-1.429l-0.142-0.071zM44.178 17.441l-0.071 0.499v0.93h0.071c0-0.083 0.024-0.513 0.071-1.286v-0.142h-0.071zM44.323 28.872v0.142h0.071v-0.142h-0.071zM44.465 24.372l-0.071 0.142v0.784h0.214l0.142-0.497c-0.094-0.287-0.189-0.429-0.285-0.429zM44.607 4.51v0.714h0.142v-0.857c-0.094 0.010-0.142 0.059-0.142 0.142zM44.607 6.724v0.928c0.012 0.096 0.059 0.142 0.142 0.142 0-0.047 0.024-0.071 0.071-0.071l-0.071-0.142v-0.857h-0.142zM44.607 8.653v0.714h0.071c0.037-0.381 0.083-0.57 0.142-0.57-0.047-0.083-0.071-0.179-0.071-0.287-0.094 0.012-0.142 0.059-0.142 0.142zM45.179 17.585v1.785l-0.071 0.716h0.142c0-0.297 0.167-1.036 0.501-2.216-0.287-0.118-0.429-0.263-0.429-0.429-0.096 0.012-0.142 0.061-0.142 0.145zM45.179 14.512v0.928h0.142c0.142-0.513 0.214-0.82 0.214-0.928v-0.501h-0.071c-0.189 0.071-0.285 0.238-0.285 0.501zM45.464 24.873v1.142l-0.285 2.786h0.142c0.191-0.56 0.287-1.581 0.287-3.073v-0.855h-0.145zM45.894 2.507c0.012 0.096 0.059 0.142 0.142 0.142v-0.142h-0.142zM46.394 4.51c0 0.047-0.024 0.12-0.071 0.212 0.047 0.096 0.071 0.167 0.071 0.214h0.857v-0.427h-0.857zM46.608 2.652v0.142h0.071v-0.142h-0.071zM47.322 2.652v0.499c0.012 0.098 0.059 0.142 0.142 0.142 0-0.118 0.024-0.307 0.071-0.57l-0.142-0.071h-0.071zM48.108 2.222c-0.047 1.25-0.071 2.18-0.071 2.786 0.142 0.047 0.214 0.096 0.214 0.142 0.238 0 0.358-0.737 0.358-2.214 0.047-0.263 0.071-0.476 0.071-0.643l-0.142-0.071h-0.429zM49.681 4.51v0.14h0.071v-0.14h-0.071zM50.253 2.937c-0.096 0.309-0.142 0.523-0.142 0.641v0.071c0.12 0 0.214-0.214 0.287-0.641l-0.145-0.071zM51.11 4.294l-0.356 0.499v0.214c0 0.108 0.212 0.179 0.641 0.214v-0.069c-0.059-0.57-0.155-0.857-0.285-0.857z"></path>
<path d="M55.235 1.437h0.788c0.108 0 0.203 0.024 0.287 0.071 0.081-0.047 0.177-0.071 0.285-0.071l0.501 0.071 0.358-0.071c0.191 0.096 0.332 0.142 0.427 0.142 0.179-0.096 0.393-0.142 0.643-0.142l1.5 0.356h1.070c0.501-0.14 1.048-0.26 1.644-0.356l0.501 0.071 0.287-0.071c0.189 0.047 0.356 0.071 0.499 0.071l0.285-0.071c0.167 0 0.737 0.499 1.716 1.5 0.263 0.285 0.499 0.594 0.714 0.928 0 0.096-0.024 0.142-0.071 0.142 0.047 0.641 0.071 1.119 0.071 1.429 0 0.167-0.047 1.882-0.142 5.143v1.286c0.096 0.81 0.142 1.264 0.142 1.359v4.001c0 0.334-0.047 0.594-0.142 0.786 0.096 0.549 0.142 1.215 0.142 2v3.572c-0.096 0.692-0.142 1.073-0.142 1.146v1.427c0 0.309 0.024 0.788 0.071 1.431-0.212 0.366-0.786 0.985-1.714 1.856-0.238 0.334-0.501 0.501-0.788 0.501l-0.358-0.071-0.142 0.071-0.427-0.071h-0.142c-0.108 0-0.203 0.024-0.287 0.071-0.083-0.047-0.203-0.071-0.358-0.071s-0.275 0.024-0.356 0.071c-0.263-0.047-0.476-0.071-0.643-0.071h-1.144l-0.429 0.071c-0.108-0.047-0.417-0.096-0.928-0.142-0.405 0.096-0.667 0.142-0.788 0.142-0.263 0-0.523-0.024-0.786-0.071-0.549 0.047-1.070 0.071-1.571 0.071h-0.572c-0.511 0-0.916-0.263-1.215-0.788-0.214 0-0.641-0.429-1.286-1.288-0.037 0-0.108-0.116-0.214-0.354l0.071-0.859v-1.646c-0.096-1.534-0.142-2.369-0.142-2.501v-4.638c0-0.368 0.024-0.702 0.071-0.999-0.047-0.238-0.071-0.549-0.071-0.928v-1.429c0.096-0.81 0.142-1.262 0.142-1.357v-2.503c-0.142-0.452-0.214-0.808-0.214-1.070 0-1.823 0.071-3.679 0.214-5.572v-0.287c0-0.297 0.263-0.582 0.788-0.857 0.582-0.954 1.203-1.429 1.856-1.429zM54.020 18.943v0.14h0.071v-0.14h-0.071zM54.378 3.010c0.096 0.391 0.142 0.653 0.142 0.786h0.142c0-0.071-0.024-0.405-0.071-0.999 0.047-0.096 0.071-0.167 0.071-0.214h-0.071c-0.142 0.045-0.214 0.187-0.214 0.427zM54.594 10.509v0.287c0.012 0.096 0.059 0.142 0.142 0.142h0.071l-0.071-0.429h-0.142zM55.092 18.298v0.142l0.071 0.358h0.071v-0.501h-0.142zM55.092 19.441v0.214c0.012 0.096 0.059 0.142 0.142 0.142h0.071v-0.142l-0.071-0.358c-0.096 0.012-0.142 0.061-0.142 0.145zM55.377 7.652l-0.214 0.285 0.142 0.501c0.142 0 0.214-0.238 0.214-0.716l-0.142-0.069zM55.451 22.655c-0.047 0.263-0.071 0.454-0.071 0.572 0.047 0.096 0.071 0.167 0.071 0.214h0.142c0-0.191 0.024-0.287 0.071-0.287-0.096-0.238-0.142-0.405-0.142-0.501h-0.071zM55.451 24.301c0.047 0.405 0.071 0.712 0.071 0.926h0.071c0-0.083 0.047-0.275 0.142-0.568-0.096-0.155-0.142-0.275-0.142-0.358h-0.142zM55.522 25.514v0.643h0.071v-0.643h-0.071zM60.095 5.509h-0.643c-0.69 0.096-1.070 0.142-1.144 0.142h-0.142c-0.047 0-0.238-0.047-0.57-0.142l-0.358 0.071v0.358c0 0.891-0.096 1.561-0.287 1.998l-0.142 14.502h-0.071l0.071 0.142v0.572c0 0.047-0.024 0.071-0.071 0.071l0.071 0.142v1.288c0 0.047-0.024 0.071-0.071 0.071 0.155 0.521 0.442 0.784 0.859 0.784l0.285 0.287-0.069 0.358c0.14 0.454 0.285 1.146 0.427 2.072 0.203 0 0.417 0.358 0.643 1.073h0.071c0.427 0 0.641-0.142 0.641-0.429l-0.071-1.001c0.096-0.151 0.142-0.295 0.142-0.425-0.142-0.179-0.214-0.346-0.214-0.501l0.071-0.358c-0.047-0.238-0.142-0.358-0.285-0.358-0.155 0.096-0.297 0.142-0.429 0.142h-0.214c-0.071 0-0.142-0.071-0.214-0.214v-0.358c0.047-0.142 0.191-0.214 0.429-0.214h0.071c0.13 0 0.275 0.047 0.427 0.142 0.309-0.096 0.525-0.142 0.643-0.142h1.5c0.071 0 0.142 0.071 0.214 0.214l-0.071 0.501c0.096 0 0.167-0.238 0.214-0.716 0.332-0.309 0.499-0.596 0.499-0.855v-0.855c0-0.454 0.024-0.906 0.071-1.359l-0.071-0.358 0.142-3.14c-0.047-0.096-0.071-0.167-0.071-0.214l0.214-0.716-0.071-0.429c0.096-0.307 0.142-0.523 0.142-0.641-0.191-0.214-0.287-0.334-0.287-0.358v-0.358c0-0.045 0.024-0.071 0.071-0.071l-0.071-0.14v-0.287c0-0.155 0.024-0.275 0.071-0.358l-0.071-0.429v-0.641c0-0.047 0.024-0.071 0.071-0.071l-0.071-0.142v-0.716c0-1.465 0.024-3.439 0.071-5.93 0.096-0.332 0.142-0.619 0.142-0.857v-0.786c-0.203 0-0.417-0.071-0.641-0.214-0.191 0.096-0.334 0.142-0.429 0.142-0.716-0.108-1.070-0.297-1.070-0.572-0.212 0.189-0.33 0.285-0.354 0.285zM56.95 27.588v0.425l0.071 0.358h0.071v-0.784h-0.142zM57.164 28.801v0.142h0.071v-0.142h-0.071zM57.738 2.294c0 0.142 0.022 0.214 0.071 0.214l-0.071 0.358v0.999c0 0.238-0.026 0.596-0.071 1.070h0.142c0-0.12 0.069-0.499 0.212-1.144v-1.498c0-0.096-0.047-0.142-0.142-0.142-0.096 0.012-0.14 0.059-0.14 0.142zM58.88 4.367v0.214l0.071 0.356h0.214c-0.096-0.427-0.142-0.665-0.142-0.714-0.094 0.012-0.142 0.059-0.142 0.144zM59.45 2.151c0 0.047-0.024 0.071-0.071 0.071 0.179 0.667 0.37 0.999 0.572 0.999h0.071c-0.071-0.714-0.261-1.070-0.572-1.070zM60.095 3.364v0.071c0.096 0.155 0.142 0.275 0.142 0.358h0.071v-0.142c-0.071-0.191-0.142-0.287-0.214-0.287zM61.381 26.658l-0.071 0.358v0.214h0.142v-0.572h-0.071zM62.309 2.294c0 0.047-0.024 0.071-0.071 0.071 0.047 0.096 0.071 0.167 0.071 0.214 0 0.191 0.024 0.621 0.071 1.286h0.071c0.096 0 0.142-0.047 0.142-0.142-0.047-0.952-0.142-1.429-0.285-1.429zM62.809 25.227c0 0.383-0.191 0.906-0.572 1.573v0.501c0.012 0.096 0.059 0.142 0.142 0.142 0.383-1.013 0.572-1.73 0.572-2.147l-0.142-0.069zM63.094 28.3h0.142v-0.287c0.238-0.771 0.358-1.319 0.358-1.642v-0.214c-0.334 0.454-0.501 1.168-0.501 2.143zM63.168 19.297h0.142c0.047-0.248 0.071-0.391 0.071-0.427-0.142 0.049-0.214 0.191-0.214 0.427zM63.381 4.152c-0.096 0.155-0.142 0.297-0.142 0.429v0.285h0.142l0.142-0.499v-0.073c0-0.096-0.047-0.142-0.142-0.142zM63.88 16.226c-0.191 0.751-0.356 1.583-0.499 2.501 0.118 0 0.307-0.716 0.57-2.145v-0.356h-0.071zM63.737 5.652l-0.071 0.499c0.071 0.191 0.142 0.287 0.214 0.287v-0.641c0-0.096-0.047-0.144-0.142-0.144zM63.666 22.871v0.071h0.142v-0.214c-0.096 0.010-0.142 0.059-0.142 0.142zM63.88 10.509l-0.071 0.501v1.070h0.142v-1.142l0.071-0.358-0.142-0.071zM63.88 20.514l-0.071 0.714v0.071c0.012 0.096 0.059 0.142 0.142 0.142v-0.928h-0.071zM64.238 26.729v0.429c-0.287 0.784-0.429 1.284-0.429 1.498 0.047 0.191 0.071 0.358 0.071 0.501l0.142-0.071-0.071-0.142v-0.287c0.287-0.775 0.429-1.368 0.429-1.785v-0.142h-0.142zM64.238 18.727c0 0.13-0.12 0.558-0.358 1.286 0.047 0.096 0.071 0.167 0.071 0.214h0.071l0.287-1.429v-0.071h-0.071zM63.88 21.586v0.568h0.071v-0.568h-0.071zM64.525 17.655c0 0.142-0.047 0.309-0.142 0.501h0.071c0.096 0 0.142-0.047 0.142-0.142v-0.358h-0.071zM64.381 24.873v0.425h0.071l0.071-0.425h-0.142zM64.596 2.794v0.142h0.071v-0.142h-0.071zM64.596 17.011v0.429h0.071v-0.429h-0.071zM65.309 17.655c0 0.287-0.214 1.455-0.641 3.502v0.071c0.226-0.108 0.393-0.893 0.499-2.359 0.191-0.167 0.287-0.358 0.287-0.572v-0.501c0-0.096-0.049-0.142-0.144-0.142zM64.739 28.443v0.142h0.214l0.14-0.501v-0.142c-0.057 0-0.175 0.167-0.354 0.501zM65.095 27.303v0.287h0.142l0.071-0.358v-0.071h-0.071c-0.096 0.010-0.142 0.059-0.142 0.142zM65.38 25.87c-0.096 0.155-0.142 0.297-0.142 0.429h0.071c0.071 0 0.142-0.071 0.214-0.214v-0.071c0.002-0.096-0.047-0.145-0.142-0.145zM65.38 12.225l-0.071 0.358v0.714h0.071l0.071-0.356v-0.716h-0.071zM65.38 22.012l-0.071 0.358v0.142c0.012 0.096 0.059 0.142 0.142 0.142v-0.643h-0.071zM65.596 8.653v0.285h0.142v-0.427c-0.096 0.012-0.142 0.059-0.142 0.142zM65.809 19.8c-0.096 0.405-0.167 0.999-0.214 1.787 0.096 0 0.191-0.572 0.287-1.716v-0.071h-0.073z"></path>
<path d="M70.115 1.294l0.859 0.214c0.429-0.096 0.737-0.142 0.928-0.142 0.142 0 0.309 0.047 0.501 0.142 0.179-0.096 0.368-0.142 0.57-0.142h0.214c0.883 0 1.404 0.665 1.571 1.998 0.238 0.142 0.763 1.264 1.571 3.358l1.787 4.286c0 0.108 0.12 0.393 0.358 0.857 0 0.142 0.285 0.834 0.857 2.074 0.096 0.692 0.263 1.095 0.501 1.215 0 0.12 0.285 0.788 0.857 2 0.047 0.714 0.167 1.070 0.358 1.070h0.142c0.144-0.045 0.216-0.189 0.216-0.427v-2.572c0-0.511 0.024-0.916 0.071-1.215-0.047-0.344-0.071-0.771-0.071-1.284v-3.358c-0.096-0.69-0.142-1.070-0.142-1.144v-1.858c0-0.332 0.047-0.594 0.142-0.786-0.096-0.358-0.142-0.549-0.142-0.572 0.096-0.358 0.142-0.69 0.142-0.999v-0.645c0-0.153-0.214-0.724-0.643-1.714v-0.071c0.155-0.142 0.275-0.214 0.358-0.214 0.191 0 0.285 0.024 0.285 0.071l0.857-0.071h3.643c0.071 0 0.142 0.071 0.214 0.214v0.212c-0.191 0.179-0.356 0.655-0.499 1.429l0.071 0.859v1.357c0 0.059-0.047 0.322-0.142 0.786v3.073c0 0.334 0.047 0.596 0.142 0.788-0.047 0.263-0.071 0.452-0.071 0.57 0 0.108 0.024 0.204 0.071 0.287l-0.071 0.501c0 0.155 0.024 0.558 0.071 1.215l-0.142 0.572 0.142 0.641c-0.096 0.191-0.142 0.454-0.142 0.788v2.501c0 0.513 0.024 0.94 0.071 1.286-0.047 0.297-0.071 0.704-0.071 1.215v0.142c0 0.309 0.047 1.264 0.142 2.857-0.096 0.429-0.142 0.739-0.142 0.93v0.501l-0.214 0.287v0.568l0.142 0.214v0.071c0 0.13-0.047 0.275-0.142 0.429 0.047 1.060 0.096 1.705 0.142 1.931-0.047 0.083-0.071 0.533-0.071 1.355 0.071 0 0.263 0.214 0.57 0.643v0.142l-0.14 0.214-0.859-0.071h-0.429c-0.44 0-1.060 0.024-1.856 0.071-0.096-0.047-0.167-0.071-0.214-0.071-0.191 0.047-0.358 0.071-0.501 0.071-0.226 0-0.442-0.334-0.641-1.001-0.214-0.297-0.716-1.463-1.5-3.502-0.155-0.191-1.37-3.073-3.645-8.645-0.346-0.665-0.631-1.357-0.857-2.072-0.405-1.109-0.668-1.679-0.788-1.716v-0.639c0-0.179-0.12-0.37-0.356-0.57v-0.216c0-0.037 0.118-0.155 0.356-0.358v-0.214l-0.356 0.071c-0.071 0-0.287-0.167-0.643-0.501-0.142 0.513-0.214 0.822-0.214 0.93v0.071c0.096 0.808 0.142 1.262 0.142 1.357v0.857c0 0.155-0.047 0.488-0.142 0.999 0.155 0.429 0.25 0.643 0.287 0.643-0.047 0.643-0.071 1.119-0.071 1.429v0.786c0 0.859-0.024 1.691-0.071 2.501 0.047 0.417 0.071 0.773 0.071 1.073-0.047 0.867-0.071 1.414-0.071 1.642l0.071 0.643c-0.142 0.655-0.214 1.060-0.214 1.217 0.142 0.238 0.214 0.472 0.214 0.712v0.142c0 0.668-0.024 1.573-0.071 2.715 0.012 0.334 0.226 0.763 0.643 1.288v0.142c0 0.024-0.047 0.096-0.142 0.214-0.56-0.047-0.967-0.071-1.215-0.071h-2.717c-0.248 0-0.653 0.024-1.215 0.071-0.096-0.155-0.142-0.297-0.142-0.429l0.788-1.217c-0.047-0.712-0.071-1.235-0.071-1.569v-0.643c0-0.226 0.024-0.466 0.071-0.716-0.142-0.771-0.214-3.132-0.214-7.072v-3.285c0-0.381 0.024-0.881 0.071-1.5-0.047-0.083-0.071-0.201-0.071-0.356l0.071-0.643c0-0.047-0.024-0.238-0.071-0.572 0.047-0.319 0.071-0.582 0.071-0.786 0-0.238-0.047-0.358-0.142-0.358 0.047-0.786 0.071-1.382 0.071-1.787v-2.931c0-0.045 0.047-0.236 0.142-0.57-0.096-0.155-0.142-0.297-0.142-0.429 0-0.083 0.096-0.297 0.287-0.641-0.096-0.275-0.191-0.967-0.287-2.074-0.037 0-0.155-0.191-0.358-0.572v-0.214c-0.004-0.155 0.401-0.25 1.211-0.285zM70.187 3.364l-0.285 1.072v0.212l0.069 0.429c-0.096 0.191-0.14 0.358-0.14 0.501 0.094 0.155 0.14 0.275 0.14 0.358h0.142c0.047-0.429 0.096-1.262 0.142-2.501v-0.071h-0.069zM70.187 24.085c0.096 0.297 0.142 0.488 0.142 0.572h0.071c0.191-1.323 0.287-2.349 0.287-3.073v-0.429c-0.226 0.002-0.393 0.977-0.501 2.931zM70.974 26.945c-0.191 0.488-0.358 1.081-0.501 1.785v0.501c0.012 0.096 0.059 0.142 0.142 0.142 0-0.383 0.142-1.001 0.429-1.856v-0.572h-0.071zM70.901 1.864l-0.142 0.214c0.204 0.059 0.346 0.179 0.429 0.358v1.357h0.071l0.071-0.358v-0.285c0-0.248-0.026-0.653-0.071-1.215l-0.358-0.071zM70.974 25.728v0.287h0.071v-0.287h-0.071zM71.33 14.584v0.641c0.094 0 0.14-0.047 0.14-0.142v-0.356c0.002-0.096-0.047-0.142-0.14-0.142zM72.332 1.935c-0.142 0.287-0.287 1.929-0.429 4.931-0.096 0.334-0.238 1.095-0.429 2.285l0.071 0.501c-0.047 1.321-0.071 2.393-0.071 3.215l0.142 0.071 0.142-0.501v-0.712c0.037-0.287 0.108-0.429 0.214-0.429l-0.071-0.716c0.238-2.762 0.358-4.453 0.358-5.071 0.096 0 0.191-0.643 0.287-1.929v-1.215c0-0.25-0.071-0.393-0.214-0.429zM71.615 28.801h0.142v-0.142c-0.096 0.010-0.142 0.059-0.142 0.142zM71.974 16.798v0.287h0.142v-0.142c0-0.098-0.047-0.145-0.142-0.145zM72.258 18.084c0.037 0.525 0.108 0.788 0.214 0.788 0.238-0.871 0.358-1.321 0.358-1.357v-0.216l-0.572 0.786zM72.403 19.871l-0.071 0.501v1.144c0.012 0.096 0.059 0.142 0.142 0.142h0.071v-0.071c0-0.083-0.024-0.655-0.071-1.716h-0.071zM72.474 11.511c-0.047 0.25-0.071 0.391-0.071 0.427l0.071 0.358c-0.047 0-0.071 0.024-0.071 0.071h0.142v-0.857h-0.071zM72.902 6.15v0.071c0 1.384-0.069 2.216-0.212 2.501 0.045 0.263 0.071 0.452 0.071 0.57-0.096 0.643-0.142 1.050-0.142 1.215v0.142h0.071c0.118 0 0.212-0.285 0.285-0.857-0.047-0.25-0.071-0.488-0.071-0.716l0.287-0.857c0-0.609 0.12-1.99 0.358-4.143 0-0.037 0.12-0.488 0.358-1.357-0.083-0.275-0.226-0.488-0.429-0.643-0.238 0-0.358 1.121-0.358 3.358-0.051 0.004-0.122 0.242-0.218 0.716zM74.261 4.009c0 0.096-0.026 0.142-0.071 0.142l0.071 0.358v0.14c-0.204 1.596-0.322 2.43-0.358 2.501 0 0.047 0.024 0.071 0.071 0.071 0 0.594-0.142 1.286-0.429 2.072-0.047 0.263-0.071 0.454-0.071 0.572 0.047 0.096 0.071 0.167 0.071 0.214h0.071c0.429-1.237 0.643-2.096 0.643-2.574 0.094-0.474 0.189-0.761 0.285-0.857-0.096-0.214-0.142-0.454-0.142-0.714l0.214-0.716v-0.281c0.002-0.619-0.118-0.928-0.354-0.928zM74.261 9.939c0 0.142 0.094 0.476 0.285 0.999h0.071l0.071-0.358-0.071-0.857h-0.142c-0.073 0-0.144 0.071-0.214 0.216zM77.688 12.654v0.287l0.071 0.356h0.071c0-0.14 0.024-0.212 0.071-0.212-0.059-0.289-0.13-0.431-0.214-0.431zM77.833 14.225v0.287h0.071v-0.287h-0.071zM78.189 17.441v0.142c0.012 0.096 0.059 0.14 0.142 0.14l0.071-0.14v-0.142h-0.214zM78.189 18.943v0.212h0.142c-0.047-0.094-0.071-0.165-0.071-0.212h-0.071zM80.761 25.657v0.214h0.214v-0.071c0-0.096-0.047-0.142-0.142-0.142h-0.071zM84.048 20.943v3.073h0.071c0-0.334 0.024-0.501 0.071-0.501l-0.071-0.142v-2.143c0-0.047 0.024-0.071 0.071-0.071-0.047-0.096-0.071-0.167-0.071-0.214h-0.071zM84.048 24.23v1.569h0.071c0-0.096 0.024-0.142 0.071-0.142l-0.071-0.142v-0.639c0-0.047 0.024-0.071 0.071-0.071-0.047-0.047-0.071-0.238-0.071-0.572h-0.071z"></path>
<path d="M101.499 1.294l0.716 0.071h1.286c0.275 0 0.653 0.024 1.144 0.071 0.083-0.047 0.204-0.071 0.358-0.071 0.096 0 0.142 0.024 0.142 0.071l0.857-0.071h3.144c0.594 0 1.215 0.499 1.858 1.5 0.615 0.415 0.926 0.822 0.926 1.215l-0.071 0.287 0.142 1.070c-0.142 0.773-0.214 1.728-0.214 2.857v0.572c0 0.332-0.071 0.69-0.214 1.070l0.356 0.788-0.071 0.501c0 1.679-0.047 3.679-0.142 6.002 0.096 0.474 0.142 0.904 0.142 1.286v2.214c0 1.547-0.024 3.24-0.071 5.074 0.047 0.346 0.071 0.989 0.071 1.931l-1.787 1.714c-0.25 0.334-0.486 0.501-0.714 0.501h-0.788l-0.427-0.071-0.142 0.071c-0.668-0.047-1.239-0.071-1.716-0.071h-0.358c-0.383 0-0.69 0.024-0.928 0.071-0.297-0.047-0.633-0.071-1.001-0.071h-1.070c-0.275 0-0.653 0.024-1.144 0.071-0.096-0.047-0.167-0.071-0.214-0.071-0.417 0.047-0.773 0.071-1.070 0.071h-0.287c-0.25 0-0.417-0.096-0.501-0.287v-0.501l0.071-0.429c-0.177-0.488-0.32-1.034-0.427-1.642h-0.071v0.572c0 0.187 0.024 0.379 0.071 0.568l-0.071 0.358c0.096 0.68 0.142 1.060 0.142 1.146-0.179 0.142-0.346 0.214-0.501 0.214h-0.142c-0.25 0-0.466-0.024-0.641-0.071-0.25 0.047-0.488 0.071-0.716 0.071h-0.142c-0.071 0-0.142-0.071-0.214-0.214 0.429-0.93 0.643-1.998 0.643-3.215-0.047-0.476-0.071-0.834-0.071-1.073v-7.788c0-0.045 0.024-0.069 0.071-0.069-0.047-0.238-0.096-0.358-0.142-0.358 0.047-0.788 0.071-1.382 0.071-1.787v-0.216c0-0.965-0.024-2.273-0.071-3.93 0.037-0.287 0.083-0.429 0.142-0.429-0.047-0.12-0.096-0.358-0.142-0.714 0.047-1.203 0.071-2.157 0.071-2.857v-2.072c0-0.047 0.024-0.071 0.071-0.071-0.096-0.191-0.142-0.454-0.142-0.786v-1.929c-0.238-0.584-0.358-0.891-0.358-0.928l0.214-0.142h0.429c0.204 0 0.391 0.047 0.57 0.142 0.191-0.096 0.454-0.142 0.788-0.142h0.071c0.167 0 0.356 0.096 0.57 0.287 0.083-0.191 0.25-0.287 0.501-0.287 0.226 0 0.466 0.024 0.714 0.071 0.285-0.037 0.429-0.083 0.429-0.142zM98.426 2.865v1.998h0.142v-0.354c0-0.25 0.024-0.466 0.071-0.643-0.035-0.667-0.106-1.001-0.214-1.001zM98.426 9.939v0.429h0.142v-0.429h-0.142zM98.855 22.799c0.096 0.309 0.142 0.525 0.142 0.643v2.715l0.071 0.358h0.071v-2.715c0-0.429-0.047-0.834-0.142-1.217-0.096 0-0.142 0.071-0.142 0.216zM99.069 12.726l0.142 0.071v-0.214c-0.094 0.010-0.142 0.059-0.142 0.142zM99.427 2.436c0.047 0.476 0.071 0.832 0.071 1.070v1.858h0.071c0.094-0.501 0.14-0.761 0.14-0.786l-0.071-0.356c0.037-0.287 0.083-0.429 0.142-0.429l-0.071-0.142v-0.071c0-0.047 0.024-0.071 0.071-0.071l-0.071-0.142v-0.57c0-0.204 0.071-0.466 0.214-0.788-0.047-0.096-0.071-0.167-0.071-0.214l-0.425 0.641zM99.427 18.798c0.047 0.714 0.071 1.237 0.071 1.571v0.93l0.427 2.214c0 1.384 0.191 2.072 0.572 2.072l0.287 0.142-0.071-0.855v-0.93c-0.191-0.525-0.287-0.883-0.287-1.073 0.096-0.309 0.142-0.525 0.142-0.643 0-0.425-0.263-0.926-0.788-1.5-0.13-1.286-0.246-1.929-0.354-1.929zM99.498 10.652v0.287h0.14v-0.142c0-0.096-0.047-0.145-0.14-0.145zM99.926 15.011v0.429c0.191 0.383 0.334 1.237 0.429 2.572 0.155 0.621 0.297 0.93 0.429 0.93h0.142l0.071-0.358v-2.074c-0.108-0.108-0.275-0.44-0.501-0.999-0.059 0-0.25-0.167-0.572-0.501zM100.426 4.793l-0.358 3.073c0.047 0.096 0.071 0.167 0.071 0.214h0.071l0.358-2.001v-0.57l-0.071-0.716h-0.071zM100.141 9.368l-0.071 0.358 0.429 2.285c0 0.047-0.024 0.071-0.071 0.071 0.142 1.382 0.287 2.074 0.429 2.074 0.047-0.096 0.071-0.167 0.071-0.214-0.142-0.69-0.214-1.357-0.214-2.001v-0.503c-0.287-0.987-0.429-1.679-0.429-2.074h-0.144zM100.713 26.015c0 0.309-0.024 0.716-0.071 1.217 0.059 0.429 0.155 0.639 0.287 0.639v-0.071c-0.047-0.902-0.096-1.498-0.142-1.785h-0.073zM101.641 28.514h-0.214l-0.358-0.071-0.069 0.358v0.214c0 0.071 0.069 0.142 0.212 0.214h0.071c0.204-0.383 0.442-0.572 0.716-0.572v-0.142c0-0.096-0.047-0.142-0.142-0.142l-0.216 0.142zM101.426 2.937v0.857h0.071l0.142-0.643c-0.047-0.094-0.071-0.165-0.071-0.212h-0.142zM103.642 5.725h-1.073c-0.344 0-0.582 0.547-0.714 1.644v0.999c-0.096 0.808-0.142 1.262-0.142 1.357 0 0.167 0.096 0.621 0.287 1.357 0 0.096-0.096 0.501-0.287 1.215 0 0.059 0.096 0.513 0.287 1.357 0 0.309-0.024 0.621-0.071 0.93 0.047 1.083 0.071 2.106 0.071 3.071v0.716c0 0.238-0.047 0.525-0.142 0.857 0 0.297 0.024 0.655 0.071 1.073-0.047 1.298-0.071 2.536-0.071 3.716v0.429c0 0.476 0.263 0.855 0.786 1.142h0.287c0.275 0 0.442 0.024 0.501 0.071 0.263-0.047 0.474-0.071 0.641-0.071h1.001c0.26 0 0.594 0.024 0.999 0.071 0.083-0.047 0.179-0.071 0.287-0.071 0.263 0.047 0.474 0.071 0.641 0.071 0.429-0.608 0.643-1.152 0.643-1.642v-8.578c0-0.643-0.024-1.166-0.071-1.571 0.047-0.322 0.071-0.82 0.071-1.5v-6.004c-0.191-0.25-0.501-0.486-0.928-0.714l-0.358 0.071-0.358-0.071-0.356 0.073c-0.167-0.047-0.263-0.071-0.285-0.071l-0.643 0.071-0.501-0.142c-0.179 0.094-0.368 0.142-0.572 0.142zM102.712 28.443v0.142h0.142c0.002-0.094-0.047-0.142-0.142-0.142zM103.642 28.443v0.071c0.047 0.287 0.12 0.429 0.214 0.429l0.071-0.142c-0.096-0.216-0.189-0.334-0.285-0.358zM104.356 1.935c-0.083 0.346-0.155 1.37-0.214 3.073l0.142 0.071c0.13 0 0.226-0.952 0.287-2.857-0.047-0.083-0.071-0.179-0.071-0.287h-0.144zM105.286 2.507v0.142c0.094 0 0.14-0.047 0.14-0.142h-0.14zM105.286 3.010v0.285h0.071v-0.285h-0.071zM108.5 4.367l-0.071 0.499v2c0.012 0.096 0.059 0.142 0.142 0.142l0.071-0.716v-1.783c0-0.096-0.047-0.142-0.142-0.142zM108.5 23.229v0.214h0.071v-0.214h-0.071zM109.216 18.084c-0.238 0.716-0.358 1.237-0.358 1.571v1.144c-0.191 0.729-0.287 1.229-0.287 1.5l0.358-0.214 0.358 0.071 0.142-0.212c-0.096-0.429-0.142-0.739-0.142-0.93v-0.643l-0.142-0.501c0-0.037 0.12-0.346 0.358-0.928-0.096-0.429-0.142-0.716-0.142-0.859h-0.144zM109.928 5.295c-0.191 0.442-0.285 0.704-0.285 0.786v0.572c0 3.073-0.047 5.668-0.142 7.788 0.096 0 0.142 0.071 0.142 0.214h0.071v-1.571c0-0.214 0.069-0.668 0.212-1.357-0.047-0.191-0.071-0.358-0.071-0.501l0.142-1.357c0-0.108-0.024-0.204-0.071-0.287 0.096-0.631 0.142-1.583 0.142-2.857v-1.072l-0.071-0.358h-0.069zM110.787 18.727l-0.071 0.714v0.859c0.142 0 0.214-0.263 0.214-0.788v-0.287l-0.071-0.499h-0.071zM110.787 21.371l-0.071 0.429v0.354h0.071c0-0.059 0.024-0.295 0.071-0.712v-0.071h-0.071z"></path>
<path d="M114.556 1.366c0.142 0 0.334 0.047 0.572 0.142 0.332-0.096 0.594-0.142 0.786-0.142l0.928 0.142c0.309-0.096 0.525-0.142 0.643-0.142h1.357c0.155 0 0.488 0.047 0.999 0.142 0.142 0 0.334-0.047 0.572-0.142 0.238 0 0.358 0.024 0.358 0.071 1.024-0.047 1.785-0.071 2.285-0.071h4.644c0.429 0 0.641 0.499 0.641 1.5 0.238 1.62 0.358 2.668 0.358 3.144l-0.285 0.14c-0.368-0.045-0.749-0.212-1.142-0.499l-0.142 0.071h-0.57c-0.167 0-0.383-0.024-0.643-0.071-0.096 0.047-0.167 0.071-0.214 0.071-0.142 0-0.214-0.024-0.214-0.071-0.474 0.047-0.832 0.071-1.070 0.071h-2.285c-0.059 0-0.322-0.047-0.788-0.142h-0.499c-0.096 0-0.334 0.047-0.716 0.142-0.238-0.083-0.358-0.204-0.358-0.358 0.096-0.798 0.263-1.561 0.501-2.285-0.096-0.454-0.142-0.81-0.142-1.073v-0.071c-0.334-0.047-0.525-0.071-0.57-0.071l-0.071 0.142v0.93l-0.142 1.286c0.096 0.631 0.189 1.011 0.285 1.144 0 0.059-0.26 0.442-0.786 1.144v0.142c0 0.334 0.047 0.596 0.142 0.788-0.096 0.189-0.142 0.452-0.142 0.786v1.5c0 0.191 0.047 0.501 0.142 0.928-0.096 0.442-0.142 0.704-0.142 0.788 0 0.57 0.501 0.952 1.5 1.144 0.083 0 0.275-0.047 0.572-0.142l0.427 0.071c1.154 0 2.204-0.191 3.144-0.572h0.287c0.096 0.012 0.142 0.059 0.142 0.142v0.358c0 0.167 0.024 0.383 0.071 0.643-0.096 0.191-0.142 0.356-0.142 0.499 0.047 0.142 0.096 0.214 0.142 0.214l-0.077 0.499v2.285l0.071 0.501-0.214 0.142h-0.142c-0.965-0.383-1.512-0.572-1.644-0.572-0.334 0.047-0.525 0.071-0.57 0.071-0.083 0-0.417-0.071-1.001-0.214-0.179 0.096-0.37 0.142-0.57 0.142-0.047 0-0.12-0.024-0.214-0.071-0.191 0.047-0.358 0.071-0.501 0.071l-0.287-0.071c-0.155 0.096-0.297 0.142-0.427 0.142h-0.142l-0.214-0.142c0.059-1.844 0.155-2.99 0.287-3.429-0.037-0.287-0.179-0.429-0.429-0.429-0.096 0.155-0.142 0.275-0.142 0.358-0.047 1.465-0.071 2.418-0.071 2.857-0.096 0.309-0.142 0.523-0.142 0.641v0.071c0.37 0 0.584 0.096 0.643 0.287l-0.429 0.572c0.047 2.285 0.071 4.050 0.071 5.285v1.646c0 0.214 0.191 0.617 0.572 1.213l0.499-0.071h0.071c0.167 0 0.383 0.024 0.643 0.071l0.499-0.142c0.8 0.047 1.416 0.071 1.858 0.071h1.787c0.204 0 0.393 0.024 0.572 0.071 0.189-0.047 0.381-0.071 0.57-0.071h1.215c0.179 0 0.584-0.142 1.215-0.429h0.142c0.071 0 0.142 0.071 0.214 0.214-0.263 2.953-0.499 4.432-0.714 4.432-0.083 0.047-0.179 0.071-0.287 0.071h-2.216c-2.035 0-3.606 0.024-4.713 0.071-0.942-0.047-2.418-0.071-4.43-0.071h-0.859c-0.238 0-0.356-0.047-0.356-0.142-0.238 0.142-0.429 0.214-0.572 0.214h-0.214c-0.108 0-0.179-0.12-0.214-0.358 0.287-0.727 0.429-1.18 0.429-1.359 0-0.7-0.024-1.176-0.071-1.427 0.047-0.989 0.071-1.897 0.071-2.715v-1.931c0-0.7-0.024-1.176-0.071-1.429 0.047-0.499 0.071-1.048 0.071-1.644v-5.139c0-0.167-0.024-0.383-0.071-0.643 0.047-0.094 0.071-0.165 0.071-0.212l-0.071-0.859 0.071-0.999c0-0.37-0.024-0.704-0.071-0.999 0.047-1.583 0.071-2.965 0.071-4.146v-2.648l-0.071-0.356h0.071l-0.429-1.359v-0.067c0.094-0.191 0.238-0.287 0.429-0.287zM115.128 2.222v0.287l0.499 2.428h0.071c0.047-0.167 0.071-0.261 0.071-0.287 0-0.224-0.142-0.916-0.429-2.072 0-0.238-0.047-0.358-0.14-0.358h-0.071zM115.268 8.010l-0.14 0.287c0 1.119 0.14 1.907 0.427 2.357l-0.214 1.215 0.429 2.074v0.643c0.037 0.285 0.108 0.427 0.214 0.427 0-0.236 0.024-0.356 0.071-0.356-0.083-0.309-0.179-1.097-0.287-2.359v-1.929c0-0.12-0.12-0.596-0.358-1.431l0.071-0.356c0.002-0.358-0.071-0.549-0.214-0.572zM115.411 27.016c0 0.142-0.024 0.214-0.071 0.214 0.047 0.096 0.071 0.167 0.071 0.214h0.071v-0.429h-0.071zM115.698 5.367c0 0.024-0.024 0.12-0.071 0.287 0 0.214 0.191 1.024 0.572 2.428 0.287 1.416 0.429 2.585 0.429 3.502h-0.071l0.071 0.142v0.14c0 0.047-0.026 0.071-0.071 0.071 0.071 0.191 0.14 0.287 0.212 0.287 0-0.047 0.024-0.071 0.071-0.071 0-0.047-0.024-0.12-0.071-0.214 0.047-1.048 0.12-1.809 0.214-2.285-0.334 0-0.619-1.166-0.857-3.502-0.047 0-0.167-0.261-0.358-0.786h-0.069zM116.697 1.793l-0.069 0.142c0.14 0.643 0.212 1.097 0.212 1.357v0.788c0.012 0.096 0.059 0.142 0.142 0.142v-0.859c0-0.142 0.071-0.427 0.214-0.857-0.057-0.476-0.224-0.714-0.499-0.714zM116.984 25.799l-0.071 0.358v1.001h0.071c0-0.621 0.096-1.050 0.287-1.288l-0.142-0.071h-0.144zM117.556 27.588v0.071c0 0.258 0.024 0.592 0.071 0.997-0.047 0.083-0.071 0.179-0.071 0.287h0.142v-0.142c0-0.155 0.024-0.275 0.071-0.358-0.047-0.572-0.118-0.855-0.214-0.855zM117.772 13.44v0.501c0.096 0 0.142-0.047 0.142-0.142l-0.071-0.358h-0.071zM118.056 2.151v0.859c0.285 0.297 0.427 0.582 0.427 0.857 0.108 0 0.179-0.167 0.214-0.501l-0.071-0.857h0.071c-0.047-0.383-0.167-0.572-0.358-0.572-0.189 0.069-0.283 0.14-0.283 0.214zM119.485 26.228c0 0.024-0.047 0.383-0.142 1.073v0.429h0.142c0.189-0.716 0.285-1.121 0.285-1.217v-0.142c0-0.096-0.047-0.142-0.142-0.142h-0.142zM120.199 13.295c-0.191 0.098-0.287 0.883-0.287 2.359-0.096 0.012-0.142 0.059-0.142 0.142v0.214h0.142c0.238-0.621 0.358-0.954 0.358-1.001s-0.047-0.285-0.142-0.714c0.142-0.25 0.214-0.488 0.214-0.716v-0.142c0-0.090-0.047-0.14-0.142-0.14zM120.916 2.151c0 0.834-0.12 1.787-0.358 2.857l0.142 0.214c0.57-0.047 0.857-0.12 0.857-0.214 0.047-1.571 0.12-2.357 0.214-2.357-0.096-0.358-0.142-0.596-0.142-0.716h-0.572c-0.096 0-0.14 0.071-0.14 0.216zM120.7 28.084c0.047 0.096 0.071 0.167 0.071 0.214h0.142c0.108-0.047 0.297-0.383 0.57-0.997 0.238-0.059 0.358-0.13 0.358-0.214v-0.358c0-0.071-0.071-0.142-0.214-0.214-0.226 0-0.442 0.383-0.641 1.146-0.037-0.002-0.132 0.138-0.287 0.423zM120.916 15.225c0.128 0 0.297-0.263 0.499-0.786l-0.071-0.142v-0.501c0-0.12 0.047-0.334 0.142-0.641l-0.142-0.071h-0.071c-0.12 0-0.24 0.712-0.356 2.141zM121.557 15.369l-0.071 0.358v0.071c0.012 0.096 0.059 0.142 0.142 0.142 0-0.047 0.024-0.238 0.071-0.572h-0.142z"></path>
<path d="M136.722 1.366c0.155 0.096 0.275 0.142 0.358 0.142l0.358-0.071 0.425 0.071c0.155-0.096 0.297-0.142 0.429-0.142 0.142 0.047 0.214 0.096 0.214 0.142l0.716-0.071h0.287c0.334 0.012 0.501 0.059 0.501 0.142l0.142-0.071h0.425c0.047 0 0.071 0.024 0.071 0.071l0.358-0.214h0.572c0.81 0.191 1.217 0.309 1.217 0.356 1.176 1.134 1.773 1.775 1.785 1.929 0 0.024-0.024 0.12-0.071 0.287 0 0.12 0.024 0.309 0.071 0.572l-0.071 0.714c0.142 0.429 0.214 0.716 0.214 0.857v0.788c0 0.191-0.047 0.501-0.142 0.928 0.179 0.775 0.393 1.25 0.643 1.429v0.142c0 0.071-0.096 0.167-0.287 0.287h-0.142c-0.513 0-0.871-0.024-1.072-0.071-0.37 0.047-0.771 0.071-1.213 0.071h-0.501c-0.238 0-0.621-0.071-1.146-0.214-0.358 0.191-0.596 0.287-0.712 0.287-0.214-0.096-0.334-0.191-0.358-0.287v-0.218c0-0.273 0.263-0.725 0.784-1.357v-0.071l-0.071-0.427c0.096-0.226 0.142-0.442 0.142-0.643-0.425-0.714-0.902-1.070-1.427-1.070h-0.071c-0.25 0-0.466 0.024-0.643 0.071-0.25-0.047-0.488-0.071-0.716-0.071h-0.639c-0.108 0-0.203 0.024-0.287 0.071-0.287-0.083-0.429-0.155-0.429-0.214-0.096 0.083-0.474 0.155-1.144 0.214 0 0.12-0.167 0.356-0.501 0.714v0.572c0 0.346-0.024 0.606-0.071 0.786 0.047 0.309 0.071 0.621 0.071 0.93v0.857c-0.096 1.070-0.142 1.644-0.142 1.716v0.714c0 0.572 0.214 0.93 0.643 1.072 0 0.142 0.12 0.212 0.358 0.212 0.226 0 0.464-0.022 0.714-0.069l0.358 0.069 0.503-0.069 0.712 0.069 0.716-0.069c0.775 0.059 1.372 0.13 1.785 0.212 0.096 0 0.263-0.045 0.501-0.142 0.417 0.049 0.68 0.071 0.788 0.071 0.655-0.045 1.060-0.071 1.217-0.071 0.179 0.049 0.413 0.214 0.712 0.501 0.083 0.024 0.322 0.309 0.716 0.859 0.667 0.523 1.001 0.975 1.001 1.357v0.57c0 0.716-0.024 1.311-0.071 1.787 0.047 0.334 0.071 0.81 0.071 1.429-0.096 0.847-0.142 1.37-0.142 1.573v0.572c0.096 0.688 0.142 1.068 0.142 1.142-0.142 0.883-0.214 1.406-0.214 1.573 0.047 1.331 0.096 2.285 0.142 2.857-0.12 0.462-0.906 1.272-2.357 2.428-0.667-0.059-1.239-0.13-1.718-0.214-0.071 0-0.476 0.071-1.213 0.214-0.037 0-0.179-0.024-0.429-0.071-0.263 0.047-0.454 0.071-0.572 0.071-0.297-0.096-0.488-0.142-0.572-0.142-0.525 0.024-0.788 0.071-0.788 0.142-0.556-0.047-0.963-0.071-1.213-0.071h-2.428c-0.68 0-1.132-0.214-1.357-0.643-0.999-0.893-1.5-1.486-1.5-1.785v-0.93c0-0.608 0.024-1.276 0.071-1.998-0.047-0.167-0.071-0.263-0.071-0.287 0.047-0.263 0.071-0.525 0.071-0.788 0-0.358-0.214-0.954-0.643-1.785v-0.287c0.012-0.096 0.059-0.142 0.142-0.142h2.644c0.047 0 0.071 0.024 0.071 0.071l0.142-0.071h2.074c0.142 0 0.214 0.096 0.214 0.287-0.287 0.747-0.429 1.319-0.429 1.714l0.071 0.358c-0.096 0.454-0.142 0.739-0.142 0.859 0 0.712 0.405 1.117 1.215 1.213l0.503-0.071h0.142c0.484 0 0.867 0.024 1.142 0.071 0.275-0.047 0.655-0.071 1.146-0.071h0.142c0.13 0 0.275 0.047 0.429 0.142 0.258-0.047 0.472-0.071 0.639-0.071h0.214l0.071-0.358c0-0.226-0.024-0.771-0.071-1.642l0.071-0.142c-0.047-0.191-0.071-0.358-0.071-0.501 0-0.56-0.024-1.129-0.071-1.714 0.096-0.834 0.142-1.716 0.142-2.644v-0.073c0-0.383-0.454-0.643-1.355-0.788v-0.071l-0.716 0.071h-2.644c-0.108 0-0.203 0.024-0.285 0.071l-0.142-0.071c-0.155 0-0.275 0.024-0.358 0.071-0.488-0.047-0.871-0.071-1.144-0.071h-1.215c-0.442 0-0.942-0.356-1.5-1.070l-1.217-1.144v-11.502c0-0.609 0.81-1.488 2.43-2.644 0.403 0.096 0.665 0.142 0.786 0.142 0.071 0 0.287-0.047 0.643-0.142 0.096 0 0.261 0.047 0.499 0.142 0.094-0.096 0.737-0.167 1.927-0.214zM132.292 23.872v0.501c0.096 0 0.142-0.047 0.142-0.142v-0.216c0.002-0.096-0.047-0.142-0.142-0.142zM132.721 11.368v0.142h0.142v-0.285c-0.094 0.010-0.142 0.059-0.142 0.142zM133.008 3.58c0.142 0.383 0.212 0.621 0.212 0.716 0 0.037-0.024 0.179-0.069 0.427l0.069 0.358c0 0.12-0.024 0.309-0.069 0.572l0.14 2.143h-0.071c0.191 0.309 0.287 0.81 0.287 1.5v1.856l0.071 0.358h-0.071l0.071 0.142v0.57c0.037 0.287 0.108 0.429 0.214 0.429l0.071-0.142v-0.071c0-0.204-0.024-0.393-0.071-0.572l0.071-0.356c0-0.047-0.024-0.238-0.071-0.572 0.096-0.501 0.142-0.761 0.142-0.786-0.142-1.87-0.287-3.036-0.429-3.502v-1.213c0-0.263-0.024-0.596-0.071-0.999 0.047-0.096 0.071-0.167 0.071-0.214-0.191-0.358-0.287-0.667-0.287-0.93-0.067-0.002-0.138 0.094-0.21 0.285zM133.080 2.222v0.287h0.14v-0.142c0-0.098-0.047-0.144-0.14-0.144zM133.436 23.229c0 0.047-0.024 0.12-0.071 0.214 0.096 0.191 0.142 0.358 0.142 0.501h0.071l0.071-0.358-0.071-0.358h-0.142zM133.507 24.23l-0.071 0.712v0.358h0.071l0.142-0.855c-0.047-0.096-0.071-0.167-0.071-0.214h-0.071zM133.723 27.016c0 0.047-0.096 0.309-0.287 0.784l0.214 0.142c0.108 0 0.179-0.212 0.214-0.639-0.047-0.083-0.071-0.179-0.071-0.287h-0.069zM133.507 25.799v0.859c0 0.071 0.071 0.142 0.214 0.214v-0.788l0.071-0.358-0.142-0.071c-0.096 0.014-0.142 0.061-0.142 0.145zM133.649 28.585l-0.071 0.358c0.012 0.096 0.059 0.142 0.142 0.142h0.071v-0.501h-0.142zM133.723 13.155v0.212c0.012 0.096 0.059 0.142 0.142 0.142h0.142v-0.142c0-0.071-0.071-0.14-0.214-0.212h-0.071zM137.864 14.225v0.214h0.071v-0.214h-0.071zM138.222 26.3c0 0.238-0.047 0.358-0.142 0.358l0.142 1.427c-0.096 0.214-0.142 0.525-0.142 0.93 0.083 0.238 0.226 0.358 0.429 0.358l0.142-0.287c-0.096-0.203-0.167-0.608-0.214-1.217 0.096-0.187 0.142-0.354 0.142-0.497l-0.071-0.285 0.071-0.429c-0.096-0.214-0.191-0.334-0.287-0.358h-0.071zM139.511 28.3l-0.071 0.358c0.047 0.083 0.071 0.179 0.071 0.287h0.142v-0.643h-0.142zM139.94 2.294v0.287c0.012 0.096 0.059 0.142 0.142 0.142v-0.429h-0.142zM140.011 4.581c0 0.096-0.024 0.14-0.071 0.14 0.047 0.096 0.071 0.167 0.071 0.214h0.071v-0.354h-0.071zM141.367 7.225c0.142 0.319 0.214 0.678 0.214 1.070h0.071l0.142-0.501v-0.714c-0.13 0-0.273 0.049-0.427 0.144zM141.58 3.722v0.788h0.071c0.383-0.083 0.572-0.179 0.572-0.287-0.047-0.346-0.096-0.56-0.142-0.643 0.047-0.083 0.071-0.179 0.071-0.287v-0.212c-0.071 0-0.261 0.212-0.572 0.641zM141.938 18.442v1.5c0.142 0 0.238-0.191 0.287-0.572-0.142-0.547-0.214-0.857-0.214-0.928h-0.073zM141.938 26.8v0.501c0 0.513 0.142 0.843 0.429 0.997h0.142c-0.167-0.393-0.309-0.891-0.429-1.498h-0.142zM142.225 24.94v0.214c0 0.071 0.071 0.142 0.214 0.214v-0.287c0-0.096-0.047-0.142-0.142-0.142h-0.071zM142.51 25.944v0.071l0.071 0.358h0.142v-0.071l-0.071-0.358h-0.142zM142.868 23.872v0.214h0.071v-0.214h-0.071zM143.155 14.297v0.142h0.071v-0.142h-0.071zM143.155 19.871v0.287h0.071v-0.287h-0.071zM143.227 25.441v0.071c0.008 0.096 0.055 0.142 0.138 0.142v-0.214h-0.138zM143.227 28.3v0.214h0.138c-0.047-0.096-0.067-0.167-0.067-0.214h-0.071zM143.939 5.295c-0.191 0.429-0.309 1.191-0.358 2.285 0.047 0.275 0.071 0.655 0.071 1.146 0.012 0.096 0.059 0.142 0.142 0.142l0.071-0.501v-0.574l0.214-2.501h-0.14zM143.581 26.587v0.071c0.012 0.096 0.059 0.142 0.142 0.142v-0.358c-0.096 0.014-0.142 0.061-0.142 0.145zM143.652 15.153c0.047 0.096 0.071 0.167 0.071 0.214h0.214v-0.214c0-0.096-0.047-0.142-0.142-0.142-0.096 0.012-0.142 0.059-0.142 0.142zM143.652 23.371v0.358h0.071v-0.358h-0.071zM143.939 20.084c0 0.25 0.167 1.347 0.501 3.287v0.287c0.13 0.238 0.226 0.358 0.287 0.358 0-0.297-0.214-1.657-0.643-4.072-0.098 0.010-0.144 0.057-0.144 0.14zM144.010 24.94v0.214h0.071v-0.214h-0.071z"></path>
<path d="M146.513 1.437h0.997c1.919 0.332 2.99 0.499 3.215 0.499 0.525-0.189 0.859-0.285 1.001-0.285h1.714c0.442 0 1.060-0.024 1.86-0.071 0.096 0.047 0.163 0.071 0.212 0.071l0.501-0.071c0.13 0 0.608 0.024 1.431 0.071 0.071 0 0.287-0.047 0.643-0.142l0.497 0.071c0.155-0.096 0.297-0.142 0.429-0.142 0.083 0 0.203 0.047 0.358 0.142 0.309-0.096 0.525-0.142 0.643-0.142h0.142c0.429 0 0.643 0.191 0.643 0.57 0 1.298 0.071 2.513 0.214 3.645v0.142c-0.096 0.191-0.238 0.285-0.429 0.285-0.417-0.332-0.775-0.499-1.072-0.499h-0.788c-0.071 0-0.454 0.047-1.142 0.142-0.297-0.096-0.488-0.142-0.572-0.142-0.954 0.12-1.431 0.238-1.431 0.358l0.071 0.285c-0.142 0-0.238 0.954-0.283 2.857l0.212 0.501c-0.096 0.334-0.138 0.596-0.138 0.788l0.067 0.427c-0.047 0.263-0.067 0.525-0.067 0.788 0 0.226 0.020 0.464 0.067 0.714-0.047 0.25-0.067 0.393-0.067 0.429 0.043 0.537 0.067 1.036 0.067 1.5 0 0.047-0.024 0.12-0.067 0.214 0.092 0.191 0.138 0.452 0.138 0.786 0 0.25-0.024 0.466-0.071 0.643 0.047 0.309 0.071 0.619 0.071 0.928v0.287c0 1.429-0.071 2.143-0.212 2.143l0.071 0.142v0.93c0 0.332 0.043 0.594 0.138 0.786l-0.138 0.501c0.092 0.238 0.138 0.405 0.138 0.497-0.047 0.633-0.071 1.156-0.071 1.573 0 0.096-0.024 0.142-0.067 0.142l0.067 0.358v0.926c0 0.203-0.024 0.466-0.067 0.788l0.138 0.358c-0.096 0.214-0.138 0.525-0.138 0.93v0.501c0 0.138 0.212 0.806 0.639 1.998-0.071 0.191-0.142 0.287-0.214 0.287h-4.213c-0.525 0-0.788-0.071-0.788-0.214v-0.214l0.429-1.359v-0.784c0-0.108 0.024-0.203 0.071-0.287-0.047-0.083-0.071-0.179-0.071-0.287v-0.214c0-0.429 0.024-0.716 0.071-0.859-0.047-0.417-0.071-0.775-0.071-1.068v-1.001c0-0.37 0.024-0.704 0.071-1.001-0.047-0.238-0.071-0.545-0.071-0.926v-0.214c0-0.155 0.024-0.275 0.071-0.358l-0.142-1.144c0.047-0.417 0.071-0.775 0.071-1.070v-0.142c0-0.275-0.024-0.655-0.071-1.146l0.149-0.358-0.071-0.643 0.071-0.999-0.142-0.859c0.047-0.248 0.071-0.486 0.071-0.714v-0.287l0.214-0.287c-0.191-0.236-0.287-0.381-0.287-0.427 0.047-0.906 0.096-1.357 0.142-1.357l-0.071-0.358v-2.929c0-0.167 0.024-0.383 0.071-0.643 0-1.382-0.383-2.072-1.146-2.072-0.358-0.096-0.688-0.142-0.997-0.142h-0.572c-0.191 0-0.501 0.047-0.93 0.142-0.309-0.096-0.621-0.142-0.926-0.142-0.596 0.047-0.906 0.071-0.93 0.071-0.096-0.155-0.142-0.275-0.142-0.358 0.238-1.488 0.358-2.489 0.358-3.002v-0.214c0-0.258 0.144-0.474 0.429-0.641zM152.515 8.224l-0.214 0.287v0.142c0 0.037 0.047 0.226 0.142 0.57v0.071c-0.287 0.405-0.429 0.81-0.429 1.215 0.047 0.083 0.071 0.179 0.071 0.287 0.142 0 0.334-0.547 0.568-1.644v-0.786c0.002-0.096-0.047-0.142-0.138-0.142zM152.014 11.439v0.427h0.142v-0.427h-0.142zM152.085 22.083c0 0.047-0.024 0.12-0.071 0.214 0.047 0.525 0.12 1.097 0.214 1.718-0.047 0.25-0.071 0.393-0.071 0.429 0.047 0.096 0.071 0.167 0.071 0.214 0.071 0 0.142-0.071 0.214-0.214v-1.431c0-0.179-0.096-0.488-0.287-0.93h-0.069zM152.085 12.225v0.358l0.214 0.287v0.287l0.071 0.714h0.071c0-0.037 0.024-0.179 0.071-0.429 0-0.273-0.12-0.678-0.358-1.215h-0.069zM152.301 14.225l-0.142 0.501c0.33 0.761 0.497 1.215 0.497 1.357v0.499c0.012 0.096 0.059 0.142 0.142 0.142l0.071-0.142v-0.142c0-0.32-0.167-0.965-0.497-1.927v-0.287h-0.071zM152.301 17.085c0 0.191-0.024 0.287-0.071 0.287l0.071 0.356-0.071 0.429c0.047 0.083 0.071 0.203 0.071 0.358h0.142c0.043-0.476 0.071-0.832 0.071-1.070v-0.36h-0.214zM152.727 27.517l-0.138 0.568c0.055 0.287 0.128 0.429 0.212 0.429l0.071-0.358v-0.497c-0.002-0.096-0.049-0.142-0.144-0.142zM152.655 2.507v0.641c0 0.25 0.096 0.417 0.287 0.501 0.142-0.322 0.238-0.749 0.287-1.286l-0.214-0.142c-0.218 0.098-0.338 0.193-0.36 0.287zM152.727 28.73l-0.071 0.358v0.071c0.047 0 0.12 0.024 0.214 0.071l0.071-0.142-0.071-0.358h-0.142zM153.013 13.012v0.427c0.096 0.621 0.142 1.121 0.142 1.5h0.071v-0.427c-0.047-0.537-0.071-1.013-0.071-1.429l-0.142-0.071zM153.156 17.441l-0.071 0.499v0.93h0.071c0-0.083 0.024-0.513 0.071-1.286v-0.142h-0.071zM153.298 28.872v0.142h0.071v-0.142h-0.071zM153.441 24.372l-0.071 0.142v0.784h0.214l0.142-0.497c-0.094-0.287-0.189-0.429-0.285-0.429zM153.585 4.51v0.714h0.142v-0.857c-0.096 0.010-0.142 0.059-0.142 0.142zM153.585 6.724v0.928c0.012 0.096 0.059 0.142 0.142 0.142 0-0.047 0.024-0.071 0.071-0.071l-0.071-0.142v-0.857h-0.142zM153.585 8.653v0.714h0.071c0.037-0.381 0.083-0.57 0.142-0.57-0.047-0.083-0.071-0.179-0.071-0.287-0.096 0.012-0.142 0.059-0.142 0.142zM154.157 17.585v1.785l-0.071 0.716h0.142c0-0.297 0.167-1.036 0.501-2.216-0.287-0.118-0.429-0.261-0.429-0.427-0.096 0.010-0.142 0.059-0.142 0.142zM154.157 14.512v0.928h0.142c0.142-0.513 0.214-0.82 0.214-0.928v-0.501h-0.069c-0.191 0.071-0.287 0.238-0.287 0.501zM154.444 24.873v1.142l-0.287 2.786h0.142c0.191-0.56 0.287-1.581 0.287-3.073v-0.855h-0.142zM154.874 2.507c0.012 0.096 0.059 0.142 0.142 0.142v-0.142h-0.142zM155.374 4.51c0 0.047-0.024 0.12-0.071 0.212 0.047 0.096 0.071 0.167 0.071 0.214h0.855v-0.427h-0.855zM155.584 2.652v0.142h0.071v-0.142h-0.071zM156.3 2.652v0.499c0.012 0.098 0.059 0.142 0.142 0.142 0-0.118 0.024-0.307 0.071-0.57l-0.142-0.071h-0.071zM157.086 2.222c-0.047 1.25-0.071 2.18-0.071 2.786 0.142 0.047 0.214 0.096 0.214 0.142 0.238 0 0.358-0.737 0.358-2.214 0.047-0.263 0.071-0.476 0.071-0.643l-0.142-0.071h-0.429zM158.657 4.51v0.14h0.071v-0.14h-0.071zM159.229 2.937c-0.096 0.309-0.142 0.523-0.142 0.641v0.071c0.12 0 0.214-0.214 0.287-0.641l-0.144-0.071zM160.088 4.294l-0.358 0.499v0.214c0 0.108 0.214 0.179 0.643 0.214v-0.069c-0.059-0.57-0.153-0.857-0.285-0.857z"></path>
<path d="M161.606 1.366l0.358 0.071h2.357c0.226 0 0.608 0.047 1.142 0.142l0.716-0.142c0.083 0 0.275 0.047 0.572 0.142l1.927-0.142c0.083 0.047 0.297 0.096 0.643 0.142 0.083 0 0.275-0.047 0.572-0.142 0.037 0 0.179 0.024 0.429 0.071l0.855-0.071c0.309 0.096 0.525 0.142 0.643 0.142h0.142c0.893-0.142 1.372-0.214 1.431-0.214 0.309 0 0.643 0.238 0.997 0.714 0.906 0.476 1.359 1.001 1.359 1.571 0.047 0 0.071 0.024 0.071 0.071s-0.024 0.12-0.071 0.214c0.047 0.621 0.071 1.119 0.071 1.5v0.071c0 0.167-0.024 0.383-0.071 0.641 0.096 0.297 0.142 0.488 0.142 0.572-0.096 0.334-0.142 0.621-0.142 0.857 0.191 0.466 0.287 0.775 0.287 0.93v1.215l-0.285 1.789c0 0.275 0.024 0.653 0.071 1.144-0.096 0.476-0.142 0.904-0.142 1.286 0.191 0.442 0.287 0.704 0.287 0.788v0.857c-0.13 0.881-0.25 1.382-0.358 1.5-0.096 0-0.525 0.429-1.288 1.286-0.283 0.13-0.425 0.37-0.425 0.714 0.092 0.739 0.258 1.335 0.497 1.787l0.716 2.859c0 0.739 0.287 1.76 0.859 3.073 0 1.068 0.287 1.832 0.859 2.285 0.138 0 0.258 0.214 0.354 0.643-0.155 0.142-0.275 0.214-0.354 0.214-0.513-0.096-0.847-0.142-1.001-0.142h-0.358c-0.405 0-0.906 0.047-1.498 0.142-0.417-0.047-0.68-0.071-0.788-0.071-0.037 0-0.179 0.024-0.429 0.071-0.191-0.047-0.358-0.071-0.501-0.071l-0.501 0.071c-0.238-0.083-0.358-0.203-0.358-0.358 0.142-0.238 0.214-0.429 0.214-0.572v-0.142c-0.191-1.093-0.476-2.285-0.855-3.574 0-0.203-0.12-0.676-0.358-1.427 0-0.155-0.12-0.608-0.358-1.359-0.047-0.429-0.287-1.284-0.716-2.57 0-0.442-0.405-0.822-1.213-1.144l-0.358 0.071-1.001-0.071c0 0.059-0.238 0.32-0.716 0.786v2.145c0 1.034-0.024 2.44-0.071 4.213 0.047 0.263 0.071 0.476 0.071 0.643l-0.067 0.358c0.047 0.37 0.071 0.775 0.071 1.213v0.071c0 0.083 0.167 0.537 0.501 1.359v0.071c0 0.071-0.071 0.142-0.214 0.214h-3.073c-0.275 0-0.655 0.024-1.142 0.071-0.096-0.047-0.167-0.071-0.214-0.071-0.083 0.047-0.203 0.071-0.358 0.071-0.238-0.142-0.358-0.287-0.358-0.429 0.429-0.68 0.643-1.205 0.643-1.573v-1.498c0-0.775-0.024-1.347-0.071-1.714 0.047-0.37 0.071-0.942 0.071-1.718v-1.213c0-0.108-0.024-0.203-0.071-0.287 0.047-0.083 0.071-0.179 0.071-0.287v-0.142c0-0.275-0.024-0.44-0.071-0.503 0.047-0.261 0.071-0.474 0.071-0.641v-0.643c0-0.201-0.024-0.391-0.071-0.57 0-0.047 0.024-0.12 0.071-0.214-0.047-0.761-0.071-1.215-0.071-1.357 0-0.12 0.024-0.739 0.071-1.858l-0.071-0.358c0.047-0.081 0.071-0.179 0.071-0.285l-0.071-0.358 0.071-0.142c-0.047-0.096-0.071-0.167-0.071-0.214l0.071-0.429c0-0.142-0.024-0.307-0.071-0.499 0.047-0.751 0.071-1.298 0.071-1.644 0-0.405-0.024-1.119-0.071-2.145 0.037-0.381 0.083-0.57 0.142-0.57l-0.071-0.358v-0.999c0-0.263-0.024-0.596-0.071-1.001 0.047-0.096 0.071-0.167 0.071-0.214 0-0.045-0.024-0.069-0.071-0.069l0.071-0.716v-2.715c0-0.096-0.142-0.383-0.429-0.859v-0.069l0.216-0.287zM163.677 13.367v0.142c0 0.059-0.047 0.322-0.142 0.788 0.024 0.476 0.096 0.714 0.214 0.714v-1.144l0.142-0.214v-0.142c0-0.096-0.047-0.142-0.142-0.142h-0.071zM163.677 21.015c0 0.108-0.024 0.203-0.071 0.287 0.047 0.476 0.12 0.712 0.214 0.712h0.071v-0.067c0-0.167 0.024-0.383 0.071-0.643-0.047-0.083-0.071-0.179-0.071-0.287h-0.214zM164.536 17.585v0.212h0.142v-0.356c-0.096 0.012-0.142 0.061-0.142 0.145zM164.679 6.223c0 0.167-0.024 0.383-0.071 0.643 0.047 0.083 0.071 0.179 0.071 0.287 0.059 0 0.179-0.12 0.358-0.358 0-0.263-0.12-0.454-0.358-0.572zM164.75 11.797l-0.142 0.857c0.047 0.25 0.071 0.488 0.071 0.714v0.287h0.142l0.142-0.358-0.214-0.356v-0.503c0-0.12 0.047-0.334 0.142-0.641h-0.142zM164.607 19.513l0.142 0.716h0.071v-0.574c0-0.096-0.047-0.142-0.142-0.142h-0.071zM164.679 2.58l0.071 0.142v0.786h0.142l0.071-0.358v-0.069c0-0.047-0.047-0.238-0.142-0.572l-0.142 0.071zM164.75 15.87c0.059 0 0.179-0.12 0.358-0.358l-0.142-0.071c-0.096 0-0.167 0.142-0.216 0.429zM164.75 16.083v0.212h0.071v-0.212h-0.071zM164.966 18.298c0 0.191-0.024 0.287-0.071 0.287 0.047 0.071 0.071 0.214 0.071 0.429h0.142l0.071-0.643-0.142-0.071h-0.071zM165.037 14.512v0.142c0.012 0.096 0.059 0.14 0.142 0.14 0.096-0.153 0.142-0.273 0.142-0.356l-0.142-0.071c-0.096 0.012-0.142 0.061-0.142 0.145zM165.037 20.583v0.071c0.142 0.214 0.214 0.358 0.214 0.429h0.138v-0.358c0-0.096-0.047-0.142-0.138-0.142h-0.214zM165.037 24.731v0.354h0.071v-0.354h-0.071zM165.108 17.227l0.425 0.714v-0.356c0-0.25-0.071-0.393-0.212-0.429-0.098 0.047-0.167 0.071-0.214 0.071zM165.179 21.873v0.071h0.071c0.092 0 0.138-0.047 0.138-0.142v-0.071h-0.067c-0.098 0.010-0.142 0.059-0.142 0.142zM165.747 15.225c0 0.238-0.024 0.358-0.071 0.358l0.071 0.142v0.071c0 0.226-0.12 0.417-0.358 0.57 0.142 0.322 0.214 0.513 0.214 0.572h0.142l-0.071-0.716c0.059 0 0.179-0.118 0.358-0.356l-0.142-0.643h-0.142zM165.818 2.365c0 0.047-0.024 0.12-0.071 0.214 0.047 0.287 0.12 0.429 0.214 0.429 0.142-0.047 0.214-0.191 0.214-0.429v-0.071c0-0.096-0.047-0.142-0.142-0.142h-0.214zM165.818 18.727c0.142-0.191 0.287-0.287 0.429-0.287v-0.356h-0.071c-0.238 0.201-0.358 0.417-0.358 0.643zM169.465 5.652h-1.284c-0.275 0-0.655-0.024-1.146-0.071-0.238 0-0.596 0.263-1.072 0.786 0.047 0.476 0.071 0.834 0.071 1.072v1.286c0 0.309-0.024 0.619-0.071 0.928 0.047 0.167 0.071 0.429 0.071 0.786 0 0.275-0.024 0.442-0.071 0.501 0.047 0.322 0.071 0.584 0.071 0.788v2.072c0 0.047-0.024 0.071-0.071 0.071 0.203 0.37 0.417 0.633 0.643 0.788h4.504c0.379-0.37 0.568-0.871 0.568-1.5v-2.788c0-0.608 0.024-1.276 0.071-2.001-0.047-0.191-0.071-0.383-0.071-0.572 0.047-0.452 0.071-0.904 0.071-1.357 0-0.358-0.429-0.665-1.284-0.928-0.356 0.094-0.69 0.14-0.999 0.14zM166.321 15.87l0.214 0.356c-0.047 0.263-0.071 0.454-0.071 0.572 0.263 0.405 0.429 0.81 0.501 1.215 0.155 0.096 0.275 0.142 0.358 0.142 0.047-0.096 0.071-0.167 0.071-0.214-0.096-0.32-0.334-0.891-0.716-1.716 0.047-0.081 0.071-0.177 0.071-0.285 0-0.096-0.047-0.142-0.142-0.142h-0.142l-0.142 0.071zM166.464 4.937l0.142 0.071c0.083 0 0.25-0.214 0.501-0.641 0.096-0.047 0.167-0.071 0.214-0.071 0.191 0.214 0.287 0.383 0.287 0.499h0.142l0.071-0.857c-0.334 0-0.501-0.263-0.501-0.788v-0.285c0-0.12 0.047-0.334 0.142-0.643h-0.071c-0.334 0-0.501 0.358-0.501 1.070-0.189 0.299-0.332 0.847-0.427 1.644zM167.823 2.151v0.071l0.214 0.429c-0.047 0.405-0.071 0.737-0.071 0.999v0.142c0.142-0.047 0.214-0.191 0.214-0.429 0-0.071-0.029-0.403-0.071-0.999h0.071c-0.047-0.096-0.071-0.167-0.071-0.214h-0.285zM168.963 3.865c-0.287 0.633-0.429 0.965-0.429 0.999l0.142 0.071h0.287c0.096 0 0.142-0.047 0.142-0.142v-0.784c0.002-0.096-0.047-0.144-0.142-0.144zM169.036 2.58v0.429h0.071l0.071-0.501v-0.073c-0.096 0.012-0.142 0.061-0.142 0.144zM170.251 15.44c0 0.047 0.024 0.071 0.071 0.071l-0.071 0.358c0.047 0.096 0.071 0.167 0.071 0.214h0.287c0.096-0.024 0.191-0.142 0.287-0.358-0.047 0-0.191-0.167-0.429-0.501-0.037 0-0.108 0.073-0.216 0.216zM170.322 20.227c0.142 0.203 0.214 0.535 0.214 1.001l0.142-0.071-0.071-0.358c0.047-0.344 0.071-0.535 0.071-0.57l-0.142-0.071h-0.071l-0.142 0.069zM170.467 2.222v1.716l0.071 0.857h0.071c0-0.224 0.024-0.464 0.071-0.714-0.047-0.584-0.071-1.154-0.071-1.716v-0.142h-0.142zM170.823 16.655v0.214l0.497 1.858h0.142l0.071-0.358c-0.238-0.454-0.358-0.881-0.358-1.286v-0.427c0-0.096-0.047-0.142-0.138-0.142h-0.071c-0.094 0.010-0.142 0.059-0.142 0.142zM171.038 15.727c0.008 0.096 0.055 0.142 0.138 0.142l0.071-0.287h-0.071c-0.096 0.012-0.138 0.061-0.138 0.145zM171.393 2.937c0.108 1.144 0.203 1.976 0.287 2.501h0.071v-0.716c0.191-0.975 0.287-1.5 0.287-1.571v-0.57l0.071-0.358c-0.096-0.047-0.167-0.071-0.214-0.071-0.336 0.13-0.503 0.393-0.503 0.786zM172.323 16.155l-0.071 0.501c0 0.238 0.024 0.596 0.071 1.070h0.071l0.071-0.857-0.071-0.714h-0.071zM172.323 19.083c0 0.026-0.024 0.12-0.071 0.287 0.047 0.096 0.071 0.167 0.071 0.214h0.071c0-0.047 0.024-0.12 0.071-0.214-0.047-0.083-0.071-0.179-0.071-0.287h-0.071zM172.894 27.8v0.071c0.142 0.692 0.214 1.121 0.214 1.288h0.142v-0.071c0-0.859-0.096-1.288-0.287-1.288h-0.069zM173.037 6.724v0.287l0.071 0.358h0.071l0.071-0.358v-0.503c-0.069 0-0.14 0.071-0.214 0.216zM173.037 13.654v0.071h0.071c0.096-0.309 0.142-0.523 0.142-0.641-0.106 0-0.177 0.189-0.214 0.57zM173.824 2.436c0.047 0.096 0.071 0.167 0.071 0.214 0 0.535-0.142 1.321-0.429 2.357v0.214c0.25 0 0.509-0.714 0.784-2.143l-0.212-0.716h-0.071l-0.142 0.075zM173.538 25.298c0.142 0.967 0.214 1.539 0.214 1.718v0.501c0.012 0.096 0.059 0.142 0.142 0.142 0.079-0.047 0.175-0.071 0.283-0.071l0.071 0.142c0 0.116-0.024 0.305-0.071 0.568 0 0.716 0.191 1.073 0.572 1.073 0.68-0.096 1.156-0.142 1.431-0.142-0.226-0.476-0.37-0.716-0.429-0.716-0.155 0-0.322 0.071-0.501 0.214h-0.287c-0.096 0-0.142-0.047-0.142-0.142l0.071-0.358c0-0.462-0.263-0.914-0.788-1.355 0-0.405-0.167-0.93-0.497-1.573h-0.069zM173.753 16.727c0 0.071 0.024 0.358 0.071 0.859h0.142c0.071 0 0.138-0.071 0.212-0.214v-0.073l-0.212-0.287v-0.214c0-0.203 0.092-0.511 0.283-0.928l-0.142-0.071c-0.151 0-0.271 0.309-0.354 0.928zM173.896 22.154v0.071c0.012 0.096 0.059 0.142 0.142 0.142v-0.214h-0.142zM174.107 10.796l0.071 0.287h0.358c0.142 0 0.214-0.454 0.214-1.357 0-0.037-0.024-0.179-0.071-0.429h-0.071c-0.096 0-0.167 0.287-0.214 0.859-0.191 0.214-0.287 0.425-0.287 0.641zM174.25 12.225v2.216l0.071 0.499h0.142v-0.285c0-0.096-0.047-0.334-0.142-0.716 0-0.071 0.071-0.358 0.214-0.857v-0.999h-0.142c-0.094 0.010-0.142 0.059-0.142 0.142zM174.25 23.442v0.142c0 0.346 0.071 0.537 0.214 0.572h0.071v-0.214c0.002-0.263-0.094-0.429-0.285-0.501zM175.18 4.721c0 0.191-0.047 0.287-0.142 0.287l0.071 0.501v0.287l-0.788 0.641v0.071c0 0.071 0.071 0.142 0.214 0.214h0.501l0.287-0.214-0.071-0.499c0.047-0.596 0.071-0.954 0.071-1.072-0.047-0.096-0.071-0.167-0.071-0.214h-0.071zM174.679 25.156c0.071 0.191 0.142 0.287 0.214 0.287v-0.501c-0.035-0.002-0.106 0.071-0.214 0.214zM175.251 4.223v0.287h0.071c0.047-0.167 0.071-0.263 0.071-0.287h-0.142z"></path>
<path d="M180.968 1.437h0.788c0.108 0 0.203 0.024 0.287 0.071 0.079-0.047 0.175-0.071 0.283-0.071l0.501 0.071 0.358-0.071c0.191 0.096 0.334 0.142 0.429 0.142 0.179-0.096 0.393-0.142 0.643-0.142l1.498 0.356h1.072c0.501-0.14 1.046-0.26 1.642-0.356l0.501 0.071 0.287-0.071c0.191 0.047 0.358 0.071 0.501 0.071l0.287-0.071c0.167 0 0.735 0.499 1.714 1.5 0.263 0.285 0.501 0.594 0.716 0.928 0 0.096-0.024 0.142-0.071 0.142 0.047 0.641 0.071 1.119 0.071 1.429 0 0.167-0.047 1.882-0.142 5.143v1.286c0.096 0.81 0.142 1.264 0.142 1.359v4.001c0 0.334-0.047 0.594-0.142 0.786 0.096 0.549 0.142 1.215 0.142 2v3.572c-0.096 0.692-0.142 1.073-0.142 1.146v1.427c0 0.309 0.024 0.788 0.071 1.431-0.214 0.366-0.788 0.985-1.714 1.856-0.238 0.334-0.501 0.501-0.788 0.501l-0.358-0.071-0.142 0.071-0.429-0.071h-0.142c-0.108 0-0.203 0.024-0.287 0.071-0.083-0.047-0.203-0.071-0.358-0.071s-0.275 0.024-0.354 0.071c-0.263-0.047-0.476-0.071-0.643-0.071h-1.146l-0.429 0.071c-0.108-0.047-0.417-0.096-0.926-0.142-0.405 0.096-0.667 0.142-0.788 0.142-0.263 0-0.525-0.024-0.788-0.071-0.549 0.047-1.068 0.071-1.569 0.071h-0.572c-0.513 0-0.918-0.263-1.217-0.788-0.214 0-0.639-0.429-1.284-1.288-0.037 0-0.108-0.116-0.214-0.354l0.071-0.859v-1.646c-0.096-1.534-0.142-2.369-0.142-2.501v-4.638c0-0.368 0.024-0.702 0.071-0.999-0.047-0.238-0.071-0.549-0.071-0.928v-1.429c0.096-0.81 0.142-1.262 0.142-1.357v-2.503c-0.142-0.452-0.214-0.808-0.214-1.070 0-1.823 0.071-3.679 0.214-5.572v-0.287c0-0.297 0.263-0.582 0.788-0.857 0.578-0.954 1.199-1.429 1.854-1.429zM179.751 18.943v0.14h0.071v-0.14h-0.071zM180.109 3.010c0.096 0.391 0.142 0.653 0.142 0.786h0.142c0-0.071-0.024-0.405-0.071-0.999 0.047-0.096 0.071-0.167 0.071-0.214h-0.071c-0.142 0.045-0.214 0.187-0.214 0.427zM180.323 10.509v0.287c0.012 0.096 0.059 0.142 0.142 0.142h0.071l-0.071-0.429h-0.142zM180.825 18.298v0.142l0.071 0.358h0.071v-0.501h-0.142zM180.825 19.441v0.214c0.012 0.096 0.059 0.142 0.142 0.142h0.071v-0.142l-0.071-0.358c-0.096 0.012-0.142 0.061-0.142 0.145zM181.11 7.652l-0.214 0.285 0.142 0.501c0.142 0 0.214-0.238 0.214-0.716l-0.142-0.069zM181.181 22.655c-0.047 0.263-0.071 0.454-0.071 0.572 0.047 0.096 0.071 0.167 0.071 0.214h0.142c0-0.191 0.024-0.287 0.071-0.287-0.096-0.238-0.142-0.405-0.142-0.501h-0.071zM181.181 24.301c0.047 0.405 0.071 0.712 0.071 0.926h0.071c0-0.083 0.047-0.275 0.142-0.568-0.096-0.155-0.142-0.275-0.142-0.358h-0.142zM181.253 25.514v0.643h0.071v-0.643h-0.071zM185.826 5.509h-0.643c-0.688 0.096-1.068 0.142-1.142 0.142h-0.142c-0.047 0-0.238-0.047-0.572-0.142l-0.358 0.071v0.358c0 0.891-0.096 1.561-0.287 1.998l-0.142 14.502h-0.071l0.071 0.142v0.572c0 0.047-0.024 0.071-0.071 0.071l0.071 0.142v1.288c0 0.047-0.024 0.071-0.071 0.071 0.155 0.521 0.442 0.784 0.859 0.784l0.287 0.287-0.071 0.358c0.142 0.454 0.287 1.146 0.429 2.072 0.203 0 0.417 0.358 0.643 1.073h0.071c0.425 0 0.639-0.142 0.639-0.429l-0.071-1.001c0.096-0.151 0.142-0.295 0.142-0.425-0.142-0.179-0.214-0.346-0.214-0.501l0.071-0.358c-0.047-0.238-0.142-0.358-0.283-0.358-0.155 0.096-0.297 0.142-0.429 0.142h-0.214c-0.071 0-0.142-0.071-0.214-0.214v-0.358c0.047-0.142 0.191-0.214 0.429-0.214h0.071c0.13 0 0.275 0.047 0.425 0.142 0.309-0.096 0.525-0.142 0.643-0.142h1.502c0.071 0 0.142 0.071 0.214 0.214l-0.071 0.501c0.096 0 0.167-0.238 0.214-0.716 0.33-0.309 0.497-0.596 0.497-0.855v-0.855c0-0.454 0.024-0.906 0.071-1.359l-0.071-0.358 0.142-3.14c-0.047-0.096-0.071-0.167-0.071-0.214l0.214-0.716-0.071-0.429c0.096-0.307 0.142-0.523 0.142-0.641-0.191-0.214-0.287-0.334-0.287-0.358v-0.358c0-0.045 0.024-0.071 0.071-0.071l-0.071-0.14v-0.287c0-0.155 0.024-0.275 0.071-0.358l-0.071-0.429v-0.641c0-0.047 0.024-0.071 0.071-0.071l-0.071-0.142v-0.716c0-1.465 0.024-3.439 0.071-5.93 0.096-0.332 0.142-0.619 0.142-0.857v-0.786c-0.203 0-0.417-0.071-0.639-0.214-0.191 0.096-0.334 0.142-0.429 0.142-0.716-0.108-1.072-0.297-1.072-0.572-0.212 0.189-0.332 0.285-0.354 0.285zM182.681 27.588v0.425l0.071 0.358h0.071v-0.784h-0.142zM182.895 28.801v0.142h0.071v-0.142h-0.071zM183.467 2.294c0 0.142 0.024 0.214 0.071 0.214l-0.071 0.358v0.999c0 0.238-0.024 0.596-0.071 1.070h0.142c0-0.12 0.071-0.499 0.214-1.144v-1.498c0-0.096-0.047-0.142-0.142-0.142-0.094 0.012-0.142 0.059-0.142 0.142zM184.613 4.367v0.214l0.071 0.356h0.214c-0.096-0.427-0.142-0.665-0.142-0.714-0.096 0.012-0.142 0.059-0.142 0.144zM185.18 2.151c0 0.047-0.024 0.071-0.071 0.071 0.179 0.667 0.37 0.999 0.572 0.999h0.071c-0.071-0.714-0.261-1.070-0.572-1.070zM185.826 3.364v0.071c0.096 0.155 0.142 0.275 0.142 0.358h0.071v-0.142c-0.071-0.191-0.142-0.287-0.214-0.287zM187.112 26.658l-0.071 0.358v0.214h0.142v-0.572h-0.071zM188.038 2.294c0 0.047-0.024 0.071-0.071 0.071 0.047 0.096 0.071 0.167 0.071 0.214 0 0.191 0.024 0.621 0.071 1.286h0.071c0.096 0 0.142-0.047 0.142-0.142-0.045-0.952-0.14-1.429-0.285-1.429zM188.54 25.227c0 0.383-0.191 0.906-0.572 1.573v0.501c0.012 0.096 0.059 0.142 0.142 0.142 0.383-1.013 0.572-1.73 0.572-2.147l-0.142-0.069zM188.825 28.3h0.142v-0.287c0.238-0.771 0.358-1.319 0.358-1.642v-0.214c-0.334 0.454-0.501 1.168-0.501 2.143zM188.896 19.297h0.142c0.047-0.248 0.071-0.391 0.071-0.427-0.142 0.049-0.214 0.191-0.214 0.427zM189.112 4.152c-0.096 0.155-0.142 0.297-0.142 0.429v0.285h0.142l0.142-0.499v-0.073c0-0.096-0.047-0.142-0.142-0.142zM189.613 16.226c-0.191 0.751-0.358 1.583-0.501 2.501 0.12 0 0.309-0.716 0.572-2.145v-0.356h-0.071zM189.47 5.652l-0.071 0.499c0.071 0.191 0.142 0.287 0.214 0.287v-0.641c0-0.096-0.049-0.144-0.142-0.144zM189.397 22.871v0.071h0.142v-0.214c-0.094 0.010-0.142 0.059-0.142 0.142zM189.613 10.509l-0.071 0.501v1.070h0.142v-1.142l0.071-0.358-0.142-0.071zM189.613 20.514l-0.071 0.714v0.071c0.012 0.096 0.059 0.142 0.142 0.142v-0.928h-0.071zM189.971 26.729v0.429c-0.287 0.784-0.429 1.284-0.429 1.498 0.047 0.191 0.071 0.358 0.071 0.501l0.142-0.071-0.071-0.142v-0.287c0.287-0.775 0.429-1.368 0.429-1.785v-0.142h-0.142zM189.971 18.727c0 0.13-0.12 0.558-0.358 1.286 0.047 0.096 0.071 0.167 0.071 0.214h0.071l0.287-1.429v-0.071h-0.071zM189.613 21.586v0.568h0.071v-0.568h-0.071zM190.256 17.655c0 0.142-0.047 0.309-0.142 0.501h0.071c0.096 0 0.142-0.047 0.142-0.142v-0.358h-0.071zM190.113 24.873v0.425h0.071l0.071-0.425h-0.142zM190.327 2.794v0.142h0.071v-0.142h-0.071zM190.327 17.011v0.429h0.071v-0.429h-0.071zM191.039 17.655c0 0.287-0.214 1.455-0.639 3.502v0.071c0.226-0.108 0.393-0.893 0.497-2.359 0.191-0.167 0.287-0.358 0.287-0.572v-0.501c-0.002-0.096-0.049-0.142-0.144-0.142zM190.472 28.443v0.142h0.214l0.138-0.501v-0.142c-0.059 0-0.173 0.167-0.352 0.501zM190.826 27.303v0.287h0.142l0.071-0.358v-0.071h-0.071c-0.096 0.010-0.142 0.059-0.142 0.142zM191.111 25.87c-0.096 0.155-0.142 0.297-0.142 0.429h0.071c0.071 0 0.142-0.071 0.214-0.214v-0.071c0.002-0.096-0.047-0.145-0.142-0.145zM191.111 12.225l-0.071 0.358v0.714h0.071l0.071-0.356v-0.716h-0.071zM191.111 22.012l-0.071 0.358v0.142c0.012 0.096 0.059 0.142 0.142 0.142v-0.643h-0.071zM191.326 8.653v0.285h0.142v-0.427c-0.096 0.012-0.142 0.059-0.142 0.142zM191.54 19.8c-0.096 0.405-0.167 0.999-0.214 1.787 0.096 0 0.191-0.572 0.287-1.716v-0.071h-0.073z"></path>
<path d="M197.454 1.437h0.788c0.108 0 0.203 0.024 0.287 0.071 0.079-0.047 0.175-0.071 0.283-0.071l0.501 0.071 0.358-0.071c0.191 0.096 0.334 0.142 0.429 0.142 0.179-0.096 0.393-0.142 0.643-0.142l1.498 0.356h1.072c0.501-0.14 1.046-0.26 1.642-0.356l0.501 0.071 0.287-0.071c0.191 0.047 0.358 0.071 0.501 0.071l0.287-0.071c0.167 0 0.735 0.499 1.714 1.5 0.263 0.285 0.501 0.594 0.716 0.928 0 0.096-0.024 0.142-0.071 0.142 0.047 0.641 0.071 1.119 0.071 1.429 0 0.167-0.047 1.882-0.142 5.143v1.286c0.096 0.81 0.142 1.264 0.142 1.359v4.001c0 0.334-0.047 0.594-0.142 0.786 0.096 0.549 0.142 1.215 0.142 2v3.572c-0.096 0.692-0.142 1.073-0.142 1.146v1.427c0 0.309 0.024 0.788 0.071 1.431-0.214 0.366-0.788 0.985-1.714 1.856-0.238 0.334-0.501 0.501-0.788 0.501l-0.358-0.071-0.142 0.071-0.429-0.071h-0.142c-0.108 0-0.203 0.024-0.287 0.071-0.083-0.047-0.203-0.071-0.358-0.071s-0.275 0.024-0.354 0.071c-0.263-0.047-0.476-0.071-0.643-0.071h-1.146l-0.429 0.071c-0.108-0.047-0.417-0.096-0.926-0.142-0.405 0.096-0.667 0.142-0.788 0.142-0.263 0-0.525-0.024-0.788-0.071-0.549 0.047-1.068 0.071-1.569 0.071h-0.572c-0.513 0-0.918-0.263-1.217-0.788-0.214 0-0.639-0.429-1.284-1.288-0.037 0-0.108-0.116-0.214-0.354l0.071-0.859v-1.646c-0.096-1.534-0.142-2.369-0.142-2.501v-4.638c0-0.368 0.024-0.702 0.071-0.999-0.047-0.238-0.071-0.549-0.071-0.928v-1.429c0.096-0.81 0.142-1.262 0.142-1.357v-2.503c-0.142-0.452-0.214-0.808-0.214-1.070 0-1.823 0.071-3.679 0.214-5.572v-0.287c0-0.297 0.263-0.582 0.788-0.857 0.578-0.954 1.199-1.429 1.854-1.429zM196.239 18.943v0.14h0.071v-0.14h-0.071zM196.597 3.010c0.096 0.391 0.142 0.653 0.142 0.786h0.142c0-0.071-0.024-0.405-0.071-0.999 0.047-0.096 0.071-0.167 0.071-0.214h-0.071c-0.142 0.045-0.214 0.187-0.214 0.427zM196.811 10.509v0.287c0.012 0.096 0.059 0.142 0.142 0.142h0.071l-0.071-0.429h-0.142zM197.312 18.298v0.142l0.071 0.358h0.071v-0.501h-0.142zM197.312 19.441v0.214c0.012 0.096 0.059 0.142 0.142 0.142h0.071v-0.142l-0.071-0.358c-0.094 0.012-0.142 0.061-0.142 0.145zM197.599 7.652l-0.216 0.285 0.142 0.501c0.142 0 0.214-0.238 0.214-0.716l-0.14-0.069zM197.67 22.655c-0.047 0.263-0.071 0.454-0.071 0.572 0.047 0.096 0.071 0.167 0.071 0.214h0.142c0-0.191 0.024-0.287 0.071-0.287-0.096-0.238-0.142-0.405-0.142-0.501h-0.071zM197.67 24.301c0.047 0.405 0.071 0.712 0.071 0.926h0.071c0-0.083 0.047-0.275 0.142-0.568-0.096-0.155-0.142-0.275-0.142-0.358h-0.142zM197.741 25.514v0.643h0.071v-0.643h-0.071zM202.312 5.509h-0.643c-0.688 0.096-1.068 0.142-1.142 0.142h-0.142c-0.047 0-0.238-0.047-0.572-0.142l-0.358 0.071v0.358c0 0.891-0.096 1.561-0.287 1.998l-0.142 14.502h-0.071l0.071 0.142v0.572c0 0.047-0.024 0.071-0.071 0.071l0.071 0.142v1.288c0 0.047-0.024 0.071-0.071 0.071 0.155 0.521 0.442 0.784 0.859 0.784l0.287 0.287-0.071 0.358c0.142 0.454 0.287 1.146 0.429 2.072 0.203 0 0.417 0.358 0.643 1.073h0.071c0.425 0 0.639-0.142 0.639-0.429l-0.071-1.001c0.096-0.151 0.142-0.295 0.142-0.425-0.142-0.179-0.214-0.346-0.214-0.501l0.071-0.358c-0.047-0.238-0.142-0.358-0.283-0.358-0.155 0.096-0.297 0.142-0.429 0.142h-0.214c-0.071 0-0.142-0.071-0.214-0.214v-0.358c0.047-0.142 0.191-0.214 0.429-0.214h0.071c0.13 0 0.275 0.047 0.425 0.142 0.309-0.096 0.525-0.142 0.643-0.142h1.502c0.071 0 0.142 0.071 0.214 0.214l-0.071 0.501c0.096 0 0.167-0.238 0.214-0.716 0.33-0.309 0.497-0.596 0.497-0.855v-0.855c0-0.454 0.024-0.906 0.071-1.359l-0.071-0.358 0.142-3.14c-0.047-0.096-0.071-0.167-0.071-0.214l0.214-0.716-0.071-0.429c0.096-0.307 0.142-0.523 0.142-0.641-0.191-0.214-0.287-0.334-0.287-0.358v-0.358c0-0.045 0.024-0.071 0.071-0.071l-0.071-0.14v-0.287c0-0.155 0.024-0.275 0.071-0.358l-0.071-0.429v-0.641c0-0.047 0.024-0.071 0.071-0.071l-0.071-0.142v-0.716c0-1.465 0.024-3.439 0.071-5.93 0.096-0.332 0.142-0.619 0.142-0.857v-0.786c-0.203 0-0.417-0.071-0.639-0.214-0.191 0.096-0.334 0.142-0.429 0.142-0.716-0.108-1.072-0.297-1.072-0.572-0.212 0.189-0.33 0.285-0.354 0.285zM199.168 27.588v0.425l0.071 0.358h0.071v-0.784h-0.142zM199.383 28.801v0.142h0.071v-0.142h-0.071zM199.955 2.294c0 0.142 0.024 0.214 0.071 0.214l-0.071 0.358v0.999c0 0.238-0.024 0.596-0.071 1.070h0.142c0-0.12 0.071-0.499 0.214-1.144v-1.498c0-0.096-0.047-0.142-0.142-0.142-0.096 0.012-0.142 0.059-0.142 0.142zM201.099 4.367v0.214l0.071 0.356h0.214c-0.096-0.427-0.142-0.665-0.142-0.714-0.094 0.012-0.142 0.059-0.142 0.144zM201.669 2.151c0 0.047-0.024 0.071-0.071 0.071 0.179 0.667 0.37 0.999 0.572 0.999h0.071c-0.071-0.714-0.263-1.070-0.572-1.070zM202.312 3.364v0.071c0.096 0.155 0.142 0.275 0.142 0.358h0.071v-0.142c-0.071-0.191-0.142-0.287-0.214-0.287zM203.6 26.658l-0.071 0.358v0.214h0.142v-0.572h-0.071zM204.526 2.294c0 0.047-0.024 0.071-0.071 0.071 0.047 0.096 0.071 0.167 0.071 0.214 0 0.191 0.024 0.621 0.071 1.286h0.071c0.096 0 0.142-0.047 0.142-0.142-0.047-0.952-0.142-1.429-0.285-1.429zM205.027 25.227c0 0.383-0.191 0.906-0.572 1.573v0.501c0.012 0.096 0.059 0.142 0.142 0.142 0.383-1.013 0.572-1.73 0.572-2.147l-0.142-0.069zM205.314 28.3h0.142v-0.287c0.238-0.771 0.358-1.319 0.358-1.642v-0.214c-0.334 0.454-0.501 1.168-0.501 2.143zM205.385 19.297h0.142c0.047-0.248 0.071-0.391 0.071-0.427-0.142 0.049-0.214 0.191-0.214 0.427zM205.599 4.152c-0.096 0.155-0.142 0.297-0.142 0.429v0.285h0.142l0.142-0.499v-0.073c0.002-0.096-0.047-0.142-0.142-0.142zM206.099 16.226c-0.191 0.751-0.358 1.583-0.501 2.501 0.12 0 0.309-0.716 0.572-2.145v-0.356h-0.071zM205.957 5.652l-0.071 0.499c0.071 0.191 0.142 0.287 0.214 0.287v-0.641c0-0.096-0.047-0.144-0.142-0.144zM205.886 22.871v0.071h0.142v-0.214c-0.096 0.010-0.142 0.059-0.142 0.142zM206.099 10.509l-0.071 0.501v1.070h0.142v-1.142l0.071-0.358-0.142-0.071zM206.099 20.514l-0.071 0.714v0.071c0.012 0.096 0.059 0.142 0.142 0.142v-0.928h-0.071zM206.457 26.729v0.429c-0.287 0.784-0.429 1.284-0.429 1.498 0.047 0.191 0.071 0.358 0.071 0.501l0.142-0.071-0.071-0.142v-0.287c0.287-0.775 0.429-1.368 0.429-1.785v-0.142h-0.142zM206.457 18.727c0 0.13-0.12 0.558-0.358 1.286 0.047 0.096 0.071 0.167 0.071 0.214h0.071l0.287-1.429v-0.071h-0.071zM206.099 21.586v0.568h0.071v-0.568h-0.071zM206.744 17.655c0 0.142-0.047 0.309-0.142 0.501h0.071c0.096 0 0.142-0.047 0.142-0.142v-0.358h-0.071zM206.602 24.873v0.425h0.071l0.071-0.425h-0.142zM206.816 2.794v0.142h0.071v-0.142h-0.071zM206.816 17.011v0.429h0.071v-0.429h-0.071zM207.528 17.655c0 0.287-0.214 1.455-0.639 3.502v0.071c0.226-0.108 0.393-0.893 0.497-2.359 0.191-0.167 0.287-0.358 0.287-0.572v-0.501c-0.002-0.096-0.049-0.142-0.144-0.142zM206.958 28.443v0.142h0.214l0.138-0.501v-0.142c-0.057 0-0.173 0.167-0.352 0.501zM207.312 27.303v0.287h0.142l0.071-0.358v-0.071h-0.071c-0.094 0.010-0.142 0.059-0.142 0.142zM207.599 25.87c-0.096 0.155-0.142 0.297-0.142 0.429h0.071c0.071 0 0.142-0.071 0.214-0.214v-0.071c0-0.096-0.047-0.145-0.142-0.145zM207.599 12.225l-0.071 0.358v0.714h0.071l0.071-0.356v-0.716h-0.071zM207.599 22.012l-0.071 0.358v0.142c0.012 0.096 0.059 0.142 0.142 0.142v-0.643h-0.071zM207.813 8.653v0.285h0.142v-0.427c-0.094 0.012-0.142 0.059-0.142 0.142zM208.029 19.8c-0.096 0.405-0.167 0.999-0.214 1.787 0.096 0 0.191-0.572 0.287-1.716v-0.071h-0.073z"></path>
<path d="M211.26 1.366l1.217 0.142 0.287-0.142c0.633 0.047 1.129 0.12 1.498 0.214 0.12 0 0.309-0.024 0.572-0.071 0.596 0.047 0.906 0.071 0.93 0.071 0.879-0.047 1.618-0.071 2.214-0.071 0.155-0.096 0.297-0.142 0.429-0.142h0.287c0.083 0 0.297 0.071 0.643 0.214 0.187-0.071 0.283-0.142 0.283-0.214 0.309 0 1.313 0.096 3.002 0.287 0.191-0.096 0.454-0.142 0.788-0.142 0.275 0 0.893 0.57 1.856 1.714 0.155 0 0.297 0.238 0.429 0.716 0 0.167-0.024 0.383-0.071 0.643 0.096 1.060 0.142 1.821 0.142 2.285-0.047 1.524-0.071 2.405-0.071 2.644 0 0.155 0.024 0.275 0.071 0.358-0.047 0.405-0.071 0.737-0.071 0.999v5.572c0 0.309-0.545 0.906-1.642 1.787-0.287 0.429-0.549 0.643-0.788 0.643-0.454 0.047-0.954 0.071-1.498 0.071h-0.287c-0.655 0-1.109-0.024-1.359-0.071-0.454 0.047-0.95 0.071-1.498 0.071h-1.718c-0.568 0-0.855-0.096-0.855-0.287l0.071-0.643c-0.191-0.714-0.309-1.691-0.358-2.929-0.142-0.191-0.238-0.287-0.287-0.287l-0.071 0.142c0.191 0.537 0.287 0.871 0.287 1.001v2.428l0.287 0.429c-0.142 0.499-0.214 0.808-0.214 0.928v0.857c0 0.657 0.024 1.512 0.071 2.572 0 0.047-0.024 0.071-0.071 0.071l0.071 0.358v4.428c0 0.263 0.142 0.81 0.429 1.646 0 0.071-0.096 0.167-0.287 0.287l-0.643-0.071-0.358 0.071c-0.263-0.047-0.476-0.071-0.643-0.071l-0.358 0.071-0.287-0.071c-0.024 0-0.33 0.024-0.926 0.071-0.596-0.047-0.93-0.071-1.001-0.071-0.263 0.047-0.476 0.071-0.643 0.071l-0.214-0.287c0.383-0.942 0.572-1.539 0.572-1.789v-8.429c0-0.261 0.024-0.594 0.071-0.999-0.047-0.047-0.071-0.238-0.071-0.572 0-0.236 0.024-0.356 0.071-0.356-0.047-0.476-0.071-0.834-0.071-1.073v-3.002c0-2.082-0.024-4.75-0.071-8.002 0.037-0.476 0.083-0.716 0.142-0.716l-0.071-0.499v-1.429c0-0.275-0.142-0.608-0.429-1.001v-0.214c-0.004-0.071 0.067-0.142 0.212-0.214zM213.192 8.867v0.356c0.012 0.096 0.059 0.142 0.142 0.142l0.071-0.142v-0.142l-0.071-0.356c-0.096 0.012-0.142 0.059-0.142 0.142zM213.263 7.080v0.071c0.012 0.096 0.059 0.142 0.142 0.142v-0.356c-0.096 0.012-0.142 0.059-0.142 0.142zM213.263 27.517c0.096 0.238 0.142 0.401 0.142 0.497h0.071v-0.214c-0.047-0.163-0.071-0.258-0.071-0.283h-0.142zM216.617 5.652c-0.413-0.047-0.676-0.071-0.784-0.071l-0.071 0.499v0.214c0.096 0.12 0.142 0.214 0.142 0.287-0.096 0.297-0.142 0.466-0.142 0.501l0.071 0.427c0 0.179-0.071 0.847-0.214 2.001 0 0.108 0.024 0.204 0.071 0.287-0.096 0.179-0.142 0.37-0.142 0.572 0.096 0.808 0.142 1.311 0.142 1.498-0.047 0.334-0.071 0.525-0.071 0.572s0.024 0.071 0.071 0.071l-0.142 1.644c0.12 0 0.525 0.167 1.213 0.501h3.502c0.417 0 0.775-0.238 1.072-0.716v-3.069c0.142-0.619 0.214-0.952 0.214-0.999 0-0.549-0.024-1.048-0.071-1.5 0.047-0.322 0.071-0.584 0.071-0.788-0.096-1.191-0.238-1.785-0.429-1.785-0.203-0.191-0.393-0.287-0.572-0.287h-1.142c-0.063 0-0.322 0.047-0.788 0.142h-0.142c-0.692-0.096-1.050-0.142-1.072-0.142-0.442 0.096-0.704 0.142-0.788 0.142zM219.193 2.294v2.501c0.012 0.096 0.059 0.142 0.142 0.142l0.071-0.142v-0.427c0-0.204 0.020-0.466 0.067-0.788-0.096-0.191-0.138-0.452-0.138-0.786v-0.643c-0.096 0.012-0.142 0.059-0.142 0.142zM219.905 17.726v0.287h0.142v-0.287h-0.142zM222.266 3.938v0.142h0.067c0.238-0.8 0.358-1.416 0.358-1.858l-0.142-0.071h-0.071c-0.144 0-0.212 0.596-0.212 1.787zM222.266 14.083v0.358h0.138v-0.216c0-0.096-0.047-0.142-0.138-0.142zM222.976 12.654c0.012 0.142 0.203 0.429 0.572 0.857v0.142c-0.096 0.155-0.142 0.297-0.142 0.429v1.144c0 0.071 0.071 0.142 0.214 0.214 0.083 0 0.25-0.309 0.501-0.928 0.287-0.12 0.429-0.309 0.429-0.572v-0.645c0-0.128-0.238-0.224-0.716-0.285-0.214-0.334-0.454-0.501-0.716-0.501-0.092 0.012-0.14 0.061-0.14 0.145zM223.479 17.298v0.142c0 0.108 0.12 0.179 0.358 0.212 0.191-0.212 0.287-0.381 0.287-0.499-0.047 0-0.071-0.024-0.071-0.071-0.385 0.049-0.574 0.12-0.574 0.216zM223.621 2.794v0.287c0.096 0 0.142-0.047 0.142-0.142s-0.047-0.144-0.142-0.144zM224.336 10.939l-0.071 0.142v0.071c0 0.37 0.096 0.584 0.287 0.643 0-0.096 0.024-0.142 0.071-0.142-0.12-0.476-0.214-0.714-0.287-0.714z"></path>
<path d="M226.979 1.366c0.142 0 0.334 0.047 0.572 0.142 0.334-0.096 0.596-0.142 0.788-0.142l0.926 0.142c0.309-0.096 0.525-0.142 0.643-0.142h1.359c0.155 0 0.488 0.047 0.997 0.142 0.142 0 0.334-0.047 0.572-0.142 0.238 0 0.358 0.024 0.358 0.071 1.026-0.047 1.785-0.071 2.285-0.071h4.646c0.429 0 0.639 0.499 0.639 1.5 0.238 1.62 0.358 2.668 0.358 3.144l-0.287 0.14c-0.366-0.045-0.747-0.212-1.142-0.499l-0.142 0.071h-0.572c-0.167 0-0.383-0.024-0.643-0.071-0.096 0.047-0.167 0.071-0.214 0.071-0.142 0-0.214-0.024-0.214-0.071-0.472 0.047-0.83 0.071-1.068 0.071h-2.285c-0.059 0-0.322-0.047-0.788-0.142h-0.501c-0.096 0-0.334 0.047-0.716 0.142-0.238-0.083-0.358-0.204-0.358-0.358 0.096-0.798 0.263-1.561 0.501-2.285-0.096-0.454-0.142-0.81-0.142-1.073v-0.071c-0.334-0.047-0.525-0.071-0.568-0.071l-0.071 0.142v0.93l-0.142 1.286c0.096 0.631 0.187 1.011 0.283 1.144 0 0.059-0.258 0.442-0.784 1.144v0.142c0 0.334 0.047 0.596 0.142 0.788-0.096 0.189-0.142 0.452-0.142 0.786v1.5c0 0.191 0.047 0.501 0.142 0.928-0.096 0.442-0.142 0.704-0.142 0.788 0 0.57 0.501 0.952 1.498 1.144 0.083 0 0.275-0.047 0.572-0.142l0.429 0.071c1.152 0 2.202-0.191 3.144-0.572h0.287c0.096 0.012 0.142 0.059 0.142 0.142v0.358c0 0.167 0.024 0.383 0.071 0.643-0.096 0.191-0.142 0.356-0.142 0.499 0.047 0.142 0.096 0.214 0.142 0.214l-0.071 0.501v2.285l0.071 0.501-0.214 0.142h-0.142c-0.967-0.383-1.514-0.572-1.646-0.572-0.334 0.047-0.525 0.071-0.568 0.071-0.083 0-0.417-0.071-1.001-0.214-0.179 0.096-0.37 0.142-0.572 0.142-0.047 0-0.12-0.024-0.214-0.071-0.191 0.047-0.358 0.071-0.501 0.071l-0.287-0.071c-0.155 0.096-0.297 0.142-0.425 0.142h-0.142l-0.214-0.142c0.059-1.844 0.155-2.99 0.287-3.429-0.037-0.287-0.179-0.429-0.429-0.429-0.096 0.155-0.142 0.275-0.142 0.358-0.047 1.465-0.071 2.418-0.071 2.857-0.096 0.309-0.142 0.523-0.142 0.641v0.071c0.37 0 0.584 0.096 0.643 0.287l-0.429 0.572c0.047 2.285 0.071 4.050 0.071 5.285v1.646c0 0.214 0.191 0.617 0.572 1.213l0.497-0.071h0.071c0.167 0 0.383 0.024 0.643 0.071l0.501-0.142c0.8 0.047 1.414 0.071 1.856 0.071h1.789c0.203 0 0.393 0.024 0.572 0.071 0.187-0.047 0.379-0.071 0.568-0.071h1.217c0.179 0 0.584-0.142 1.213-0.429h0.142c0.071 0 0.142 0.071 0.214 0.214-0.263 2.953-0.497 4.432-0.712 4.432-0.083 0.047-0.179 0.071-0.287 0.071h-2.218c-2.035 0-3.604 0.024-4.713 0.071-0.942-0.047-2.418-0.071-4.428-0.071h-0.859c-0.238 0-0.358-0.047-0.358-0.142-0.238 0.142-0.429 0.214-0.572 0.214h-0.214c-0.108 0-0.179-0.12-0.214-0.358 0.287-0.727 0.429-1.18 0.429-1.359 0-0.7-0.024-1.176-0.071-1.427 0.047-0.989 0.071-1.897 0.071-2.715v-1.931c0-0.7-0.024-1.176-0.071-1.429 0.047-0.499 0.071-1.048 0.071-1.644v-5.141c0-0.167-0.024-0.383-0.071-0.643 0.047-0.094 0.071-0.165 0.071-0.212l-0.071-0.859 0.071-0.999c0-0.37-0.024-0.704-0.071-0.999 0.047-1.583 0.071-2.965 0.071-4.146v-2.648l-0.071-0.356h0.071l-0.429-1.359v-0.067c0.094-0.191 0.236-0.287 0.427-0.287zM227.551 2.222v0.287l0.501 2.428h0.071c0.047-0.167 0.071-0.261 0.071-0.287 0-0.224-0.142-0.916-0.429-2.072 0-0.238-0.047-0.358-0.142-0.358h-0.071zM227.696 8.010l-0.142 0.287c0 1.119 0.142 1.907 0.429 2.357l-0.214 1.215 0.429 2.074v0.643c0.037 0.285 0.108 0.427 0.214 0.427 0-0.236 0.024-0.356 0.071-0.356-0.083-0.309-0.179-1.097-0.287-2.359v-1.929c0-0.12-0.12-0.596-0.358-1.431l0.071-0.356c0-0.358-0.071-0.549-0.214-0.572zM227.838 27.016c0 0.142-0.024 0.214-0.071 0.214 0.047 0.096 0.071 0.167 0.071 0.214h0.071v-0.429h-0.071zM228.125 5.367c0 0.024-0.024 0.12-0.071 0.287 0 0.214 0.191 1.024 0.572 2.428 0.287 1.416 0.429 2.585 0.429 3.502h-0.071l0.071 0.142v0.14c0 0.047-0.029 0.071-0.071 0.071 0.071 0.191 0.138 0.287 0.212 0.287 0-0.047 0.024-0.071 0.071-0.071 0-0.047-0.024-0.12-0.071-0.214 0.047-1.048 0.12-1.809 0.214-2.285-0.334 0-0.617-1.166-0.855-3.502-0.047 0-0.167-0.261-0.358-0.786h-0.071zM229.122 1.793l-0.067 0.142c0.138 0.643 0.212 1.097 0.212 1.357v0.788c0.012 0.096 0.059 0.142 0.142 0.142v-0.859c0-0.142 0.071-0.427 0.214-0.857-0.059-0.476-0.226-0.714-0.501-0.714zM229.409 25.799l-0.071 0.358v1.001h0.071c0-0.621 0.096-1.050 0.287-1.288l-0.142-0.071h-0.144zM229.981 27.588v0.071c0 0.258 0.024 0.592 0.071 0.997-0.047 0.083-0.071 0.179-0.071 0.287h0.142v-0.142c0-0.155 0.024-0.275 0.071-0.358-0.047-0.572-0.118-0.855-0.214-0.855zM230.195 13.44v0.501c0.096 0 0.142-0.047 0.142-0.142l-0.071-0.358h-0.071zM230.482 2.151v0.859c0.287 0.297 0.429 0.582 0.429 0.857 0.108 0 0.179-0.167 0.214-0.501l-0.071-0.857h0.071c-0.047-0.383-0.167-0.572-0.358-0.572-0.189 0.069-0.285 0.14-0.285 0.214zM231.912 26.228c0 0.024-0.047 0.383-0.142 1.073v0.429h0.142c0.187-0.716 0.283-1.121 0.283-1.217v-0.142c0-0.096-0.047-0.142-0.142-0.142h-0.14zM232.625 13.295c-0.191 0.098-0.287 0.883-0.287 2.359-0.096 0.012-0.142 0.059-0.142 0.142v0.214h0.142c0.238-0.621 0.358-0.954 0.358-1.001s-0.047-0.285-0.142-0.714c0.142-0.25 0.214-0.488 0.214-0.716v-0.142c0-0.090-0.047-0.14-0.142-0.14zM233.339 2.151c0 0.834-0.12 1.787-0.358 2.857l0.142 0.214c0.572-0.047 0.859-0.12 0.859-0.214 0.047-1.571 0.12-2.357 0.214-2.357-0.096-0.358-0.142-0.596-0.142-0.716h-0.572c-0.094 0-0.142 0.071-0.142 0.216zM233.125 28.084c0.047 0.096 0.071 0.167 0.071 0.214h0.142c0.108-0.047 0.297-0.383 0.572-0.997 0.238-0.059 0.358-0.13 0.358-0.214v-0.358c0-0.071-0.071-0.142-0.214-0.214-0.226 0-0.442 0.383-0.643 1.146-0.037-0.002-0.132 0.138-0.287 0.423zM233.339 15.225c0.13 0 0.297-0.263 0.501-0.786l-0.071-0.142v-0.501c0-0.12 0.047-0.334 0.142-0.641l-0.142-0.071h-0.071c-0.12 0-0.238 0.712-0.358 2.141zM233.984 15.369l-0.071 0.358v0.071c0.012 0.096 0.059 0.142 0.142 0.142 0-0.047 0.024-0.238 0.071-0.572h-0.142z"></path>
<path d="M243.289 1.366l0.358 0.071h2.357c0.226 0 0.608 0.047 1.142 0.142l0.716-0.142c0.083 0 0.275 0.047 0.572 0.142l1.927-0.142c0.083 0.047 0.297 0.096 0.643 0.142 0.083 0 0.275-0.047 0.572-0.142 0.037 0 0.179 0.024 0.429 0.071l0.855-0.071c0.309 0.096 0.525 0.142 0.643 0.142h0.142c0.893-0.142 1.372-0.214 1.431-0.214 0.309 0 0.643 0.238 0.997 0.714 0.906 0.476 1.359 1.001 1.359 1.571 0.047 0 0.071 0.024 0.071 0.071s-0.024 0.12-0.071 0.214c0.047 0.621 0.071 1.119 0.071 1.5v0.071c0 0.167-0.024 0.383-0.071 0.641 0.096 0.297 0.142 0.488 0.142 0.572-0.096 0.334-0.142 0.621-0.142 0.857 0.191 0.466 0.287 0.775 0.287 0.93v1.215l-0.287 1.787c0 0.275 0.024 0.653 0.071 1.144-0.096 0.476-0.142 0.904-0.142 1.286 0.191 0.442 0.287 0.704 0.287 0.788v0.857c-0.13 0.881-0.25 1.382-0.358 1.5-0.096 0-0.525 0.429-1.288 1.286-0.283 0.13-0.425 0.37-0.425 0.714 0.092 0.739 0.258 1.335 0.497 1.787l0.716 2.859c0 0.739 0.287 1.76 0.859 3.073 0 1.068 0.287 1.832 0.859 2.285 0.138 0 0.258 0.214 0.354 0.643-0.155 0.142-0.275 0.214-0.354 0.214-0.513-0.096-0.847-0.142-1.001-0.142h-0.358c-0.405 0-0.906 0.047-1.498 0.142-0.417-0.047-0.68-0.071-0.788-0.071-0.037 0-0.179 0.024-0.429 0.071-0.191-0.047-0.358-0.071-0.501-0.071l-0.501 0.071c-0.238-0.083-0.358-0.203-0.358-0.358 0.142-0.238 0.214-0.429 0.214-0.572v-0.142c-0.191-1.093-0.476-2.285-0.855-3.574 0-0.203-0.12-0.676-0.358-1.427 0-0.155-0.12-0.608-0.358-1.359-0.047-0.429-0.287-1.284-0.716-2.57 0-0.442-0.405-0.822-1.213-1.144l-0.358 0.071-1.001-0.071c0 0.059-0.238 0.32-0.716 0.786v2.145c0 1.034-0.024 2.44-0.071 4.213 0.047 0.263 0.071 0.476 0.071 0.643l-0.071 0.358c0.047 0.37 0.071 0.775 0.071 1.213v0.071c0 0.083 0.167 0.537 0.501 1.359v0.071c0 0.071-0.071 0.142-0.214 0.214h-3.073c-0.275 0-0.655 0.024-1.142 0.071-0.096-0.047-0.167-0.071-0.214-0.071-0.083 0.047-0.203 0.071-0.358 0.071-0.238-0.142-0.358-0.287-0.358-0.429 0.429-0.68 0.643-1.205 0.643-1.573v-1.498c0-0.775-0.024-1.347-0.071-1.714 0.047-0.37 0.071-0.942 0.071-1.718v-1.213c0-0.108-0.024-0.203-0.071-0.287 0.047-0.083 0.071-0.179 0.071-0.287v-0.142c0-0.275-0.024-0.44-0.071-0.503 0.047-0.261 0.071-0.474 0.071-0.641v-0.641c0-0.201-0.024-0.391-0.071-0.57 0-0.047 0.024-0.12 0.071-0.214-0.047-0.761-0.071-1.215-0.071-1.357 0-0.12 0.024-0.739 0.071-1.858l-0.071-0.358c0.047-0.081 0.071-0.179 0.071-0.285l-0.071-0.358 0.071-0.142c-0.047-0.096-0.071-0.167-0.071-0.214l0.071-0.429c0-0.142-0.024-0.307-0.071-0.499 0.047-0.751 0.071-1.298 0.071-1.644 0-0.405-0.024-1.119-0.071-2.145 0.037-0.381 0.083-0.57 0.142-0.57l-0.071-0.358v-0.999c0-0.263-0.024-0.596-0.071-1.001 0.047-0.096 0.071-0.167 0.071-0.214 0-0.045-0.024-0.069-0.071-0.069l0.071-0.716v-2.715c0-0.096-0.142-0.383-0.429-0.859v-0.069l0.222-0.287zM245.358 13.367v0.142c0 0.059-0.047 0.322-0.142 0.788 0.024 0.476 0.096 0.714 0.214 0.714v-1.144l0.142-0.214v-0.142c0-0.096-0.047-0.142-0.142-0.142h-0.071zM245.358 21.015c0 0.108-0.024 0.203-0.071 0.287 0.047 0.476 0.12 0.712 0.214 0.712h0.071v-0.067c0-0.167 0.024-0.383 0.071-0.643-0.047-0.083-0.071-0.179-0.071-0.287h-0.214zM246.217 17.585v0.212h0.142v-0.356c-0.094 0.012-0.142 0.061-0.142 0.145zM246.362 6.223c0 0.167-0.024 0.383-0.071 0.643 0.047 0.083 0.071 0.179 0.071 0.287 0.059 0 0.179-0.12 0.358-0.358-0.002-0.263-0.12-0.454-0.358-0.572zM246.433 11.797l-0.142 0.857c0.047 0.25 0.071 0.488 0.071 0.714v0.287h0.142l0.142-0.358-0.214-0.356v-0.503c0-0.12 0.047-0.334 0.142-0.641h-0.142zM246.291 19.513l0.142 0.716h0.071v-0.574c0-0.096-0.047-0.142-0.142-0.142h-0.071zM246.362 2.58l0.071 0.142v0.786h0.142l0.071-0.358v-0.069c0-0.047-0.047-0.238-0.142-0.572l-0.142 0.071zM246.433 15.87c0.059 0 0.179-0.12 0.358-0.358l-0.142-0.071c-0.098 0-0.169 0.142-0.216 0.429zM246.433 16.083v0.212h0.071v-0.212h-0.071zM246.647 18.298c0 0.191-0.024 0.287-0.071 0.287 0.047 0.071 0.071 0.214 0.071 0.429h0.142l0.071-0.643-0.142-0.071h-0.071zM246.718 14.512v0.142c0.012 0.096 0.059 0.14 0.142 0.14 0.096-0.153 0.142-0.273 0.142-0.356l-0.142-0.071c-0.094 0.012-0.142 0.061-0.142 0.145zM246.718 20.583v0.071c0.142 0.214 0.214 0.358 0.214 0.429h0.138v-0.358c0-0.096-0.047-0.142-0.138-0.142h-0.214zM246.718 24.731v0.354h0.071v-0.354h-0.071zM246.791 17.227l0.425 0.714v-0.356c0-0.25-0.071-0.393-0.212-0.429-0.1 0.047-0.167 0.071-0.214 0.071zM246.862 21.873v0.071h0.071c0.092 0 0.138-0.047 0.138-0.142v-0.071h-0.067c-0.1 0.010-0.142 0.059-0.142 0.142zM247.43 15.225c0 0.238-0.024 0.358-0.071 0.358l0.071 0.142v0.071c0 0.226-0.12 0.417-0.358 0.57 0.142 0.322 0.214 0.513 0.214 0.572h0.142l-0.071-0.716c0.059 0 0.179-0.118 0.358-0.356l-0.142-0.643h-0.142zM247.501 2.365c0 0.047-0.024 0.12-0.071 0.214 0.047 0.287 0.12 0.429 0.214 0.429 0.142-0.047 0.214-0.191 0.214-0.429v-0.071c0-0.096-0.047-0.142-0.142-0.142h-0.214zM247.501 18.727c0.142-0.191 0.287-0.287 0.429-0.287v-0.356h-0.071c-0.238 0.201-0.358 0.417-0.358 0.643zM251.146 5.652h-1.284c-0.275 0-0.655-0.024-1.146-0.071-0.238 0-0.596 0.263-1.072 0.786 0.047 0.476 0.071 0.834 0.071 1.072v1.286c0 0.309-0.024 0.619-0.071 0.928 0.047 0.167 0.071 0.429 0.071 0.786 0 0.275-0.024 0.442-0.071 0.501 0.047 0.322 0.071 0.584 0.071 0.788v2.072c0 0.047-0.024 0.071-0.071 0.071 0.203 0.37 0.417 0.633 0.643 0.788h4.504c0.379-0.37 0.568-0.871 0.568-1.5v-2.788c0-0.608 0.024-1.276 0.071-2.001-0.047-0.191-0.071-0.383-0.071-0.572 0.047-0.452 0.071-0.904 0.071-1.357 0-0.358-0.429-0.665-1.284-0.928-0.354 0.094-0.688 0.14-0.999 0.14zM248.002 15.87l0.214 0.356c-0.047 0.263-0.071 0.454-0.071 0.572 0.263 0.405 0.429 0.81 0.501 1.215 0.155 0.096 0.275 0.142 0.358 0.142 0.047-0.096 0.071-0.167 0.071-0.214-0.096-0.32-0.334-0.891-0.716-1.716 0.047-0.081 0.071-0.177 0.071-0.285 0-0.096-0.047-0.142-0.142-0.142h-0.142l-0.142 0.071zM248.147 4.937l0.142 0.071c0.083 0 0.25-0.214 0.501-0.641 0.096-0.047 0.167-0.071 0.214-0.071 0.191 0.214 0.287 0.383 0.287 0.499h0.142l0.071-0.857c-0.334 0-0.501-0.263-0.501-0.788v-0.285c0-0.12 0.047-0.334 0.142-0.643h-0.071c-0.334 0-0.501 0.358-0.501 1.070-0.189 0.299-0.334 0.847-0.427 1.644zM249.506 2.151v0.071l0.214 0.429c-0.047 0.405-0.071 0.737-0.071 0.999v0.142c0.142-0.047 0.214-0.191 0.214-0.429 0-0.071-0.029-0.403-0.071-0.999h0.071c-0.047-0.096-0.071-0.167-0.071-0.214h-0.285zM250.646 3.865c-0.287 0.633-0.429 0.965-0.429 0.999l0.142 0.071h0.287c0.096 0 0.142-0.047 0.142-0.142v-0.784c0-0.096-0.047-0.144-0.142-0.144zM250.717 2.58v0.429h0.071l0.071-0.501v-0.073c-0.094 0.012-0.142 0.061-0.142 0.144zM251.934 15.44c0 0.047 0.024 0.071 0.071 0.071l-0.071 0.358c0.047 0.096 0.071 0.167 0.071 0.214h0.287c0.096-0.024 0.191-0.142 0.287-0.358-0.047 0-0.191-0.167-0.429-0.501-0.037 0-0.108 0.073-0.216 0.216zM252.005 20.227c0.142 0.203 0.214 0.535 0.214 1.001l0.142-0.071-0.071-0.358c0.047-0.344 0.071-0.535 0.071-0.57l-0.142-0.071h-0.071l-0.142 0.069zM252.148 2.222v1.716l0.071 0.857h0.071c0-0.224 0.024-0.464 0.071-0.714-0.047-0.584-0.071-1.154-0.071-1.716v-0.142h-0.142zM252.506 16.655v0.214l0.497 1.858h0.142l0.071-0.358c-0.238-0.454-0.358-0.881-0.358-1.286v-0.427c0-0.096-0.047-0.142-0.138-0.142h-0.071c-0.094 0.010-0.142 0.059-0.142 0.142zM252.721 15.727c0.008 0.096 0.055 0.142 0.138 0.142l0.071-0.287h-0.071c-0.096 0.012-0.138 0.061-0.138 0.145zM253.074 2.937c0.108 1.144 0.203 1.976 0.287 2.501h0.071v-0.716c0.191-0.975 0.287-1.5 0.287-1.571v-0.57l0.071-0.358c-0.096-0.047-0.167-0.071-0.214-0.071-0.334 0.13-0.503 0.393-0.503 0.786zM254.006 16.155l-0.071 0.499c0 0.238 0.024 0.596 0.071 1.070h0.071l0.071-0.857-0.071-0.714h-0.071zM254.006 19.083c0 0.026-0.024 0.12-0.071 0.287 0.047 0.096 0.071 0.167 0.071 0.214h0.071c0-0.047 0.024-0.12 0.071-0.214-0.047-0.083-0.071-0.179-0.071-0.287h-0.071zM254.577 27.8v0.071c0.142 0.692 0.214 1.121 0.214 1.288h0.142v-0.071c0-0.859-0.096-1.288-0.287-1.288h-0.069zM254.72 6.724v0.287l0.071 0.358h0.071l0.071-0.358v-0.503c-0.071 0-0.142 0.071-0.214 0.216zM254.72 13.654v0.071h0.071c0.096-0.309 0.142-0.523 0.142-0.641-0.106 0-0.177 0.189-0.214 0.57zM255.507 2.436c0.047 0.096 0.071 0.167 0.071 0.214 0 0.535-0.142 1.321-0.429 2.357v0.214c0.25 0 0.509-0.714 0.784-2.143l-0.212-0.716h-0.071l-0.142 0.075zM255.221 25.298c0.142 0.967 0.214 1.539 0.214 1.718v0.501c0.012 0.096 0.059 0.142 0.142 0.142 0.079-0.047 0.175-0.071 0.283-0.071l0.071 0.142c0 0.116-0.024 0.305-0.071 0.568 0 0.716 0.191 1.073 0.572 1.073 0.68-0.096 1.156-0.142 1.431-0.142-0.226-0.476-0.37-0.716-0.429-0.716-0.155 0-0.322 0.071-0.501 0.214h-0.287c-0.096 0-0.142-0.047-0.142-0.142l0.071-0.358c0-0.462-0.263-0.914-0.788-1.355 0-0.405-0.167-0.93-0.497-1.573h-0.069zM255.436 16.727c0 0.071 0.024 0.358 0.071 0.859h0.142c0.071 0 0.138-0.071 0.212-0.214v-0.073l-0.212-0.287v-0.214c0-0.203 0.092-0.511 0.283-0.928l-0.142-0.071c-0.153 0-0.271 0.309-0.354 0.928zM255.579 22.154v0.071c0.012 0.096 0.059 0.142 0.142 0.142v-0.214h-0.142zM255.788 10.796l0.071 0.287h0.358c0.142 0 0.214-0.454 0.214-1.357 0-0.037-0.024-0.179-0.071-0.429h-0.071c-0.096 0-0.167 0.287-0.214 0.859-0.191 0.214-0.287 0.425-0.287 0.641zM255.933 12.225v2.216l0.071 0.499h0.142v-0.285c0-0.096-0.047-0.334-0.142-0.716 0-0.071 0.071-0.358 0.214-0.857v-0.999h-0.142c-0.096 0.010-0.142 0.059-0.142 0.142zM255.933 23.442v0.142c0 0.346 0.071 0.537 0.214 0.572h0.071v-0.214c0-0.263-0.094-0.429-0.285-0.501zM256.863 4.721c0 0.191-0.047 0.287-0.142 0.287l0.071 0.501v0.287l-0.788 0.641v0.071c0 0.071 0.071 0.142 0.214 0.214h0.501l0.287-0.214-0.071-0.499c0.047-0.596 0.071-0.954 0.071-1.072-0.047-0.096-0.071-0.167-0.071-0.214h-0.071zM256.362 25.156c0.071 0.191 0.142 0.287 0.214 0.287v-0.501c-0.035-0.002-0.108 0.071-0.214 0.214zM256.934 4.223v0.287h0.071c0.047-0.167 0.071-0.263 0.071-0.287h-0.142z"></path>
</svg>
