<!-- Generated by IcoMoon.io -->
<svg version="1.1" xmlns="http://www.w3.org/2000/svg" width="500" height="500" viewBox="0 0 32 32">
<title>avatar</title>
<path d="M0.059 32c-0.176-1.776 0.023-3.432 0.833-4.979 0.6-1.145 1.498-1.966 2.719-2.436 1.298-0.501 2.637-0.932 3.857-1.585 1.234-0.66 2.342-1.554 3.584-2.4 1.469 2.35 3.017 4.824 4.626 7.398 1.623-2.565 3.188-5.037 4.815-7.606 1.855 2.285 4.465 3.119 7.017 4.082 2.677 1.010 3.57 3.287 3.953 5.862 0.077 0.521 0.012 1.062 0.012 1.664-10.484-0.001-20.908-0.001-31.415-0.001z"></path>
<path d="M15.891 0c3.452 0.112 5.58 2.103 6.858 5.127 0.593 1.403 1.016 2.899 1.323 4.392 0.129 0.623-0.186 1.369-0.409 2.022-0.256 0.748-0.648 1.449-0.954 2.182-1.079 2.591-2.543 4.865-5.336 5.845-2.533 0.888-4.647-0.094-6.289-1.968-0.952-1.088-1.584-2.462-2.318-3.732-0.395-0.684-0.712-1.415-1.048-2.132-0.426-0.907-0.642-1.81-0.233-2.821 0.296-0.732 0.406-1.538 0.618-2.305 0.921-3.317 2.766-5.742 6.329-6.471 0.46-0.093 0.94-0.092 1.459-0.139zM14.927 5.313c-0.087 0.159-0.161 0.299-0.256 0.474-0.647-0.438-1.252-0.847-1.857-1.256-0.030 0.042-0.060 0.084-0.090 0.125 0.214 0.329 0.428 0.657 0.753 1.159-1.101-0.366-2.007-0.666-2.954-0.981-0.048 0.414-0.082 0.703-0.114 0.973-0.281 0.096-0.734 0.189-0.73 0.259 0.045 0.891-0.683 1.538-0.81 2.258-0.626 3.561 0.658 6.56 3.127 9.117 0.437 0.453 0.859 0.511 1.316 0.138 0.64-0.523 1.317-1.026 1.844-1.651 0.464-0.552 0.657-0.423 1.070 0.028 0.555 0.606 1.207 1.128 1.849 1.645 0.428 0.343 0.81 0.258 1.237-0.151 1.777-1.705 2.698-3.862 3.348-6.165 0.083-0.295 0.105-0.698-0.032-0.951-0.811-1.51-1.677-2.99-2.53-4.477-0.034-0.057-0.134-0.077-0.248-0.138 0.037 0.29 0.070 0.533 0.111 0.851-1.849 0.192-3.419-0.444-5.033-1.257z"></path>
</svg>
