<!-- Generated by IcoMoon.io -->
<svg version="1.1" xmlns="http://www.w3.org/2000/svg" width="34" height="32" viewBox="0 0 34 32">
<title>clouds</title>
<path d="M6.966 19.749c-0.148-0.728-0.282-1.454-0.452-2.173-0.041-0.172-0.185-0.326-0.301-0.473-1.704-2.149-2.303-4.569-1.599-7.224 1.572-5.933 8.708-8.066 13.297-4.004 0.665 0.588 1.215 1.277 1.637 2.059 0.104 0.192 0.211 0.267 0.444 0.249 2.733-0.202 4.939 0.807 6.639 2.937 0.159 0.198 0.308 0.268 0.557 0.279 3.188 0.146 6.606 2.764 6.432 6.934-0.126 3.019-2.537 5.602-5.533 6.001-0.334 0.045-0.67 0.066-1.044 0.102 0.023 0.195 0.049 0.392 0.069 0.588 0.291 2.956-1.752 5.943-4.619 6.693-0.647 0.171-1.332 0.265-2 0.269-3.978 0.024-7.957 0.017-11.935 0.010-2.203-0.006-4.126-0.765-5.781-2.214-0.627-0.549-1.313-1.024-1.805-1.727-2.326-3.32-0.243-7.995 3.782-8.483 0.777-0.095 1.526 0.001 2.212 0.177zM14.477 30.904c0 0.003 0 0.006 0 0.008 2.068 0 4.136 0.003 6.204-0.003 0.314-0.001 0.634-0.026 0.942-0.084 2.803-0.52 4.686-3.157 4.345-6.072-0.314-2.683-2.821-4.802-5.561-4.668-0.456 0.023-0.765-0.089-0.982-0.479-0.044-0.079-0.103-0.149-0.158-0.219-1.282-1.639-2.965-2.549-5.043-2.556-2.782-0.009-4.787 1.313-6.031 3.795-0.258 0.513-0.459 0.572-0.998 0.385-0.497-0.172-1.017-0.363-1.531-0.379-1.833-0.057-3.255 0.717-4.094 2.361-0.811 1.592-0.659 3.173 0.432 4.584 0.447 0.579 1.069 1.029 1.634 1.511 1.306 1.111 2.82 1.763 4.536 1.804 2.1 0.050 4.202 0.013 6.304 0.013zM7.901 18.872c0.423-0.442 0.799-0.898 1.238-1.283 3.24-2.835 8.23-2.37 10.881 1.012 0.211 0.271 0.416 0.426 0.779 0.397 0.299-0.023 0.61 0.027 0.908 0.086 2.356 0.47 4.016 1.801 4.962 4.019 0.040 0.094 0.183 0.202 0.279 0.201 0.405-0.003 0.818-0.003 1.213-0.080 2.696-0.519 4.612-3.040 4.374-5.657-0.282-3.12-3.138-5.123-5.473-5.074-0.589 0.012-0.975-0.141-1.241-0.642-0.021-0.040-0.050-0.075-0.079-0.11-1.612-1.95-3.668-2.828-6.178-2.417-2.235 0.366-3.845 1.636-4.846 3.672-0.279 0.567-0.476 0.642-1.044 0.395-0.902-0.394-1.826-0.457-2.783-0.244-2.472 0.55-3.973 3.41-2.991 5.725zM18.562 8.425c-1.197-2.237-3.824-3.71-6.43-3.532-2.876 0.197-4.972 1.642-6.128 4.28-1.021 2.329-0.707 4.594 0.684 6.791 0.484-1.578 1.394-2.726 2.809-3.443 1.41-0.714 2.873-0.764 4.361-0.246 1.046-1.943 2.609-3.208 4.705-3.851z"></path>
<path d="M8.47 4c-0.133 0.149-0.245 0.384-0.405 0.425-0.179 0.046-0.506-0.017-0.591-0.147-0.43-0.658-0.813-1.347-1.188-2.037-0.131-0.24-0.018-0.468 0.197-0.617 0.218-0.151 0.511-0.166 0.644 0.044 0.453 0.708 0.855 1.449 1.274 2.178 0.015 0.026 0.007 0.066 0.009 0.1 0.020 0.018 0.040 0.036 0.060 0.054z"></path>
<path d="M2.176 12.464c-0.349 0.001-0.698 0.005-1.047-0.001-0.333-0.006-0.558-0.202-0.581-0.493-0.021-0.278 0.191-0.561 0.504-0.571 0.741-0.023 1.485-0.024 2.226-0.001 0.323 0.010 0.528 0.277 0.512 0.56-0.016 0.298-0.229 0.495-0.568 0.504-0.349 0.008-0.698 0.001-1.046 0.002z"></path>
<path d="M13.017 1.622c0 0.35 0.008 0.701-0.003 1.051-0.011 0.353-0.23 0.571-0.544 0.567-0.293-0.003-0.523-0.216-0.53-0.549-0.015-0.712-0.014-1.424 0-2.137 0.007-0.323 0.25-0.55 0.53-0.554 0.306-0.003 0.534 0.225 0.544 0.572 0.011 0.35 0.003 0.7 0.003 1.051z"></path>
<path d="M5.032 16.641c-0.059 0.078-0.143 0.279-0.294 0.373-0.592 0.371-1.201 0.716-1.811 1.057-0.317 0.176-0.605 0.102-0.767-0.168-0.166-0.273-0.079-0.578 0.244-0.771 0.591-0.351 1.185-0.699 1.786-1.032 0.401-0.223 0.827 0.001 0.841 0.542z"></path>
<path d="M17.192 4.473c-0.468 0.001-0.758-0.365-0.588-0.697 0.36-0.7 0.758-1.381 1.173-2.051 0.145-0.234 0.423-0.263 0.665-0.125 0.257 0.146 0.373 0.402 0.231 0.664-0.363 0.674-0.751 1.335-1.154 1.985-0.077 0.124-0.262 0.182-0.327 0.224z"></path>
<path d="M5.028 7.224c-0.004 0.501-0.403 0.768-0.762 0.576-0.654-0.351-1.296-0.727-1.93-1.112-0.26-0.158-0.319-0.471-0.182-0.711 0.134-0.238 0.441-0.357 0.701-0.214 0.661 0.361 1.313 0.74 1.955 1.137 0.123 0.075 0.179 0.261 0.219 0.325z"></path>
<path d="M20.408 7.917c-0.146-0.136-0.332-0.248-0.427-0.413-0.127-0.219-0.045-0.469 0.165-0.596 0.665-0.403 1.34-0.791 2.025-1.161 0.241-0.13 0.471-0.015 0.617 0.201 0.15 0.221 0.157 0.505-0.060 0.644-0.694 0.442-1.415 0.839-2.127 1.25-0.035 0.020-0.089 0.009-0.134 0.013-0.020 0.021-0.040 0.042-0.060 0.062z"></path>
<path d="M2.173 25.007c0.083-2.467 2.506-3.996 4.579-3.018 0.33 0.154 0.472 0.385 0.403 0.657-0.093 0.365-0.42 0.504-0.838 0.331-0.582-0.241-1.157-0.259-1.741-0.011-1.503 0.64-1.778 2.658-0.498 3.674 0.437 0.346 0.533 0.633 0.311 0.924-0.227 0.298-0.524 0.287-0.969-0.065-0.842-0.669-1.233-1.558-1.248-2.491z"></path>
<path d="M14.386 17.91c1.756 0.135 3.156 0.906 4.179 2.348 0.274 0.386 0.268 0.671-0.020 0.89-0.275 0.209-0.587 0.123-0.851-0.249-0.834-1.181-1.974-1.813-3.414-1.91-0.489-0.034-0.736-0.239-0.712-0.581 0.025-0.354 0.323-0.537 0.816-0.499z"></path>
<path d="M20.324 9.767c1.761 0.108 3.216 0.907 4.264 2.43 0.228 0.332 0.19 0.631-0.094 0.83-0.253 0.176-0.568 0.106-0.784-0.206-0.869-1.256-2.063-1.909-3.587-1.976-0.37-0.017-0.602-0.256-0.586-0.567 0.018-0.328 0.294-0.53 0.786-0.511z"></path>
</svg>
