<!-- Generated by IcoMoon.io -->
<svg version="1.1" xmlns="http://www.w3.org/2000/svg" width="157" height="32" viewBox="0 0 157 32">
<title>comments</title>
<path d="M4.262 0.885h0.762c0.291 0 0.697 0.026 1.218 0.076l0.152-0.076c0.102 0.051 0.178 0.076 0.229 0.076 0.634-0.051 0.965-0.076 0.99-0.076l0.381 0.076 0.457-0.076c0.355 0 0.533 0.051 0.533 0.152 0.203-0.101 0.482-0.152 0.838-0.152h0.533c0.355 0 0.559 0.026 0.609 0.076 0.344-0.051 0.621-0.076 0.838-0.076h2.361c0.355 0 0.686 0.356 0.99 1.066-0.101 0.166-0.152 0.291-0.152 0.381 0.051 0 0.076 0.026 0.076 0.076 0.166-0.102 0.291-0.152 0.381-0.152 0.711 0.482 1.066 0.914 1.066 1.295 0.152 0.711 0.229 1.168 0.229 1.371v0.457c-0.152 0.965-0.229 1.6-0.229 1.904v1.523c0 0.254-0.051 0.381-0.152 0.381 0.203 0.355 0.305 0.609 0.305 0.762v0.152c0 0.076-0.076 0.152-0.229 0.228-0.102-0.051-0.178-0.076-0.229-0.076v0.152h0.609c0.305 0.217 0.457 0.445 0.457 0.686-0.115 0.203-0.699 0.305-1.752 0.305-0.279 0-0.533-0.051-0.761-0.152l-1.219 0.152c-0.393-0.052-0.824-0.077-1.294-0.077h-0.305c-0.076 0-0.178-0.101-0.305-0.305 0-0.152 0.127-0.558 0.381-1.218v-3.656c-0.063-0.229-0.496-0.457-1.295-0.686-0.051 0-0.076 0.026-0.076 0.076-0.152 0-0.229-0.025-0.229-0.076-0.761 0.051-1.319 0.076-1.675 0.076h-1.98c-0.507 0.331-0.762 0.813-0.762 1.448-0.203 0-0.305 0.355-0.305 1.066 0.254 0.127 0.381 0.33 0.381 0.609v0.762c0 0.432 0.026 0.889 0.076 1.371l-0.152 0.914c0.051 0.889 0.076 1.422 0.076 1.599 0 0.42-0.026 0.826-0.076 1.219l0.152 4.493c-0.051 1.32-0.076 2.844-0.076 4.57v1.98c0.178 0.763 0.457 1.143 0.838 1.143h3.428c0.215 0 0.496 0.026 0.838 0.076 0.558-0.266 0.838-0.57 0.838-0.914v-3.349c-0.305-0.471-0.457-0.877-0.457-1.219v-0.229c0-0.113 0.127-0.191 0.381-0.229 0.355 0 0.711 0.051 1.066 0.153 0.432-0.051 0.787-0.077 1.066-0.077h0.533c0.291 0 0.545 0.101 0.761 0.305 0.242-0.254 0.623-0.381 1.143-0.381h0.076c0.279 0 0.457 0.102 0.533 0.305-0.127 0.508-0.28 0.942-0.457 1.295 0 0.304 0.025 0.837 0.076 1.599 0 0.191-0.076 0.85-0.229 1.981v0.456c0 0.203 0.076 0.636 0.229 1.295v0.763c0 0.66-0.584 1.295-1.752 1.904-0.217 0.191-0.496 0.494-0.838 0.914-1.915-0.054-3.363-0.079-4.339-0.079h-2.818c-0.406 0-0.94 0.026-1.6 0.077-0.064-0.051-0.242-0.077-0.533-0.077l-0.762 0.077c-0.305 0-0.711-0.381-1.219-1.143-0.914-0.393-1.371-1.129-1.371-2.209v-0.076c0-0.164 0.025-0.293 0.076-0.38-0.051-0.432-0.076-0.787-0.076-1.067v-1.904c0.101-0.494 0.152-0.775 0.152-0.837v-0.914c-0.152-0.607-0.229-1.853-0.229-3.73v-1.752c0-0.215 0.076-0.926 0.229-2.133 0-0.736-0.026-2.31-0.076-4.722 0.051-0.596 0.076-1.029 0.076-1.295-0.102-0.191-0.152-0.393-0.152-0.609v-0.688c0-0.914-0.026-2.158-0.076-3.732l0.076-0.152c-0.050-0.088-0.075-0.189-0.075-0.304v-0.381c0-0.101 0.508-0.558 1.523-1.371 0-0.406 0.431-0.762 1.295-1.066zM2.967 23.123v0.686c0 0.355-0.229 0.533-0.685 0.533v0.305c0 0.33-0.026 0.66-0.076 0.99 0.051 0.406 0.127 0.609 0.229 0.609 0.164 0 0.291-0.381 0.38-1.142 0.088 0 0.166-0.127 0.229-0.38l-0.077-0.536c0.102-0.33 0.152-0.558 0.152-0.685v-0.381h-0.152zM2.282 3.779v0.152c0 0.318 0.127 0.775 0.38 1.371 0.012 0.457 0.088 0.686 0.229 0.686l0.076-0.152v-0.686c0-0.266 0.152-0.521 0.457-0.762v-0.152c0-0.191-0.127-0.418-0.381-0.686v-0.228c0.203-0.266 0.305-0.496 0.305-0.685-0.051 0-0.076-0.026-0.076-0.076-0.66 0.265-0.99 0.672-0.99 1.218zM2.282 11.622v2.285h0.076v-2.285h-0.076zM2.282 14.821v1.218h0.076v-1.218h-0.076zM3.043 29.367v0.305h0.229v-0.077c-0.051-0.101-0.076-0.178-0.076-0.228h-0.153zM3.424 12.917v0.076c0.152 0.217 0.229 0.42 0.229 0.609h0.076v-0.457c0-0.076-0.076-0.152-0.229-0.229h-0.076zM3.576 10.099c0 0.051-0.026 0.127-0.076 0.228 0.127 0.356 0.229 0.533 0.305 0.533 0-0.051 0.026-0.127 0.076-0.229-0.088-0.353-0.191-0.532-0.305-0.532zM4.033 8.425v0.152h0.076v-0.152h-0.076zM4.49 4.845v0.533h0.076v-0.533h-0.076zM4.49 22.969v0.38h0.076v-0.38h-0.076zM5.176 4.084l0.076 0.381h0.076v-0.381h-0.152zM5.404 4.998v0.076c0.026 0.66 0.102 0.99 0.229 0.99 0-0.051 0.026-0.076 0.076-0.076l-0.076-0.153v-0.305c0-0.051 0.026-0.076 0.076-0.076-0.115-0.304-0.215-0.456-0.305-0.456zM7.613 2.027v0.229h0.076v-0.229h-0.076zM7.994 27.463v0.685c0.203 0.572 0.305 1.307 0.305 2.209h0.076c0-0.037 0.026-0.191 0.076-0.457-0.102-1.103-0.229-1.916-0.381-2.437h-0.076zM8.451 2.484l-0.077 0.381v0.076c0.102 0 0.152-0.051 0.152-0.152v-0.304h-0.075zM8.679 1.951l-0.076 0.457c0.102 0 0.178-0.152 0.229-0.457h-0.153zM13.324 4.998v0.456h0.076v-0.456h-0.076zM13.324 26.701v0.152c0 0.52 0.076 1.179 0.229 1.981h0.076v-1.219l-0.077-0.914h-0.228zM13.4 5.607v0.229c0.203 0.799 0.305 1.232 0.305 1.295v1.142c0.012 0.102 0.063 0.152 0.152 0.152h0.076c0-1.256-0.152-2.195-0.457-2.818h-0.076zM14.086 9.185l-0.076 0.152v0.152c0.191 0.863 0.369 1.295 0.533 1.295 0.101 0 0.152-0.051 0.152-0.152v-0.076c0-0.545-0.203-1.002-0.609-1.371zM14.238 3.703v1.066c0.203 0.584 0.305 1.092 0.305 1.523 0.254 0.279 0.381 0.584 0.381 0.914h-0.076c0.101 0.254 0.152 0.432 0.152 0.533h0.152v-1.98c-0.228-0.291-0.508-0.977-0.837-2.056h-0.077zM14.847 23.504l-0.076 0.38c0 0.215 0.127 0.369 0.38 0.457 0-0.255 0.026-0.381 0.076-0.381-0.101-0.305-0.203-0.456-0.304-0.456h-0.076zM15.38 21.447v0.077c0.279 0.813 0.483 1.218 0.609 1.218 0.102 0 0.152-0.050 0.152-0.151v-0.38c-0.381-0.508-0.609-0.763-0.686-0.763h-0.075zM15.38 24.797v0.076c0.254 0.558 0.381 1.498 0.381 2.818l0.152 0.076 0.152-0.076-0.076-0.151c0.051-0.28 0.076-0.508 0.076-0.686-0.115 0-0.191-0.127-0.229-0.381 0-0.127 0.076-0.305 0.229-0.533v-0.228c-0.38-0.61-0.609-0.915-0.685-0.915zM15.456 3.398v0.152c0 0.305 0.127 0.457 0.381 0.457l0.076-0.152v-0.152c0-0.076-0.102-0.177-0.305-0.305h-0.152zM16.066 9.185c0 0.115-0.026 0.215-0.076 0.305l0.152 0.076 0.076-0.381h-0.152z"></path>
<path d="M22.254 0.961h0.838c0.115 0 0.215 0.026 0.305 0.076 0.088-0.051 0.191-0.076 0.305-0.076l0.533 0.076 0.38-0.076c0.203 0.102 0.355 0.152 0.457 0.152 0.191-0.101 0.42-0.152 0.686-0.152l1.599 0.381h1.143c0.533-0.152 1.117-0.279 1.752-0.381l0.533 0.076 0.305-0.076c0.203 0.051 0.381 0.076 0.533 0.076l0.304-0.076c0.178 0 0.787 0.533 1.828 1.6 0.278 0.304 0.532 0.634 0.761 0.989 0 0.102-0.026 0.152-0.076 0.152 0.050 0.686 0.076 1.194 0.076 1.524 0 0.178-0.051 2.006-0.152 5.484v1.371c0.101 0.863 0.152 1.345 0.152 1.445v4.265c0 0.356-0.051 0.635-0.152 0.837 0.102 0.585 0.152 1.295 0.152 2.133v3.808c-0.102 0.736-0.152 1.143-0.152 1.219v1.524c0 0.329 0.026 0.837 0.076 1.524-0.228 0.393-0.837 1.053-1.828 1.98-0.254 0.356-0.533 0.534-0.838 0.534l-0.38-0.077-0.152 0.077-0.457-0.077h-0.152c-0.115 0-0.215 0.026-0.305 0.077-0.088-0.051-0.215-0.077-0.381-0.077s-0.291 0.026-0.381 0.077c-0.279-0.051-0.508-0.077-0.685-0.077h-1.219l-0.457 0.077c-0.115-0.051-0.445-0.102-0.99-0.153-0.432 0.102-0.711 0.153-0.838 0.153-0.279 0-0.559-0.028-0.838-0.077-0.584 0.050-1.142 0.077-1.675 0.077h-0.609c-0.545 0-0.977-0.28-1.295-0.838-0.229 0-0.686-0.456-1.371-1.37-0.037 0-0.115-0.127-0.229-0.381l0.076-0.914v-1.752c-0.101-1.637-0.152-2.525-0.152-2.666v-4.95c0-0.393 0.025-0.748 0.076-1.066-0.051-0.254-0.076-0.584-0.076-0.99v-1.523c0.101-0.863 0.152-1.346 0.152-1.447v-2.669c-0.152-0.482-0.228-0.863-0.228-1.142 0-1.943 0.076-3.922 0.228-5.941v-0.305c0-0.316 0.279-0.621 0.838-0.914 0.621-1.016 1.281-1.523 1.98-1.523zM20.959 19.619v0.152h0.076v-0.152h-0.076zM21.34 2.637c0.101 0.418 0.152 0.697 0.152 0.837h0.152c0-0.076-0.026-0.432-0.076-1.066 0.051-0.102 0.076-0.178 0.076-0.229h-0.076c-0.152 0.051-0.228 0.204-0.228 0.458zM21.569 10.632v0.305c0.012 0.102 0.064 0.152 0.152 0.152h0.076l-0.076-0.457h-0.152zM22.101 18.932v0.153l0.076 0.38h0.076v-0.534h-0.152zM22.101 20.152v0.229c0.012 0.101 0.064 0.151 0.152 0.151h0.076v-0.151l-0.076-0.38c-0.101 0.012-0.152 0.062-0.152 0.151zM22.406 7.587l-0.229 0.304 0.152 0.533c0.152 0 0.229-0.254 0.229-0.761l-0.152-0.076zM22.482 23.58c-0.051 0.279-0.076 0.483-0.076 0.609 0.051 0.102 0.076 0.178 0.076 0.229h0.152c0-0.203 0.026-0.305 0.076-0.305-0.102-0.255-0.152-0.432-0.152-0.534h-0.076zM22.482 25.33c0.051 0.432 0.076 0.762 0.076 0.991h0.076c0-0.088 0.051-0.293 0.152-0.609-0.102-0.164-0.152-0.293-0.152-0.381h-0.152zM22.558 26.627v0.685h0.076v-0.685h-0.076zM27.433 5.302h-0.685c-0.737 0.102-1.143 0.152-1.219 0.152h-0.152c-0.051 0-0.254-0.051-0.609-0.152l-0.381 0.076v0.381c0 0.951-0.101 1.664-0.304 2.132l-0.152 15.459h-0.076l0.076 0.153v0.609c0 0.050-0.026 0.076-0.076 0.076l0.076 0.152v1.371c0 0.051-0.026 0.076-0.076 0.076 0.164 0.558 0.469 0.838 0.914 0.838l0.305 0.305-0.076 0.38c0.152 0.483 0.305 1.219 0.457 2.209 0.215 0 0.445 0.38 0.686 1.142h0.076c0.457 0 0.685-0.152 0.685-0.457l-0.076-1.064c0.102-0.166 0.152-0.318 0.152-0.458-0.152-0.189-0.228-0.367-0.228-0.533l0.076-0.381c-0.051-0.254-0.152-0.38-0.304-0.38-0.166 0.102-0.318 0.153-0.457 0.153h-0.229c-0.076 0-0.152-0.077-0.229-0.229v-0.38c0.051-0.153 0.203-0.229 0.457-0.229h0.076c0.139 0 0.291 0.051 0.457 0.152 0.33-0.101 0.558-0.152 0.685-0.152h1.6c0.076 0 0.152 0.076 0.229 0.229l-0.076 0.533c0.101 0 0.177-0.255 0.229-0.762 0.355-0.33 0.533-0.634 0.533-0.914v-0.914c0-0.483 0.026-0.964 0.076-1.447l-0.076-0.381 0.152-3.349c-0.051-0.102-0.076-0.178-0.076-0.229l0.229-0.762-0.076-0.457c0.102-0.33 0.152-0.558 0.152-0.685-0.203-0.229-0.305-0.355-0.305-0.381v-0.381c0-0.051 0.026-0.076 0.076-0.076l-0.076-0.152v-0.305c0-0.164 0.026-0.291 0.076-0.381l-0.076-0.457v-0.685c0-0.051 0.026-0.076 0.076-0.076l-0.076-0.152v-0.762c0-1.561 0.026-3.668 0.076-6.32 0.102-0.355 0.152-0.66 0.152-0.914v-0.838c-0.215 0-0.445-0.076-0.686-0.229-0.203 0.102-0.355 0.152-0.457 0.152-0.762-0.115-1.143-0.316-1.143-0.609-0.231 0.204-0.358 0.305-0.382 0.305zM24.082 28.834v0.456l0.076 0.381h0.076v-0.837h-0.152zM24.31 30.129v0.151h0.076v-0.151h-0.076zM24.919 1.875c0 0.152 0.026 0.229 0.076 0.229l-0.076 0.381v1.066c0 0.254-0.026 0.635-0.076 1.143h0.152c0-0.127 0.076-0.533 0.229-1.219v-1.6c0-0.102-0.051-0.152-0.152-0.152-0.102 0.012-0.153 0.062-0.153 0.152zM26.138 4.084v0.229l0.076 0.381h0.229c-0.102-0.457-0.152-0.711-0.152-0.762-0.102 0.011-0.153 0.062-0.153 0.152zM26.748 1.723c0 0.051-0.026 0.076-0.076 0.076 0.191 0.711 0.393 1.066 0.609 1.066h0.076c-0.077-0.762-0.28-1.142-0.609-1.142zM27.433 3.017v0.076c0.102 0.166 0.152 0.293 0.152 0.381h0.076v-0.152c-0.076-0.203-0.152-0.305-0.228-0.305zM28.804 27.843l-0.076 0.381v0.228h0.152v-0.609h-0.076zM29.794 1.875c0 0.051-0.026 0.076-0.076 0.076 0.051 0.102 0.076 0.178 0.076 0.229 0 0.203 0.026 0.66 0.076 1.371h0.076c0.102 0 0.152-0.051 0.152-0.152-0.050-1.016-0.152-1.524-0.304-1.524zM30.327 26.322c0 0.406-0.203 0.964-0.609 1.675v0.534c0.012 0.101 0.064 0.151 0.152 0.151 0.406-1.078 0.609-1.839 0.609-2.284l-0.152-0.076zM30.632 29.595h0.152v-0.305c0.254-0.826 0.381-1.408 0.381-1.751v-0.229c-0.356 0.483-0.533 1.244-0.533 2.285zM30.708 20.001h0.152c0.051-0.266 0.076-0.421 0.076-0.458-0.152 0.051-0.228 0.203-0.228 0.458zM30.936 3.855c-0.102 0.166-0.152 0.318-0.152 0.457v0.305h0.152l0.152-0.533v-0.077c0.001-0.101-0.051-0.152-0.152-0.152zM31.468 16.725c-0.203 0.799-0.381 1.689-0.533 2.666 0.127 0 0.33-0.763 0.609-2.285v-0.381h-0.076zM31.317 5.453l-0.076 0.533c0.076 0.203 0.152 0.305 0.229 0.305v-0.685c-0.001-0.102-0.052-0.153-0.153-0.153zM31.241 23.809v0.076h0.152v-0.229c-0.101 0.012-0.152 0.064-0.152 0.153zM31.468 10.632l-0.076 0.533v1.143h0.152v-1.219l0.076-0.381-0.152-0.076zM31.468 21.295l-0.076 0.761v0.077c0.012 0.101 0.064 0.152 0.152 0.152v-0.99h-0.076zM31.849 27.92v0.456c-0.304 0.838-0.457 1.372-0.457 1.6 0.051 0.203 0.076 0.38 0.076 0.533l0.152-0.076-0.076-0.153v-0.304c0.304-0.826 0.457-1.461 0.457-1.905v-0.151h-0.152zM31.849 19.391c0 0.139-0.127 0.596-0.38 1.37 0.051 0.102 0.076 0.178 0.076 0.229h0.076l0.304-1.524v-0.076h-0.076zM31.468 22.436v0.607h0.076v-0.607h-0.076zM32.155 18.248c0 0.152-0.051 0.33-0.152 0.534h0.076c0.102 0 0.152-0.051 0.152-0.153v-0.38h-0.076zM32.001 25.94v0.457h0.076l0.076-0.457h-0.152zM32.231 2.408v0.152h0.076v-0.152h-0.076zM32.231 17.563v0.457h0.076v-0.457h-0.076zM32.991 18.248c0 0.305-0.229 1.549-0.686 3.732v0.076c0.242-0.113 0.42-0.951 0.533-2.513 0.203-0.178 0.305-0.38 0.305-0.609v-0.533c0.001-0.102-0.050-0.153-0.152-0.153zM32.382 29.748v0.151h0.229l0.152-0.533v-0.152c-0.063 0.001-0.191 0.179-0.381 0.534zM32.763 28.53v0.305h0.152l0.076-0.381v-0.077h-0.076c-0.101 0.012-0.152 0.064-0.152 0.153zM33.069 27.006c-0.102 0.164-0.152 0.318-0.152 0.457h0.076c0.076 0 0.152-0.077 0.229-0.228v-0.077c-0.001-0.101-0.052-0.152-0.153-0.152zM33.069 12.46l-0.076 0.38v0.762h0.076l0.076-0.381v-0.761h-0.076zM33.069 22.895l-0.076 0.38v0.152c0.012 0.101 0.063 0.152 0.152 0.152v-0.685h-0.076zM33.296 8.652v0.305h0.152v-0.457c-0.101 0.012-0.152 0.063-0.152 0.152zM33.526 20.533c-0.102 0.432-0.178 1.067-0.229 1.905 0.101 0 0.203-0.609 0.305-1.828v-0.077h-0.076z"></path>
<path d="M37.009 0.885h1.828c0.342 0 0.648 0.026 0.914 0.076 0.266-0.051 0.572-0.076 0.914-0.076h1.447c0.381 0 0.711 0.559 0.99 1.676 0.115 0.026 0.469 0.837 1.066 2.437 0.228 0.723 0.711 1.814 1.447 3.275 0 0.191 0.152 0.648 0.457 1.371 0 0.242 0.127 0.521 0.381 0.837v0.305c0 0.063-0.127 0.191-0.381 0.381 0.101 0.191 0.152 0.393 0.152 0.609v1.523c0 0.203 0.076 0.635 0.229 1.295-0.152 0.191-0.229 0.369-0.229 0.533v0.609c0.203 0.838 0.381 1.853 0.533 3.047h0.076c0.051-0.635 0.076-1.016 0.076-1.143 0-1.295-0.127-2.158-0.38-2.589 0.152-0.318 0.229-0.572 0.229-0.762-0.152-1.359-0.28-2.246-0.381-2.666v-0.228c0-0.076 0.076-0.152 0.229-0.229 0.254 0.088 0.812 1.256 1.675 3.504 0.24 0 0.494-0.381 0.762-1.143 0.177-0.152 0.431-0.787 0.761-1.904 0.355-0.584 0.736-1.498 1.143-2.742 0.177-0.215 0.584-1.18 1.218-2.894 0.152-0.291 0.33-0.521 0.533-0.686 0-0.787 0.355-1.7 1.066-2.741 0.254-1.117 0.584-1.676 0.99-1.676h1.066c0.305 0 0.508 0.152 0.609 0.457l-0.076 0.305c0.051 0.279 0.076 0.483 0.076 0.609-0.076 0.279-0.178 0.761-0.305 1.447-0.088 0-0.166 0.33-0.229 0.99h0.152c0-0.355 0.229-0.533 0.686-0.533v-0.837l-0.076-0.457c0.063-0.076 0.115-0.33 0.152-0.761-0.202-0.305-0.302-0.559-0.302-0.762 0.127-0.305 0.355-0.457 0.685-0.457h0.076c0.42 0 0.748 0.026 0.99 0.076 0.316-0.051 0.672-0.076 1.066-0.076h0.305c0.076 0 0.152 0.076 0.229 0.229v0.152c-0.203 0.609-0.305 1.066-0.305 1.371v1.447c0 0.051-0.026 0.076-0.076 0.076 0.102 0.229 0.152 0.483 0.152 0.762 0 0.355-0.051 0.533-0.152 0.533l0.076 0.152v0.609c0 0.483-0.051 1.143-0.152 1.98 0.102 0.609 0.152 1.092 0.152 1.447v0.837c0 0.469 0.026 1.129 0.076 1.981 0 0.164-0.178 0.469-0.533 0.914 0.203 0.305 0.304 0.533 0.304 0.686l-0.076 0.457 0.229 0.609c-0.102 0.369-0.152 0.748-0.152 1.142l0.229 1.904-0.076 0.381v1.219c0 0.369-0.026 0.648-0.076 0.837 0.039 0.33 0.088 1.676 0.152 4.037-0.051 0.443-0.127 0.799-0.229 1.066 0.102 0.202 0.152 0.483 0.152 0.837v1.981c0 0.367-0.076 0.57-0.229 0.609h-0.152c-0.305-0.203-0.457-0.458-0.457-0.763v-1.218c0-0.33-0.051-0.686-0.152-1.066h-0.076v1.98c0 0.407 0.051 0.864 0.152 1.372-0.102 0.38-0.152 0.609-0.152 0.685 0.152 0.254 0.229 0.507 0.229 0.761v0.153c-0.051 0.202-0.305 0.305-0.762 0.305-0.635-0.051-0.965-0.077-0.99-0.077-0.101 0.050-0.177 0.077-0.228 0.077-0.152-0.051-0.229-0.102-0.229-0.153l-2.133 0.153c-0.101-0.127-0.152-0.229-0.152-0.305 0.418-0.623 0.648-1.205 0.685-1.753v-1.37c0.102-0.736 0.152-1.143 0.152-1.219v-1.219c-0.102-0.736-0.152-1.142-0.152-1.219v-6.015l-0.076-0.457c0.051-0.088 0.076-0.215 0.076-0.38v-1.295c0-0.203 0.051-0.533 0.152-0.99-0.088-0.318-0.166-1.004-0.229-2.057 0.063-0.697 0.139-1.281 0.229-1.752-0.051-0.101-0.076-0.177-0.076-0.229h-0.076c-0.381 0.166-0.66 0.699-0.837 1.599-0.305 0.533-0.813 1.752-1.524 3.656-0.406 0.266-0.609 0.799-0.609 1.599-0.191 0.191-0.52 0.877-0.99 2.057-0.102 0.062-0.305 0.62-0.609 1.675-0.178 0.609-0.66 0.914-1.447 0.914-0.356-0.152-0.609-0.229-0.762-0.229-0.33 0.102-0.559 0.153-0.686 0.153-0.469 0-0.799-0.255-0.99-0.763-0.203-0.826-1.016-2.906-2.437-6.245-0.914-1.904-1.397-3.173-1.447-3.808-0.063 0-0.242-0.279-0.533-0.838-0.152 0.191-0.228 0.42-0.228 0.686v7.081c0 0.407 0.025 0.89 0.076 1.448-0.051 0.101-0.076 0.178-0.076 0.228 0.101 0.432 0.152 0.711 0.152 0.837 0 0.051-0.025 0.128-0.076 0.229l0.076 0.457c0 0.152-0.051 0.355-0.152 0.609 0.101 0.672 0.152 1.689 0.152 3.046v1.295c0 0.432-0.051 0.763-0.152 0.99 0.101 0.318 0.152 0.522 0.152 0.609l-0.076 0.534c0 0.799 0.203 1.51 0.609 2.133v0.076c0 0.152-0.102 0.229-0.305 0.229-0.279 0-0.558-0.028-0.837-0.077-0.356 0.050-0.661 0.077-0.914 0.077-0.166 0-0.291-0.028-0.381-0.077-0.342 0.050-0.623 0.077-0.837 0.077h-2.209c-0.076 0-0.152-0.077-0.228-0.229v-0.076c0.304-0.979 0.457-1.51 0.457-1.599v-2.209c0-0.203 0.026-0.305 0.076-0.305l-0.076-0.534v-7.388c0-0.381 0.026-0.66 0.076-0.838-0.051-0.33-0.076-0.66-0.076-0.99v-9.361c0.102-0.736 0.152-1.142 0.152-1.218v-2.894c0-1.472-0.152-2.209-0.457-2.209-0.101-0.127-0.152-0.229-0.152-0.305 0.076-0.203 0.151-0.304 0.228-0.304zM39.673 1.646v1.371c0.012 0.102 0.063 0.152 0.152 0.152v-1.523h-0.152zM39.673 18.020v0.152h0.076v-0.152h-0.076zM39.673 18.553v1.904c0.012 0.102 0.063 0.152 0.152 0.152v-2.056h-0.152zM44.928 13.45v0.533h0.076c0-0.039 0.026-0.191 0.076-0.457l-0.152-0.076zM45.081 11.699v0.152h0.076v-0.152h-0.076zM45.081 12.080v0.229h0.076v-0.229h-0.076zM46.757 18.932v0.229h0.076v-0.229h-0.076zM47.518 21.676v0.076c0.051 0.153 0.203 0.229 0.457 0.229l0.076-0.152v-0.077c0-0.101-0.051-0.151-0.152-0.151l-0.381 0.075zM47.823 19.924c0.102 0.469 0.152 0.748 0.152 0.837 0.102 0 0.152-0.051 0.152-0.152v-0.837h-0.152c-0.102 0.014-0.152 0.064-0.152 0.152zM50.717 11.318v0.305c0.101 0.127 0.152 0.229 0.152 0.305h0.076v-0.229l-0.076-0.381h-0.152zM50.869 12.232v0.381c0.266 2.488 0.572 3.732 0.914 3.732 0-0.101 0.076-0.279 0.228-0.533-0.393-0.545-0.748-1.738-1.066-3.579h-0.076zM52.468 7.281c0 0.051-0.026 0.127-0.076 0.229h0.152v-0.229h-0.076zM53.535 6.824c-0.203 0.393-0.305 0.647-0.305 0.762v0.761h0.076c0.203-0.697 0.305-1.104 0.305-1.218v-0.305h-0.076zM53.611 5.91v0.609h0.076l0.076-0.381v-0.075c0-0.102-0.051-0.153-0.152-0.153zM54.449 7.13c-0.355 1.218-0.533 1.98-0.533 2.285l0.152 0.076c0-0.115 0.025-0.215 0.076-0.305-0.051-0.088-0.076-0.191-0.076-0.305v-0.076c0.406-0.469 0.609-0.951 0.609-1.447-0.051-0.102-0.076-0.178-0.076-0.229h-0.152zM53.916 10.556v0.152h0.152v-0.304c-0.102 0.012-0.152 0.063-0.152 0.152zM54.449 4.998v0.456h0.076v-0.456h-0.076zM56.277 20.686l0.152 0.076v-0.229c-0.102 0.012-0.152 0.064-0.152 0.153zM57.038 17.715c0 0.28 0.229 0.635 0.686 1.067l0.076-0.762c-0.203-0.229-0.305-0.533-0.305-0.914-0.305 0.102-0.457 0.305-0.457 0.609zM57.189 14.136v0.609c0.115 0 0.191-0.127 0.229-0.381-0.051-0.102-0.076-0.178-0.076-0.229h-0.153zM58.257 1.57v2.285c0.101 0 0.152-0.051 0.152-0.152v-2.133h-0.152zM58.333 4.388l-0.076 0.381v0.381h0.152l0.076-0.686-0.152-0.076zM58.257 5.607v0.457h0.152v-0.457h-0.152zM59.247 29.367h0.076c0.127 0 0.381 0.483 0.762 1.447v0.305c0 0.076-0.076 0.152-0.229 0.229h-0.533c-0.051 0-0.177-0.127-0.38-0.381 0.050-1.067 0.152-1.6 0.304-1.6z"></path>
<path d="M62.292 0.885h1.828c0.342 0 0.647 0.026 0.914 0.076 0.266-0.051 0.572-0.076 0.914-0.076h1.447c0.381 0 0.711 0.559 0.99 1.676 0.115 0.026 0.469 0.837 1.066 2.437 0.228 0.723 0.711 1.814 1.447 3.275 0 0.191 0.152 0.648 0.457 1.371 0 0.242 0.127 0.521 0.381 0.837v0.305c0 0.063-0.127 0.191-0.381 0.381 0.101 0.191 0.152 0.393 0.152 0.609v1.523c0 0.203 0.076 0.635 0.229 1.295-0.152 0.191-0.229 0.369-0.229 0.533v0.609c0.203 0.838 0.381 1.853 0.533 3.047h0.076c0.051-0.635 0.076-1.016 0.076-1.143 0-1.295-0.127-2.158-0.38-2.589 0.152-0.318 0.229-0.572 0.229-0.762-0.152-1.359-0.28-2.246-0.381-2.666v-0.228c0-0.076 0.076-0.152 0.229-0.229 0.254 0.088 0.812 1.256 1.675 3.504 0.24 0 0.494-0.381 0.762-1.143 0.177-0.152 0.431-0.787 0.761-1.904 0.355-0.584 0.736-1.498 1.143-2.742 0.177-0.215 0.584-1.18 1.218-2.894 0.152-0.291 0.33-0.521 0.533-0.686 0-0.787 0.355-1.7 1.066-2.741 0.254-1.117 0.584-1.676 0.99-1.676h1.066c0.305 0 0.508 0.152 0.609 0.457l-0.075 0.305c0.051 0.279 0.076 0.483 0.076 0.609-0.076 0.279-0.178 0.761-0.305 1.447-0.088 0-0.166 0.33-0.229 0.99h0.152c0-0.355 0.229-0.533 0.686-0.533v-0.837l-0.076-0.457c0.064-0.076 0.115-0.33 0.152-0.761-0.203-0.305-0.305-0.559-0.305-0.762 0.127-0.305 0.355-0.457 0.685-0.457h0.076c0.42 0 0.748 0.026 0.99 0.076 0.316-0.051 0.672-0.076 1.066-0.076h0.305c0.076 0 0.152 0.076 0.229 0.229v0.152c-0.203 0.609-0.305 1.066-0.305 1.371v1.447c0 0.051-0.026 0.076-0.076 0.076 0.102 0.229 0.152 0.483 0.152 0.762 0 0.355-0.051 0.533-0.152 0.533l0.076 0.152v0.609c0 0.483-0.051 1.143-0.152 1.98 0.102 0.609 0.152 1.092 0.152 1.447v0.837c0 0.469 0.026 1.129 0.076 1.981 0 0.164-0.178 0.469-0.533 0.914 0.203 0.305 0.304 0.533 0.304 0.686l-0.076 0.457 0.229 0.609c-0.102 0.369-0.152 0.748-0.152 1.142l0.229 1.904-0.076 0.381v1.219c0 0.369-0.026 0.648-0.076 0.837 0.039 0.33 0.088 1.676 0.152 4.037-0.051 0.443-0.127 0.799-0.229 1.066 0.102 0.202 0.152 0.483 0.152 0.837v1.981c0 0.367-0.076 0.57-0.229 0.609h-0.152c-0.305-0.203-0.457-0.458-0.457-0.763v-1.218c0-0.33-0.051-0.686-0.152-1.066h-0.076v1.98c0 0.407 0.051 0.864 0.152 1.372-0.102 0.38-0.152 0.609-0.152 0.685 0.152 0.254 0.229 0.507 0.229 0.761v0.153c-0.051 0.202-0.305 0.305-0.762 0.305-0.635-0.051-0.965-0.077-0.99-0.077-0.101 0.050-0.177 0.077-0.228 0.077-0.152-0.051-0.229-0.102-0.229-0.153l-2.133 0.153c-0.101-0.127-0.152-0.229-0.152-0.305 0.418-0.623 0.647-1.205 0.685-1.753v-1.37c0.102-0.736 0.152-1.143 0.152-1.219v-1.219c-0.102-0.736-0.152-1.142-0.152-1.219v-6.015l-0.076-0.457c0.051-0.088 0.076-0.215 0.076-0.38v-1.295c0-0.203 0.051-0.533 0.152-0.99-0.088-0.318-0.166-1.004-0.229-2.057 0.064-0.697 0.139-1.281 0.229-1.752-0.051-0.101-0.076-0.177-0.076-0.229h-0.076c-0.381 0.166-0.66 0.699-0.837 1.599-0.305 0.533-0.813 1.752-1.524 3.656-0.406 0.266-0.609 0.799-0.609 1.599-0.191 0.191-0.52 0.877-0.99 2.057-0.102 0.062-0.305 0.62-0.609 1.675-0.178 0.609-0.66 0.914-1.447 0.914-0.356-0.152-0.609-0.229-0.762-0.229-0.33 0.102-0.559 0.153-0.686 0.153-0.469 0-0.799-0.255-0.99-0.763-0.203-0.826-1.016-2.906-2.437-6.245-0.914-1.904-1.397-3.173-1.447-3.808-0.064 0-0.242-0.279-0.533-0.838-0.152 0.191-0.228 0.42-0.228 0.686v7.081c0 0.407 0.025 0.89 0.076 1.448-0.051 0.101-0.076 0.178-0.076 0.228 0.101 0.432 0.152 0.711 0.152 0.837 0 0.051-0.025 0.128-0.076 0.229l0.076 0.457c0 0.152-0.051 0.355-0.152 0.609 0.101 0.672 0.152 1.689 0.152 3.046v1.295c0 0.432-0.051 0.763-0.152 0.99 0.101 0.318 0.152 0.522 0.152 0.609l-0.076 0.534c0 0.799 0.203 1.51 0.609 2.133v0.076c0 0.152-0.102 0.229-0.305 0.229-0.279 0-0.558-0.028-0.837-0.077-0.356 0.050-0.661 0.077-0.914 0.077-0.166 0-0.291-0.028-0.381-0.077-0.342 0.050-0.623 0.077-0.837 0.077h-2.209c-0.076 0-0.152-0.077-0.228-0.229v-0.076c0.304-0.979 0.457-1.51 0.457-1.599v-2.209c0-0.203 0.026-0.305 0.076-0.305l-0.076-0.534v-7.388c0-0.381 0.026-0.66 0.076-0.838-0.051-0.33-0.076-0.66-0.076-0.99v-9.361c0.102-0.736 0.152-1.142 0.152-1.218v-2.894c0-1.472-0.152-2.209-0.457-2.209-0.101-0.127-0.152-0.229-0.152-0.305 0.077-0.203 0.153-0.304 0.229-0.304zM64.958 1.646v1.371c0.012 0.102 0.064 0.152 0.152 0.152v-1.523h-0.152zM64.958 18.020v0.152h0.076v-0.152h-0.076zM64.958 18.553v1.904c0.012 0.102 0.064 0.152 0.152 0.152v-2.056h-0.152zM70.213 13.45v0.533h0.076c0-0.039 0.026-0.191 0.076-0.457l-0.152-0.076zM70.365 11.699v0.152h0.076v-0.152h-0.076zM70.365 12.080v0.229h0.076v-0.229h-0.076zM72.041 18.932v0.229h0.076v-0.229h-0.076zM72.801 21.676v0.076c0.051 0.153 0.203 0.229 0.457 0.229l0.076-0.152v-0.077c0-0.101-0.051-0.151-0.152-0.151l-0.381 0.075zM73.107 19.924c0.102 0.469 0.152 0.748 0.152 0.837 0.102 0 0.152-0.051 0.152-0.152v-0.837h-0.152c-0.101 0.014-0.152 0.064-0.152 0.152zM76 11.318v0.305c0.101 0.127 0.152 0.229 0.152 0.305h0.076v-0.229l-0.076-0.381h-0.152zM76.154 12.232v0.381c0.266 2.488 0.572 3.732 0.914 3.732 0-0.101 0.076-0.279 0.228-0.533-0.393-0.545-0.748-1.738-1.066-3.579h-0.076zM77.752 7.281c0 0.051-0.026 0.127-0.076 0.229h0.152v-0.229h-0.076zM78.818 6.824c-0.203 0.393-0.305 0.647-0.305 0.762v0.761h0.076c0.203-0.697 0.305-1.104 0.305-1.218v-0.305h-0.076zM78.895 5.91v0.609h0.076l0.076-0.381v-0.075c0-0.102-0.051-0.153-0.152-0.153zM79.732 7.13c-0.355 1.218-0.533 1.98-0.533 2.285l0.152 0.076c0-0.115 0.025-0.215 0.076-0.305-0.051-0.088-0.076-0.191-0.076-0.305v-0.076c0.406-0.469 0.609-0.951 0.609-1.447-0.051-0.102-0.076-0.178-0.076-0.229h-0.152zM79.199 10.556v0.152h0.152v-0.304c-0.101 0.012-0.152 0.063-0.152 0.152zM79.732 4.998v0.456h0.076v-0.456h-0.076zM81.56 20.686l0.152 0.076v-0.229c-0.101 0.012-0.152 0.064-0.152 0.153zM82.321 17.715c0 0.28 0.229 0.635 0.686 1.067l0.076-0.762c-0.203-0.229-0.305-0.533-0.305-0.914-0.304 0.102-0.457 0.305-0.457 0.609zM82.474 14.136v0.609c0.115 0 0.191-0.127 0.229-0.381-0.051-0.102-0.076-0.178-0.076-0.229h-0.153zM83.54 1.57v2.285c0.101 0 0.152-0.051 0.152-0.152v-2.133h-0.152zM83.616 4.388l-0.076 0.381v0.381h0.152l0.076-0.686-0.152-0.076zM83.54 5.607v0.457h0.152v-0.457h-0.152zM84.531 29.367h0.076c0.127 0 0.381 0.483 0.762 1.447v0.305c0 0.076-0.076 0.152-0.229 0.229h-0.533c-0.051 0-0.177-0.127-0.38-0.381 0.048-1.067 0.15-1.6 0.304-1.6z"></path>
<path d="M87.805 0.885c0.152 0 0.355 0.051 0.609 0.152 0.355-0.101 0.634-0.152 0.838-0.152l0.99 0.152c0.33-0.101 0.559-0.152 0.686-0.152h1.447c0.164 0 0.519 0.051 1.066 0.152 0.152 0 0.355-0.051 0.609-0.152 0.254 0 0.381 0.026 0.381 0.076 1.092-0.051 1.904-0.076 2.437-0.076h4.95c0.457 0 0.685 0.533 0.685 1.6 0.254 1.726 0.381 2.843 0.381 3.351l-0.305 0.152c-0.391-0.051-0.798-0.229-1.216-0.534l-0.152 0.076h-0.609c-0.178 0-0.406-0.025-0.686-0.076-0.101 0.051-0.177 0.076-0.228 0.076-0.152 0-0.229-0.025-0.229-0.076-0.508 0.051-0.889 0.076-1.143 0.076h-2.437c-0.064 0-0.342-0.051-0.838-0.152h-0.533c-0.102 0-0.356 0.051-0.762 0.152-0.254-0.088-0.381-0.215-0.381-0.38 0.102-0.85 0.279-1.664 0.533-2.438-0.102-0.482-0.152-0.863-0.152-1.142v-0.076c-0.355-0.051-0.559-0.076-0.609-0.076l-0.076 0.152v0.99l-0.152 1.371c0.102 0.672 0.203 1.080 0.305 1.219 0 0.064-0.279 0.469-0.837 1.218v0.152c0 0.355 0.051 0.635 0.152 0.838-0.101 0.203-0.152 0.482-0.152 0.837v1.6c0 0.203 0.051 0.533 0.152 0.99-0.101 0.469-0.152 0.748-0.152 0.838 0 0.609 0.533 1.015 1.599 1.218 0.088 0 0.291-0.051 0.609-0.152l0.457 0.076c1.231 0 2.348-0.203 3.351-0.609h0.305c0.101 0.012 0.152 0.063 0.152 0.152v0.381c0 0.178 0.025 0.406 0.076 0.686-0.102 0.203-0.152 0.381-0.152 0.533 0.051 0.152 0.101 0.229 0.152 0.229l-0.076 0.533v2.437l0.076 0.533-0.229 0.152h-0.152c-1.029-0.406-1.611-0.609-1.752-0.609-0.356 0.051-0.559 0.076-0.609 0.076-0.088 0-0.445-0.076-1.066-0.229-0.191 0.102-0.393 0.152-0.609 0.152-0.051 0-0.127-0.026-0.229-0.076-0.203 0.051-0.381 0.076-0.533 0.076l-0.305-0.075c-0.166 0.102-0.318 0.152-0.457 0.152h-0.152l-0.229-0.152c0.064-1.967 0.166-3.186 0.305-3.656-0.037-0.305-0.191-0.457-0.457-0.457-0.101 0.166-0.152 0.293-0.152 0.381-0.051 1.561-0.076 2.578-0.076 3.047-0.102 0.33-0.152 0.559-0.152 0.686v0.076c0.393 0 0.621 0.102 0.685 0.305l-0.457 0.609c0.051 2.437 0.076 4.316 0.076 5.636v1.752c0 0.229 0.202 0.661 0.609 1.295l0.533-0.076h0.076c0.177 0 0.406 0.026 0.686 0.076l0.533-0.151c0.85 0.050 1.51 0.076 1.98 0.076h1.904c0.215 0 0.418 0.026 0.609 0.076 0.203-0.050 0.406-0.076 0.609-0.076h1.295c0.191 0 0.621-0.152 1.295-0.457h0.152c0.076 0 0.152 0.077 0.229 0.228-0.279 3.149-0.533 4.722-0.761 4.722-0.088 0.051-0.191 0.077-0.305 0.077h-2.361c-2.17 0-3.846 0.026-5.027 0.077-1.004-0.051-2.578-0.077-4.722-0.077h-0.914c-0.254 0-0.381-0.050-0.381-0.152-0.254 0.152-0.457 0.229-0.609 0.229h-0.229c-0.115 0-0.191-0.127-0.228-0.381 0.304-0.775 0.457-1.256 0.457-1.447 0-0.75-0.026-1.256-0.076-1.524 0.051-1.053 0.076-2.017 0.076-2.894v-2.057c0-0.747-0.026-1.256-0.076-1.523 0.051-0.533 0.076-1.118 0.076-1.752v-5.484c0-0.178-0.026-0.406-0.076-0.686 0.051-0.101 0.076-0.177 0.076-0.229l-0.076-0.914 0.076-1.066c0-0.393-0.026-0.748-0.076-1.066 0.051-1.687 0.076-3.16 0.076-4.417v-2.821l-0.076-0.381h0.076l-0.457-1.447v-0.076c0.102-0.203 0.254-0.304 0.457-0.304zM88.415 1.799v0.305l0.533 2.589h0.076c0.051-0.178 0.076-0.279 0.076-0.305 0-0.242-0.152-0.977-0.457-2.209 0-0.254-0.051-0.381-0.152-0.381h-0.076zM88.567 7.968l-0.152 0.305c0 1.193 0.152 2.031 0.457 2.513l-0.229 1.295 0.457 2.209v0.686c0.037 0.304 0.115 0.457 0.229 0.457 0-0.254 0.025-0.38 0.076-0.38-0.088-0.33-0.191-1.168-0.305-2.513v-2.057c0-0.127-0.127-0.634-0.381-1.523l0.076-0.381c0-0.384-0.076-0.587-0.228-0.612zM88.719 28.225c0 0.151-0.026 0.228-0.076 0.228 0.051 0.101 0.076 0.178 0.076 0.228h0.076v-0.456h-0.076zM89.024 5.15c0 0.025-0.026 0.127-0.076 0.304 0 0.229 0.203 1.092 0.609 2.589 0.305 1.51 0.457 2.754 0.457 3.732h-0.076l0.076 0.152v0.152c0 0.051-0.025 0.076-0.076 0.076 0.076 0.203 0.152 0.305 0.228 0.305 0-0.051 0.026-0.076 0.076-0.076 0-0.051-0.026-0.127-0.076-0.229 0.051-1.117 0.127-1.929 0.229-2.437-0.355 0-0.66-1.244-0.914-3.732-0.051 0-0.178-0.279-0.381-0.837h-0.076zM90.090 1.342l-0.076 0.152c0.152 0.686 0.229 1.168 0.229 1.447v0.838c0.012 0.102 0.064 0.152 0.152 0.152v-0.914c0-0.152 0.076-0.457 0.229-0.914-0.065-0.507-0.243-0.761-0.534-0.761zM90.395 26.93l-0.076 0.38v1.064h0.076c0-0.66 0.102-1.117 0.305-1.37l-0.152-0.076h-0.153zM91.004 28.834v0.076c0 0.279 0.026 0.635 0.076 1.066-0.051 0.087-0.076 0.191-0.076 0.304h0.152v-0.151c0-0.164 0.026-0.291 0.076-0.38-0.050-0.61-0.126-0.915-0.228-0.915zM91.233 13.755v0.533c0.101 0 0.152-0.051 0.152-0.152l-0.076-0.381h-0.076zM91.536 1.723v0.914c0.305 0.316 0.457 0.621 0.457 0.914 0.115 0 0.191-0.177 0.229-0.533l-0.076-0.914h0.076c-0.051-0.406-0.178-0.609-0.381-0.609-0.203 0.075-0.305 0.151-0.305 0.228zM93.059 27.386c0 0.028-0.051 0.407-0.152 1.143v0.456h0.152c0.203-0.761 0.305-1.191 0.305-1.295v-0.151c0-0.102-0.051-0.153-0.152-0.153h-0.153zM93.821 13.603c-0.203 0.102-0.305 0.94-0.305 2.513-0.102 0.012-0.152 0.064-0.152 0.152v0.229h0.152c0.254-0.66 0.381-1.015 0.381-1.066s-0.051-0.304-0.152-0.761c0.152-0.266 0.229-0.521 0.229-0.762v-0.152c-0.001-0.102-0.052-0.153-0.153-0.153zM94.583 1.723c0 0.889-0.127 1.904-0.381 3.047l0.152 0.229c0.609-0.051 0.914-0.127 0.914-0.229 0.051-1.676 0.127-2.513 0.229-2.513-0.102-0.381-0.152-0.635-0.152-0.762h-0.609c-0.104-0.001-0.153 0.075-0.153 0.228zM94.354 29.367c0.051 0.101 0.076 0.178 0.076 0.228h0.152c0.115-0.050 0.316-0.406 0.609-1.064 0.254-0.065 0.381-0.141 0.381-0.229v-0.38c0-0.077-0.076-0.153-0.229-0.229-0.242 0-0.469 0.407-0.685 1.219-0.037-0.001-0.139 0.151-0.304 0.456zM94.583 15.659c0.139 0 0.316-0.279 0.533-0.837l-0.076-0.152v-0.533c0-0.127 0.051-0.355 0.152-0.686l-0.152-0.076h-0.076c-0.128-0.001-0.254 0.761-0.381 2.284zM95.268 15.811l-0.076 0.381v0.076c0.012 0.102 0.064 0.152 0.152 0.152 0-0.051 0.026-0.254 0.076-0.609h-0.152z"></path>
<path d="M106.254 0.808l0.914 0.229c0.457-0.101 0.787-0.152 0.99-0.152 0.152 0 0.33 0.051 0.533 0.152 0.191-0.101 0.393-0.152 0.609-0.152h0.229c0.939 0 1.498 0.711 1.676 2.132 0.254 0.152 0.812 1.346 1.675 3.58l1.904 4.57c0 0.115 0.127 0.418 0.38 0.914 0 0.152 0.305 0.889 0.914 2.209 0.102 0.736 0.279 1.168 0.534 1.295 0 0.127 0.305 0.838 0.914 2.132 0.050 0.762 0.177 1.143 0.38 1.143h0.152c0.152-0.051 0.228-0.202 0.228-0.457v-2.742c0-0.545 0.026-0.977 0.077-1.295-0.051-0.369-0.077-0.826-0.077-1.371v-3.58c-0.101-0.736-0.15-1.143-0.15-1.219v-1.98c0-0.355 0.050-0.634 0.15-0.838-0.101-0.38-0.15-0.583-0.15-0.609 0.099-0.381 0.15-0.736 0.15-1.066v-0.686c0-0.164-0.228-0.775-0.685-1.828v-0.076c0.164-0.152 0.291-0.229 0.38-0.229 0.203 0 0.305 0.026 0.305 0.076l0.914-0.076h3.884c0.077 0 0.152 0.076 0.228 0.229v0.229c-0.202 0.191-0.38 0.699-0.533 1.523l0.077 0.914v1.447c0 0.064-0.051 0.344-0.153 0.838v3.275c0 0.355 0.051 0.635 0.153 0.837-0.051 0.28-0.077 0.483-0.077 0.609 0 0.115 0.026 0.217 0.077 0.305l-0.077 0.533c0 0.166 0.026 0.596 0.077 1.295l-0.153 0.609 0.153 0.686c-0.102 0.203-0.153 0.483-0.153 0.838v2.665c0 0.547 0.026 1.002 0.077 1.372-0.051 0.316-0.077 0.748-0.077 1.295v0.151c0 0.331 0.051 1.346 0.153 3.047-0.102 0.457-0.153 0.787-0.153 0.99v0.534l-0.228 0.305v0.609l0.152 0.228v0.077c0 0.139-0.051 0.291-0.152 0.456 0.050 1.129 0.101 1.816 0.152 2.057-0.051 0.088-0.076 0.57-0.076 1.445 0.076 0 0.278 0.229 0.609 0.686v0.152l-0.153 0.229-0.914-0.077h-0.456c-0.469 0-1.129 0.026-1.981 0.077-0.101-0.051-0.178-0.077-0.228-0.077-0.203 0.050-0.381 0.077-0.534 0.077-0.24 0-0.469-0.356-0.685-1.067-0.229-0.316-0.762-1.56-1.599-3.73-0.166-0.203-1.461-3.275-3.884-9.214-0.369-0.711-0.672-1.447-0.914-2.209-0.432-1.18-0.711-1.789-0.837-1.828v-0.686c0-0.191-0.127-0.393-0.381-0.609v-0.229c0-0.039 0.127-0.166 0.381-0.381v-0.229l-0.381 0.076c-0.076 0-0.305-0.177-0.686-0.533-0.152 0.547-0.229 0.875-0.229 0.99v0.076c0.102 0.863 0.152 1.346 0.152 1.447v0.914c0 0.166-0.051 0.521-0.152 1.066 0.166 0.457 0.266 0.686 0.305 0.686-0.051 0.686-0.076 1.193-0.076 1.524v0.837c0 0.914-0.026 1.803-0.076 2.666 0.051 0.443 0.076 0.826 0.076 1.142-0.051 0.928-0.076 1.512-0.076 1.753l0.076 0.685c-0.152 0.699-0.229 1.129-0.229 1.295 0.152 0.254 0.229 0.508 0.229 0.762v0.152c0 0.712-0.026 1.675-0.076 2.894 0.012 0.356 0.242 0.813 0.686 1.371v0.152c0 0.026-0.051 0.102-0.152 0.229-0.596-0.051-1.029-0.077-1.295-0.077h-2.894c-0.266 0-0.699 0.026-1.295 0.077-0.102-0.164-0.152-0.318-0.152-0.458l0.838-1.295c-0.051-0.761-0.076-1.319-0.076-1.675v-0.685c0-0.243 0.025-0.496 0.076-0.763-0.152-0.826-0.229-3.338-0.229-7.54v-3.503c0-0.406 0.025-0.939 0.076-1.599-0.051-0.088-0.076-0.215-0.076-0.381l0.076-0.686c0-0.051-0.026-0.254-0.076-0.609 0.051-0.344 0.076-0.623 0.076-0.838 0-0.254-0.051-0.381-0.152-0.381 0.051-0.837 0.076-1.472 0.076-1.904v-3.122c0-0.051 0.051-0.254 0.152-0.609-0.102-0.164-0.152-0.316-0.152-0.457 0-0.088 0.101-0.318 0.305-0.686-0.102-0.291-0.203-1.029-0.305-2.209-0.039 0-0.166-0.203-0.381-0.609v-0.228c0.001-0.164 0.433-0.266 1.296-0.305zM106.33 3.017l-0.304 1.143v0.229l0.076 0.457c-0.102 0.203-0.152 0.38-0.152 0.533 0.101 0.166 0.152 0.293 0.152 0.381h0.152c0.051-0.457 0.101-1.345 0.152-2.666v-0.077h-0.076zM106.33 25.102c0.102 0.316 0.152 0.52 0.152 0.609h0.076c0.203-1.41 0.305-2.502 0.305-3.275v-0.457c-0.24 0-0.418 1.041-0.533 3.123zM107.168 28.148c-0.203 0.522-0.381 1.156-0.533 1.905v0.532c0.012 0.102 0.064 0.153 0.152 0.153 0-0.407 0.152-1.066 0.457-1.981v-0.609h-0.076zM107.092 1.418l-0.152 0.229c0.215 0.063 0.369 0.191 0.457 0.381v1.447h0.076l0.076-0.381v-0.305c0-0.266-0.026-0.697-0.076-1.295l-0.381-0.076zM107.168 26.854v0.305h0.076v-0.305h-0.076zM107.549 14.974v0.685c0.101 0 0.152-0.051 0.152-0.152v-0.38c0-0.104-0.051-0.153-0.152-0.153zM108.615 1.494c-0.152 0.305-0.305 2.056-0.457 5.255-0.102 0.355-0.254 1.168-0.457 2.437l0.076 0.533c-0.051 1.41-0.076 2.551-0.076 3.427l0.152 0.076 0.152-0.533v-0.761c0.037-0.305 0.115-0.457 0.229-0.457l-0.076-0.762c0.254-2.945 0.381-4.747 0.381-5.408 0.101 0 0.203-0.685 0.304-2.056v-1.294c0-0.266-0.076-0.42-0.228-0.457zM107.854 30.129h0.152v-0.152c-0.102 0.011-0.152 0.062-0.152 0.152zM108.235 17.335v0.305h0.152v-0.152c0-0.104-0.051-0.153-0.152-0.153zM108.539 18.705c0.037 0.559 0.115 0.837 0.228 0.837 0.254-0.925 0.381-1.408 0.381-1.447v-0.229l-0.609 0.839zM108.692 20.608l-0.076 0.533v1.219c0.012 0.102 0.064 0.153 0.152 0.153h0.076v-0.077c0-0.088-0.025-0.699-0.076-1.828h-0.076zM108.767 11.699c-0.051 0.266-0.076 0.418-0.076 0.457l0.076 0.381c-0.051 0-0.076 0.025-0.076 0.076h0.152v-0.914h-0.076zM109.224 5.986v0.076c0 1.473-0.076 2.361-0.229 2.666 0.051 0.279 0.076 0.483 0.076 0.609-0.102 0.686-0.152 1.117-0.152 1.295v0.152h0.076c0.127 0 0.229-0.305 0.305-0.914-0.051-0.266-0.076-0.521-0.076-0.762l0.305-0.914c0-0.647 0.127-2.119 0.381-4.417 0-0.037 0.127-0.521 0.381-1.447-0.088-0.291-0.242-0.52-0.457-0.686-0.254 0-0.381 1.193-0.381 3.579-0.051 0.003-0.127 0.257-0.229 0.763zM110.672 3.703c0 0.102-0.026 0.152-0.076 0.152l0.076 0.381v0.152c-0.217 1.701-0.344 2.589-0.381 2.666 0 0.051 0.025 0.076 0.076 0.076 0 0.634-0.152 1.371-0.457 2.209-0.051 0.279-0.076 0.483-0.076 0.609 0.051 0.102 0.076 0.177 0.076 0.228h0.076c0.457-1.32 0.686-2.234 0.686-2.741 0.101-0.508 0.203-0.812 0.305-0.914-0.102-0.229-0.152-0.482-0.152-0.762l0.229-0.761v-0.305c-0.001-0.66-0.13-0.99-0.382-0.99zM110.672 10.023c0 0.152 0.101 0.508 0.305 1.066h0.076l0.076-0.381-0.076-0.914h-0.152c-0.077 0.001-0.153 0.077-0.229 0.229zM114.326 12.917v0.305l0.077 0.381h0.076c0-0.152 0.026-0.229 0.076-0.229-0.064-0.305-0.139-0.457-0.229-0.457zM114.478 14.593v0.305h0.076v-0.305h-0.076zM114.859 18.020v0.152c0.014 0.102 0.065 0.152 0.153 0.152l0.076-0.152v-0.152h-0.229zM114.859 19.619v0.228h0.153c-0.051-0.101-0.077-0.178-0.077-0.228h-0.076zM117.601 26.777v0.229h0.229v-0.076c0-0.102-0.051-0.153-0.153-0.153h-0.076zM121.104 21.75v3.276h0.077c0-0.356 0.026-0.534 0.076-0.534l-0.076-0.152v-2.285c0-0.050 0.026-0.076 0.076-0.076-0.050-0.102-0.076-0.178-0.076-0.229h-0.077zM121.104 25.254v1.677h0.077c0-0.102 0.026-0.153 0.076-0.153l-0.076-0.151v-0.686c0-0.050 0.026-0.077 0.076-0.077-0.050-0.050-0.076-0.254-0.076-0.609h-0.077z"></path>
<path d="M124.626 0.961h1.066c2.043 0.356 3.186 0.533 3.427 0.533 0.558-0.203 0.914-0.305 1.066-0.305h1.828c0.469 0 1.128-0.025 1.98-0.076 0.102 0.051 0.178 0.076 0.229 0.076l0.533-0.076c0.139 0 0.648 0.026 1.523 0.076 0.077 0 0.305-0.051 0.686-0.152l0.533 0.076c0.164-0.101 0.318-0.152 0.457-0.152 0.088 0 0.215 0.051 0.381 0.152 0.329-0.101 0.558-0.152 0.685-0.152h0.152c0.457 0 0.686 0.203 0.686 0.609 0 1.383 0.076 2.678 0.228 3.884v0.152c-0.101 0.203-0.255 0.305-0.457 0.305-0.445-0.355-0.826-0.533-1.143-0.533h-0.835c-0.077 0-0.483 0.051-1.219 0.152-0.318-0.101-0.52-0.152-0.609-0.152-1.016 0.127-1.524 0.254-1.524 0.381l0.076 0.305c-0.15 0-0.254 1.016-0.305 3.047l0.229 0.533c-0.102 0.355-0.152 0.634-0.152 0.837l0.077 0.457c-0.051 0.28-0.077 0.559-0.077 0.838 0 0.242 0.026 0.494 0.077 0.762-0.051 0.266-0.077 0.418-0.077 0.457 0.050 0.572 0.077 1.104 0.077 1.6 0 0.051-0.028 0.127-0.077 0.229 0.101 0.203 0.152 0.482 0.152 0.837 0 0.266-0.026 0.496-0.076 0.686 0.050 0.33 0.076 0.66 0.076 0.99v0.305c0 1.523-0.076 2.285-0.229 2.285l0.077 0.152v0.99c0 0.356 0.050 0.635 0.152 0.838l-0.152 0.533c0.101 0.254 0.152 0.432 0.152 0.533-0.051 0.674-0.076 1.233-0.076 1.676 0 0.101-0.028 0.152-0.077 0.152l0.077 0.38v0.99c0 0.215-0.028 0.496-0.077 0.838l0.152 0.38c-0.102 0.229-0.152 0.558-0.152 0.99v0.534c0 0.152 0.228 0.863 0.686 2.133-0.077 0.202-0.153 0.305-0.229 0.305h-4.493c-0.559 0-0.838-0.077-0.838-0.229v-0.229l0.457-1.445v-0.838c0-0.113 0.026-0.215 0.077-0.305-0.051-0.088-0.077-0.191-0.077-0.305v-0.229c0-0.456 0.026-0.761 0.077-0.913-0.051-0.443-0.077-0.826-0.077-1.142v-1.066c0-0.393 0.026-0.748 0.077-1.066-0.051-0.254-0.077-0.584-0.077-0.99v-0.229c0-0.164 0.026-0.291 0.077-0.38l-0.153-1.219c0.051-0.445 0.077-0.826 0.077-1.142v-0.156c0-0.291-0.026-0.699-0.077-1.219l0.153-0.381-0.077-0.685 0.077-1.066-0.153-0.914c0.051-0.266 0.077-0.519 0.077-0.761v-0.305l0.228-0.305c-0.202-0.254-0.305-0.406-0.305-0.457 0.051-0.964 0.102-1.447 0.153-1.447l-0.077-0.381v-3.122c0-0.177 0.026-0.406 0.077-0.686 0-1.472-0.407-2.209-1.219-2.209-0.381-0.101-0.736-0.152-1.066-0.152h-0.609c-0.203 0-0.533 0.051-0.991 0.152-0.329-0.101-0.66-0.152-0.99-0.152-0.632 0.051-0.962 0.076-0.989 0.076-0.101-0.164-0.152-0.291-0.152-0.38 0.255-1.586 0.381-2.652 0.381-3.199v-0.229c0-0.279 0.15-0.507 0.456-0.685zM131.024 8.195l-0.228 0.305v0.152c0 0.039 0.050 0.242 0.15 0.609v0.076c-0.305 0.432-0.456 0.863-0.456 1.295 0.050 0.088 0.076 0.191 0.076 0.305 0.152 0 0.356-0.584 0.609-1.752v-0.838c0-0.101-0.051-0.152-0.152-0.152zM130.491 11.622v0.458h0.15v-0.458h-0.15zM130.567 22.969c0 0.051-0.026 0.127-0.076 0.229 0.050 0.558 0.127 1.168 0.228 1.828-0.050 0.265-0.077 0.418-0.077 0.456 0.051 0.102 0.077 0.178 0.077 0.229 0.077 0 0.152-0.077 0.228-0.229v-1.524c0-0.189-0.101-0.52-0.305-0.99h-0.075zM130.567 12.46v0.38l0.229 0.305v0.305l0.076 0.762h0.076c0-0.039 0.028-0.191 0.077-0.457 0-0.291-0.127-0.723-0.381-1.295h-0.077zM130.796 14.593l-0.153 0.533c0.356 0.812 0.534 1.295 0.534 1.447v0.533c0.014 0.102 0.064 0.152 0.152 0.152l0.077-0.152v-0.152c0-0.344-0.178-1.029-0.534-2.056v-0.305h-0.076zM130.796 17.639c0 0.203-0.028 0.304-0.077 0.304l0.077 0.381-0.077 0.458c0.050 0.088 0.077 0.215 0.077 0.38h0.15c0.051-0.507 0.077-0.889 0.077-1.143v-0.38h-0.228zM131.251 28.758l-0.15 0.609c0.062 0.305 0.139 0.457 0.228 0.457l0.077-0.38v-0.534c-0.001-0.102-0.052-0.152-0.155-0.152zM131.175 2.103v0.686c0 0.266 0.102 0.445 0.305 0.533 0.152-0.342 0.254-0.799 0.305-1.371l-0.229-0.152c-0.228 0.101-0.355 0.203-0.381 0.304zM131.251 30.053l-0.076 0.38v0.076c0.051 0 0.127 0.026 0.229 0.076l0.076-0.151-0.076-0.38h-0.153zM131.556 13.298v0.457c0.102 0.66 0.153 1.193 0.153 1.599h0.076v-0.457c-0.051-0.572-0.076-1.080-0.076-1.524l-0.153-0.075zM131.71 18.020l-0.077 0.533v0.99h0.077c0-0.088 0.025-0.545 0.076-1.371v-0.152h-0.076zM131.86 30.204v0.152h0.077v-0.152h-0.077zM132.015 25.408l-0.077 0.151v0.838h0.228l0.153-0.534c-0.102-0.304-0.204-0.454-0.304-0.454zM132.165 4.236v0.762h0.153v-0.914c-0.102 0.012-0.153 0.062-0.153 0.152zM132.165 6.597v0.99c0.014 0.101 0.065 0.152 0.153 0.152 0-0.051 0.025-0.076 0.076-0.076l-0.076-0.152v-0.914h-0.153zM132.165 8.652v0.762h0.077c0.037-0.406 0.087-0.609 0.152-0.609-0.051-0.090-0.076-0.191-0.076-0.305-0.102 0.012-0.153 0.063-0.153 0.152zM132.774 18.172v1.904l-0.076 0.761h0.152c0-0.316 0.177-1.103 0.533-2.359-0.305-0.127-0.457-0.279-0.457-0.457-0.099 0.012-0.152 0.064-0.152 0.152zM132.774 14.898v0.99h0.152c0.152-0.545 0.228-0.875 0.228-0.99v-0.533h-0.076c-0.2 0.075-0.304 0.253-0.304 0.533zM133.079 25.94v1.219l-0.305 2.97h0.152c0.203-0.596 0.305-1.689 0.305-3.275v-0.914h-0.152zM133.536 2.103c0.012 0.102 0.064 0.152 0.152 0.152v-0.152h-0.152zM134.069 4.236c0 0.051-0.025 0.127-0.076 0.229 0.051 0.102 0.076 0.178 0.076 0.229h0.914v-0.458h-0.914zM134.298 2.256v0.152h0.076v-0.152h-0.076zM135.060 2.256v0.533c0.012 0.102 0.064 0.152 0.152 0.152 0-0.127 0.025-0.33 0.076-0.609l-0.15-0.076h-0.077zM135.897 1.799c-0.051 1.332-0.076 2.322-0.076 2.97 0.15 0.051 0.228 0.102 0.228 0.152 0.255 0 0.381-0.787 0.381-2.361 0.050-0.279 0.076-0.508 0.076-0.686l-0.152-0.076h-0.457zM137.573 4.236v0.152h0.077v-0.152h-0.077zM138.181 2.56c-0.101 0.33-0.15 0.558-0.15 0.685v0.076c0.127 0 0.228-0.229 0.305-0.685l-0.155-0.076zM139.096 4.007l-0.38 0.533v0.229c0 0.115 0.229 0.191 0.685 0.229v-0.077c-0.065-0.609-0.166-0.914-0.305-0.914z"></path>
<path d="M146.959 0.885c0.166 0.102 0.293 0.152 0.381 0.152l0.381-0.076 0.456 0.076c0.164-0.101 0.318-0.152 0.458-0.152 0.15 0.051 0.228 0.102 0.228 0.152l0.762-0.076h0.305c0.355 0.012 0.533 0.064 0.533 0.152l0.152-0.076h0.457c0.050 0 0.077 0.026 0.077 0.076l0.38-0.229h0.609c0.863 0.203 1.295 0.33 1.295 0.381 1.256 1.207 1.89 1.891 1.904 2.056 0 0.026-0.026 0.127-0.076 0.305 0 0.127 0.025 0.33 0.076 0.609l-0.076 0.762c0.15 0.457 0.228 0.761 0.228 0.914v0.838c0 0.203-0.050 0.533-0.152 0.99 0.191 0.826 0.418 1.332 0.685 1.524v0.152c0 0.076-0.101 0.178-0.305 0.305h-0.15c-0.547 0-0.928-0.026-1.143-0.076-0.393 0.051-0.826 0.076-1.295 0.076h-0.534c-0.254 0-0.66-0.076-1.218-0.229-0.381 0.203-0.635 0.305-0.762 0.305-0.229-0.102-0.356-0.203-0.38-0.305v-0.229c0-0.291 0.278-0.775 0.837-1.447v-0.076l-0.077-0.457c0.102-0.242 0.153-0.469 0.153-0.686-0.458-0.762-0.965-1.143-1.524-1.143h-0.077c-0.265 0-0.494 0.026-0.685 0.076-0.266-0.051-0.522-0.076-0.762-0.076h-0.685c-0.115 0-0.215 0.026-0.305 0.076-0.305-0.088-0.457-0.164-0.457-0.229-0.101 0.088-0.508 0.166-1.219 0.229 0 0.127-0.178 0.381-0.533 0.762v0.609c0 0.369-0.028 0.647-0.077 0.837 0.050 0.33 0.077 0.661 0.077 0.99v0.914c-0.102 1.142-0.153 1.752-0.153 1.828v0.765c0 0.609 0.229 0.99 0.686 1.142 0 0.152 0.127 0.229 0.381 0.229 0.24 0 0.493-0.025 0.761-0.076l0.38 0.076 0.534-0.076 0.762 0.076 0.762-0.076c0.826 0.063 1.459 0.141 1.904 0.229 0.101 0 0.279-0.051 0.534-0.152 0.442 0.051 0.722 0.076 0.835 0.076 0.699-0.051 1.129-0.076 1.295-0.076 0.191 0.051 0.443 0.229 0.762 0.533 0.088 0.026 0.342 0.33 0.761 0.914 0.712 0.558 1.067 1.041 1.067 1.447v0.609c0 0.761-0.028 1.396-0.077 1.904 0.050 0.355 0.077 0.864 0.077 1.523-0.102 0.902-0.153 1.462-0.153 1.677v0.607c0.102 0.737 0.153 1.142 0.153 1.219-0.153 0.94-0.229 1.498-0.229 1.676 0.051 1.421 0.101 2.437 0.152 3.046-0.128 0.494-0.964 1.357-2.513 2.59-0.711-0.065-1.32-0.141-1.827-0.229-0.077 0-0.509 0.076-1.295 0.229-0.037 0-0.191-0.028-0.457-0.077-0.279 0.050-0.483 0.077-0.609 0.077-0.316-0.102-0.52-0.153-0.609-0.153-0.558 0.028-0.837 0.077-0.837 0.153-0.598-0.051-1.029-0.077-1.295-0.077h-2.59c-0.722 0-1.205-0.228-1.447-0.686-1.066-0.951-1.599-1.585-1.599-1.904v-0.99c0-0.648 0.026-1.357 0.077-2.133-0.051-0.177-0.077-0.277-0.077-0.305 0.050-0.277 0.077-0.558 0.077-0.835 0-0.381-0.229-1.016-0.686-1.904v-0.305c0.012-0.102 0.064-0.153 0.152-0.153h2.818c0.051 0 0.076 0.028 0.076 0.077l0.153-0.077h2.209c0.15 0 0.228 0.102 0.228 0.305-0.305 0.801-0.457 1.41-0.457 1.828l0.076 0.38c-0.101 0.483-0.15 0.787-0.15 0.914 0 0.762 0.432 1.193 1.295 1.295l0.533-0.076h0.152c0.52 0 0.926 0.026 1.219 0.076 0.291-0.050 0.699-0.076 1.219-0.076h0.15c0.141 0 0.293 0.051 0.458 0.152 0.278-0.050 0.507-0.077 0.685-0.077h0.229l0.076-0.38c0-0.24-0.026-0.826-0.076-1.752l0.076-0.152c-0.051-0.202-0.076-0.38-0.076-0.534 0-0.596-0.028-1.205-0.077-1.827 0.101-0.889 0.152-1.828 0.152-2.818v-0.077c0-0.405-0.483-0.685-1.448-0.837v-0.076l-0.761 0.076h-2.818c-0.115 0-0.215 0.026-0.305 0.076l-0.152-0.076c-0.166 0-0.293 0.026-0.381 0.076-0.52-0.051-0.926-0.076-1.219-0.076h-1.295c-0.469 0-1.004-0.381-1.599-1.142l-1.295-1.219v-12.261c0-0.647 0.863-1.586 2.589-2.818 0.432 0.102 0.712 0.152 0.838 0.152 0.076 0 0.305-0.051 0.685-0.152 0.102 0 0.279 0.051 0.534 0.152 0.105-0.101 0.79-0.177 2.059-0.228zM142.237 24.873v0.534c0.102 0 0.153-0.051 0.153-0.153v-0.226c0-0.104-0.051-0.155-0.153-0.155zM142.695 11.546v0.152h0.15v-0.304c-0.101 0.012-0.15 0.063-0.15 0.152zM143 3.246c0.15 0.406 0.228 0.66 0.228 0.762 0 0.037-0.026 0.191-0.077 0.457l0.077 0.381c0 0.127-0.026 0.33-0.077 0.609l0.153 2.285h-0.077c0.203 0.33 0.305 0.863 0.305 1.6v1.98l0.077 0.381h-0.077l0.077 0.152v0.609c0.037 0.304 0.113 0.457 0.228 0.457l0.077-0.152v-0.079c0-0.215-0.028-0.418-0.077-0.609l0.077-0.381c0-0.051-0.028-0.254-0.077-0.609 0.101-0.533 0.152-0.812 0.152-0.838-0.152-1.992-0.305-3.236-0.457-3.732v-1.294c0-0.279-0.026-0.634-0.077-1.066 0.051-0.102 0.077-0.178 0.077-0.229-0.203-0.381-0.305-0.711-0.305-0.99-0.076 0-0.152 0.102-0.226 0.305zM143.075 1.799v0.305h0.152v-0.152c0.001-0.104-0.050-0.153-0.152-0.153zM143.456 24.188c0 0.051-0.025 0.127-0.076 0.229 0.101 0.202 0.152 0.38 0.152 0.533h0.077l0.076-0.381-0.076-0.38h-0.153zM143.532 25.254l-0.077 0.763v0.38h0.077l0.152-0.914c-0.051-0.101-0.076-0.178-0.076-0.229h-0.076zM143.76 28.225c0 0.051-0.101 0.329-0.305 0.837l0.229 0.152c0.113 0 0.191-0.229 0.229-0.685-0.051-0.088-0.077-0.192-0.077-0.305h-0.076zM143.532 26.93v0.913c0 0.077 0.077 0.152 0.228 0.228v-0.835l0.077-0.381-0.152-0.077c-0.102 0.014-0.153 0.065-0.153 0.153zM143.685 29.9l-0.076 0.38c0.011 0.102 0.062 0.153 0.15 0.153h0.077v-0.534h-0.152zM143.76 13.45v0.229c0.014 0.102 0.065 0.152 0.153 0.152h0.15v-0.152c0-0.076-0.076-0.152-0.228-0.229h-0.076zM148.178 14.593v0.229h0.077v-0.229h-0.077zM148.559 27.463c0 0.254-0.051 0.38-0.152 0.38l0.152 1.524c-0.101 0.228-0.152 0.559-0.152 0.99 0.088 0.255 0.24 0.381 0.457 0.381l0.152-0.305c-0.102-0.215-0.178-0.648-0.229-1.295 0.102-0.203 0.153-0.381 0.153-0.534l-0.077-0.305 0.077-0.457c-0.102-0.228-0.204-0.355-0.305-0.38h-0.076zM149.93 29.595l-0.077 0.381c0.050 0.087 0.077 0.191 0.077 0.304h0.15v-0.685h-0.15zM150.385 1.875v0.305c0.014 0.102 0.065 0.152 0.153 0.152v-0.457h-0.153zM150.463 4.312c0 0.102-0.026 0.152-0.077 0.152 0.051 0.102 0.077 0.178 0.077 0.229h0.077v-0.381h-0.077zM151.91 7.13c0.152 0.342 0.229 0.723 0.229 1.142h0.076l0.152-0.533v-0.761c-0.139 0-0.293 0.050-0.457 0.152zM152.139 3.398v0.838h0.076c0.407-0.088 0.609-0.191 0.609-0.305-0.051-0.369-0.102-0.596-0.152-0.686 0.050-0.088 0.077-0.191 0.077-0.305v-0.228c-0.077 0-0.282 0.229-0.61 0.686zM152.518 19.087v1.599c0.152 0 0.254-0.203 0.305-0.609-0.152-0.584-0.229-0.914-0.229-0.99h-0.076zM152.518 27.996v0.534c0 0.545 0.152 0.9 0.457 1.064h0.152c-0.178-0.418-0.33-0.951-0.457-1.599h-0.152zM152.824 26.016v0.228c0 0.077 0.076 0.152 0.229 0.228v-0.305c0-0.099-0.051-0.151-0.153-0.151h-0.076zM153.129 27.082v0.077l0.076 0.381h0.153v-0.077l-0.077-0.381h-0.152zM153.508 24.873v0.229h0.077v-0.229h-0.077zM153.813 14.669v0.152h0.077v-0.152h-0.077zM153.813 20.608v0.305h0.077v-0.305h-0.077zM153.889 26.549v0.077c0.012 0.101 0.064 0.151 0.152 0.151v-0.228h-0.152zM153.889 29.595v0.229h0.152c-0.051-0.102-0.076-0.178-0.076-0.229h-0.076zM154.651 5.074c-0.203 0.457-0.33 1.269-0.381 2.437 0.051 0.291 0.077 0.697 0.077 1.218 0.012 0.102 0.062 0.152 0.15 0.152l0.077-0.533v-0.609l0.228-2.665h-0.152zM154.27 27.767v0.077c0.012 0.101 0.064 0.152 0.152 0.152v-0.38c-0.101 0.011-0.152 0.062-0.152 0.151zM154.346 15.583c0.050 0.102 0.076 0.178 0.076 0.229h0.229v-0.229c0-0.101-0.051-0.152-0.153-0.152-0.101 0.012-0.152 0.063-0.152 0.152zM154.346 24.34v0.381h0.076v-0.381h-0.076zM154.651 20.836c0 0.266 0.178 1.434 0.533 3.504v0.305c0.139 0.255 0.242 0.381 0.305 0.381 0-0.318-0.228-1.764-0.686-4.342-0.102 0.014-0.152 0.065-0.152 0.152zM154.727 26.016v0.228h0.076v-0.228h-0.076z"></path>
</svg>
