<!-- Generated by IcoMoon.io -->
<svg version="1.1" xmlns="http://www.w3.org/2000/svg" width="500" height="100" viewBox="0 0 115 32">
<title>contact</title>
<path d="M5.519 1.983h0.694c0.267 0 0.635 0.023 1.11 0.068l0.14-0.068c0.091 0.046 0.163 0.068 0.205 0.068 0.58-0.046 0.882-0.068 0.902-0.068l0.345 0.068 0.417-0.068c0.326 0 0.485 0.046 0.485 0.137 0.186-0.091 0.44-0.137 0.762-0.137h0.492c0.326 0 0.508 0.023 0.557 0.068 0.313-0.046 0.567-0.068 0.762-0.068h2.152c0.322 0 0.622 0.326 0.899 0.97-0.088 0.153-0.133 0.27-0.133 0.348 0.046 0 0.068 0.023 0.068 0.068 0.15-0.091 0.264-0.137 0.345-0.137 0.645 0.44 0.97 0.834 0.97 1.179 0.143 0.651 0.212 1.068 0.212 1.25v0.417c-0.14 0.879-0.208 1.459-0.208 1.735v1.39c0 0.231-0.046 0.345-0.137 0.345 0.186 0.326 0.277 0.554 0.277 0.694v0.14c0 0.068-0.068 0.137-0.205 0.208-0.094-0.046-0.163-0.068-0.208-0.068v0.137h0.557c0.277 0.199 0.417 0.407 0.417 0.625-0.104 0.186-0.635 0.277-1.595 0.277-0.254 0-0.485-0.046-0.697-0.137l-1.114 0.137c-0.358-0.046-0.755-0.068-1.179-0.068h-0.277c-0.068 0-0.163-0.091-0.28-0.277 0-0.14 0.117-0.508 0.345-1.11v-3.334c-0.055-0.208-0.449-0.417-1.179-0.622-0.046 0-0.068 0.023-0.068 0.068-0.137 0-0.205-0.023-0.205-0.068-0.697 0.046-1.205 0.068-1.53 0.068h-1.807c-0.459 0.3-0.69 0.739-0.69 1.319-0.186 0-0.277 0.326-0.277 0.97 0.228 0.117 0.345 0.3 0.345 0.554v0.694c0 0.394 0.023 0.811 0.068 1.25l-0.137 0.837c0.046 0.811 0.068 1.296 0.068 1.459 0 0.381-0.026 0.752-0.068 1.11l0.137 4.096c-0.046 1.201-0.068 2.589-0.068 4.164v1.804c0.163 0.694 0.417 1.039 0.762 1.039h3.123c0.199 0 0.453 0.026 0.762 0.068 0.508-0.241 0.762-0.521 0.762-0.834v-3.051c-0.274-0.43-0.413-0.801-0.413-1.114v-0.205c0-0.104 0.117-0.176 0.348-0.205 0.322 0 0.645 0.046 0.97 0.137 0.394-0.049 0.72-0.068 0.974-0.068h0.485c0.264 0 0.495 0.088 0.694 0.273 0.218-0.228 0.567-0.342 1.039-0.342h0.068c0.254 0 0.417 0.088 0.485 0.277-0.107 0.459-0.247 0.853-0.41 1.179 0 0.277 0.023 0.762 0.068 1.455 0 0.176-0.068 0.775-0.208 1.807v0.417c0 0.186 0.068 0.58 0.208 1.179v0.694c0 0.606-0.534 1.182-1.595 1.735-0.195 0.173-0.449 0.453-0.762 0.834-1.748-0.046-3.070-0.072-3.959-0.072h-2.566c-0.371 0-0.86 0.026-1.459 0.068-0.059-0.042-0.221-0.068-0.488-0.068l-0.694 0.072c-0.277 0-0.648-0.345-1.11-1.042-0.83-0.358-1.247-1.029-1.247-2.012v-0.068c0-0.153 0.023-0.267 0.068-0.348-0.049-0.391-0.068-0.716-0.068-0.97v-1.739c0.091-0.453 0.14-0.707 0.14-0.762v-0.834c-0.14-0.557-0.212-1.69-0.212-3.399v-1.595c0-0.199 0.068-0.847 0.208-1.947 0-0.671-0.026-2.103-0.068-4.304 0.046-0.544 0.068-0.938 0.068-1.179-0.094-0.173-0.14-0.358-0.14-0.554v-0.625c0-0.834-0.023-1.967-0.068-3.403l0.068-0.137c-0.046-0.085-0.068-0.176-0.068-0.28v-0.345c0-0.091 0.466-0.508 1.39-1.25 0-0.371 0.391-0.694 1.179-0.974zM4.34 22.252v0.625c0 0.322-0.208 0.485-0.625 0.485v0.277c0 0.303-0.023 0.602-0.068 0.899 0.049 0.371 0.117 0.56 0.208 0.56 0.15 0 0.264-0.348 0.345-1.042 0.078 0 0.15-0.114 0.205-0.345l-0.065-0.485c0.091-0.3 0.137-0.508 0.137-0.622v-0.352h-0.137zM3.715 4.62v0.137c0 0.29 0.114 0.707 0.345 1.25 0.013 0.417 0.081 0.625 0.208 0.625l0.068-0.137v-0.625c0-0.244 0.137-0.475 0.417-0.694v-0.14c0-0.173-0.117-0.381-0.348-0.625v-0.205c0.189-0.244 0.28-0.453 0.28-0.625-0.049 0-0.068-0.023-0.068-0.068-0.602 0.241-0.902 0.612-0.902 1.107zM3.715 11.77v2.084h0.068v-2.084h-0.068zM3.715 14.688v1.11h0.068v-1.11h-0.068zM4.409 27.943v0.28h0.208v-0.072c-0.049-0.091-0.068-0.163-0.068-0.208h-0.14zM4.757 12.952v0.068c0.137 0.199 0.205 0.381 0.205 0.554h0.068v-0.414c0-0.068-0.068-0.137-0.208-0.208h-0.065zM4.894 10.383c0 0.046-0.023 0.117-0.068 0.208 0.117 0.326 0.208 0.485 0.28 0.485 0-0.046 0.023-0.114 0.068-0.208-0.085-0.322-0.176-0.485-0.28-0.485zM5.311 8.856v0.14h0.068v-0.14h-0.068zM5.727 5.594v0.485h0.068v-0.485h-0.068zM5.727 22.112v0.348h0.068v-0.348h-0.068zM6.352 4.9l0.068 0.345h0.068v-0.345h-0.137zM6.561 5.734v0.068c0.023 0.602 0.091 0.902 0.208 0.902 0-0.046 0.023-0.068 0.068-0.068l-0.068-0.14v-0.277c0-0.046 0.023-0.068 0.068-0.068-0.104-0.28-0.195-0.417-0.277-0.417zM8.573 3.025v0.208h0.068v-0.208h-0.068zM8.918 26.208v0.625c0.189 0.521 0.28 1.192 0.28 2.012h0.068c0-0.033 0.023-0.173 0.068-0.417-0.091-1.009-0.205-1.745-0.345-2.224h-0.072zM9.335 3.442l-0.065 0.348v0.068c0.091 0 0.137-0.046 0.137-0.14v-0.277h-0.072zM9.547 2.956l-0.072 0.417c0.091 0 0.163-0.137 0.208-0.417h-0.137zM13.779 5.734v0.417h0.068v-0.417h-0.068zM13.779 25.514v0.14c0 0.475 0.068 1.074 0.205 1.807h0.068v-1.114l-0.065-0.834h-0.208zM13.848 6.287v0.208c0.189 0.729 0.28 1.123 0.28 1.179v1.042c0.010 0.094 0.055 0.14 0.137 0.14h0.068c0-1.146-0.137-2.002-0.417-2.569h-0.068zM14.473 9.55l-0.068 0.14v0.14c0.176 0.785 0.332 1.179 0.485 1.179 0.091 0 0.137-0.046 0.137-0.14v-0.068c0-0.498-0.182-0.915-0.554-1.25zM14.61 4.552v0.974c0.189 0.531 0.28 0.993 0.28 1.387 0.234 0.254 0.348 0.534 0.348 0.834h-0.072c0.094 0.231 0.14 0.394 0.14 0.485h0.137v-1.804c-0.205-0.267-0.459-0.892-0.762-1.875h-0.072zM15.166 22.6l-0.068 0.345c0 0.199 0.117 0.339 0.345 0.42 0-0.231 0.026-0.348 0.068-0.348-0.091-0.28-0.182-0.417-0.274-0.417h-0.072zM15.655 20.724v0.068c0.254 0.742 0.44 1.11 0.557 1.11 0.091 0 0.137-0.049 0.137-0.137v-0.348c-0.345-0.462-0.554-0.694-0.622-0.694h-0.072zM15.655 23.779v0.068c0.231 0.508 0.345 1.368 0.345 2.569l0.14 0.068 0.137-0.068-0.065-0.14c0.046-0.254 0.068-0.462 0.068-0.622-0.101 0-0.173-0.114-0.205-0.345 0-0.117 0.068-0.277 0.205-0.485v-0.212c-0.348-0.554-0.557-0.834-0.625-0.834zM15.723 4.275v0.137c0 0.277 0.114 0.417 0.345 0.417l0.068-0.137v-0.14c0-0.068-0.091-0.16-0.28-0.277h-0.133zM16.277 9.55c0 0.104-0.023 0.199-0.068 0.277l0.14 0.072 0.068-0.345h-0.14z"></path>
<path d="M21.916 2.055h0.762c0.104 0 0.199 0.023 0.277 0.068 0.081-0.046 0.176-0.068 0.277-0.068l0.485 0.068 0.345-0.068c0.189 0.091 0.326 0.137 0.417 0.137 0.176-0.091 0.381-0.137 0.625-0.137l1.455 0.345h1.042c0.485-0.137 1.019-0.254 1.595-0.345l0.485 0.068 0.277-0.068c0.186 0.046 0.345 0.068 0.485 0.068l0.277-0.068c0.163 0 0.72 0.485 1.667 1.455 0.254 0.277 0.485 0.58 0.694 0.902 0 0.091-0.023 0.137-0.068 0.137 0.049 0.625 0.068 1.087 0.068 1.39 0 0.163-0.046 1.827-0.137 4.998v1.25c0.091 0.788 0.137 1.224 0.137 1.319v3.884c0 0.326-0.046 0.58-0.137 0.762 0.091 0.534 0.137 1.182 0.137 1.947v3.468c-0.091 0.671-0.137 1.039-0.137 1.11v1.39c0 0.303 0.023 0.762 0.068 1.39-0.205 0.355-0.762 0.961-1.664 1.804-0.231 0.326-0.485 0.485-0.765 0.485l-0.339-0.068-0.137 0.072-0.417-0.072h-0.14c-0.104 0-0.199 0.026-0.277 0.068-0.081-0.042-0.195-0.068-0.348-0.068-0.15 0-0.264 0.026-0.345 0.068-0.257-0.042-0.462-0.068-0.625-0.068h-1.11l-0.417 0.072c-0.104-0.046-0.407-0.094-0.902-0.14-0.394 0.094-0.648 0.14-0.765 0.14-0.254 0-0.508-0.023-0.762-0.068-0.534 0.049-1.042 0.068-1.53 0.068h-0.554c-0.498 0-0.892-0.254-1.179-0.762-0.208 0-0.625-0.417-1.25-1.25-0.036 0-0.104-0.117-0.208-0.345l0.068-0.834v-1.595c-0.091-1.498-0.14-2.305-0.14-2.432v-4.516c0-0.355 0.026-0.68 0.068-0.97-0.042-0.228-0.068-0.531-0.068-0.902v-1.387c0.091-0.785 0.14-1.224 0.14-1.319v-2.429c-0.14-0.44-0.208-0.788-0.208-1.042 0-1.771 0.068-3.575 0.208-5.415v-0.277c0-0.29 0.254-0.567 0.762-0.834 0.57-0.925 1.172-1.387 1.807-1.387zM20.737 19.061v0.14h0.068v-0.14h-0.068zM21.086 3.582c0.091 0.381 0.137 0.635 0.137 0.762h0.14c0-0.068-0.023-0.394-0.068-0.97 0.049-0.091 0.068-0.163 0.068-0.208h-0.072c-0.137 0.046-0.205 0.186-0.205 0.417zM21.291 10.869v0.277c0.013 0.091 0.059 0.137 0.14 0.137h0.068l-0.068-0.413h-0.14zM21.776 18.436v0.14l0.072 0.345h0.068v-0.485h-0.14zM21.776 19.546v0.205c0.013 0.094 0.059 0.14 0.14 0.14h0.068v-0.14l-0.068-0.342c-0.094 0.010-0.14 0.059-0.14 0.137zM22.053 8.091l-0.205 0.28 0.137 0.485c0.14 0 0.208-0.231 0.208-0.694l-0.14-0.072zM22.125 22.672c-0.046 0.254-0.068 0.44-0.068 0.554 0.049 0.091 0.068 0.163 0.068 0.208h0.14c0-0.186 0.023-0.28 0.068-0.28-0.094-0.228-0.14-0.394-0.14-0.482h-0.068zM22.125 24.267c0.049 0.391 0.068 0.694 0.068 0.899h0.068c0-0.078 0.046-0.264 0.137-0.557-0.088-0.143-0.134-0.26-0.134-0.342h-0.14zM22.193 25.442v0.625h0.068v-0.625h-0.068zM26.637 6.011h-0.625c-0.671 0.094-1.042 0.14-1.114 0.14h-0.137c-0.049 0-0.231-0.046-0.557-0.14l-0.345 0.068v0.345c0 0.869-0.091 1.517-0.277 1.944l-0.14 14.092h-0.068l0.068 0.14v0.554c0 0.046-0.023 0.068-0.068 0.068l0.068 0.143v1.247c0 0.049-0.023 0.068-0.068 0.068 0.15 0.508 0.43 0.762 0.834 0.762l0.277 0.28-0.068 0.348c0.137 0.443 0.277 1.11 0.417 2.012 0.195 0 0.404 0.345 0.622 1.042h0.072c0.417 0 0.622-0.14 0.622-0.42l-0.068-0.967c0.094-0.15 0.14-0.29 0.14-0.417-0.14-0.173-0.208-0.339-0.208-0.488l0.068-0.345c-0.046-0.234-0.137-0.348-0.277-0.348-0.15 0.094-0.29 0.137-0.417 0.137h-0.208c-0.068 0-0.14-0.068-0.208-0.205v-0.348c0.049-0.14 0.186-0.208 0.417-0.208h0.068c0.127 0 0.267 0.049 0.417 0.14 0.303-0.091 0.508-0.14 0.622-0.14h1.459c0.068 0 0.14 0.068 0.205 0.208l-0.062 0.485c0.091 0 0.16-0.228 0.205-0.694 0.326-0.3 0.485-0.58 0.485-0.834v-0.834c0-0.44 0.023-0.879 0.068-1.315l-0.065-0.348 0.137-3.054c-0.046-0.091-0.068-0.163-0.068-0.208l0.205-0.694-0.068-0.417c0.091-0.303 0.14-0.508 0.14-0.625-0.182-0.205-0.277-0.322-0.277-0.348v-0.345c0-0.046 0.023-0.068 0.068-0.068l-0.068-0.14v-0.277c0-0.15 0.023-0.267 0.068-0.345l-0.068-0.42v-0.625c0-0.046 0.023-0.068 0.068-0.068l-0.068-0.14v-0.694c0-1.423 0.023-3.341 0.068-5.76 0.094-0.326 0.14-0.602 0.14-0.834v-0.765c-0.199 0-0.404-0.068-0.622-0.205-0.189 0.091-0.326 0.137-0.417 0.137-0.697-0.104-1.042-0.29-1.042-0.554-0.208 0.182-0.326 0.277-0.348 0.277zM23.583 27.461v0.413l0.068 0.348h0.068v-0.762h-0.137zM23.792 28.637v0.14h0.068v-0.14h-0.068zM24.348 2.885c0 0.14 0.023 0.208 0.068 0.208l-0.068 0.348v0.97c0 0.231-0.026 0.58-0.068 1.042h0.14c0-0.117 0.068-0.485 0.205-1.11v-1.459c0-0.091-0.049-0.137-0.14-0.137-0.094 0.013-0.137 0.059-0.137 0.137zM25.455 4.9v0.208l0.072 0.345h0.205c-0.091-0.417-0.137-0.648-0.137-0.694-0.094 0.013-0.14 0.059-0.14 0.14zM26.012 2.748c0 0.046-0.026 0.068-0.068 0.068 0.173 0.648 0.358 0.97 0.554 0.97h0.068c-0.068-0.694-0.254-1.039-0.554-1.039zM26.637 3.927v0.068c0.091 0.153 0.14 0.27 0.14 0.348h0.068v-0.137c-0.068-0.186-0.14-0.28-0.208-0.28zM27.884 26.556l-0.068 0.348v0.205h0.14v-0.554h-0.072zM28.79 2.885c0 0.049-0.023 0.068-0.068 0.068 0.049 0.091 0.068 0.163 0.068 0.208 0 0.186 0.023 0.602 0.068 1.25h0.068c0.094 0 0.14-0.046 0.14-0.137-0.046-0.925-0.14-1.39-0.277-1.39zM29.275 25.166c0 0.371-0.189 0.882-0.557 1.53v0.482c0.013 0.094 0.059 0.14 0.14 0.14 0.368-0.987 0.554-1.68 0.554-2.084l-0.137-0.068zM29.552 28.151h0.14v-0.277c0.228-0.749 0.345-1.286 0.345-1.595v-0.208c-0.322 0.443-0.485 1.133-0.485 2.081zM29.623 19.409h0.137c0.049-0.244 0.068-0.384 0.068-0.42-0.137 0.049-0.205 0.186-0.205 0.42zM29.828 4.692c-0.091 0.15-0.137 0.29-0.137 0.417v0.277h0.137l0.14-0.485v-0.072c0-0.091-0.049-0.137-0.14-0.137zM30.317 16.42c-0.186 0.733-0.348 1.54-0.488 2.429 0.117 0 0.303-0.694 0.557-2.081v-0.348h-0.068zM30.177 6.151l-0.068 0.485c0.068 0.186 0.137 0.277 0.205 0.277v-0.625c0.003-0.091-0.042-0.137-0.137-0.137zM30.108 22.877v0.068h0.137v-0.208c-0.091 0.013-0.137 0.062-0.137 0.14zM30.317 10.869l-0.072 0.485v1.042h0.14v-1.11l0.068-0.345-0.137-0.072zM30.317 20.584l-0.072 0.694v0.068c0.013 0.098 0.059 0.143 0.14 0.143v-0.905h-0.068zM30.662 26.628v0.413c-0.277 0.765-0.417 1.25-0.417 1.459 0.049 0.189 0.068 0.345 0.068 0.485l0.14-0.068-0.068-0.14v-0.277c0.277-0.755 0.417-1.332 0.417-1.732v-0.14h-0.14zM30.662 18.849c0 0.13-0.114 0.547-0.345 1.254 0.049 0.091 0.068 0.16 0.068 0.205h0.068l0.277-1.39v-0.068h-0.068zM30.317 21.63v0.554h0.068v-0.554h-0.068zM30.942 17.81c0 0.14-0.049 0.303-0.14 0.485h0.068c0.091 0 0.137-0.046 0.137-0.14v-0.345h-0.065zM30.802 24.82v0.417h0.068l0.068-0.417h-0.137zM31.007 3.373v0.137h0.068v-0.137h-0.068zM31.007 17.182v0.42h0.068v-0.42h-0.068zM31.704 17.81c0 0.277-0.208 1.413-0.625 3.403v0.068c0.218-0.104 0.381-0.866 0.485-2.292 0.186-0.16 0.277-0.345 0.277-0.554v-0.485c0-0.094-0.042-0.14-0.137-0.14zM31.147 28.291v0.137h0.208l0.137-0.485v-0.137c-0.055 0-0.169 0.163-0.345 0.485zM31.495 27.181v0.28h0.14l0.068-0.348v-0.072h-0.068c-0.091 0.013-0.14 0.059-0.14 0.14zM31.775 25.794c-0.098 0.15-0.14 0.287-0.14 0.413h0.068c0.068 0 0.137-0.068 0.205-0.205v-0.068c0.003-0.094-0.042-0.14-0.134-0.14zM31.775 12.536l-0.072 0.348v0.694h0.068l0.068-0.345v-0.697h-0.065zM31.775 22.046l-0.072 0.345v0.14c0.010 0.091 0.059 0.14 0.137 0.14v-0.625h-0.065zM31.98 9.065v0.277h0.14v-0.417c-0.091 0.013-0.14 0.059-0.14 0.14zM32.192 19.891c-0.098 0.394-0.163 0.974-0.212 1.739 0.091 0 0.186-0.557 0.277-1.667v-0.072h-0.065z"></path>
<path d="M36.373 1.915l0.834 0.208c0.417-0.091 0.72-0.137 0.902-0.137 0.14 0 0.303 0.046 0.485 0.137 0.176-0.091 0.358-0.137 0.557-0.137h0.205c0.856 0 1.364 0.648 1.527 1.944 0.231 0.14 0.742 1.228 1.53 3.263l1.732 4.164c0 0.104 0.117 0.381 0.348 0.834 0 0.137 0.277 0.811 0.834 2.012 0.094 0.667 0.257 1.061 0.485 1.179 0 0.117 0.28 0.765 0.834 1.944 0.049 0.694 0.163 1.042 0.345 1.042h0.14c0.14-0.046 0.208-0.186 0.208-0.417v-2.501c0-0.498 0.023-0.889 0.068-1.179-0.042-0.335-0.065-0.752-0.065-1.25v-3.263c-0.094-0.671-0.14-1.042-0.14-1.11v-1.804c0-0.326 0.046-0.58 0.14-0.762-0.094-0.345-0.14-0.534-0.14-0.554 0.091-0.348 0.14-0.671 0.14-0.974v-0.628c0-0.15-0.208-0.703-0.625-1.664v-0.072c0.15-0.137 0.267-0.208 0.345-0.208 0.186 0 0.28 0.023 0.28 0.068l0.834-0.068h3.539c0.068 0 0.14 0.068 0.205 0.208v0.208c-0.186 0.173-0.345 0.635-0.482 1.387l0.068 0.834v1.319c0 0.059-0.046 0.313-0.137 0.762v2.986c0 0.326 0.046 0.58 0.137 0.762-0.046 0.257-0.068 0.44-0.068 0.557 0 0.104 0.023 0.199 0.068 0.277l-0.068 0.485c0 0.15 0.023 0.544 0.068 1.179l-0.137 0.557 0.137 0.622c-0.091 0.186-0.137 0.44-0.137 0.765v2.432c0 0.498 0.023 0.915 0.068 1.254-0.049 0.287-0.068 0.68-0.068 1.175v0.14c0 0.303 0.046 1.227 0.137 2.781-0.091 0.413-0.137 0.716-0.137 0.899v0.485l-0.208 0.28v0.554l0.14 0.208v0.068c0 0.13-0.049 0.267-0.14 0.417 0.049 1.029 0.091 1.654 0.14 1.875-0.049 0.078-0.068 0.521-0.068 1.315 0.068 0 0.254 0.208 0.557 0.625v0.137l-0.14 0.208-0.834-0.068h-0.417c-0.427 0-1.029 0.026-1.804 0.068-0.094-0.046-0.163-0.068-0.208-0.068-0.186 0.049-0.345 0.068-0.485 0.068-0.218 0-0.427-0.326-0.622-0.974-0.208-0.287-0.694-1.423-1.459-3.403-0.15-0.186-1.328-2.983-3.539-8.394-0.339-0.651-0.612-1.322-0.834-2.015-0.394-1.074-0.648-1.631-0.762-1.664v-0.619c0-0.176-0.114-0.358-0.345-0.557v-0.208c0-0.036 0.114-0.15 0.345-0.345v-0.212l-0.345 0.068c-0.068 0-0.28-0.163-0.625-0.485-0.137 0.498-0.205 0.798-0.205 0.902v0.068c0.091 0.788 0.137 1.228 0.137 1.319v0.834c0 0.15-0.046 0.475-0.137 0.97 0.15 0.417 0.241 0.625 0.277 0.625-0.046 0.625-0.068 1.088-0.068 1.387v0.768c0 0.834-0.023 1.644-0.068 2.432 0.049 0.401 0.068 0.749 0.068 1.035-0.046 0.847-0.068 1.381-0.068 1.599l0.068 0.625c-0.137 0.635-0.205 1.026-0.205 1.175 0.137 0.231 0.205 0.466 0.205 0.694v0.14c0 0.648-0.023 1.527-0.068 2.641 0.013 0.326 0.221 0.742 0.625 1.25v0.137c0 0.026-0.049 0.094-0.14 0.208-0.544-0.046-0.934-0.068-1.179-0.068h-2.637c-0.244 0-0.635 0.026-1.179 0.068-0.094-0.15-0.14-0.29-0.14-0.417l0.762-1.179c-0.049-0.694-0.068-1.201-0.068-1.527v-0.625c0-0.218 0.023-0.449 0.068-0.694-0.14-0.752-0.205-3.044-0.205-6.87v-3.194c0-0.371 0.023-0.856 0.068-1.459-0.046-0.081-0.068-0.199-0.068-0.345l0.068-0.625c0-0.046-0.023-0.231-0.068-0.554 0.046-0.313 0.068-0.567 0.068-0.765 0-0.231-0.046-0.345-0.137-0.345 0.046-0.762 0.068-1.341 0.068-1.735v-2.849c0-0.046 0.046-0.231 0.137-0.554-0.107-0.15-0.153-0.29-0.153-0.417 0-0.081 0.091-0.29 0.277-0.625-0.091-0.267-0.186-0.938-0.277-2.012-0.036 0-0.153-0.186-0.348-0.554v-0.212c0-0.15 0.394-0.241 1.179-0.277zM36.441 3.927l-0.277 1.042v0.208l0.068 0.417c-0.091 0.186-0.14 0.348-0.14 0.485 0.091 0.15 0.14 0.267 0.14 0.345h0.137c0.049-0.417 0.094-1.224 0.14-2.429v-0.068h-0.068zM36.441 24.059c0.091 0.29 0.14 0.475 0.14 0.554h0.068c0.186-1.286 0.277-2.276 0.277-2.983v-0.417c-0.218 0-0.378 0.951-0.485 2.846zM37.206 26.833c-0.186 0.475-0.345 1.052-0.482 1.735v0.485c0.010 0.091 0.059 0.14 0.137 0.14 0-0.371 0.14-0.974 0.417-1.807v-0.554h-0.072zM37.138 2.471l-0.14 0.208c0.199 0.059 0.335 0.173 0.417 0.345v1.319h0.068l0.068-0.345v-0.28c0-0.241-0.026-0.635-0.068-1.179l-0.345-0.068zM37.206 25.654v0.28h0.068v-0.28h-0.068zM37.555 14.825v0.625c0.091 0 0.137-0.046 0.137-0.137v-0.348c0-0.094-0.042-0.14-0.137-0.14zM38.525 2.54c-0.137 0.277-0.277 1.875-0.417 4.79-0.091 0.326-0.231 1.065-0.417 2.221l0.068 0.485c-0.049 1.286-0.068 2.325-0.068 3.123l0.14 0.068 0.14-0.485v-0.69c0.033-0.277 0.101-0.417 0.205-0.417l-0.068-0.694c0.231-2.683 0.345-4.327 0.345-4.93 0.091 0 0.189-0.625 0.28-1.875v-1.179c0-0.244-0.068-0.381-0.208-0.417zM37.831 28.637h0.14v-0.137c-0.094 0.010-0.14 0.059-0.14 0.137zM38.18 16.98v0.273h0.14v-0.137c0-0.091-0.049-0.137-0.14-0.137zM38.457 18.227c0.036 0.508 0.104 0.762 0.208 0.762 0.231-0.843 0.345-1.286 0.345-1.315v-0.212l-0.554 0.765zM38.597 19.963l-0.072 0.485v1.11c0.013 0.091 0.059 0.14 0.14 0.14h0.068v-0.068c0-0.081-0.026-0.635-0.068-1.667h-0.068zM38.665 11.842c-0.049 0.241-0.068 0.381-0.068 0.417l0.068 0.345c-0.049 0-0.068 0.023-0.068 0.068h0.14v-0.83h-0.072zM39.082 6.636v0.068c0 1.341-0.068 2.152-0.208 2.429 0.049 0.254 0.068 0.44 0.068 0.554-0.091 0.625-0.137 1.019-0.137 1.179v0.14h0.068c0.117 0 0.208-0.277 0.28-0.834-0.049-0.244-0.068-0.475-0.068-0.694l0.277-0.834c0-0.589 0.117-1.931 0.345-4.024 0-0.036 0.117-0.475 0.345-1.319-0.078-0.267-0.218-0.475-0.417-0.622-0.228 0-0.345 1.087-0.345 3.262-0.046 0-0.117 0.231-0.208 0.694zM40.401 4.552c0 0.094-0.026 0.14-0.068 0.14l0.068 0.345v0.14c-0.199 1.55-0.316 2.361-0.348 2.429 0 0.049 0.026 0.068 0.068 0.068 0 0.58-0.137 1.25-0.417 2.012-0.046 0.254-0.068 0.44-0.068 0.554 0.049 0.094 0.068 0.163 0.068 0.208h0.068c0.417-1.201 0.625-2.035 0.625-2.497 0.091-0.462 0.186-0.742 0.277-0.834-0.091-0.208-0.14-0.44-0.14-0.694l0.208-0.694v-0.277c0.007-0.599-0.111-0.902-0.342-0.902zM40.401 10.312c0 0.137 0.091 0.462 0.277 0.97h0.068l0.068-0.345-0.068-0.834h-0.14c-0.068 0.003-0.137 0.072-0.205 0.208zM43.731 12.952v0.277l0.068 0.345h0.068c0-0.137 0.023-0.208 0.068-0.208-0.052-0.274-0.124-0.413-0.205-0.413zM43.871 14.479v0.277h0.068v-0.277h-0.068zM44.217 17.602v0.14c0.013 0.088 0.059 0.137 0.14 0.137l0.068-0.137v-0.14h-0.208zM44.217 19.061v0.208h0.14c-0.049-0.094-0.068-0.166-0.068-0.208h-0.072zM46.717 25.582v0.208h0.208v-0.068c0-0.091-0.049-0.14-0.14-0.14h-0.068zM49.908 21.004v2.983h0.068c0-0.326 0.023-0.482 0.068-0.482l-0.065-0.14v-2.087c0-0.046 0.023-0.068 0.068-0.068-0.049-0.091-0.068-0.163-0.068-0.205h-0.072zM49.908 24.199v1.524h0.068c0-0.091 0.023-0.14 0.068-0.14l-0.065-0.14v-0.622c0-0.046 0.023-0.068 0.068-0.068-0.049-0.046-0.068-0.228-0.068-0.554h-0.072z"></path>
<path d="M53.118 2.055h0.974c1.859 0.322 2.904 0.485 3.123 0.485 0.508-0.186 0.834-0.277 0.974-0.277h1.667c0.427 0 1.026-0.023 1.804-0.068 0.091 0.046 0.163 0.068 0.208 0.068l0.482-0.068c0.127 0 0.593 0.023 1.39 0.068 0.068 0 0.277-0.046 0.622-0.14l0.485 0.068c0.153-0.091 0.29-0.137 0.417-0.137 0.081 0 0.199 0.046 0.345 0.137 0.306-0.091 0.508-0.137 0.628-0.137h0.14c0.413 0 0.622 0.186 0.622 0.554 0 1.26 0.068 2.442 0.205 3.539v0.137c-0.088 0.186-0.228 0.277-0.413 0.277-0.407-0.322-0.749-0.485-1.042-0.485h-0.759c-0.068 0-0.44 0.046-1.11 0.137-0.29-0.091-0.475-0.137-0.557-0.137-0.925 0.117-1.39 0.231-1.39 0.345l0.068 0.277c-0.137 0-0.231 0.925-0.277 2.777l0.205 0.485c-0.091 0.326-0.137 0.58-0.137 0.762l0.068 0.417c-0.049 0.254-0.068 0.508-0.068 0.762 0 0.221 0.023 0.453 0.068 0.694-0.049 0.244-0.068 0.381-0.068 0.417 0.046 0.521 0.068 1.006 0.068 1.459 0 0.046-0.026 0.117-0.068 0.208 0.091 0.186 0.137 0.44 0.137 0.762 0 0.244-0.023 0.453-0.068 0.625 0.046 0.3 0.068 0.602 0.068 0.905v0.273c0 1.39-0.068 2.087-0.205 2.087l0.068 0.137v0.902c0 0.326 0.046 0.58 0.137 0.762l-0.137 0.485c0.091 0.228 0.137 0.394 0.137 0.482-0.046 0.615-0.068 1.127-0.068 1.53 0 0.091-0.026 0.137-0.068 0.137l0.068 0.348v0.902c0 0.199-0.026 0.453-0.068 0.762l0.137 0.345c-0.091 0.205-0.137 0.508-0.137 0.899v0.488c0 0.137 0.205 0.785 0.622 1.941-0.068 0.189-0.137 0.28-0.205 0.28h-4.090c-0.508 0-0.762-0.068-0.762-0.208v-0.189l0.417-1.319v-0.765c0-0.101 0.023-0.199 0.068-0.277-0.049-0.078-0.072-0.176-0.072-0.277v-0.208c0-0.417 0.023-0.694 0.068-0.834-0.046-0.407-0.068-0.749-0.068-1.042v-0.97c0-0.358 0.023-0.684 0.068-0.97-0.046-0.234-0.068-0.534-0.068-0.902v-0.212c0-0.15 0.023-0.267 0.068-0.345l-0.137-1.11c0.046-0.407 0.068-0.752 0.068-1.042v-0.14c0-0.264-0.026-0.635-0.068-1.11l0.137-0.345-0.068-0.625 0.068-0.97-0.137-0.834c0.046-0.244 0.068-0.475 0.068-0.694v-0.28l0.205-0.277c-0.186-0.231-0.277-0.371-0.277-0.417 0.046-0.879 0.091-1.319 0.137-1.319l-0.068-0.348v-2.846c0-0.163 0.023-0.371 0.068-0.625 0-1.341-0.368-2.012-1.11-2.012-0.345-0.091-0.671-0.137-0.97-0.137h-0.557c-0.186 0-0.485 0.046-0.902 0.137-0.303-0.091-0.602-0.137-0.902-0.137-0.58 0.046-0.879 0.068-0.899 0.068-0.094-0.15-0.14-0.267-0.14-0.348 0.231-1.446 0.345-2.419 0.345-2.917v-0.205c0.003-0.254 0.14-0.462 0.417-0.625zM58.95 8.648l-0.208 0.277v0.137c0 0.036 0.049 0.221 0.14 0.557v0.068c-0.277 0.394-0.417 0.788-0.417 1.179 0.046 0.081 0.068 0.176 0.068 0.277 0.137 0 0.326-0.534 0.554-1.595v-0.759c0-0.094-0.042-0.14-0.137-0.14zM58.465 11.77v0.417h0.14v-0.417h-0.14zM58.536 22.112c0 0.052-0.026 0.117-0.068 0.208 0.046 0.508 0.114 1.065 0.205 1.667-0.046 0.241-0.068 0.381-0.068 0.417 0.046 0.091 0.068 0.163 0.068 0.205 0.068 0 0.14-0.068 0.208-0.205v-1.39c0-0.173-0.091-0.472-0.277-0.902h-0.068zM58.536 12.536v0.348l0.205 0.277v0.277l0.068 0.694h0.068c0-0.033 0.023-0.173 0.068-0.417 0-0.267-0.117-0.658-0.345-1.179h-0.065zM58.742 14.479l-0.137 0.485c0.322 0.742 0.482 1.182 0.482 1.319v0.485c0.013 0.091 0.062 0.14 0.14 0.14l0.068-0.14v-0.14c0-0.313-0.163-0.938-0.485-1.875v-0.274h-0.068zM58.742 17.254c0 0.189-0.023 0.28-0.068 0.28l0.068 0.345-0.068 0.417c0.049 0.081 0.068 0.199 0.068 0.345h0.14c0.046-0.462 0.068-0.811 0.068-1.039v-0.348h-0.208zM59.158 27.39l-0.137 0.554c0.059 0.28 0.127 0.42 0.205 0.42l0.068-0.348v-0.485c0.003-0.094-0.046-0.14-0.137-0.14zM59.087 3.093v0.625c0 0.244 0.091 0.407 0.28 0.485 0.137-0.313 0.228-0.729 0.277-1.25l-0.205-0.137c-0.212 0.094-0.326 0.186-0.352 0.277zM59.158 28.568l-0.068 0.345v0.068c0.049 0 0.117 0.023 0.208 0.068l0.068-0.14-0.068-0.345h-0.14zM59.438 13.298v0.414c0.091 0.602 0.137 1.088 0.137 1.459h0.068v-0.413c-0.049-0.521-0.068-0.983-0.068-1.387l-0.137-0.072zM59.575 17.602l-0.068 0.482v0.902h0.068c0-0.078 0.023-0.495 0.068-1.247v-0.137h-0.068zM59.715 28.705v0.14h0.068v-0.14h-0.068zM59.855 24.339l-0.068 0.137v0.762h0.205l0.14-0.485c-0.094-0.277-0.186-0.413-0.277-0.413zM59.992 5.037v0.694h0.14v-0.83c-0.094 0.010-0.14 0.055-0.14 0.137zM59.992 7.189v0.902c0.013 0.091 0.059 0.137 0.14 0.137 0-0.046 0.023-0.068 0.068-0.068l-0.068-0.14v-0.83h-0.14zM59.992 9.065v0.694h0.068c0.036-0.371 0.078-0.554 0.14-0.554-0.049-0.081-0.068-0.176-0.068-0.277-0.094 0.010-0.14 0.055-0.14 0.137zM60.549 17.742v1.732l-0.068 0.697h0.14c0-0.293 0.163-1.009 0.482-2.155-0.277-0.114-0.417-0.254-0.417-0.413-0.094 0.013-0.137 0.059-0.137 0.14zM60.549 14.756v0.902h0.137c0.14-0.498 0.208-0.798 0.208-0.902v-0.485h-0.068c-0.186 0.068-0.277 0.231-0.277 0.485zM60.825 24.82v1.114l-0.277 2.702h0.137c0.189-0.541 0.28-1.537 0.28-2.982v-0.834h-0.14zM61.242 3.093c0.013 0.094 0.059 0.14 0.14 0.14v-0.14h-0.14zM61.727 5.037c0 0.046-0.023 0.117-0.068 0.208 0.049 0.091 0.068 0.163 0.068 0.208h0.834v-0.417h-0.834zM61.932 3.233v0.137h0.068v-0.137h-0.068zM62.629 3.233v0.485c0.010 0.094 0.059 0.14 0.137 0.14 0-0.117 0.026-0.3 0.068-0.557l-0.137-0.068h-0.068zM63.394 2.816c-0.049 1.215-0.068 2.116-0.068 2.709 0.14 0.046 0.205 0.091 0.205 0.137 0.231 0 0.348-0.716 0.348-2.152 0.046-0.254 0.068-0.462 0.068-0.625l-0.137-0.068h-0.417zM64.918 5.037v0.14h0.068v-0.14h-0.068zM65.478 3.51c-0.094 0.303-0.14 0.511-0.14 0.625v0.068c0.117 0 0.212-0.208 0.273-0.625l-0.133-0.068zM66.312 4.829l-0.348 0.485v0.208c0 0.104 0.208 0.173 0.622 0.208v-0.068c-0.059-0.554-0.147-0.834-0.273-0.834z"></path>
<path d="M71.945 1.983h0.28c0.326 0 0.58 0.046 0.762 0.137 0.208-0.091 0.44-0.137 0.694-0.137 0.186 0 0.606 0.023 1.247 0.068 0.094-0.046 0.166-0.068 0.208-0.068 0.234 0.091 0.394 0.137 0.488 0.137 0.319-0.091 0.58-0.137 0.762-0.137 0.241 0 0.427 0.117 0.554 0.345v0.212c0 0.059-0.046 0.313-0.14 0.762v0.208l0.974 4.373 1.114 5.346c0.228 0.612 0.508 1.931 0.834 3.953 0.459 2.1 0.694 3.344 0.694 3.751 0.088 0.010 0.14 0.059 0.14 0.137v1.53c0.319 0.205 0.482 0.58 0.482 1.11 0.186 0 0.3 0.557 0.348 1.664 0.127 0 0.241 0.648 0.342 1.947 0.622 0.847 1 1.582 1.114 2.221-0.068 0-0.14 0.068-0.208 0.208-0.928-0.046-1.621-0.068-2.081-0.068h-0.902c-0.127 0-0.267-0.046-0.42-0.14-0.3 0.094-0.508 0.14-0.622 0.14h-0.762c-0.068 0-0.166-0.091-0.28-0.277v-0.072c0.14-0.44 0.208-0.716 0.208-0.834v-0.834c-0.14-0.404-0.28-1.097-0.42-2.084-0.127-0.059-0.241-0.381-0.342-0.974-0.267 0-0.495-0.114-0.694-0.342-0.466 0.046-0.814 0.068-1.042 0.068h-2.501c-0.879 0-1.387 0.322-1.527 0.97-0.101 0.658-0.241 1.283-0.42 1.872-0.046 0.081-0.065 0.199-0.065 0.348v0.97c0 0.231 0.046 0.508 0.133 0.834-0.088 0.277-0.186 0.417-0.273 0.417h-0.208c-0.153 0-0.267-0.023-0.348-0.068l-0.413 0.068h-0.208c-0.355 0-0.68-0.023-0.974-0.068l-0.482 0.068c-0.14 0-0.3-0.023-0.482-0.068-0.446 0.049-0.86 0.068-1.254 0.068h-0.482c-0.094 0-0.14-0.046-0.14-0.14v-0.068c0-0.205 0.208-0.58 0.622-1.11 0-0.186 0.114-0.671 0.348-1.455 0.459-2.419 0.948-4.64 1.455-6.665 0.14-0.925 0.482-2.566 1.042-4.93 0-0.195 0.088-0.381 0.273-0.554v-0.068c0-0.104-0.020-0.195-0.068-0.277 0.326-1.481 0.488-2.429 0.488-2.846 0.147 0 0.267-0.485 0.342-1.459 0.234-0.707 0.606-2.302 1.114-4.79 0.186-0.635 0.28-1.006 0.28-1.11v-0.902c0-0.244-0.026-0.635-0.068-1.179 0.173-0.14 0.332-0.212 0.485-0.212zM67.367 27.25v0.557c0 0.231-0.026 0.576-0.068 1.039h0.068c0.088 0 0.14-0.046 0.14-0.14v-1.455h-0.14zM70.831 23.847v0.208c0.094 0 0.14-0.046 0.14-0.14v-0.068h-0.14zM71.603 8.3v0.345c0.007 0.094 0.059 0.14 0.133 0.14v-0.485h-0.133zM71.876 12.676v0.277c0 0.602 0.068 0.902 0.208 0.902 0.046-0.544 0.068-0.938 0.068-1.179v-0.072l0.273-0.417v-0.208c-0.156 0.3-0.342 0.534-0.55 0.697zM72.016 7.258c0 0.091-0.026 0.137-0.068 0.137 0 0.199 0.114 0.498 0.348 0.902 0 0.879 0.068 1.319 0.205 1.319v-0.133c0-0.681-0.114-1.423-0.342-2.221h-0.143zM72.225 14.271v0.208c0.046 0 0.114 0.023 0.205 0.068l0.208-0.277v-0.208c-0.147 0.137-0.287 0.208-0.413 0.208zM72.365 6.427v0.277h0.065v-0.277h-0.065zM72.365 15.241v0.068l0.065 0.345h0.068l0.068-0.345-0.14-0.068h-0.062zM72.498 19.269v0.413c0 0.062 0.208 0.267 0.628 0.625h2.361c0.14 0 0.273-0.322 0.413-0.97-0.368-1.96-0.808-4.015-1.315-6.18 0-0.498-0.094-0.961-0.28-1.387h-0.068c-0.147 0-0.339 0.716-0.554 2.152-0.267 0.892-0.453 1.908-0.554 3.057-0.14 0-0.254 0.508-0.348 1.527-0.189 0.182-0.283 0.436-0.283 0.762zM72.71 4.552v0.765h0.068v-0.765h-0.068zM72.99 12.884c-0.186 0.485-0.28 0.785-0.28 0.902 0.186 0 0.3-0.277 0.348-0.834v-0.068h-0.068zM72.71 22.112v0.56c0.094 0 0.14-0.049 0.14-0.14v-0.28c0-0.088-0.046-0.14-0.14-0.14zM72.918 2.885l0.208 0.277c0 0.199-0.052 0.381-0.14 0.554 0.186 0 0.342 0.742 0.482 2.224 0.153 0 0.381 0.576 0.694 1.735l0.14-0.068-0.068-0.345v-0.488c-0.088-0.671-0.14-1.039-0.14-1.11v-0.417l-0.205 0.137h-0.14c-0.14-0.046-0.208-0.186-0.208-0.417v-1.872c-0.046-0.137-0.186-0.208-0.413-0.208h-0.208zM72.918 6.427v0.277c0.013 0.091 0.059 0.137 0.14 0.137h0.068v-0.205l-0.068-0.345c-0.094 0.010-0.14 0.055-0.14 0.137zM73.127 11.354l-0.068 0.625v0.208h0.068c0-0.345 0.068-0.554 0.205-0.625-0.046-0.091-0.072-0.163-0.072-0.208h-0.133zM73.058 12.259v0.345h0.068v-0.345h-0.068zM73.332 7.329l-0.072 0.345v0.277c0 0.29 0.208 0.752 0.628 1.387 0 0.326 0.068 0.648 0.205 0.97h0.068v-0.895c0-0.14-0.205-0.534-0.622-1.182 0-0.602-0.068-0.902-0.208-0.902zM75.487 21.004c0 0.068-0.094 0.16-0.28 0.273h-0.14c-0.173-0.137-0.313-0.205-0.413-0.205l-0.14 0.205v0.14c0 0.244 0.088 0.407 0.28 0.485 0.020 0 0.133-0.091 0.342-0.277h0.068c0.186 0.091 0.28 0.228 0.28 0.417h0.068l0.068-0.485v-0.417c0.007-0.091-0.046-0.137-0.133-0.137zM74.725 22.737c-0.094 0.303-0.14 0.511-0.14 0.625h0.208c0.088 0 0.133-0.049 0.133-0.14v-0.277c0-0.068-0.062-0.137-0.202-0.208zM74.927 6.912c-0.088 0.29-0.133 0.475-0.133 0.554 0.088 0.345 0.133 0.58 0.133 0.694 0 0.081-0.046 0.218-0.133 0.417 0.088 0.322 0.133 0.602 0.133 0.834v0.554h0.068c0.068 0 0.166-0.345 0.28-1.042l-0.068-0.345v-1.179c0-0.254-0.088-0.417-0.28-0.485zM75.419 12.396l-0.14 0.28c0.14 0.335 0.208 0.544 0.208 0.625h0.14v-0.14c0-0.511-0.068-0.765-0.208-0.765zM75.487 22.6v0.277h0.068v-0.277h-0.068zM75.972 15.241v0.137c0 0.104 0.026 0.199 0.068 0.277-0.046 0.081-0.068 0.173-0.068 0.277v0.277c0.013 0.094 0.059 0.14 0.14 0.14l0.068-0.14v-1.104h-0.068c-0.098 0.010-0.14 0.055-0.14 0.137zM76.041 14.339v0.14h0.14v-0.14h-0.14zM76.041 23.153v0.068c0.013 0.091 0.059 0.14 0.14 0.14 0.088 0 0.14-0.049 0.14-0.14v-0.277h-0.068c-0.072 0-0.143 0.068-0.212 0.208zM76.181 21.004v0.834c0.013 0.088 0.059 0.137 0.14 0.137v-0.97h-0.14zM76.249 5.662v0.345h0.14v-0.345h-0.14zM76.523 17.879l-0.065 0.137v0.28c0 0.068 0.065 0.14 0.205 0.208h0.068v-0.208c0.003-0.241-0.068-0.381-0.208-0.417zM76.734 20.031l-0.068 0.14c0.186 0.205 0.28 0.326 0.28 0.342v0.557c0 0.049-0.026 0.068-0.068 0.068l0.068 0.137v1.257c0 0.241-0.026 0.635-0.068 1.179l0.208 0.137h0.068v-0.97c0-0.218 0.020-0.453 0.068-0.697-0.052-0.186-0.068-0.368-0.068-0.554 0.046-0.811 0.068-1.296 0.068-1.455-0.234-0.094-0.394-0.14-0.488-0.14zM76.874 15.313c0 0.15-0.026 0.267-0.068 0.345 0.094 0.326 0.14 0.602 0.14 0.834v0.277c0 0.046-0.026 0.068-0.068 0.068 0.046 0.094 0.068 0.16 0.068 0.208l0.482-0.068c0.094 0.114 0.14 0.205 0.14 0.273-0.088 0.153-0.14 0.293-0.14 0.42 0.14 0.16 0.208 0.342 0.208 0.554h0.068l0.068-0.417-0.068-0.345c0.046-0.313 0.068-0.567 0.068-0.762-0.046-0.163-0.068-0.254-0.068-0.277-0.254 0.231-0.394 0.348-0.413 0.348-0.153 0-0.247-0.303-0.28-0.902v-0.554h-0.137zM76.943 13.161c0 0.046-0.026 0.068-0.068 0.068 0 0.046 0.026 0.068 0.068 0.068l-0.068 0.348v0.068l0.068 0.348h-0.068l0.14 0.345-0.068 0.417c0.013 0.091 0.059 0.137 0.14 0.137l0.14-0.208c-0.094-0.15-0.14-0.287-0.14-0.417v-0.065c0-0.163 0.020-0.371 0.068-0.625-0.059-0.326-0.127-0.485-0.212-0.485zM77.154 19.269v0.14c0.013 0.088 0.059 0.137 0.14 0.137l0.065-0.137v-0.14h-0.205zM77.496 14.756v0.14c0.094 0.326 0.14 0.58 0.14 0.762h0.14v-0.068c0-0.114-0.068-0.394-0.208-0.834h-0.072zM78.056 19.409l-0.068 0.273 0.14 0.068h0.065c0.094 0 0.14-0.046 0.14-0.137-0.046-0.091-0.068-0.163-0.068-0.205h-0.208zM78.61 17.602v0.208h0.14v-0.348c-0.094 0.013-0.14 0.059-0.14 0.14zM78.89 29.057l0.342 0.068c0.094-0.153 0.14-0.267 0.14-0.348h-0.14c-0.228 0.117-0.342 0.208-0.342 0.28zM79.997 24.404v0.137h0.068v-0.137h-0.068zM80.065 28.637v0.14h0.068v-0.14h-0.068zM80.485 26.696v0.482c0.007 0.094 0.059 0.14 0.133 0.14v-0.622h-0.133z"></path>
<path d="M85.656 1.983h0.694c0.267 0 0.635 0.023 1.114 0.068l0.14-0.068c0.088 0.046 0.16 0.068 0.205 0.068 0.58-0.046 0.882-0.068 0.902-0.068l0.348 0.068 0.413-0.068c0.326 0 0.488 0.046 0.488 0.137 0.186-0.091 0.44-0.137 0.762-0.137h0.482c0.326 0 0.508 0.023 0.56 0.068 0.313-0.046 0.567-0.068 0.762-0.068h2.149c0.326 0 0.622 0.326 0.902 0.97-0.094 0.15-0.14 0.267-0.14 0.345 0.046 0 0.068 0.023 0.068 0.068 0.153-0.091 0.267-0.137 0.348-0.137 0.641 0.44 0.967 0.834 0.967 1.179 0.14 0.648 0.208 1.065 0.208 1.25v0.417c-0.14 0.879-0.208 1.459-0.208 1.735v1.39c0 0.231-0.046 0.345-0.133 0.345 0.186 0.326 0.273 0.554 0.273 0.694v0.14c0 0.068-0.068 0.137-0.205 0.208-0.094-0.046-0.166-0.068-0.208-0.068v0.137h0.554c0.28 0.199 0.42 0.407 0.42 0.625-0.107 0.186-0.635 0.277-1.595 0.277-0.254 0-0.488-0.046-0.7-0.137l-1.107 0.137c-0.361-0.046-0.755-0.068-1.182-0.068h-0.273c-0.068 0-0.166-0.091-0.28-0.277 0-0.14 0.114-0.508 0.342-1.11v-3.331c-0.059-0.208-0.446-0.417-1.175-0.622-0.046 0-0.068 0.023-0.068 0.068-0.14 0-0.208-0.023-0.208-0.068-0.694 0.046-1.201 0.068-1.527 0.068h-1.801c-0.459 0.3-0.694 0.742-0.694 1.319-0.186 0-0.273 0.326-0.273 0.97 0.228 0.117 0.342 0.3 0.342 0.554v0.694c0 0.394 0.026 0.811 0.068 1.25l-0.14 0.834c0.046 0.811 0.068 1.296 0.068 1.459 0 0.381-0.026 0.752-0.068 1.11l0.14 4.096c-0.046 1.201-0.068 2.589-0.068 4.164v1.804c0.166 0.694 0.42 1.039 0.762 1.039h3.123c0.199 0 0.453 0.026 0.762 0.068 0.508-0.241 0.762-0.521 0.762-0.834v-3.048c-0.273-0.43-0.413-0.801-0.413-1.114v-0.205c0-0.104 0.114-0.176 0.348-0.205 0.319 0 0.641 0.046 0.967 0.137 0.394-0.049 0.72-0.068 0.974-0.068h0.488c0.26 0 0.495 0.088 0.694 0.273 0.215-0.228 0.567-0.342 1.035-0.342h0.068c0.254 0 0.42 0.088 0.488 0.277-0.114 0.462-0.254 0.856-0.42 1.179 0 0.277 0.026 0.762 0.068 1.455 0 0.176-0.068 0.775-0.208 1.807v0.417c0 0.186 0.068 0.58 0.208 1.179v0.694c0 0.606-0.534 1.182-1.595 1.735-0.199 0.173-0.453 0.453-0.762 0.834-1.748-0.046-3.064-0.068-3.956-0.068h-2.569c-0.368 0-0.86 0.026-1.455 0.068-0.059-0.046-0.221-0.068-0.488-0.068l-0.694 0.068c-0.273 0-0.648-0.345-1.107-1.042-0.834-0.355-1.254-1.026-1.254-2.009v-0.072c0-0.153 0.026-0.267 0.068-0.348-0.046-0.391-0.068-0.716-0.068-0.97v-1.739c0.094-0.453 0.14-0.707 0.14-0.762v-0.834c-0.14-0.557-0.208-1.69-0.208-3.399v-1.595c0-0.199 0.068-0.847 0.208-1.947 0-0.671-0.026-2.103-0.068-4.304 0.046-0.544 0.068-0.938 0.068-1.179-0.094-0.173-0.14-0.358-0.14-0.554v-0.625c0-0.834-0.020-1.967-0.068-3.403l0.068-0.137c-0.046-0.081-0.068-0.173-0.068-0.277v-0.348c0-0.091 0.466-0.508 1.394-1.25 0.010-0.371 0.397-0.694 1.185-0.974zM84.48 22.252v0.625c0 0.322-0.208 0.485-0.628 0.485v0.277c0 0.303-0.020 0.602-0.068 0.899 0.052 0.371 0.12 0.56 0.208 0.56 0.153 0 0.267-0.348 0.348-1.042 0.075 0 0.147-0.114 0.205-0.345l-0.065-0.485c0.088-0.3 0.133-0.508 0.133-0.622v-0.352h-0.133zM83.849 4.62v0.137c0 0.29 0.114 0.707 0.348 1.25 0.013 0.417 0.081 0.625 0.208 0.625l0.068-0.137v-0.625c0-0.244 0.133-0.475 0.413-0.694v-0.14c0-0.173-0.114-0.381-0.348-0.625v-0.205c0.192-0.244 0.28-0.453 0.28-0.625-0.046 0-0.068-0.023-0.068-0.068-0.596 0.241-0.902 0.612-0.902 1.107zM83.849 11.77v2.084h0.068v-2.084h-0.068zM83.849 14.688v1.11h0.068v-1.11h-0.068zM84.542 27.943v0.28h0.208v-0.072c-0.046-0.091-0.068-0.163-0.068-0.208h-0.14zM84.894 12.952v0.068c0.14 0.199 0.208 0.381 0.208 0.554h0.068v-0.414c0-0.068-0.068-0.137-0.208-0.208h-0.068zM85.034 10.383c0 0.046-0.026 0.117-0.068 0.208 0.114 0.326 0.208 0.485 0.28 0.485 0-0.046 0.020-0.114 0.068-0.208-0.085-0.322-0.179-0.485-0.28-0.485zM85.447 8.856v0.14h0.068v-0.14h-0.068zM85.867 5.594v0.485h0.068v-0.485h-0.068zM85.867 22.112v0.348h0.068v-0.348h-0.068zM86.489 4.9l0.068 0.345h0.068v-0.345h-0.137zM86.698 5.734v0.068c0.020 0.602 0.088 0.902 0.208 0.902 0-0.046 0.020-0.068 0.068-0.068l-0.068-0.137v-0.28c0-0.046 0.020-0.068 0.068-0.068-0.104-0.28-0.192-0.417-0.277-0.417zM88.71 3.025v0.208h0.068v-0.208h-0.068zM89.058 26.208v0.625c0.186 0.521 0.28 1.192 0.28 2.012h0.068c0-0.033 0.020-0.173 0.065-0.417-0.088-1.009-0.205-1.745-0.342-2.224h-0.072zM89.472 3.442l-0.065 0.345v0.068c0.088 0 0.133-0.046 0.133-0.14v-0.273h-0.068zM89.68 2.956l-0.068 0.417c0.094 0 0.166-0.137 0.208-0.417h-0.14zM93.916 5.734v0.417h0.068v-0.417h-0.068zM93.916 25.514v0.14c0 0.475 0.068 1.074 0.208 1.807h0.068v-1.114l-0.068-0.834h-0.208zM93.988 6.287v0.208c0.186 0.729 0.28 1.123 0.28 1.179v1.042c0.007 0.091 0.059 0.137 0.133 0.137h0.068c0-1.146-0.133-2.002-0.413-2.569h-0.068zM94.61 9.55l-0.068 0.137v0.14c0.179 0.785 0.339 1.179 0.488 1.179 0.088 0 0.133-0.046 0.133-0.14v-0.065c0-0.498-0.186-0.915-0.554-1.25zM94.75 4.552v0.974c0.186 0.531 0.28 0.993 0.28 1.387 0.228 0.254 0.342 0.534 0.342 0.834h-0.068c0.094 0.231 0.14 0.394 0.14 0.485h0.14v-1.804c-0.208-0.267-0.466-0.889-0.762-1.875h-0.072zM95.303 22.6l-0.068 0.342c0 0.199 0.12 0.339 0.348 0.42 0-0.231 0.026-0.348 0.068-0.348-0.094-0.277-0.186-0.413-0.28-0.413h-0.068zM95.792 20.724v0.068c0.254 0.742 0.44 1.11 0.554 1.11 0.094 0 0.14-0.049 0.14-0.137v-0.348c-0.348-0.462-0.554-0.694-0.622-0.694h-0.072zM95.792 23.779v0.068c0.228 0.508 0.342 1.368 0.342 2.569l0.14 0.068 0.14-0.068-0.068-0.14c0.046-0.254 0.068-0.462 0.068-0.622-0.101 0-0.173-0.114-0.208-0.345 0-0.117 0.068-0.277 0.208-0.485v-0.212c-0.348-0.554-0.55-0.834-0.622-0.834zM95.863 4.275v0.137c0 0.277 0.114 0.417 0.342 0.417l0.068-0.137v-0.14c0-0.068-0.088-0.16-0.28-0.277h-0.13zM96.417 9.55c0 0.104-0.026 0.199-0.068 0.277l0.14 0.068 0.068-0.345h-0.14z"></path>
<path d="M98.654 2.055h0.974c1.856 0.322 2.901 0.485 3.123 0.485 0.508-0.186 0.834-0.277 0.974-0.277h1.667c0.427 0 1.022-0.023 1.801-0.068 0.094 0.046 0.166 0.068 0.208 0.068l0.482-0.068c0.127 0 0.593 0.023 1.394 0.068 0.068 0 0.273-0.046 0.622-0.14l0.482 0.068c0.153-0.091 0.293-0.137 0.42-0.137 0.081 0 0.199 0.046 0.342 0.137 0.306-0.091 0.508-0.137 0.628-0.137h0.14c0.413 0 0.622 0.186 0.622 0.554 0 1.26 0.068 2.442 0.205 3.539v0.137c-0.088 0.186-0.228 0.277-0.413 0.277-0.407-0.322-0.749-0.485-1.042-0.485h-0.762c-0.068 0-0.44 0.046-1.107 0.137-0.293-0.091-0.475-0.137-0.56-0.137-0.921 0.117-1.387 0.231-1.387 0.345l0.068 0.277c-0.14 0-0.234 0.925-0.28 2.777l0.208 0.485c-0.094 0.326-0.14 0.58-0.14 0.762l0.068 0.417c-0.046 0.254-0.068 0.508-0.068 0.762 0 0.221 0.026 0.453 0.068 0.694-0.046 0.244-0.068 0.381-0.068 0.417 0.046 0.521 0.068 1.006 0.068 1.459 0 0.046-0.026 0.117-0.068 0.208 0.094 0.186 0.14 0.44 0.14 0.762 0 0.244-0.026 0.453-0.068 0.625 0.046 0.3 0.068 0.602 0.068 0.905v0.273c0 1.39-0.068 2.087-0.208 2.087l0.068 0.137v0.902c0 0.326 0.046 0.58 0.14 0.762l-0.14 0.485c0.094 0.228 0.14 0.394 0.14 0.482-0.046 0.615-0.068 1.127-0.068 1.53 0 0.091-0.026 0.137-0.068 0.137l0.068 0.348v0.902c0 0.199-0.026 0.453-0.068 0.762l0.14 0.345c-0.094 0.205-0.14 0.508-0.14 0.899v0.488c0 0.137 0.208 0.785 0.622 1.941-0.068 0.189-0.133 0.28-0.205 0.28h-4.096c-0.508 0-0.762-0.068-0.762-0.208v-0.189l0.413-1.319v-0.765c0-0.101 0.026-0.199 0.068-0.277-0.046-0.078-0.068-0.176-0.068-0.277v-0.208c0-0.417 0.026-0.694 0.068-0.834-0.046-0.407-0.068-0.749-0.068-1.042v-0.97c0-0.358 0.026-0.684 0.068-0.97-0.046-0.234-0.068-0.534-0.068-0.902v-0.212c0-0.15 0.026-0.267 0.068-0.345l-0.14-1.11c0.046-0.407 0.068-0.752 0.068-1.042v-0.14c0-0.264-0.026-0.635-0.068-1.11l0.14-0.345-0.068-0.625 0.068-0.97-0.14-0.834c0.046-0.244 0.068-0.475 0.068-0.694v-0.28l0.208-0.277c-0.186-0.231-0.28-0.371-0.28-0.417 0.046-0.879 0.094-1.319 0.14-1.319l-0.068-0.348v-2.846c0-0.163 0.026-0.371 0.068-0.625 0-1.341-0.368-2.012-1.114-2.012-0.342-0.091-0.667-0.137-0.967-0.137h-0.56c-0.186 0-0.482 0.046-0.902 0.137-0.3-0.091-0.599-0.137-0.902-0.137-0.58 0.046-0.879 0.068-0.895 0.068-0.094-0.15-0.14-0.267-0.14-0.348 0.228-1.446 0.342-2.419 0.342-2.917v-0.205c0.010-0.254 0.15-0.462 0.43-0.625zM104.485 8.648l-0.208 0.277v0.137c0 0.036 0.046 0.221 0.14 0.557v0.068c-0.28 0.394-0.42 0.788-0.42 1.179 0.046 0.081 0.068 0.176 0.068 0.277 0.14 0 0.326-0.534 0.554-1.595v-0.759c0-0.094-0.042-0.14-0.133-0.14zM103.997 11.77v0.417h0.14v-0.417h-0.14zM104.065 22.112c0 0.052-0.026 0.117-0.068 0.208 0.046 0.508 0.114 1.065 0.208 1.667-0.046 0.241-0.068 0.381-0.068 0.417 0.046 0.091 0.068 0.163 0.068 0.205 0.068 0 0.14-0.068 0.208-0.205v-1.39c0-0.173-0.094-0.472-0.28-0.902h-0.068zM104.065 12.536v0.348l0.208 0.277v0.277l0.068 0.694h0.068c0-0.033 0.020-0.173 0.068-0.417 0-0.267-0.12-0.658-0.348-1.179h-0.065zM104.277 14.479l-0.14 0.485c0.326 0.742 0.482 1.182 0.482 1.319v0.485c0.013 0.091 0.065 0.14 0.14 0.14l0.068-0.14v-0.14c0-0.313-0.16-0.938-0.482-1.875v-0.274h-0.068zM104.277 17.254c0 0.189-0.026 0.28-0.068 0.28l0.068 0.345-0.068 0.417c0.046 0.081 0.068 0.199 0.068 0.345h0.14c0.046-0.462 0.068-0.811 0.068-1.039v-0.348h-0.208zM104.69 27.39l-0.133 0.554c0.059 0.28 0.127 0.42 0.205 0.42l0.068-0.348v-0.485c0-0.094-0.046-0.14-0.14-0.14zM104.619 3.093v0.625c0 0.244 0.094 0.407 0.28 0.485 0.14-0.313 0.228-0.729 0.28-1.25l-0.208-0.137c-0.212 0.094-0.326 0.186-0.352 0.277zM104.69 28.568l-0.068 0.345v0.068c0.052 0 0.12 0.023 0.208 0.068l0.068-0.14-0.068-0.345h-0.14zM104.97 13.298v0.414c0.094 0.602 0.14 1.088 0.14 1.459h0.068v-0.413c-0.052-0.521-0.068-0.983-0.068-1.387l-0.14-0.072zM105.11 17.602l-0.072 0.485v0.902h0.068c0-0.078 0.020-0.495 0.068-1.247v-0.14h-0.065zM105.25 28.705v0.14h0.068v-0.14h-0.068zM105.39 24.339l-0.068 0.137v0.762h0.205l0.14-0.485c-0.094-0.277-0.189-0.413-0.277-0.413zM105.524 5.037v0.694h0.14v-0.83c-0.091 0.010-0.14 0.055-0.14 0.137zM105.524 7.189v0.902c0.013 0.091 0.059 0.137 0.14 0.137 0-0.046 0.026-0.068 0.068-0.068l-0.068-0.14v-0.83h-0.14zM105.524 9.065v0.694h0.068c0.039-0.371 0.081-0.554 0.14-0.554-0.046-0.081-0.068-0.176-0.068-0.277-0.091 0.010-0.14 0.055-0.14 0.137zM106.084 17.742v1.732l-0.068 0.697h0.14c0-0.293 0.16-1.009 0.482-2.155-0.28-0.114-0.42-0.254-0.42-0.413-0.091 0.013-0.133 0.059-0.133 0.14zM106.084 14.756v0.902h0.133c0.14-0.498 0.208-0.798 0.208-0.902v-0.485h-0.068c-0.186 0.068-0.273 0.231-0.273 0.485zM106.357 24.82v1.114l-0.273 2.702h0.133c0.192-0.541 0.28-1.537 0.28-2.982v-0.834h-0.14zM106.774 3.093c0.013 0.094 0.059 0.14 0.14 0.14v-0.14h-0.14zM107.259 5.037c0 0.046-0.020 0.117-0.068 0.208 0.052 0.091 0.068 0.163 0.068 0.208h0.834v-0.417h-0.834zM107.468 3.233v0.137h0.068v-0.137h-0.068zM108.161 3.233v0.485c0.013 0.094 0.059 0.14 0.14 0.14 0-0.117 0.026-0.3 0.068-0.557l-0.14-0.068h-0.068zM108.926 2.816c-0.046 1.215-0.068 2.116-0.068 2.709 0.14 0.046 0.208 0.091 0.208 0.137 0.228 0 0.348-0.716 0.348-2.152 0.046-0.254 0.065-0.462 0.065-0.625l-0.133-0.068h-0.42zM110.45 5.037v0.14h0.068v-0.14h-0.068zM111.010 3.51c-0.094 0.303-0.14 0.511-0.14 0.625v0.068c0.114 0 0.208-0.208 0.273-0.625l-0.133-0.068zM111.844 4.829l-0.348 0.485v0.208c0 0.104 0.208 0.173 0.622 0.208v-0.068c-0.055-0.554-0.147-0.834-0.273-0.834z"></path>
</svg>
