<!-- Generated by IcoMoon.io -->
<svg version="1.1" xmlns="http://www.w3.org/2000/svg" width="203" height="32" viewBox="0 0 203 32">
<title>dewinkelkar</title>
<path d="M6.338 1.298l0.732 0.073h1.32c0.28 0 0.671 0.025 1.172 0.073 0.086-0.048 0.209-0.073 0.368-0.073 0.098 0 0.146 0.025 0.146 0.073l0.88-0.073h3.225c0.611 0 1.247 0.513 1.907 1.54 0.635 0.428 0.953 0.843 0.953 1.247l-0.073 0.294 0.146 1.099c-0.146 0.795-0.221 1.771-0.221 2.933v0.586c0 0.342-0.073 0.708-0.221 1.1l0.367 0.805-0.073 0.513c0 1.722-0.049 3.776-0.146 6.157 0.098 0.489 0.146 0.929 0.146 1.32v2.273c0 1.588-0.025 3.324-0.073 5.204 0.049 0.356 0.073 1.015 0.073 1.98l-1.833 1.758c-0.257 0.343-0.501 0.513-0.734 0.513h-0.805l-0.44-0.073-0.146 0.073c-0.684-0.048-1.272-0.073-1.76-0.073h-0.367c-0.391 0-0.708 0.025-0.953 0.073-0.306-0.048-0.647-0.073-1.026-0.073h-1.1c-0.28 0-0.672 0.025-1.172 0.073-0.098-0.048-0.171-0.073-0.221-0.073-0.428 0.049-0.795 0.073-1.1 0.073h-0.292c-0.256 0-0.428-0.096-0.513-0.294v-0.512l0.073-0.44c-0.183-0.501-0.33-1.063-0.44-1.686h-0.073v0.586c0 0.195 0.024 0.391 0.073 0.586l-0.073 0.367c0.097 0.695 0.146 1.087 0.146 1.172-0.183 0.146-0.355 0.219-0.513 0.219h-0.146c-0.256 0-0.476-0.024-0.66-0.073-0.256 0.049-0.501 0.073-0.734 0.073h-0.146c-0.073 0-0.146-0.073-0.219-0.219 0.44-0.954 0.659-2.052 0.659-3.298-0.049-0.488-0.073-0.856-0.073-1.099v-7.991c0-0.049 0.025-0.073 0.073-0.073-0.049-0.245-0.098-0.367-0.146-0.367 0.049-0.805 0.073-1.417 0.073-1.833v-0.221c0-0.99-0.025-2.334-0.073-4.032 0.037-0.294 0.085-0.44 0.146-0.44-0.049-0.122-0.098-0.367-0.146-0.734 0.048-1.231 0.073-2.209 0.073-2.929v-2.126c0-0.049 0.025-0.073 0.073-0.073-0.098-0.195-0.146-0.465-0.146-0.807v-1.979c-0.245-0.599-0.367-0.917-0.367-0.953l0.221-0.146h0.44c0.207 0 0.404 0.049 0.586 0.146 0.195-0.097 0.464-0.146 0.807-0.146h0.073c0.17 0 0.365 0.098 0.586 0.294 0.085-0.195 0.256-0.294 0.513-0.294 0.233 0 0.476 0.025 0.734 0.073 0.294-0.037 0.44-0.086 0.44-0.147zM3.186 2.912v2.052h0.146v-0.367c0-0.256 0.024-0.476 0.073-0.66-0.036-0.683-0.11-1.025-0.219-1.025zM3.186 10.169v0.44h0.146v-0.44h-0.146zM3.625 23.364c0.097 0.318 0.146 0.537 0.146 0.659v2.787l0.073 0.365h0.073v-2.785c0-0.44-0.049-0.856-0.146-1.247-0.097 0-0.146 0.073-0.146 0.221zM3.846 13.028l0.146 0.073v-0.221c-0.098 0.013-0.146 0.062-0.146 0.148zM4.211 2.472c0.049 0.489 0.073 0.856 0.073 1.099v1.907h0.073c0.098-0.513 0.146-0.781 0.146-0.807l-0.073-0.367c0.037-0.294 0.085-0.44 0.146-0.44l-0.072-0.147v-0.073c0-0.049 0.025-0.073 0.073-0.073l-0.073-0.146v-0.586c0-0.207 0.073-0.477 0.221-0.807-0.049-0.098-0.074-0.171-0.074-0.221l-0.44 0.66zM4.211 19.259c0.049 0.732 0.073 1.27 0.073 1.612v0.953l0.44 2.273c0 1.417 0.195 2.126 0.586 2.126l0.294 0.146-0.073-0.88v-0.953c-0.195-0.537-0.294-0.905-0.294-1.1 0.098-0.316 0.146-0.537 0.146-0.659 0-0.44-0.268-0.953-0.807-1.539-0.133-1.32-0.255-1.979-0.365-1.979zM4.286 10.901v0.294h0.146v-0.146c-0.001-0.098-0.049-0.148-0.146-0.148zM4.724 15.373v0.44c0.195 0.391 0.342 1.272 0.44 2.639 0.159 0.635 0.306 0.953 0.44 0.953h0.146l0.073-0.367v-2.126c-0.11-0.11-0.28-0.452-0.513-1.026-0.060 0-0.255-0.17-0.586-0.513zM5.237 4.891l-0.365 3.152c0.049 0.098 0.073 0.171 0.073 0.221h0.073l0.367-2.052v-0.589l-0.073-0.732h-0.074zM4.945 9.582l-0.073 0.367 0.44 2.346c0 0.049-0.025 0.073-0.073 0.073 0.146 1.417 0.294 2.126 0.44 2.126 0.049-0.098 0.073-0.171 0.073-0.221-0.146-0.708-0.221-1.393-0.221-2.052v-0.513c-0.294-1.014-0.44-1.722-0.44-2.126h-0.146zM5.531 26.663c0 0.318-0.025 0.732-0.073 1.247 0.061 0.44 0.158 0.659 0.294 0.659v-0.073c-0.049-0.929-0.098-1.539-0.146-1.833h-0.074zM6.484 29.229h-0.219l-0.367-0.074-0.073 0.365v0.221c0 0.073 0.073 0.146 0.221 0.221h0.073c0.207-0.392 0.452-0.586 0.732-0.586v-0.146c0-0.097-0.049-0.146-0.146-0.146l-0.221 0.146zM6.265 2.985v0.88h0.073l0.146-0.66c-0.049-0.097-0.073-0.17-0.073-0.219h-0.146zM8.537 5.843h-1.1c-0.355 0-0.599 0.562-0.734 1.686v1.026c-0.097 0.831-0.146 1.296-0.146 1.393 0 0.171 0.097 0.635 0.292 1.393 0 0.098-0.097 0.513-0.292 1.247 0 0.061 0.097 0.525 0.292 1.393 0 0.318-0.025 0.635-0.073 0.953 0.049 1.111 0.073 2.162 0.073 3.152v0.734c0 0.245-0.049 0.538-0.146 0.88 0 0.304 0.025 0.671 0.073 1.099-0.049 1.332-0.073 2.602-0.073 3.811v0.44c0 0.489 0.268 0.88 0.807 1.173h0.294c0.28 0 0.452 0.025 0.513 0.074 0.268-0.049 0.489-0.074 0.661-0.074h1.026c0.268 0 0.61 0.025 1.026 0.074 0.085-0.049 0.183-0.074 0.294-0.074 0.268 0.048 0.488 0.074 0.659 0.074 0.44-0.623 0.661-1.187 0.661-1.688v-8.796c0-0.661-0.025-1.197-0.073-1.612 0.049-0.33 0.073-0.843 0.073-1.539v-6.158c-0.195-0.256-0.514-0.501-0.954-0.734l-0.365 0.073-0.367-0.073-0.367 0.073c-0.171-0.049-0.268-0.073-0.292-0.073l-0.661 0.073-0.513-0.146c-0.183 0.097-0.379 0.146-0.586 0.146zM7.584 29.155v0.148h0.146c0-0.098-0.049-0.148-0.146-0.148zM8.537 29.155v0.074c0.049 0.292 0.122 0.44 0.221 0.44l0.073-0.148c-0.098-0.219-0.197-0.34-0.294-0.367zM9.27 1.959c-0.085 0.353-0.158 1.405-0.219 3.152l0.146 0.073c0.134 0 0.233-0.977 0.294-2.933-0.049-0.085-0.074-0.183-0.074-0.292h-0.146zM10.222 2.545v0.146c0.098 0 0.146-0.049 0.146-0.146h-0.146zM10.222 3.058v0.292h0.073v-0.292h-0.073zM13.522 4.451l-0.073 0.513v2.053c0.012 0.098 0.061 0.146 0.146 0.146l0.073-0.734v-1.833c0-0.097-0.049-0.146-0.146-0.146zM13.522 23.804v0.219h0.073v-0.219h-0.073zM14.254 18.526c-0.245 0.734-0.367 1.272-0.367 1.612v1.173c-0.195 0.746-0.292 1.259-0.292 1.539l0.365-0.219 0.367 0.073 0.146-0.221c-0.098-0.44-0.146-0.758-0.146-0.953v-0.66l-0.146-0.513c0-0.036 0.122-0.355 0.367-0.953-0.098-0.44-0.146-0.734-0.146-0.88h-0.148zM14.988 5.404c-0.195 0.452-0.294 0.72-0.294 0.805v0.586c0 3.152-0.049 5.816-0.146 7.991 0.098 0 0.146 0.073 0.146 0.221h0.073v-1.613c0-0.221 0.073-0.684 0.221-1.393-0.049-0.195-0.073-0.367-0.073-0.513l0.146-1.393c0-0.11-0.025-0.207-0.073-0.294 0.098-0.647 0.146-1.625 0.146-2.933v-1.098l-0.073-0.365h-0.073zM15.868 19.186l-0.073 0.732v0.88c0.146 0 0.221-0.268 0.221-0.807v-0.292l-0.073-0.513h-0.074zM15.868 21.899l-0.073 0.44v0.367h0.073c0-0.061 0.024-0.304 0.073-0.732v-0.073h-0.073z"></path>
<path d="M19.734 1.371c0.146 0 0.342 0.049 0.586 0.146 0.342-0.097 0.61-0.146 0.807-0.146l0.953 0.146c0.318-0.097 0.538-0.146 0.66-0.146h1.393c0.158 0 0.5 0.049 1.026 0.146 0.146 0 0.342-0.049 0.586-0.146 0.245 0 0.367 0.025 0.367 0.073 1.051-0.049 1.833-0.073 2.346-0.073h4.764c0.44 0 0.659 0.513 0.659 1.54 0.245 1.661 0.367 2.736 0.367 3.225l-0.294 0.146c-0.379-0.049-0.769-0.221-1.172-0.513l-0.146 0.073h-0.586c-0.171 0-0.391-0.024-0.66-0.073-0.097 0.049-0.17 0.073-0.219 0.073-0.146 0-0.221-0.024-0.221-0.073-0.489 0.049-0.856 0.073-1.1 0.073h-2.346c-0.061 0-0.33-0.049-0.807-0.146h-0.513c-0.098 0-0.343 0.049-0.734 0.146-0.245-0.085-0.367-0.207-0.367-0.365 0.098-0.819 0.268-1.601 0.513-2.347-0.098-0.464-0.146-0.831-0.146-1.099v-0.073c-0.342-0.049-0.538-0.073-0.586-0.073l-0.073 0.146v0.953l-0.146 1.32c0.098 0.647 0.195 1.039 0.294 1.173 0 0.061-0.268 0.452-0.805 1.172v0.146c0 0.342 0.049 0.611 0.146 0.807-0.097 0.195-0.146 0.464-0.146 0.805v1.54c0 0.195 0.049 0.513 0.146 0.953-0.097 0.452-0.146 0.72-0.146 0.807 0 0.586 0.513 0.977 1.539 1.172 0.085 0 0.28-0.049 0.586-0.146l0.44 0.073c1.185 0 2.261-0.195 3.225-0.586h0.294c0.097 0.012 0.146 0.061 0.146 0.146v0.365c0 0.171 0.024 0.391 0.073 0.661-0.098 0.195-0.146 0.367-0.146 0.513 0.049 0.146 0.097 0.221 0.146 0.221l-0.073 0.513v2.346l0.073 0.513-0.221 0.146h-0.146c-0.99-0.391-1.551-0.586-1.686-0.586-0.343 0.049-0.538 0.073-0.586 0.073-0.085 0-0.428-0.073-1.026-0.221-0.183 0.098-0.379 0.146-0.586 0.146-0.049 0-0.122-0.025-0.221-0.073-0.195 0.049-0.367 0.073-0.513 0.073l-0.294-0.073c-0.159 0.098-0.306 0.146-0.44 0.146h-0.146l-0.221-0.146c0.061-1.894 0.159-3.067 0.294-3.519-0.036-0.294-0.183-0.44-0.44-0.44-0.097 0.159-0.146 0.282-0.146 0.367-0.049 1.503-0.073 2.481-0.073 2.933-0.098 0.318-0.146 0.538-0.146 0.66v0.073c0.379 0 0.598 0.098 0.659 0.294l-0.44 0.586c0.049 2.346 0.073 4.154 0.073 5.425v1.686c0 0.219 0.194 0.637 0.586 1.247l0.513-0.074h0.073c0.17 0 0.391 0.025 0.66 0.074l0.513-0.148c0.819 0.049 1.454 0.074 1.906 0.074h1.833c0.207 0 0.403 0.025 0.586 0.074 0.195-0.049 0.391-0.074 0.586-0.074h1.247c0.183 0 0.598-0.146 1.247-0.44h0.146c0.073 0 0.146 0.073 0.221 0.221-0.268 3.029-0.513 4.545-0.732 4.545-0.085 0.049-0.183 0.073-0.294 0.073h-2.273c-2.089 0-3.702 0.025-4.839 0.073-0.966-0.048-2.481-0.073-4.545-0.073h-0.88c-0.245 0-0.367-0.049-0.367-0.146-0.245 0.146-0.44 0.219-0.586 0.219h-0.221c-0.11 0-0.183-0.122-0.219-0.365 0.292-0.746 0.44-1.209 0.44-1.393 0-0.72-0.025-1.209-0.073-1.467 0.049-1.014 0.073-1.943 0.073-2.785v-1.98c0-0.72-0.025-1.209-0.073-1.466 0.049-0.513 0.073-1.075 0.073-1.686v-5.279c0-0.171-0.025-0.391-0.073-0.661 0.049-0.097 0.073-0.17 0.073-0.221l-0.073-0.88 0.073-1.026c0-0.379-0.025-0.72-0.073-1.026 0.049-1.624 0.073-3.042 0.073-4.251v-2.711l-0.073-0.367h0.073l-0.44-1.393v-0.073c0.1-0.195 0.246-0.294 0.441-0.294zM20.321 2.251v0.294l0.513 2.492h0.073c0.049-0.171 0.073-0.268 0.073-0.294 0-0.233-0.146-0.941-0.44-2.126 0-0.245-0.049-0.367-0.146-0.367h-0.073zM20.467 8.189l-0.146 0.294c0 1.148 0.146 1.955 0.44 2.419l-0.221 1.247 0.44 2.126v0.661c0.036 0.292 0.11 0.44 0.221 0.44 0-0.245 0.024-0.365 0.073-0.365-0.085-0.318-0.183-1.124-0.294-2.419v-1.98c0-0.122-0.122-0.61-0.367-1.466l0.073-0.367c0-0.368-0.073-0.563-0.219-0.589zM20.613 27.688c0 0.148-0.025 0.221-0.073 0.221 0.049 0.098 0.073 0.171 0.073 0.221h0.073v-0.441h-0.073zM20.907 5.478c0 0.024-0.025 0.122-0.073 0.292 0 0.221 0.195 1.051 0.586 2.492 0.294 1.454 0.44 2.651 0.44 3.592h-0.073l0.073 0.146v0.146c0 0.049-0.024 0.073-0.073 0.073 0.073 0.195 0.146 0.294 0.219 0.294 0-0.049 0.025-0.073 0.073-0.073 0-0.049-0.025-0.122-0.073-0.221 0.049-1.075 0.122-1.857 0.221-2.346-0.342 0-0.635-1.197-0.88-3.592-0.049 0-0.171-0.268-0.367-0.805h-0.073zM21.933 1.811l-0.073 0.146c0.146 0.66 0.221 1.124 0.221 1.393v0.807c0.012 0.098 0.061 0.146 0.146 0.146v-0.878c0-0.146 0.073-0.44 0.221-0.88-0.062-0.489-0.234-0.734-0.514-0.734zM22.227 26.442l-0.073 0.367v1.026h0.073c0-0.637 0.098-1.075 0.294-1.32l-0.146-0.074h-0.148zM22.813 28.275v0.074c0 0.268 0.025 0.611 0.073 1.026-0.049 0.085-0.073 0.183-0.073 0.294h0.146v-0.148c0-0.158 0.025-0.28 0.073-0.365-0.048-0.587-0.121-0.881-0.219-0.881zM23.034 13.76v0.513c0.097 0 0.146-0.049 0.146-0.146l-0.073-0.367h-0.073zM23.326 2.178v0.88c0.294 0.304 0.44 0.598 0.44 0.88 0.11 0 0.183-0.17 0.221-0.513l-0.073-0.88h0.073c-0.049-0.391-0.171-0.586-0.367-0.586-0.197 0.073-0.294 0.146-0.294 0.219zM24.792 26.884c0 0.024-0.049 0.389-0.146 1.098v0.441h0.146c0.195-0.735 0.294-1.15 0.294-1.247v-0.146c0-0.097-0.049-0.145-0.146-0.145h-0.148zM25.525 13.614c-0.195 0.098-0.294 0.905-0.294 2.419-0.098 0.012-0.146 0.061-0.146 0.146v0.221h0.146c0.245-0.635 0.367-0.977 0.367-1.026s-0.049-0.292-0.146-0.732c0.146-0.257 0.221-0.501 0.221-0.734v-0.146c-0.001-0.098-0.050-0.148-0.148-0.148zM26.259 2.178c0 0.856-0.122 1.833-0.367 2.933l0.146 0.221c0.586-0.049 0.88-0.122 0.88-0.221 0.049-1.613 0.122-2.419 0.221-2.419-0.098-0.367-0.146-0.611-0.146-0.734h-0.586c-0.1 0-0.148 0.073-0.148 0.219zM26.038 28.789c0.049 0.098 0.073 0.171 0.073 0.221h0.146c0.11-0.049 0.304-0.392 0.586-1.027 0.245-0.060 0.367-0.134 0.367-0.219v-0.367c0-0.073-0.073-0.145-0.221-0.219-0.233 0-0.452 0.391-0.659 1.173-0.036-0.001-0.134 0.145-0.292 0.439zM26.259 15.593c0.134 0 0.304-0.268 0.513-0.805l-0.073-0.146v-0.514c0-0.122 0.049-0.342 0.146-0.661l-0.146-0.073h-0.073c-0.124 0.001-0.245 0.734-0.367 2.199zM26.918 15.74l-0.073 0.367v0.073c0.012 0.098 0.061 0.146 0.146 0.146 0-0.049 0.025-0.245 0.073-0.586h-0.146z"></path>
<path d="M43.247 1.371h0.221c0.44 0.146 0.684 0.221 0.734 0.221h0.073l0.734-0.221 0.367 0.221c-0.049 0.574-0.073 0.99-0.073 1.247v0.146c0 0.525 0.024 0.965 0.073 1.32-0.049 0.342-0.073 0.635-0.073 0.88 0 0.318 0.024 0.805 0.073 1.466-0.049 0.44-0.073 0.929-0.073 1.466l0.146 0.073c0.146-0.012 0.268-0.574 0.365-1.686l-0.146-1.172c0-0.672 0.146-1.357 0.44-2.053v-1.026l-0.221-0.294v-0.146c0.122-0.245 0.342-0.367 0.66-0.367 0.367 0.098 0.586 0.146 0.66 0.146 0.134 0 0.428-0.073 0.88-0.221 0.221 0.098 0.342 0.195 0.367 0.294v0.146c0 0.306-0.098 0.746-0.294 1.32 0.44 1.722 0.758 3.14 0.953 4.253l0.513 2.566c0.537 1.979 0.805 3.249 0.805 3.811 0.134 0.33 0.404 1.551 0.807 3.665 0.134 0 0.257 0.659 0.367 1.979l-0.073 0.146 0.367 0.659h0.146c0.342-1.27 0.537-2.443 0.586-3.518 0.28 0 0.452-0.66 0.513-1.979 0.207-0.831 0.379-1.247 0.513-1.247l0.146 0.073-0.073-0.439c0-1.075 0.221-2.346 0.66-3.811 0-0.245 0.146-1.026 0.44-2.346 0-0.207 0.245-1.235 0.732-3.079 0-0.049 0.025-0.245 0.073-0.586-0.098-0.757-0.146-1.32-0.146-1.686 0.073 0 0.146-0.073 0.221-0.221 0.941 0 1.503 0.122 1.686 0.367 0.304-0.231 0.5-0.355 0.586-0.367 0.465 0.049 0.831 0.122 1.1 0.221 0.318-0.097 0.537-0.146 0.66-0.146h0.365l0.44 0.073c0.085-0.049 0.207-0.073 0.367-0.073 0.146 0.159 0.221 0.282 0.221 0.367l-0.294 1.247v0.365c0.635 2.456 1.002 4.265 1.1 5.425 0.195 0.195 0.294 0.465 0.294 0.807v0.513c0.245 0.28 0.365 0.525 0.365 0.732 0 0.171-0.025 0.391-0.073 0.661 0.294 0.574 0.489 1.332 0.586 2.273 0.146 0.207 0.318 1.014 0.513 2.419 0.342 1.259 0.513 2.261 0.513 3.006-0.049 0.085-0.073 0.183-0.073 0.294 0.342 0.159 0.513 0.403 0.513 0.732h0.073c0.158 0 0.257-0.513 0.292-1.539 0.098-0.245 0.342-1.367 0.734-3.373 0.171 0 0.318-0.659 0.44-1.979 0.134-0.207 0.28-0.746 0.44-1.612 0.134-0.28 0.33-1.478 0.586-3.592 0.292 0 0.513-0.953 0.659-2.859h0.073l-0.073-0.146c0.146-0.306 0.294-0.868 0.44-1.686v-0.514c-0.098-0.708-0.146-1.075-0.146-1.1 0-0.195 0.122-0.367 0.367-0.513 0.245 0 0.367 0.049 0.367 0.146 0.049 0 0.073-0.024 0.073-0.073l0.44 0.073c0.5-0.049 0.892-0.073 1.172-0.073 0.403 0.098 0.671 0.146 0.807 0.146 0.819-0.146 1.454-0.221 1.906-0.221l0.221 0.294c-0.526 1.1-0.868 2.102-1.026 3.006l-0.807 3.74-0.88 3.813c0 0.367-0.098 0.831-0.294 1.393l-1.172 5.792c-0.183 0.574-0.355 1.308-0.513 2.199-0.11 0-0.209 0.562-0.294 1.686-0.098 0-0.221 0.586-0.367 1.758-0.122 0-0.294 0.734-0.513 2.199-0.134 0-0.257 0.513-0.367 1.539v0.073c0 0.148 0.073 0.637 0.221 1.467-0.073 0.245-0.245 0.365-0.513 0.365h-0.367c-0.11 0-0.428-0.073-0.953-0.219-0.183 0.097-0.379 0.146-0.586 0.146h-0.44c-0.379 0-0.722-0.024-1.026-0.073-0.684 0.097-1.197 0.145-1.539 0.145-0.195-0.207-0.294-0.403-0.294-0.586 0-0.060 0.049-0.33 0.146-0.804v-0.66c-0.245-0.941-0.391-1.746-0.44-2.419-0.134-0.097-0.306-0.756-0.513-1.979-0.122 0-0.245-0.708-0.367-2.126-0.085 0-0.183-0.44-0.294-1.32-0.146-0.245-0.513-2.126-1.099-5.645-0.11 0-0.209-0.194-0.294-0.586h0.073c-0.294-0.941-0.44-1.478-0.44-1.613v-0.734c-0.025-0.098-0.146-0.195-0.367-0.294-0.159 0-0.306 0.88-0.44 2.639-0.11 0-0.231 0.61-0.365 1.833-0.171 0.221-0.44 1.417-0.807 3.592-0.159 0-0.379 1.026-0.66 3.079-0.245 0-0.416 0.659-0.513 1.979-0.537 2.517-0.805 3.838-0.805 3.959 0 0.073 0.097 0.512 0.294 1.318 0 0.136-0.122 0.256-0.367 0.365-0.306-0.096-0.501-0.145-0.586-0.145l-0.367 0.145c-0.268-0.048-0.489-0.073-0.66-0.073l-0.44 0.073c-0.171-0.048-0.27-0.073-0.294-0.073-0.611 0.049-0.978 0.073-1.1 0.073-0.11 0-0.379-0.024-0.805-0.073-0.257 0.049-0.501 0.073-0.734 0.073-0.221-0.096-0.342-0.194-0.367-0.294l0.221-1.391c-0.586-3.006-1.1-5.377-1.539-7.111-0.257-0.477-0.477-1.771-0.66-3.886 0-0.342-0.122-0.684-0.367-1.026-0.098-0.342-0.146-0.635-0.146-0.88v-0.294c-0.294-0.304-0.44-0.99-0.44-2.052-0.036 0-0.11-0.268-0.221-0.807v-0.804c-0.342-0.221-0.513-0.661-0.513-1.32 0-0.049 0.024-0.073 0.073-0.073-0.245-0.44-0.367-1.172-0.367-2.199-0.343 0-0.586-1.051-0.734-3.152v-0.219c-0.294-0.306-0.44-0.868-0.44-1.686l0.221-0.146 0.294 0.146c0-0.342 0.049-0.732 0.146-1.172-0.049-0.098-0.073-0.171-0.073-0.221h-0.294v0.073c0 0.11 0.025 0.207 0.073 0.294-0.122 0.294-0.268 0.44-0.44 0.44-0.355 0-0.671-0.342-0.953-1.026v-0.221c0.001-0.073 0.1-0.17 0.294-0.294zM46.839 2.326v0.953c0 0.209-0.146 0.55-0.44 1.026-0.049 0.183-0.073 0.379-0.073 0.586 0.098 0.769 0.146 1.282 0.146 1.539v0.513c-0.098 0.708-0.146 1.099-0.146 1.172v0.807c0 0.379-0.049 1.039-0.146 1.979 0.049 0.428 0.073 0.696 0.073 0.807-0.049 0.085-0.073 0.183-0.073 0.294h0.221c0.257-3.275 0.55-4.912 0.88-4.912 0.134-0.489 0.257-0.831 0.367-1.026l-0.074-1.172 0.073-0.294c-0.098-0.195-0.146-0.464-0.146-0.807v-1.465c0-0.073-0.073-0.146-0.221-0.221h-0.221c-0.073 0-0.146 0.073-0.219 0.221zM47.279 10.388v0.146c0 0.049-0.025 0.073-0.073 0.073l0.073 0.146c0 0.404-0.122 1.185-0.367 2.346 0.036 0.781 0.11 1.173 0.221 1.173 0.097-0.11 0.17-0.598 0.221-1.467 0.195-0.231 0.294-0.476 0.294-0.732 0-0.221-0.025-0.367-0.073-0.44 0.049-0.416 0.073-0.758 0.073-1.026v-1.979c0.049-0.33 0.122-0.501 0.221-0.513-0.049-0.097-0.073-0.17-0.073-0.219h-0.073c-0.161 0-0.308 0.831-0.443 2.492zM47.5 15.3c0 0.11-0.098 0.404-0.294 0.88 0.245 0.758 0.391 1.32 0.44 1.686h0.294v-0.146c0-0.049-0.098-0.318-0.294-0.805 0.024-0.355 0.097-0.599 0.221-0.734-0.195-0.403-0.294-0.696-0.294-0.88h-0.073zM54.023 13.908c-0.098 0.819-0.146 1.282-0.146 1.393 0 0.073 0.025 0.416 0.073 1.026-0.049 0.268-0.073 0.489-0.073 0.66 0.098 0.159 0.146 0.28 0.146 0.367-0.098 0.635-0.171 1.221-0.221 1.76l0.221 0.146 0.146-0.221c-0.098-0.183-0.146-0.379-0.146-0.586 0-0.17 0.097-0.416 0.294-0.734l-0.073-0.365v-0.146c0-0.526-0.025-0.892-0.073-1.1 0.049-0.379 0.073-0.795 0.073-1.247v-0.513c-0.001-0.257-0.074-0.404-0.221-0.44zM53.877 27.101v0.294c0.098 0 0.146-0.048 0.146-0.145v-0.148h-0.146zM57.322 1.959l-0.146 0.513v0.294c0.195 0.525 0.294 0.99 0.294 1.393v0.513c0.097 0 0.146-0.049 0.146-0.146v-0.734c0-0.122-0.049-0.342-0.146-0.66 0.049-0.415 0.073-0.732 0.073-0.953-0.049-0.098-0.073-0.171-0.073-0.221h-0.148zM60.254 15.959c0.098 0.159 0.146 0.306 0.146 0.44v0.073c0 0.11-0.025 0.207-0.073 0.294 0 0.049 0.025 0.073 0.073 0.073l-0.073 0.367v0.146c0.195 0.953 0.294 1.466 0.294 1.539 0 0.221 0.122 1.002 0.367 2.346 0 0.55 0.195 1.111 0.586 1.686 0.146 0.598 0.221 1.014 0.221 1.247v0.953l0.294 0.365v0.88c0.012 0.098 0.061 0.146 0.146 0.146 0.391-0.756 0.586-1.173 0.586-1.247 0-0.33-0.122-0.671-0.367-1.025 0-0.036-0.073-0.477-0.219-1.32 0.097-0.586 0.17-1.686 0.219-3.298 0.049 0 0.146-0.538 0.294-1.613-0.098-0.44-0.146-0.732-0.146-0.88 0.098-0.171 0.171-0.416 0.221-0.734-0.233 0-0.379 0.831-0.44 2.492-0.245 0.367-0.367 0.856-0.367 1.466l-0.367 0.367c-0.171-0.036-0.318-0.183-0.44-0.44 0-0.195 0.025-0.635 0.073-1.32 0-0.33-0.221-0.795-0.66-1.393 0-0.049-0.025-0.122-0.073-0.219 0-0.037 0.025-0.183 0.073-0.44-0.036-0.781-0.11-1.173-0.221-1.173-0.097 0.003-0.146 0.076-0.146 0.222zM60.841 11.708v0.367c0.122 1.172 0.318 1.76 0.586 1.76v0.146l-0.146 0.88c0 0.537 0.17 0.856 0.513 0.953 0.097-0.049 0.17-0.073 0.221-0.073v-0.073c0-1.233 0.097-2.089 0.294-2.566 0-0.134-0.245-0.231-0.734-0.294-0.391-0.781-0.586-1.197-0.586-1.247-0.1 0.013-0.148 0.062-0.148 0.148zM61.427 9.363l-0.073 0.367v0.073c0 0.306 0.146 0.647 0.44 1.026v-0.073c-0.073-0.928-0.195-1.393-0.367-1.393zM63.114 23.364v0.294h0.146v-0.294h-0.146zM63.48 24.61l0.073 0.514h0.073v-0.514h-0.146zM64.653 26.004v1.025c0 0.27 0.122 0.758 0.365 1.467l0.221 1.467c0.073 0 0.171 0.049 0.294 0.145h0.146c-0.635-2.077-0.953-3.445-0.953-4.104h-0.073zM65.239 21.824v0.367h0.146c0.049-0.672 0.146-1.308 0.294-1.907h-0.073c-0.171 0.001-0.292 0.514-0.367 1.54zM66.485 20.285c0 0.318-0.122 0.781-0.367 1.393v0.732h0.073c0.195-0.684 0.342-1.367 0.44-2.052l-0.146-0.073zM66.558 18.305v0.66c0.146-0.049 0.221-0.195 0.221-0.44v-0.66c-0.146 0.049-0.221 0.197-0.221 0.44zM66.779 16.547v0.513h0.073c0-0.11 0.024-0.207 0.073-0.294-0.049-0.098-0.073-0.171-0.073-0.221h-0.073zM66.852 14.347v0.805h0.073l0.073-0.365v-0.44h-0.146zM66.852 15.959v0.44h0.073v-0.44h-0.073zM67.219 21.384c0 0.171-0.122 0.586-0.365 1.247v0.66h0.073c0-0.256 0.146-0.819 0.44-1.686v-0.221h-0.147zM66.852 23.511v0.294h0.073v-0.294h-0.073zM67.511 11.929c-0.195 0.428-0.294 0.746-0.294 0.953v0.513c0.073 0 0.195-0.464 0.367-1.393v-0.073h-0.073zM67.584 16.839v0.146h0.073v-0.146h-0.073zM67.732 15.667c0.122 0 0.221-0.195 0.294-0.586v-1.026c-0.098-0.001-0.195 0.537-0.294 1.612zM68.391 11.708c-0.098 0.574-0.171 1.162-0.221 1.76 0.195 0 0.294-0.367 0.294-1.099v-0.661h-0.073zM68.391 7.53l-0.073 0.513c0.049 0.428 0.073 0.696 0.073 0.807h0.073v-1.32h-0.073zM68.465 16.547v0.073c-0.098 0.916-0.146 1.503-0.146 1.76v0.073l0.073 0.367h0.073v-1.026c0-0.44 0.049-0.855 0.146-1.247h-0.146zM68.978 14.054h0.146c0.195-0.819 0.294-1.332 0.294-1.539v-0.073h-0.073c-0.171 0-0.294 0.537-0.367 1.612zM69.198 7.090v0.073h0.146v-0.219c-0.097 0.012-0.146 0.061-0.146 0.146zM69.418 4.451c0 0.416-0.025 1.026-0.073 1.833h0.073c0.097 0 0.146-0.049 0.146-0.146v-1.32l-0.073-0.367h-0.073zM69.491 2.766l-0.073 0.365v0.073l0.073 0.367h0.073v-0.805h-0.073zM70.884 2.618c0 0.342-0.025 1.051-0.073 2.126l0.073 0.146c-0.195 0.513-0.294 0.856-0.294 1.026v1.613c0 0.207-0.025 0.476-0.073 0.805 0.049 0.122 0.098 0.367 0.146 0.734h0.073c0.183-1.551 0.304-3.042 0.367-4.472 0.122 0 0.245-0.807 0.367-2.419h-0.367c-0.146 0.049-0.219 0.195-0.219 0.44zM70.59 9.656v0.44h0.073v-0.44h-0.073z"></path>
<path d="M76.474 1.298c0.574 0.049 0.99 0.073 1.247 0.073l0.513-0.073c0.221 0.098 0.342 0.195 0.367 0.294-0.391 0.513-0.61 1.002-0.659 1.467 0.097 0.44 0.146 0.684 0.146 0.732-0.049 0.892-0.073 1.454-0.073 1.686 0 0.036 0.024 0.231 0.073 0.586-0.098 0.195-0.146 0.465-0.146 0.807v0.073c0.097 0.708 0.146 1.099 0.146 1.172v1.76l-0.146 1.32c0.097 0.831 0.146 1.393 0.146 1.686 0 0.27-0.049 0.637-0.146 1.1 0 0.122 0.024 0.318 0.073 0.586l-0.073 0.659 0.073 1.173-0.073 0.66 0.146 0.44c0 0.049-0.025 0.122-0.073 0.219 0.049 0.501 0.073 0.892 0.073 1.173 0 0.245-0.049 0.538-0.146 0.88 0.097 0.342 0.146 0.635 0.146 0.88v0.734c-0.098 0.831-0.146 1.296-0.146 1.393v0.514c0.097 0.708 0.146 1.075 0.146 1.099 0 0.122-0.049 0.365-0.146 0.734 0.146 0.316 0.219 0.537 0.219 0.659v0.073c-0.245 0.294-0.365 0.465-0.365 0.514l0.294 2.712 0.513 1.247v0.146c0 0.074-0.073 0.146-0.221 0.219h-0.292c-0.122 0-0.343-0.048-0.66-0.145-0.183 0.097-0.379 0.145-0.586 0.145h-0.221c-0.171 0-0.367-0.096-0.586-0.294-0.183 0.148-0.33 0.221-0.44 0.221-0.049 0-0.195-0.097-0.44-0.294-0.11 0.245-0.355 0.365-0.734 0.365h-0.953c-0.073 0-0.146-0.073-0.219-0.219v-0.074c0.342-1.417 0.513-2.222 0.513-2.419-0.049-2.968-0.073-5.338-0.073-7.11 0-0.158-0.049-0.525-0.146-1.099 0.146-0.647 0.221-1.698 0.221-3.152 0-0.122-0.025-0.489-0.073-1.1 0.098-1.124 0.146-1.833 0.146-2.126-0.098-0.416-0.171-0.88-0.221-1.393 0.098-0.795 0.146-1.308 0.146-1.54 0-0.097-0.025-0.146-0.073-0.146l0.073-0.513v-1.907c0-0.562-0.025-1.075-0.073-1.54 0.049-0.256 0.073-0.72 0.073-1.393v-0.807c0-0.158-0.025-0.28-0.073-0.367l0.073-0.44v-1.099l-0.513-0.513v-0.073c0-0.073 0.097-0.17 0.292-0.294h1.76c0.158 0 0.33 0.073 0.513 0.221h0.073c0.158-0.122 0.353-0.221 0.586-0.294zM74.568 22.85v0.074l0.073 1.173c0 0.048-0.025 0.122-0.073 0.219 0 0.11 0.122 0.819 0.367 2.126v1.173c0 0.282-0.025 0.672-0.073 1.173l0.294 1.099h0.073l0.221-0.146h0.146c0.036 0 0.183 0.146 0.44 0.44h0.073c0-0.122 0.025-0.318 0.073-0.586 0-0.158-0.221-0.355-0.659-0.585-0.146-0.185-0.221-0.405-0.221-0.66v-1.247c0-0.855-0.221-2.271-0.66-4.251h-0.073zM74.787 14.641c0 0.11 0.024 0.207 0.073 0.294-0.049 0.416-0.073 0.732-0.073 0.953 0.097 0.233 0.245 1.479 0.44 3.738v0.586c0 0.11 0.097 0.355 0.294 0.734h0.073v-1.76c0-0.404 0.097-0.868 0.292-1.393 0-0.17-0.219-0.488-0.659-0.953l-0.221-1.467c0.049-0.085 0.073-0.183 0.073-0.292 0.001-0.195-0.097-0.343-0.292-0.44zM75.081 6.064v0.146h0.073v-0.146h-0.073zM75.081 7.603v0.365h0.073v-0.365h-0.073zM75.081 8.923v0.146h0.073v-0.146h-0.073zM75.154 9.436v0.073c0.245 1.478 0.416 2.7 0.513 3.665 0.073 0.136 0.17 0.623 0.292 1.467h0.146v-2.787l-0.805-1.686c0-0.318-0.025-0.562-0.073-0.734h-0.073zM75.741 2.472v0.659h0.073l0.073-0.365v-0.294h-0.146zM75.741 5.623v0.146h0.073v-0.146h-0.073zM75.741 6.137c0 1.76 0.121 2.639 0.365 2.639v-1.54c-0.146-0.66-0.221-1.026-0.221-1.1h-0.145zM76.767 18.305v0.734c-0.146 0.635-0.221 0.977-0.221 1.026v5.204c0 0.148 0.073 0.441 0.221 0.88h0.073c0.098 0 0.146-0.048 0.146-0.145v-0.221c0-0.171-0.025-0.391-0.073-0.659 0.245-0.392 0.391-0.708 0.44-0.953l-0.146-0.294-0.146 0.073-0.146-0.073 0.073-0.735v-0.294c0-0.525-0.073-1.33-0.221-2.419 0.098-0.134 0.221-0.793 0.367-1.979v-0.072l-0.073-0.367c-0.074 0-0.173 0.097-0.294 0.292zM76.693 3.058v0.44c0.146 0.538 0.318 1.442 0.513 2.712h0.146c0-2.101-0.146-3.152-0.44-3.152h-0.219zM77.060 7.75v1.099h0.073c0.146-0.036 0.221-0.231 0.221-0.586l-0.073-0.659h-0.073c-0.098 0.011-0.147 0.060-0.147 0.146zM77.134 17.060l-0.073 0.367v0.292h0.073c0.049-0.342 0.097-0.561 0.146-0.659h-0.146z"></path>
<path d="M82.1 1.298l0.88 0.221c0.44-0.097 0.757-0.146 0.953-0.146 0.146 0 0.318 0.049 0.513 0.146 0.183-0.097 0.379-0.146 0.586-0.146h0.221c0.904 0 1.442 0.684 1.613 2.052 0.245 0.146 0.781 1.296 1.612 3.446l1.833 4.399c0 0.11 0.122 0.403 0.367 0.88 0 0.146 0.294 0.856 0.88 2.126 0.097 0.708 0.268 1.124 0.513 1.247 0 0.122 0.294 0.807 0.88 2.052 0.049 0.734 0.17 1.1 0.367 1.1h0.146c0.146-0.049 0.221-0.195 0.221-0.44v-2.639c0-0.525 0.024-0.941 0.073-1.247-0.049-0.355-0.073-0.795-0.073-1.32v-3.447c-0.098-0.708-0.146-1.1-0.146-1.173v-1.904c0-0.342 0.049-0.61 0.146-0.807-0.098-0.365-0.146-0.561-0.146-0.586 0.097-0.367 0.146-0.708 0.146-1.026v-0.66c0-0.158-0.221-0.746-0.66-1.76v-0.073c0.158-0.146 0.28-0.221 0.367-0.221 0.195 0 0.294 0.025 0.294 0.073l0.88-0.073h3.738c0.073 0 0.146 0.073 0.221 0.221v0.221c-0.195 0.183-0.367 0.672-0.513 1.466l0.073 0.88v1.393c0 0.061-0.049 0.331-0.146 0.807v3.152c0 0.342 0.049 0.611 0.146 0.805-0.049 0.27-0.073 0.465-0.073 0.586 0 0.11 0.024 0.209 0.073 0.294l-0.074 0.513c0 0.159 0.024 0.574 0.073 1.247l-0.146 0.586 0.146 0.661c-0.098 0.195-0.146 0.465-0.146 0.807v2.565c0 0.526 0.024 0.966 0.073 1.32-0.049 0.306-0.073 0.72-0.073 1.247v0.146c0 0.318 0.049 1.296 0.146 2.933-0.098 0.44-0.146 0.758-0.146 0.954v0.513l-0.221 0.292v0.586l0.146 0.221v0.073c0 0.136-0.049 0.282-0.146 0.441 0.049 1.087 0.097 1.746 0.146 1.977-0.049 0.085-0.073 0.55-0.073 1.394 0.073 0 0.268 0.219 0.586 0.659v0.146l-0.146 0.219-0.88-0.073h-0.44c-0.452 0-1.087 0.025-1.906 0.073-0.098-0.048-0.171-0.073-0.221-0.073-0.195 0.049-0.367 0.073-0.513 0.073-0.231 0-0.452-0.342-0.659-1.025-0.221-0.306-0.734-1.503-1.54-3.592-0.159-0.194-1.405-3.152-3.738-8.869-0.355-0.684-0.647-1.393-0.88-2.126-0.416-1.136-0.684-1.722-0.805-1.76v-0.662c0-0.183-0.122-0.379-0.367-0.586v-0.221c0-0.037 0.122-0.159 0.367-0.367v-0.219l-0.367 0.073c-0.073 0-0.294-0.17-0.66-0.513-0.146 0.526-0.221 0.843-0.221 0.953v0.073c0.098 0.831 0.146 1.296 0.146 1.393v0.88c0 0.159-0.049 0.501-0.146 1.026 0.159 0.44 0.257 0.661 0.294 0.661-0.049 0.661-0.073 1.148-0.073 1.467v0.805c0 0.88-0.025 1.736-0.073 2.566 0.049 0.428 0.073 0.795 0.073 1.1-0.049 0.892-0.073 1.454-0.073 1.685l0.073 0.66c-0.146 0.671-0.221 1.087-0.221 1.247 0.146 0.246 0.221 0.489 0.221 0.734v0.146c0 0.684-0.025 1.613-0.073 2.787 0.012 0.342 0.233 0.781 0.66 1.318v0.146c0 0.025-0.049 0.097-0.146 0.219-0.574-0.048-0.99-0.073-1.247-0.073h-2.785c-0.257 0-0.672 0.025-1.247 0.073-0.098-0.158-0.146-0.304-0.146-0.439l0.807-1.247c-0.049-0.735-0.073-1.272-0.073-1.615v-0.659c0-0.231 0.024-0.476 0.073-0.732-0.146-0.795-0.221-3.213-0.221-7.257v-3.373c0-0.391 0.024-0.904 0.073-1.539-0.049-0.085-0.073-0.207-0.073-0.367l0.073-0.661c0-0.049-0.025-0.245-0.073-0.586 0.049-0.331 0.073-0.599 0.073-0.807 0-0.245-0.049-0.367-0.146-0.367 0.049-0.805 0.073-1.417 0.073-1.833v-3.005c0-0.049 0.049-0.245 0.146-0.586-0.098-0.158-0.146-0.304-0.146-0.44 0-0.085 0.097-0.306 0.294-0.66-0.098-0.28-0.195-0.99-0.294-2.126-0.037 0-0.159-0.195-0.367-0.586v-0.219c0-0.158 0.415-0.256 1.247-0.294zM82.174 3.425l-0.292 1.1v0.219l0.073 0.44c-0.098 0.195-0.146 0.365-0.146 0.513 0.097 0.159 0.146 0.282 0.146 0.367h0.146c0.049-0.44 0.097-1.294 0.146-2.566v-0.073h-0.073zM82.174 24.684c0.098 0.304 0.146 0.501 0.146 0.585h0.073c0.195-1.356 0.294-2.407 0.294-3.151v-0.44c-0.233 0-0.403 1.002-0.513 3.006zM82.979 27.616c-0.195 0.501-0.367 1.112-0.513 1.833v0.514c0.012 0.097 0.061 0.145 0.146 0.145 0-0.389 0.146-1.025 0.44-1.906v-0.586h-0.073zM82.906 1.884l-0.146 0.221c0.207 0.061 0.355 0.183 0.44 0.367v1.393h0.073l0.073-0.367v-0.294c0-0.256-0.025-0.671-0.073-1.247l-0.367-0.073zM82.979 26.369v0.294h0.073v-0.294h-0.073zM83.346 14.934v0.659c0.097 0 0.146-0.049 0.146-0.146v-0.365c0.001-0.098-0.048-0.148-0.146-0.148zM84.373 1.959c-0.146 0.294-0.294 1.979-0.44 5.058-0.098 0.342-0.245 1.124-0.44 2.346l0.073 0.513c-0.049 1.357-0.073 2.456-0.073 3.298l0.146 0.073 0.146-0.513v-0.732c0.037-0.294 0.11-0.44 0.221-0.44l-0.073-0.734c0.245-2.835 0.367-4.569 0.367-5.206 0.097 0 0.195-0.659 0.292-1.979v-1.245c0-0.258-0.073-0.404-0.219-0.44zM83.639 29.52h0.146v-0.145c-0.097 0.013-0.146 0.061-0.146 0.145zM84.006 17.206v0.294h0.146v-0.146c0-0.098-0.049-0.148-0.146-0.148zM84.3 18.526c0.036 0.538 0.11 0.807 0.219 0.807 0.245-0.892 0.367-1.357 0.367-1.393v-0.221l-0.586 0.807zM84.446 20.358l-0.073 0.513v1.173c0.012 0.098 0.061 0.146 0.146 0.146h0.073v-0.073c0-0.085-0.024-0.672-0.073-1.76h-0.073zM84.519 11.781c-0.049 0.257-0.073 0.403-0.073 0.44l0.073 0.367c-0.049 0-0.073 0.024-0.073 0.073h0.146v-0.88h-0.073zM84.959 6.283v0.073c0 1.418-0.073 2.273-0.221 2.566 0.049 0.268 0.073 0.465 0.073 0.586-0.098 0.661-0.146 1.075-0.146 1.247v0.146h0.073c0.122 0 0.221-0.294 0.294-0.88-0.049-0.257-0.073-0.501-0.073-0.734l0.294-0.88c0-0.623 0.122-2.040 0.367-4.251 0-0.036 0.122-0.501 0.367-1.393-0.085-0.28-0.233-0.501-0.44-0.66-0.245 0-0.367 1.148-0.367 3.445-0.049 0.001-0.124 0.246-0.221 0.735zM86.352 4.084c0 0.098-0.025 0.146-0.073 0.146l0.073 0.367v0.146c-0.209 1.639-0.33 2.493-0.367 2.566 0 0.049 0.024 0.073 0.073 0.073 0 0.61-0.146 1.32-0.44 2.126-0.049 0.268-0.073 0.465-0.073 0.586 0.049 0.098 0.073 0.17 0.073 0.219h0.073c0.44-1.271 0.66-2.15 0.66-2.638 0.097-0.489 0.195-0.781 0.294-0.88-0.098-0.221-0.146-0.464-0.146-0.734l0.221-0.732v-0.292c-0.001-0.635-0.124-0.954-0.368-0.954zM86.352 10.169c0 0.146 0.097 0.489 0.294 1.026h0.073l0.073-0.367-0.073-0.88h-0.146c-0.074 0-0.147 0.074-0.221 0.221zM89.871 12.955v0.294l0.073 0.367h0.073c0-0.146 0.025-0.221 0.073-0.221-0.061-0.294-0.134-0.44-0.219-0.44zM90.017 14.567v0.294h0.073v-0.294h-0.073zM90.384 17.865v0.146c0.012 0.098 0.061 0.146 0.146 0.146l0.073-0.146v-0.146h-0.219zM90.384 19.405v0.221h0.146c-0.049-0.098-0.073-0.171-0.073-0.221h-0.073zM93.023 26.297v0.219h0.221v-0.074c0-0.097-0.049-0.145-0.146-0.145h-0.074zM96.395 21.457v3.152h0.073c0-0.342 0.024-0.513 0.073-0.513l-0.073-0.146v-2.199c0-0.049 0.024-0.073 0.073-0.073-0.049-0.098-0.073-0.171-0.073-0.221h-0.073zM96.395 24.83v1.612h0.073c0-0.097 0.024-0.145 0.073-0.145l-0.073-0.148v-0.66c0-0.049 0.024-0.073 0.073-0.073-0.049-0.049-0.073-0.245-0.073-0.586h-0.073z"></path>
<path d="M100.663 1.371h0.074c0.097 0 0.342 0.049 0.734 0.146 0.365-0.097 0.61-0.146 0.734-0.146 0.44 0.098 0.756 0.146 0.953 0.146s0.513-0.049 0.954-0.146l0.659 0.073c0.33-0.049 0.598-0.073 0.805-0.073l0.146 0.221-0.365 0.953c0.049 0.537 0.073 1.002 0.073 1.393v1.32c0 0.073-0.049 0.464-0.145 1.172v1.906c0 0.343 0.048 0.611 0.145 0.807-0.097 0.391-0.145 0.856-0.145 1.393v0.146c0 0.171 0.048 0.586 0.145 1.247-0.145 0.574-0.219 1.478-0.219 2.712v1.466h0.074c0.096 0 0.194-0.195 0.292-0.586-0.048-0.416-0.074-0.758-0.074-1.026v-0.953c0.66-1.661 1.173-2.59 1.54-2.786 0.195-0.647 1.050-2.211 2.566-4.691 0-0.158 0.416-0.892 1.247-2.199l0.88-1.539-0.073-0.367v-0.074c0-0.342 0.145-0.513 0.439-0.513 0.122 0 0.318 0.025 0.586 0.073 0.268-0.049 0.465-0.073 0.586-0.073l0.514 0.146c0.182-0.097 0.377-0.146 0.586-0.146h3.297c0.097 0.012 0.146 0.061 0.146 0.146v0.221c0 0.061-0.44 0.55-1.318 1.466-0.221 0.562-1.345 2.566-3.373 6.011-0.537 1.039-0.953 1.771-1.247 2.199-0.304 0.465-0.623 1.075-0.954 1.833-0.245 0.257-0.365 0.501-0.365 0.734v0.073c0.781 1.809 1.173 2.811 1.173 3.006 0.537 0.929 0.831 1.637 0.88 2.126 0.635 1.172 0.953 1.833 0.953 1.979 0.257 0.905 0.647 1.809 1.173 2.714 1.318 3.237 2.077 4.997 2.273 5.277 0.097 0 0.342 0.294 0.734 0.88 0.145 0.049 0.219 0.195 0.219 0.44v0.074c0 0.097-0.048 0.145-0.146 0.145h-0.659l-0.44-0.073c-0.049 0-0.074 0.025-0.074 0.073-0.574-0.048-0.989-0.073-1.247-0.073h-1.906c-0.257 0-0.672 0.025-1.247 0.073l-0.221-0.294v-0.732c0-0.392-0.221-0.953-0.659-1.688 0-0.158-0.343-0.965-1.027-2.419l-1.098-2.565-1.613-3.886c-0.171-0.049-0.268-0.073-0.294-0.073-0.159 0.647-0.282 1.014-0.367 1.099-0.379 0.795-0.892 1.674-1.539 2.639-0.097 0.195-0.145 0.465-0.145 0.807v0.732c0.096 0.831 0.145 1.296 0.145 1.394v2.857c0 0.599 0.122 1.187 0.365 1.76v0.146c0 0.074-0.097 0.146-0.294 0.219-0.427-0.048-0.695-0.073-0.804-0.073-0.221 0-0.367 0.025-0.441 0.073-0.416-0.048-0.757-0.073-1.025-0.073h-1.32c-0.255 0-0.672 0.025-1.247 0.073l-0.218-0.294c0-0.145 0.17-0.659 0.512-1.539-0.048-0.513-0.073-0.805-0.073-0.88 0.098-0.439 0.146-0.756 0.146-0.953v-2.857c0-0.256-0.025-0.477-0.074-0.66 0.049-0.255 0.074-0.501 0.074-0.734v-3.372c-0.097-0.708-0.146-1.1-0.146-1.173 0-0.024 0.049-0.391 0.146-1.099v-1.613c0-1.991-0.048-3.433-0.146-4.324 0.098-0.195 0.146-0.464 0.146-0.807v-2.711c-0.097-0.708-0.146-1.1-0.146-1.173v-1.245c0.098-0.708 0.146-1.1 0.146-1.173v-1.318c0-0.207-0.195-0.55-0.585-1.026v-0.146c-0.001-0.074 0.072-0.149 0.217-0.222zM101.692 2.326l0.073 0.367h0.073l0.074-0.294-0.146-0.073h-0.074zM101.984 22.998l0.073 0.365c-0.146 0.33-0.221 0.599-0.221 0.807v0.145c0.013 0.098 0.062 0.148 0.147 0.148 0-0.049 0.096-0.195 0.294-0.441v-0.145l0.439-3.446-0.073-0.44 0.073-0.659-0.073-0.44c-0.342 0.27-0.562 1.639-0.659 4.106zM101.911 24.903l-0.074 0.365c0.013 0.098 0.062 0.148 0.147 0.148l0.073-0.148-0.073-0.365h-0.073zM102.13 26.736l0.074 0.294-0.074 1.026c0.049 0.268 0.074 0.465 0.074 0.586h0.074v-1.907h-0.149zM102.204 29.010v0.732h0.074v-0.732h-0.074zM102.643 9.289l-0.073 0.367c0.048 0.708 0.073 1.099 0.073 1.172h0.073l0.074-0.367v-1.172h-0.147zM102.864 12.369l-0.074 0.513v0.586c0 0.049-0.025 0.073-0.074 0.073 0.147 0.391 0.221 0.708 0.221 0.953h0.073c0.098 0 0.146-0.049 0.146-0.146v-1.833c0-0.098-0.048-0.146-0.146-0.146h-0.145zM102.937 25.563v1.907h0.073c0-1.367 0.171-2.052 0.514-2.052-0.049-0.586-0.074-1.026-0.074-1.32 0-0.171 0.122-0.391 0.367-0.66 0-0.255-0.027-0.671-0.074-1.245-0.085-0.001-0.353 1.122-0.805 3.37zM102.937 29.155v0.294c0.012 0.098 0.060 0.146 0.145 0.146v-0.074l-0.073-0.365h-0.072zM103.303 15.813v3.519h0.073c0.049-0.574 0.074-0.99 0.074-1.247v-2.273h-0.147zM103.669 27.468v1.247h0.147v-0.514l-0.074-0.734h-0.073zM104.111 9.876l-0.074 0.367c0.048 0.085 0.074 0.183 0.074 0.292h0.073v-0.659h-0.073zM104.255 5.843c0 0.073 0.025 0.367 0.074 0.88 0 0.355-0.049 1.112-0.146 2.273 0.122 0 0.221-0.195 0.294-0.586v-2.053c0-0.245 0.097-0.513 0.294-0.807 0.049-1.197 0.073-2.15 0.073-2.859v-0.073l-0.073-0.513c-0.136 0-0.257 1.002-0.365 3.006-0.064 0-0.113 0.245-0.15 0.732zM106.382 14.347v0.073h0.074l0.219-0.807c-0.134 0-0.231 0.245-0.294 0.734zM107.336 14.934l-0.734 1.906 0.146 0.073c0.11-0.073 0.304-0.44 0.586-1.1h0.219c0.147 0 0.221 0.171 0.221 0.513h0.073v-0.586c0-0.292-0.171-0.561-0.512-0.805zM107.042 12.734h0.219l0.294-0.219c-0.097-0.367-0.145-0.708-0.145-1.026h-0.074c-0.136 0-0.233 0.415-0.294 1.245zM111.147 9.436v0.221h0.073v-0.221h-0.073zM114.006 2.912c0 0.219-0.097 0.464-0.294 0.732v1.54c0.097 0.708 0.146 1.099 0.146 1.172 0.097 0 0.146-0.049 0.146-0.146v-0.807c0-0.11 0.074-0.428 0.219-0.953-0.097-0.489-0.145-0.807-0.145-0.953 0.048-0.268 0.073-0.464 0.073-0.586h-0.146zM113.86 23.951v0.221h0.073v-0.221h-0.073zM114.080 28.13v0.88c0.096 0 0.145-0.049 0.145-0.148v-0.732h-0.145z"></path>
<path d="M119.212 1.371c0.145 0 0.342 0.049 0.586 0.146 0.342-0.097 0.61-0.146 0.805-0.146l0.953 0.146c0.318-0.097 0.538-0.146 0.66-0.146h1.393c0.158 0 0.5 0.049 1.026 0.146 0.145 0 0.342-0.049 0.586-0.146 0.245 0 0.365 0.025 0.365 0.073 1.051-0.049 1.833-0.073 2.347-0.073h4.764c0.44 0 0.659 0.513 0.659 1.54 0.246 1.661 0.367 2.736 0.367 3.225l-0.294 0.146c-0.379-0.049-0.771-0.221-1.173-0.513l-0.146 0.073h-0.583c-0.171 0-0.391-0.024-0.661-0.073-0.096 0.049-0.17 0.073-0.218 0.073-0.148 0-0.221-0.024-0.221-0.073-0.489 0.049-0.856 0.073-1.1 0.073h-2.346c-0.061 0-0.33-0.049-0.805-0.146h-0.514c-0.097 0-0.343 0.049-0.732 0.146-0.246-0.085-0.367-0.207-0.367-0.365 0.097-0.819 0.268-1.601 0.513-2.347-0.097-0.464-0.145-0.831-0.145-1.099v-0.073c-0.343-0.049-0.538-0.073-0.586-0.073l-0.074 0.146v0.953l-0.146 1.32c0.098 0.647 0.194 1.039 0.294 1.173 0 0.061-0.268 0.452-0.805 1.172v0.146c0 0.342 0.048 0.611 0.146 0.807-0.098 0.195-0.146 0.464-0.146 0.805v1.54c0 0.195 0.048 0.513 0.146 0.953-0.098 0.452-0.146 0.72-0.146 0.807 0 0.586 0.513 0.977 1.539 1.172 0.084 0 0.282-0.049 0.586-0.146l0.44 0.073c1.184 0 2.261-0.195 3.225-0.586h0.294c0.097 0.012 0.146 0.061 0.146 0.146v0.365c0 0.171 0.024 0.391 0.073 0.661-0.097 0.195-0.145 0.367-0.145 0.513 0.048 0.146 0.096 0.221 0.145 0.221l-0.073 0.513v2.346l0.073 0.513-0.219 0.146h-0.146c-0.989-0.391-1.552-0.586-1.686-0.586-0.343 0.049-0.538 0.073-0.586 0.073-0.085 0-0.427-0.073-1.026-0.221-0.183 0.098-0.379 0.146-0.586 0.146-0.049 0-0.122-0.025-0.219-0.073-0.195 0.049-0.367 0.073-0.513 0.073l-0.294-0.073c-0.159 0.098-0.306 0.146-0.441 0.146h-0.145l-0.221-0.146c0.061-1.894 0.158-3.067 0.294-3.519-0.036-0.294-0.183-0.44-0.44-0.44-0.097 0.159-0.146 0.282-0.146 0.367-0.049 1.503-0.073 2.481-0.073 2.933-0.098 0.318-0.146 0.538-0.146 0.66v0.073c0.377 0 0.598 0.098 0.659 0.294l-0.44 0.586c0.049 2.346 0.074 4.154 0.074 5.425v1.686c0 0.219 0.194 0.637 0.585 1.247l0.514-0.074h0.073c0.171 0 0.392 0.025 0.66 0.074l0.513-0.148c0.819 0.049 1.454 0.074 1.907 0.074h1.833c0.207 0 0.404 0.025 0.586 0.074 0.195-0.049 0.391-0.074 0.585-0.074h1.247c0.183 0 0.598-0.146 1.247-0.44h0.146c0.073 0 0.146 0.073 0.221 0.221-0.27 3.029-0.514 4.545-0.734 4.545-0.085 0.049-0.183 0.073-0.294 0.073h-2.273c-2.089 0-3.701 0.025-4.839 0.073-0.966-0.048-2.481-0.073-4.545-0.073h-0.884c-0.245 0-0.365-0.049-0.365-0.146-0.246 0.146-0.441 0.219-0.586 0.219h-0.221c-0.109 0-0.183-0.122-0.219-0.365 0.292-0.746 0.44-1.209 0.44-1.393 0-0.72-0.027-1.209-0.074-1.467 0.048-1.014 0.074-1.943 0.074-2.785v-1.98c0-0.72-0.027-1.209-0.074-1.466 0.048-0.513 0.074-1.075 0.074-1.686v-5.279c0-0.171-0.027-0.391-0.074-0.661 0.048-0.097 0.074-0.17 0.074-0.221l-0.074-0.88 0.074-1.026c0-0.379-0.027-0.72-0.074-1.026 0.048-1.624 0.074-3.042 0.074-4.251v-2.711l-0.074-0.367h0.074l-0.44-1.393v-0.073c0.096-0.195 0.243-0.294 0.439-0.294zM119.799 2.251v0.294l0.513 2.492h0.074c0.048-0.171 0.073-0.268 0.073-0.294 0-0.233-0.146-0.941-0.44-2.126 0-0.245-0.048-0.367-0.146-0.367h-0.074zM119.944 8.189l-0.145 0.294c0 1.148 0.145 1.955 0.439 2.419l-0.219 1.247 0.44 2.126v0.661c0.036 0.292 0.109 0.44 0.221 0.44 0-0.245 0.024-0.365 0.073-0.365-0.085-0.318-0.185-1.124-0.294-2.419v-1.98c0-0.122-0.122-0.61-0.365-1.466l0.073-0.367c-0.001-0.368-0.074-0.563-0.222-0.589zM120.091 27.688c0 0.148-0.027 0.221-0.074 0.221 0.048 0.098 0.074 0.171 0.074 0.221h0.073v-0.441h-0.073zM120.385 5.478c0 0.024-0.027 0.122-0.074 0.292 0 0.221 0.195 1.051 0.586 2.492 0.294 1.454 0.44 2.651 0.44 3.592h-0.073l0.073 0.146v0.146c0 0.049-0.025 0.073-0.073 0.073 0.073 0.195 0.145 0.294 0.218 0.294 0-0.049 0.027-0.073 0.074-0.073 0-0.049-0.025-0.122-0.074-0.221 0.049-1.075 0.122-1.857 0.221-2.346-0.343 0-0.637-1.197-0.88-3.592-0.049 0-0.171-0.268-0.365-0.805h-0.072zM121.41 1.811l-0.073 0.146c0.145 0.66 0.219 1.124 0.219 1.393v0.807c0.012 0.098 0.061 0.146 0.146 0.146v-0.878c0-0.146 0.073-0.44 0.221-0.88-0.061-0.489-0.233-0.734-0.513-0.734zM121.703 26.442l-0.073 0.367v1.026h0.073c0-0.637 0.098-1.075 0.294-1.32l-0.146-0.074h-0.147zM122.291 28.275v0.074c0 0.268 0.025 0.611 0.073 1.026-0.048 0.085-0.073 0.183-0.073 0.294h0.146v-0.148c0-0.158 0.025-0.28 0.074-0.365-0.050-0.587-0.122-0.881-0.221-0.881zM122.511 13.76v0.513c0.096 0 0.145-0.049 0.145-0.146l-0.073-0.367h-0.072zM122.804 2.178v0.88c0.294 0.304 0.439 0.598 0.439 0.88 0.11 0 0.185-0.17 0.221-0.513l-0.073-0.88h0.073c-0.049-0.391-0.171-0.586-0.365-0.586-0.197 0.073-0.294 0.146-0.294 0.219zM124.27 26.884c0 0.024-0.048 0.389-0.146 1.098v0.441h0.146c0.195-0.735 0.294-1.15 0.294-1.247v-0.146c0-0.097-0.048-0.145-0.146-0.145h-0.147zM125.003 13.614c-0.194 0.098-0.294 0.905-0.294 2.419-0.098 0.012-0.146 0.061-0.146 0.146v0.221h0.146c0.245-0.635 0.365-0.977 0.365-1.026s-0.049-0.292-0.145-0.732c0.145-0.257 0.219-0.501 0.219-0.734v-0.146c0-0.098-0.049-0.148-0.146-0.148zM125.735 2.178c0 0.856-0.124 1.833-0.367 2.933l0.147 0.221c0.585-0.049 0.878-0.122 0.878-0.221 0.048-1.613 0.122-2.419 0.219-2.419-0.097-0.367-0.145-0.611-0.145-0.734h-0.586c-0.1 0-0.147 0.073-0.147 0.219zM125.516 28.789c0.048 0.098 0.073 0.171 0.073 0.221h0.146c0.11-0.049 0.304-0.392 0.585-1.027 0.246-0.060 0.367-0.134 0.367-0.219v-0.367c0-0.073-0.074-0.145-0.219-0.219-0.234 0-0.452 0.391-0.659 1.173-0.036-0.001-0.134 0.145-0.292 0.439zM125.735 15.593c0.134 0 0.304-0.268 0.513-0.805l-0.073-0.146v-0.514c0-0.122 0.048-0.342 0.145-0.661l-0.145-0.073h-0.074c-0.121 0.001-0.243 0.734-0.365 2.199zM126.395 15.74l-0.074 0.367v0.073c0.013 0.098 0.062 0.146 0.147 0.146 0-0.049 0.024-0.245 0.073-0.586h-0.146z"></path>
<path d="M135.834 1.371h0.294c0.72 0 1.405 0.025 2.053 0.073 0.33-0.049 0.597-0.073 0.804-0.073 0.098 0 0.27 0.049 0.514 0.146 0.109-0.049 0.33-0.097 0.659-0.146 0.686 0.037 1.026 0.11 1.026 0.221v0.221c-0.246 0.268-0.367 0.611-0.367 1.026-0.048 0-0.145 0.098-0.292 0.292 0 0.098 0.025 0.146 0.073 0.146l-0.073 0.88v1.686c0 0.477 0.025 0.722 0.073 0.734-0.048 0.416-0.073 0.758-0.073 1.026v4.839c0 0.61 0.025 1.369 0.073 2.273-0.048 0.085-0.073 0.207-0.073 0.367 0.036 0.391 0.084 0.586 0.146 0.586l-0.074 0.661c0 1.209-0.025 2.162-0.073 2.859 0.048 1.27 0.073 2.738 0.073 4.399v0.145c0 0.416-0.025 1.026-0.073 1.833 0.598 0.538 0.941 0.807 1.026 0.807 0.316-0.098 0.537-0.146 0.659-0.146h5.938c0.207 0 0.476 0.025 0.805 0.074 0.708-0.294 1.1-0.441 1.173-0.441h0.44c0.074 0 0.146 0.098 0.219 0.294-0.134 0.11-0.255 0.893-0.365 2.347-0.049 0-0.122 0.514-0.221 1.539v0.294c0 0.158-0.245 0.28-0.732 0.365-0.686-0.048-1.272-0.073-1.76-0.073h-1.906c-0.306 0-0.672 0.025-1.1 0.073l-0.439-0.073c-0.613 0.049-0.978 0.073-1.1 0.073l-1.612-0.145c-0.185 0.097-0.379 0.145-0.586 0.145-0.148 0-0.221-0.024-0.221-0.073-0.097 0-0.146 0.025-0.146 0.073-0.905-0.048-1.564-0.073-1.979-0.073h-1.393c-0.318 0-0.805 0.025-1.466 0.073l-0.074-0.145v-0.148c0-0.194 0.146-0.464 0.44-0.805l-0.074-0.146c0-0.073 0.074-0.342 0.219-0.805-0.048-0.819-0.073-1.455-0.073-1.907 0-0.256 0.025-0.672 0.073-1.247l-0.219-1.467c0.097-0.465 0.146-0.831 0.146-1.099v-3.445c-0.098-0.831-0.146-1.296-0.146-1.393v-0.44l0.219-2.052-0.219-1.099c0.097-0.465 0.146-0.831 0.146-1.1v-5.94c0-0.233-0.049-0.623-0.146-1.173 0-0.245 0.025-0.537 0.074-0.88-0.049-0.513-0.074-1.075-0.074-1.686v-0.44c0-0.049 0.025-0.073 0.074-0.073l-0.44-1.466v-0.219c0.013-0.098 0.062-0.147 0.149-0.147zM137.373 15.373c-0.195 1.124-0.294 1.809-0.294 2.053l0.073 0.659c-0.145 0.586-0.219 1.002-0.219 1.247v0.221l0.074 0.513h0.073c0.194-0.696 0.343-1.357 0.44-1.979 0-0.11-0.025-0.379-0.074-0.805 0.049-0.538 0.074-1.002 0.074-1.393l-0.074-0.513h-0.073zM137.227 24.024c-0.195 2.615-0.294 4.423-0.294 5.425v0.221h0.219v-0.44c0-0.294 0.074-0.905 0.221-1.834v-2.126c0-0.207-0.025-0.474-0.073-0.804 0.048-0.098 0.073-0.171 0.073-0.221-0.049-0.098-0.073-0.171-0.073-0.221h-0.073zM137.961 22.925c0 0.136-0.171 0.304-0.514 0.513v0.074c0.282 0.048 0.477 0.074 0.586 0.074 0-0.098 0.025-0.148 0.074-0.148-0.049-0.060-0.074-0.231-0.074-0.513h-0.072zM137.667 4.451v0.953c0 0.231 0.024 0.476 0.073 0.732l-0.073 0.367 0.073 0.513c0 0.11-0.024 0.207-0.073 0.294 0.049 0.501 0.073 0.892 0.073 1.172v0.367c0 0.207-0.024 0.476-0.073 0.807 0.049 0.085 0.073 0.183 0.073 0.294l-0.073 0.365c0.049 0.233 0.073 0.575 0.073 1.026h0.074c0.245-0.807 0.367-1.515 0.367-2.126v-0.878c0-0.489 0.024-1.075 0.073-1.76-0.049-0.085-0.073-0.183-0.073-0.294 0-0.049 0.096-0.367 0.292-0.953l-0.734-0.807v-0.072h-0.073zM138.766 18.159c-0.44 1.491-0.659 2.346-0.659 2.566-0.097 0.012-0.146 0.061-0.146 0.146 0.049 0.929 0.073 1.564 0.073 1.906h0.074c0-0.256 0.245-1.551 0.734-3.885v-0.734h-0.076zM138.399 12.002l-0.292 2.419v0.221l0.074 0.732h0.073c0.194-0.097 0.294-0.245 0.294-0.44 0-0.221-0.027-0.367-0.074-0.44 0.048-0.416 0.074-0.758 0.074-1.026v-0.513l-0.074-0.44c0.048-0.085 0.074-0.183 0.074-0.294-0.049-0.098-0.074-0.171-0.074-0.221h-0.074zM138.766 16.839v1.099c0.012 0.098 0.061 0.146 0.146 0.146v-1.393c-0.098 0.013-0.146 0.062-0.146 0.148zM139.279 2.326v1.247c0 0.073-0.048 0.661-0.145 1.76l0.073 0.513h0.073c0-0.855 0.098-1.636 0.294-2.346 0.049-0.61 0.074-0.977 0.074-1.099l-0.146-0.073h-0.223zM139.499 14.934v0.365h0.146v-0.219c0-0.097-0.049-0.146-0.146-0.146zM140.965 27.981c0.109-0.084 0.379-0.403 0.805-0.953-0.036-0.145-0.134-0.245-0.294-0.294-0.316 0.001-0.488 0.416-0.512 1.247zM141.845 29.302c0 0.122 0.048 0.389 0.145 0.804h0.221l0.146-0.513v-0.219c0-0.256-0.074-0.404-0.219-0.44-0.195 0.049-0.292 0.173-0.292 0.368z"></path>
<path d="M151.577 1.371h0.073c0.098 0 0.343 0.049 0.734 0.146 0.367-0.097 0.611-0.146 0.734-0.146 0.44 0.098 0.757 0.146 0.953 0.146s0.514-0.049 0.953-0.146l0.661 0.073c0.33-0.049 0.598-0.073 0.805-0.073l0.146 0.221-0.367 0.953c0.049 0.537 0.074 1.002 0.074 1.393v1.32c0 0.073-0.048 0.464-0.146 1.172v1.906c0 0.343 0.049 0.611 0.146 0.807-0.097 0.391-0.146 0.856-0.146 1.393v0.146c0 0.171 0.049 0.586 0.146 1.247-0.146 0.574-0.219 1.478-0.219 2.712v1.466h0.073c0.098 0 0.194-0.195 0.294-0.586-0.049-0.416-0.073-0.758-0.073-1.026v-0.953c0.659-1.661 1.173-2.59 1.539-2.786 0.194-0.647 1.051-2.211 2.566-4.691 0-0.158 0.416-0.892 1.247-2.199l0.88-1.539-0.074-0.367v-0.074c0-0.342 0.148-0.513 0.441-0.513 0.122 0 0.316 0.025 0.585 0.073 0.268-0.049 0.465-0.073 0.586-0.073l0.513 0.146c0.185-0.097 0.379-0.146 0.586-0.146h3.298c0.098 0.012 0.146 0.061 0.146 0.146v0.221c0 0.061-0.44 0.55-1.32 1.466-0.219 0.562-1.345 2.566-3.372 6.011-0.537 1.039-0.953 1.771-1.247 2.199-0.306 0.465-0.623 1.075-0.953 1.833-0.246 0.257-0.367 0.501-0.367 0.734v0.073c0.783 1.809 1.173 2.811 1.173 3.006 0.537 0.929 0.831 1.637 0.878 2.126 0.637 1.172 0.954 1.833 0.954 1.979 0.255 0.905 0.647 1.809 1.173 2.714 1.32 3.237 2.077 4.997 2.273 5.277 0.097 0 0.343 0.294 0.732 0.88 0.148 0.049 0.221 0.195 0.221 0.44v0.074c0 0.097-0.049 0.145-0.146 0.145h-0.659l-0.44-0.073c-0.049 0-0.073 0.025-0.073 0.073-0.575-0.048-0.99-0.073-1.247-0.073h-1.907c-0.255 0-0.672 0.025-1.247 0.073l-0.219-0.294v-0.732c0-0.392-0.219-0.953-0.661-1.688 0-0.158-0.342-0.965-1.025-2.419l-1.1-2.565-1.612-3.886c-0.171-0.049-0.27-0.073-0.294-0.073-0.158 0.647-0.282 1.014-0.365 1.099-0.379 0.795-0.893 1.674-1.54 2.639-0.097 0.195-0.146 0.465-0.146 0.807v0.732c0.098 0.831 0.146 1.296 0.146 1.394v2.857c0 0.599 0.122 1.187 0.367 1.76v0.146c0 0.074-0.098 0.146-0.294 0.219-0.428-0.048-0.696-0.073-0.807-0.073-0.219 0-0.365 0.025-0.439 0.073-0.416-0.048-0.757-0.073-1.027-0.073h-1.318c-0.256 0-0.672 0.025-1.247 0.073l-0.221-0.294c0-0.145 0.171-0.659 0.514-1.539-0.049-0.513-0.074-0.805-0.074-0.88 0.097-0.439 0.146-0.756 0.146-0.953v-2.857c0-0.256-0.025-0.477-0.073-0.66 0.048-0.255 0.073-0.501 0.073-0.734v-3.372c-0.098-0.708-0.146-1.1-0.146-1.173 0-0.024 0.048-0.391 0.146-1.099v-1.613c0-1.991-0.049-3.433-0.146-4.324 0.097-0.195 0.146-0.464 0.146-0.807v-2.711c-0.098-0.708-0.146-1.1-0.146-1.173v-1.245c0.097-0.708 0.146-1.1 0.146-1.173v-1.318c0-0.207-0.194-0.55-0.586-1.026v-0.146c-0.001-0.074 0.072-0.149 0.219-0.222zM152.602 2.326l0.074 0.367h0.074l0.073-0.294-0.146-0.073h-0.076zM152.895 22.998l0.074 0.365c-0.146 0.33-0.219 0.599-0.219 0.807v0.145c0.011 0.098 0.060 0.148 0.145 0.148 0-0.049 0.098-0.195 0.294-0.441v-0.145l0.441-3.446-0.074-0.44 0.074-0.659-0.074-0.44c-0.343 0.27-0.562 1.639-0.661 4.106zM152.822 24.903l-0.073 0.365c0.011 0.098 0.060 0.148 0.145 0.148l0.074-0.148-0.074-0.365h-0.072zM153.043 26.736l0.073 0.294-0.073 1.026c0.048 0.268 0.073 0.465 0.073 0.586h0.073v-1.907h-0.146zM153.116 29.010v0.732h0.073v-0.732h-0.073zM153.556 9.289l-0.074 0.367c0.049 0.708 0.074 1.099 0.074 1.172h0.074l0.073-0.367v-1.172h-0.148zM153.775 12.369l-0.073 0.513v0.586c0 0.049-0.025 0.073-0.073 0.073 0.145 0.391 0.219 0.708 0.219 0.953h0.073c0.097 0 0.146-0.049 0.146-0.146v-1.833c0-0.098-0.049-0.146-0.146-0.146h-0.146zM153.85 25.563v1.907h0.073c0-1.367 0.171-2.052 0.513-2.052-0.048-0.586-0.073-1.026-0.073-1.32 0-0.171 0.122-0.391 0.365-0.66 0-0.255-0.024-0.671-0.073-1.245-0.085-0.001-0.355 1.122-0.805 3.37zM153.85 29.155v0.294c0.012 0.098 0.061 0.146 0.146 0.146v-0.074l-0.074-0.365h-0.072zM154.215 15.813v3.519h0.074c0.048-0.574 0.073-0.99 0.073-1.247v-2.273h-0.148zM154.582 27.468v1.247h0.145v-0.514l-0.073-0.734h-0.072zM155.020 9.876l-0.073 0.367c0.049 0.085 0.073 0.183 0.073 0.292h0.074v-0.659h-0.074zM155.169 5.843c0 0.073 0.024 0.367 0.073 0.88 0 0.355-0.049 1.112-0.146 2.273 0.122 0 0.219-0.195 0.294-0.586v-2.053c0-0.245 0.097-0.513 0.294-0.807 0.048-1.197 0.074-2.15 0.074-2.859v-0.073l-0.074-0.513c-0.136 0-0.256 1.002-0.367 3.006-0.064 0-0.112 0.245-0.148 0.732zM157.294 14.347v0.073h0.073l0.221-0.807c-0.134 0-0.234 0.245-0.294 0.734zM158.247 14.934l-0.734 1.906 0.146 0.073c0.109-0.073 0.304-0.44 0.586-1.1h0.221c0.145 0 0.218 0.171 0.218 0.513h0.074v-0.586c0.001-0.292-0.169-0.561-0.512-0.805zM157.953 12.734h0.221l0.294-0.219c-0.098-0.367-0.148-0.708-0.148-1.026h-0.073c-0.134 0-0.233 0.415-0.294 1.245zM162.059 9.436v0.221h0.074v-0.221h-0.074zM164.918 2.912c0 0.219-0.098 0.464-0.294 0.732v1.54c0.097 0.708 0.146 1.099 0.146 1.172 0.097 0 0.146-0.049 0.146-0.146v-0.807c0-0.11 0.073-0.428 0.221-0.953-0.098-0.489-0.148-0.807-0.148-0.953 0.049-0.268 0.074-0.464 0.074-0.586h-0.146zM164.771 23.951v0.221h0.074v-0.221h-0.074zM164.99 28.13v0.88c0.098 0 0.148-0.049 0.148-0.148v-0.732h-0.148z"></path>
<path d="M174.338 1.371h0.294c0.343 0 0.61 0.049 0.807 0.146 0.219-0.097 0.464-0.146 0.732-0.146 0.194 0 0.637 0.025 1.32 0.073 0.097-0.049 0.17-0.073 0.219-0.073 0.245 0.098 0.416 0.146 0.514 0.146 0.342-0.097 0.61-0.146 0.805-0.146 0.256 0 0.452 0.122 0.586 0.367v0.221c0 0.061-0.049 0.33-0.146 0.807v0.221l1.026 4.618 1.172 5.644c0.245 0.647 0.537 2.041 0.88 4.18 0.489 2.211 0.734 3.531 0.734 3.959 0.097 0.012 0.146 0.061 0.146 0.146v1.612c0.343 0.221 0.514 0.613 0.514 1.173 0.194 0 0.316 0.586 0.365 1.76 0.136 0 0.256 0.686 0.365 2.053 0.661 0.892 1.051 1.675 1.173 2.346-0.073 0-0.146 0.074-0.221 0.219-0.975-0.048-1.71-0.073-2.198-0.073h-0.953c-0.136 0-0.282-0.049-0.44-0.146-0.318 0.097-0.538 0.146-0.661 0.146h-0.804c-0.074 0-0.171-0.097-0.294-0.294v-0.073c0.145-0.465 0.219-0.758 0.219-0.88v-0.88c-0.146-0.428-0.294-1.16-0.44-2.198-0.136-0.062-0.256-0.404-0.365-1.027-0.282 0-0.526-0.122-0.735-0.365-0.488 0.049-0.855 0.073-1.098 0.073h-2.639c-0.929 0-1.467 0.343-1.613 1.027-0.11 0.695-0.255 1.356-0.44 1.977-0.049 0.085-0.073 0.209-0.073 0.367v1.026c0 0.245 0.049 0.537 0.146 0.88-0.097 0.294-0.195 0.439-0.294 0.439h-0.219c-0.159 0-0.283-0.024-0.367-0.073l-0.44 0.073h-0.221c-0.379 0-0.72-0.024-1.025-0.073l-0.514 0.073c-0.145 0-0.316-0.024-0.513-0.073-0.465 0.049-0.905 0.073-1.32 0.073h-0.513c-0.097 0-0.146-0.048-0.146-0.145v-0.074c0-0.219 0.221-0.611 0.659-1.172 0-0.195 0.122-0.708 0.365-1.54 0.489-2.553 1.002-4.9 1.54-7.037 0.146-0.977 0.513-2.712 1.099-5.206 0-0.207 0.098-0.403 0.294-0.586v-0.073c0-0.11-0.025-0.207-0.073-0.294 0.342-1.564 0.513-2.566 0.513-3.006 0.159 0 0.282-0.513 0.367-1.539 0.245-0.746 0.635-2.432 1.172-5.058 0.195-0.672 0.294-1.063 0.294-1.173v-0.953c0-0.256-0.025-0.672-0.074-1.247 0.186-0.147 0.356-0.221 0.516-0.221zM169.499 28.056v0.586c0 0.246-0.025 0.611-0.073 1.099h0.073c0.098 0 0.146-0.049 0.146-0.146v-1.539h-0.146zM173.165 24.465v0.219c0.098 0 0.148-0.049 0.148-0.146v-0.073h-0.148zM173.971 8.043v0.367c0.012 0.098 0.060 0.146 0.145 0.146v-0.513h-0.145zM174.265 12.661v0.292c0 0.637 0.073 0.953 0.219 0.953 0.048-0.574 0.074-0.99 0.074-1.247v-0.072l0.294-0.44v-0.219c-0.173 0.318-0.368 0.561-0.587 0.732zM174.41 6.944c0 0.098-0.024 0.146-0.073 0.146 0 0.207 0.122 0.526 0.365 0.953 0 0.929 0.074 1.393 0.221 1.393v-0.146c0-0.72-0.122-1.503-0.365-2.346h-0.148zM174.631 14.347v0.221c0.049 0 0.122 0.025 0.221 0.073l0.219-0.294v-0.221c-0.159 0.148-0.304 0.221-0.44 0.221zM174.778 6.064v0.294h0.074v-0.294h-0.074zM174.778 15.373v0.073l0.074 0.367h0.073l0.073-0.367-0.145-0.073h-0.076zM174.924 19.626v0.44c0 0.061 0.221 0.282 0.659 0.66h2.493c0.146 0 0.292-0.342 0.44-1.026-0.392-2.065-0.857-4.239-1.394-6.525 0-0.525-0.097-1.014-0.294-1.466h-0.073c-0.158 0-0.355 0.758-0.586 2.273-0.28 0.941-0.476 2.016-0.586 3.225-0.145 0-0.268 0.537-0.365 1.612-0.197 0.195-0.294 0.464-0.294 0.807zM175.145 4.084v0.807h0.073v-0.807h-0.073zM175.439 12.88c-0.197 0.513-0.294 0.831-0.294 0.953 0.194 0 0.316-0.294 0.365-0.88v-0.073h-0.072zM175.145 22.631v0.586c0.096 0 0.145-0.048 0.145-0.146v-0.294c0-0.097-0.049-0.146-0.145-0.146zM175.364 2.326l0.219 0.294c0 0.207-0.049 0.403-0.145 0.586 0.194 0 0.365 0.783 0.512 2.346 0.159 0 0.405 0.611 0.735 1.833l0.145-0.073-0.073-0.367v-0.514c-0.098-0.708-0.146-1.099-0.146-1.172v-0.44l-0.219 0.146h-0.148c-0.145-0.049-0.219-0.195-0.219-0.44v-1.979c-0.048-0.146-0.195-0.221-0.44-0.221h-0.221zM175.364 6.064v0.294c0.012 0.098 0.061 0.146 0.146 0.146h0.073v-0.221l-0.073-0.367c-0.098 0.012-0.146 0.062-0.146 0.147zM175.583 11.268l-0.073 0.661v0.221h0.073c0-0.367 0.074-0.586 0.221-0.661-0.049-0.097-0.073-0.17-0.073-0.221h-0.148zM175.51 12.221v0.367h0.073v-0.367h-0.073zM175.804 7.017l-0.073 0.367v0.294c0 0.304 0.218 0.795 0.659 1.466 0 0.342 0.073 0.684 0.219 1.026h0.074v-0.953c0-0.146-0.221-0.562-0.661-1.247 0-0.635-0.074-0.953-0.219-0.953zM178.077 21.457c0 0.073-0.097 0.171-0.294 0.294h-0.146c-0.185-0.146-0.33-0.221-0.44-0.221l-0.146 0.221v0.146c0 0.256 0.097 0.428 0.294 0.513 0.024 0 0.146-0.097 0.365-0.292h0.074c0.195 0.097 0.294 0.245 0.294 0.44h0.074l0.073-0.513v-0.44c-0.003-0.098-0.052-0.148-0.149-0.148zM177.271 23.291c-0.098 0.316-0.148 0.537-0.148 0.659h0.221c0.097 0 0.146-0.049 0.146-0.146v-0.294c0-0.074-0.074-0.146-0.219-0.219zM177.49 6.577c-0.097 0.306-0.146 0.501-0.146 0.586 0.097 0.367 0.146 0.611 0.146 0.734 0 0.085-0.049 0.231-0.146 0.44 0.097 0.343 0.146 0.637 0.146 0.88v0.586h0.074c0.073 0 0.17-0.367 0.294-1.1l-0.074-0.367v-1.245c-0.001-0.268-0.098-0.44-0.294-0.513zM178.002 12.369l-0.145 0.294c0.145 0.355 0.219 0.574 0.219 0.659h0.146v-0.146c0-0.538-0.072-0.807-0.221-0.807zM178.077 23.144v0.294h0.074v-0.294h-0.074zM178.589 15.373v0.146c0 0.11 0.025 0.209 0.073 0.294-0.048 0.085-0.073 0.183-0.073 0.294v0.294c0.013 0.098 0.061 0.146 0.146 0.146l0.074-0.146v-1.173h-0.074c-0.097 0.012-0.146 0.061-0.146 0.146zM178.663 14.421v0.146h0.148v-0.146h-0.148zM178.663 23.73v0.074c0.013 0.097 0.062 0.146 0.148 0.146 0.097 0 0.145-0.049 0.145-0.146v-0.294h-0.073c-0.072 0-0.146 0.074-0.219 0.219zM178.81 21.457v0.88c0.012 0.098 0.060 0.146 0.145 0.146v-1.026h-0.145zM178.883 5.257v0.365h0.146v-0.365h-0.146zM179.176 18.159l-0.073 0.146v0.294c0 0.073 0.073 0.146 0.219 0.221h0.074v-0.221c0-0.256-0.073-0.403-0.221-0.44zM179.396 20.431l-0.074 0.146c0.195 0.221 0.294 0.343 0.294 0.367v0.586c0 0.049-0.025 0.073-0.074 0.073l0.074 0.146v1.32c0 0.256-0.025 0.672-0.074 1.247l0.221 0.148h0.073v-1.027c0-0.231 0.025-0.474 0.074-0.732-0.049-0.195-0.074-0.391-0.074-0.586 0.049-0.856 0.074-1.369 0.074-1.54-0.246-0.097-0.416-0.146-0.513-0.146zM179.542 15.447c0 0.159-0.024 0.282-0.073 0.367 0.097 0.343 0.146 0.635 0.146 0.88v0.294c0 0.049-0.025 0.073-0.074 0.073 0.049 0.098 0.074 0.171 0.074 0.221l0.513-0.073c0.098 0.122 0.148 0.221 0.148 0.294-0.098 0.158-0.148 0.304-0.148 0.44 0.148 0.171 0.221 0.367 0.221 0.586h0.073l0.074-0.44-0.074-0.367c0.049-0.33 0.074-0.598 0.074-0.805-0.049-0.171-0.074-0.268-0.074-0.294-0.268 0.245-0.416 0.367-0.439 0.367-0.159 0-0.256-0.318-0.294-0.953v-0.586h-0.148zM179.615 13.174c0 0.049-0.025 0.073-0.074 0.073 0 0.049 0.025 0.073 0.074 0.073l-0.074 0.367v0.073l0.074 0.367h-0.073l0.148 0.367-0.074 0.44c0.012 0.097 0.061 0.146 0.146 0.146l0.146-0.221c-0.097-0.159-0.146-0.306-0.146-0.44v-0.073c0-0.171 0.024-0.391 0.073-0.661-0.061-0.34-0.134-0.512-0.219-0.512zM179.835 19.626v0.146c0.013 0.097 0.062 0.146 0.148 0.146l0.073-0.146v-0.146h-0.221zM180.203 14.86v0.146c0.097 0.342 0.146 0.61 0.146 0.805h0.146v-0.073c0-0.122-0.074-0.416-0.219-0.88h-0.073zM180.788 19.772l-0.073 0.292 0.146 0.073h0.074c0.097 0 0.145-0.049 0.145-0.146-0.048-0.097-0.073-0.17-0.073-0.219h-0.219zM181.375 17.865v0.221h0.148v-0.367c-0.098 0.012-0.148 0.061-0.148 0.146zM181.667 29.961l0.367 0.073c0.097-0.158 0.146-0.28 0.146-0.365h-0.146c-0.245 0.122-0.367 0.219-0.367 0.292zM182.841 25.050v0.146h0.074v-0.146h-0.074zM182.915 29.52v0.148h0.073v-0.148h-0.073zM183.355 27.468v0.513c0.012 0.098 0.060 0.148 0.145 0.148v-0.66h-0.145z"></path>
<path d="M186.177 1.371l0.367 0.073h2.419c0.233 0 0.623 0.049 1.172 0.146l0.735-0.146c0.084 0 0.28 0.049 0.586 0.146l1.977-0.146c0.085 0.049 0.306 0.098 0.661 0.146 0.084 0 0.282-0.049 0.585-0.146 0.037 0 0.185 0.025 0.441 0.073l0.88-0.073c0.316 0.098 0.537 0.146 0.659 0.146h0.146c0.916-0.146 1.405-0.221 1.466-0.221 0.318 0 0.661 0.245 1.026 0.734 0.928 0.489 1.393 1.026 1.393 1.612 0.049 0 0.074 0.025 0.074 0.073 0 0.049-0.025 0.122-0.074 0.221 0.049 0.635 0.074 1.148 0.074 1.539v0.073c0 0.171-0.025 0.391-0.074 0.66 0.098 0.306 0.148 0.501 0.148 0.586-0.098 0.342-0.148 0.635-0.148 0.88 0.195 0.476 0.294 0.795 0.294 0.953v1.247l-0.294 1.833c0 0.28 0.025 0.672 0.074 1.172-0.097 0.489-0.146 0.929-0.146 1.32 0.194 0.452 0.294 0.72 0.294 0.807v0.88c-0.136 0.905-0.256 1.418-0.365 1.54-0.098 0-0.538 0.44-1.321 1.32-0.292 0.134-0.439 0.379-0.439 0.734 0.097 0.758 0.268 1.369 0.513 1.833l0.734 2.932c0 0.758 0.294 1.809 0.88 3.152 0 1.099 0.294 1.882 0.88 2.346 0.145 0 0.267 0.221 0.365 0.66-0.158 0.146-0.28 0.219-0.365 0.219-0.526-0.096-0.868-0.145-1.026-0.145h-0.367c-0.416 0-0.928 0.049-1.539 0.145-0.428-0.048-0.695-0.073-0.805-0.073-0.037 0-0.183 0.025-0.44 0.073-0.194-0.048-0.365-0.073-0.514-0.073l-0.512 0.073c-0.246-0.085-0.367-0.207-0.367-0.365 0.146-0.245 0.219-0.44 0.219-0.586v-0.146c-0.194-1.124-0.488-2.346-0.88-3.665 0-0.207-0.122-0.696-0.365-1.466 0-0.159-0.122-0.625-0.365-1.394-0.049-0.44-0.294-1.32-0.734-2.639 0-0.452-0.416-0.843-1.247-1.172l-0.365 0.073-1.025-0.073c0 0.061-0.246 0.33-0.735 0.805v2.199c0 1.063-0.024 2.504-0.073 4.326 0.049 0.267 0.073 0.488 0.073 0.659l-0.073 0.365c0.049 0.379 0.073 0.795 0.073 1.247v0.074c0 0.085 0.171 0.549 0.514 1.393v0.073c0 0.074-0.073 0.148-0.221 0.221h-3.151c-0.282 0-0.672 0.025-1.173 0.073-0.098-0.048-0.171-0.073-0.221-0.073-0.085 0.049-0.207 0.073-0.365 0.073-0.245-0.145-0.365-0.294-0.365-0.439 0.439-0.696 0.659-1.235 0.659-1.613v-1.54c0-0.793-0.025-1.379-0.073-1.758 0.048-0.377 0.073-0.965 0.073-1.758v-1.247c0-0.11-0.025-0.207-0.073-0.292 0.048-0.085 0.073-0.183 0.073-0.294v-0.146c0-0.28-0.025-0.452-0.073-0.513 0.048-0.268 0.073-0.489 0.073-0.66v-0.659c0-0.207-0.025-0.404-0.073-0.586 0-0.049 0.024-0.122 0.073-0.221-0.049-0.781-0.073-1.247-0.073-1.393 0-0.122 0.024-0.758 0.073-1.906l-0.073-0.367c0.048-0.085 0.073-0.183 0.073-0.292l-0.073-0.367 0.073-0.146c-0.049-0.098-0.073-0.171-0.073-0.221l0.073-0.44c0-0.146-0.025-0.318-0.073-0.513 0.048-0.769 0.073-1.332 0.073-1.686 0-0.416-0.025-1.148-0.073-2.199 0.036-0.391 0.084-0.586 0.145-0.586l-0.073-0.367v-1.029c0-0.268-0.025-0.611-0.073-1.026 0.048-0.097 0.073-0.17 0.073-0.221 0-0.049-0.025-0.073-0.073-0.073l0.073-0.732v-2.787c0-0.098-0.146-0.391-0.44-0.88v-0.073l0.215-0.294zM188.302 13.687v0.146c0 0.061-0.048 0.33-0.145 0.807 0.024 0.489 0.097 0.732 0.219 0.732v-1.172l0.146-0.221v-0.146c0-0.097-0.049-0.146-0.146-0.146h-0.074zM188.302 21.532c0 0.11-0.024 0.207-0.073 0.294 0.049 0.489 0.122 0.732 0.221 0.732h0.073v-0.073c0-0.17 0.024-0.391 0.073-0.659-0.049-0.085-0.073-0.183-0.073-0.294h-0.221zM189.183 18.013v0.221h0.148v-0.367c-0.098 0.012-0.148 0.061-0.148 0.146zM189.33 6.356c0 0.171-0.027 0.391-0.074 0.66 0.048 0.085 0.074 0.183 0.074 0.294 0.060 0 0.182-0.122 0.365-0.367 0-0.27-0.122-0.465-0.365-0.587zM189.403 12.075l-0.146 0.88c0.048 0.257 0.074 0.501 0.074 0.734v0.294h0.145l0.146-0.367-0.219-0.367v-0.514c0-0.122 0.049-0.342 0.146-0.659h-0.146zM189.256 19.992l0.146 0.734h0.073v-0.586c0-0.097-0.049-0.146-0.145-0.146h-0.074zM189.33 2.618l0.073 0.146v0.805h0.146l0.073-0.367v-0.072c0-0.049-0.048-0.245-0.146-0.586l-0.146 0.073zM189.403 16.253c0.061 0 0.183-0.122 0.365-0.367l-0.146-0.073c-0.098 0-0.17 0.146-0.219 0.44zM189.403 16.474v0.221h0.073v-0.221h-0.073zM189.623 18.745c0 0.195-0.025 0.294-0.073 0.294 0.048 0.073 0.073 0.221 0.073 0.44h0.146l0.073-0.66-0.145-0.073h-0.074zM189.696 14.86v0.146c0.012 0.097 0.060 0.146 0.145 0.146 0.098-0.158 0.148-0.28 0.148-0.365l-0.148-0.073c-0.097 0.012-0.145 0.061-0.145 0.146zM189.696 21.092v0.073c0.145 0.221 0.219 0.367 0.219 0.44h0.146v-0.367c0-0.098-0.049-0.146-0.146-0.146h-0.219zM189.696 25.343v0.367h0.073v-0.367h-0.073zM189.769 17.646l0.44 0.734v-0.367c0-0.256-0.074-0.403-0.219-0.44-0.098 0.049-0.171 0.073-0.221 0.073zM189.842 22.41v0.073h0.074c0.097 0 0.146-0.049 0.146-0.146v-0.073h-0.073c-0.098 0.012-0.148 0.061-0.148 0.146zM190.428 15.593c0 0.245-0.024 0.367-0.073 0.367l0.073 0.146v0.073c0 0.233-0.122 0.428-0.365 0.586 0.146 0.33 0.221 0.526 0.221 0.586h0.145l-0.073-0.734c0.061 0 0.185-0.122 0.365-0.367l-0.145-0.661h-0.148zM190.502 2.399c0 0.049-0.025 0.122-0.074 0.221 0.049 0.294 0.122 0.44 0.221 0.44 0.146-0.049 0.221-0.195 0.221-0.44v-0.074c0-0.098-0.049-0.146-0.148-0.146h-0.219zM190.502 19.186c0.146-0.195 0.294-0.294 0.44-0.294v-0.367h-0.073c-0.246 0.207-0.367 0.428-0.367 0.66zM194.241 5.77h-1.32c-0.282 0-0.672-0.024-1.172-0.073-0.246 0-0.613 0.27-1.1 0.807 0.049 0.489 0.073 0.856 0.073 1.1v1.32c0 0.318-0.024 0.635-0.073 0.953 0.049 0.171 0.073 0.44 0.073 0.805 0 0.282-0.024 0.452-0.073 0.513 0.049 0.33 0.073 0.599 0.073 0.807v2.126c0 0.049-0.024 0.073-0.073 0.073 0.207 0.379 0.428 0.647 0.659 0.807h4.619c0.391-0.379 0.586-0.892 0.586-1.54v-2.86c0-0.623 0.025-1.306 0.074-2.052-0.049-0.195-0.074-0.391-0.074-0.586 0.048-0.464 0.074-0.928 0.074-1.393 0-0.367-0.441-0.684-1.321-0.953-0.367 0.097-0.71 0.146-1.026 0.146zM191.014 16.253l0.221 0.367c-0.049 0.268-0.073 0.465-0.073 0.586 0.267 0.416 0.439 0.831 0.513 1.247 0.158 0.098 0.282 0.146 0.365 0.146 0.049-0.097 0.074-0.17 0.074-0.221-0.098-0.33-0.343-0.916-0.734-1.76 0.048-0.085 0.074-0.183 0.074-0.294 0-0.097-0.049-0.146-0.148-0.146h-0.145l-0.149 0.074zM191.163 5.038l0.145 0.073c0.085 0 0.256-0.221 0.514-0.66 0.097-0.049 0.171-0.073 0.219-0.073 0.195 0.221 0.294 0.391 0.294 0.513h0.146l0.073-0.88c-0.342 0-0.513-0.268-0.513-0.807v-0.292c0-0.122 0.049-0.342 0.146-0.66h-0.073c-0.343 0-0.514 0.367-0.514 1.099-0.194 0.306-0.342 0.869-0.437 1.688zM192.554 2.178v0.073l0.221 0.44c-0.049 0.416-0.073 0.757-0.073 1.026v0.146c0.145-0.049 0.219-0.195 0.219-0.44 0-0.073-0.025-0.415-0.074-1.026h0.074c-0.048-0.098-0.074-0.171-0.074-0.221h-0.292zM193.726 3.938c-0.294 0.647-0.439 0.99-0.439 1.026l0.145 0.073h0.294c0.098 0 0.148-0.049 0.148-0.146v-0.807c0.001-0.097-0.048-0.146-0.148-0.146zM193.801 2.618v0.44h0.074l0.073-0.513v-0.073c-0.1 0.012-0.148 0.061-0.148 0.146zM195.047 15.813c0 0.049 0.025 0.073 0.074 0.073l-0.074 0.367c0.048 0.098 0.074 0.171 0.074 0.221h0.294c0.097-0.025 0.194-0.146 0.294-0.367-0.049 0-0.195-0.17-0.441-0.513-0.039-0.001-0.11 0.073-0.221 0.219zM195.12 20.725c0.145 0.209 0.219 0.55 0.219 1.026l0.146-0.073-0.073-0.367c0.048-0.355 0.073-0.55 0.073-0.586l-0.146-0.073h-0.074l-0.145 0.073zM195.267 2.251v1.76l0.074 0.88h0.074c0-0.233 0.024-0.477 0.073-0.734-0.049-0.598-0.073-1.185-0.073-1.76v-0.146h-0.149zM195.633 17.060v0.221l0.513 1.906h0.148l0.073-0.367c-0.245-0.464-0.365-0.904-0.365-1.32v-0.44c0-0.098-0.049-0.146-0.148-0.146h-0.073c-0.1 0.012-0.148 0.060-0.148 0.146zM195.853 16.107c0.013 0.098 0.062 0.146 0.148 0.146l0.073-0.294h-0.073c-0.098 0.013-0.148 0.062-0.148 0.148zM196.219 2.985c0.11 1.172 0.207 2.028 0.294 2.565h0.074v-0.732c0.194-1.002 0.292-1.54 0.292-1.613v-0.586l0.074-0.367c-0.098-0.049-0.171-0.073-0.221-0.073-0.344 0.134-0.514 0.403-0.514 0.807zM197.172 16.547l-0.074 0.513c0 0.245 0.027 0.61 0.074 1.099h0.074l0.073-0.88-0.073-0.734h-0.074zM197.172 19.552c0 0.025-0.025 0.122-0.074 0.294 0.049 0.097 0.074 0.17 0.074 0.219h0.074c0-0.049 0.024-0.122 0.073-0.219-0.049-0.085-0.073-0.183-0.073-0.294h-0.074zM197.76 28.496v0.073c0.146 0.708 0.219 1.15 0.219 1.32h0.148v-0.074c0-0.878-0.098-1.318-0.294-1.318h-0.073zM197.906 6.869v0.294l0.073 0.367h0.074l0.074-0.367v-0.513c-0.076 0-0.149 0.073-0.222 0.219zM197.906 13.981v0.073h0.073c0.098-0.318 0.148-0.537 0.148-0.661-0.112 0.001-0.185 0.197-0.221 0.587zM198.713 2.472c0.048 0.098 0.073 0.171 0.073 0.221 0 0.55-0.146 1.357-0.44 2.419v0.221c0.255 0 0.526-0.734 0.805-2.199l-0.219-0.732h-0.074l-0.145 0.072zM198.42 25.929c0.145 0.99 0.219 1.577 0.219 1.758v0.514c0.012 0.098 0.061 0.146 0.146 0.146 0.085-0.048 0.183-0.074 0.294-0.074l0.073 0.148c0 0.122-0.024 0.316-0.073 0.586 0 0.732 0.194 1.098 0.586 1.098 0.695-0.096 1.184-0.145 1.467-0.145-0.234-0.489-0.379-0.734-0.441-0.734-0.158 0-0.33 0.074-0.513 0.219h-0.294c-0.097 0-0.146-0.048-0.146-0.145l0.073-0.367c0-0.476-0.267-0.941-0.804-1.393 0-0.416-0.171-0.953-0.514-1.613h-0.073zM198.639 17.133c0 0.073 0.025 0.367 0.074 0.88h0.145c0.074 0 0.148-0.073 0.221-0.221v-0.073l-0.221-0.292v-0.221c0-0.207 0.098-0.526 0.294-0.953l-0.145-0.073c-0.161 0-0.284 0.318-0.368 0.953zM198.786 22.704v0.073c0.012 0.098 0.061 0.146 0.146 0.146v-0.221h-0.146zM199.006 11.048l0.073 0.294h0.365c0.146 0 0.221-0.464 0.221-1.393 0-0.037-0.027-0.183-0.074-0.44h-0.074c-0.097 0-0.171 0.294-0.219 0.88-0.195 0.219-0.291 0.44-0.291 0.659zM199.151 12.515v2.273l0.073 0.513h0.148v-0.292c0-0.098-0.049-0.342-0.148-0.734 0-0.073 0.074-0.367 0.221-0.88v-1.026h-0.146c-0.097 0.012-0.148 0.061-0.148 0.146zM199.151 24.024v0.148c0 0.354 0.073 0.549 0.221 0.585h0.073v-0.219c0-0.268-0.098-0.44-0.294-0.513zM200.104 4.817c0 0.195-0.048 0.294-0.145 0.294l0.073 0.513v0.294l-0.807 0.66v0.073c0 0.073 0.074 0.146 0.221 0.221h0.514l0.294-0.221-0.074-0.513c0.048-0.61 0.074-0.977 0.074-1.099-0.049-0.098-0.074-0.171-0.074-0.221h-0.076zM199.592 25.783c0.074 0.194 0.146 0.294 0.219 0.294v-0.514c-0.037 0-0.109 0.074-0.219 0.221zM200.178 4.304v0.294h0.074c0.048-0.171 0.073-0.268 0.073-0.294h-0.148z"></path>
</svg>
