<!-- Generated by IcoMoon.io -->
<svg version="1.1" xmlns="http://www.w3.org/2000/svg" width="500" height="400" viewBox="0 0 56 32">
<title>downarrow</title>
<path d="M27.876 22.438c6.766-6.991 13.173-13.613 19.586-20.229 0.452-0.466 0.904-0.943 1.417-1.332 1.674-1.269 3.848-1.142 5.347 0.271 1.548 1.458 1.76 3.733 0.476 5.482-0.342 0.467-0.776 0.87-1.188 1.284-7.336 7.352-14.671 14.704-22.012 22.051-2.748 2.75-4.696 2.747-7.461-0.019-7.431-7.439-14.862-14.879-22.284-22.328-1.978-1.985-2.286-4.077-0.923-5.902 1.681-2.252 4.461-2.293 6.726-0.038 6.163 6.138 12.309 12.292 18.448 18.453 0.502 0.504 0.903 1.107 1.868 2.308z"></path>
</svg>
