<!-- Generated by IcoMoon.io -->
<svg version="1.1" xmlns="http://www.w3.org/2000/svg" width="32" height="32" viewBox="0 0 32 32">
<title>exit</title>
<path d="M15.063 0c0.625 0 1.25 0 1.874 0 0.081 0.018 0.16 0.046 0.242 0.052 1.954 0.13 3.831 0.581 5.579 1.457 5.691 2.851 8.798 7.468 9.215 13.822 0.189 2.895-0.459 5.661-1.866 8.203-2.491 4.506-6.281 7.259-11.352 8.219-0.601 0.115-1.213 0.167-1.82 0.249-0.625 0-1.25 0-1.874 0-0.081-0.017-0.16-0.046-0.242-0.052-2.241-0.151-4.366-0.745-6.33-1.829-4.505-2.489-7.265-6.271-8.237-11.335-0.116-0.609-0.17-1.231-0.252-1.848 0-0.625 0-1.251 0-1.876 0.018-0.088 0.046-0.178 0.052-0.269 0.155-2.233 0.748-4.347 1.828-6.302 2.486-4.506 6.267-7.265 11.334-8.238 0.609-0.118 1.233-0.17 1.849-0.252zM30 16.010c0.008-7.717-6.246-13.988-13.974-14.009-7.724-0.021-14.016 6.256-14.025 13.99-0.008 7.717 6.246 13.988 13.976 14.009 7.723 0.022 14.015-6.253 14.023-13.99z"></path>
<path d="M14.68 15.983c-0.157-0.112-0.263-0.167-0.342-0.245-1.645-1.64-3.286-3.284-4.929-4.925-0.297-0.297-0.479-0.628-0.367-1.062 0.188-0.728 1.021-1.010 1.608-0.543 0.090 0.071 0.169 0.154 0.251 0.235 1.628 1.626 3.255 3.254 4.88 4.883 0.080 0.080 0.137 0.182 0.213 0.287 0.136-0.129 0.217-0.206 0.3-0.286 1.618-1.605 3.24-3.211 4.857-4.819 0.256-0.255 0.537-0.426 0.911-0.395 0.387 0.032 0.668 0.227 0.833 0.57 0.169 0.349 0.126 0.691-0.101 1-0.085 0.116-0.193 0.219-0.296 0.321-1.588 1.577-3.178 3.155-4.77 4.729-0.080 0.080-0.182 0.139-0.293 0.223 0.123 0.132 0.196 0.216 0.273 0.294 1.635 1.635 3.269 3.271 4.904 4.904 0.238 0.235 0.412 0.496 0.402 0.846-0.013 0.401-0.193 0.699-0.546 0.881-0.356 0.186-0.706 0.15-1.031-0.074-0.109-0.077-0.205-0.175-0.301-0.27-1.622-1.619-3.241-3.239-4.861-4.861-0.078-0.080-0.132-0.185-0.248-0.352-0.127 0.174-0.184 0.277-0.265 0.359-1.654 1.645-3.312 3.284-4.967 4.929-0.319 0.318-0.675 0.479-1.128 0.331-0.657-0.216-0.899-1.002-0.475-1.549 0.083-0.106 0.181-0.202 0.276-0.297 1.611-1.6 3.223-3.198 4.836-4.796 0.090-0.090 0.193-0.163 0.375-0.318z"></path>
</svg>
