<!-- Generated by IcoMoon.io -->
<svg version="1.1" xmlns="http://www.w3.org/2000/svg" width="500" height="100" viewBox="0 0 190 32">
<title>geschiedenis</title>
<path d="M3.559 1.293l0.372 0.148c0.346-0.099 0.643-0.148 0.89-0.148h3.042c0.396 0 0.865 0.025 1.41 0.074 0.097-0.049 0.172-0.074 0.221-0.074l0.371 0.148c0.198-0.099 0.371-0.148 0.52-0.148 0.346 0.099 0.52 0.173 0.52 0.223 0.26-0.148 0.507-0.223 0.742-0.223h1.112c0.21 0 0.853 0.52 1.93 1.558 0.396 0.285 0.594 0.903 0.594 1.855 0 0.111-0.025 0.21-0.074 0.297 0.049 0.915 0.074 1.682 0.074 2.3v1.855c0 0.421 0.173 1.063 0.52 1.93v0.148c0 0.074-0.074 0.148-0.223 0.223h-1.93c-0.161 0-0.285-0.025-0.371-0.074l-0.446 0.074h-2.225c-0.074 0-0.173-0.099-0.297-0.297 0-0.161 0.198-0.681 0.594-1.558v-2.522l0.074-0.742c-0.26-0.049-0.532-0.248-0.816-0.594l-0.148 0.075c-0.037 0-0.235-0.025-0.594-0.074l-0.371 0.074c-0.174-0.050-0.272-0.074-0.297-0.074l-0.371 0.074c-0.111 0-0.21-0.025-0.297-0.074-0.421 0.049-0.767 0.074-1.039 0.074h-1.261c-0.21 0.198-0.507 0.42-0.89 0.668 0.099 0.321 0.148 0.545 0.148 0.668v1.929c0 0.532 0.025 0.902 0.075 1.113-0.050 0.433-0.075 0.706-0.075 0.816-0.049 3.944-0.074 6.541-0.074 7.79-0.099 0.347-0.198 0.52-0.297 0.52h-0.148c-0.148-0.049-0.223-0.197-0.223-0.445h-0.074c0 0.718-0.148 1.286-0.445 1.707-0.038 0.594-0.26 1.484-0.668 2.671 0 0.952-0.148 2.387-0.445 4.304v0.074h0.074c0.495-1.051 0.742-2.238 0.742-3.562 0.124-0.197 0.322-0.297 0.594-0.297v-0.074c0-1.235 0.148-1.854 0.445-1.854l0.297-0.074c0.086 0 0.161 0.716 0.223 2.151 0 0.063-0.025 0.31-0.074 0.741l0.074 0.445c-0.049 0.273-0.074 0.496-0.074 0.669 0.495 0.445 0.766 0.669 0.816 0.669h4.377c0.495-0.335 0.742-0.706 0.742-1.113v-4.155c0-0.050 0.049-0.247 0.148-0.594 0-0.099-0.049-0.148-0.148-0.148-0.161 0.099-0.285 0.148-0.371 0.148-0.111 0-0.211-0.024-0.297-0.074-0.334 0.050-0.606 0.074-0.815 0.074h-1.039c-0.161 0-0.26-0.371-0.297-1.113-0.136 0-0.334-1.087-0.594-3.264-0.049 0-0.074-0.049-0.074-0.148 0.099-0.297 0.198-0.446 0.297-0.446l1.632 0.668c0.408 0 0.729-0.025 0.964-0.074 0.569 0.049 1.112 0.074 1.632 0.074h0.074c0.458 0 0.877-0.025 1.261-0.074 0.272 0.049 0.47 0.074 0.594 0.074 0.582-0.049 1.001-0.074 1.261-0.074 0.446 0.037 0.668 0.111 0.668 0.223v0.223l-0.52 1.707v8.088c0 0.111 0.025 0.21 0.074 0.297-0.049 0.086-0.074 0.186-0.074 0.297 0 0.396 0.025 0.864 0.074 1.409-0.272 0.532-1.038 1.323-2.299 2.374-0.087 0.050-0.186 0.074-0.297 0.074h-0.074c-0.433 0-0.927 0.024-1.484 0.074l-0.297-0.074c-0.186 0.050-0.384 0.074-0.594 0.074h-0.297c-0.049 0-0.074-0.024-0.074-0.074l-0.148 0.074h-0.446c-0.841 0-1.806-0.024-2.894-0.074-0.272 0.050-0.471 0.074-0.594 0.074-0.049 0-0.124-0.024-0.223-0.074-0.421 0.050-0.767 0.074-1.039 0.074h-0.52c-1.237-0.148-1.855-0.371-1.855-0.669-0.421-0.357-0.964-0.951-1.632-1.78 0-0.16 0.025-0.285 0.074-0.371-0.049-1.372-0.074-2.51-0.074-3.414v-1.483c0-0.271 0.049-0.643 0.148-1.112-0.099-0.915-0.148-1.806-0.148-2.672v-8.681c0-1.273-0.025-3.054-0.074-5.342 0.049-0.21 0.074-0.631 0.074-1.261l-0.073-0.448c0-0.198 0.766-0.939 2.3-2.226 0.395-0.148 0.642-0.223 0.742-0.223zM1.332 5.004c-0.1 0.458-0.148 1.101-0.148 1.929l0.074 0.372h0.074c0.148-0.049 0.223-0.198 0.223-0.446v-0.149c0-0.173-0.025-0.396-0.074-0.668 0.148-0.234 0.223-0.507 0.223-0.816 0-0.148-0.124-0.222-0.372-0.222zM1.407 4.187v0.074c0.111 0 0.26 0.074 0.445 0.223h0.074v-1.187h-0.074c-0.297 0.174-0.445 0.471-0.445 0.89zM1.481 25.036c0.049 0.088 0.074 0.187 0.074 0.298h0.074l0.148-0.074c-0.050-0.173-0.074-0.421-0.074-0.742-0.086-0.001-0.161 0.173-0.222 0.519zM2.149 13.165c0 0.198 0.025 0.396 0.074 0.594-0.049 0.322-0.074 0.644-0.074 0.964v0.297c0 0.198 0.049 0.52 0.148 0.964h0.074l0.074-0.371v-2.522c0-0.099-0.049-0.148-0.148-0.148s-0.148 0.073-0.148 0.222zM2.149 22.292v0.148h0.148v-0.297c-0.099 0.012-0.148 0.062-0.148 0.149zM2.371 5.077v0.074c0 0.322-0.025 0.644-0.074 0.964v0.148h0.074c0-0.334 0.124-0.557 0.372-0.668-0.148-0.247-0.223-0.42-0.223-0.52h-0.149zM2.965 9.381c0 0.606-0.148 1.348-0.445 2.226 0 0.124-0.025 0.322-0.075 0.594l0.149 0.074c0.235 0 0.408-0.644 0.52-1.93v-0.815c-0.001-0.099-0.051-0.149-0.149-0.149zM2.668 4.113v0.446h0.074c0-0.111 0.124-0.877 0.371-2.3h-0.148c-0.198 0-0.297 0.618-0.297 1.855zM4.523 3.149c0 0.049-0.099 0.371-0.297 0.964v0.668l0.074 0.89-0.148 0.075-0.371-0.075v1.112c0 0.186-0.149 0.582-0.446 1.187v0.297l0.816-0.816v-0.667c0-0.186 0.148-0.433 0.445-0.742 0-0.136 0.074-0.309 0.223-0.52-0.099-0.347-0.149-0.644-0.149-0.89v-1.113l-0.074-0.371h-0.074zM3.336 13.759l0.148 0.074h0.074v-0.446c-0.086 0-0.16 0.125-0.222 0.372zM4.226 27.559c0 0.137-0.248 0.631-0.743 1.483-0.049 0.508-0.099 0.804-0.148 0.89 0.062 0.248 0.136 0.371 0.223 0.371h0.074c0.136 0 0.235-0.346 0.297-1.038 0.396-0.197 0.594-0.321 0.594-0.371v-0.074c-0.049-0.841-0.149-1.261-0.297-1.261zM4.152 14.872c0 0.161-0.173 0.705-0.52 1.632h0.074c0.285 0 0.483-0.544 0.594-1.632h-0.148zM3.706 3.149h0.149c0-0.223 0.124-0.52 0.371-0.89-0.062-0.248-0.136-0.371-0.223-0.371-0.161 0-0.26 0.42-0.297 1.261zM4.226 10.568l-0.297 1.558v0.223h0.148c0.198-0.409 0.297-0.706 0.297-0.89v-0.445c0-0.049 0.024-0.074 0.074-0.074-0.099-0.161-0.148-0.285-0.148-0.372h-0.074zM4.746 19.916c0.148 0.051 0.223 0.199 0.223 0.446v0.741c0 0.1-0.049 0.149-0.148 0.149-0.396-0.273-0.594-0.446-0.594-0.521-0.001-0.246 0.172-0.518 0.519-0.815zM4.523 26.447c-0.198 0.321-0.297 0.568-0.297 0.741v0.223l0.52-0.52c0-0.26-0.075-0.408-0.223-0.445zM9.79 2.555v0.148h0.074v-0.148h-0.074zM10.681 2.852v0.148c0.148 0.915 0.223 1.658 0.223 2.226v0.148c0.012 0.099 0.062 0.148 0.148 0.148h0.074c0-0.148 0.025-0.223 0.074-0.223l-0.074-0.148c0-0.322 0.025-0.742 0.074-1.261-0.037-1.335-0.136-2.003-0.297-2.003-0.147 0-0.222 0.321-0.222 0.964zM10.903 17.765c0 0.037-0.025 0.235-0.074 0.594 0 0.111 0.024 0.384 0.074 0.815l-0.074 0.371c0.049 0.088 0.074 0.186 0.074 0.297l0.148-0.074c-0.049-0.482-0.074-1.149-0.074-2.003h-0.074zM10.977 26.67v0.371h0.074v-0.371h-0.074zM10.977 29.785v0.148h0.074v-0.148h-0.074zM11.646 10.346v0.297h0.074v-0.297h-0.074zM13.204 8.713l-0.074 0.371v0.074c0 0.26 0.024 0.681 0.074 1.261h0.074v-1.706h-0.074zM13.204 28.079v0.148h0.074v-0.148h-0.074z"></path>
<path d="M18.064 1.293c0.148 0 0.346 0.050 0.594 0.148 0.346-0.099 0.619-0.148 0.815-0.148l0.964 0.148c0.322-0.099 0.544-0.148 0.668-0.148h1.41c0.161 0 0.507 0.050 1.038 0.148 0.149 0 0.347-0.049 0.594-0.148 0.248 0 0.371 0.025 0.371 0.074 1.063-0.049 1.855-0.074 2.374-0.074h4.823c0.445 0 0.668 0.52 0.668 1.558 0.248 1.682 0.372 2.77 0.372 3.265l-0.297 0.148c-0.383-0.048-0.778-0.222-1.186-0.518l-0.148 0.074h-0.594c-0.173 0-0.396-0.025-0.668-0.074-0.099 0.049-0.173 0.074-0.223 0.074-0.148 0-0.223-0.025-0.223-0.074-0.495 0.049-0.865 0.074-1.113 0.074h-2.374c-0.062 0-0.334-0.049-0.815-0.148h-0.52c-0.099 0-0.347 0.049-0.741 0.148-0.248-0.086-0.372-0.21-0.372-0.372 0.099-0.828 0.272-1.62 0.52-2.373-0.099-0.47-0.148-0.841-0.148-1.113v-0.074c-0.347-0.049-0.545-0.074-0.594-0.074l-0.074 0.148v0.964l-0.15 1.335c0.099 0.656 0.198 1.051 0.297 1.187 0 0.062-0.272 0.458-0.815 1.187v0.148c0 0.347 0.049 0.619 0.148 0.816-0.099 0.198-0.148 0.47-0.148 0.816v1.558c0 0.198 0.049 0.52 0.148 0.964-0.099 0.458-0.148 0.729-0.148 0.815 0 0.594 0.52 0.989 1.558 1.187 0.086 0 0.285-0.049 0.594-0.148l0.446 0.074c1.199 0 2.287-0.198 3.265-0.594h0.297c0.099 0.012 0.148 0.062 0.148 0.148v0.371c0 0.173 0.025 0.396 0.075 0.668-0.1 0.198-0.149 0.371-0.149 0.52 0.049 0.148 0.099 0.223 0.149 0.223l-0.075 0.52v2.374l0.075 0.52-0.223 0.148h-0.148c-1.001-0.396-1.57-0.594-1.707-0.594-0.347 0.050-0.545 0.074-0.594 0.074-0.086 0-0.433-0.074-1.038-0.223-0.186 0.099-0.384 0.148-0.594 0.148-0.049 0-0.124-0.024-0.223-0.074-0.198 0.050-0.371 0.074-0.52 0.074l-0.297-0.074c-0.161 0.099-0.309 0.148-0.445 0.148h-0.148l-0.223-0.148c0.062-1.917 0.161-3.104 0.297-3.561-0.037-0.297-0.186-0.446-0.445-0.446-0.099 0.161-0.148 0.285-0.148 0.372-0.050 1.521-0.074 2.51-0.074 2.968-0.1 0.322-0.149 0.544-0.149 0.668v0.074c0.384 0 0.606 0.1 0.668 0.297l-0.445 0.594c0.049 2.374 0.074 4.204 0.074 5.49v1.707c0 0.223 0.198 0.644 0.594 1.262l0.52-0.074h0.075c0.173 0 0.396 0.024 0.668 0.074l0.52-0.149c0.828 0.050 1.472 0.075 1.93 0.075h1.855c0.21 0 0.409 0.024 0.594 0.074 0.198-0.050 0.396-0.074 0.594-0.074h1.261c0.186 0 0.606-0.149 1.261-0.446h0.148c0.074 0 0.148 0.074 0.223 0.223-0.272 3.067-0.52 4.601-0.742 4.601-0.087 0.050-0.186 0.074-0.297 0.074h-2.3c-2.115 0-3.747 0.024-4.897 0.074-0.977-0.050-2.51-0.074-4.6-0.074h-0.89c-0.248 0-0.371-0.050-0.371-0.148-0.248 0.148-0.446 0.223-0.594 0.223h-0.223c-0.111 0-0.186-0.124-0.223-0.371 0.297-0.754 0.445-1.225 0.445-1.41 0-0.729-0.025-1.224-0.074-1.483 0.049-1.026 0.074-1.967 0.074-2.82v-2.005c0-0.73-0.025-1.224-0.074-1.483 0.049-0.521 0.074-1.089 0.074-1.708v-5.341c0-0.173-0.025-0.396-0.074-0.668 0.049-0.099 0.074-0.173 0.074-0.223l-0.074-0.89 0.074-1.039c0-0.383-0.025-0.729-0.074-1.039 0.049-1.645 0.074-3.079 0.074-4.303v-2.744l-0.074-0.371h0.074l-0.448-1.41v-0.075c0.099-0.197 0.248-0.297 0.446-0.297zM18.657 2.184v0.297l0.52 2.522h0.074c0.049-0.173 0.074-0.272 0.074-0.297 0-0.235-0.148-0.952-0.445-2.152 0-0.248-0.050-0.371-0.148-0.371h-0.075zM18.805 8.193l-0.148 0.298c0 1.162 0.148 1.979 0.445 2.448l-0.223 1.261 0.445 2.152v0.668c0.037 0.297 0.111 0.445 0.223 0.445 0-0.248 0.025-0.371 0.074-0.371-0.086-0.322-0.186-1.138-0.297-2.448v-2.004c0-0.124-0.124-0.619-0.371-1.484l0.074-0.371c0.001-0.371-0.073-0.568-0.222-0.594zM18.954 27.93c0 0.148-0.025 0.223-0.074 0.223 0.049 0.1 0.074 0.174 0.074 0.223h0.074v-0.445h-0.074zM19.251 5.448c0 0.025-0.025 0.124-0.074 0.297 0 0.223 0.198 1.063 0.594 2.522 0.297 1.472 0.445 2.683 0.445 3.636h-0.074l0.074 0.148v0.149c0 0.049-0.025 0.074-0.074 0.074 0.074 0.198 0.148 0.297 0.223 0.297 0-0.049 0.024-0.074 0.074-0.074 0-0.049-0.025-0.124-0.074-0.223 0.049-1.088 0.124-1.88 0.223-2.374-0.347 0-0.644-1.212-0.89-3.636-0.049 0-0.173-0.272-0.371-0.816h-0.075zM20.289 1.739l-0.074 0.149c0.148 0.668 0.223 1.138 0.223 1.41v0.815c0.012 0.099 0.062 0.148 0.148 0.148v-0.889c0-0.148 0.074-0.446 0.223-0.89-0.062-0.495-0.235-0.743-0.52-0.743zM20.586 26.67l-0.074 0.371v1.038h0.074c0-0.644 0.099-1.088 0.297-1.335l-0.148-0.074h-0.149zM21.179 28.523v0.074c0 0.272 0.024 0.619 0.074 1.038-0.050 0.088-0.074 0.186-0.074 0.297h0.148v-0.148c0-0.16 0.024-0.284 0.074-0.371-0.049-0.594-0.123-0.89-0.222-0.89zM21.402 13.832v0.52c0.099 0 0.148-0.049 0.148-0.148l-0.074-0.371h-0.074zM21.699 2.11v0.89c0.297 0.31 0.445 0.606 0.445 0.89 0.111 0 0.186-0.173 0.223-0.52l-0.075-0.89h0.075c-0.050-0.396-0.174-0.594-0.372-0.594-0.197 0.075-0.296 0.149-0.296 0.223zM23.183 27.114c0 0.024-0.049 0.396-0.148 1.112v0.445h0.148c0.198-0.741 0.297-1.162 0.297-1.261v-0.148c0-0.1-0.049-0.148-0.148-0.148h-0.149zM23.925 13.685c-0.198 0.099-0.297 0.915-0.297 2.448-0.099 0.012-0.148 0.062-0.148 0.148v0.223h0.148c0.248-0.644 0.372-0.989 0.372-1.039s-0.050-0.297-0.148-0.742c0.148-0.26 0.223-0.507 0.223-0.742v-0.148c-0.001-0.099-0.051-0.148-0.15-0.148zM24.667 2.11c0 0.865-0.124 1.855-0.371 2.968l0.148 0.223c0.594-0.049 0.89-0.124 0.89-0.223 0.049-1.632 0.124-2.448 0.223-2.448-0.099-0.371-0.148-0.619-0.148-0.742h-0.594c-0.1 0-0.149 0.074-0.149 0.222zM24.444 29.043c0.049 0.1 0.074 0.174 0.074 0.223h0.148c0.111-0.049 0.309-0.396 0.594-1.038 0.247-0.063 0.371-0.137 0.371-0.223v-0.371c0-0.074-0.074-0.148-0.223-0.223-0.235 0-0.458 0.396-0.668 1.187-0.036-0.001-0.135 0.148-0.296 0.445zM24.667 15.687c0.136 0 0.309-0.272 0.52-0.815l-0.074-0.149v-0.52c0-0.124 0.049-0.346 0.148-0.668l-0.148-0.074h-0.074c-0.125 0-0.249 0.742-0.372 2.225zM25.335 15.836l-0.074 0.372v0.074c0.012 0.099 0.062 0.148 0.148 0.148 0-0.049 0.024-0.248 0.074-0.594h-0.148z"></path>
<path d="M41.083 1.293c0.161 0.099 0.284 0.148 0.371 0.148l0.371-0.074 0.446 0.074c0.161-0.099 0.309-0.148 0.445-0.148 0.148 0.050 0.223 0.099 0.223 0.148l0.742-0.074h0.297c0.346 0.013 0.52 0.062 0.52 0.148l0.148-0.074h0.446c0.049 0 0.074 0.025 0.074 0.074l0.371-0.223h0.594c0.84 0.198 1.261 0.322 1.261 0.371 1.224 1.175 1.842 1.843 1.855 2.004 0 0.025-0.025 0.124-0.074 0.297 0 0.124 0.024 0.322 0.074 0.594l-0.074 0.742c0.148 0.446 0.223 0.742 0.223 0.89v0.816c0 0.198-0.049 0.52-0.148 0.964 0.186 0.804 0.408 1.298 0.668 1.484v0.15c0 0.074-0.1 0.173-0.297 0.297h-0.15c-0.532 0-0.902-0.025-1.113-0.074-0.383 0.049-0.803 0.074-1.261 0.074h-0.52c-0.248 0-0.644-0.074-1.187-0.223-0.371 0.198-0.619 0.297-0.742 0.297-0.223-0.099-0.346-0.198-0.371-0.297v-0.223c0-0.284 0.272-0.753 0.816-1.41v-0.073l-0.074-0.445c0.099-0.235 0.148-0.458 0.148-0.668-0.445-0.742-0.939-1.112-1.484-1.112h-0.074c-0.26 0-0.483 0.025-0.668 0.074-0.26-0.049-0.507-0.074-0.742-0.074h-0.668c-0.111 0-0.21 0.025-0.297 0.074-0.297-0.086-0.445-0.161-0.445-0.223-0.1 0.087-0.495 0.161-1.187 0.223 0 0.124-0.174 0.371-0.52 0.742v0.593c0 0.359-0.025 0.631-0.074 0.815 0.049 0.322 0.074 0.644 0.074 0.964v0.89c-0.099 1.113-0.148 1.707-0.148 1.781v0.742c0 0.594 0.223 0.964 0.668 1.113 0 0.148 0.124 0.223 0.371 0.223 0.235 0 0.482-0.025 0.742-0.074l0.372 0.074 0.52-0.074 0.742 0.074 0.742-0.074c0.803 0.062 1.422 0.136 1.855 0.223 0.099 0 0.272-0.049 0.52-0.148 0.433 0.049 0.706 0.074 0.816 0.074 0.68-0.049 1.1-0.074 1.261-0.074 0.186 0.049 0.433 0.223 0.742 0.52 0.086 0.025 0.334 0.322 0.742 0.89 0.693 0.544 1.039 1.014 1.039 1.41v0.594c0 0.742-0.025 1.36-0.074 1.855 0.049 0.348 0.074 0.841 0.074 1.484-0.099 0.878-0.148 1.422-0.148 1.633v0.594c0.099 0.718 0.148 1.112 0.148 1.187-0.148 0.915-0.223 1.46-0.223 1.633 0.049 1.385 0.099 2.374 0.149 2.968-0.124 0.482-0.94 1.323-2.448 2.522-0.693-0.062-1.286-0.136-1.781-0.223-0.074 0-0.495 0.074-1.261 0.223-0.037 0-0.186-0.024-0.445-0.074-0.272 0.050-0.47 0.074-0.594 0.074-0.31-0.099-0.508-0.148-0.594-0.148-0.544 0.024-0.816 0.074-0.816 0.148-0.582-0.050-1.001-0.074-1.261-0.074h-2.524c-0.706 0-1.175-0.223-1.41-0.669-1.038-0.927-1.558-1.545-1.558-1.854v-0.967c0-0.631 0.025-1.323 0.074-2.078-0.049-0.173-0.074-0.272-0.074-0.298 0.049-0.271 0.074-0.543 0.074-0.815 0-0.371-0.223-0.988-0.668-1.854v-0.297c0.012-0.1 0.062-0.148 0.148-0.148h2.745c0.049 0 0.074 0.024 0.074 0.074l0.148-0.074h2.152c0.148 0 0.223 0.099 0.223 0.297-0.297 0.778-0.445 1.372-0.445 1.78l0.074 0.371c-0.099 0.471-0.148 0.767-0.148 0.891 0 0.741 0.42 1.162 1.261 1.262l0.52-0.074h0.148c0.507 0 0.902 0.024 1.187 0.074 0.285-0.050 0.681-0.074 1.187-0.074h0.148c0.136 0 0.285 0.049 0.445 0.148 0.272-0.050 0.495-0.074 0.668-0.074h0.223l0.074-0.372c0-0.235-0.025-0.803-0.074-1.707l0.074-0.148c-0.049-0.197-0.074-0.371-0.074-0.52 0-0.581-0.025-1.175-0.074-1.78 0.099-0.866 0.148-1.781 0.148-2.746v-0.074c0-0.396-0.47-0.668-1.41-0.815v-0.074l-0.742 0.074h-2.746c-0.111 0-0.21 0.025-0.297 0.074l-0.148-0.074c-0.161 0-0.285 0.025-0.371 0.074-0.508-0.049-0.902-0.074-1.187-0.074h-1.261c-0.458 0-0.977-0.371-1.558-1.113l-1.261-1.187v-11.948c0-0.631 0.84-1.545 2.522-2.745 0.42 0.099 0.693 0.148 0.815 0.148 0.074 0 0.297-0.049 0.668-0.148 0.099 0 0.272 0.050 0.52 0.148 0.101-0.099 0.768-0.173 2.006-0.223zM36.482 24.665v0.521c0.099 0 0.148-0.050 0.148-0.149v-0.224c0.001-0.098-0.049-0.148-0.148-0.148zM36.928 11.681v0.148h0.148v-0.297c-0.099 0.013-0.148 0.063-0.148 0.149zM37.224 3.594c0.148 0.396 0.223 0.644 0.223 0.742 0 0.038-0.025 0.186-0.074 0.446l0.074 0.371c0 0.124-0.025 0.322-0.074 0.594l0.148 2.225h-0.074c0.198 0.322 0.297 0.841 0.297 1.558v1.93l0.074 0.371h-0.074l0.074 0.148v0.594c0.037 0.297 0.111 0.445 0.223 0.445l0.074-0.148v-0.074c0-0.21-0.025-0.408-0.074-0.594l0.074-0.372c0-0.049-0.025-0.247-0.074-0.594 0.099-0.52 0.149-0.791 0.149-0.816-0.149-1.941-0.297-3.153-0.446-3.636v-1.26c0-0.272-0.025-0.619-0.074-1.038 0.049-0.099 0.074-0.173 0.074-0.223-0.198-0.371-0.297-0.693-0.297-0.964-0.075 0-0.149 0.099-0.223 0.297zM37.298 2.184v0.297h0.148v-0.149c0.001-0.099-0.049-0.148-0.148-0.148zM37.669 23.997c0 0.050-0.025 0.124-0.074 0.223 0.099 0.198 0.148 0.371 0.148 0.52h0.074l0.074-0.371-0.074-0.371h-0.148zM37.744 25.036l-0.074 0.742v0.371h0.074l0.148-0.89c-0.049-0.099-0.074-0.173-0.074-0.224h-0.074zM37.966 27.93c0 0.049-0.099 0.322-0.297 0.815l0.223 0.148c0.111 0 0.186-0.223 0.223-0.668-0.049-0.086-0.074-0.186-0.074-0.297h-0.075zM37.744 26.67v0.89c0 0.074 0.074 0.148 0.223 0.223v-0.815l0.074-0.371-0.148-0.074c-0.1 0.010-0.149 0.060-0.149 0.147zM37.892 29.562l-0.074 0.371c0.012 0.1 0.062 0.148 0.148 0.148h0.074v-0.52h-0.148zM37.966 13.536v0.223c0.012 0.099 0.062 0.148 0.148 0.148h0.149v-0.148c0-0.074-0.074-0.148-0.223-0.223h-0.074zM42.27 14.649v0.223h0.074v-0.223h-0.074zM42.641 27.188c0 0.247-0.050 0.371-0.148 0.371l0.148 1.483c-0.099 0.223-0.148 0.545-0.148 0.964 0.086 0.248 0.235 0.372 0.445 0.372l0.148-0.298c-0.099-0.209-0.173-0.631-0.223-1.261 0.099-0.197 0.148-0.371 0.148-0.52l-0.074-0.297 0.074-0.445c-0.099-0.223-0.198-0.347-0.297-0.371h-0.073zM43.976 29.265l-0.074 0.371c0.049 0.088 0.074 0.186 0.074 0.297h0.148v-0.668h-0.148zM44.421 2.258v0.297c0.012 0.099 0.062 0.148 0.148 0.148v-0.445h-0.148zM44.495 4.633c0 0.099-0.025 0.148-0.074 0.148 0.049 0.099 0.074 0.173 0.074 0.223h0.074v-0.371h-0.074zM45.905 7.378c0.149 0.334 0.223 0.705 0.223 1.113h0.074l0.148-0.52v-0.742c-0.136 0-0.284 0.050-0.445 0.149zM46.128 3.742v0.816h0.074c0.396-0.086 0.594-0.186 0.594-0.297-0.049-0.358-0.099-0.581-0.148-0.668 0.049-0.086 0.074-0.186 0.074-0.297v-0.223c-0.075 0-0.273 0.222-0.594 0.668zM46.499 19.026v1.559c0.148 0 0.248-0.198 0.297-0.594-0.148-0.569-0.223-0.891-0.223-0.965h-0.074zM46.499 27.708v0.52c0 0.532 0.148 0.878 0.445 1.038h0.148c-0.173-0.408-0.322-0.927-0.445-1.558h-0.148zM46.796 25.778v0.223c0 0.074 0.074 0.148 0.223 0.223v-0.297c0-0.099-0.049-0.148-0.148-0.148h-0.075zM47.093 26.818v0.074l0.074 0.371h0.149v-0.074l-0.075-0.371h-0.148zM47.463 24.665v0.223h0.074v-0.223h-0.074zM47.76 14.723v0.149h0.074v-0.149h-0.074zM47.76 20.51v0.297h0.074v-0.297h-0.074zM47.834 26.297v0.074c0.012 0.1 0.062 0.149 0.148 0.149v-0.224h-0.148zM47.834 29.265v0.223h0.148c-0.050-0.099-0.074-0.173-0.074-0.223h-0.074zM48.577 5.374c-0.198 0.446-0.322 1.237-0.372 2.374 0.049 0.285 0.074 0.681 0.074 1.187 0.012 0.099 0.062 0.148 0.148 0.148l0.074-0.52v-0.593l0.223-2.597h-0.147zM48.205 27.485v0.074c0.012 0.1 0.062 0.148 0.148 0.148v-0.371c-0.098 0.012-0.148 0.062-0.148 0.149zM48.28 15.613c0.049 0.099 0.074 0.173 0.074 0.223h0.223v-0.223c0-0.099-0.050-0.148-0.149-0.148-0.099 0.012-0.148 0.062-0.148 0.148zM48.28 24.145v0.371h0.074v-0.371h-0.074zM48.577 20.733c0 0.26 0.173 1.397 0.52 3.413v0.297c0.136 0.248 0.235 0.371 0.297 0.371 0-0.309-0.223-1.718-0.668-4.228-0.1 0.012-0.149 0.061-0.149 0.148zM48.651 25.778v0.223h0.074v-0.223h-0.074z"></path>
<path d="M54.846 1.293h0.742c0.284 0 0.68 0.025 1.187 0.074l0.148-0.074c0.099 0.050 0.173 0.074 0.223 0.074 0.619-0.049 0.939-0.074 0.964-0.074l0.371 0.074 0.445-0.074c0.346 0 0.52 0.050 0.52 0.148 0.198-0.099 0.47-0.148 0.815-0.148h0.52c0.346 0 0.544 0.025 0.594 0.074 0.334-0.049 0.606-0.074 0.816-0.074h2.3c0.346 0 0.668 0.347 0.964 1.039-0.099 0.161-0.148 0.285-0.148 0.371 0.049 0 0.074 0.025 0.074 0.074 0.161-0.099 0.285-0.148 0.372-0.148 0.693 0.471 1.038 0.89 1.038 1.261 0.148 0.693 0.223 1.138 0.223 1.335v0.446c-0.148 0.939-0.223 1.558-0.223 1.855v1.484c0 0.248-0.049 0.371-0.148 0.371 0.198 0.347 0.297 0.594 0.297 0.742v0.148c0 0.074-0.074 0.148-0.223 0.223-0.099-0.049-0.173-0.074-0.223-0.074v0.148h0.594c0.297 0.211 0.445 0.434 0.445 0.668-0.111 0.198-0.681 0.297-1.707 0.297-0.272 0-0.52-0.049-0.743-0.148l-1.187 0.148c-0.384-0.049-0.804-0.074-1.261-0.074h-0.297c-0.074 0-0.173-0.099-0.297-0.297 0-0.148 0.124-0.544 0.371-1.187v-3.562c-0.062-0.223-0.482-0.445-1.261-0.668-0.050 0-0.074 0.025-0.074 0.074-0.148 0-0.223-0.025-0.223-0.074-0.742 0.049-1.286 0.074-1.633 0.074h-1.929c-0.495 0.322-0.742 0.791-0.742 1.41-0.198 0-0.297 0.347-0.297 1.039 0.248 0.124 0.371 0.322 0.371 0.594v0.742c0 0.42 0.025 0.865 0.075 1.335l-0.149 0.89c0.049 0.865 0.074 1.385 0.074 1.558 0 0.409-0.025 0.804-0.074 1.187l0.149 4.377c-0.050 1.286-0.075 2.77-0.075 4.452v1.93c0.173 0.741 0.446 1.113 0.816 1.113h3.339c0.21 0 0.482 0.024 0.815 0.074 0.544-0.261 0.816-0.558 0.816-0.891v-3.265c-0.297-0.458-0.445-0.853-0.445-1.187v-0.221c0-0.111 0.124-0.186 0.371-0.223 0.346 0 0.693 0.050 1.039 0.148 0.42-0.050 0.766-0.074 1.038-0.074h0.52c0.285 0 0.532 0.099 0.742 0.297 0.235-0.247 0.606-0.371 1.113-0.371h0.074c0.272 0 0.446 0.099 0.52 0.297-0.124 0.495-0.272 0.915-0.446 1.262 0 0.297 0.025 0.815 0.074 1.558 0 0.186-0.074 0.829-0.223 1.93v0.445c0 0.198 0.074 0.619 0.223 1.262v0.741c0 0.644-0.569 1.261-1.707 1.854-0.21 0.186-0.482 0.483-0.815 0.891-1.868-0.050-3.278-0.074-4.229-0.074h-2.745c-0.396 0-0.915 0.024-1.558 0.074-0.062-0.050-0.235-0.074-0.52-0.074l-0.742 0.074c-0.297 0-0.693-0.371-1.187-1.113-0.89-0.383-1.335-1.1-1.335-2.151v-0.074c0-0.161 0.025-0.285 0.074-0.371-0.049-0.421-0.074-0.767-0.074-1.039v-1.855c0.099-0.482 0.148-0.753 0.148-0.815v-0.89c-0.148-0.594-0.223-1.806-0.223-3.637v-1.707c0-0.21 0.074-0.902 0.223-2.078 0-0.717-0.025-2.25-0.074-4.601 0.049-0.582 0.074-1.001 0.074-1.261-0.099-0.186-0.148-0.383-0.148-0.594v-0.669c0-0.89-0.025-2.103-0.074-3.636l0.074-0.149c-0.050-0.086-0.074-0.186-0.074-0.297v-0.371c0-0.099 0.495-0.544 1.484-1.335 0.002-0.396 0.422-0.743 1.263-1.039zM53.585 22.959v0.668c0 0.347-0.223 0.52-0.668 0.52v0.297c0 0.322-0.025 0.645-0.074 0.965 0.049 0.396 0.124 0.594 0.223 0.594 0.161 0 0.284-0.371 0.371-1.113 0.086 0 0.161-0.123 0.223-0.371l-0.074-0.52c0.099-0.321 0.148-0.544 0.148-0.668v-0.371h-0.149zM52.918 4.113v0.148c0 0.31 0.124 0.754 0.371 1.335 0.012 0.446 0.086 0.668 0.223 0.668l0.074-0.148v-0.668c0-0.26 0.148-0.507 0.445-0.742v-0.148c0-0.186-0.124-0.409-0.371-0.668v-0.224c0.198-0.26 0.297-0.482 0.297-0.668-0.049 0-0.074-0.024-0.074-0.074-0.644 0.26-0.964 0.656-0.964 1.187zM52.918 11.755v2.226h0.074v-2.226h-0.074zM52.918 14.872v1.187h0.074v-1.187h-0.074zM53.659 29.043v0.297h0.223v-0.074c-0.049-0.099-0.074-0.173-0.074-0.223h-0.149zM54.030 13.016v0.075c0.149 0.21 0.223 0.409 0.223 0.594h0.074v-0.446c0-0.074-0.074-0.148-0.223-0.223h-0.074zM54.179 10.271c0 0.050-0.025 0.124-0.074 0.223 0.124 0.347 0.223 0.52 0.297 0.52 0-0.049 0.024-0.124 0.074-0.223-0.087-0.346-0.186-0.52-0.297-0.52zM54.623 8.639v0.148h0.074v-0.148h-0.074zM55.068 5.151v0.52h0.074v-0.52h-0.074zM55.068 22.81v0.371h0.074v-0.371h-0.074zM55.737 4.41l0.074 0.371h0.074v-0.371h-0.148zM55.96 5.3v0.074c0.024 0.644 0.099 0.964 0.223 0.964 0-0.049 0.025-0.074 0.074-0.074l-0.075-0.148v-0.297c0-0.049 0.025-0.074 0.074-0.074-0.111-0.298-0.21-0.446-0.296-0.446zM58.111 2.406v0.223h0.074v-0.223h-0.074zM58.482 27.188v0.668c0.198 0.557 0.297 1.273 0.297 2.151h0.074c0-0.037 0.025-0.186 0.074-0.445-0.099-1.075-0.223-1.866-0.371-2.373h-0.074zM58.926 2.852l-0.074 0.372v0.074c0.099 0 0.148-0.049 0.148-0.148v-0.298h-0.074zM59.149 2.332l-0.074 0.445c0.099 0 0.173-0.148 0.223-0.445h-0.149zM63.675 5.3v0.446h0.074v-0.446h-0.074zM63.675 26.447v0.148c0 0.507 0.074 1.149 0.223 1.929h0.074v-1.187l-0.074-0.89h-0.223zM63.749 5.894v0.223c0.198 0.778 0.297 1.199 0.297 1.261v1.113c0.012 0.099 0.062 0.148 0.148 0.148h0.074c0-1.224-0.148-2.14-0.445-2.745h-0.074zM64.417 9.381l-0.074 0.148v0.149c0.186 0.84 0.359 1.261 0.52 1.261 0.099 0 0.148-0.049 0.148-0.149v-0.074c0.001-0.531-0.198-0.975-0.594-1.335zM64.566 4.039v1.039c0.198 0.569 0.297 1.063 0.297 1.484 0.247 0.272 0.371 0.569 0.371 0.89h-0.074c0.099 0.248 0.148 0.421 0.148 0.52h0.148v-1.929c-0.223-0.285-0.495-0.952-0.815-2.004h-0.074zM65.159 23.33l-0.074 0.371c0 0.211 0.124 0.359 0.371 0.445 0-0.247 0.025-0.371 0.074-0.371-0.099-0.297-0.198-0.445-0.297-0.445h-0.074zM65.679 21.327v0.074c0.272 0.79 0.47 1.187 0.594 1.187 0.099 0 0.148-0.049 0.148-0.148v-0.371c-0.371-0.495-0.594-0.741-0.668-0.741h-0.074zM65.679 24.59v0.074c0.248 0.545 0.372 1.46 0.372 2.746l0.148 0.074 0.148-0.074-0.074-0.148c0.049-0.272 0.074-0.495 0.074-0.668-0.111 0-0.186-0.124-0.223-0.372 0-0.124 0.074-0.297 0.223-0.52v-0.223c-0.371-0.594-0.594-0.89-0.668-0.89zM65.753 3.742v0.148c0 0.297 0.124 0.445 0.371 0.445l0.074-0.148v-0.148c0-0.074-0.099-0.173-0.297-0.297h-0.148zM66.346 9.381c0 0.111-0.025 0.211-0.074 0.297l0.148 0.074 0.074-0.372h-0.148z"></path>
<path d="M81.315 1.219c0.272 0 0.594 0.074 0.964 0.223 0.186-0.099 0.383-0.148 0.594-0.148 0.42 0 0.743 0.050 0.964 0.148 0.235-0.099 0.458-0.148 0.668-0.148 0.198 0.074 0.297 0.148 0.297 0.223v0.148l-0.223 0.742c0 0.248 0.024 0.371 0.074 0.371l-0.073 0.889v1.632c0 0.334 0.024 0.631 0.074 0.89-0.050 1.076-0.124 2.066-0.223 2.968v0.074c0 1.744 0.012 3.617 0.037 5.621s0.037 3.048 0.037 3.135v0.297c0 0.322 0.025 0.644 0.075 0.964-0.149 0.645-0.223 1.237-0.223 1.781l0.148 0.521-0.074 0.445c0 0.148 0.025 0.321 0.074 0.52-0.049 0.693-0.074 1.286-0.074 1.78 0 0.829 0.049 1.72 0.149 2.672-0.1 0.309-0.174 1.001-0.223 2.077 0 0.111 0.223 0.631 0.668 1.559l-0.223 0.371c-0.743-0.050-1.286-0.074-1.633-0.074h-0.815c-0.471 0-0.939 0.024-1.41 0.074-0.223-0.050-0.619-0.074-1.187-0.074h-0.074c-0.074 0-0.148-0.074-0.223-0.223 0.309-0.655 0.532-1.051 0.668-1.187v-0.52c0-0.062-0.049-0.334-0.148-0.815v-1.782c0.099-0.84 0.148-1.311 0.148-1.41v-2.225c-0.099-0.841-0.148-1.311-0.148-1.409v-0.965l0.223-1.781c-0.049-0.594-0.099-0.89-0.148-0.89-0.26-0.383-0.557-0.631-0.89-0.742h-0.148c-0.47 0.148-0.766 0.223-0.89 0.223h-0.89c-0.322 0-0.569-0.074-0.743-0.223-0.198 0.099-0.371 0.148-0.52 0.148-0.062 0-0.31-0.024-0.743-0.074-0.742 0.285-1.113 0.73-1.113 1.335 0 0.878-0.025 1.794-0.074 2.745l0.149 2.522c-0.1 1.163-0.149 2.275-0.149 3.34 0.099 0.321 0.149 0.544 0.149 0.668-0.1 0.668-0.149 1.088-0.149 1.261 0.495 1.026 0.743 1.596 0.743 1.707v0.148c-0.124 0.099-0.198 0.148-0.223 0.148-0.111 0-0.21-0.024-0.297-0.074l-0.297 0.148-0.52-0.074c-0.111 0-0.21 0.024-0.297 0.074-0.508-0.050-0.902-0.074-1.187-0.074h-1.334c-0.26 0-0.681 0.024-1.261 0.074-0.099-0.161-0.148-0.31-0.148-0.445 0.21-0.433 0.408-1.076 0.594-1.93v-3.933c0-0.643-0.025-1.137-0.074-1.483 0.049-0.346 0.074-0.841 0.074-1.483v-2.746c0-0.049 0.025-0.074 0.074-0.074l-0.074-0.148v-2.522c0-0.285 0.025-0.458 0.074-0.52-0.049-0.272-0.074-0.495-0.074-0.668v-6.527c0-0.458 0.025-1.101 0.074-1.93-0.099-0.161-0.148-0.309-0.148-0.445v-0.223c0.012-0.248 0.062-0.372 0.148-0.372-0.049-0.668-0.074-1.162-0.074-1.484v-1.558c0-0.198-0.173-0.47-0.52-0.816v-0.148c0.049-0.148 0.198-0.223 0.445-0.223 0.26 0 0.482 0.025 0.668 0.074 0.433-0.049 0.803-0.074 1.112-0.074h0.446c0.099 0 0.346 0.050 0.742 0.148 0.074 0 0.297-0.049 0.668-0.148l0.371 0.074c0.26-0.049 0.507-0.074 0.743-0.074 0.074 0 0.148 0.099 0.223 0.297-0.396 0.656-0.594 1.125-0.594 1.41s0.025 0.458 0.075 0.52c-0.050 0.507-0.075 0.902-0.075 1.187v3.19c0.099 0.841 0.149 1.311 0.149 1.41v0.89c-0.1 0.717-0.149 1.113-0.149 1.187v0.594c0.52 0.644 1.088 0.964 1.707 0.964h1.41c0.445-0.148 0.693-0.223 0.742-0.223 0.26 0.050 0.409 0.074 0.446 0.074 0.161-0.099 0.284-0.148 0.371-0.148 0.161 0.099 0.309 0.148 0.445 0.148 0.594-0.495 0.89-0.915 0.89-1.261-0.099-0.198-0.148-0.47-0.148-0.816v-1.409c0-0.074 0.049-0.47 0.148-1.187v-4.080c-0.099-1.36-0.272-2.152-0.52-2.374v-0.149c0-0.074 0.074-0.148 0.223-0.223h0.223c0.049 0 0.248 0.050 0.594 0.148 0.186-0.148 0.408-0.222 0.668-0.222zM70.483 9.307v0.52c0.099 0 0.148-0.049 0.148-0.148v-0.372h-0.148zM70.483 11.533c0.198 0.347 0.297 0.594 0.297 0.742v0.223c-0.198 0.557-0.297 0.902-0.297 1.039v1.261h0.148v-0.594c0-0.297 0.148-1.039 0.445-2.226-0.297-0.26-0.445-0.482-0.445-0.668-0.098-0.001-0.148 0.073-0.148 0.222zM70.556 2.332v0.445c0.458 0.235 0.73 0.483 0.815 0.743 0.062 0.248 0.136 0.371 0.223 0.371l0.074-0.148v-0.371l-0.074-0.446c0.049-0.086 0.074-0.21 0.074-0.371 0-0.099-0.050-0.148-0.149-0.148h-0.074c0 0.248-0.173 0.371-0.52 0.371l-0.37-0.446zM71.447 14.574v0.964c0 0.099-0.099 0.471-0.297 1.113 0.049 1.113 0.074 1.806 0.074 2.078-0.297 0.841-0.495 1.484-0.594 1.93 0.235 1.533 0.433 2.3 0.594 2.3l0.148-0.074-0.074-0.741c0-0.124 0.025-0.322 0.074-0.594-0.049-0.198-0.074-0.372-0.074-0.521 0-0.396 0.272-0.791 0.816-1.187l0.074-0.445c0-0.061-0.223-0.21-0.668-0.445v-0.148c0-0.223-0.025-0.766-0.074-1.632 0.347-0.631 0.52-1.348 0.52-2.152v-0.446c0-0.037 0.124-0.161 0.371-0.371v-0.148c0-0.074-0.074-0.148-0.223-0.223-0.445 0.209-0.668 0.456-0.668 0.739zM70.631 27.040v0.148c0.099-0.050 0.173-0.074 0.223-0.074v-0.074h-0.223zM70.705 3.964c0.049 0.668 0.074 1.163 0.074 1.484v0.742h0.148v-1.336c0-0.099 0.049-0.346 0.148-0.742-0.049-0.099-0.074-0.173-0.074-0.223h-0.148l-0.148 0.075zM71.076 7.526v0.223h0.074v-0.223h-0.074zM71.224 28.079l-0.074 0.371c0 0.594 0.099 0.89 0.297 0.89l0.074-0.148c-0.148-0.618-0.223-0.989-0.223-1.112h-0.074zM71.819 22.662l-0.149 0.222c0.037 0.297 0.111 0.445 0.223 0.445h0.074v-0.52c0-0.098-0.050-0.147-0.148-0.147zM71.819 24.071l-0.074 0.371v0.371c0.012 0.1 0.062 0.148 0.148 0.148l0.074-0.148v-0.594c0-0.098-0.050-0.148-0.148-0.148zM72.337 2.184l0.223 0.52c-0.198 0.359-0.297 0.582-0.297 0.668 0 0.111 0.025 0.384 0.074 0.815l-0.148 0.742c0.099 0.223 0.148 0.445 0.148 0.668-0.074 0.396-0.148 0.594-0.223 0.594 0 0.26 0.148 0.754 0.445 1.484v0.223c0 0.186-0.124 0.409-0.371 0.668 0 0.062 0.049 0.334 0.148 0.815v0.446c0 0.557-0.025 1.273-0.074 2.152v0.074h0.074c0.346-1.533 0.52-2.695 0.52-3.487 0.099 0 0.148-0.421 0.148-1.261v-0.149c0-0.111-0.1-0.433-0.297-0.964 0-0.322 0.124-1.063 0.372-2.226l0.074-0.668c-0.136-0.989-0.285-1.484-0.446-1.484h-0.074c-0.098 0.025-0.197 0.149-0.296 0.372zM72.115 12.794v0.297h0.074c0.099 0 0.148-0.049 0.148-0.148s-0.049-0.148-0.148-0.148h-0.074zM73.080 22.069v0.89c0 0.174-0.025 0.396-0.074 0.668 0.049 0.1 0.074 0.174 0.074 0.223 0.099 0 0.148-0.049 0.148-0.148v-1.632h-0.148zM73.080 24.368l-0.074 0.371v0.074l0.074 0.521c0.099 0 0.148-0.050 0.148-0.148v-0.816h-0.148zM73.080 25.926v0.742c0.012 0.099 0.062 0.148 0.148 0.148v-0.891h-0.148zM73.080 27.559v0.52c0.012 0.1 0.062 0.148 0.148 0.148v-0.668h-0.148zM73.377 16.948l-0.074 0.371c0.086 0 0.161-0.124 0.223-0.371h-0.149zM73.821 14.352v0.223h0.074v-0.223h-0.074zM75.231 16.43l0.148 0.074c0.086 0 0.235-0.049 0.446-0.148 0.334 0.148 0.532 0.223 0.594 0.223 0-0.049 0.025-0.074 0.074-0.074-0.235-0.544-0.557-0.816-0.964-0.816h-0.074c-0.1-0.001-0.174 0.247-0.223 0.741zM76.566 13.685c0.012 0.111 0.285 0.507 0.816 1.187l0.074 0.371h0.074v-1.113c0-0.495-0.223-0.742-0.668-0.742-0.161 0.050-0.26 0.149-0.297 0.298zM77.531 15.539c0 0.111-0.025 0.21-0.074 0.297 0.049 0.087 0.074 0.211 0.074 0.372h0.148v-0.149l-0.074-0.52h-0.074zM80.722 2.11v0.594l0.074 0.372h0.223v-0.223c-0.062-0.495-0.161-0.743-0.297-0.743zM80.722 8.268v1.558c0.012 0.099 0.062 0.148 0.148 0.148 0.012-0.099 0.062-0.148 0.148-0.148-0.036-1.039-0.135-1.558-0.296-1.558zM80.944 3.742v0.148h0.074v-0.148h-0.074zM81.018 4.484l-0.074 0.297c0.346 0.915 0.52 1.707 0.52 2.374 0.186 0.309 0.334 1.273 0.445 2.894 0.136 0 0.235 1.41 0.297 4.229-0.050 1.422-0.074 2.584-0.074 3.488 0.099 0.161 0.148 0.31 0.148 0.445 0 0.087-0.050 0.359-0.148 0.815 0 0.198 0.049 0.792 0.148 1.781 0 0.024-0.025 0.124-0.074 0.297l0.223 2.078c0 0.582-0.050 0.977-0.148 1.187 0.099 0.594 0.148 1.336 0.148 2.227h0.074c0-0.483 0.148-1.794 0.445-3.933-0.049-2.115-0.074-3.303-0.074-3.562l0.074-1.187c-0.074-0.297-0.148-0.445-0.223-0.445 0.099-5.329 0.148-8.743 0.148-10.239h-0.074c-0.062 0-0.161 0.371-0.297 1.113l-0.223 0.148h-0.148c-0.235 0-0.483-1.187-0.743-3.562-0.099-0.012-0.173-0.161-0.223-0.445h-0.147zM82.058 29.858v0.223h0.074v-0.223h-0.074zM82.205 1.962v0.742h0.074l0.148-0.52c-0.050-0.099-0.074-0.173-0.074-0.223h-0.148zM83.319 26.149c0 0.569-0.174 0.939-0.52 1.113h-0.074c0.049 0.668 0.074 1.162 0.074 1.483v0.89l0.074 0.371h0.074v-1.632c0.346-0.865 0.52-1.483 0.52-1.854v-0.224c0-0.098-0.049-0.148-0.148-0.148zM83.319 2.852c0.062 0.223 0.26 0.396 0.594 0.52l0.074-0.89v-0.372l-0.148-0.223c-0.31 0.001-0.483 0.322-0.52 0.965zM83.912 18.655c-0.099 0.371-0.148 0.619-0.148 0.741l0.148 0.074 0.074-0.371v-0.445h-0.074z"></path>
<path d="M89.959 1.219c0.582 0.050 1.001 0.074 1.261 0.074l0.52-0.074c0.223 0.099 0.346 0.198 0.371 0.297-0.396 0.52-0.619 1.014-0.668 1.484 0.099 0.446 0.148 0.693 0.148 0.743-0.050 0.902-0.074 1.472-0.074 1.707 0 0.037 0.024 0.235 0.074 0.594-0.1 0.198-0.148 0.47-0.148 0.815v0.074c0.099 0.718 0.148 1.113 0.148 1.187v1.781l-0.148 1.335c0.099 0.841 0.148 1.41 0.148 1.707 0 0.272-0.050 0.644-0.148 1.113 0 0.124 0.024 0.322 0.074 0.594l-0.074 0.668 0.074 1.187-0.074 0.668 0.148 0.446c0 0.049-0.025 0.124-0.074 0.223 0.049 0.507 0.074 0.902 0.074 1.187 0 0.248-0.050 0.545-0.148 0.89 0.099 0.348 0.148 0.645 0.148 0.891v0.742c-0.1 0.84-0.148 1.31-0.148 1.409v0.52c0.099 0.718 0.148 1.089 0.148 1.112 0 0.125-0.050 0.371-0.148 0.742 0.148 0.321 0.223 0.544 0.223 0.668v0.074c-0.248 0.297-0.372 0.471-0.372 0.521l0.297 2.744 0.52 1.262v0.148c0 0.074-0.074 0.148-0.223 0.223h-0.297c-0.124 0-0.347-0.050-0.668-0.148-0.186 0.099-0.384 0.148-0.594 0.148h-0.223c-0.173 0-0.371-0.099-0.594-0.297-0.186 0.148-0.334 0.223-0.445 0.223-0.050 0-0.198-0.099-0.446-0.297-0.111 0.247-0.359 0.371-0.742 0.371h-0.964c-0.074 0-0.148-0.074-0.223-0.223v-0.074c0.346-1.435 0.52-2.25 0.52-2.448-0.049-3.005-0.074-5.404-0.074-7.197 0-0.161-0.049-0.532-0.148-1.113 0.148-0.654 0.223-1.718 0.223-3.19 0-0.124-0.025-0.495-0.074-1.113 0.099-1.137 0.148-1.855 0.148-2.152-0.099-0.421-0.173-0.89-0.223-1.41 0.099-0.803 0.148-1.323 0.148-1.558 0-0.099-0.025-0.148-0.074-0.148l0.074-0.52v-1.932c0-0.569-0.025-1.088-0.074-1.558 0.049-0.26 0.074-0.729 0.074-1.41v-0.815c0-0.161-0.025-0.284-0.074-0.371l0.074-0.445v-1.113l-0.52-0.52v-0.075c0-0.074 0.099-0.173 0.297-0.297h1.781c0.161 0 0.334 0.074 0.52 0.223h0.074c0.16-0.123 0.359-0.223 0.594-0.297zM88.029 23.033v0.074l0.074 1.187c0 0.050-0.025 0.124-0.074 0.223 0 0.111 0.124 0.829 0.371 2.153v1.187c0 0.285-0.025 0.681-0.074 1.187l0.297 1.112h0.074l0.223-0.148h0.148c0.037 0 0.186 0.148 0.445 0.446h0.074c0-0.124 0.025-0.321 0.074-0.595 0-0.16-0.223-0.358-0.668-0.594-0.148-0.186-0.223-0.408-0.223-0.668v-1.261c0-0.865-0.223-2.301-0.668-4.304h-0.073zM88.252 14.723c0 0.112 0.025 0.211 0.074 0.297-0.049 0.421-0.074 0.742-0.074 0.964 0.099 0.235 0.248 1.497 0.445 3.783v0.595c0 0.111 0.099 0.358 0.297 0.741h0.074v-1.781c0-0.408 0.099-0.877 0.297-1.409 0-0.173-0.223-0.495-0.668-0.964l-0.223-1.484c0.049-0.086 0.074-0.186 0.074-0.297 0.001-0.198-0.098-0.346-0.296-0.446zM88.549 6.042v0.148h0.074v-0.148h-0.074zM88.549 7.6v0.371h0.074v-0.371h-0.074zM88.549 8.936v0.148h0.074v-0.148h-0.074zM88.623 9.454v0.074c0.248 1.497 0.421 2.733 0.52 3.709 0.074 0.137 0.173 0.631 0.297 1.484h0.148v-2.819l-0.816-1.707c0-0.322-0.025-0.569-0.074-0.742h-0.074zM89.217 2.406v0.668h0.074l0.074-0.372v-0.296h-0.148zM89.217 5.597v0.149h0.074v-0.149h-0.074zM89.217 6.117c0 1.781 0.124 2.671 0.371 2.671v-1.559c-0.148-0.668-0.223-1.039-0.223-1.113h-0.148zM90.256 18.432v0.741c-0.149 0.645-0.223 0.989-0.223 1.039v5.267c0 0.148 0.074 0.445 0.223 0.89h0.074c0.099 0 0.148-0.050 0.148-0.148v-0.223c0-0.173-0.025-0.396-0.074-0.668 0.247-0.396 0.396-0.718 0.445-0.965l-0.148-0.297-0.148 0.074-0.148-0.074 0.074-0.741v-0.297c0-0.531-0.074-1.348-0.223-2.448 0.099-0.136 0.223-0.803 0.371-2.004v-0.073l-0.074-0.371c-0.074-0.001-0.174 0.099-0.297 0.296zM90.182 3v0.446c0.148 0.544 0.321 1.459 0.52 2.745h0.148c0-2.127-0.148-3.191-0.445-3.191h-0.223zM90.553 7.749v1.113h0.074c0.148-0.037 0.223-0.235 0.223-0.594l-0.074-0.668h-0.074c-0.1 0.012-0.149 0.061-0.149 0.148zM90.627 17.171l-0.074 0.372v0.297h0.074c0.049-0.346 0.099-0.569 0.148-0.668h-0.148z"></path>
<path d="M94.8 1.293c0.148 0 0.346 0.050 0.594 0.148 0.346-0.099 0.619-0.148 0.815-0.148l0.964 0.148c0.322-0.099 0.544-0.148 0.668-0.148h1.41c0.161 0 0.507 0.050 1.038 0.148 0.149 0 0.347-0.049 0.594-0.148 0.248 0 0.371 0.025 0.371 0.074 1.063-0.049 1.856-0.074 2.374-0.074h4.823c0.445 0 0.668 0.52 0.668 1.558 0.247 1.682 0.371 2.77 0.371 3.265l-0.297 0.148c-0.385-0.049-0.778-0.223-1.187-0.52l-0.148 0.074h-0.594c-0.173 0-0.396-0.025-0.669-0.074-0.099 0.049-0.173 0.074-0.223 0.074-0.148 0-0.223-0.025-0.223-0.074-0.494 0.049-0.864 0.074-1.112 0.074h-2.374c-0.062 0-0.334-0.049-0.815-0.148h-0.52c-0.099 0-0.347 0.049-0.742 0.148-0.248-0.086-0.372-0.21-0.372-0.372 0.099-0.828 0.272-1.62 0.52-2.373-0.099-0.47-0.148-0.841-0.148-1.113v-0.072c-0.347-0.049-0.545-0.074-0.594-0.074l-0.074 0.148v0.964l-0.147 1.335c0.099 0.656 0.198 1.051 0.297 1.187 0 0.062-0.272 0.458-0.815 1.187v0.148c0 0.347 0.049 0.619 0.148 0.816-0.099 0.198-0.148 0.47-0.148 0.816v1.558c0 0.198 0.049 0.52 0.148 0.964-0.099 0.458-0.148 0.729-0.148 0.815 0 0.594 0.52 0.989 1.558 1.187 0.086 0 0.285-0.049 0.594-0.148l0.446 0.074c1.199 0 2.287-0.198 3.265-0.594h0.297c0.1 0.012 0.148 0.062 0.148 0.148v0.371c0 0.173 0.025 0.396 0.074 0.668-0.1 0.198-0.148 0.371-0.148 0.52 0.049 0.148 0.1 0.223 0.148 0.223l-0.074 0.52v2.374l0.074 0.52-0.223 0.148h-0.148c-1.001-0.396-1.57-0.594-1.706-0.594-0.348 0.050-0.545 0.074-0.595 0.074-0.086 0-0.433-0.074-1.038-0.223-0.186 0.099-0.384 0.148-0.594 0.148-0.049 0-0.124-0.024-0.223-0.074-0.198 0.050-0.371 0.074-0.52 0.074l-0.297-0.074c-0.161 0.099-0.309 0.148-0.445 0.148h-0.148l-0.223-0.148c0.062-1.917 0.161-3.104 0.297-3.561-0.037-0.297-0.186-0.446-0.445-0.446-0.099 0.161-0.148 0.285-0.148 0.372-0.050 1.521-0.074 2.51-0.074 2.968-0.1 0.322-0.149 0.544-0.149 0.668v0.074c0.384 0 0.606 0.1 0.668 0.297l-0.445 0.594c0.049 2.374 0.074 4.204 0.074 5.49v1.707c0 0.223 0.198 0.644 0.594 1.262l0.52-0.074h0.075c0.173 0 0.396 0.024 0.668 0.074l0.52-0.149c0.828 0.050 1.471 0.075 1.93 0.075h1.854c0.211 0 0.408 0.024 0.594 0.074 0.198-0.050 0.396-0.074 0.594-0.074h1.262c0.186 0 0.606-0.149 1.262-0.446h0.148c0.074 0 0.148 0.074 0.223 0.223-0.272 3.067-0.52 4.601-0.742 4.601-0.088 0.050-0.186 0.074-0.297 0.074h-2.301c-2.114 0-3.746 0.024-4.897 0.074-0.977-0.050-2.51-0.074-4.6-0.074h-0.89c-0.248 0-0.371-0.050-0.371-0.148-0.248 0.148-0.446 0.223-0.594 0.223h-0.223c-0.111 0-0.186-0.124-0.223-0.371 0.297-0.754 0.445-1.225 0.445-1.41 0-0.729-0.025-1.224-0.074-1.483 0.049-1.026 0.074-1.967 0.074-2.82v-2.005c0-0.73-0.025-1.224-0.074-1.483 0.049-0.521 0.074-1.089 0.074-1.708v-5.341c0-0.173-0.025-0.396-0.074-0.668 0.049-0.099 0.074-0.173 0.074-0.223l-0.074-0.89 0.074-1.039c0-0.383-0.025-0.729-0.074-1.039 0.049-1.645 0.074-3.079 0.074-4.303v-2.744l-0.074-0.371h0.074l-0.448-1.41v-0.075c0.099-0.197 0.247-0.297 0.445-0.297zM95.393 2.184v0.297l0.52 2.522h0.074c0.049-0.173 0.074-0.272 0.074-0.297 0-0.235-0.148-0.952-0.445-2.152 0-0.248-0.050-0.371-0.148-0.371h-0.075zM95.542 8.193l-0.148 0.297c0 1.162 0.148 1.979 0.445 2.448l-0.223 1.261 0.445 2.152v0.668c0.037 0.297 0.111 0.445 0.223 0.445 0-0.248 0.025-0.371 0.074-0.371-0.086-0.322-0.186-1.138-0.297-2.448v-2.004c0-0.124-0.124-0.619-0.371-1.484l0.074-0.371c0.001-0.37-0.074-0.567-0.222-0.593zM95.69 27.93c0 0.148-0.025 0.223-0.074 0.223 0.049 0.1 0.074 0.174 0.074 0.223h0.074v-0.445h-0.074zM95.987 5.448c0 0.025-0.025 0.124-0.074 0.297 0 0.223 0.198 1.063 0.594 2.522 0.297 1.472 0.445 2.683 0.445 3.636h-0.074l0.074 0.148v0.149c0 0.049-0.025 0.074-0.074 0.074 0.074 0.198 0.148 0.297 0.223 0.297 0-0.049 0.024-0.074 0.074-0.074 0-0.049-0.025-0.124-0.074-0.223 0.049-1.088 0.124-1.88 0.223-2.374-0.347 0-0.644-1.212-0.89-3.636-0.049 0-0.173-0.272-0.371-0.816h-0.075zM97.026 1.739l-0.074 0.149c0.148 0.668 0.223 1.138 0.223 1.41v0.815c0.012 0.099 0.062 0.148 0.148 0.148v-0.889c0-0.148 0.074-0.446 0.223-0.89-0.063-0.495-0.236-0.743-0.52-0.743zM97.323 26.67l-0.074 0.371v1.038h0.074c0-0.644 0.099-1.088 0.297-1.335l-0.148-0.074h-0.149zM97.917 28.523v0.074c0 0.272 0.024 0.619 0.074 1.038-0.050 0.088-0.074 0.186-0.074 0.297h0.148v-0.148c0-0.16 0.024-0.284 0.074-0.371-0.049-0.594-0.123-0.89-0.222-0.89zM98.14 13.832v0.52c0.099 0 0.148-0.049 0.148-0.148l-0.074-0.371h-0.074zM98.435 2.11v0.89c0.297 0.31 0.445 0.606 0.445 0.89 0.111 0 0.186-0.173 0.223-0.52l-0.075-0.89h0.075c-0.050-0.396-0.174-0.594-0.372-0.594-0.196 0.075-0.296 0.149-0.296 0.223zM99.919 27.114c0 0.024-0.049 0.396-0.148 1.112v0.445h0.148c0.198-0.741 0.297-1.162 0.297-1.261v-0.148c0-0.1-0.049-0.148-0.148-0.148h-0.149zM100.662 13.685c-0.198 0.099-0.297 0.915-0.297 2.448-0.099 0.012-0.148 0.062-0.148 0.148v0.223h0.148c0.248-0.644 0.372-0.989 0.372-1.039s-0.050-0.297-0.148-0.742c0.148-0.26 0.223-0.507 0.223-0.742v-0.148c-0.002-0.099-0.051-0.148-0.15-0.148zM101.403 2.11c0 0.865-0.124 1.855-0.371 2.968l0.148 0.223c0.594-0.049 0.89-0.124 0.89-0.223 0.049-1.632 0.124-2.448 0.223-2.448-0.099-0.371-0.148-0.619-0.148-0.742h-0.594c-0.1 0-0.149 0.074-0.149 0.222zM101.18 29.043c0.049 0.1 0.074 0.174 0.074 0.223h0.148c0.111-0.049 0.309-0.396 0.594-1.038 0.247-0.063 0.371-0.137 0.371-0.223v-0.371c0-0.074-0.074-0.148-0.223-0.223-0.235 0-0.458 0.396-0.668 1.187-0.036-0.001-0.135 0.148-0.296 0.445zM101.403 15.687c0.136 0 0.309-0.272 0.52-0.815l-0.074-0.149v-0.52c0-0.124 0.049-0.346 0.148-0.668l-0.148-0.074h-0.074c-0.124 0-0.248 0.742-0.372 2.225zM102.072 15.836l-0.074 0.372v0.074c0.012 0.099 0.062 0.148 0.148 0.148 0-0.049 0.024-0.248 0.074-0.594h-0.148z"></path>
<path d="M116.076 1.219l0.742 0.074h1.335c0.285 0 0.681 0.025 1.187 0.074 0.087-0.049 0.21-0.074 0.371-0.074 0.099 0 0.148 0.025 0.148 0.074l0.891-0.074h3.265c0.618 0 1.261 0.52 1.93 1.558 0.643 0.434 0.964 0.853 0.964 1.261l-0.074 0.297 0.148 1.112c-0.148 0.804-0.223 1.793-0.223 2.968v0.595c0 0.347-0.074 0.717-0.223 1.113l0.371 0.816-0.074 0.52c0 1.744-0.050 3.821-0.148 6.233 0.099 0.495 0.148 0.939 0.148 1.335v2.301c0 1.606-0.025 3.363-0.074 5.267 0.049 0.358 0.074 1.026 0.074 2.003l-1.855 1.781c-0.26 0.347-0.507 0.52-0.742 0.52h-0.816l-0.445-0.074-0.148 0.074c-0.693-0.050-1.286-0.074-1.78-0.074h-0.371c-0.396 0-0.719 0.024-0.965 0.074-0.31-0.050-0.655-0.074-1.039-0.074h-1.112c-0.285 0-0.681 0.024-1.187 0.074-0.1-0.050-0.174-0.074-0.223-0.074-0.434 0.050-0.804 0.074-1.112 0.074h-0.298c-0.26 0-0.433-0.099-0.52-0.297v-0.521l0.074-0.445c-0.186-0.507-0.334-1.075-0.445-1.706h-0.074v0.594c0 0.198 0.024 0.396 0.074 0.594l-0.074 0.371c0.099 0.705 0.148 1.101 0.148 1.187-0.186 0.148-0.359 0.223-0.521 0.223h-0.148c-0.26 0-0.482-0.024-0.668-0.074-0.26 0.050-0.508 0.074-0.742 0.074h-0.148c-0.074 0-0.148-0.074-0.223-0.223 0.445-0.965 0.668-2.078 0.668-3.339-0.049-0.495-0.074-0.865-0.074-1.113v-8.087c0-0.049 0.025-0.074 0.074-0.074-0.049-0.248-0.1-0.371-0.148-0.371 0.049-0.816 0.074-1.435 0.074-1.855v-0.223c0-1.001-0.025-2.361-0.074-4.080 0.037-0.297 0.086-0.445 0.148-0.445-0.049-0.124-0.1-0.372-0.148-0.742 0.049-1.249 0.074-2.237 0.074-2.968v-2.153c0-0.049 0.025-0.074 0.074-0.074-0.1-0.198-0.148-0.47-0.148-0.815v-2.005c-0.248-0.606-0.371-0.927-0.371-0.964l0.223-0.148h0.445c0.211 0 0.408 0.050 0.594 0.148 0.198-0.099 0.471-0.148 0.816-0.148h0.074c0.173 0 0.371 0.099 0.594 0.297 0.087-0.198 0.26-0.297 0.52-0.297 0.235 0 0.483 0.025 0.743 0.074 0.296-0.037 0.444-0.087 0.444-0.149zM112.885 2.852v2.078h0.148v-0.371c0-0.26 0.025-0.483 0.074-0.668-0.037-0.694-0.111-1.039-0.222-1.039zM112.885 10.197v0.445h0.148v-0.445h-0.148zM113.33 23.552c0.1 0.322 0.148 0.545 0.148 0.668v2.82l0.074 0.371h0.075v-2.82c0-0.445-0.050-0.864-0.149-1.261-0.098 0.001-0.148 0.075-0.148 0.223zM113.553 13.091l0.149 0.074v-0.223c-0.099 0.013-0.149 0.062-0.149 0.149zM113.925 2.406c0.050 0.495 0.074 0.865 0.074 1.113v1.929h0.074c0.099-0.52 0.148-0.791 0.148-0.815l-0.074-0.372c0.037-0.297 0.087-0.445 0.148-0.445l-0.073-0.149v-0.074c0-0.049 0.024-0.074 0.074-0.074l-0.074-0.148v-0.595c0-0.21 0.074-0.482 0.223-0.815-0.050-0.099-0.074-0.173-0.074-0.223l-0.446 0.668zM113.925 19.397c0.050 0.742 0.074 1.286 0.074 1.633v0.965l0.445 2.299c0 1.435 0.198 2.153 0.595 2.153l0.297 0.148-0.074-0.891v-0.965c-0.199-0.544-0.297-0.914-0.297-1.112 0.098-0.321 0.148-0.545 0.148-0.668 0-0.445-0.273-0.964-0.816-1.558-0.136-1.335-0.26-2.004-0.371-2.004zM113.999 10.939v0.297h0.148v-0.148c0.001-0.1-0.049-0.149-0.148-0.149zM114.443 15.465v0.445c0.198 0.396 0.347 1.286 0.445 2.671 0.161 0.644 0.31 0.964 0.446 0.964h0.148l0.074-0.371v-2.152c-0.111-0.111-0.285-0.458-0.52-1.039-0.060 0-0.259-0.173-0.593-0.519zM114.964 4.855l-0.372 3.19c0.050 0.099 0.074 0.174 0.074 0.223h0.074l0.372-2.078v-0.593l-0.074-0.742h-0.074zM114.666 9.603l-0.074 0.371 0.446 2.374c0 0.049-0.025 0.074-0.074 0.074 0.148 1.435 0.297 2.152 0.445 2.152 0.049-0.099 0.074-0.173 0.074-0.223-0.148-0.716-0.223-1.41-0.223-2.078v-0.52c-0.297-1.026-0.446-1.744-0.446-2.152h-0.148zM115.261 26.892c0 0.321-0.025 0.741-0.074 1.261 0.061 0.445 0.16 0.668 0.297 0.668v-0.074c-0.051-0.938-0.1-1.558-0.148-1.854h-0.075zM116.225 29.488h-0.223l-0.371-0.074-0.074 0.371v0.223c0 0.074 0.074 0.148 0.223 0.223h0.074c0.21-0.395 0.457-0.594 0.742-0.594v-0.148c0-0.099-0.050-0.148-0.148-0.148l-0.223 0.147zM116.002 2.926v0.89h0.074l0.148-0.668c-0.050-0.099-0.074-0.173-0.074-0.223h-0.148zM118.302 5.82h-1.112c-0.359 0-0.606 0.569-0.742 1.707v1.039c-0.1 0.84-0.148 1.311-0.148 1.41 0 0.173 0.099 0.644 0.297 1.41 0 0.099-0.1 0.52-0.297 1.261 0 0.062 0.099 0.532 0.297 1.41 0 0.322-0.025 0.644-0.074 0.964 0.049 1.125 0.074 2.188 0.074 3.19v0.741c0 0.248-0.050 0.545-0.148 0.89 0 0.311 0.024 0.682 0.074 1.113-0.050 1.348-0.074 2.634-0.074 3.857v0.446c0 0.495 0.271 0.89 0.815 1.187h0.297c0.285 0 0.458 0.024 0.52 0.074 0.272-0.050 0.495-0.074 0.668-0.074h1.039c0.272 0 0.618 0.024 1.039 0.074 0.086-0.050 0.186-0.074 0.297-0.074 0.271 0.049 0.494 0.074 0.668 0.074 0.445-0.632 0.668-1.2 0.668-1.708v-8.903c0-0.668-0.025-1.211-0.074-1.632 0.049-0.334 0.074-0.853 0.074-1.558v-6.233c-0.197-0.26-0.52-0.507-0.964-0.742l-0.371 0.074-0.371-0.074-0.371 0.074c-0.174-0.049-0.273-0.074-0.298-0.074l-0.668 0.074-0.52-0.148c-0.188 0.098-0.385 0.148-0.596 0.148zM117.337 29.414v0.148h0.148c0-0.099-0.048-0.148-0.148-0.148zM118.302 29.414v0.074c0.050 0.297 0.124 0.445 0.223 0.445l0.074-0.148c-0.099-0.223-0.198-0.346-0.297-0.371zM119.044 1.888c-0.087 0.359-0.161 1.422-0.223 3.19l0.148 0.074c0.136 0 0.235-0.989 0.297-2.968-0.050-0.086-0.074-0.186-0.074-0.297h-0.148zM120.008 2.48v0.148c0.099 0 0.149-0.049 0.149-0.148h-0.149zM120.008 3v0.297h0.074v-0.297h-0.074zM123.347 4.41l-0.074 0.52v2.078c0.013 0.099 0.063 0.148 0.148 0.148l0.074-0.742v-1.854c0-0.1-0.049-0.149-0.148-0.149zM123.347 23.997v0.223h0.074v-0.223h-0.074zM124.090 18.655c-0.248 0.741-0.372 1.286-0.372 1.633v1.187c-0.197 0.753-0.297 1.272-0.297 1.558l0.371-0.223 0.372 0.074 0.148-0.223c-0.099-0.445-0.148-0.767-0.148-0.964v-0.669l-0.148-0.52c0-0.037 0.124-0.358 0.371-0.965-0.099-0.445-0.148-0.741-0.148-0.89h-0.149zM124.831 5.374c-0.198 0.458-0.297 0.729-0.297 0.816v0.594c0 3.191-0.050 5.887-0.148 8.087 0.099 0 0.148 0.074 0.148 0.223h0.074v-1.632c0-0.223 0.074-0.693 0.223-1.41-0.050-0.198-0.074-0.371-0.074-0.52l0.148-1.41c0-0.111-0.024-0.21-0.074-0.297 0.099-0.656 0.148-1.645 0.148-2.968v-1.112l-0.074-0.372h-0.074zM125.723 19.323l-0.074 0.742v0.89c0.148 0 0.223-0.272 0.223-0.815v-0.298l-0.074-0.52h-0.075zM125.723 22.069l-0.074 0.445v0.371h0.074c0-0.063 0.023-0.309 0.074-0.741v-0.074h-0.074z"></path>
<path d="M129.636 1.293c0.148 0 0.346 0.050 0.594 0.148 0.346-0.099 0.619-0.148 0.815-0.148l0.964 0.148c0.322-0.099 0.545-0.148 0.669-0.148h1.41c0.16 0 0.506 0.050 1.038 0.148 0.148 0 0.346-0.049 0.594-0.148 0.248 0 0.371 0.025 0.371 0.074 1.063-0.049 1.855-0.074 2.374-0.074h4.823c0.445 0 0.668 0.52 0.668 1.558 0.247 1.682 0.372 2.77 0.372 3.265l-0.298 0.148c-0.384-0.049-0.778-0.223-1.187-0.52l-0.148 0.074h-0.594c-0.173 0-0.396-0.025-0.668-0.074-0.1 0.049-0.174 0.074-0.223 0.074-0.148 0-0.223-0.025-0.223-0.074-0.495 0.049-0.865 0.074-1.112 0.074h-2.375c-0.062 0-0.334-0.049-0.815-0.148h-0.52c-0.1 0-0.347 0.049-0.742 0.148-0.248-0.086-0.371-0.21-0.371-0.372 0.099-0.828 0.271-1.62 0.52-2.373-0.1-0.47-0.148-0.841-0.148-1.113v-0.072c-0.347-0.049-0.545-0.074-0.594-0.074l-0.074 0.148v0.964l-0.148 1.335c0.099 0.656 0.197 1.051 0.297 1.187 0 0.062-0.272 0.458-0.815 1.187v0.148c0 0.347 0.049 0.619 0.148 0.816-0.1 0.198-0.148 0.47-0.148 0.816v1.558c0 0.198 0.049 0.52 0.148 0.964-0.1 0.458-0.148 0.729-0.148 0.815 0 0.594 0.52 0.989 1.558 1.187 0.086 0 0.285-0.049 0.594-0.148l0.445 0.074c1.199 0 2.287-0.198 3.266-0.594h0.297c0.099 0.012 0.148 0.062 0.148 0.148v0.371c0 0.173 0.024 0.396 0.074 0.668-0.1 0.198-0.148 0.371-0.148 0.52 0.049 0.148 0.099 0.223 0.148 0.223l-0.074 0.52v2.374l0.074 0.52-0.223 0.148h-0.148c-1.002-0.396-1.571-0.594-1.707-0.594-0.347 0.050-0.545 0.074-0.595 0.074-0.086 0-0.433-0.074-1.038-0.223-0.186 0.099-0.383 0.148-0.594 0.148-0.049 0-0.123-0.024-0.223-0.074-0.198 0.050-0.371 0.074-0.52 0.074l-0.297-0.074c-0.161 0.099-0.31 0.148-0.445 0.148h-0.148l-0.223-0.148c0.061-1.917 0.16-3.104 0.297-3.561-0.037-0.297-0.186-0.446-0.445-0.446-0.1 0.161-0.148 0.285-0.148 0.372-0.051 1.521-0.074 2.51-0.074 2.968-0.1 0.322-0.149 0.544-0.149 0.668v0.074c0.384 0 0.606 0.1 0.669 0.297l-0.445 0.594c0.049 2.374 0.074 4.204 0.074 5.49v1.707c0 0.223 0.197 0.644 0.594 1.262l0.52-0.074h0.074c0.173 0 0.396 0.024 0.668 0.074l0.52-0.149c0.828 0.050 1.472 0.075 1.93 0.075h1.855c0.21 0 0.408 0.024 0.594 0.074 0.197-0.050 0.396-0.074 0.594-0.074h1.261c0.186 0 0.607-0.149 1.262-0.446h0.148c0.074 0 0.148 0.074 0.224 0.223-0.273 3.067-0.521 4.601-0.743 4.601-0.087 0.050-0.186 0.074-0.297 0.074h-2.3c-2.115 0-3.747 0.024-4.897 0.074-0.977-0.050-2.51-0.074-4.601-0.074h-0.89c-0.248 0-0.371-0.050-0.371-0.148-0.248 0.148-0.445 0.223-0.594 0.223h-0.223c-0.111 0-0.186-0.124-0.223-0.371 0.297-0.754 0.445-1.225 0.445-1.41 0-0.729-0.025-1.224-0.074-1.483 0.049-1.026 0.074-1.967 0.074-2.82v-2.005c0-0.73-0.025-1.224-0.074-1.483 0.049-0.521 0.074-1.089 0.074-1.708v-5.341c0-0.173-0.025-0.396-0.074-0.668 0.049-0.099 0.074-0.173 0.074-0.223l-0.074-0.89 0.074-1.039c0-0.383-0.025-0.729-0.074-1.039 0.049-1.645 0.074-3.079 0.074-4.303v-2.744l-0.074-0.371h0.074l-0.445-1.41v-0.075c0.094-0.197 0.243-0.297 0.442-0.297zM130.228 2.184v0.297l0.52 2.522h0.074c0.049-0.173 0.074-0.272 0.074-0.297 0-0.235-0.148-0.952-0.445-2.152 0-0.248-0.050-0.371-0.148-0.371h-0.075zM130.377 8.193l-0.148 0.297c0 1.162 0.148 1.979 0.445 2.448l-0.223 1.261 0.445 2.152v0.668c0.037 0.297 0.111 0.445 0.223 0.445 0-0.248 0.025-0.371 0.074-0.371-0.086-0.322-0.186-1.138-0.297-2.448v-2.004c0-0.124-0.123-0.619-0.371-1.484l0.074-0.371c0-0.37-0.074-0.567-0.222-0.593zM130.525 27.93c0 0.148-0.025 0.223-0.074 0.223 0.049 0.1 0.074 0.174 0.074 0.223h0.074v-0.445h-0.074zM130.822 5.448c0 0.025-0.025 0.124-0.074 0.297 0 0.223 0.197 1.063 0.594 2.522 0.297 1.472 0.445 2.683 0.445 3.636h-0.074l0.074 0.148v0.149c0 0.049-0.024 0.074-0.074 0.074 0.074 0.198 0.148 0.297 0.223 0.297 0-0.049 0.025-0.074 0.074-0.074 0-0.049-0.024-0.124-0.074-0.223 0.050-1.088 0.124-1.88 0.223-2.374-0.346 0-0.643-1.212-0.89-3.636-0.049 0-0.174-0.272-0.371-0.816h-0.075zM131.86 1.739l-0.074 0.149c0.148 0.668 0.223 1.138 0.223 1.41v0.815c0.013 0.099 0.063 0.148 0.148 0.148v-0.889c0-0.148 0.074-0.446 0.223-0.89-0.062-0.495-0.235-0.743-0.52-0.743zM132.157 26.67l-0.074 0.371v1.038h0.074c0-0.644 0.1-1.088 0.297-1.335l-0.148-0.074h-0.149zM132.752 28.523v0.074c0 0.272 0.024 0.619 0.074 1.038-0.050 0.088-0.074 0.186-0.074 0.297h0.148v-0.148c0-0.16 0.024-0.284 0.074-0.371-0.049-0.594-0.124-0.89-0.222-0.89zM132.974 13.832v0.52c0.099 0 0.148-0.049 0.148-0.148l-0.074-0.371h-0.074zM133.27 2.11v0.89c0.297 0.31 0.445 0.606 0.445 0.89 0.111 0 0.186-0.173 0.224-0.52l-0.075-0.89h0.075c-0.051-0.396-0.174-0.594-0.372-0.594-0.198 0.075-0.297 0.149-0.297 0.223zM134.755 27.114c0 0.024-0.050 0.396-0.148 1.112v0.445h0.148c0.197-0.741 0.297-1.162 0.297-1.261v-0.148c0-0.1-0.050-0.148-0.148-0.148h-0.149zM135.497 13.685c-0.198 0.099-0.297 0.915-0.297 2.448-0.1 0.012-0.148 0.062-0.148 0.148v0.223h0.148c0.247-0.644 0.371-0.989 0.371-1.039s-0.050-0.297-0.148-0.742c0.148-0.26 0.223-0.507 0.223-0.742v-0.148c-0.001-0.099-0.051-0.148-0.149-0.148zM136.238 2.11c0 0.865-0.123 1.855-0.371 2.968l0.148 0.223c0.594-0.050 0.89-0.124 0.89-0.223 0.050-1.632 0.124-2.448 0.223-2.448-0.099-0.371-0.148-0.619-0.148-0.742h-0.594c-0.1 0-0.149 0.074-0.149 0.222zM136.016 29.043c0.049 0.1 0.074 0.174 0.074 0.223h0.148c0.111-0.049 0.309-0.396 0.594-1.038 0.248-0.063 0.371-0.137 0.371-0.223v-0.371c0-0.074-0.074-0.148-0.223-0.223-0.234 0-0.457 0.396-0.668 1.187-0.036-0.001-0.135 0.148-0.296 0.445zM136.238 15.687c0.137 0 0.309-0.272 0.52-0.815l-0.074-0.149v-0.52c0-0.124 0.050-0.346 0.148-0.668l-0.148-0.074h-0.074c-0.124 0-0.249 0.742-0.372 2.225zM136.906 15.836l-0.074 0.372v0.074c0.013 0.099 0.063 0.148 0.148 0.148 0-0.049 0.025-0.248 0.074-0.594h-0.148z"></path>
<path d="M147.61 1.219l0.89 0.223c0.445-0.099 0.767-0.148 0.964-0.148 0.148 0 0.322 0.050 0.52 0.148 0.186-0.099 0.384-0.148 0.594-0.148h0.223c0.915 0 1.46 0.693 1.634 2.078 0.246 0.148 0.79 1.311 1.632 3.487l1.854 4.452c0 0.111 0.124 0.408 0.372 0.89 0 0.148 0.297 0.865 0.89 2.152 0.099 0.717 0.272 1.138 0.521 1.261 0 0.124 0.297 0.816 0.89 2.078 0.049 0.741 0.173 1.112 0.371 1.112h0.148c0.148-0.049 0.223-0.197 0.223-0.445v-2.671c0-0.532 0.024-0.952 0.074-1.261-0.050-0.358-0.074-0.803-0.074-1.335v-3.488c-0.1-0.717-0.148-1.113-0.148-1.187v-1.929c0-0.346 0.049-0.619 0.148-0.815-0.1-0.372-0.148-0.569-0.148-0.594 0.099-0.371 0.148-0.716 0.148-1.039v-0.668c0-0.161-0.223-0.754-0.668-1.781v-0.075c0.16-0.148 0.284-0.223 0.371-0.223 0.197 0 0.297 0.025 0.297 0.074l0.89-0.074h3.784c0.074 0 0.148 0.074 0.223 0.223v0.223c-0.198 0.186-0.371 0.681-0.52 1.484l0.074 0.89v1.41c0 0.063-0.050 0.334-0.148 0.816v3.19c0 0.347 0.049 0.619 0.148 0.816-0.050 0.272-0.074 0.471-0.074 0.594 0 0.111 0.024 0.21 0.074 0.297l-0.074 0.52c0 0.161 0.024 0.582 0.074 1.261l-0.148 0.594 0.148 0.668c-0.1 0.198-0.148 0.471-0.148 0.816v2.597c0 0.532 0.024 0.977 0.074 1.335-0.050 0.311-0.074 0.73-0.074 1.262v0.148c0 0.321 0.049 1.311 0.148 2.968-0.1 0.445-0.148 0.767-0.148 0.964v0.52l-0.223 0.298v0.594l0.148 0.223v0.074c0 0.136-0.050 0.285-0.148 0.446 0.049 1.1 0.099 1.769 0.148 2.003-0.050 0.087-0.074 0.557-0.074 1.409 0.074 0 0.271 0.223 0.594 0.669v0.148l-0.148 0.223-0.89-0.074h-0.446c-0.458 0-1.101 0.024-1.93 0.074-0.099-0.050-0.173-0.074-0.223-0.074-0.197 0.050-0.371 0.074-0.52 0.074-0.234 0-0.458-0.347-0.668-1.039-0.223-0.309-0.742-1.52-1.558-3.636-0.162-0.198-1.423-3.19-3.784-8.978-0.359-0.693-0.656-1.41-0.89-2.152-0.422-1.15-0.693-1.744-0.816-1.781v-0.668c0-0.186-0.124-0.383-0.371-0.594v-0.223c0-0.037 0.124-0.161 0.371-0.371v-0.223l-0.371 0.074c-0.074 0-0.297-0.173-0.668-0.52-0.149 0.532-0.224 0.853-0.224 0.964v0.074c0.1 0.841 0.149 1.311 0.149 1.41v0.89c0 0.161-0.050 0.508-0.149 1.039 0.161 0.445 0.261 0.668 0.298 0.668-0.050 0.668-0.074 1.163-0.074 1.484v0.815c0 0.89-0.024 1.757-0.074 2.597 0.050 0.434 0.074 0.804 0.074 1.113-0.050 0.901-0.074 1.472-0.074 1.706l0.074 0.668c-0.149 0.682-0.224 1.101-0.224 1.262 0.149 0.247 0.224 0.495 0.224 0.741v0.149c0 0.692-0.024 1.632-0.074 2.818 0.012 0.347 0.235 0.792 0.668 1.336v0.148c0 0.024-0.050 0.099-0.148 0.223-0.582-0.050-1.002-0.074-1.262-0.074h-2.818c-0.26 0-0.682 0.024-1.262 0.074-0.099-0.161-0.148-0.31-0.148-0.445l0.815-1.262c-0.050-0.741-0.074-1.286-0.074-1.632v-0.668c0-0.235 0.024-0.482 0.074-0.742-0.148-0.803-0.223-3.253-0.223-7.346v-3.413c0-0.396 0.024-0.915 0.074-1.558-0.050-0.086-0.074-0.21-0.074-0.371l0.074-0.668c0-0.049-0.024-0.248-0.074-0.594 0.050-0.334 0.074-0.606 0.074-0.816 0-0.248-0.050-0.371-0.148-0.371 0.050-0.816 0.074-1.435 0.074-1.855v-3.042c0-0.049 0.050-0.248 0.148-0.594-0.099-0.161-0.148-0.309-0.148-0.445 0-0.086 0.099-0.309 0.297-0.668-0.099-0.285-0.198-1.001-0.297-2.152-0.037 0-0.161-0.198-0.371-0.594v-0.224c-0.002-0.161 0.419-0.26 1.26-0.297zM147.683 3.372l-0.297 1.113v0.222l0.074 0.445c-0.1 0.198-0.148 0.371-0.148 0.52 0.098 0.161 0.148 0.285 0.148 0.371h0.148c0.049-0.446 0.098-1.311 0.148-2.597v-0.073h-0.073zM147.683 24.887c0.098 0.311 0.148 0.508 0.148 0.595h0.074c0.197-1.373 0.297-2.436 0.297-3.19v-0.445c-0.235-0.001-0.408 1.012-0.519 3.040zM148.5 27.856c-0.198 0.508-0.371 1.125-0.52 1.854v0.52c0.012 0.1 0.062 0.149 0.148 0.149 0-0.396 0.148-1.039 0.445-1.93v-0.594h-0.073zM148.425 1.813l-0.148 0.223c0.21 0.062 0.358 0.186 0.445 0.371v1.41h0.074l0.074-0.371v-0.297c0-0.26-0.025-0.681-0.074-1.261l-0.371-0.075zM148.5 26.595v0.297h0.074v-0.297h-0.074zM148.871 15.020v0.668c0.099 0 0.148-0.049 0.148-0.148v-0.371c0-0.099-0.050-0.149-0.148-0.149zM149.909 1.888c-0.148 0.297-0.297 2.003-0.445 5.119-0.1 0.346-0.248 1.137-0.445 2.373l0.074 0.52c-0.050 1.373-0.074 2.485-0.074 3.339l0.148 0.074 0.148-0.52v-0.742c0.037-0.297 0.111-0.445 0.223-0.445l-0.074-0.742c0.248-2.869 0.371-4.625 0.371-5.268 0.1 0 0.198-0.668 0.297-2.003v-1.262c-0.001-0.26-0.075-0.408-0.223-0.445zM149.167 29.785h0.148v-0.148c-0.1 0.013-0.148 0.062-0.148 0.148zM149.538 17.32v0.297h0.148v-0.149c0-0.099-0.049-0.148-0.148-0.148zM149.835 18.655c0.037 0.545 0.111 0.815 0.223 0.815 0.248-0.901 0.371-1.372 0.371-1.409v-0.223l-0.594 0.816zM149.983 20.51l-0.074 0.52v1.187c0.013 0.099 0.063 0.148 0.148 0.148h0.074v-0.074c0-0.087-0.024-0.681-0.074-1.781h-0.074zM150.057 11.829c-0.049 0.26-0.074 0.409-0.074 0.446l0.074 0.371c-0.049 0-0.074 0.025-0.074 0.074h0.148v-0.89h-0.074zM150.502 6.265v0.074c0 1.435-0.074 2.3-0.223 2.597 0.050 0.272 0.074 0.47 0.074 0.594-0.099 0.668-0.148 1.088-0.148 1.261v0.149h0.074c0.124 0 0.223-0.297 0.297-0.89-0.049-0.26-0.074-0.507-0.074-0.742l0.297-0.89c0-0.631 0.124-2.065 0.372-4.304 0-0.037 0.124-0.507 0.371-1.41-0.087-0.284-0.235-0.507-0.445-0.668-0.248 0-0.372 1.162-0.372 3.487-0.049 0.001-0.123 0.249-0.223 0.744zM151.913 4.039c0 0.099-0.024 0.148-0.074 0.148l0.074 0.372v0.148c-0.21 1.657-0.334 2.522-0.371 2.597 0 0.049 0.024 0.074 0.074 0.074 0 0.619-0.148 1.335-0.445 2.152-0.050 0.272-0.074 0.471-0.074 0.594 0.050 0.099 0.074 0.173 0.074 0.223h0.074c0.445-1.286 0.668-2.177 0.668-2.671 0.099-0.495 0.198-0.791 0.297-0.89-0.099-0.223-0.148-0.47-0.148-0.742l0.223-0.742v-0.297c-0.001-0.643-0.125-0.964-0.372-0.964zM151.913 10.197c0 0.148 0.099 0.495 0.297 1.039h0.074l0.075-0.371-0.075-0.89h-0.148c-0.075-0.001-0.149 0.074-0.223 0.222zM155.473 13.016v0.297l0.074 0.372h0.074c0-0.148 0.025-0.223 0.074-0.223-0.061-0.297-0.135-0.446-0.222-0.446zM155.622 14.649v0.297h0.074v-0.297h-0.074zM155.993 17.988v0.148c0.013 0.099 0.063 0.148 0.148 0.148l0.074-0.148v-0.148h-0.222zM155.993 19.546v0.223h0.148c-0.049-0.098-0.074-0.172-0.074-0.223h-0.074zM158.664 26.521v0.223h0.223v-0.074c0-0.1-0.050-0.148-0.148-0.148h-0.075zM162.077 21.624v3.189h0.074c0-0.346 0.024-0.52 0.074-0.52l-0.074-0.148v-2.225c0-0.050 0.024-0.074 0.074-0.074-0.050-0.1-0.074-0.174-0.074-0.223h-0.074zM162.077 25.036v1.634h0.074c0-0.1 0.024-0.148 0.074-0.148l-0.074-0.149v-0.668c0-0.050 0.024-0.074 0.074-0.074-0.050-0.050-0.074-0.247-0.074-0.595h-0.074z"></path>
<path d="M169.441 1.219c0.581 0.050 1.002 0.074 1.262 0.074l0.52-0.074c0.223 0.099 0.346 0.198 0.371 0.297-0.396 0.52-0.619 1.014-0.668 1.484 0.099 0.446 0.148 0.693 0.148 0.743-0.050 0.902-0.074 1.472-0.074 1.707 0 0.037 0.024 0.235 0.074 0.594-0.1 0.198-0.148 0.47-0.148 0.815v0.074c0.099 0.718 0.148 1.113 0.148 1.187v1.781l-0.148 1.335c0.099 0.841 0.148 1.41 0.148 1.707 0 0.272-0.050 0.644-0.148 1.113 0 0.124 0.024 0.322 0.074 0.594l-0.074 0.668 0.074 1.187-0.074 0.668 0.148 0.446c0 0.049-0.025 0.124-0.074 0.223 0.049 0.507 0.074 0.902 0.074 1.187 0 0.248-0.050 0.545-0.148 0.89 0.099 0.348 0.148 0.645 0.148 0.891v0.742c-0.1 0.84-0.148 1.31-0.148 1.409v0.52c0.099 0.718 0.148 1.089 0.148 1.112 0 0.125-0.050 0.371-0.148 0.742 0.148 0.321 0.223 0.544 0.223 0.668v0.074c-0.248 0.297-0.371 0.471-0.371 0.521l0.297 2.744 0.52 1.262v0.148c0 0.074-0.074 0.148-0.223 0.223h-0.297c-0.124 0-0.347-0.050-0.668-0.148-0.186 0.099-0.385 0.148-0.594 0.148h-0.224c-0.173 0-0.371-0.099-0.594-0.297-0.186 0.148-0.334 0.223-0.445 0.223-0.050 0-0.198-0.099-0.446-0.297-0.111 0.247-0.358 0.371-0.742 0.371h-0.964c-0.074 0-0.148-0.074-0.223-0.223v-0.074c0.346-1.435 0.52-2.25 0.52-2.448-0.049-3.005-0.074-5.404-0.074-7.197 0-0.161-0.049-0.532-0.148-1.113 0.148-0.654 0.223-1.718 0.223-3.19 0-0.124-0.025-0.495-0.074-1.113 0.1-1.137 0.148-1.855 0.148-2.152-0.1-0.421-0.174-0.89-0.223-1.41 0.1-0.803 0.148-1.323 0.148-1.558 0-0.099-0.025-0.148-0.074-0.148l0.074-0.52v-1.932c0-0.569-0.025-1.088-0.074-1.558 0.049-0.26 0.074-0.729 0.074-1.41v-0.815c0-0.161-0.025-0.284-0.074-0.371l0.074-0.445v-1.113l-0.52-0.52v-0.075c0-0.074 0.099-0.173 0.297-0.297h1.78c0.162 0 0.335 0.074 0.521 0.223h0.074c0.16-0.123 0.357-0.223 0.593-0.297zM167.512 23.033v0.074l0.074 1.187c0 0.050-0.024 0.124-0.074 0.223 0 0.111 0.124 0.829 0.371 2.153v1.187c0 0.285-0.024 0.681-0.074 1.187l0.297 1.112h0.074l0.224-0.148h0.148c0.037 0 0.186 0.148 0.445 0.446h0.074c0-0.124 0.024-0.321 0.074-0.595 0-0.16-0.223-0.358-0.668-0.594-0.148-0.186-0.224-0.408-0.224-0.668v-1.261c0-0.865-0.223-2.301-0.668-4.304h-0.073zM167.735 14.723c0 0.112 0.025 0.211 0.074 0.297-0.049 0.421-0.074 0.742-0.074 0.964 0.1 0.235 0.248 1.497 0.445 3.783v0.595c0 0.111 0.1 0.358 0.298 0.741h0.074v-1.781c0-0.408 0.099-0.877 0.297-1.409 0-0.173-0.223-0.495-0.669-0.964l-0.223-1.484c0.050-0.086 0.074-0.186 0.074-0.297 0-0.198-0.098-0.346-0.296-0.446zM168.030 6.042v0.148h0.074v-0.148h-0.074zM168.030 7.6v0.371h0.074v-0.371h-0.074zM168.030 8.936v0.148h0.074v-0.148h-0.074zM168.105 9.454v0.074c0.248 1.497 0.422 2.733 0.521 3.709 0.074 0.137 0.173 0.631 0.297 1.484h0.148v-2.819l-0.816-1.707c0-0.322-0.024-0.569-0.074-0.742h-0.075zM168.699 2.406v0.668h0.074l0.074-0.372v-0.296h-0.148zM168.699 5.597v0.149h0.074v-0.149h-0.074zM168.699 6.117c0 1.781 0.124 2.671 0.371 2.671v-1.559c-0.148-0.668-0.223-1.039-0.223-1.113h-0.148zM169.738 18.432v0.741c-0.149 0.645-0.224 0.989-0.224 1.039v5.267c0 0.148 0.074 0.445 0.224 0.89h0.074c0.098 0 0.148-0.050 0.148-0.148v-0.223c0-0.173-0.025-0.396-0.074-0.668 0.246-0.396 0.395-0.718 0.445-0.965l-0.148-0.297-0.148 0.074-0.148-0.074 0.074-0.741v-0.297c0-0.531-0.074-1.348-0.223-2.448 0.098-0.136 0.223-0.803 0.371-2.004v-0.073l-0.074-0.371c-0.074-0.001-0.173 0.099-0.297 0.296zM169.664 3v0.446c0.148 0.544 0.32 1.459 0.52 2.745h0.148c0-2.127-0.148-3.191-0.445-3.191h-0.223zM170.035 7.749v1.113h0.074c0.148-0.037 0.223-0.235 0.223-0.594l-0.074-0.668h-0.074c-0.1 0.012-0.149 0.061-0.149 0.148zM170.11 17.171l-0.074 0.372v0.297h0.074c0.049-0.346 0.098-0.569 0.148-0.668h-0.148z"></path>
<path d="M180.181 1.293c0.16 0.099 0.284 0.148 0.371 0.148l0.371-0.074 0.445 0.074c0.161-0.099 0.31-0.148 0.445-0.148 0.148 0.050 0.223 0.099 0.223 0.148l0.743-0.074h0.297c0.347 0.013 0.52 0.062 0.52 0.148l0.148-0.074h0.446c0.049 0 0.074 0.025 0.074 0.074l0.371-0.223h0.594c0.841 0.198 1.261 0.322 1.261 0.371 1.225 1.175 1.843 1.843 1.855 2.004 0 0.025-0.024 0.124-0.074 0.297 0 0.124 0.024 0.322 0.074 0.594l-0.074 0.742c0.148 0.446 0.223 0.742 0.223 0.89v0.816c0 0.198-0.050 0.52-0.148 0.964 0.186 0.804 0.408 1.298 0.669 1.484v0.15c0 0.074-0.1 0.173-0.298 0.297h-0.148c-0.532 0-0.902-0.025-1.113-0.074-0.383 0.049-0.803 0.074-1.261 0.074h-0.52c-0.248 0-0.644-0.074-1.187-0.223-0.371 0.198-0.619 0.297-0.743 0.297-0.223-0.099-0.347-0.198-0.371-0.297v-0.223c0-0.284 0.272-0.753 0.816-1.41v-0.073l-0.074-0.445c0.098-0.235 0.148-0.458 0.148-0.668-0.445-0.742-0.94-1.112-1.484-1.112h-0.074c-0.261 0-0.483 0.025-0.669 0.074-0.26-0.049-0.507-0.074-0.742-0.074h-0.668c-0.111 0-0.211 0.025-0.297 0.074-0.297-0.086-0.445-0.161-0.445-0.223-0.1 0.087-0.495 0.161-1.187 0.223 0 0.124-0.174 0.371-0.521 0.742v0.593c0 0.359-0.024 0.631-0.074 0.815 0.050 0.322 0.074 0.644 0.074 0.964v0.89c-0.099 1.113-0.148 1.707-0.148 1.781v0.742c0 0.594 0.223 0.964 0.669 1.113 0 0.148 0.123 0.223 0.371 0.223 0.234 0 0.482-0.025 0.742-0.074l0.371 0.074 0.52-0.074 0.742 0.074 0.742-0.074c0.804 0.062 1.423 0.136 1.856 0.223 0.098 0 0.271-0.049 0.52-0.148 0.433 0.049 0.705 0.074 0.815 0.074 0.68-0.049 1.101-0.074 1.261-0.074 0.186 0.049 0.434 0.223 0.742 0.52 0.087 0.025 0.335 0.322 0.743 0.89 0.692 0.544 1.039 1.014 1.039 1.41v0.594c0 0.742-0.025 1.36-0.074 1.855 0.049 0.348 0.074 0.841 0.074 1.484-0.1 0.878-0.148 1.422-0.148 1.633v0.594c0.098 0.718 0.148 1.112 0.148 1.187-0.148 0.915-0.224 1.46-0.224 1.633 0.050 1.385 0.099 2.374 0.149 2.968-0.125 0.482-0.94 1.323-2.449 2.522-0.693-0.062-1.286-0.136-1.78-0.223-0.074 0-0.496 0.074-1.262 0.223-0.037 0-0.186-0.024-0.445-0.074-0.272 0.050-0.47 0.074-0.594 0.074-0.31-0.099-0.508-0.148-0.595-0.148-0.544 0.024-0.815 0.074-0.815 0.148-0.582-0.050-1.001-0.074-1.261-0.074h-2.522c-0.706 0-1.175-0.223-1.41-0.669-1.038-0.927-1.558-1.545-1.558-1.854v-0.967c0-0.631 0.024-1.323 0.074-2.078-0.050-0.173-0.074-0.272-0.074-0.298 0.049-0.271 0.074-0.543 0.074-0.815 0-0.371-0.223-0.988-0.668-1.854v-0.297c0.012-0.1 0.061-0.148 0.148-0.148h2.744c0.050 0 0.074 0.024 0.074 0.074l0.148-0.074h2.153c0.148 0 0.223 0.099 0.223 0.297-0.297 0.778-0.445 1.372-0.445 1.78l0.074 0.371c-0.1 0.471-0.148 0.767-0.148 0.891 0 0.741 0.42 1.162 1.261 1.262l0.52-0.074h0.148c0.508 0 0.902 0.024 1.187 0.074 0.285-0.050 0.682-0.074 1.187-0.074h0.148c0.136 0 0.284 0.049 0.445 0.148 0.272-0.050 0.495-0.074 0.669-0.074h0.223l0.074-0.372c0-0.235-0.025-0.803-0.074-1.707l0.074-0.148c-0.050-0.197-0.074-0.371-0.074-0.52 0-0.581-0.025-1.175-0.074-1.78 0.099-0.866 0.148-1.781 0.148-2.746v-0.074c0-0.396-0.471-0.668-1.41-0.815v-0.074l-0.742 0.074h-2.745c-0.111 0-0.211 0.025-0.297 0.074l-0.148-0.074c-0.162 0-0.285 0.025-0.371 0.074-0.508-0.049-0.903-0.074-1.187-0.074h-1.262c-0.457 0-0.976-0.371-1.558-1.113l-1.261-1.187v-11.948c0-0.631 0.84-1.545 2.521-2.745 0.421 0.099 0.693 0.148 0.815 0.148 0.074 0 0.298-0.049 0.669-0.148 0.099 0 0.272 0.050 0.52 0.148 0.101-0.099 0.768-0.173 2.007-0.223zM175.58 24.665v0.521c0.1 0 0.148-0.050 0.148-0.149v-0.224c0.001-0.098-0.048-0.148-0.148-0.148zM176.025 11.681v0.148h0.148v-0.297c-0.098 0.013-0.148 0.063-0.148 0.149zM176.322 3.594c0.148 0.396 0.223 0.644 0.223 0.742 0 0.038-0.024 0.186-0.074 0.446l0.074 0.371c0 0.124-0.024 0.322-0.074 0.594l0.148 2.225h-0.074c0.198 0.322 0.297 0.841 0.297 1.558v1.93l0.074 0.371h-0.074l0.074 0.148v0.594c0.037 0.297 0.111 0.445 0.223 0.445l0.074-0.148v-0.074c0-0.21-0.024-0.408-0.074-0.594l0.074-0.372c0-0.049-0.024-0.247-0.074-0.594 0.1-0.52 0.149-0.791 0.149-0.816-0.149-1.941-0.298-3.153-0.446-3.636v-1.26c0-0.272-0.024-0.619-0.074-1.038 0.050-0.099 0.074-0.173 0.074-0.223-0.197-0.371-0.297-0.693-0.297-0.964-0.074 0-0.148 0.099-0.223 0.297zM176.397 2.184v0.297h0.148v-0.149c0-0.099-0.049-0.148-0.148-0.148zM176.767 23.997c0 0.050-0.024 0.124-0.074 0.223 0.1 0.198 0.148 0.371 0.148 0.52h0.074l0.074-0.371-0.074-0.371h-0.148zM176.841 25.036l-0.074 0.742v0.371h0.074l0.148-0.89c-0.049-0.099-0.074-0.173-0.074-0.224h-0.074zM177.064 27.93c0 0.049-0.099 0.322-0.297 0.815l0.223 0.148c0.111 0 0.186-0.223 0.223-0.668-0.049-0.086-0.074-0.186-0.074-0.297h-0.075zM176.841 26.67v0.89c0 0.074 0.074 0.148 0.223 0.223v-0.815l0.074-0.371-0.148-0.074c-0.099 0.010-0.149 0.060-0.149 0.147zM176.989 29.562l-0.074 0.371c0.013 0.1 0.063 0.148 0.148 0.148h0.074v-0.52h-0.148zM177.064 13.536v0.223c0.013 0.099 0.063 0.148 0.148 0.148h0.149v-0.148c0-0.074-0.074-0.148-0.224-0.223h-0.073zM181.367 14.649v0.223h0.074v-0.223h-0.074zM181.738 27.188c0 0.247-0.049 0.371-0.148 0.371l0.148 1.483c-0.099 0.223-0.148 0.545-0.148 0.964 0.087 0.248 0.235 0.372 0.445 0.372l0.148-0.298c-0.099-0.209-0.173-0.631-0.223-1.261 0.1-0.197 0.148-0.371 0.148-0.52l-0.074-0.297 0.074-0.445c-0.099-0.223-0.197-0.347-0.297-0.371h-0.073zM183.074 29.265l-0.074 0.371c0.050 0.088 0.074 0.186 0.074 0.297h0.148v-0.668h-0.148zM183.52 2.258v0.297c0.013 0.099 0.062 0.148 0.148 0.148v-0.445h-0.148zM183.594 4.633c0 0.099-0.024 0.148-0.074 0.148 0.050 0.099 0.074 0.173 0.074 0.223h0.074v-0.371h-0.074zM185.004 7.378c0.148 0.334 0.223 0.705 0.223 1.113h0.074l0.148-0.52v-0.742c-0.137 0-0.285 0.050-0.445 0.149zM185.227 3.742v0.816h0.074c0.396-0.086 0.594-0.186 0.594-0.297-0.049-0.358-0.1-0.581-0.148-0.668 0.049-0.086 0.074-0.186 0.074-0.297v-0.223c-0.075 0-0.273 0.222-0.594 0.668zM185.597 19.026v1.559c0.148 0 0.248-0.198 0.297-0.594-0.148-0.569-0.223-0.891-0.223-0.965h-0.074zM185.597 27.708v0.52c0 0.532 0.148 0.878 0.445 1.038h0.148c-0.174-0.408-0.322-0.927-0.445-1.558h-0.148zM185.893 25.778v0.223c0 0.074 0.074 0.148 0.223 0.223v-0.297c0-0.099-0.049-0.148-0.148-0.148h-0.075zM186.19 26.818v0.074l0.074 0.371h0.148v-0.074l-0.074-0.371h-0.148zM186.561 24.665v0.223h0.074v-0.223h-0.074zM186.858 14.723v0.149h0.074v-0.149h-0.074zM186.858 20.51v0.297h0.074v-0.297h-0.074zM186.932 26.297v0.074c0.013 0.1 0.063 0.149 0.148 0.149v-0.224h-0.148zM186.932 29.265v0.223h0.148c-0.049-0.099-0.074-0.173-0.074-0.223h-0.074zM187.675 5.374c-0.198 0.446-0.322 1.237-0.372 2.374 0.050 0.285 0.074 0.681 0.074 1.187 0.013 0.099 0.063 0.148 0.148 0.148l0.074-0.52v-0.593l0.224-2.597h-0.148zM187.303 27.485v0.074c0.013 0.1 0.063 0.148 0.148 0.148v-0.371c-0.099 0.012-0.148 0.062-0.148 0.149zM187.377 15.613c0.050 0.099 0.074 0.173 0.074 0.223h0.224v-0.223c0-0.099-0.050-0.148-0.149-0.148-0.099 0.012-0.149 0.062-0.149 0.148zM187.377 24.145v0.371h0.074v-0.371h-0.074zM187.675 20.733c0 0.26 0.173 1.397 0.52 3.413v0.297c0.136 0.248 0.235 0.371 0.297 0.371 0-0.309-0.223-1.718-0.668-4.228-0.1 0.012-0.149 0.061-0.149 0.148zM187.749 25.778v0.223h0.074v-0.223h-0.074z"></path>
</svg>
