<!-- Generated by IcoMoon.io -->
<svg version="1.1" xmlns="http://www.w3.org/2000/svg" width="41" height="32" viewBox="0 0 41 32">
<title>house</title>
<path d="M20.558 5.748c-3.661 2.983-7.253 5.907-10.839 8.838-1.933 1.58-3.851 3.177-5.782 4.759-1.187 0.972-2.486 0.893-3.39-0.189-0.882-1.055-0.722-2.231 0.476-3.261 1.974-1.696 3.941-3.404 5.958-5.048 0.54-0.439 0.689-0.888 0.681-1.538-0.032-2.247-0.019-4.494-0.010-6.742 0.005-1.213 0.456-1.667 1.672-1.701 0.642-0.018 1.284-0.022 1.926 0.003 1.091 0.043 1.554 0.502 1.576 1.581 0.021 1.033 0.004 2.066 0.004 3.265 0.313-0.205 0.544-0.325 0.737-0.488 1.741-1.476 3.467-2.968 5.214-4.436 1.251-1.051 2.318-1.052 3.537-0.012 5.884 5.025 11.767 10.053 17.643 15.088 1.238 1.061 1.424 2.185 0.589 3.251-0.889 1.134-2.273 1.24-3.475 0.249-4.73-3.903-9.456-7.812-14.184-11.718-0.741-0.611-1.491-1.214-2.333-1.899z"></path>
<path d="M14.869 22.56c0.391-0.386 0.779-0.777 1.166-1.166-0.387 0.39-0.779 0.78-1.17 1.166-0.114 0.113-0.23 0.17-0.346 0.171 0.117 0 0.234-0.056 0.35-0.171z"></path>
<path d="M13.804 18.132c-0.005-0.020-0.005-0.032-0.012-0.039-0.299-0.33-0.296-0.508 0.018-0.821 0.221-0.221 0.441-0.442 0.662-0.663 0.17-0.169 0.294-0.255 0.422-0.258-0.128 0.003-0.253 0.089-0.422 0.258-0.221 0.22-0.442 0.441-0.663 0.663-0.313 0.313-0.318 0.491-0.018 0.821 0.006 0.007 0.005 0.018 0.010 0.039-0.035 0.038-0.078 0.080-0.118 0.121-0.494 0.494-0.997 0.985-1.486 1.483 0.489-0.497 0.999-0.989 1.492-1.483 0.041-0.041 0.080-0.083 0.116-0.121z"></path>
<path d="M15.368 16.57c0.225-0.268 0.527-0.366 0.862-0.417 0.982-0.149 1.962-0.306 2.942-0.47-0.98 0.164-1.96 0.322-2.942 0.47-0.335 0.051-0.637 0.149-0.862 0.417-0.008 0.010-0.025 0.013-0.035 0.018v0c0.010-0.005 0.027-0.008 0.036-0.018z"></path>
<path d="M16.155 26.935c-0.34-0.013-0.625 0.251-0.639 0.589-0.013 0.336 0.255 0.624 0.593 0.636 0.341 0.012 0.625-0.251 0.639-0.589 0.014-0.336-0.254-0.624-0.593-0.636z"></path>
<path d="M34.049 18.071c-0.858-0.569-1.615-1.288-2.417-1.942-3.674-2.991-7.348-5.982-11.015-8.968-0.144 0.077-0.247 0.114-0.327 0.178-4.554 3.667-9.113 7.328-13.639 11.030-0.267 0.218-0.441 0.802-0.366 1.151 0.845 3.895 1.767 7.774 2.617 11.668 0.151 0.688 0.399 0.932 1.115 0.929 6.813-0.025 13.624-0.028 20.436 0.004 0.732 0.003 0.976-0.281 1.14-0.916 0.985-3.788 1.98-7.573 3.019-11.346 0.215-0.777 0.174-1.298-0.562-1.787zM14.167 22.56c-0.685-0.681-1.516-1.368-2.198-2.054-0.065-0.066-0.317-0.152-0.317-0.228 0-0.074 0-0.148 0-0.222 0.681-0.108 0.309-0.225 0.403-0.321 0.49-0.497 1.063-0.989 1.555-1.483 0.041-0.041 0.118-0.082 0.154-0.121-0.005-0.020 0.013-0.032 0.007-0.039-0.299-0.33-0.286-0.508 0.027-0.821 0.221-0.221 0.447-0.442 0.668-0.663 0.169-0.169 0.296-0.255 0.424-0.258 0.129-0.004 0.26 0.075 0.44 0.236 0.011-0.005 0.028-0.008 0.035-0.018 0.226-0.268 0.529-0.366 0.862-0.417 0.982-0.149 1.963-0.306 2.942-0.47 0.407-0.069 0.753 0.017 1.036 0.326 0.078 0.086 0.166 0.164 0.247 0.247 0.24 0.243 0.242 0.477 0.001 0.719-0.631 0.633-1.263 1.264-1.896 1.895-0.041 0.041-0.093 0.070-0.159 0.12 0.597 0.59 1.168 1.153 1.729 1.705-0.745 0.744-1.473 1.471-2.215 2.213-0.549-0.554-1.113-1.125-1.713-1.731-0.062 0.082-0.106 0.156-0.165 0.216-0.387 0.39-0.775 0.78-1.166 1.166-0.114 0.115-0.233 0.171-0.35 0.171-0.119 0.001-0.237-0.055-0.353-0.17zM26.214 28.017c-0.26 0.854-1.311 1.32-2.109 0.92-0.172-0.087-0.341-0.198-0.478-0.331-0.937-0.924-1.866-1.859-2.797-2.79-0.018-0.018-0.035-0.039-0.052-0.058 0.736-0.735 1.461-1.461 2.196-2.196 0.020 0.016 0.057 0.045 0.087 0.077 0.912 0.912 1.828 1.821 2.737 2.737 0.459 0.463 0.608 1.009 0.415 1.642zM28.026 19.714c-0.272 0.446-0.552 0.893-0.945 1.247-0.517 0.467-1.146 0.632-1.827 0.648-0.332 0.009-0.665 0.036-0.998 0.047-0.129 0.005-0.223 0.050-0.315 0.144-2.257 2.262-4.516 4.519-6.774 6.778-0.309 0.308-0.664 0.503-0.952 0.5-0.742-0.002-1.272-0.357-1.499-0.899-0.232-0.552-0.1-1.162 0.362-1.629 0.809-0.814 1.622-1.623 2.433-2.435 1.462-1.462 2.924-2.925 4.389-4.385 0.084-0.084 0.121-0.168 0.127-0.289 0.022-0.48 0.044-0.961 0.089-1.44 0.062-0.674 0.358-1.241 0.887-1.659 0.362-0.286 0.745-0.57 1.161-0.76 0.538-0.245 1.056-0.093 1.494 0.301 0.155 0.14 0.146 0.319-0.019 0.486-0.356 0.362-0.717 0.719-1.076 1.078-0.042 0.042-0.083 0.081-0.121 0.125-0.192 0.222-0.206 0.522-0.004 0.735 0.304 0.324 0.618 0.639 0.943 0.943 0.231 0.215 0.538 0.185 0.779-0.055 0.369-0.363 0.734-0.732 1.101-1.098 0.252-0.253 0.397-0.245 0.625 0.028 0.366 0.437 0.436 1.102 0.14 1.588z"></path>
<path d="M15.332 16.588c-0.18-0.161-0.311-0.24-0.439-0.236 0.128-0.003 0.259 0.076 0.439 0.236v0z"></path>
<path d="M12.11 20.506c0.682 0.686 1.372 1.373 2.058 2.054 0.115 0.115 0.234 0.172 0.352 0.171-0.116-0.001-0.231-0.058-0.345-0.171-0.686-0.681-1.383-1.368-2.065-2.054z"></path>
</svg>
