<!-- Generated by IcoMoon.io -->
<svg version="1.1" xmlns="http://www.w3.org/2000/svg" width="262" height="32" viewBox="0 0 262 32">
<title>klikophetplusje</title>
<path d="M1.291 1.776h0.072c0.094 0 0.335 0.050 0.718 0.144 0.357-0.094 0.599-0.144 0.718-0.144 0.429 0.097 0.743 0.144 0.931 0.144 0.191 0 0.504-0.047 0.934-0.144l0.646 0.072c0.324-0.047 0.587-0.072 0.793-0.072l0.144 0.216-0.36 0.934c0.047 0.526 0.072 0.981 0.072 1.363v1.291c0 0.072-0.050 0.454-0.144 1.147v1.868c0 0.335 0.050 0.599 0.144 0.79-0.097 0.382-0.144 0.837-0.144 1.363v0.144c0 0.169 0.050 0.574 0.144 1.216-0.144 0.565-0.216 1.449-0.216 2.66v1.433h0.072c0.097 0 0.191-0.188 0.288-0.574-0.050-0.405-0.072-0.74-0.072-1.003v-0.934c0.646-1.627 1.147-2.536 1.507-2.727 0.191-0.635 1.028-2.164 2.511-4.592 0-0.158 0.405-0.873 1.219-2.153l0.862-1.507-0.072-0.36v-0.072c0-0.335 0.144-0.504 0.43-0.504 0.119 0 0.31 0.025 0.576 0.072 0.263-0.047 0.454-0.072 0.574-0.072l0.502 0.144c0.18-0.094 0.371-0.144 0.576-0.144h3.231c0.094 0.014 0.144 0.061 0.144 0.144v0.216c0 0.058-0.43 0.538-1.291 1.435-0.219 0.551-1.322 2.513-3.306 5.886-0.527 1.017-0.931 1.735-1.219 2.153-0.299 0.454-0.61 1.053-0.931 1.793-0.241 0.252-0.36 0.49-0.36 0.718v0.072c0.765 1.768 1.147 2.749 1.147 2.943 0.527 0.909 0.812 1.602 0.862 2.078 0.621 1.147 0.931 1.796 0.931 1.937 0.252 0.887 0.635 1.771 1.15 2.657 1.291 3.173 2.034 4.894 2.225 5.168 0.097 0 0.335 0.288 0.718 0.862 0.144 0.050 0.216 0.188 0.216 0.427v0.075c0 0.091-0.047 0.141-0.144 0.141h-0.648l-0.43-0.069c-0.047 0-0.072 0.022-0.072 0.069-0.563-0.050-0.97-0.069-1.219-0.069h-1.865c-0.249 0-0.657 0.022-1.219 0.069l-0.219-0.285v-0.712c0-0.385-0.216-0.937-0.646-1.652 0-0.158-0.335-0.948-1.006-2.369l-1.072-2.513-1.579-3.805c-0.169-0.047-0.263-0.069-0.288-0.069-0.155 0.635-0.277 0.989-0.36 1.078-0.369 0.773-0.873 1.638-1.505 2.58-0.097 0.188-0.144 0.454-0.144 0.79v0.72c0.094 0.812 0.144 1.266 0.144 1.363v2.799c0 0.585 0.119 1.158 0.357 1.721v0.141c0 0.075-0.097 0.147-0.288 0.216-0.418-0.050-0.682-0.069-0.79-0.069-0.216 0-0.357 0.022-0.429 0.069-0.407-0.050-0.743-0.069-1.006-0.069h-1.289c-0.252 0-0.659 0.022-1.219 0.069l-0.216-0.288c0-0.141 0.166-0.643 0.502-1.505-0.047-0.504-0.072-0.79-0.072-0.862 0.097-0.432 0.144-0.743 0.144-0.937v-2.799c0-0.249-0.025-0.466-0.072-0.643 0.047-0.255 0.072-0.493 0.072-0.72v-3.298c-0.097-0.693-0.144-1.078-0.144-1.147 0-0.022 0.047-0.385 0.144-1.078v-1.579c0-1.948-0.047-3.358-0.144-4.234 0.097-0.188 0.144-0.454 0.144-0.787v-2.657c-0.097-0.693-0.144-1.078-0.144-1.147v-1.219c0.097-0.696 0.144-1.081 0.144-1.15v-1.294c0-0.202-0.191-0.538-0.574-1.003v-0.144c0-0.072 0.072-0.144 0.213-0.216zM2.297 2.71l0.072 0.36h0.069l0.072-0.288-0.144-0.072h-0.069zM2.585 22.95l0.072 0.357c-0.144 0.324-0.219 0.585-0.219 0.79v0.147c0.014 0.091 0.061 0.141 0.147 0.141 0-0.050 0.094-0.188 0.288-0.427v-0.147l0.429-3.372-0.072-0.432 0.072-0.643-0.072-0.435c-0.338 0.266-0.551 1.602-0.646 4.021zM2.513 24.817l-0.075 0.357c0.014 0.097 0.061 0.141 0.147 0.141l0.072-0.141-0.072-0.357h-0.072zM2.727 26.61l0.072 0.285-0.072 1.006c0.047 0.266 0.072 0.454 0.072 0.574h0.072v-1.865h-0.144zM2.799 28.833v0.72h0.072v-0.72h-0.072zM3.231 9.53l-0.072 0.357c0.047 0.696 0.072 1.078 0.072 1.15h0.072l0.072-0.36v-1.147h-0.144zM3.444 12.544l-0.072 0.502v0.574c0 0.050-0.025 0.072-0.072 0.072 0.144 0.382 0.216 0.693 0.216 0.934h0.072c0.097 0 0.144-0.050 0.144-0.144v-1.793c0-0.097-0.047-0.144-0.144-0.144h-0.144zM3.516 25.46v1.868h0.072c0-1.341 0.169-2.015 0.502-2.015-0.047-0.571-0.072-1-0.072-1.286 0-0.169 0.119-0.385 0.36-0.648 0-0.249-0.025-0.654-0.072-1.216-0.083-0.003-0.346 1.097-0.79 3.298zM3.516 28.98v0.288c0.011 0.097 0.058 0.141 0.144 0.141v-0.069l-0.072-0.357h-0.072zM3.874 15.914v3.447h0.072c0.050-0.563 0.072-0.967 0.072-1.222v-2.225h-0.144zM4.234 27.328v1.216h0.144v-0.502l-0.072-0.715h-0.072zM4.666 10.103l-0.072 0.357c0.047 0.083 0.072 0.18 0.072 0.288h0.072v-0.646h-0.072zM4.808 6.154c0 0.072 0.022 0.36 0.072 0.862 0 0.349-0.050 1.092-0.144 2.228 0.119 0 0.216-0.191 0.288-0.576v-2.009c0-0.241 0.097-0.504 0.288-0.79 0.047-1.172 0.072-2.106 0.072-2.799v-0.072l-0.072-0.502c-0.13 0-0.249 0.981-0.357 2.943-0.061-0.003-0.111 0.236-0.147 0.715zM6.889 14.481v0.069h0.072l0.216-0.79c-0.133 0-0.227 0.241-0.288 0.72zM7.823 15.055l-0.718 1.865 0.144 0.069c0.108-0.069 0.299-0.427 0.576-1.078h0.216c0.144 0 0.216 0.169 0.216 0.504h0.072v-0.571c-0.006-0.288-0.172-0.551-0.507-0.79zM7.537 12.902h0.216l0.288-0.213c-0.097-0.36-0.144-0.696-0.144-1.006h-0.075c-0.133-0.003-0.227 0.407-0.285 1.219zM11.555 9.674v0.213h0.072v-0.213h-0.072zM14.354 3.284c0 0.216-0.097 0.454-0.288 0.72v1.507c0.097 0.693 0.144 1.075 0.144 1.147 0.094 0 0.144-0.050 0.144-0.144v-0.79c0-0.108 0.072-0.418 0.216-0.934-0.097-0.477-0.144-0.787-0.144-0.931 0.047-0.266 0.072-0.454 0.072-0.576h-0.144zM14.21 23.881v0.216h0.072v-0.216h-0.072zM14.426 27.974v0.862c0.094 0 0.144-0.050 0.144-0.141v-0.72h-0.144z"></path>
<path d="M19.165 1.776h0.288c0.704 0 1.374 0.025 2.009 0.072 0.321-0.047 0.585-0.072 0.787-0.072 0.094 0 0.263 0.050 0.502 0.144 0.108-0.047 0.324-0.094 0.646-0.144 0.671 0.039 1.006 0.108 1.006 0.216v0.216c-0.238 0.263-0.357 0.599-0.357 1.006-0.050 0-0.144 0.094-0.288 0.288 0 0.094 0.025 0.144 0.072 0.144l-0.072 0.856v1.652c0 0.468 0.025 0.707 0.072 0.718-0.047 0.407-0.072 0.745-0.072 1.006v4.736c0 0.599 0.025 1.338 0.072 2.225-0.050 0.083-0.072 0.205-0.072 0.36 0.036 0.38 0.083 0.576 0.144 0.576l-0.072 0.643c0 1.186-0.025 2.117-0.072 2.799 0.047 1.244 0.072 2.677 0.072 4.306v0.141c0 0.41-0.025 1.006-0.072 1.796 0.587 0.524 0.923 0.79 1.006 0.79 0.31-0.097 0.526-0.147 0.646-0.147h5.814c0.202 0 0.466 0.028 0.79 0.075 0.693-0.288 1.078-0.432 1.15-0.432h0.429c0.072 0 0.144 0.097 0.216 0.288-0.133 0.108-0.252 0.87-0.36 2.294-0.047 0-0.119 0.504-0.216 1.51v0.288c0 0.158-0.238 0.277-0.718 0.357-0.671-0.050-1.244-0.069-1.724-0.069h-1.865c-0.299 0-0.66 0.022-1.078 0.069l-0.43-0.069c-0.599 0.050-0.959 0.069-1.078 0.069l-1.579-0.141c-0.18 0.091-0.371 0.141-0.574 0.141-0.144 0-0.216-0.022-0.216-0.069-0.097 0-0.144 0.022-0.144 0.069-0.887-0.050-1.532-0.069-1.94-0.069h-1.358c-0.31 0-0.79 0.022-1.435 0.069l-0.072-0.141v-0.147c0-0.188 0.144-0.454 0.43-0.79l-0.072-0.141c0-0.069 0.072-0.335 0.216-0.79-0.047-0.801-0.072-1.422-0.072-1.865 0-0.249 0.025-0.654 0.072-1.216l-0.216-1.435c0.097-0.454 0.144-0.817 0.144-1.078v-3.378c-0.097-0.812-0.144-1.266-0.144-1.363v-0.427l0.216-2.009-0.216-1.078c0.097-0.454 0.144-0.815 0.144-1.078v-5.811c0-0.227-0.047-0.612-0.144-1.15 0-0.238 0.022-0.524 0.072-0.862-0.050-0.504-0.072-1.053-0.072-1.652v-0.429c0-0.050 0.022-0.072 0.072-0.072l-0.43-1.435v-0.216c0.011-0.094 0.058-0.144 0.144-0.144zM20.669 15.485c-0.191 1.1-0.288 1.773-0.288 2.009l0.072 0.643c-0.141 0.576-0.213 0.986-0.213 1.225v0.216l0.072 0.499h0.072c0.191-0.682 0.335-1.327 0.432-1.937 0-0.103-0.025-0.369-0.072-0.784 0.047-0.529 0.072-0.984 0.072-1.363l-0.075-0.507h-0.072zM20.528 23.958c-0.191 2.56-0.288 4.331-0.288 5.309v0.216h0.216v-0.432c0-0.288 0.072-0.881 0.216-1.79v-2.087c0-0.205-0.025-0.466-0.072-0.79 0.047-0.097 0.072-0.169 0.072-0.216-0.050-0.094-0.072-0.169-0.072-0.211h-0.072zM21.246 22.881c0 0.13-0.169 0.296-0.502 0.499v0.075c0.274 0.050 0.466 0.069 0.574 0.069 0-0.097 0.025-0.147 0.072-0.147-0.047-0.058-0.072-0.227-0.072-0.499h-0.072zM20.957 4.791v0.934c0 0.227 0.022 0.466 0.072 0.718l-0.072 0.36 0.072 0.504c0 0.105-0.025 0.202-0.072 0.288 0.047 0.488 0.072 0.867 0.072 1.144v0.36c0 0.202-0.025 0.466-0.072 0.787 0.047 0.083 0.072 0.18 0.072 0.288l-0.072 0.36c0.047 0.224 0.072 0.56 0.072 1.003h0.072c0.238-0.787 0.357-1.482 0.357-2.081v-0.862c0-0.479 0.025-1.053 0.072-1.724-0.047-0.080-0.072-0.177-0.072-0.288 0-0.047 0.097-0.357 0.288-0.931l-0.718-0.79v-0.072h-0.072zM22.033 18.214c-0.43 1.458-0.646 2.294-0.646 2.511-0.094 0.011-0.141 0.061-0.141 0.141 0.047 0.909 0.072 1.532 0.072 1.868h0.072c0-0.249 0.238-1.521 0.718-3.805v-0.715h-0.075zM21.675 12.184l-0.288 2.366v0.219l0.072 0.718h0.072c0.191-0.094 0.288-0.238 0.288-0.43 0-0.216-0.022-0.36-0.072-0.43 0.047-0.41 0.072-0.745 0.072-1.009v-0.502l-0.072-0.43c0.050-0.083 0.072-0.18 0.072-0.288-0.050-0.097-0.072-0.166-0.072-0.216h-0.072zM22.033 16.92v1.078c0.014 0.097 0.061 0.141 0.144 0.141v-1.363c-0.094 0.017-0.144 0.064-0.144 0.144zM22.537 2.71v1.219c0 0.072-0.050 0.646-0.144 1.724l0.072 0.502h0.072c0-0.837 0.094-1.602 0.288-2.294 0.047-0.599 0.072-0.959 0.072-1.078l-0.147-0.072h-0.213zM22.75 15.055v0.357h0.144v-0.213c0-0.094-0.047-0.144-0.144-0.144zM24.188 27.832c0.108-0.086 0.371-0.396 0.79-0.937-0.039-0.141-0.133-0.238-0.288-0.285-0.313 0-0.479 0.405-0.502 1.222zM25.047 29.121c0 0.119 0.047 0.385 0.144 0.79h0.216l0.144-0.504v-0.211c0-0.255-0.072-0.396-0.216-0.432-0.191 0.047-0.288 0.166-0.288 0.357z"></path>
<path d="M37.52 1.707c0.563 0.050 0.97 0.069 1.219 0.069l0.504-0.069c0.216 0.094 0.335 0.191 0.357 0.288-0.382 0.504-0.599 0.981-0.646 1.435 0.097 0.432 0.144 0.671 0.144 0.72-0.047 0.87-0.072 1.424-0.072 1.652 0 0.036 0.025 0.227 0.072 0.574-0.094 0.191-0.144 0.454-0.144 0.787v0.069c0.097 0.693 0.144 1.078 0.144 1.147v1.724l-0.144 1.291c0.097 0.815 0.144 1.363 0.144 1.652 0 0.266-0.047 0.623-0.144 1.078 0 0.119 0.025 0.31 0.072 0.574l-0.072 0.646 0.072 1.147-0.072 0.648 0.144 0.427c0 0.050-0.022 0.119-0.072 0.216 0.050 0.493 0.072 0.87 0.072 1.147 0 0.244-0.047 0.529-0.144 0.862 0.097 0.335 0.144 0.623 0.144 0.867v0.715c-0.094 0.812-0.144 1.266-0.144 1.363v0.504c0.097 0.693 0.144 1.050 0.144 1.078 0 0.119-0.047 0.357-0.144 0.715 0.144 0.313 0.216 0.529 0.216 0.648v0.069c-0.238 0.288-0.36 0.454-0.36 0.504l0.288 2.657 0.504 1.216v0.141c0 0.075-0.072 0.147-0.216 0.216h-0.288c-0.119 0-0.335-0.050-0.646-0.141-0.18 0.091-0.371 0.141-0.574 0.141h-0.216c-0.169 0-0.36-0.091-0.576-0.288-0.177 0.147-0.321 0.216-0.429 0.216-0.047 0-0.191-0.097-0.429-0.288-0.108 0.238-0.346 0.357-0.718 0.357h-0.931c-0.072 0-0.144-0.069-0.216-0.216v-0.069c0.335-1.386 0.502-2.175 0.502-2.366-0.047-2.907-0.072-5.229-0.072-6.966 0-0.152-0.050-0.515-0.144-1.078 0.144-0.635 0.216-1.663 0.216-3.084 0-0.119-0.025-0.477-0.072-1.078 0.097-1.1 0.144-1.793 0.144-2.078-0.097-0.405-0.169-0.862-0.216-1.363 0.097-0.776 0.144-1.28 0.144-1.507 0-0.094-0.025-0.144-0.072-0.144l0.072-0.504v-1.862c0-0.549-0.025-1.053-0.072-1.507 0.047-0.252 0.072-0.707 0.072-1.363v-0.793c0-0.155-0.025-0.274-0.072-0.357l0.072-0.432v-1.072l-0.504-0.504v-0.072c0-0.069 0.094-0.166 0.288-0.288h1.724c0.155 0 0.324 0.072 0.502 0.216h0.072c0.152-0.119 0.346-0.216 0.574-0.285zM35.652 22.803v0.075l0.072 1.147c0 0.050-0.022 0.119-0.072 0.216 0 0.103 0.119 0.801 0.36 2.078v1.147c0 0.277-0.025 0.66-0.072 1.147l0.288 1.078h0.072l0.216-0.141h0.144c0.036 0 0.18 0.141 0.429 0.427h0.072c0-0.119 0.025-0.308 0.072-0.574 0-0.152-0.216-0.346-0.646-0.574-0.144-0.177-0.216-0.396-0.216-0.643v-1.222c0-0.834-0.216-2.225-0.646-4.162h-0.075zM35.868 14.77c0 0.108 0.022 0.202 0.072 0.288-0.050 0.405-0.072 0.718-0.072 0.934 0.094 0.227 0.238 1.444 0.429 3.658v0.574c0 0.108 0.094 0.346 0.288 0.72h0.072v-1.726c0-0.396 0.097-0.851 0.288-1.363 0-0.169-0.216-0.477-0.646-0.931l-0.216-1.435c0.047-0.083 0.072-0.177 0.072-0.288-0.003-0.191-0.097-0.335-0.288-0.43zM36.154 6.371v0.144h0.072v-0.144h-0.072zM36.154 7.878v0.357h0.072v-0.357h-0.072zM36.154 9.169v0.144h0.072v-0.144h-0.072zM36.226 9.674v0.069c0.238 1.446 0.405 2.644 0.502 3.588 0.072 0.133 0.169 0.612 0.288 1.438h0.144v-2.729l-0.79-1.649c0-0.31-0.025-0.549-0.072-0.718h-0.072zM36.799 2.854v0.646h0.072l0.072-0.36v-0.285h-0.144zM36.799 5.941v0.144h0.072v-0.144h-0.072zM36.799 6.443c0 1.724 0.119 2.585 0.357 2.585v-1.51c-0.144-0.646-0.216-1.003-0.216-1.078h-0.141zM37.805 18.355v0.72c-0.144 0.623-0.216 0.959-0.216 1v5.099c0 0.141 0.072 0.432 0.216 0.862h0.072c0.094 0 0.144-0.050 0.144-0.141v-0.216c0-0.169-0.025-0.385-0.072-0.648 0.238-0.38 0.382-0.693 0.429-0.931l-0.144-0.288-0.144 0.069-0.144-0.069 0.072-0.72v-0.288c0-0.515-0.072-1.305-0.216-2.366 0.094-0.136 0.216-0.779 0.357-1.937v-0.075l-0.072-0.357c-0.066 0.003-0.163 0.1-0.283 0.288zM37.733 3.428v0.432c0.144 0.524 0.31 1.41 0.502 2.655h0.144c0-2.056-0.144-3.087-0.429-3.087h-0.216zM38.094 8.022v1.078h0.072c0.144-0.039 0.216-0.227 0.216-0.576l-0.072-0.643h-0.072c-0.097 0.008-0.144 0.058-0.144 0.141zM38.163 17.139l-0.072 0.357v0.288h0.072c0.047-0.335 0.097-0.551 0.144-0.643h-0.144z"></path>
<path d="M41.984 1.776h0.072c0.094 0 0.335 0.050 0.718 0.144 0.357-0.094 0.599-0.144 0.718-0.144 0.429 0.097 0.743 0.144 0.931 0.144 0.191 0 0.504-0.047 0.934-0.144l0.646 0.072c0.324-0.050 0.585-0.072 0.79-0.072l0.144 0.216-0.357 0.934c0.047 0.524 0.072 0.981 0.072 1.363v1.291c0 0.072-0.050 0.454-0.144 1.147v1.868c0 0.335 0.050 0.599 0.144 0.79-0.097 0.382-0.144 0.837-0.144 1.363v0.144c0 0.169 0.050 0.574 0.144 1.216-0.144 0.563-0.216 1.446-0.216 2.657v1.433h0.072c0.097 0 0.191-0.188 0.288-0.574-0.050-0.405-0.072-0.74-0.072-1.003v-0.931c0.646-1.627 1.147-2.535 1.507-2.727 0.191-0.635 1.028-2.164 2.511-4.592 0-0.158 0.405-0.873 1.219-2.153l0.862-1.507-0.072-0.357v-0.075c0-0.335 0.144-0.504 0.429-0.504 0.119 0 0.31 0.025 0.576 0.072 0.263-0.050 0.454-0.072 0.574-0.072l0.502 0.144c0.18-0.094 0.371-0.144 0.576-0.144h3.231c0.094 0.014 0.144 0.061 0.144 0.144v0.216c0 0.058-0.429 0.538-1.291 1.435-0.216 0.551-1.316 2.513-3.3 5.886-0.526 1.017-0.931 1.735-1.219 2.153-0.299 0.454-0.61 1.053-0.931 1.793-0.238 0.252-0.357 0.49-0.357 0.718v0.072c0.765 1.768 1.147 2.749 1.147 2.943 0.526 0.909 0.812 1.602 0.862 2.078 0.621 1.147 0.931 1.796 0.931 1.937 0.252 0.887 0.635 1.771 1.15 2.657 1.291 3.173 2.034 4.894 2.225 5.168 0.097 0 0.335 0.288 0.718 0.862 0.144 0.050 0.216 0.188 0.216 0.427v0.075c0 0.091-0.047 0.141-0.144 0.141h-0.646l-0.429-0.069c-0.047 0-0.072 0.022-0.072 0.069-0.563-0.050-0.97-0.069-1.219-0.069h-1.865c-0.249 0-0.657 0.022-1.219 0.069l-0.216-0.288v-0.709c0-0.385-0.216-0.937-0.646-1.652 0-0.158-0.335-0.948-1.006-2.369l-1.075-2.511-1.58-3.805c-0.169-0.050-0.263-0.069-0.288-0.069-0.155 0.635-0.277 0.989-0.36 1.078-0.371 0.773-0.873 1.64-1.505 2.583-0.097 0.188-0.144 0.454-0.144 0.79v0.72c0.097 0.812 0.144 1.266 0.144 1.363v2.799c0 0.585 0.119 1.158 0.357 1.721v0.141c0 0.075-0.097 0.147-0.288 0.216-0.418-0.050-0.682-0.069-0.79-0.069-0.216 0-0.357 0.022-0.429 0.069-0.407-0.050-0.743-0.069-1.006-0.069h-1.291c-0.252 0-0.66 0.022-1.219 0.069l-0.216-0.288c0-0.141 0.166-0.643 0.502-1.505-0.047-0.504-0.072-0.79-0.072-0.862 0.097-0.432 0.144-0.743 0.144-0.937v-2.799c0-0.249-0.025-0.466-0.072-0.643 0.047-0.255 0.072-0.493 0.072-0.72v-3.303c-0.097-0.693-0.144-1.078-0.144-1.147 0-0.022 0.047-0.385 0.144-1.078v-1.579c0-1.948-0.047-3.358-0.144-4.234 0.097-0.188 0.144-0.454 0.144-0.787v-2.657c-0.097-0.693-0.144-1.078-0.144-1.147v-1.219c0.097-0.693 0.144-1.078 0.144-1.147v-1.297c0-0.202-0.191-0.538-0.574-1.003v-0.144c-0.008-0.072 0.064-0.144 0.205-0.216zM42.99 2.71l0.072 0.36h0.072l0.072-0.288-0.144-0.072h-0.072zM43.278 22.95l0.072 0.357c-0.144 0.324-0.216 0.585-0.216 0.79v0.147c0.011 0.091 0.058 0.141 0.144 0.141 0-0.050 0.094-0.188 0.288-0.427v-0.147l0.429-3.372-0.072-0.432 0.072-0.643-0.072-0.432c-0.338 0.263-0.551 1.599-0.646 4.018zM43.206 24.817l-0.072 0.357c0.011 0.097 0.061 0.141 0.144 0.141l0.072-0.141-0.072-0.357h-0.072zM43.419 26.61l0.072 0.288-0.072 1.006c0.047 0.266 0.072 0.454 0.072 0.574h0.072v-1.868h-0.144zM43.492 28.833v0.72h0.072v-0.72h-0.072zM43.924 9.53l-0.072 0.357c0.047 0.696 0.072 1.078 0.072 1.15h0.072l0.072-0.36v-1.147h-0.144zM44.137 12.544l-0.072 0.502v0.574c0 0.050-0.025 0.072-0.072 0.072 0.144 0.382 0.216 0.693 0.216 0.934h0.072c0.097 0 0.144-0.050 0.144-0.144v-1.793c0-0.097-0.047-0.144-0.144-0.144h-0.144zM44.209 25.46v1.868h0.072c0-1.341 0.169-2.015 0.502-2.015-0.047-0.574-0.072-1-0.072-1.289 0-0.169 0.119-0.385 0.36-0.648 0-0.249-0.025-0.654-0.072-1.216-0.083 0-0.346 1.1-0.79 3.3zM44.209 28.98v0.288c0.011 0.097 0.058 0.141 0.144 0.141v-0.069l-0.072-0.357h-0.072zM44.567 15.914v3.447h0.072c0.050-0.563 0.072-0.97 0.072-1.222v-2.225h-0.144zM44.927 27.328v1.216h0.144v-0.502l-0.072-0.715h-0.072zM45.359 10.103l-0.072 0.357c0.047 0.083 0.072 0.18 0.072 0.288h0.072v-0.646h-0.072zM45.501 6.154c0 0.072 0.022 0.36 0.072 0.862 0 0.349-0.050 1.092-0.144 2.228 0.119 0 0.216-0.191 0.288-0.576v-2.009c0-0.241 0.097-0.504 0.288-0.79 0.047-1.172 0.072-2.106 0.072-2.799v-0.072l-0.072-0.502c-0.13 0-0.249 0.981-0.357 2.943-0.061-0.003-0.111 0.236-0.147 0.715zM47.582 14.481v0.069h0.072l0.216-0.79c-0.13 0-0.227 0.241-0.288 0.72zM48.515 15.055l-0.718 1.865 0.144 0.069c0.108-0.069 0.299-0.427 0.576-1.078h0.216c0.144 0 0.216 0.169 0.216 0.504h0.072v-0.571c-0.006-0.288-0.172-0.551-0.507-0.79zM48.23 12.902h0.216l0.288-0.213c-0.097-0.36-0.144-0.696-0.144-1.006h-0.072c-0.136-0.003-0.23 0.407-0.288 1.219zM52.248 9.674v0.213h0.072v-0.213h-0.072zM55.047 3.284c0 0.216-0.097 0.454-0.288 0.72v1.507c0.097 0.693 0.144 1.075 0.144 1.147 0.094 0 0.144-0.050 0.144-0.144v-0.79c0-0.108 0.072-0.418 0.216-0.934-0.097-0.477-0.144-0.787-0.144-0.931 0.047-0.266 0.072-0.454 0.072-0.576h-0.144zM54.903 23.881v0.216h0.072v-0.216h-0.072zM55.119 27.974v0.862c0.094 0 0.144-0.050 0.144-0.141v-0.72h-0.144z"></path>
<path d="M71.698 1.848h0.79c0.108 0 0.202 0.025 0.288 0.069 0.083-0.047 0.18-0.069 0.288-0.069l0.502 0.069 0.36-0.069c0.191 0.094 0.335 0.144 0.43 0.144 0.18-0.094 0.396-0.144 0.646-0.144l1.507 0.36h1.078c0.502-0.147 1.053-0.266 1.652-0.36l0.502 0.069 0.288-0.069c0.191 0.050 0.36 0.069 0.504 0.069l0.288-0.069c0.169 0 0.743 0.504 1.724 1.507 0.263 0.288 0.502 0.599 0.718 0.934 0 0.094-0.025 0.144-0.072 0.144 0.047 0.643 0.072 1.122 0.072 1.435 0 0.169-0.047 1.893-0.144 5.168v1.291c0.097 0.815 0.144 1.269 0.144 1.363v4.021c0 0.335-0.047 0.596-0.144 0.79 0.097 0.546 0.144 1.216 0.144 2.009v3.588c-0.097 0.693-0.144 1.078-0.144 1.147v1.435c0 0.313 0.025 0.79 0.072 1.441-0.216 0.369-0.79 0.989-1.724 1.862-0.238 0.335-0.502 0.504-0.79 0.504l-0.357-0.069-0.144 0.069-0.43-0.069h-0.144c-0.108 0-0.202 0.022-0.288 0.069-0.083-0.050-0.202-0.069-0.357-0.069s-0.277 0.022-0.357 0.069c-0.263-0.050-0.479-0.069-0.646-0.069h-1.15l-0.43 0.069c-0.108-0.050-0.418-0.091-0.931-0.141-0.407 0.091-0.671 0.141-0.79 0.141-0.263 0-0.526-0.022-0.79-0.069-0.551 0.050-1.078 0.069-1.579 0.069h-0.576c-0.515 0-0.92-0.26-1.219-0.79-0.216 0-0.646-0.427-1.291-1.289-0.036 0-0.108-0.119-0.216-0.363l0.072-0.862v-1.654c-0.097-1.543-0.144-2.38-0.144-2.511v-4.666c0-0.369 0.022-0.704 0.072-1-0.050-0.244-0.072-0.551-0.072-0.937v-1.435c0.094-0.812 0.144-1.266 0.144-1.363v-2.513c-0.144-0.454-0.216-0.812-0.216-1.078 0-1.829 0.072-3.694 0.216-5.598v-0.283c0-0.299 0.263-0.587 0.79-0.865 0.576-0.956 1.2-1.435 1.857-1.435zM70.479 19.433v0.147h0.072v-0.147h-0.072zM70.836 3.428c0.097 0.396 0.144 0.66 0.144 0.79h0.144c0-0.069-0.025-0.405-0.072-1.003 0.047-0.097 0.072-0.169 0.072-0.216h-0.072c-0.144 0.047-0.216 0.191-0.216 0.429zM71.052 10.965v0.285c0.011 0.097 0.058 0.144 0.144 0.144h0.072l-0.072-0.429h-0.144zM71.554 18.788v0.141l0.072 0.363h0.072v-0.504h-0.144zM71.554 19.935v0.216c0.011 0.091 0.058 0.141 0.144 0.141h0.072v-0.141l-0.072-0.363c-0.094 0.017-0.144 0.061-0.144 0.147zM71.842 8.091l-0.216 0.288 0.144 0.504c0.144 0 0.216-0.238 0.216-0.718l-0.144-0.075zM71.914 23.166c-0.047 0.26-0.072 0.454-0.072 0.574 0.050 0.091 0.072 0.169 0.072 0.216h0.144c0-0.194 0.022-0.291 0.072-0.291-0.097-0.238-0.144-0.405-0.144-0.499h-0.072zM71.914 24.817c0.050 0.405 0.072 0.715 0.072 0.931h0.072c0-0.080 0.047-0.277 0.144-0.574-0.097-0.158-0.144-0.277-0.144-0.357h-0.144zM71.986 26.037v0.643h0.072v-0.643h-0.072zM76.578 5.941h-0.646c-0.693 0.094-1.078 0.144-1.15 0.144h-0.144c-0.047 0-0.238-0.050-0.574-0.144l-0.355 0.069v0.36c0 0.895-0.097 1.566-0.288 2.009l-0.144 14.57h-0.072l0.072 0.141v0.574c0 0.050-0.025 0.075-0.072 0.075l0.072 0.141v1.294c0 0.050-0.025 0.069-0.072 0.069 0.155 0.524 0.443 0.79 0.862 0.79l0.288 0.288-0.072 0.357c0.144 0.454 0.288 1.153 0.43 2.084 0.202 0 0.418 0.357 0.646 1.078h0.072c0.43 0 0.646-0.147 0.646-0.432l-0.072-1c0.097-0.158 0.144-0.302 0.144-0.432-0.144-0.177-0.216-0.346-0.216-0.504l0.072-0.357c-0.047-0.238-0.144-0.357-0.288-0.357-0.155 0.091-0.299 0.141-0.43 0.141h-0.216c-0.072 0-0.144-0.069-0.216-0.216v-0.36c0.047-0.141 0.191-0.216 0.432-0.216h0.072c0.13 0 0.274 0.050 0.43 0.147 0.31-0.097 0.526-0.147 0.646-0.147h1.507c0.072 0 0.144 0.075 0.216 0.216l-0.072 0.504c0.097 0 0.169-0.238 0.216-0.72 0.335-0.308 0.504-0.596 0.504-0.862v-0.859c0-0.454 0.022-0.909 0.072-1.363l-0.072-0.357 0.144-3.162c-0.050-0.091-0.072-0.169-0.072-0.211l0.216-0.72-0.072-0.432c0.094-0.308 0.144-0.524 0.144-0.643-0.191-0.216-0.288-0.335-0.288-0.357v-0.363c0-0.044 0.022-0.069 0.072-0.069l-0.072-0.141v-0.288c0-0.158 0.022-0.277 0.072-0.363l-0.072-0.43v-0.646c0-0.047 0.022-0.069 0.072-0.069l-0.072-0.144v-0.718c0-1.471 0.022-3.458 0.072-5.958 0.094-0.333 0.144-0.623 0.144-0.862v-0.79c-0.205 0-0.418-0.069-0.646-0.213-0.191 0.094-0.335 0.144-0.43 0.144-0.718-0.108-1.075-0.299-1.075-0.574-0.222 0.188-0.341 0.285-0.366 0.285zM73.422 28.118v0.427l0.072 0.363h0.072v-0.79h-0.144zM73.638 29.337v0.147h0.072v-0.147h-0.072zM74.211 2.71c0 0.144 0.022 0.216 0.072 0.216l-0.072 0.357v1.006c0 0.238-0.025 0.599-0.072 1.075h0.144c0-0.119 0.072-0.502 0.216-1.147v-1.507c0-0.094-0.047-0.144-0.144-0.144-0.097 0.014-0.144 0.061-0.144 0.144zM75.359 4.791v0.216l0.072 0.357h0.216c-0.097-0.429-0.144-0.668-0.144-0.718-0.097 0.014-0.144 0.061-0.144 0.144zM75.932 2.566c0 0.050-0.025 0.072-0.072 0.072 0.177 0.668 0.371 1.003 0.574 1.003h0.072c-0.072-0.715-0.26-1.075-0.574-1.075zM76.578 3.788v0.072c0.097 0.155 0.144 0.274 0.144 0.357h0.072v-0.144c-0.072-0.191-0.144-0.285-0.216-0.285zM77.872 27.184l-0.072 0.36v0.211h0.144v-0.571h-0.072zM78.803 2.71c0 0.050-0.025 0.072-0.072 0.072 0.047 0.094 0.072 0.169 0.072 0.213 0 0.191 0.022 0.623 0.072 1.294h0.072c0.094 0 0.144-0.050 0.144-0.144-0.050-0.956-0.144-1.435-0.288-1.435zM79.307 25.749c0 0.385-0.191 0.909-0.574 1.579v0.504c0.011 0.091 0.058 0.141 0.144 0.141 0.382-1.017 0.574-1.732 0.574-2.153l-0.144-0.072zM79.593 28.833h0.144v-0.288c0.238-0.773 0.357-1.327 0.357-1.652v-0.213c-0.333 0.454-0.502 1.175-0.502 2.153zM79.665 19.791h0.144c0.047-0.249 0.072-0.396 0.072-0.427-0.144 0.047-0.216 0.188-0.216 0.427zM79.881 4.578c-0.097 0.155-0.144 0.296-0.144 0.429v0.288h0.144l0.144-0.504v-0.069c-0.003-0.1-0.050-0.144-0.144-0.144zM80.382 16.704c-0.191 0.751-0.36 1.591-0.504 2.511 0.119 0 0.31-0.715 0.576-2.153v-0.357h-0.072zM80.238 6.085l-0.072 0.499c0.072 0.191 0.144 0.288 0.216 0.288v-0.643c0-0.1-0.047-0.144-0.144-0.144zM80.166 23.379v0.075h0.144v-0.216c-0.094 0.011-0.144 0.058-0.144 0.141zM80.382 10.965l-0.072 0.504v1.078h0.144v-1.153l0.072-0.357-0.144-0.072zM80.382 21.013l-0.072 0.715v0.075c0.011 0.091 0.058 0.141 0.144 0.141v-0.931h-0.072zM80.743 27.259v0.427c-0.288 0.79-0.43 1.294-0.43 1.51 0.047 0.188 0.072 0.357 0.072 0.499l0.144-0.069-0.072-0.141v-0.288c0.288-0.779 0.43-1.38 0.43-1.796v-0.141h-0.144zM80.743 19.217c0 0.136-0.119 0.563-0.357 1.294 0.047 0.097 0.072 0.169 0.072 0.216h0.072l0.288-1.435v-0.075h-0.075zM80.382 22.091v0.574h0.072v-0.574h-0.072zM81.028 18.139c0 0.147-0.047 0.313-0.144 0.504h0.072c0.097 0 0.144-0.050 0.144-0.141v-0.363h-0.072zM80.884 25.391v0.427h0.072l0.072-0.427h-0.144zM81.1 3.214v0.144h0.072v-0.144h-0.072zM81.1 17.494v0.435h0.072v-0.435h-0.072zM81.818 18.139c0 0.288-0.216 1.46-0.646 3.519v0.069c0.227-0.103 0.396-0.892 0.502-2.366 0.191-0.169 0.288-0.357 0.288-0.574v-0.502c0-0.1-0.047-0.147-0.144-0.147zM81.244 28.98v0.141h0.216l0.144-0.504v-0.141c-0.061 0-0.18 0.169-0.36 0.504zM81.602 27.832v0.288h0.144l0.072-0.363v-0.072h-0.072c-0.094 0.011-0.144 0.061-0.144 0.147zM81.89 26.391c-0.094 0.158-0.144 0.305-0.144 0.435h0.072c0.072 0 0.144-0.069 0.216-0.216v-0.072c0-0.097-0.050-0.147-0.144-0.147zM81.89 12.689l-0.072 0.357v0.718h0.072l0.072-0.357v-0.718h-0.072zM81.89 22.517l-0.072 0.363v0.141c0.011 0.097 0.061 0.147 0.144 0.147v-0.651h-0.072zM82.106 9.1v0.288h0.144v-0.432c-0.097 0.011-0.144 0.058-0.144 0.144zM82.322 20.292c-0.097 0.405-0.169 1.006-0.216 1.796 0.094 0 0.191-0.574 0.288-1.726v-0.069h-0.072z"></path>
<path d="M85.567 1.776l1.219 0.144 0.288-0.144c0.635 0.050 1.136 0.122 1.507 0.216 0.119 0 0.31-0.025 0.574-0.072 0.599 0.050 0.909 0.072 0.934 0.072 0.884-0.050 1.627-0.072 2.225-0.072 0.155-0.094 0.299-0.144 0.432-0.144h0.288c0.083 0 0.299 0.072 0.646 0.216 0.191-0.072 0.288-0.144 0.288-0.216 0.31 0 1.316 0.097 3.015 0.288 0.191-0.094 0.454-0.144 0.79-0.144 0.274 0 0.898 0.576 1.865 1.724 0.155 0 0.299 0.238 0.43 0.718 0 0.169-0.025 0.385-0.072 0.646 0.097 1.064 0.144 1.829 0.144 2.297-0.047 1.53-0.072 2.414-0.072 2.655 0 0.155 0.025 0.277 0.072 0.357-0.047 0.407-0.072 0.745-0.072 1.006v5.598c0 0.308-0.551 0.909-1.652 1.79-0.288 0.432-0.551 0.648-0.79 0.648-0.454 0.050-0.956 0.069-1.505 0.069h-0.288c-0.657 0-1.111-0.022-1.363-0.069-0.454 0.050-0.959 0.069-1.507 0.069h-1.724c-0.576 0-0.862-0.097-0.862-0.288l0.072-0.643c-0.191-0.72-0.31-1.699-0.357-2.946-0.144-0.191-0.238-0.288-0.288-0.288l-0.072 0.144c0.191 0.54 0.288 0.876 0.288 1.006v2.441l0.288 0.432c-0.144 0.499-0.216 0.812-0.216 0.931v0.862c0 0.66 0.025 1.521 0.072 2.583 0 0.050-0.025 0.075-0.072 0.075l0.072 0.357v4.448c0 0.266 0.144 0.817 0.43 1.652 0 0.069-0.097 0.169-0.288 0.288l-0.646-0.069-0.36 0.069c-0.263-0.050-0.477-0.069-0.646-0.069l-0.357 0.069-0.288-0.069c-0.025 0-0.335 0.022-0.934 0.069-0.599-0.050-0.931-0.069-1.003-0.069-0.263 0.050-0.479 0.069-0.646 0.069l-0.216-0.288c0.382-0.942 0.574-1.543 0.574-1.79v-8.468c0-0.266 0.025-0.601 0.072-1.006-0.047-0.050-0.072-0.238-0.072-0.574 0-0.238 0.025-0.357 0.072-0.357-0.047-0.477-0.072-0.84-0.072-1.078v-3.012c0-2.095-0.022-4.774-0.072-8.039 0.036-0.479 0.083-0.718 0.144-0.718l-0.072-0.504v-1.433c0-0.277-0.144-0.612-0.43-1.003v-0.219c-0.003-0.072 0.069-0.144 0.213-0.216zM87.504 9.313v0.36c0.011 0.094 0.061 0.144 0.144 0.144l0.072-0.144v-0.144l-0.072-0.36c-0.094 0.014-0.144 0.061-0.144 0.144zM87.576 7.518v0.075c0.011 0.094 0.061 0.144 0.144 0.144v-0.36c-0.094 0.014-0.144 0.058-0.144 0.141zM87.576 28.043c0.097 0.244 0.144 0.41 0.144 0.504h0.072v-0.216c-0.050-0.163-0.072-0.26-0.072-0.288h-0.144zM90.948 6.085c-0.418-0.050-0.682-0.072-0.79-0.072l-0.072 0.504v0.213c0.097 0.122 0.144 0.216 0.144 0.288-0.097 0.299-0.144 0.468-0.144 0.504l0.072 0.429c0 0.18-0.072 0.851-0.216 2.012 0 0.108 0.022 0.202 0.072 0.288-0.097 0.177-0.144 0.371-0.144 0.574 0.094 0.815 0.144 1.316 0.144 1.507-0.050 0.335-0.072 0.527-0.072 0.574 0 0.050 0.022 0.072 0.072 0.072l-0.144 1.652c0.119 0 0.526 0.169 1.219 0.502h3.516c0.418 0 0.776-0.238 1.075-0.718v-3.092c0.144-0.623 0.216-0.959 0.216-1.006 0-0.549-0.022-1.050-0.072-1.507 0.050-0.321 0.072-0.585 0.072-0.787-0.094-1.197-0.238-1.793-0.43-1.793-0.202-0.191-0.396-0.288-0.574-0.288h-1.15c-0.058 0-0.324 0.047-0.79 0.144h-0.144c-0.693-0.097-1.053-0.144-1.078-0.144-0.435 0.094-0.698 0.144-0.784 0.144zM93.534 2.71v2.511c0.011 0.097 0.058 0.144 0.144 0.144l0.072-0.144v-0.429c0-0.202 0.025-0.466 0.072-0.787-0.097-0.191-0.144-0.454-0.144-0.79v-0.648c-0.097 0.014-0.144 0.061-0.144 0.144zM94.251 18.214v0.288h0.144v-0.288h-0.144zM96.621 4.362v0.144h0.072c0.238-0.801 0.357-1.424 0.357-1.865l-0.144-0.072h-0.072c-0.141-0.003-0.213 0.596-0.213 1.793zM96.621 14.551v0.36h0.144v-0.216c-0.003-0.094-0.050-0.144-0.144-0.144zM97.336 13.118c0.011 0.144 0.205 0.43 0.576 0.862v0.144c-0.097 0.158-0.144 0.299-0.144 0.43v1.153c0 0.069 0.072 0.141 0.216 0.211 0.083 0 0.249-0.308 0.502-0.931 0.288-0.119 0.43-0.31 0.43-0.574v-0.651c0-0.13-0.238-0.224-0.718-0.288-0.216-0.333-0.454-0.502-0.718-0.502-0.094 0.014-0.144 0.064-0.144 0.147zM97.84 17.782v0.147c0 0.108 0.119 0.177 0.357 0.211 0.191-0.211 0.288-0.38 0.288-0.499-0.047 0-0.072-0.028-0.072-0.075-0.382 0.047-0.574 0.119-0.574 0.216zM97.984 3.214v0.288c0.094 0 0.144-0.050 0.144-0.144s-0.050-0.144-0.144-0.144zM98.702 11.395l-0.072 0.144v0.072c0 0.371 0.097 0.585 0.288 0.646 0-0.097 0.025-0.147 0.072-0.147-0.122-0.474-0.216-0.715-0.288-0.715z"></path>
<path d="M121.56 1.707c0.263 0 0.574 0.069 0.934 0.213 0.177-0.094 0.371-0.144 0.574-0.144 0.405 0 0.718 0.050 0.934 0.144 0.227-0.094 0.441-0.144 0.646-0.144 0.191 0.072 0.288 0.144 0.288 0.216v0.144l-0.216 0.718c0 0.241 0.025 0.36 0.072 0.36l-0.072 0.859v1.579c0 0.321 0.025 0.61 0.072 0.862-0.047 1.039-0.119 1.998-0.216 2.871v0.069c0 1.685 0.011 3.5 0.036 5.437s0.036 2.948 0.036 3.034v0.288c0 0.308 0.025 0.623 0.072 0.931-0.144 0.623-0.216 1.197-0.216 1.721l0.144 0.504-0.072 0.432c0 0.141 0.022 0.308 0.072 0.504-0.050 0.665-0.072 1.239-0.072 1.721 0 0.801 0.047 1.663 0.144 2.583-0.097 0.297-0.169 0.97-0.216 2.009 0 0.108 0.216 0.612 0.646 1.51l-0.216 0.357c-0.718-0.050-1.244-0.069-1.579-0.069h-0.79c-0.454 0-0.909 0.022-1.363 0.069-0.216-0.050-0.599-0.069-1.15-0.069h-0.072c-0.072 0-0.144-0.069-0.216-0.216 0.299-0.635 0.515-1.017 0.646-1.147v-0.504c0-0.058-0.047-0.319-0.144-0.79v-1.724c0.097-0.812 0.144-1.266 0.144-1.363v-2.156c-0.094-0.812-0.144-1.266-0.144-1.363v-0.931l0.216-1.721c-0.047-0.574-0.094-0.862-0.144-0.862-0.249-0.374-0.538-0.612-0.862-0.72h-0.144c-0.454 0.141-0.743 0.216-0.862 0.216h-0.862c-0.31 0-0.551-0.075-0.718-0.216-0.191 0.097-0.357 0.141-0.502 0.141-0.058 0-0.299-0.022-0.718-0.069-0.718 0.277-1.078 0.709-1.078 1.294 0 0.851-0.025 1.732-0.072 2.657l0.144 2.436c-0.097 1.125-0.144 2.203-0.144 3.231 0.094 0.313 0.144 0.524 0.144 0.648-0.097 0.643-0.144 1.050-0.144 1.216 0.477 0.989 0.718 1.543 0.718 1.652v0.141c-0.119 0.097-0.191 0.147-0.216 0.147-0.108 0-0.202-0.022-0.288-0.069l-0.288 0.141-0.504-0.069c-0.108 0-0.202 0.022-0.288 0.069-0.49-0.050-0.873-0.069-1.147-0.069h-1.291c-0.252 0-0.657 0.022-1.219 0.069-0.097-0.152-0.144-0.297-0.144-0.427 0.202-0.421 0.396-1.045 0.574-1.868v-3.807c0-0.623-0.022-1.097-0.072-1.435 0.050-0.335 0.072-0.812 0.072-1.435v-2.655c0-0.050 0.025-0.069 0.072-0.069l-0.072-0.147v-2.441c0-0.272 0.025-0.438 0.072-0.499-0.047-0.266-0.072-0.479-0.072-0.648v-6.315c0-0.443 0.025-1.064 0.072-1.868-0.094-0.155-0.144-0.296-0.144-0.429v-0.213c0.011-0.241 0.058-0.36 0.144-0.36-0.047-0.646-0.072-1.122-0.072-1.435v-1.507c0-0.191-0.169-0.454-0.502-0.79v-0.144c0.047-0.144 0.191-0.216 0.43-0.216 0.252 0 0.466 0.025 0.646 0.072 0.418-0.050 0.776-0.072 1.075-0.072h0.432c0.094 0 0.335 0.050 0.718 0.144 0.072 0 0.288-0.047 0.646-0.144l0.36 0.072c0.249-0.050 0.49-0.072 0.718-0.072 0.072 0 0.144 0.097 0.216 0.288-0.382 0.635-0.574 1.092-0.574 1.363 0 0.277 0.022 0.443 0.072 0.504-0.050 0.49-0.072 0.873-0.072 1.147v3.087c0.097 0.812 0.144 1.266 0.144 1.363v0.862c-0.086 0.693-0.133 1.075-0.133 1.147v0.574c0.502 0.623 1.053 0.934 1.652 0.934h1.363c0.43-0.144 0.671-0.213 0.718-0.213 0.252 0.047 0.396 0.069 0.43 0.069 0.155-0.094 0.277-0.144 0.36-0.144 0.155 0.097 0.296 0.144 0.43 0.144 0.574-0.479 0.862-0.884 0.862-1.219-0.094-0.188-0.144-0.454-0.144-0.787v-1.366c0-0.072 0.050-0.454 0.144-1.15v-3.946c-0.094-1.319-0.263-2.081-0.502-2.297v-0.144c0-0.072 0.072-0.144 0.216-0.216h0.216c0.050 0 0.238 0.050 0.576 0.144 0.175-0.144 0.388-0.213 0.64-0.213zM111.083 9.53v0.502c0.094 0 0.144-0.047 0.144-0.144v-0.357h-0.144zM111.083 11.68c0.191 0.335 0.288 0.576 0.288 0.72v0.213c-0.191 0.538-0.288 0.873-0.288 1.003v1.219h0.144v-0.571c0-0.288 0.144-1.003 0.43-2.153-0.288-0.249-0.43-0.466-0.43-0.643-0.097-0.003-0.144 0.069-0.144 0.211zM111.155 2.782v0.432c0.443 0.227 0.704 0.466 0.79 0.718 0.058 0.241 0.13 0.36 0.216 0.36l0.072-0.144v-0.36l-0.072-0.429c0.050-0.083 0.072-0.202 0.072-0.36 0-0.094-0.047-0.144-0.144-0.144h-0.072c0 0.241-0.169 0.36-0.502 0.36l-0.36-0.432zM112.014 14.626v0.931c0 0.097-0.097 0.454-0.288 1.078 0.047 1.078 0.072 1.749 0.072 2.009-0.288 0.817-0.477 1.435-0.574 1.868 0.227 1.483 0.418 2.225 0.574 2.225l0.144-0.069-0.072-0.72c0-0.119 0.025-0.308 0.072-0.574-0.047-0.188-0.072-0.357-0.072-0.504 0-0.38 0.263-0.762 0.79-1.147l0.072-0.427c0-0.058-0.216-0.205-0.646-0.432v-0.15c0-0.211-0.022-0.743-0.072-1.574 0.335-0.612 0.504-1.305 0.504-2.081v-0.432c0-0.039 0.119-0.158 0.357-0.36v-0.144c0-0.069-0.072-0.144-0.216-0.213-0.43 0.202-0.646 0.441-0.646 0.718zM111.227 26.68v0.147c0.097-0.050 0.169-0.069 0.216-0.069v-0.078h-0.216zM111.299 4.362c0.047 0.646 0.072 1.125 0.072 1.438v0.718h0.144v-1.297c0-0.094 0.047-0.333 0.144-0.718-0.047-0.094-0.072-0.169-0.072-0.213h-0.144l-0.144 0.072zM111.656 7.806v0.216h0.072v-0.216h-0.072zM111.8 27.686l-0.072 0.357c0 0.574 0.097 0.867 0.288 0.867l0.072-0.147c-0.144-0.596-0.216-0.959-0.216-1.078h-0.072zM112.374 22.448l-0.144 0.216c0.036 0.288 0.108 0.427 0.216 0.427h0.072v-0.499c0-0.097-0.050-0.144-0.144-0.144zM112.374 23.812l-0.072 0.357v0.363c0.011 0.091 0.058 0.141 0.144 0.141l0.072-0.141v-0.574c0-0.1-0.050-0.147-0.144-0.147zM112.876 2.641l0.216 0.502c-0.191 0.349-0.288 0.563-0.288 0.646 0 0.108 0.022 0.371 0.072 0.79l-0.144 0.718c0.094 0.216 0.144 0.429 0.144 0.646-0.072 0.382-0.144 0.574-0.216 0.574 0 0.252 0.144 0.729 0.43 1.435v0.216c0 0.177-0.119 0.396-0.357 0.643 0 0.061 0.047 0.324 0.144 0.79v0.432c0 0.538-0.025 1.233-0.072 2.081v0.072h0.072c0.335-1.482 0.502-2.608 0.502-3.375 0.097 0 0.144-0.405 0.144-1.216v-0.144c0-0.108-0.097-0.418-0.288-0.934 0-0.31 0.119-1.028 0.357-2.153l0.072-0.646c-0.13-0.956-0.274-1.435-0.43-1.435h-0.072c-0.094 0.025-0.188 0.144-0.285 0.36zM112.662 12.902v0.288h0.072c0.094 0 0.144-0.047 0.144-0.144 0-0.094-0.050-0.144-0.144-0.144h-0.072zM113.593 21.875v0.862c0 0.169-0.025 0.385-0.072 0.643 0.047 0.097 0.072 0.169 0.072 0.216 0.097 0 0.144-0.050 0.144-0.141v-1.579h-0.144zM113.593 24.097l-0.072 0.357v0.075l0.072 0.499c0.097 0 0.144-0.044 0.144-0.141v-0.79h-0.144zM113.593 25.607v0.715c0.011 0.097 0.058 0.147 0.144 0.147v-0.862h-0.144zM113.593 27.184v0.504c0.011 0.097 0.058 0.147 0.144 0.147v-0.651h-0.144zM113.882 16.92l-0.072 0.357c0.083 0 0.155-0.119 0.216-0.357h-0.144zM114.311 14.409v0.216h0.072v-0.216h-0.072zM115.677 16.418l0.144 0.069c0.083 0 0.227-0.044 0.43-0.141 0.324 0.141 0.515 0.216 0.574 0.216 0-0.050 0.025-0.075 0.072-0.075-0.227-0.524-0.538-0.784-0.931-0.784h-0.072c-0.097 0-0.169 0.238-0.216 0.715zM116.966 13.761c0.011 0.108 0.277 0.493 0.79 1.15l0.072 0.357h0.072v-1.072c0-0.479-0.216-0.72-0.646-0.72-0.155 0.047-0.249 0.144-0.288 0.285zM117.9 15.557c0 0.108-0.025 0.205-0.072 0.288 0.047 0.086 0.072 0.205 0.072 0.357h0.144v-0.141l-0.072-0.504h-0.072zM120.987 2.566v0.574l0.072 0.36h0.216v-0.216c-0.061-0.477-0.158-0.718-0.288-0.718zM120.987 8.524v1.507c0.011 0.097 0.058 0.144 0.144 0.144 0.011-0.094 0.058-0.144 0.144-0.144-0.039-1.006-0.133-1.507-0.288-1.507zM121.203 4.148v0.144h0.072v-0.144h-0.072zM121.275 4.863l-0.072 0.288c0.335 0.884 0.502 1.652 0.502 2.297 0.18 0.296 0.324 1.23 0.43 2.799 0.133 0 0.227 1.363 0.288 4.093-0.050 1.377-0.072 2.502-0.072 3.372 0.094 0.158 0.144 0.296 0.144 0.427 0 0.086-0.050 0.352-0.144 0.79 0 0.194 0.047 0.768 0.144 1.726 0 0.022-0.025 0.119-0.072 0.288l0.216 2.009c0 0.563-0.050 0.942-0.144 1.147 0.094 0.574 0.144 1.294 0.144 2.153h0.072c0-0.466 0.144-1.737 0.43-3.805-0.047-2.045-0.072-3.192-0.072-3.442l0.072-1.153c-0.072-0.288-0.144-0.427-0.216-0.427 0.097-5.157 0.144-8.457 0.144-9.906h-0.072c-0.058 0-0.155 0.36-0.288 1.078l-0.216 0.144h-0.144c-0.23 0-0.466-1.147-0.718-3.444-0.097-0.011-0.169-0.155-0.216-0.429h-0.139zM122.278 29.406v0.216h0.072v-0.216h-0.072zM122.422 2.425v0.718h0.072l0.144-0.502c-0.050-0.097-0.072-0.169-0.072-0.216h-0.144zM123.497 25.818c0 0.551-0.169 0.909-0.502 1.078h-0.072c0.047 0.648 0.072 1.125 0.072 1.435v0.867l0.072 0.357h0.072v-1.579c0.335-0.84 0.502-1.435 0.502-1.79v-0.222c0-0.097-0.047-0.147-0.144-0.147zM123.497 3.284c0.058 0.216 0.252 0.385 0.576 0.504l0.072-0.862v-0.36l-0.144-0.213c-0.299 0-0.466 0.31-0.504 0.931zM124.073 18.572c-0.097 0.357-0.144 0.601-0.144 0.72l0.144 0.069 0.072-0.357v-0.432h-0.072z"></path>
<path d="M127.194 1.776c0.144 0 0.335 0.050 0.574 0.144 0.335-0.094 0.599-0.144 0.79-0.144l0.931 0.144c0.31-0.094 0.526-0.144 0.646-0.144h1.363c0.155 0 0.49 0.050 1.006 0.144 0.144 0 0.335-0.047 0.574-0.144 0.238 0 0.36 0.025 0.36 0.072 1.028-0.050 1.793-0.072 2.297-0.072h4.666c0.429 0 0.646 0.504 0.646 1.507 0.238 1.629 0.357 2.682 0.357 3.159l-0.288 0.144c-0.371-0.047-0.754-0.213-1.147-0.502l-0.144 0.069h-0.574c-0.169 0-0.382-0.025-0.646-0.069-0.097 0.047-0.169 0.069-0.216 0.069-0.144 0-0.216-0.025-0.216-0.069-0.477 0.047-0.837 0.069-1.075 0.069h-2.297c-0.058 0-0.321-0.047-0.79-0.144h-0.502c-0.097 0-0.335 0.050-0.718 0.144-0.238-0.083-0.357-0.202-0.357-0.357 0.097-0.801 0.263-1.566 0.502-2.297-0.097-0.454-0.144-0.815-0.144-1.078v-0.069c-0.335-0.050-0.526-0.072-0.574-0.072l-0.072 0.144v0.934l-0.144 1.291c0.094 0.635 0.191 1.017 0.288 1.15 0 0.058-0.263 0.441-0.79 1.147v0.144c0 0.335 0.050 0.599 0.144 0.79-0.097 0.188-0.144 0.454-0.144 0.787v1.507c0 0.191 0.050 0.504 0.144 0.934-0.097 0.443-0.144 0.707-0.144 0.79 0 0.574 0.504 0.959 1.507 1.147 0.083 0 0.277-0.047 0.576-0.144l0.429 0.072c1.158 0 2.211-0.191 3.159-0.574h0.288c0.097 0.011 0.144 0.058 0.144 0.144v0.357c0 0.169 0.025 0.385 0.072 0.646-0.097 0.191-0.144 0.36-0.144 0.504 0.047 0.144 0.097 0.213 0.144 0.213l-0.075 0.504v2.294l0.072 0.504-0.216 0.147h-0.144c-0.97-0.385-1.519-0.574-1.652-0.574-0.335 0.050-0.526 0.069-0.574 0.069-0.083 0-0.418-0.069-1.006-0.216-0.18 0.097-0.371 0.147-0.574 0.147-0.050 0-0.119-0.028-0.216-0.075-0.191 0.050-0.36 0.075-0.504 0.075l-0.288-0.075c-0.15 0.091-0.294 0.141-0.424 0.141h-0.144l-0.216-0.147c0.058-1.851 0.155-3.001 0.288-3.444-0.036-0.288-0.18-0.43-0.429-0.43-0.097 0.158-0.144 0.277-0.144 0.36-0.047 1.471-0.072 2.425-0.072 2.871-0.094 0.313-0.144 0.524-0.144 0.643v0.075c0.371 0 0.585 0.091 0.646 0.288l-0.432 0.574c0.050 2.294 0.072 4.065 0.072 5.309v1.652c0 0.216 0.191 0.623 0.576 1.222l0.502-0.075h0.072c0.169 0 0.382 0.028 0.646 0.075l0.502-0.147c0.801 0.050 1.424 0.069 1.865 0.069h1.793c0.202 0 0.396 0.028 0.574 0.075 0.191-0.050 0.382-0.075 0.576-0.075h1.219c0.18 0 0.587-0.141 1.219-0.427h0.144c0.072 0 0.144 0.069 0.216 0.216-0.263 2.965-0.502 4.448-0.718 4.448-0.083 0.050-0.18 0.069-0.288 0.069h-2.225c-2.045 0-3.625 0.022-4.736 0.069-0.945-0.050-2.427-0.069-4.45-0.069h-0.862c-0.238 0-0.357-0.050-0.357-0.147-0.238 0.147-0.43 0.216-0.574 0.216h-0.216c-0.108 0-0.18-0.119-0.216-0.357 0.288-0.732 0.43-1.186 0.43-1.363 0-0.704-0.025-1.186-0.072-1.435 0.047-0.995 0.072-1.906 0.072-2.727v-1.931c0-0.709-0.025-1.186-0.072-1.435 0.047-0.504 0.072-1.056 0.072-1.652v-5.168c0-0.169-0.025-0.382-0.072-0.646 0.047-0.094 0.072-0.166 0.072-0.213l-0.072-0.862 0.072-1.006c0-0.371-0.025-0.704-0.072-1.003 0.047-1.591 0.072-2.979 0.072-4.162v-2.657l-0.072-0.36h0.072l-0.43-1.363v-0.072c0.097-0.191 0.241-0.288 0.432-0.288zM127.767 2.641v0.288l0.504 2.439h0.072c0.047-0.166 0.072-0.263 0.072-0.288 0-0.227-0.144-0.92-0.432-2.081 0-0.238-0.047-0.357-0.144-0.357h-0.072zM127.911 8.452l-0.144 0.288c0 1.125 0.144 1.912 0.432 2.366l-0.216 1.219 0.432 2.084v0.646c0.036 0.288 0.108 0.43 0.216 0.43 0-0.238 0.022-0.36 0.072-0.36-0.083-0.31-0.18-1.097-0.288-2.366v-1.937c0-0.119-0.119-0.599-0.36-1.435l0.072-0.36c0-0.36-0.072-0.549-0.216-0.574zM128.055 27.544c0 0.141-0.022 0.211-0.072 0.211 0.050 0.097 0.072 0.169 0.072 0.216h0.072v-0.427h-0.072zM128.344 5.797c0 0.025-0.025 0.119-0.072 0.288 0 0.213 0.191 1.028 0.574 2.439 0.288 1.424 0.429 2.599 0.429 3.519h-0.072l0.072 0.144v0.144c0 0.050-0.025 0.072-0.072 0.072 0.072 0.188 0.144 0.288 0.216 0.288 0-0.050 0.025-0.072 0.072-0.072 0-0.047-0.025-0.119-0.072-0.213 0.047-1.053 0.119-1.818 0.216-2.297-0.335 0-0.621-1.172-0.862-3.519-0.050 0-0.169-0.263-0.357-0.787h-0.072zM129.347 2.209l-0.072 0.144c0.144 0.643 0.216 1.097 0.216 1.361v0.79c0.011 0.097 0.058 0.144 0.144 0.144v-0.859c0-0.144 0.072-0.429 0.216-0.862-0.061-0.479-0.23-0.718-0.504-0.718zM129.635 26.322l-0.072 0.357v1.006h0.072c0-0.623 0.097-1.050 0.288-1.294l-0.144-0.069h-0.144zM130.209 28.118v0.069c0 0.266 0.022 0.596 0.072 1.006-0.050 0.080-0.072 0.177-0.072 0.288h0.144v-0.147c0-0.158 0.022-0.277 0.072-0.357-0.050-0.571-0.122-0.859-0.216-0.859zM130.425 13.908v0.502c0.094 0 0.144-0.047 0.144-0.144l-0.072-0.357h-0.072zM130.71 2.566v0.862c0.288 0.299 0.429 0.587 0.429 0.865 0.108 0 0.18-0.169 0.216-0.504l-0.072-0.862h0.072c-0.047-0.385-0.169-0.574-0.357-0.574-0.191 0.072-0.288 0.144-0.288 0.213zM132.145 26.754c0 0.022-0.050 0.38-0.144 1.078v0.427h0.144c0.191-0.715 0.288-1.125 0.288-1.216v-0.147c0-0.091-0.047-0.141-0.144-0.141h-0.144zM132.863 13.761c-0.191 0.097-0.288 0.887-0.288 2.369-0.097 0.011-0.144 0.058-0.144 0.147v0.211h0.144c0.238-0.618 0.357-0.953 0.357-1.003s-0.047-0.288-0.144-0.718c0.144-0.252 0.216-0.49 0.216-0.718v-0.141c0.003-0.097-0.044-0.147-0.141-0.147zM133.584 2.566c0 0.84-0.119 1.793-0.357 2.871l0.144 0.216c0.574-0.050 0.862-0.122 0.862-0.216 0.047-1.577 0.119-2.366 0.216-2.366-0.097-0.36-0.144-0.599-0.144-0.718h-0.574c-0.1 0-0.147 0.072-0.147 0.213zM133.368 28.617c0.047 0.097 0.072 0.169 0.072 0.216h0.144c0.108-0.050 0.299-0.38 0.574-1 0.238-0.058 0.357-0.136 0.357-0.216v-0.357c0-0.075-0.072-0.147-0.216-0.216-0.227 0-0.443 0.38-0.646 1.147-0.036 0-0.13 0.141-0.285 0.427zM133.584 15.704c0.13 0 0.299-0.266 0.502-0.793l-0.072-0.141v-0.504c0-0.119 0.047-0.335 0.144-0.646l-0.144-0.069h-0.072c-0.122-0.003-0.238 0.715-0.357 2.153zM134.227 15.845l-0.072 0.357v0.075c0.011 0.091 0.058 0.141 0.144 0.141 0-0.050 0.025-0.238 0.072-0.574h-0.144z"></path>
<path d="M142.678 1.848h1.006c1.926 0.335 3.001 0.504 3.231 0.504 0.526-0.191 0.862-0.288 1.003-0.288h1.724c0.443 0 1.064-0.022 1.868-0.069 0.094 0.050 0.166 0.069 0.216 0.069l0.502-0.069c0.13 0 0.61 0.025 1.435 0.069 0.072 0 0.288-0.047 0.646-0.144l0.504 0.072c0.155-0.094 0.297-0.144 0.429-0.144 0.083 0 0.202 0.050 0.357 0.144 0.31-0.094 0.526-0.144 0.646-0.144h0.144c0.432 0 0.646 0.191 0.646 0.574 0 1.305 0.072 2.524 0.216 3.661v0.144c-0.097 0.188-0.238 0.288-0.429 0.288-0.418-0.335-0.779-0.504-1.078-0.504h-0.79c-0.072 0-0.454 0.050-1.15 0.144-0.299-0.094-0.49-0.144-0.574-0.144-0.959 0.119-1.435 0.241-1.435 0.36l0.072 0.288c-0.144 0-0.238 0.959-0.288 2.871l0.216 0.502c-0.097 0.335-0.144 0.599-0.144 0.79l0.072 0.429c-0.050 0.266-0.072 0.527-0.072 0.79 0 0.227 0.022 0.466 0.072 0.718-0.050 0.252-0.072 0.396-0.072 0.429 0.047 0.538 0.072 1.042 0.072 1.507 0 0.050-0.025 0.119-0.072 0.216 0.094 0.191 0.144 0.454 0.144 0.793 0 0.249-0.025 0.466-0.072 0.643 0.047 0.308 0.072 0.623 0.072 0.931v0.288c0 1.441-0.072 2.153-0.216 2.153l0.072 0.147v0.931c0 0.335 0.047 0.601 0.144 0.79l-0.144 0.504c0.094 0.238 0.144 0.405 0.144 0.504-0.050 0.635-0.072 1.158-0.072 1.574 0 0.097-0.025 0.147-0.072 0.147l0.072 0.357v0.937c0 0.2-0.025 0.466-0.072 0.784l0.144 0.363c-0.097 0.211-0.144 0.524-0.144 0.931v0.504c0 0.141 0.216 0.812 0.646 2.009-0.072 0.194-0.144 0.288-0.216 0.288h-4.234c-0.526 0-0.79-0.069-0.79-0.216v-0.211l0.429-1.363v-0.79c0-0.108 0.025-0.205 0.072-0.288-0.047-0.086-0.072-0.177-0.072-0.288v-0.222c0-0.432 0.025-0.72 0.072-0.862-0.047-0.416-0.072-0.779-0.072-1.078v-1.003c0-0.369 0.025-0.704 0.072-1-0.047-0.244-0.072-0.551-0.072-0.937v-0.219c0-0.152 0.025-0.272 0.072-0.357l-0.144-1.147c0.047-0.416 0.072-0.779 0.072-1.078v-0.139c0-0.277-0.025-0.66-0.072-1.153l0.144-0.357-0.072-0.643 0.072-1.006-0.144-0.865c0.047-0.249 0.072-0.49 0.072-0.718v-0.285l0.216-0.288c-0.191-0.238-0.288-0.382-0.288-0.43 0.047-0.909 0.097-1.363 0.144-1.363l-0.072-0.36v-2.94c0-0.169 0.025-0.382 0.072-0.646 0-1.386-0.382-2.081-1.15-2.081-0.357-0.094-0.693-0.144-1.003-0.144h-0.574c-0.191 0-0.504 0.050-0.934 0.144-0.31-0.094-0.624-0.144-0.934-0.144-0.599 0.050-0.909 0.072-0.931 0.072-0.097-0.158-0.144-0.277-0.144-0.36 0.238-1.494 0.357-2.499 0.357-3.015v-0.213c0-0.266 0.144-0.479 0.432-0.648zM148.708 8.665l-0.216 0.288v0.144c0 0.036 0.047 0.227 0.144 0.574v0.069c-0.288 0.407-0.429 0.815-0.429 1.219 0.047 0.083 0.072 0.177 0.072 0.288 0.144 0 0.335-0.549 0.574-1.652v-0.787c-0.003-0.094-0.050-0.144-0.144-0.144zM148.204 11.896v0.429h0.144v-0.43h-0.144zM148.276 22.592c0 0.044-0.025 0.119-0.072 0.211 0.047 0.529 0.119 1.103 0.216 1.726-0.050 0.249-0.072 0.396-0.072 0.427 0.047 0.097 0.072 0.169 0.072 0.216 0.072 0 0.144-0.069 0.216-0.216v-1.433c0-0.177-0.097-0.493-0.288-0.931h-0.072zM148.276 12.689v0.357l0.216 0.288v0.288l0.072 0.72h0.072c0-0.039 0.022-0.18 0.072-0.429 0-0.277-0.119-0.682-0.357-1.219h-0.075zM148.492 14.695l-0.144 0.504c0.335 0.765 0.502 1.219 0.502 1.366v0.499c0.011 0.097 0.058 0.147 0.144 0.147l0.072-0.147v-0.144c0-0.324-0.169-0.97-0.502-1.94v-0.285h-0.072zM148.492 17.566c0 0.194-0.025 0.288-0.072 0.288l0.072 0.363-0.072 0.427c0.047 0.086 0.072 0.205 0.072 0.363h0.144c0.047-0.482 0.072-0.84 0.072-1.078v-0.363h-0.216zM148.921 28.043l-0.144 0.574c0.058 0.291 0.13 0.432 0.216 0.432l0.072-0.357v-0.504c0-0.094-0.047-0.144-0.144-0.144zM148.849 2.926v0.643c0 0.252 0.097 0.418 0.288 0.504 0.144-0.321 0.238-0.751 0.288-1.291l-0.216-0.144c-0.216 0.097-0.335 0.191-0.36 0.288zM148.921 29.268l-0.072 0.357v0.069c0.047 0 0.119 0.028 0.216 0.075l0.072-0.147-0.072-0.357h-0.144zM149.21 13.476v0.432c0.097 0.621 0.144 1.122 0.144 1.505h0.072v-0.43c-0.047-0.538-0.072-1.014-0.072-1.435l-0.144-0.072zM149.351 17.929l-0.072 0.499v0.937h0.072c0-0.086 0.025-0.515 0.072-1.294v-0.141h-0.072zM149.495 29.406v0.147h0.072v-0.147h-0.072zM149.639 24.887l-0.072 0.141v0.79h0.216l0.144-0.504c-0.097-0.285-0.191-0.427-0.288-0.427zM149.783 4.935v0.72h0.144v-0.865c-0.097 0.014-0.144 0.058-0.144 0.144zM149.783 7.158v0.934c0.011 0.097 0.058 0.144 0.144 0.144 0-0.047 0.022-0.069 0.072-0.069l-0.072-0.144v-0.865h-0.144zM149.783 9.1v0.718h0.072c0.036-0.385 0.083-0.574 0.144-0.574-0.050-0.083-0.072-0.18-0.072-0.288-0.097 0.011-0.144 0.058-0.144 0.144zM150.357 18.070v1.796l-0.072 0.715h0.144c0-0.296 0.169-1.039 0.502-2.225-0.288-0.119-0.429-0.26-0.429-0.427-0.097 0.011-0.144 0.058-0.144 0.141zM150.357 14.983v0.931h0.144c0.144-0.513 0.216-0.823 0.216-0.931v-0.502h-0.072c-0.191 0.069-0.288 0.238-0.288 0.502zM150.645 25.391v1.147l-0.288 2.799h0.144c0.191-0.563 0.288-1.591 0.288-3.084v-0.862h-0.144zM151.074 2.926c0.011 0.094 0.058 0.144 0.144 0.144v-0.144h-0.144zM151.579 4.935c0 0.050-0.025 0.122-0.072 0.216 0.047 0.094 0.072 0.169 0.072 0.213h0.862v-0.429h-0.862zM151.792 3.070v0.144h0.072v-0.144h-0.072zM152.51 3.070v0.502c0.011 0.097 0.058 0.144 0.144 0.144 0-0.119 0.025-0.308 0.072-0.574l-0.144-0.069h-0.072zM153.3 2.641c-0.050 1.255-0.072 2.189-0.072 2.799 0.144 0.050 0.216 0.094 0.216 0.144 0.238 0 0.357-0.743 0.357-2.225 0.047-0.263 0.072-0.479 0.072-0.646l-0.144-0.069h-0.429zM154.879 4.935v0.144h0.072v-0.144h-0.072zM155.453 3.356c-0.097 0.31-0.144 0.524-0.144 0.646v0.072c0.119 0 0.216-0.213 0.288-0.646l-0.144-0.072zM156.315 4.722l-0.36 0.499v0.216c0 0.108 0.216 0.177 0.646 0.216v-0.072c-0.058-0.574-0.152-0.859-0.285-0.859z"></path>
<path d="M166.883 1.776l1.219 0.144 0.288-0.144c0.635 0.050 1.136 0.122 1.507 0.216 0.119 0 0.31-0.025 0.574-0.072 0.599 0.050 0.909 0.072 0.934 0.072 0.884-0.050 1.627-0.072 2.225-0.072 0.155-0.094 0.299-0.144 0.432-0.144h0.288c0.083 0 0.299 0.072 0.646 0.216 0.191-0.072 0.288-0.144 0.288-0.216 0.31 0 1.316 0.097 3.015 0.288 0.191-0.094 0.454-0.144 0.79-0.144 0.274 0 0.898 0.576 1.865 1.724 0.155 0 0.299 0.238 0.429 0.718 0 0.169-0.025 0.385-0.072 0.646 0.097 1.064 0.144 1.829 0.144 2.297-0.047 1.53-0.072 2.414-0.072 2.655 0 0.155 0.025 0.277 0.072 0.357-0.047 0.407-0.072 0.745-0.072 1.006v5.598c0 0.308-0.551 0.909-1.652 1.79-0.288 0.432-0.551 0.648-0.79 0.648-0.454 0.050-0.956 0.069-1.505 0.069h-0.288c-0.657 0-1.111-0.022-1.363-0.069-0.454 0.050-0.959 0.069-1.507 0.069h-1.726c-0.576 0-0.862-0.097-0.862-0.288l0.072-0.643c-0.191-0.72-0.31-1.699-0.357-2.946-0.144-0.191-0.238-0.288-0.288-0.288l-0.072 0.144c0.191 0.54 0.288 0.876 0.288 1.006v2.441l0.288 0.432c-0.144 0.499-0.216 0.812-0.216 0.931v0.862c0 0.66 0.025 1.521 0.072 2.583 0 0.050-0.025 0.075-0.072 0.075l0.072 0.357v4.448c0 0.266 0.144 0.817 0.429 1.652 0 0.069-0.097 0.169-0.288 0.288l-0.646-0.067-0.36 0.069c-0.263-0.050-0.477-0.069-0.646-0.069l-0.357 0.069-0.288-0.069c-0.025 0-0.335 0.022-0.934 0.069-0.599-0.050-0.931-0.069-1.003-0.069-0.263 0.050-0.479 0.069-0.646 0.069l-0.216-0.288c0.382-0.942 0.574-1.543 0.574-1.79v-8.471c0-0.266 0.025-0.601 0.072-1.006-0.047-0.050-0.072-0.238-0.072-0.574 0-0.238 0.025-0.357 0.072-0.357-0.047-0.477-0.072-0.84-0.072-1.078v-3.012c0-2.095-0.022-4.774-0.072-8.039 0.036-0.479 0.083-0.718 0.144-0.718l-0.072-0.504v-1.433c0-0.277-0.144-0.612-0.429-1.003v-0.219c0-0.072 0.072-0.144 0.216-0.216zM168.82 9.313v0.36c0.011 0.094 0.061 0.144 0.144 0.144l0.072-0.144v-0.144l-0.072-0.36c-0.097 0.014-0.144 0.061-0.144 0.144zM168.892 7.518v0.075c0.011 0.094 0.061 0.144 0.144 0.144v-0.36c-0.097 0.014-0.144 0.058-0.144 0.141zM168.892 28.043c0.097 0.244 0.144 0.41 0.144 0.504h0.072v-0.216c-0.050-0.163-0.072-0.26-0.072-0.288h-0.144zM172.265 6.085c-0.418-0.050-0.682-0.072-0.79-0.072l-0.072 0.504v0.213c0.097 0.122 0.144 0.216 0.144 0.288-0.097 0.299-0.144 0.468-0.144 0.504l0.072 0.429c0 0.18-0.072 0.851-0.216 2.012 0 0.108 0.022 0.202 0.072 0.288-0.097 0.177-0.144 0.371-0.144 0.574 0.094 0.815 0.144 1.316 0.144 1.507-0.050 0.335-0.072 0.527-0.072 0.574 0 0.050 0.022 0.072 0.072 0.072l-0.144 1.652c0.119 0 0.526 0.169 1.219 0.502h3.516c0.418 0 0.776-0.238 1.075-0.718v-3.092c0.144-0.623 0.216-0.959 0.216-1.006 0-0.549-0.022-1.050-0.072-1.507 0.050-0.321 0.072-0.585 0.072-0.787-0.094-1.197-0.238-1.793-0.429-1.793-0.202-0.191-0.396-0.288-0.574-0.288h-1.15c-0.058 0-0.324 0.047-0.79 0.144h-0.139c-0.693-0.097-1.053-0.144-1.078-0.144-0.441 0.094-0.707 0.144-0.79 0.144zM174.85 2.71v2.511c0.011 0.097 0.058 0.144 0.144 0.144l0.072-0.144v-0.429c0-0.202 0.025-0.466 0.072-0.787-0.1-0.194-0.147-0.454-0.147-0.79v-0.648c-0.094 0.014-0.141 0.061-0.141 0.144zM175.565 18.214v0.288h0.144v-0.288h-0.144zM177.934 4.362v0.144h0.072c0.238-0.801 0.357-1.424 0.357-1.865l-0.144-0.072h-0.069c-0.144-0.003-0.216 0.596-0.216 1.793zM177.934 14.551v0.36h0.144v-0.216c0-0.094-0.047-0.144-0.144-0.144zM178.652 13.118c0.011 0.144 0.205 0.43 0.576 0.862v0.144c-0.097 0.158-0.144 0.299-0.144 0.43v1.153c0 0.069 0.072 0.141 0.216 0.211 0.083 0 0.249-0.308 0.502-0.931 0.288-0.119 0.429-0.31 0.429-0.574v-0.651c0-0.13-0.238-0.224-0.718-0.288-0.216-0.333-0.454-0.502-0.718-0.502-0.094 0.014-0.144 0.064-0.144 0.147zM179.156 17.782v0.147c0 0.108 0.119 0.177 0.357 0.211 0.191-0.211 0.288-0.38 0.288-0.499-0.047 0-0.072-0.028-0.072-0.075-0.382 0.047-0.574 0.119-0.574 0.216zM179.3 3.214v0.288c0.094 0 0.144-0.050 0.144-0.144s-0.050-0.144-0.144-0.144zM180.015 11.395l-0.072 0.144v0.072c0 0.371 0.097 0.585 0.288 0.646 0-0.097 0.025-0.147 0.072-0.147-0.119-0.474-0.216-0.715-0.288-0.715z"></path>
<path d="M182.384 1.776h0.288c0.704 0 1.374 0.025 2.009 0.072 0.324-0.050 0.585-0.072 0.79-0.072 0.094 0 0.263 0.050 0.502 0.144 0.108-0.047 0.324-0.094 0.646-0.144 0.671 0.039 1.006 0.108 1.006 0.216v0.216c-0.238 0.263-0.357 0.599-0.357 1.006-0.050 0-0.144 0.094-0.288 0.288 0 0.094 0.025 0.144 0.072 0.144l-0.072 0.862v1.652c0 0.468 0.025 0.707 0.072 0.718-0.050 0.407-0.072 0.745-0.072 1.006v4.736c0 0.599 0.025 1.338 0.072 2.225-0.050 0.083-0.072 0.205-0.072 0.36 0.036 0.38 0.083 0.576 0.144 0.576l-0.072 0.643c0 1.186-0.025 2.117-0.072 2.799 0.050 1.244 0.072 2.68 0.072 4.309v0.133c0 0.41-0.025 1.006-0.072 1.796 0.587 0.524 0.923 0.79 1.006 0.79 0.31-0.097 0.526-0.147 0.646-0.147h5.814c0.202 0 0.466 0.028 0.79 0.075 0.693-0.288 1.078-0.432 1.15-0.432h0.429c0.072 0 0.144 0.097 0.216 0.288-0.133 0.108-0.252 0.87-0.36 2.294-0.047 0-0.119 0.504-0.216 1.51v0.288c0 0.158-0.238 0.277-0.718 0.357-0.671-0.050-1.244-0.069-1.724-0.069h-1.865c-0.299 0-0.66 0.022-1.078 0.069l-0.429-0.069c-0.599 0.050-0.959 0.069-1.078 0.069l-1.579-0.141c-0.18 0.091-0.371 0.141-0.574 0.141-0.144 0-0.216-0.022-0.216-0.069-0.097 0-0.144 0.022-0.144 0.069-0.887-0.050-1.532-0.069-1.94-0.069h-1.363c-0.31 0-0.79 0.022-1.435 0.069l-0.072-0.141v-0.147c0-0.188 0.144-0.454 0.429-0.79l-0.072-0.141c0-0.069 0.072-0.335 0.216-0.79-0.047-0.801-0.072-1.424-0.072-1.868 0-0.249 0.025-0.654 0.072-1.216l-0.216-1.435c0.097-0.454 0.144-0.817 0.144-1.078v-3.375c-0.097-0.812-0.144-1.266-0.144-1.363v-0.427l0.216-2.009-0.216-1.078c0.097-0.454 0.144-0.815 0.144-1.078v-5.811c0-0.227-0.047-0.612-0.144-1.15 0-0.238 0.022-0.524 0.072-0.862-0.050-0.504-0.072-1.053-0.072-1.652v-0.429c0-0.050 0.022-0.072 0.072-0.072l-0.429-1.435v-0.216c0.017-0.094 0.064-0.144 0.147-0.144zM183.892 15.485c-0.191 1.1-0.288 1.771-0.288 2.009l0.072 0.643c-0.144 0.574-0.216 0.984-0.216 1.222v0.216l0.072 0.499h0.072c0.191-0.682 0.335-1.327 0.432-1.937 0-0.103-0.025-0.369-0.072-0.784 0.047-0.529 0.072-0.984 0.072-1.363l-0.072-0.504h-0.072zM183.751 23.958c-0.191 2.56-0.288 4.331-0.288 5.309v0.216h0.216v-0.432c0-0.288 0.072-0.881 0.216-1.79v-2.087c0-0.205-0.025-0.466-0.072-0.79 0.047-0.097 0.072-0.169 0.072-0.216-0.050-0.091-0.072-0.169-0.072-0.211h-0.072zM184.466 22.881c0 0.13-0.169 0.296-0.502 0.499v0.075c0.274 0.050 0.466 0.069 0.574 0.069 0-0.097 0.025-0.147 0.072-0.147-0.047-0.058-0.072-0.227-0.072-0.499h-0.072zM184.18 4.791v0.934c0 0.227 0.022 0.466 0.072 0.718l-0.072 0.36 0.072 0.504c0 0.105-0.025 0.202-0.072 0.288 0.047 0.49 0.072 0.87 0.072 1.147v0.36c0 0.202-0.025 0.466-0.072 0.787 0.047 0.083 0.072 0.18 0.072 0.288l-0.072 0.36c0.047 0.227 0.072 0.563 0.072 1.003h0.072c0.238-0.787 0.357-1.482 0.357-2.081v-0.865c0-0.479 0.025-1.053 0.072-1.724-0.047-0.080-0.072-0.177-0.072-0.288 0-0.047 0.097-0.357 0.288-0.931l-0.718-0.79v-0.072h-0.072zM185.255 18.214c-0.429 1.455-0.646 2.294-0.646 2.511-0.097 0.011-0.144 0.058-0.144 0.141 0.047 0.909 0.072 1.532 0.072 1.868h0.072c0-0.249 0.238-1.521 0.718-3.805v-0.715h-0.072zM184.898 12.184l-0.288 2.366v0.219l0.072 0.718h0.072c0.191-0.094 0.288-0.238 0.288-0.43 0-0.216-0.022-0.36-0.072-0.43 0.050-0.405 0.072-0.743 0.072-1.006v-0.504l-0.075-0.43c0.050-0.083 0.072-0.18 0.072-0.288-0.047-0.097-0.072-0.166-0.072-0.216h-0.069zM185.255 16.92v1.078c0.011 0.097 0.061 0.141 0.144 0.141v-1.363c-0.094 0.017-0.144 0.064-0.144 0.144zM185.76 2.71v1.219c0 0.072-0.050 0.646-0.144 1.724l0.072 0.502h0.072c0-0.837 0.094-1.602 0.288-2.294 0.047-0.599 0.072-0.959 0.072-1.078l-0.144-0.072h-0.216zM185.973 15.055v0.357h0.144v-0.213c0-0.094-0.047-0.144-0.144-0.144zM187.408 27.832c0.108-0.086 0.371-0.396 0.79-0.937-0.036-0.141-0.13-0.238-0.288-0.288-0.31 0.003-0.477 0.407-0.502 1.225zM188.27 29.121c0 0.119 0.047 0.385 0.144 0.79h0.216l0.144-0.504v-0.211c0-0.255-0.072-0.396-0.216-0.432-0.191 0.047-0.288 0.166-0.288 0.357z"></path>
<path d="M207.523 1.707h0.144c0.624 0.144 0.956 0.213 1.006 0.213h0.646c0.252 0 0.635 0.241 1.15 0.72h0.072c0.357-0.479 0.765-0.72 1.219-0.72h0.357c0.072 0 0.144 0.072 0.216 0.216l-0.432 0.504c0 0.047 0.094 0.333 0.288 0.862v2.225c0 0.119-0.072 0.405-0.216 0.862v0.934c-0.191 1.197-0.288 1.912-0.288 2.153 0.191 0.288 0.288 0.479 0.288 0.574 0 0.288-0.025 0.43-0.072 0.43 0.047 0.563 0.072 0.97 0.072 1.219v3.015c0 1.386-0.025 2.535-0.072 3.444 0.047 0.524 0.072 1.482 0.072 2.874 0 0.585-0.025 1.563-0.072 2.94 0.047 0.432 0.094 0.648 0.144 0.648l-0.072 0.499v2.516c0 0.396-0.743 1.208-2.225 2.436-0.083 0.050-0.177 0.075-0.288 0.075h-2.366c-0.205 0-0.466 0.022-0.79 0.069l-0.502-0.147c-0.036 0-0.371 0.075-1.006 0.216l-2.153-0.288c-0.324 0.147-0.585 0.216-0.79 0.216h-0.79l-0.502-0.147c-0.083 0-0.227 0.050-0.429 0.147-1.579-1.327-2.369-2.142-2.369-2.441l0.072-0.427c-0.047-0.266-0.072-0.482-0.072-0.648 0-0.152 0.025-0.277 0.072-0.357-0.058-0.72-0.108-1.125-0.144-1.222 0.047-0.405 0.072-0.743 0.072-1v-2.372c0-0.2-0.025-0.396-0.072-0.574 0.047-0.188 0.072-0.385 0.072-0.574v-2.657c0-0.152-0.025-0.272-0.072-0.357l0.072-0.427v-2.231c0-0.357-0.025-0.621-0.072-0.787 0.047-0.31 0.072-0.623 0.072-0.934v-4.594c0.097-0.466 0.144-0.729 0.144-0.787-0.097-0.551-0.144-0.934-0.144-1.15v-1.507c0-0.166-0.025-0.382-0.072-0.643l0.216-1.579c-0.083-0.238-0.249-0.524-0.502-0.862v-0.144c0.011-0.094 0.058-0.144 0.144-0.144h0.144c0.551 0.238 1.006 0.36 1.363 0.36 0-0.241 0.646-0.432 1.937-0.576h1.219c0.144 0 0.216 0.097 0.216 0.288-0.382 0.432-0.574 1.053-0.574 1.868l0.288 1.291c-0.097 0.36-0.144 0.696-0.144 1.006v0.357c0 0.158 0.022 0.277 0.072 0.36l-0.072 0.429c0 1.125-0.025 2.056-0.072 2.799 0.047 1.388 0.072 2.56 0.072 3.519 0 0.479-0.025 1.197-0.072 2.153 0.047 0.416 0.072 0.779 0.072 1.078-0.050 0.79-0.072 1.386-0.072 1.79l0.072 0.648-0.075 0.139 0.144 1.868c-0.061 1.652-0.155 2.846-0.288 3.588 0 0.574 0.693 0.981 2.081 1.222 0.216-0.050 0.931-0.097 2.153-0.147l0.429 0.357c-0.477 0.385-0.718 0.959-0.718 1.726v0.574l-0.288 0.79c0.047 0.091 0.072 0.169 0.072 0.211h0.216c0.274 0 0.49-0.169 0.646-0.499v-0.579c0.288-0.845 0.432-1.543 0.432-2.078v-0.283c0.335-0.405 0.646-0.693 0.931-0.862l-0.072-0.862v-1.363c0-1.676 0.025-2.946 0.072-3.805-0.047-0.909-0.072-1.676-0.072-2.3 0.047-2.605 0.072-4.159 0.072-4.661-0.047-1.078-0.072-1.749-0.072-2.012 0.047-0.549 0.072-1.078 0.072-1.579l-0.072-0.429 0.144-3.3c-0.097-0.213-0.144-0.524-0.144-0.931v-1.15c0-0.144-0.119-0.477-0.357-1.003v-0.075c0-0.072 0.072-0.144 0.216-0.213zM198.409 4.791l-0.072 0.36c0.011 0.094 0.058 0.144 0.144 0.144 0-0.050 0.022-0.119 0.072-0.216-0.050-0.080-0.072-0.177-0.072-0.288h-0.072zM198.551 22.013l-0.072 0.504v0.432h0.072l0.072-0.72v-0.216h-0.072zM198.695 2.782c-0.097 0.635-0.144 1.064-0.144 1.291 0.202 0 0.321-0.335 0.357-1.003v-0.144c0-0.097-0.047-0.144-0.144-0.144h-0.069zM198.911 8.596c-0.191 0.252-0.288 0.657-0.288 1.219v1.003c0 0.108 0.405 1.067 1.219 2.871v0.43h0.144c-0.144-1.23-0.382-2.020-0.718-2.366v-0.141c0-0.108 0.025-0.202 0.072-0.288-0.047-0.405-0.072-0.743-0.072-1.006v-0.502l-0.429-0.36v-0.285c0.144-0.177 0.216-0.346 0.216-0.504l-0.144-0.069zM198.983 26.754l0.072 0.141v0.288c0 0.169-0.097 0.363-0.288 0.574v0.075c0.036 0.288 0.108 0.427 0.216 0.427h0.144c-0.047-0.416-0.072-0.682-0.072-0.79 0.144-0.238 0.216-0.427 0.216-0.574v-0.216h-0.144l-0.144 0.075zM198.983 21.013v0.141h0.072v-0.141h-0.072zM199.052 16.704v0.648l0.072 0.357h0.072v-0.216c-0.047-0.416-0.072-0.682-0.072-0.79h-0.072zM199.052 18.070v0.147c0 0.227 0.025 0.466 0.072 0.715l-0.072 0.363c0.047 0.26 0.072 0.477 0.072 0.643h0.072c0-0.779 0.025-1.255 0.072-1.435-0.047-0.050-0.072-0.238-0.072-0.574-0.094 0.011-0.144 0.058-0.144 0.141zM199.34 21.517l0.072 0.715v0.79c0.097 0 0.144-0.050 0.144-0.141v-1.225c0-0.091-0.047-0.141-0.144-0.141h-0.072zM199.413 23.454c0 0.26-0.025 0.596-0.072 1 0 0.227 0.047 0.66 0.144 1.294-0.047 0.086-0.072 0.205-0.072 0.357v0.075h0.144c0-0.147 0.025-0.216 0.072-0.216l-0.072-0.147v-0.211c0-0.227 0.050-0.612 0.144-1.153-0.094-0.454-0.144-0.79-0.144-1h-0.144zM199.917 27.259l-0.072 0.141v0.574c-0.191 0.574-0.288 0.887-0.288 0.937 0.133 0 0.346 0.26 0.646 0.784l0.144 0.075h0.072c0.097 0 0.144-0.050 0.144-0.147v-0.069c0-0.108-0.025-0.205-0.072-0.288 0.047-0.086 0.072-0.177 0.072-0.288-0.169-0.297-0.335-0.851-0.502-1.652l-0.144-0.067zM199.845 2.641l-0.072 0.357v0.288c0 0.241 0.050 0.526 0.144 0.865h0.144c0.072 0 0.144-0.097 0.216-0.288-0.108-0.815-0.205-1.219-0.288-1.219h-0.144zM200.848 8.884v0.36l0.072 0.357h0.072l0.072-0.357v-0.219c0-0.094-0.047-0.144-0.144-0.144h-0.072zM200.992 12.328l-0.072 0.36v0.574c0 0.335 0.025 0.524 0.072 0.574-0.047 0.321-0.072 0.587-0.072 0.79v1.652h0.072c0.097-0.84 0.144-1.726 0.144-2.657v-0.574l-0.072-0.718h-0.072zM200.992 27.469l-0.072 0.147c0.036 0.288 0.108 0.427 0.216 0.427 0-0.091 0.025-0.141 0.072-0.141-0.061-0.285-0.133-0.432-0.216-0.432zM201.926 26.469v0.357c0.202 1.125 0.393 1.771 0.574 1.937-0.047 0.266-0.072 0.477-0.072 0.643v0.075c0 0.069 0.097 0.169 0.288 0.288 0.144-0.183 0.216-0.346 0.216-0.504-0.097-0.887-0.357-1.771-0.79-2.657-0.122-0.091-0.194-0.139-0.216-0.139zM204.076 26.61c-0.097 0.158-0.144 0.297-0.144 0.432 0 0.704 0.216 1.208 0.646 1.505 0.144 0 0.288-0.546 0.432-1.652-0.108-0.069-0.418-0.166-0.934-0.285zM207.737 29.049c0.047 0.266 0.072 0.454 0.072 0.574h0.072l0.072-0.357-0.072-0.357c-0.097 0.014-0.144 0.061-0.144 0.141zM208.526 2.782c0.191 0.333 0.288 0.549 0.288 0.643h0.072c0-0.477 0.025-0.718 0.072-0.718-0.047-0.094-0.072-0.169-0.072-0.213h-0.144c-0.047 0.003-0.119 0.097-0.216 0.288zM208.815 25.028v0.288l0.072 0.147c0.288-0.097 0.429-0.288 0.429-0.574l-0.502 0.139zM209.676 19.217c0 0.396-0.094 0.801-0.288 1.222-0.097 0.596-0.144 1.097-0.144 1.505v1.006c0 0.108-0.025 0.2-0.072 0.288 0.047 0.080 0.072 0.177 0.072 0.288v0.139c0 0.108-0.025 0.205-0.072 0.291 0.047 0.080 0.072 0.177 0.072 0.288h0.144c0-0.136 0.097-0.421 0.288-0.867 0-0.069-0.047-0.288-0.144-0.643 0.097-0.216 0.169-0.477 0.216-0.79-0.047-0.715-0.072-1.316-0.072-1.79 0-0.119 0.050-0.363 0.144-0.72-0.047-0.097-0.072-0.169-0.072-0.216h-0.072zM209.316 27.616l-0.144 1.363c0.047 0.427 0.119 0.643 0.216 0.643 0.144 0 0.216-0.097 0.216-0.288-0.094-0.158-0.144-0.296-0.144-0.427v-1.153c0-0.091-0.047-0.139-0.144-0.139zM209.965 9.169l-0.072 0.144v0.36h0.144l0.072-0.36c-0.003-0.094-0.050-0.144-0.144-0.144zM209.965 13.908l-0.072 0.357v1.649c0.011 0.097 0.058 0.147 0.144 0.147 0.144-1.078 0.216-1.746 0.216-2.009-0.119-0.097-0.191-0.144-0.216-0.144h-0.072zM210.322 24.601v1.078c0 0.277-0.097 0.535-0.288 0.79v0.79c0.216 0 0.454-0.959 0.718-2.874l0.216-1.363v-0.141h-0.144c-0.058 0-0.155 0.357-0.288 1.078-0.108 0-0.177 0.211-0.213 0.643zM210.394 16.851c0 0.022-0.025 0.119-0.072 0.288 0 0.080 0.022 0.515 0.072 1.289-0.050 0.421-0.072 0.682-0.072 0.79 0.047 0.194 0.072 0.363 0.072 0.504h0.072l0.072-0.357v-0.862c0-0.405 0.047-0.72 0.144-0.937-0.144-0.335-0.216-0.574-0.216-0.715h-0.072zM210.394 20.151v0.931h0.144v-0.931h-0.144zM210.752 27.686v0.216h0.144c0-0.050 0.025-0.119 0.072-0.216h-0.216z"></path>
<path d="M220.281 1.776c0.155 0.097 0.274 0.144 0.357 0.144l0.357-0.069 0.432 0.069c0.155-0.094 0.297-0.144 0.429-0.144 0.144 0.050 0.216 0.097 0.216 0.144l0.718-0.072h0.288c0.335 0.011 0.502 0.058 0.502 0.144l0.144-0.072h0.429c0.047 0 0.072 0.025 0.072 0.072l0.357-0.216h0.576c0.812 0.191 1.219 0.31 1.219 0.36 1.186 1.136 1.785 1.785 1.796 1.937 0 0.025-0.025 0.119-0.072 0.288 0 0.119 0.022 0.31 0.072 0.574l-0.072 0.72c0.144 0.429 0.216 0.718 0.216 0.862v0.79c0 0.188-0.050 0.502-0.144 0.931 0.177 0.779 0.393 1.255 0.646 1.438v0.144c0 0.069-0.097 0.169-0.288 0.288h-0.144c-0.515 0-0.873-0.025-1.078-0.072-0.371 0.050-0.779 0.072-1.219 0.072h-0.502c-0.238 0-0.624-0.072-1.15-0.216-0.357 0.191-0.599 0.288-0.718 0.288-0.216-0.094-0.335-0.188-0.357-0.288v-0.219c0-0.277 0.263-0.732 0.79-1.363v-0.075l-0.072-0.429c0.097-0.227 0.144-0.441 0.144-0.646-0.429-0.718-0.909-1.075-1.435-1.075h-0.072c-0.249 0-0.466 0.025-0.646 0.069-0.252-0.047-0.49-0.069-0.718-0.069h-0.646c-0.108 0-0.202 0.025-0.288 0.069-0.288-0.083-0.429-0.155-0.429-0.213-0.097 0.083-0.479 0.155-1.15 0.213 0 0.119-0.169 0.36-0.502 0.718v0.576c0 0.346-0.025 0.61-0.072 0.787 0.047 0.31 0.072 0.623 0.072 0.934v0.862c-0.097 1.078-0.144 1.652-0.144 1.724v0.715c0 0.574 0.216 0.934 0.646 1.078 0 0.144 0.119 0.213 0.357 0.213 0.227 0 0.466-0.022 0.718-0.069l0.357 0.069 0.502-0.069 0.718 0.069 0.718-0.069c0.779 0.058 1.377 0.133 1.793 0.216 0.097 0 0.263-0.050 0.502-0.147 0.418 0.050 0.682 0.072 0.79 0.072 0.657-0.050 1.064-0.072 1.219-0.072 0.177 0.050 0.418 0.216 0.718 0.504 0.083 0.025 0.324 0.31 0.718 0.862 0.671 0.529 1.006 0.984 1.006 1.363v0.574c0 0.72-0.025 1.322-0.072 1.796 0.047 0.335 0.072 0.812 0.072 1.435-0.097 0.851-0.144 1.374-0.144 1.579v0.574c0.097 0.693 0.144 1.078 0.144 1.147-0.144 0.887-0.216 1.413-0.216 1.579 0.047 1.341 0.097 2.294 0.144 2.868-0.119 0.471-0.909 1.283-2.366 2.441-0.671-0.058-1.244-0.13-1.724-0.216-0.072 0-0.479 0.075-1.219 0.216-0.036 0-0.18-0.022-0.429-0.069-0.263 0.050-0.457 0.069-0.576 0.069-0.299-0.091-0.49-0.141-0.574-0.141-0.526 0.022-0.79 0.069-0.79 0.141-0.563-0.050-0.97-0.069-1.219-0.069h-2.441c-0.682 0-1.136-0.216-1.363-0.643-1.003-0.898-1.507-1.499-1.507-1.796v-0.934c0-0.612 0.025-1.283 0.072-2.015-0.050-0.163-0.072-0.26-0.072-0.288 0.055-0.258 0.080-0.524 0.080-0.781 0-0.363-0.216-0.959-0.646-1.796v-0.288c0.011-0.097 0.058-0.147 0.144-0.147h2.655c0.047 0 0.072 0.028 0.072 0.075l0.144-0.075h2.081c0.144 0 0.216 0.097 0.216 0.288-0.288 0.756-0.429 1.33-0.429 1.726l0.072 0.357c-0.097 0.454-0.144 0.743-0.144 0.862 0 0.72 0.405 1.125 1.219 1.222l0.502-0.075h0.144c0.49 0 0.873 0.028 1.15 0.075 0.274-0.050 0.657-0.075 1.15-0.075h0.144c0.13 0 0.274 0.050 0.429 0.147 0.263-0.050 0.477-0.069 0.646-0.069h0.216l0.072-0.363c0-0.227-0.022-0.773-0.072-1.652l0.072-0.141c-0.047-0.194-0.072-0.363-0.072-0.504 0-0.563-0.022-1.136-0.072-1.721 0.097-0.84 0.144-1.726 0.144-2.657v-0.072c0-0.385-0.454-0.648-1.363-0.79v-0.072l-0.718 0.069h-2.655c-0.108 0-0.205 0.022-0.288 0.069l-0.144-0.069c-0.155 0-0.274 0.022-0.357 0.069-0.49-0.050-0.873-0.069-1.15-0.069h-1.219c-0.443 0-0.945-0.357-1.507-1.078l-1.219-1.147v-11.555c0-0.61 0.812-1.494 2.441-2.655 0.405 0.094 0.671 0.144 0.79 0.144 0.072 0 0.288-0.050 0.646-0.144 0.097 0 0.263 0.050 0.504 0.144 0.086-0.094 0.732-0.166 1.929-0.216zM215.831 24.385v0.504c0.097 0 0.144-0.050 0.144-0.147v-0.211c-0.003-0.1-0.050-0.147-0.144-0.147zM216.26 11.824v0.144h0.144v-0.288c-0.094 0.014-0.144 0.064-0.144 0.144zM216.549 4.004c0.144 0.382 0.216 0.621 0.216 0.718 0 0.036-0.025 0.177-0.072 0.429l0.072 0.36c0 0.119-0.025 0.31-0.072 0.574l0.144 2.15h-0.072c0.191 0.31 0.288 0.815 0.288 1.507v1.868l0.072 0.357h-0.072l0.072 0.144v0.576c0.036 0.288 0.108 0.43 0.216 0.43l0.072-0.144v-0.072c0-0.202-0.025-0.396-0.072-0.574l0.072-0.36c0-0.047-0.025-0.238-0.072-0.574 0.097-0.502 0.144-0.765 0.144-0.787-0.144-1.879-0.288-3.054-0.429-3.519v-1.219c0-0.263-0.025-0.599-0.072-1.003 0.047-0.097 0.072-0.169 0.072-0.216-0.191-0.357-0.288-0.668-0.288-0.934-0.075-0.003-0.147 0.094-0.219 0.288zM216.621 2.641v0.288h0.144v-0.147c0-0.097-0.050-0.141-0.144-0.141zM216.978 23.74c0 0.050-0.025 0.119-0.072 0.216 0.094 0.188 0.144 0.357 0.144 0.499h0.072l0.072-0.357-0.072-0.357h-0.144zM217.050 24.743l-0.072 0.72v0.357h0.072l0.144-0.862c-0.047-0.091-0.072-0.169-0.072-0.216h-0.072zM217.266 27.544c0 0.044-0.097 0.308-0.288 0.784l0.216 0.147c0.108 0 0.18-0.216 0.216-0.643-0.047-0.086-0.072-0.183-0.072-0.288h-0.072zM217.050 26.322v0.862c0 0.075 0.072 0.147 0.216 0.216v-0.79l0.072-0.357-0.144-0.072c-0.097 0.011-0.144 0.061-0.144 0.141zM217.194 29.121l-0.072 0.363c0.011 0.091 0.058 0.141 0.144 0.141h0.072v-0.504h-0.144zM217.266 13.62v0.216c0.011 0.094 0.058 0.144 0.144 0.144h0.144v-0.144c0-0.072-0.072-0.144-0.216-0.216h-0.072zM221.428 14.695v0.216h0.072v-0.216h-0.072zM221.789 26.826c0 0.238-0.050 0.357-0.144 0.357l0.144 1.435c-0.097 0.216-0.144 0.529-0.144 0.937 0.083 0.238 0.227 0.357 0.429 0.357l0.144-0.288c-0.097-0.2-0.169-0.612-0.216-1.216 0.097-0.194 0.144-0.363 0.144-0.504l-0.072-0.288 0.072-0.432c-0.097-0.216-0.191-0.335-0.288-0.357h-0.069zM223.080 28.833l-0.072 0.363c0.050 0.080 0.072 0.177 0.072 0.288h0.144v-0.648h-0.144zM223.51 2.71v0.288c0.011 0.097 0.058 0.144 0.144 0.144v-0.432h-0.144zM223.582 5.007c0 0.094-0.025 0.144-0.072 0.144 0.047 0.094 0.072 0.169 0.072 0.213h0.072v-0.357h-0.072zM224.945 7.662c0.144 0.321 0.216 0.682 0.216 1.078h0.072l0.144-0.504v-0.718c-0.133 0-0.277 0.050-0.432 0.144zM225.161 4.148v0.787h0.072c0.382-0.083 0.574-0.177 0.574-0.288-0.047-0.346-0.097-0.56-0.144-0.643 0.047-0.083 0.072-0.18 0.072-0.288v-0.216c-0.072 0-0.263 0.213-0.574 0.648zM225.519 18.929v1.51c0.144 0 0.238-0.194 0.288-0.574-0.144-0.551-0.216-0.862-0.216-0.937h-0.072zM225.519 27.328v0.504c0 0.515 0.144 0.851 0.429 1h0.144c-0.169-0.396-0.31-0.898-0.429-1.505h-0.144zM225.807 25.46v0.216c0 0.069 0.072 0.141 0.216 0.216v-0.285c0-0.097-0.047-0.147-0.144-0.147h-0.072zM226.092 26.469v0.069l0.072 0.357h0.144v-0.069l-0.072-0.357h-0.144zM226.452 24.385v0.216h0.072v-0.216h-0.072zM226.741 14.77v0.144h0.072v-0.144h-0.072zM226.741 20.364v0.291h0.072v-0.291h-0.072zM226.813 25.965v0.069c0.011 0.097 0.058 0.147 0.144 0.147v-0.216h-0.144zM226.813 28.833v0.216h0.144c-0.050-0.097-0.072-0.169-0.072-0.216h-0.072zM227.528 5.725c-0.191 0.429-0.31 1.197-0.357 2.297 0.047 0.274 0.072 0.657 0.072 1.147 0.011 0.097 0.058 0.144 0.144 0.144l0.072-0.504v-0.574l0.216-2.511h-0.147zM227.17 27.112v0.072c0.011 0.097 0.058 0.147 0.144 0.147v-0.366c-0.097 0.017-0.144 0.067-0.144 0.147zM227.242 15.629c0.047 0.097 0.072 0.169 0.072 0.216h0.216v-0.216c0-0.091-0.047-0.141-0.144-0.141-0.097 0.008-0.144 0.058-0.144 0.141zM227.242 23.881v0.363h0.072v-0.363h-0.072zM227.528 20.581c0 0.255 0.169 1.352 0.502 3.3v0.288c0.133 0.244 0.227 0.363 0.288 0.363 0-0.302-0.216-1.668-0.646-4.093-0.097 0.011-0.144 0.058-0.144 0.141zM227.6 25.46v0.216h0.072v-0.216h-0.072z"></path>
<path d="M239.443 1.776h0.36c0.249 0 0.466 0.025 0.643 0.072 0.252-0.050 0.493-0.072 0.72-0.072h0.213c0.333 0 0.599 0.050 0.787 0.144 0.18-0.094 0.374-0.144 0.576-0.144h1.219c0.288 0.025 0.429 0.097 0.429 0.216 0 0.202-0.169 0.538-0.502 1.003 0.091 1.363 0.141 2.535 0.141 3.519-0.050 3.588-0.094 5.381-0.141 5.381 0.091 0.466 0.141 1.161 0.141 2.081v0.646c0 0.623-0.022 1.435-0.069 2.436l0.069 0.147-0.069 0.147c0 0.152 0.022 0.272 0.069 0.357 0 0.216-0.022 0.743-0.069 1.579 0.050 2.572 0.069 4.412 0.069 5.525 0 0.335-0.050 0.499-0.141 0.499l0.141 2.804c0 0.2-0.524 0.751-1.577 1.652h-0.213c-0.097-0.335-0.288-0.504-0.576-0.504 0 0.050-0.025 0.069-0.072 0.069 0 0.086 0.147 0.249 0.432 0.504v0.141c0 0.335-0.169 0.504-0.504 0.504h-0.574c-0.191 0-0.385-0.022-0.574-0.069l-0.432 0.069-0.502-0.069c-0.094 0-0.144 0.022-0.144 0.069-0.563-0.050-0.97-0.069-1.219-0.069h-5.739c-0.385 0-1.006-0.524-1.868-1.579-0.158 0-0.396-0.26-0.718-0.79l0.072-0.715c-0.047-2.203-0.072-3.874-0.072-5.024-0.288-0.648-0.429-1.078-0.429-1.294v-0.147c0.097-0.188 0.216-0.288 0.357-0.288 0.385 0.011 0.574 0.058 0.574 0.147 0.097-0.050 0.169-0.069 0.216-0.069 0.346 0 0.898-0.028 1.652-0.075 0.069 0 0.335 0.075 0.79 0.216l1.291-0.216h0.072c0.069 0 0.166 0.097 0.288 0.288-0.407 1.579-0.671 2.369-0.79 2.369l-0.216-0.147-0.069 0.147v0.357c0.155-0.091 0.297-0.141 0.429-0.141 0.119 0.141 0.238 0.834 0.36 2.078 0.119 0.432 0.477 0.648 1.075 0.648 0.252-0.050 0.396-0.075 0.429-0.075 0.147 0 0.216 0.028 0.216 0.075 0.477-0.050 0.837-0.075 1.078-0.075h1.793c0.346 0 0.635-0.308 0.862-0.931-0.047-0.643-0.072-1.125-0.072-1.435v-2.222c0-0.277 0.028-0.443 0.072-0.504l-0.072-0.504c0-1.244 0.028-3.755 0.072-7.534-0.047-1.219-0.072-1.937-0.072-2.153 0-0.050 0.028-0.119 0.072-0.213-0.047-0.527-0.072-0.981-0.072-1.363v-3.303c0-0.72 0.028-1.699 0.072-2.946-0.036-0.346-0.202-0.657-0.502-0.934v-0.069c0-0.072 0.069-0.144 0.213-0.216zM231.263 21.944c0.080 0.482 0.177 1.749 0.288 3.805 0.022 0.011 0.119 0.227 0.288 0.643-0.058 1.125-0.133 1.749-0.216 1.868 0.119 1.056 0.454 1.579 1.006 1.579h0.139c0.050-0.87 0.072-1.444 0.072-1.721l-0.144-0.075c-0.083 0.050-0.177 0.075-0.288 0.075-0.144 0-0.266-0.432-0.36-1.294v-1.433c-0.241-1.483-0.479-2.63-0.718-3.447h-0.066zM233.125 24.244l0.144 0.499c0.097 0 0.144-0.044 0.144-0.141l-0.072-0.504h-0.069c-0.1 0.011-0.147 0.061-0.147 0.147zM233.99 28.763v0.147c0.033 0.288 0.105 0.427 0.213 0.427v-0.069l-0.072-0.504h-0.141zM234.632 27.112v0.574c0.097 0 0.144-0.069 0.144-0.216l-0.072-0.357h-0.072zM235.71 28.475v0.216c0.108 0.427 0.227 0.643 0.357 0.643v-0.069c-0.188-0.288-0.288-0.551-0.288-0.79h-0.069zM236.14 26.896v0.432c0.479 1.327 0.718 2.020 0.718 2.078h0.216l0.069-0.357v-0.285c-0.069-0.612-0.357-1.277-0.862-2.009-0.094 0.011-0.141 0.061-0.141 0.141zM237.936 29.196v0.141h0.069v-0.141h-0.069zM240.518 2.998v0.144h0.072v-0.144h-0.072zM241.167 13.046v0.216l-0.216 1.507 0.069 0.288-0.288 1.937c0.050 0.086 0.072 0.177 0.072 0.288h0.144c0-0.091 0.094-0.26 0.288-0.504v-0.291c0-0.33 0.050-0.596 0.144-0.784-0.047-0.806-0.072-1.424-0.072-1.868v-0.79h-0.141zM241.882 2.497c0 1.84-0.119 3.228-0.357 4.162 0.097 0.296 0.144 0.49 0.144 0.574-0.047 0.646-0.072 1.197-0.072 1.652v0.429h0.072c0.191-0.574 0.288-0.934 0.288-1.078v-1.433c0-0.133 0.072-0.587 0.213-1.363-0.091-0.934-0.141-1.532-0.141-1.793 0-0.155 0.094-0.396 0.288-0.718l-0.069-0.36v-0.216h-0.216c-0.103 0.011-0.15 0.061-0.15 0.144zM241.954 25.749c0 0.108-0.025 0.205-0.072 0.288 0.050 0.324 0.072 0.585 0.072 0.79v0.504h0.144c-0.050-0.482-0.069-0.84-0.069-1.078v-0.288l0.069-0.147-0.144-0.069zM241.954 28.043v0.288h0.072v-0.288h-0.072zM242.957 12.040c0 0.646-0.069 1.458-0.213 2.441v0.069c0.144 0.623 0.213 1.319 0.213 2.081h0.147v-1.219c0-0.308-0.028-0.621-0.072-0.931 0.094-0.551 0.144-0.884 0.144-1.006-0.050-0.704-0.097-1.183-0.144-1.435h-0.075zM242.957 11.037v0.429c0.097 0 0.147-0.050 0.147-0.144v-0.285h-0.147zM242.957 17.712v0.79h0.147v-0.79h-0.147z"></path>
<path d="M246.529 1.776c0.144 0 0.335 0.050 0.574 0.144 0.335-0.094 0.599-0.144 0.79-0.144l0.931 0.144c0.313-0.094 0.526-0.144 0.648-0.144h1.361c0.155 0 0.49 0.050 1.003 0.144 0.147 0 0.335-0.047 0.574-0.144 0.241 0 0.363 0.025 0.363 0.072 1.028-0.050 1.79-0.072 2.294-0.072h4.666c0.43 0 0.643 0.504 0.643 1.507 0.241 1.629 0.36 2.682 0.36 3.159l-0.288 0.144c-0.371-0.047-0.754-0.213-1.147-0.502l-0.144 0.069h-0.574c-0.169 0-0.385-0.025-0.646-0.069-0.094 0.047-0.169 0.069-0.213 0.069-0.147 0-0.216-0.025-0.216-0.069-0.479 0.047-0.84 0.069-1.078 0.069h-2.297c-0.058 0-0.321-0.047-0.787-0.144h-0.504c-0.097 0-0.335 0.050-0.72 0.144-0.238-0.083-0.357-0.202-0.357-0.357 0.097-0.801 0.263-1.566 0.504-2.297-0.097-0.454-0.147-0.815-0.147-1.078v-0.069c-0.333-0.050-0.524-0.072-0.574-0.072l-0.069 0.144v0.934l-0.144 1.291c0.094 0.635 0.191 1.017 0.288 1.15 0 0.058-0.263 0.441-0.79 1.147v0.144c0 0.335 0.050 0.599 0.144 0.79-0.094 0.188-0.144 0.454-0.144 0.787v1.507c0 0.191 0.050 0.504 0.144 0.934-0.094 0.443-0.144 0.707-0.144 0.79 0 0.574 0.504 0.959 1.507 1.147 0.083 0 0.277-0.047 0.574-0.144l0.432 0.072c1.158 0 2.211-0.191 3.156-0.574h0.288c0.097 0.011 0.147 0.058 0.147 0.144v0.357c0 0.169 0.022 0.385 0.069 0.646-0.097 0.191-0.144 0.36-0.144 0.504 0.047 0.144 0.094 0.213 0.144 0.213l-0.069 0.504v2.294l0.069 0.504-0.216 0.147h-0.141c-0.97-0.385-1.521-0.574-1.652-0.574-0.335 0.050-0.526 0.069-0.574 0.069-0.086 0-0.421-0.069-1.006-0.216-0.177 0.097-0.371 0.147-0.574 0.147-0.050 0-0.119-0.028-0.216-0.075-0.188 0.050-0.357 0.075-0.504 0.075l-0.288-0.075c-0.155 0.097-0.297 0.147-0.427 0.147h-0.147l-0.213-0.147c0.058-1.851 0.155-3.001 0.288-3.444-0.036-0.288-0.18-0.43-0.429-0.43-0.097 0.158-0.147 0.277-0.147 0.36-0.047 1.471-0.069 2.425-0.069 2.871-0.094 0.313-0.144 0.524-0.144 0.643v0.075c0.371 0 0.587 0.091 0.646 0.288l-0.432 0.574c0.050 2.294 0.072 4.065 0.072 5.309v1.652c0 0.216 0.191 0.623 0.576 1.222l0.502-0.075h0.072c0.169 0 0.382 0.028 0.643 0.075l0.504-0.147c0.801 0.050 1.424 0.069 1.868 0.069h1.79c0.205 0 0.396 0.028 0.574 0.075 0.194-0.050 0.385-0.075 0.576-0.075h1.219c0.177 0 0.585-0.141 1.216-0.427h0.147c0.069 0 0.141 0.069 0.213 0.216-0.263 2.965-0.502 4.448-0.718 4.448-0.083 0.050-0.177 0.069-0.288 0.069h-2.225c-2.045 0-3.627 0.022-4.736 0.069-0.948-0.050-2.43-0.069-4.45-0.069h-0.865c-0.238 0-0.357-0.050-0.357-0.147-0.238 0.147-0.429 0.216-0.574 0.216h-0.216c-0.108 0-0.177-0.119-0.213-0.357 0.288-0.732 0.429-1.186 0.429-1.363 0-0.704-0.025-1.186-0.069-1.435 0.047-0.995 0.069-1.906 0.069-2.727v-1.937c0-0.709-0.025-1.186-0.069-1.435 0.047-0.504 0.069-1.056 0.069-1.652v-5.168c0-0.169-0.025-0.382-0.069-0.646 0.047-0.094 0.069-0.166 0.069-0.213l-0.069-0.862 0.069-1.006c0-0.371-0.025-0.704-0.069-1.003 0.047-1.591 0.069-2.979 0.069-4.162v-2.657l-0.069-0.36h0.069l-0.429-1.363v-0.072c0.103-0.191 0.247-0.288 0.438-0.288zM247.102 2.641v0.288l0.504 2.439h0.069c0.050-0.166 0.072-0.263 0.072-0.288 0-0.227-0.144-0.92-0.429-2.081 0-0.238-0.050-0.357-0.147-0.357h-0.069zM247.246 8.452l-0.144 0.288c0 1.125 0.144 1.912 0.432 2.366l-0.216 1.219 0.432 2.084v0.646c0.036 0.288 0.105 0.43 0.213 0.43 0-0.238 0.025-0.36 0.072-0.36-0.083-0.31-0.18-1.097-0.288-2.366v-1.937c0-0.119-0.122-0.599-0.36-1.435l0.069-0.36c0.003-0.36-0.066-0.549-0.211-0.574zM247.39 27.544c0 0.141-0.022 0.211-0.069 0.211 0.050 0.097 0.069 0.169 0.069 0.216h0.069v-0.427h-0.069zM247.676 5.797c0 0.025-0.022 0.119-0.069 0.288 0 0.213 0.188 1.028 0.574 2.439 0.288 1.424 0.429 2.599 0.429 3.519h-0.072l0.072 0.144v0.144c0 0.050-0.025 0.072-0.072 0.072 0.072 0.188 0.147 0.288 0.216 0.288 0-0.050 0.025-0.072 0.069-0.072 0-0.047-0.022-0.119-0.069-0.213 0.050-1.053 0.119-1.818 0.216-2.297-0.335 0-0.624-1.172-0.862-3.519-0.050 0-0.169-0.263-0.36-0.787h-0.072zM248.684 2.209l-0.072 0.144c0.144 0.643 0.213 1.097 0.213 1.361v0.79c0.014 0.097 0.058 0.144 0.147 0.144v-0.859c0-0.144 0.069-0.429 0.213-0.862-0.061-0.479-0.23-0.718-0.502-0.718zM248.97 26.322l-0.072 0.357v1.006h0.072c0-0.623 0.094-1.050 0.288-1.294l-0.147-0.069h-0.141zM249.543 28.118v0.069c0 0.266 0.022 0.596 0.069 1.006-0.050 0.080-0.069 0.177-0.069 0.288h0.144v-0.147c0-0.158 0.025-0.277 0.072-0.357-0.047-0.571-0.122-0.859-0.216-0.859zM249.76 13.908v0.502c0.091 0 0.141-0.047 0.141-0.144l-0.069-0.357h-0.072zM250.048 2.566v0.862c0.288 0.299 0.427 0.587 0.427 0.865 0.108 0 0.18-0.169 0.216-0.504l-0.069-0.862h0.069c-0.050-0.385-0.169-0.574-0.357-0.574-0.191 0.072-0.285 0.144-0.285 0.213zM251.48 26.754c0 0.022-0.050 0.38-0.144 1.078v0.427h0.144c0.188-0.715 0.288-1.125 0.288-1.216v-0.147c0-0.091-0.050-0.141-0.144-0.141h-0.144zM252.198 13.761c-0.191 0.097-0.288 0.887-0.288 2.369-0.094 0.011-0.144 0.058-0.144 0.147v0.211h0.144c0.241-0.618 0.36-0.953 0.36-1.003s-0.050-0.288-0.147-0.718c0.147-0.252 0.216-0.49 0.216-0.718v-0.141c0.003-0.097-0.047-0.147-0.141-0.147zM252.916 2.566c0 0.84-0.119 1.793-0.357 2.871l0.144 0.216c0.574-0.050 0.862-0.122 0.862-0.216 0.047-1.577 0.119-2.366 0.213-2.366-0.094-0.36-0.141-0.599-0.141-0.718h-0.574c-0.097 0-0.147 0.072-0.147 0.213zM252.702 28.617c0.047 0.097 0.072 0.169 0.072 0.216h0.141c0.108-0.050 0.299-0.38 0.574-1 0.241-0.058 0.36-0.136 0.36-0.216v-0.357c0-0.075-0.072-0.147-0.213-0.216-0.227 0-0.443 0.38-0.646 1.147-0.036 0-0.133 0.141-0.288 0.427zM252.916 15.704c0.133 0 0.299-0.266 0.504-0.793l-0.072-0.141v-0.504c0-0.119 0.047-0.335 0.141-0.646l-0.141-0.069h-0.072c-0.122-0.003-0.241 0.715-0.36 2.153zM253.561 15.845l-0.072 0.357v0.075c0.014 0.091 0.058 0.141 0.147 0.141 0-0.050 0.022-0.238 0.069-0.574h-0.144z"></path>
</svg>
