<!-- Generated by IcoMoon.io -->
<svg version="1.1" xmlns="http://www.w3.org/2000/svg" width="102" height="32" viewBox="0 0 102 32">
<title>logout</title>
<path d="M2.783 1.321h0.294c0.726 0 1.414 0.024 2.068 0.073 0.332-0.048 0.602-0.073 0.809-0.073 0.097 0 0.27 0.048 0.515 0.145 0.107-0.048 0.332-0.097 0.664-0.145 0.688 0.038 1.034 0.111 1.034 0.221v0.221c-0.249 0.27-0.37 0.615-0.37 1.030-0.052 0-0.149 0.097-0.297 0.294 0 0.097 0.024 0.145 0.073 0.145l-0.073 0.889v1.694c0 0.481 0.024 0.726 0.073 0.736-0.052 0.418-0.073 0.761-0.073 1.030v4.865c0 0.615 0.024 1.376 0.073 2.285-0.048 0.090-0.073 0.211-0.073 0.37 0.038 0.394 0.086 0.591 0.149 0.591l-0.076 0.664c0 1.217-0.024 2.171-0.073 2.877 0.052 1.276 0.073 2.745 0.073 4.422v0.145c0 0.418-0.024 1.034-0.073 1.843 0.602 0.539 0.944 0.809 1.034 0.809 0.318-0.097 0.539-0.145 0.66-0.145h5.975c0.207 0 0.477 0.021 0.809 0.073 0.712-0.294 1.103-0.443 1.179-0.443h0.443c0.073 0 0.149 0.1 0.218 0.297-0.135 0.107-0.256 0.896-0.366 2.358-0.048 0-0.121 0.515-0.218 1.546v0.297c0 0.159-0.245 0.284-0.736 0.366-0.692-0.048-1.283-0.073-1.77-0.073h-1.919c-0.308 0-0.674 0.024-1.103 0.073l-0.443-0.073c-0.615 0.052-0.985 0.073-1.106 0.073l-1.622-0.145c-0.187 0.093-0.38 0.145-0.591 0.145-0.145 0-0.218-0.024-0.218-0.073-0.097 0-0.149 0.024-0.149 0.073-0.909-0.048-1.577-0.073-1.992-0.073h-1.4c-0.322 0-0.809 0.024-1.476 0.073l-0.073-0.145v-0.149c0-0.197 0.149-0.467 0.443-0.809l-0.073-0.149c0-0.073 0.073-0.346 0.218-0.809-0.045-0.826-0.073-1.463-0.073-1.919 0-0.256 0.028-0.674 0.073-1.252l-0.218-1.476c0.097-0.467 0.145-0.833 0.145-1.103v-3.468c-0.097-0.833-0.145-1.3-0.145-1.4v-0.443l0.218-2.064-0.218-1.106c0.097-0.467 0.145-0.837 0.145-1.106v-5.968c0-0.232-0.048-0.626-0.145-1.179 0-0.245 0.024-0.539 0.073-0.885-0.048-0.515-0.073-1.082-0.073-1.694v-0.443c0-0.048 0.024-0.073 0.073-0.073l-0.443-1.476v-0.221c0.014-0.097 0.062-0.145 0.149-0.145zM4.332 15.4c-0.201 1.131-0.297 1.815-0.297 2.061l0.073 0.664c-0.145 0.591-0.218 1.006-0.218 1.255v0.218l0.073 0.515h0.073c0.197-0.702 0.346-1.366 0.443-1.992 0-0.107-0.024-0.38-0.073-0.809 0.052-0.539 0.073-1.006 0.073-1.4l-0.076-0.512h-0.069zM4.184 24.096c-0.197 2.628-0.294 4.45-0.294 5.456v0.221h0.218v-0.446c0-0.294 0.073-0.909 0.221-1.843v-2.133c0-0.211-0.028-0.481-0.073-0.809 0.048-0.1 0.073-0.176 0.073-0.221-0.052-0.097-0.073-0.173-0.073-0.221h-0.073zM4.92 22.99c0 0.135-0.173 0.308-0.515 0.515v0.076c0.284 0.048 0.481 0.073 0.591 0.073 0-0.1 0.024-0.149 0.073-0.149-0.052-0.059-0.076-0.235-0.076-0.515h-0.073zM4.626 4.415v0.958c0 0.235 0.024 0.481 0.073 0.736l-0.073 0.37 0.073 0.515c0 0.111-0.028 0.211-0.073 0.294 0.048 0.505 0.073 0.899 0.073 1.179v0.367c0 0.211-0.028 0.481-0.073 0.813 0.048 0.086 0.073 0.183 0.073 0.294l-0.073 0.37c0.048 0.235 0.073 0.581 0.073 1.034h0.073c0.242-0.813 0.367-1.525 0.367-2.137v-0.885c0-0.491 0.024-1.082 0.073-1.77-0.045-0.083-0.069-0.183-0.069-0.294 0-0.048 0.097-0.367 0.294-0.958l-0.736-0.813v-0.073h-0.073zM5.729 18.201c-0.443 1.497-0.66 2.355-0.66 2.579-0.097 0.014-0.149 0.059-0.149 0.149 0.052 0.934 0.073 1.573 0.073 1.919h0.073c0-0.259 0.245-1.559 0.736-3.911v-0.736h-0.073zM5.363 12.008l-0.294 2.431v0.221l0.073 0.736h0.073c0.197-0.097 0.294-0.245 0.294-0.443 0-0.221-0.028-0.367-0.073-0.443 0.048-0.418 0.073-0.761 0.073-1.030v-0.515l-0.073-0.443c0.048-0.086 0.073-0.183 0.073-0.294-0.052-0.1-0.073-0.173-0.073-0.221h-0.073zM5.729 16.873v1.103c0.014 0.104 0.062 0.149 0.149 0.149v-1.4c-0.097 0.014-0.149 0.062-0.149 0.149zM6.248 2.279v1.255c0 0.073-0.048 0.664-0.149 1.77l0.073 0.515h0.073c0-0.861 0.097-1.646 0.294-2.358 0.052-0.615 0.073-0.982 0.073-1.106l-0.142-0.076h-0.221zM6.469 14.958v0.367h0.145v-0.221c0-0.097-0.048-0.145-0.145-0.145zM7.942 28.079c0.111-0.086 0.38-0.408 0.809-0.958-0.035-0.149-0.135-0.249-0.294-0.297-0.318 0-0.491 0.418-0.515 1.255zM8.827 29.403c0 0.121 0.052 0.391 0.149 0.809h0.218l0.149-0.512v-0.225c0-0.256-0.073-0.405-0.218-0.443-0.201 0.052-0.297 0.173-0.297 0.37z"></path>
<path d="M21.34 1.393h0.809c0.111 0 0.211 0.024 0.294 0.073 0.090-0.048 0.187-0.073 0.294-0.073l0.515 0.073 0.366-0.073c0.201 0.097 0.346 0.145 0.443 0.145 0.187-0.097 0.405-0.145 0.664-0.145l1.552 0.37h1.106c0.515-0.145 1.082-0.27 1.694-0.367l0.519 0.069 0.294-0.073c0.197 0.048 0.366 0.073 0.515 0.073l0.294-0.073c0.173 0 0.764 0.515 1.77 1.546 0.27 0.297 0.515 0.615 0.736 0.961 0 0.097-0.024 0.145-0.073 0.145 0.052 0.664 0.073 1.155 0.073 1.476 0 0.173-0.048 1.94-0.145 5.307v1.328c0.097 0.833 0.145 1.3 0.145 1.4v4.125c0 0.346-0.048 0.615-0.145 0.813 0.097 0.567 0.145 1.252 0.145 2.061v3.686c-0.097 0.712-0.145 1.106-0.145 1.183v1.473c0 0.318 0.024 0.809 0.073 1.473-0.221 0.384-0.813 1.020-1.77 1.919-0.245 0.342-0.515 0.515-0.813 0.515l-0.37-0.073-0.142 0.073-0.443-0.073h-0.149c-0.111 0-0.211 0.024-0.294 0.073-0.090-0.048-0.211-0.073-0.373-0.073-0.159 0-0.28 0.024-0.366 0.073-0.27-0.048-0.491-0.073-0.664-0.073h-1.176l-0.443 0.073c-0.114-0.048-0.432-0.097-0.961-0.145-0.418 0.097-0.688 0.145-0.809 0.145-0.27 0-0.539-0.024-0.809-0.073-0.567 0.052-1.106 0.073-1.625 0.073h-0.588c-0.529 0-0.947-0.27-1.252-0.809-0.221 0-0.664-0.443-1.328-1.328-0.038 0-0.111-0.121-0.221-0.366l0.073-0.885v-1.698c-0.1-1.584-0.149-2.448-0.149-2.583v-4.785c0-0.38 0.028-0.726 0.073-1.034-0.045-0.245-0.073-0.564-0.073-0.958v-1.476c0.097-0.833 0.149-1.3 0.149-1.4v-2.579c-0.149-0.467-0.225-0.833-0.225-1.106 0-1.881 0.073-3.796 0.221-5.75v-0.294c0-0.308 0.27-0.602 0.809-0.885 0.605-0.982 1.248-1.473 1.922-1.473zM20.089 19.452v0.149h0.069v-0.149h-0.069zM20.455 3.015c0.097 0.405 0.145 0.674 0.145 0.809h0.149c0-0.073-0.024-0.418-0.073-1.030 0.052-0.097 0.073-0.173 0.073-0.221h-0.076c-0.142 0.048-0.218 0.197-0.218 0.443zM20.673 10.753v0.294c0.014 0.097 0.062 0.145 0.149 0.145h0.073l-0.073-0.439h-0.149zM21.192 18.789v0.149l0.073 0.37h0.073v-0.519h-0.145zM21.192 19.968v0.225c0.014 0.093 0.062 0.145 0.149 0.145h0.073v-0.145l-0.073-0.373c-0.1 0.014-0.149 0.062-0.149 0.149zM21.485 7.807l-0.221 0.294 0.145 0.515c0.149 0 0.221-0.245 0.221-0.736l-0.145-0.073zM21.558 23.283c-0.045 0.273-0.073 0.467-0.073 0.591 0.052 0.097 0.073 0.173 0.073 0.218h0.149c0-0.197 0.024-0.294 0.073-0.294-0.1-0.245-0.149-0.415-0.149-0.515h-0.073zM21.558 24.981c0.052 0.418 0.076 0.736 0.076 0.958h0.073c0-0.083 0.048-0.284 0.145-0.588-0.097-0.163-0.145-0.284-0.145-0.37h-0.149zM21.634 26.236v0.66h0.073v-0.66h-0.073zM26.35 5.594h-0.66c-0.712 0.1-1.106 0.149-1.183 0.149h-0.145c-0.052 0-0.245-0.048-0.591-0.149l-0.366 0.076v0.367c0 0.923-0.097 1.611-0.294 2.064l-0.149 14.964h-0.076l0.073 0.145v0.591c0 0.052-0.024 0.073-0.073 0.073l0.073 0.145v1.331c0 0.048-0.024 0.073-0.073 0.073 0.159 0.543 0.456 0.813 0.885 0.813l0.294 0.294-0.073 0.366c0.145 0.467 0.294 1.183 0.443 2.137 0.207 0 0.429 0.366 0.66 1.103h0.076c0.443 0 0.66-0.145 0.66-0.439l-0.073-1.030c0.1-0.163 0.149-0.308 0.149-0.443-0.149-0.187-0.218-0.353-0.218-0.515l0.069-0.37c-0.045-0.245-0.145-0.366-0.294-0.366-0.159 0.097-0.308 0.149-0.443 0.149h-0.218c-0.073 0-0.149-0.073-0.221-0.221v-0.37c0.048-0.149 0.194-0.221 0.439-0.221h0.073c0.135 0 0.284 0.048 0.443 0.145 0.322-0.097 0.539-0.145 0.66-0.145h1.549c0.073 0 0.149 0.073 0.218 0.218l-0.066 0.519c0.097 0 0.169-0.245 0.218-0.736 0.346-0.322 0.515-0.615 0.515-0.885v-0.882c0-0.47 0.024-0.937 0.073-1.404l-0.069-0.366 0.145-3.243c-0.048-0.097-0.073-0.173-0.073-0.218l0.221-0.743-0.073-0.443c0.097-0.318 0.149-0.539 0.149-0.664-0.197-0.218-0.294-0.342-0.294-0.366v-0.37c0-0.048 0.024-0.073 0.073-0.073l-0.073-0.149v-0.294c0-0.159 0.024-0.284 0.073-0.367l-0.073-0.443v-0.664c0-0.048 0.024-0.073 0.073-0.073l-0.073-0.149v-0.74c0-1.511 0.024-3.547 0.073-6.116 0.1-0.346 0.149-0.64 0.149-0.885v-0.809c-0.211 0-0.429-0.073-0.66-0.218-0.201 0.097-0.346 0.145-0.443 0.145-0.74-0.111-1.106-0.308-1.106-0.588-0.225 0.194-0.349 0.29-0.373 0.29zM23.111 28.37v0.446l0.073 0.363h0.073v-0.809h-0.145zM23.328 29.625v0.149h0.073v-0.149h-0.073zM23.92 2.279c0 0.149 0.024 0.221 0.073 0.221l-0.073 0.37v1.030c0 0.245-0.028 0.615-0.073 1.106h0.149c0-0.124 0.073-0.515 0.218-1.179v-1.549c0-0.097-0.052-0.145-0.149-0.145-0.097 0.010-0.145 0.059-0.145 0.145zM25.099 4.415v0.221l0.073 0.37h0.218c-0.097-0.443-0.142-0.688-0.142-0.74-0.104 0.014-0.149 0.062-0.149 0.149zM25.69 2.13c0 0.048-0.028 0.073-0.073 0.073 0.183 0.688 0.38 1.030 0.588 1.030h0.073c-0.076-0.733-0.273-1.103-0.588-1.103zM26.35 3.385v0.073c0.097 0.159 0.149 0.284 0.149 0.366h0.073v-0.145c-0.073-0.197-0.145-0.294-0.221-0.294zM27.678 27.415l-0.076 0.366v0.225h0.149v-0.591h-0.073zM28.636 2.279c0 0.052-0.024 0.073-0.073 0.073 0.052 0.097 0.073 0.173 0.073 0.221 0 0.197 0.024 0.64 0.073 1.328h0.073c0.1 0 0.149-0.048 0.149-0.145-0.045-0.985-0.149-1.476-0.294-1.476zM29.154 25.939c0 0.391-0.201 0.937-0.591 1.622v0.519c0.014 0.093 0.062 0.145 0.149 0.145 0.391-1.044 0.588-1.781 0.588-2.213l-0.145-0.073zM29.448 29.109h0.149v-0.294c0.242-0.799 0.366-1.366 0.366-1.694v-0.225c-0.346 0.467-0.515 1.203-0.515 2.213zM29.521 19.819h0.145c0.052-0.256 0.073-0.405 0.073-0.439-0.142 0.048-0.218 0.197-0.218 0.439zM29.742 4.194c-0.1 0.159-0.145 0.308-0.145 0.443v0.294h0.145l0.149-0.515v-0.073c0-0.097-0.052-0.149-0.149-0.149zM30.257 16.652c-0.197 0.774-0.366 1.635-0.515 2.583 0.124 0 0.322-0.736 0.591-2.213v-0.37h-0.076zM30.109 5.743l-0.069 0.515c0.073 0.197 0.145 0.294 0.218 0.294v-0.66c0-0.1-0.048-0.149-0.149-0.149zM30.040 23.508v0.073h0.145v-0.221c-0.1 0.014-0.145 0.059-0.145 0.149zM30.257 10.753l-0.076 0.519v1.106h0.149v-1.183l0.073-0.367-0.145-0.076zM30.257 21.077l-0.076 0.736v0.073c0.014 0.093 0.062 0.145 0.149 0.145v-0.954h-0.073zM30.624 27.484v0.446c-0.294 0.813-0.443 1.324-0.443 1.546 0.052 0.197 0.073 0.366 0.073 0.515l0.149-0.073-0.073-0.145v-0.297c0.294-0.795 0.443-1.411 0.443-1.843v-0.149h-0.149zM30.624 19.235c0 0.135-0.121 0.574-0.366 1.324 0.052 0.1 0.073 0.173 0.073 0.221h0.073l0.294-1.473v-0.073h-0.073zM30.257 22.18v0.591h0.073v-0.591h-0.073zM30.921 18.125c0 0.149-0.052 0.322-0.149 0.515h0.073c0.097 0 0.145-0.052 0.145-0.145v-0.37h-0.069zM30.773 25.572v0.443h0.073l0.073-0.443h-0.145zM30.994 2.794v0.145h0.073v-0.145h-0.073zM30.994 17.461v0.443h0.073v-0.443h-0.073zM31.734 18.125c0 0.297-0.221 1.501-0.664 3.613v0.073c0.232-0.111 0.405-0.923 0.515-2.431 0.194-0.173 0.294-0.37 0.294-0.591v-0.515c0-0.097-0.048-0.149-0.145-0.149zM31.143 29.255v0.149h0.221l0.145-0.512v-0.149c-0.059 0-0.18 0.169-0.366 0.512zM31.509 28.079v0.29h0.149l0.076-0.363v-0.076h-0.076c-0.097 0.014-0.149 0.062-0.149 0.149zM31.806 26.599c-0.1 0.163-0.149 0.311-0.149 0.446h0.073c0.073 0 0.145-0.073 0.218-0.221v-0.076c0.003-0.093-0.041-0.149-0.142-0.149zM31.806 12.523l-0.073 0.37v0.736h0.073l0.073-0.37v-0.736h-0.073zM31.806 22.623l-0.073 0.366v0.145c0.010 0.104 0.059 0.149 0.145 0.149v-0.66h-0.073zM32.028 8.838v0.294h0.149v-0.439c-0.1 0.010-0.149 0.059-0.149 0.145zM32.249 20.338c-0.1 0.418-0.173 1.030-0.221 1.843 0.097 0 0.197-0.591 0.294-1.77v-0.073h-0.073z"></path>
<path d="M38.604 1.321l0.367 0.145c0.346-0.097 0.64-0.145 0.885-0.145h3.022c0.394 0 0.861 0.024 1.4 0.073 0.097-0.048 0.173-0.073 0.218-0.073l0.37 0.145c0.197-0.097 0.367-0.145 0.512-0.145 0.346 0.097 0.515 0.173 0.515 0.221 0.259-0.145 0.505-0.221 0.74-0.221h1.103c0.211 0 0.847 0.515 1.919 1.549 0.391 0.284 0.588 0.896 0.588 1.843 0 0.111-0.024 0.211-0.073 0.294 0.052 0.909 0.073 1.67 0.073 2.285v1.843c0 0.418 0.173 1.058 0.515 1.915v0.145c0 0.073-0.073 0.149-0.218 0.221h-1.919c-0.159 0-0.284-0.024-0.367-0.073l-0.436 0.073h-2.213c-0.073 0-0.173-0.097-0.294-0.294 0-0.159 0.197-0.674 0.588-1.549v-2.507l0.073-0.736c-0.256-0.048-0.526-0.245-0.809-0.588l-0.145 0.073c-0.038 0-0.232-0.024-0.588-0.073l-0.37 0.073c-0.173-0.048-0.27-0.073-0.294-0.073l-0.367 0.073c-0.111 0-0.211-0.024-0.294-0.073-0.418 0.048-0.764 0.073-1.034 0.073h-1.252c-0.211 0.197-0.505 0.418-0.885 0.664 0.097 0.318 0.149 0.539 0.149 0.664v1.916c0 0.529 0.024 0.896 0.073 1.106-0.048 0.432-0.073 0.702-0.073 0.809-0.052 3.921-0.073 6.5-0.073 7.742-0.097 0.346-0.197 0.515-0.294 0.515h-0.149c-0.149-0.052-0.221-0.197-0.221-0.446h-0.073c0 0.716-0.149 1.279-0.443 1.698-0.038 0.591-0.259 1.476-0.664 2.652 0 0.947-0.149 2.375-0.443 4.277v0.073h0.073c0.491-1.041 0.736-2.223 0.736-3.534 0.124-0.201 0.322-0.294 0.591-0.294v-0.076c0-1.227 0.149-1.843 0.443-1.843l0.294-0.073c0.086 0 0.159 0.712 0.221 2.137 0 0.066-0.028 0.308-0.073 0.74l0.073 0.439c-0.052 0.27-0.073 0.494-0.073 0.664 0.491 0.443 0.761 0.664 0.809 0.664h4.35c0.491-0.335 0.736-0.702 0.736-1.106v-4.125c0-0.052 0.052-0.249 0.149-0.591 0-0.097-0.052-0.149-0.149-0.149-0.159 0.097-0.28 0.149-0.367 0.149-0.111 0-0.211-0.024-0.294-0.073-0.332 0.052-0.605 0.073-0.809 0.073h-1.034c-0.159 0-0.256-0.366-0.294-1.103-0.135 0-0.335-1.082-0.591-3.243-0.052 0-0.073-0.048-0.073-0.149 0.097-0.294 0.197-0.443 0.297-0.443l1.622 0.664c0.405 0 0.723-0.024 0.958-0.073 0.564 0.048 1.103 0.073 1.622 0.073h0.073c0.453 0 0.871-0.024 1.252-0.073 0.27 0.048 0.467 0.073 0.588 0.073 0.577-0.048 0.996-0.073 1.255-0.073 0.443 0.035 0.66 0.111 0.66 0.221v0.221l-0.515 1.694v8.035c0 0.107 0.024 0.211 0.073 0.29-0.052 0.086-0.073 0.19-0.073 0.297 0 0.391 0.024 0.857 0.073 1.4-0.27 0.529-1.034 1.314-2.285 2.362-0.083 0.048-0.183 0.073-0.294 0.073h-0.073c-0.429 0-0.923 0.024-1.473 0.073l-0.297-0.073c-0.183 0.052-0.38 0.073-0.588 0.073h-0.301c-0.048 0-0.073-0.024-0.073-0.073l-0.145 0.073h-0.443c-0.837 0-1.794-0.024-2.877-0.073-0.27 0.052-0.467 0.073-0.588 0.073-0.052 0-0.124-0.024-0.221-0.073-0.415 0.052-0.761 0.073-1.030 0.073h-0.515c-1.227-0.145-1.843-0.366-1.843-0.664-0.418-0.356-0.958-0.944-1.622-1.77 0-0.156 0.024-0.28 0.073-0.363-0.052-1.366-0.073-2.496-0.073-3.388v-1.487c0-0.27 0.048-0.636 0.149-1.103-0.1-0.909-0.149-1.794-0.149-2.652v-8.627c0-1.265-0.024-3.032-0.073-5.307 0.052-0.211 0.073-0.626 0.073-1.252l-0.073-0.443c0-0.197 0.764-0.934 2.285-2.213 0.384-0.145 0.633-0.218 0.73-0.218zM36.391 5.007c-0.097 0.453-0.149 1.093-0.149 1.915l0.073 0.367h0.073c0.149-0.048 0.221-0.197 0.221-0.443v-0.145c0-0.173-0.028-0.394-0.073-0.664 0.145-0.232 0.218-0.505 0.218-0.809 0.007-0.149-0.114-0.221-0.363-0.221zM36.467 4.194v0.073c0.111 0 0.256 0.073 0.443 0.221h0.073v-1.176h-0.073c-0.294 0.169-0.443 0.463-0.443 0.882zM36.54 24.905c0.048 0.086 0.073 0.187 0.073 0.297h0.073l0.149-0.073c-0.048-0.173-0.073-0.418-0.073-0.736-0.086 0-0.159 0.169-0.221 0.512zM37.204 13.115c0 0.197 0.028 0.394 0.073 0.588-0.045 0.322-0.073 0.64-0.073 0.958v0.294c0 0.197 0.052 0.515 0.149 0.958h0.073l0.073-0.37v-2.503c0-0.097-0.052-0.145-0.149-0.145s-0.145 0.073-0.145 0.221zM37.204 22.18v0.145h0.149v-0.294c-0.1 0.014-0.149 0.066-0.149 0.149zM37.425 5.079v0.073c0 0.322-0.028 0.64-0.073 0.958v0.149h0.073c0-0.332 0.121-0.553 0.367-0.664-0.149-0.245-0.221-0.418-0.221-0.515h-0.145zM38.013 9.356c0 0.602-0.145 1.338-0.443 2.213 0 0.124-0.024 0.318-0.073 0.588l0.145 0.073c0.232 0 0.405-0.64 0.515-1.919v-0.809c0.003-0.097-0.048-0.145-0.145-0.145zM37.719 4.121v0.443h0.073c0-0.111 0.121-0.871 0.367-2.285h-0.149c-0.19 0-0.29 0.612-0.29 1.843zM39.562 3.164c0 0.052-0.097 0.37-0.294 0.958v0.664l0.073 0.885-0.145 0.073-0.37-0.073v1.106c0 0.183-0.149 0.577-0.443 1.179v0.294l0.809-0.809v-0.667c0-0.183 0.145-0.432 0.443-0.736 0-0.135 0.073-0.308 0.218-0.515-0.097-0.346-0.145-0.64-0.145-0.885v-1.106l-0.073-0.37h-0.073zM38.386 13.702l0.145 0.073h0.073v-0.439c-0.083 0-0.159 0.121-0.218 0.367zM39.268 27.415c0 0.135-0.245 0.626-0.74 1.476-0.048 0.501-0.097 0.795-0.145 0.885 0.062 0.242 0.135 0.363 0.218 0.363h0.073c0.135 0 0.232-0.346 0.294-1.030 0.394-0.197 0.591-0.322 0.591-0.366v-0.076c-0.045-0.837-0.145-1.252-0.29-1.252zM39.195 14.809c0 0.159-0.173 0.698-0.515 1.622h0.073c0.28 0 0.481-0.539 0.588-1.622h-0.145zM38.753 3.164h0.145c0-0.221 0.124-0.515 0.37-0.885-0.066-0.245-0.138-0.367-0.221-0.367-0.159-0.003-0.256 0.415-0.294 1.252zM39.268 10.532l-0.297 1.549v0.221h0.149c0.197-0.405 0.294-0.698 0.294-0.885v-0.443c0-0.048 0.024-0.073 0.073-0.073-0.097-0.159-0.149-0.284-0.149-0.37h-0.069zM39.783 19.819c0.149 0.052 0.221 0.197 0.221 0.446v0.736c0 0.097-0.052 0.149-0.149 0.149-0.391-0.27-0.588-0.446-0.588-0.519 0-0.245 0.169-0.515 0.515-0.813zM39.562 26.309c-0.197 0.318-0.294 0.564-0.294 0.736v0.218l0.512-0.515c0.003-0.256-0.069-0.405-0.218-0.439zM44.797 2.572v0.145h0.073v-0.145h-0.073zM45.682 2.87v0.145c0.145 0.909 0.218 1.646 0.218 2.213v0.145c0.014 0.1 0.062 0.149 0.149 0.149h0.073c0-0.149 0.024-0.221 0.073-0.221l-0.069-0.149c0-0.318 0.024-0.736 0.073-1.252-0.038-1.328-0.138-1.992-0.297-1.992-0.145 0-0.218 0.322-0.218 0.961zM45.9 17.682c0 0.038-0.024 0.235-0.073 0.591 0 0.107 0.028 0.377 0.073 0.809l-0.073 0.366c0.052 0.083 0.073 0.187 0.073 0.294l0.149-0.073c-0.052-0.477-0.073-1.141-0.073-1.988h-0.076zM45.976 26.53v0.366h0.073v-0.366h-0.073zM45.976 29.625v0.149h0.073v-0.149h-0.073zM46.639 10.311v0.294h0.073v-0.294h-0.073zM48.188 8.692l-0.076 0.367v0.073c0 0.259 0.024 0.674 0.073 1.252h0.073v-1.694h-0.069zM48.188 27.93v0.149h0.073v-0.149h-0.073z"></path>
<path d="M55.525 1.393h0.809c0.111 0 0.211 0.024 0.294 0.073 0.086-0.048 0.187-0.073 0.294-0.073l0.515 0.073 0.367-0.073c0.201 0.097 0.346 0.145 0.443 0.145 0.187-0.097 0.405-0.145 0.664-0.145l1.546 0.367h1.106c0.515-0.145 1.082-0.27 1.694-0.367l0.515 0.073 0.294-0.073c0.197 0.048 0.367 0.073 0.515 0.073l0.294-0.073c0.173 0 0.764 0.515 1.77 1.546 0.27 0.294 0.515 0.615 0.736 0.958 0 0.097-0.024 0.145-0.073 0.145 0.052 0.664 0.073 1.155 0.073 1.476 0 0.173-0.048 1.94-0.145 5.307v1.328c0.097 0.837 0.145 1.3 0.145 1.4v4.125c0 0.346-0.048 0.615-0.145 0.813 0.097 0.564 0.145 1.248 0.145 2.061v3.686c-0.097 0.712-0.145 1.106-0.145 1.183v1.473c0 0.318 0.024 0.809 0.073 1.473-0.214 0.387-0.806 1.023-1.76 1.922-0.246 0.346-0.515 0.515-0.813 0.515l-0.367-0.073-0.145 0.073-0.443-0.073h-0.149c-0.111 0-0.211 0.024-0.294 0.073-0.086-0.052-0.211-0.073-0.37-0.073s-0.28 0.024-0.367 0.073c-0.27-0.052-0.491-0.073-0.66-0.073h-1.179l-0.443 0.073c-0.111-0.052-0.432-0.097-0.958-0.145-0.418 0.093-0.688 0.145-0.809 0.145-0.27 0-0.539-0.024-0.809-0.073-0.567 0.052-1.106 0.073-1.625 0.073h-0.588c-0.529 0-0.947-0.27-1.252-0.809-0.221 0-0.664-0.443-1.328-1.328-0.038 0-0.111-0.121-0.221-0.366l0.073-0.885v-1.698c-0.097-1.58-0.149-2.445-0.149-2.579v-4.789c0-0.38 0.028-0.726 0.073-1.034-0.048-0.245-0.073-0.564-0.073-0.958v-1.476c0.097-0.833 0.149-1.3 0.149-1.4v-2.579c-0.149-0.467-0.221-0.837-0.221-1.106 0-1.881 0.073-3.796 0.221-5.75v-0.294c0-0.308 0.27-0.602 0.809-0.885 0.595-0.982 1.234-1.473 1.912-1.473zM54.27 19.452v0.149h0.073v-0.149h-0.073zM54.64 3.015c0.097 0.405 0.145 0.674 0.145 0.809h0.149c0-0.073-0.024-0.418-0.073-1.030 0.052-0.097 0.073-0.173 0.073-0.221h-0.073c-0.149 0.048-0.221 0.197-0.221 0.443zM54.858 10.753v0.294c0.014 0.097 0.062 0.145 0.149 0.145h0.073l-0.073-0.439h-0.149zM55.377 18.789v0.149l0.073 0.37h0.073v-0.519h-0.145zM55.377 19.968v0.225c0.014 0.093 0.062 0.145 0.149 0.145h0.073v-0.145l-0.073-0.37c-0.104 0.010-0.149 0.059-0.149 0.145zM55.671 7.807l-0.218 0.294 0.145 0.515c0.149 0 0.221-0.245 0.221-0.736l-0.149-0.073zM55.743 23.283c-0.048 0.27-0.073 0.467-0.073 0.591 0.052 0.097 0.073 0.173 0.073 0.218h0.149c0-0.197 0.024-0.294 0.073-0.294-0.1-0.245-0.149-0.415-0.149-0.515h-0.073zM55.743 24.981c0.052 0.418 0.073 0.736 0.073 0.958h0.073c0-0.083 0.048-0.284 0.145-0.588-0.097-0.163-0.145-0.284-0.145-0.37h-0.145zM55.819 26.236v0.66h0.073v-0.66h-0.073zM60.535 5.594h-0.66c-0.712 0.1-1.106 0.149-1.182 0.149h-0.145c-0.052 0-0.245-0.048-0.591-0.149l-0.37 0.076v0.367c0 0.923-0.097 1.611-0.294 2.064l-0.149 14.964h-0.073l0.073 0.145v0.591c0 0.052-0.024 0.073-0.073 0.073l0.073 0.145v1.331c0 0.048-0.024 0.073-0.073 0.073 0.159 0.539 0.456 0.809 0.885 0.809l0.294 0.294-0.073 0.366c0.145 0.467 0.294 1.183 0.443 2.137 0.207 0 0.429 0.366 0.66 1.103h0.073c0.443 0 0.66-0.145 0.66-0.439l-0.073-1.034c0.1-0.163 0.149-0.308 0.149-0.443-0.149-0.187-0.218-0.356-0.218-0.515l0.073-0.366c-0.048-0.245-0.145-0.366-0.294-0.366-0.159 0.097-0.308 0.149-0.443 0.149h-0.218c-0.073 0-0.149-0.073-0.221-0.221v-0.366c0.052-0.149 0.197-0.218 0.443-0.218h0.073c0.135 0 0.284 0.048 0.443 0.145 0.322-0.097 0.539-0.145 0.66-0.145h1.549c0.073 0 0.149 0.073 0.218 0.218l-0.073 0.515c0.097 0 0.169-0.245 0.218-0.736 0.346-0.322 0.515-0.615 0.515-0.885v-0.882c0-0.47 0.024-0.937 0.073-1.404l-0.073-0.363 0.145-3.243c-0.048-0.097-0.073-0.173-0.073-0.218l0.218-0.74-0.073-0.443c0.097-0.318 0.149-0.539 0.149-0.664-0.197-0.218-0.294-0.342-0.294-0.366v-0.377c0-0.048 0.024-0.073 0.073-0.073l-0.066-0.149v-0.294c0-0.159 0.024-0.284 0.073-0.367l-0.073-0.443v-0.664c0-0.048 0.024-0.073 0.073-0.073l-0.073-0.149v-0.74c0-1.511 0.024-3.547 0.073-6.116 0.1-0.346 0.149-0.64 0.149-0.885v-0.809c-0.211 0-0.429-0.073-0.66-0.218-0.201 0.097-0.346 0.145-0.443 0.145-0.74-0.111-1.106-0.308-1.106-0.588-0.221 0.194-0.346 0.29-0.37 0.29zM57.292 28.37v0.446l0.073 0.363h0.073v-0.809h-0.145zM57.514 29.625v0.149h0.073v-0.149h-0.073zM58.105 2.279c0 0.149 0.024 0.221 0.073 0.221l-0.073 0.37v1.030c0 0.245-0.028 0.615-0.073 1.106h0.149c0-0.124 0.073-0.515 0.218-1.179v-1.549c0-0.097-0.052-0.145-0.149-0.145-0.1 0.010-0.145 0.059-0.145 0.145zM59.284 4.415v0.221l0.073 0.367h0.218c-0.097-0.443-0.145-0.688-0.145-0.736-0.1 0.014-0.145 0.062-0.145 0.149zM59.872 2.13c0 0.048-0.028 0.073-0.073 0.073 0.183 0.688 0.38 1.030 0.588 1.030h0.073c-0.073-0.733-0.27-1.103-0.588-1.103zM60.535 3.385v0.073c0.097 0.159 0.149 0.284 0.149 0.366h0.073v-0.145c-0.073-0.197-0.149-0.294-0.221-0.294zM61.863 27.415l-0.076 0.366v0.225h0.149v-0.591h-0.073zM62.821 2.279c0 0.052-0.024 0.073-0.073 0.073 0.052 0.097 0.073 0.173 0.073 0.221 0 0.197 0.024 0.64 0.073 1.328h0.073c0.1 0 0.149-0.048 0.149-0.145-0.048-0.985-0.149-1.476-0.294-1.476zM63.336 25.939c0 0.391-0.201 0.937-0.591 1.622v0.519c0.014 0.093 0.062 0.145 0.149 0.145 0.391-1.044 0.588-1.781 0.588-2.213l-0.145-0.073zM63.63 29.109h0.149v-0.294c0.242-0.799 0.366-1.366 0.366-1.694v-0.225c-0.342 0.467-0.515 1.203-0.515 2.213zM63.706 19.819h0.145c0.052-0.256 0.073-0.405 0.073-0.439-0.145 0.048-0.218 0.197-0.218 0.439zM63.924 4.194c-0.097 0.159-0.145 0.308-0.145 0.443v0.294h0.145l0.149-0.515v-0.073c0-0.097-0.048-0.149-0.149-0.149zM64.443 16.652c-0.197 0.774-0.367 1.635-0.515 2.583 0.124 0 0.322-0.736 0.591-2.213v-0.37h-0.076zM64.294 5.743l-0.073 0.515c0.073 0.197 0.145 0.294 0.218 0.294v-0.66c0.003-0.1-0.045-0.149-0.145-0.149zM64.221 23.508v0.073h0.145v-0.221c-0.097 0.014-0.145 0.059-0.145 0.149zM64.443 10.753l-0.076 0.519v1.106h0.149v-1.183l0.073-0.367-0.145-0.076zM64.443 21.077l-0.073 0.736v0.073c0.014 0.093 0.062 0.145 0.149 0.145v-0.954h-0.076zM64.809 27.484v0.446c-0.294 0.809-0.443 1.324-0.443 1.546 0.052 0.197 0.073 0.366 0.073 0.515l0.149-0.073-0.073-0.145v-0.297c0.294-0.795 0.443-1.411 0.443-1.843v-0.149h-0.149zM64.809 19.235c0 0.135-0.121 0.574-0.367 1.324 0.052 0.1 0.073 0.176 0.073 0.221h0.073l0.294-1.473v-0.073h-0.073zM64.443 22.18v0.591h0.073v-0.591h-0.073zM65.106 18.125c0 0.149-0.052 0.322-0.149 0.515h0.073c0.097 0 0.145-0.052 0.145-0.145v-0.37h-0.069zM64.958 25.572v0.443h0.073l0.073-0.443h-0.145zM65.179 2.794v0.145h0.073v-0.145h-0.073zM65.179 17.461v0.443h0.073v-0.443h-0.073zM65.915 18.125c0 0.297-0.221 1.501-0.664 3.613v0.073c0.232-0.111 0.405-0.923 0.515-2.431 0.197-0.176 0.294-0.37 0.294-0.595v-0.512c0-0.097-0.045-0.149-0.145-0.149zM65.328 29.255v0.149h0.221l0.145-0.515v-0.145c-0.062 0-0.183 0.169-0.367 0.512zM65.694 28.079v0.29h0.149l0.073-0.363v-0.076h-0.073c-0.097 0.014-0.149 0.062-0.149 0.149zM65.992 26.599c-0.1 0.163-0.149 0.311-0.149 0.446h0.073c0.073 0 0.145-0.073 0.218-0.221v-0.076c0.003-0.093-0.045-0.149-0.142-0.149zM65.992 12.523l-0.073 0.37v0.736h0.073l0.073-0.367v-0.74h-0.073zM65.992 22.623l-0.073 0.366v0.145c0.010 0.1 0.062 0.149 0.145 0.149v-0.66h-0.073zM66.209 8.838v0.294h0.149v-0.439c-0.097 0.010-0.149 0.059-0.149 0.145zM66.434 20.338c-0.1 0.418-0.173 1.030-0.221 1.843 0.097 0 0.197-0.591 0.294-1.77v-0.073h-0.073z"></path>
<path d="M79.791 1.245h0.149c0.64 0.149 0.982 0.221 1.030 0.221h0.664c0.256 0 0.65 0.246 1.179 0.736h0.073c0.367-0.491 0.788-0.736 1.252-0.736h0.367c0.073 0 0.149 0.073 0.221 0.221l-0.443 0.515c0 0.048 0.097 0.346 0.294 0.885v2.285c0 0.124-0.073 0.418-0.221 0.885v0.958c-0.197 1.227-0.294 1.964-0.294 2.213 0.197 0.294 0.294 0.491 0.294 0.588 0 0.294-0.024 0.443-0.073 0.443 0.048 0.577 0.073 0.996 0.073 1.252v3.098c0 1.425-0.024 2.604-0.073 3.537 0.048 0.539 0.073 1.521 0.073 2.949 0 0.602-0.024 1.611-0.073 3.022 0.048 0.443 0.097 0.66 0.145 0.66l-0.073 0.515v2.583c0 0.405-0.761 1.238-2.282 2.507-0.086 0.048-0.187 0.073-0.297 0.073h-2.431c-0.211 0-0.481 0.021-0.809 0.073l-0.515-0.145c-0.038 0-0.38 0.073-1.034 0.218l-2.213-0.294c-0.332 0.149-0.602 0.218-0.809 0.218h-0.809l-0.515-0.145c-0.083 0-0.232 0.048-0.443 0.145-1.622-1.362-2.431-2.199-2.431-2.507l0.073-0.443c-0.052-0.27-0.073-0.494-0.073-0.66 0-0.163 0.024-0.284 0.073-0.37-0.062-0.736-0.111-1.155-0.149-1.252 0.052-0.415 0.073-0.761 0.073-1.030v-2.431c0-0.207-0.024-0.405-0.073-0.591 0.052-0.197 0.073-0.391 0.073-0.588v-2.728c0-0.159-0.024-0.284-0.073-0.366l0.073-0.443v-2.285c0-0.37-0.024-0.64-0.073-0.813 0.052-0.318 0.073-0.64 0.073-0.958v-4.716c0.097-0.481 0.149-0.75 0.149-0.813-0.097-0.564-0.149-0.958-0.149-1.179v-1.546c0-0.173-0.024-0.394-0.073-0.664l0.221-1.622c-0.086-0.245-0.259-0.539-0.515-0.882v-0.152c0.010-0.097 0.062-0.145 0.149-0.145h0.145c0.567 0.246 1.034 0.367 1.4 0.367 0-0.246 0.66-0.443 1.988-0.588h1.252c0.149 0 0.221 0.097 0.221 0.294-0.391 0.443-0.591 1.082-0.591 1.915l0.297 1.328c-0.097 0.367-0.149 0.712-0.149 1.030v0.37c0 0.159 0.024 0.284 0.073 0.367l-0.073 0.443c0 1.155-0.024 2.113-0.073 2.877 0.052 1.425 0.073 2.628 0.073 3.613 0 0.491-0.024 1.227-0.073 2.209 0.052 0.432 0.073 0.799 0.073 1.106-0.052 0.809-0.073 1.425-0.073 1.843l0.073 0.664-0.073 0.145 0.149 1.916c-0.062 1.694-0.159 2.925-0.294 3.686 0 0.588 0.709 1.006 2.137 1.252 0.218-0.052 0.954-0.097 2.209-0.145l0.443 0.363c-0.491 0.394-0.736 0.985-0.736 1.77v0.591l-0.294 0.813c0.048 0.093 0.073 0.169 0.073 0.218h0.218c0.284 0 0.505-0.173 0.664-0.515v-0.588c0.294-0.875 0.443-1.587 0.443-2.14v-0.29c0.342-0.415 0.66-0.712 0.954-0.885l-0.062-0.882v-1.404c0-1.718 0.024-3.018 0.073-3.904-0.048-0.937-0.073-1.722-0.073-2.362 0.048-2.68 0.073-4.277 0.073-4.792-0.048-1.106-0.073-1.794-0.073-2.064 0.048-0.564 0.073-1.106 0.073-1.622l-0.073-0.439 0.145-3.392c-0.097-0.221-0.145-0.539-0.145-0.958v-1.179c0-0.145-0.124-0.491-0.37-1.030v-0.076c0-0.073 0.073-0.145 0.221-0.221zM70.428 4.415l-0.073 0.367c0.010 0.097 0.062 0.145 0.145 0.145 0-0.048 0.028-0.121 0.073-0.221-0.048-0.086-0.073-0.183-0.073-0.294h-0.073zM70.576 22.108l-0.073 0.515v0.443h0.073l0.073-0.74v-0.218h-0.073zM70.725 2.351c-0.097 0.65-0.149 1.093-0.149 1.328 0.211 0 0.332-0.346 0.367-1.030v-0.149c0-0.097-0.048-0.145-0.145-0.145h-0.073zM70.946 8.322c-0.197 0.256-0.294 0.674-0.294 1.252v1.030c0 0.111 0.418 1.093 1.252 2.949v0.439h0.149c-0.149-1.265-0.394-2.075-0.74-2.431v-0.145c0-0.111 0.028-0.207 0.073-0.294-0.048-0.418-0.073-0.761-0.073-1.034v-0.512l-0.443-0.367v-0.297c0.149-0.183 0.221-0.356 0.221-0.515l-0.145-0.076zM71.019 26.973l0.073 0.149v0.294c0 0.173-0.097 0.366-0.294 0.591v0.073c0.038 0.29 0.107 0.439 0.218 0.439h0.149c-0.052-0.429-0.073-0.698-0.073-0.809 0.149-0.242 0.218-0.443 0.218-0.588v-0.225h-0.145l-0.145 0.076zM71.019 21.077v0.145h0.073v-0.145h-0.073zM71.095 16.652v0.664l0.073 0.366h0.073v-0.221c-0.052-0.429-0.073-0.698-0.073-0.809h-0.073zM71.095 18.052v0.149c0 0.232 0.024 0.481 0.073 0.736l-0.073 0.37c0.048 0.27 0.073 0.491 0.073 0.66h0.073c0-0.795 0.024-1.29 0.073-1.473-0.048-0.052-0.073-0.249-0.073-0.591-0.1 0.014-0.145 0.062-0.145 0.149zM71.385 21.589l0.073 0.736v0.809c0.097 0 0.149-0.048 0.149-0.145v-1.252c0-0.097-0.052-0.149-0.149-0.149h-0.073zM71.461 23.581c0 0.27-0.024 0.615-0.073 1.034 0 0.228 0.052 0.674 0.149 1.324-0.052 0.086-0.073 0.211-0.073 0.37v0.073h0.149c0-0.145 0.024-0.218 0.073-0.218l-0.073-0.149v-0.225c0-0.228 0.048-0.626 0.145-1.176-0.097-0.47-0.145-0.813-0.145-1.034h-0.152zM71.977 27.484l-0.073 0.149v0.591c-0.197 0.591-0.294 0.909-0.294 0.954 0.135 0 0.356 0.273 0.66 0.813l0.149 0.073h0.073c0.097 0 0.145-0.048 0.145-0.145v-0.073c0-0.111-0.024-0.207-0.073-0.294 0.048-0.086 0.073-0.183 0.073-0.297-0.173-0.304-0.346-0.871-0.512-1.694l-0.149-0.076zM71.904 2.206l-0.073 0.366v0.297c0 0.245 0.052 0.539 0.149 0.885h0.149c0.073 0 0.145-0.097 0.218-0.294-0.111-0.837-0.211-1.252-0.294-1.252h-0.149zM72.938 8.616v0.37l0.073 0.367h0.073l0.073-0.367v-0.221c0-0.1-0.048-0.149-0.145-0.149h-0.073zM73.083 12.157l-0.073 0.367v0.591c0 0.342 0.024 0.539 0.073 0.588-0.048 0.332-0.073 0.602-0.073 0.809v1.694h0.073c0.097-0.861 0.149-1.77 0.149-2.728v-0.588l-0.073-0.736h-0.076zM73.083 27.709l-0.073 0.149c0.035 0.294 0.107 0.443 0.218 0.443 0-0.097 0.024-0.149 0.073-0.149-0.055-0.294-0.131-0.443-0.218-0.443zM74.041 26.675v0.37c0.211 1.155 0.405 1.815 0.591 1.988-0.052 0.27-0.073 0.491-0.073 0.664v0.073c0 0.073 0.097 0.169 0.294 0.29 0.149-0.183 0.221-0.356 0.221-0.512-0.097-0.913-0.367-1.815-0.809-2.728-0.128-0.097-0.201-0.145-0.225-0.145zM76.254 26.824c-0.097 0.163-0.149 0.308-0.149 0.443 0 0.726 0.221 1.238 0.664 1.549 0.149 0 0.294-0.567 0.443-1.694-0.111-0.076-0.432-0.176-0.958-0.297zM80.012 29.327c0.052 0.27 0.073 0.467 0.073 0.591h0.073l0.073-0.366-0.073-0.37c-0.097 0.010-0.145 0.062-0.145 0.145zM80.825 2.351c0.197 0.346 0.294 0.567 0.294 0.664h0.073c0-0.491 0.024-0.736 0.073-0.736-0.052-0.097-0.073-0.169-0.073-0.218h-0.149c-0.048-0.003-0.121 0.097-0.218 0.29zM81.119 25.202v0.294l0.073 0.149c0.294-0.097 0.443-0.294 0.443-0.591l-0.515 0.149zM82.004 19.235c0 0.405-0.097 0.823-0.294 1.252-0.1 0.615-0.149 1.131-0.149 1.546v1.034c0 0.111-0.024 0.207-0.073 0.294 0.052 0.086 0.073 0.183 0.073 0.297v0.145c0 0.111-0.024 0.211-0.073 0.294 0.052 0.086 0.073 0.187 0.073 0.297h0.149c0-0.135 0.097-0.432 0.294-0.885 0-0.073-0.052-0.297-0.149-0.66 0.097-0.221 0.173-0.494 0.221-0.813-0.052-0.736-0.073-1.352-0.073-1.839 0-0.124 0.048-0.37 0.145-0.74-0.048-0.097-0.073-0.173-0.073-0.218h-0.073zM81.634 27.858l-0.149 1.397c0.052 0.446 0.121 0.664 0.221 0.664 0.145 0 0.218-0.097 0.218-0.294-0.097-0.163-0.149-0.308-0.149-0.446v-1.172c0.003-0.104-0.041-0.149-0.142-0.149zM82.298 8.914l-0.076 0.145v0.37h0.149l0.073-0.37c0.003-0.097-0.048-0.145-0.145-0.145zM82.298 13.775l-0.076 0.37v1.694c0.014 0.097 0.062 0.145 0.149 0.145 0.149-1.106 0.218-1.794 0.218-2.064-0.121-0.097-0.197-0.149-0.218-0.149h-0.073zM82.664 24.76v1.103c0 0.284-0.097 0.553-0.294 0.809v0.809c0.218 0 0.467-0.979 0.736-2.946l0.221-1.404v-0.142h-0.149c-0.062 0-0.159 0.366-0.294 1.103-0.111 0.003-0.183 0.225-0.221 0.667zM82.74 16.8c0 0.024-0.024 0.121-0.073 0.294 0 0.086 0.028 0.529 0.073 1.328-0.048 0.429-0.073 0.698-0.073 0.809 0.052 0.197 0.073 0.366 0.073 0.512h0.073l0.073-0.363v-0.882c0-0.418 0.048-0.74 0.145-0.961-0.145-0.342-0.218-0.588-0.218-0.736h-0.073zM82.74 20.192v0.958h0.149v-0.958h-0.149zM83.107 27.93v0.218h0.149c0-0.052 0.024-0.121 0.073-0.218h-0.221z"></path>
<path d="M85.928 1.393h1.034c1.974 0.342 3.084 0.515 3.316 0.515 0.539-0.197 0.885-0.294 1.034-0.294h1.77c0.453 0 1.089-0.024 1.915-0.073 0.097 0.048 0.173 0.073 0.221 0.073l0.512-0.073c0.135 0 0.629 0.024 1.476 0.073 0.073 0 0.294-0.048 0.66-0.149l0.515 0.073c0.162-0.097 0.308-0.145 0.443-0.145 0.086 0 0.211 0.048 0.367 0.145 0.322-0.097 0.539-0.145 0.664-0.145h0.149c0.443 0 0.66 0.197 0.66 0.588 0 1.338 0.073 2.593 0.218 3.758v0.145c-0.097 0.197-0.242 0.294-0.439 0.294-0.432-0.342-0.799-0.515-1.106-0.515h-0.809c-0.073 0-0.467 0.048-1.179 0.145-0.304-0.090-0.501-0.138-0.588-0.138-0.982 0.124-1.476 0.245-1.476 0.367l0.073 0.294c-0.145 0-0.246 0.982-0.294 2.949l0.218 0.515c-0.097 0.346-0.145 0.615-0.145 0.809l0.073 0.443c-0.052 0.27-0.073 0.539-0.073 0.809 0 0.235 0.024 0.481 0.073 0.736-0.052 0.259-0.073 0.405-0.073 0.443 0.048 0.553 0.073 1.068 0.073 1.549 0 0.048-0.028 0.124-0.073 0.221 0.097 0.197 0.145 0.467 0.145 0.809 0 0.259-0.024 0.481-0.073 0.664 0.048 0.318 0.073 0.64 0.073 0.958v0.294c0 1.473-0.073 2.209-0.218 2.209l0.073 0.149v0.958c0 0.346 0.048 0.615 0.145 0.809l-0.145 0.515c0.097 0.245 0.145 0.415 0.145 0.515-0.048 0.65-0.073 1.189-0.073 1.622 0 0.097-0.028 0.149-0.073 0.149l0.073 0.366v0.954c0 0.211-0.028 0.481-0.073 0.809l0.145 0.37c-0.097 0.221-0.145 0.539-0.145 0.958v0.512c0 0.149 0.218 0.837 0.66 2.068-0.073 0.197-0.145 0.294-0.218 0.294h-4.35c-0.539 0-0.809-0.073-0.809-0.218v-0.207l0.443-1.4v-0.809c0-0.111 0.024-0.207 0.073-0.294-0.048-0.086-0.073-0.187-0.073-0.297v-0.221c0-0.443 0.024-0.74 0.073-0.885-0.045-0.429-0.069-0.799-0.069-1.103v-1.034c0-0.38 0.024-0.723 0.073-1.034-0.048-0.242-0.073-0.564-0.073-0.958v-0.218c0-0.159 0.024-0.28 0.073-0.366l-0.145-1.183c0.048-0.425 0.073-0.795 0.073-1.103v-0.149c0-0.284-0.028-0.674-0.073-1.183l0.145-0.366-0.073-0.664 0.073-1.030-0.145-0.885c0.048-0.259 0.073-0.505 0.073-0.736v-0.297l0.218-0.294c-0.197-0.245-0.294-0.394-0.294-0.443 0.048-0.934 0.097-1.4 0.145-1.4l-0.069-0.37v-3.022c0-0.173 0.024-0.394 0.073-0.664 0-1.425-0.391-2.137-1.179-2.137-0.367-0.097-0.712-0.145-1.030-0.145h-0.591c-0.197 0-0.515 0.048-0.958 0.145-0.322-0.097-0.64-0.145-0.958-0.145-0.615 0.048-0.934 0.073-0.954 0.073-0.1-0.159-0.149-0.284-0.149-0.37 0.246-1.535 0.367-2.569 0.367-3.098v-0.218c0-0.27 0.149-0.491 0.443-0.664zM92.121 8.395l-0.221 0.294v0.145c0 0.038 0.052 0.235 0.149 0.591v0.073c-0.294 0.418-0.443 0.837-0.443 1.252 0.048 0.086 0.073 0.187 0.073 0.294 0.145 0 0.346-0.567 0.588-1.694v-0.806c0-0.1-0.048-0.149-0.145-0.149zM91.602 11.714v0.443h0.149v-0.443h-0.149zM91.678 22.696c0 0.048-0.028 0.121-0.073 0.218 0.048 0.543 0.121 1.131 0.218 1.77-0.048 0.259-0.073 0.405-0.073 0.443 0.048 0.097 0.073 0.173 0.073 0.221 0.073 0 0.149-0.073 0.221-0.221v-1.469c0-0.187-0.097-0.505-0.294-0.958h-0.073zM91.678 12.523v0.37l0.218 0.294v0.294l0.076 0.736h0.073c0-0.035 0.024-0.183 0.073-0.443 0-0.284-0.124-0.698-0.367-1.252h-0.073zM91.896 14.588l-0.145 0.515c0.342 0.788 0.512 1.255 0.512 1.4v0.515c0.014 0.097 0.066 0.145 0.149 0.145l0.073-0.145v-0.145c0-0.332-0.173-0.996-0.515-1.992v-0.294h-0.073zM91.896 17.537c0 0.197-0.024 0.294-0.073 0.294l0.073 0.366-0.073 0.443c0.052 0.083 0.073 0.211 0.073 0.366h0.149c0.048-0.494 0.073-0.857 0.073-1.106v-0.363h-0.221zM92.338 28.3l-0.145 0.591c0.062 0.29 0.135 0.439 0.218 0.439l0.073-0.366v-0.519c0.003-0.097-0.048-0.145-0.145-0.145zM92.266 2.5v0.664c0 0.259 0.097 0.432 0.297 0.515 0.145-0.332 0.242-0.775 0.294-1.328l-0.218-0.145c-0.225 0.097-0.349 0.194-0.373 0.294zM92.338 29.552l-0.073 0.366v0.073c0.052 0 0.124 0.024 0.221 0.073l0.073-0.145-0.073-0.366h-0.149zM92.636 13.336v0.439c0.097 0.64 0.145 1.155 0.145 1.549h0.073v-0.443c-0.052-0.553-0.073-1.044-0.073-1.473l-0.145-0.073zM92.781 17.903l-0.073 0.519v0.958h0.073c0-0.086 0.024-0.529 0.073-1.331v-0.145h-0.073zM92.93 29.701v0.145h0.073v-0.145h-0.073zM93.078 25.054l-0.073 0.149v0.809h0.218l0.149-0.515c-0.097-0.294-0.197-0.443-0.294-0.443zM93.224 4.564v0.736h0.149v-0.885c-0.097 0.014-0.149 0.062-0.149 0.149zM93.224 6.846v0.958c0.014 0.1 0.059 0.149 0.149 0.149 0-0.048 0.024-0.073 0.073-0.073l-0.073-0.149v-0.885h-0.149zM93.224 8.838v0.74h0.073c0.038-0.394 0.083-0.588 0.149-0.588-0.052-0.086-0.073-0.187-0.073-0.294-0.097 0.007-0.149 0.055-0.149 0.142zM93.815 18.052v1.843l-0.073 0.736h0.149c0-0.304 0.173-1.068 0.512-2.282-0.294-0.121-0.443-0.27-0.443-0.443-0.1 0.010-0.145 0.059-0.145 0.145zM93.815 14.881v0.958h0.145c0.149-0.529 0.221-0.847 0.221-0.958v-0.515h-0.073c-0.197 0.073-0.294 0.245-0.294 0.515zM94.109 25.572v1.179l-0.294 2.877h0.145c0.201-0.581 0.297-1.635 0.297-3.171v-0.885h-0.149zM94.551 2.5c0.014 0.1 0.062 0.149 0.149 0.149v-0.149h-0.149zM95.066 4.564c0 0.048-0.024 0.124-0.073 0.221 0.052 0.097 0.073 0.173 0.073 0.221h0.885v-0.443h-0.885zM95.288 2.648v0.145h0.073v-0.145h-0.073zM96.024 2.648v0.515c0.010 0.1 0.062 0.149 0.145 0.149 0-0.124 0.028-0.318 0.073-0.591l-0.145-0.073h-0.073zM96.837 2.206c-0.052 1.29-0.073 2.247-0.073 2.877 0.149 0.048 0.218 0.097 0.218 0.145 0.246 0 0.37-0.761 0.37-2.285 0.048-0.27 0.073-0.491 0.073-0.664l-0.145-0.073h-0.443zM98.458 4.564v0.145h0.073v-0.145h-0.073zM99.046 2.942c-0.097 0.322-0.149 0.543-0.149 0.664v0.073c0.121 0 0.221-0.221 0.294-0.664l-0.145-0.073zM99.931 4.343l-0.367 0.515v0.221c0 0.111 0.218 0.183 0.66 0.221v-0.073c-0.059-0.591-0.159-0.885-0.294-0.885z"></path>
</svg>
