<!-- Generated by IcoMoon.io -->
<svg version="1.1" xmlns="http://www.w3.org/2000/svg" width="500" height="500" viewBox="0 0 32 32">
<title>profielicoon</title>
<path d="M32.077 16.034c-0.015 8.819-7.225 15.988-16.058 15.966-8.818-0.024-15.97-7.238-15.942-16.080 0.029-8.818 7.249-15.956 16.1-15.92 8.773 0.036 15.916 7.237 15.9 16.034zM16.075 30.315c7.864 0 14.309-6.436 14.317-14.296 0.010-7.87-6.414-14.321-14.273-14.336-7.911-0.015-14.365 6.428-14.357 14.335 0.007 7.864 6.447 14.295 14.313 14.297z"></path>
<path d="M24.913 23.699c-5.889 0-11.741 0-17.834 0 0.107-1.624 0.092-3.244 0.38-4.807 0.107-0.58 0.848-1.189 1.449-1.489 0.698-0.351 1.555-0.514 2.347-0.529 3.223-0.055 6.448-0.032 9.67-0.013 0.529 0.002 1.064 0.091 1.579 0.218 1.719 0.419 2.488 1.411 2.499 3.187 0.007 1.065-0.006 2.129-0.011 3.194-0.002 0.053-0.035 0.106-0.079 0.239z"></path>
<path d="M11.513 11.273c0.004-2.555 2.042-4.569 4.604-4.554 2.531 0.015 4.542 2.081 4.525 4.645-0.022 2.514-2.040 4.512-4.564 4.512-2.544 0.001-4.569-2.042-4.565-4.603z"></path>
</svg>
