<!-- Generated by IcoMoon.io -->
<svg version="1.1" xmlns="http://www.w3.org/2000/svg" width="111" height="32" viewBox="0 0 111 32">
<title>profiel</title>
<path d="M1.332 0.885l1.295 0.152 0.305-0.152c0.672 0.051 1.207 0.127 1.6 0.229 0.127 0 0.33-0.025 0.609-0.076 0.635 0.051 0.965 0.076 0.99 0.076 0.939-0.051 1.726-0.076 2.361-0.076 0.166-0.101 0.318-0.152 0.457-0.152h0.305c0.088 0 0.316 0.076 0.686 0.229 0.202-0.076 0.304-0.152 0.304-0.229 0.33 0 1.396 0.102 3.199 0.305 0.203-0.101 0.482-0.152 0.838-0.152 0.291 0 0.951 0.609 1.98 1.828 0.164 0 0.316 0.254 0.457 0.762 0 0.178-0.026 0.406-0.076 0.686 0.101 1.129 0.152 1.943 0.152 2.437-0.051 1.625-0.076 2.564-0.076 2.818 0 0.166 0.025 0.291 0.076 0.381-0.051 0.432-0.076 0.787-0.076 1.066v5.941c0 0.33-0.584 0.965-1.752 1.904-0.304 0.457-0.584 0.685-0.837 0.685-0.483 0.051-1.016 0.077-1.6 0.077h-0.304c-0.699 0-1.18-0.026-1.447-0.077-0.483 0.051-1.015 0.077-1.599 0.077h-1.831c-0.609 0-0.914-0.101-0.914-0.305l0.076-0.686c-0.203-0.761-0.33-1.802-0.381-3.122-0.152-0.203-0.254-0.305-0.305-0.305l-0.076 0.152c0.203 0.572 0.305 0.926 0.305 1.066v2.589l0.305 0.454c-0.152 0.534-0.229 0.863-0.229 0.99v0.914c0 0.699 0.026 1.613 0.076 2.742 0 0.050-0.026 0.076-0.076 0.076l0.076 0.38v4.722c0 0.28 0.152 0.863 0.457 1.753 0 0.076-0.102 0.178-0.305 0.305l-0.685-0.077-0.381 0.077c-0.279-0.051-0.508-0.077-0.685-0.077l-0.381 0.077-0.304-0.077c-0.026 0-0.355 0.026-0.99 0.077-0.634-0.051-0.99-0.077-1.066-0.077-0.28 0.050-0.508 0.077-0.686 0.077l-0.229-0.305c0.406-1.004 0.609-1.639 0.609-1.904v-8.988c0-0.277 0.025-0.634 0.076-1.064-0.051-0.051-0.076-0.254-0.076-0.61 0-0.254 0.025-0.381 0.076-0.381-0.051-0.508-0.076-0.888-0.076-1.142v-3.199c0-2.221-0.026-5.064-0.076-8.529 0.037-0.507 0.088-0.761 0.152-0.761l-0.075-0.534v-1.523c0-0.291-0.152-0.647-0.457-1.066v-0.229c0-0.076 0.076-0.152 0.228-0.228zM3.389 8.882v0.381c0.012 0.102 0.063 0.152 0.152 0.152l0.076-0.152v-0.152l-0.076-0.382c-0.102 0.014-0.152 0.065-0.152 0.153zM3.465 6.978v0.076c0.012 0.102 0.063 0.152 0.152 0.152v-0.381c-0.102 0.014-0.152 0.064-0.152 0.153zM3.465 28.758c0.102 0.255 0.152 0.432 0.152 0.533h0.076v-0.229c-0.050-0.178-0.076-0.279-0.076-0.304h-0.152zM7.045 5.453c-0.446-0.050-0.725-0.076-0.838-0.076l-0.077 0.533v0.229c0.102 0.127 0.152 0.229 0.152 0.305-0.102 0.318-0.152 0.494-0.152 0.533l0.076 0.457c0 0.191-0.076 0.902-0.229 2.132 0 0.115 0.026 0.215 0.076 0.305-0.102 0.191-0.152 0.393-0.152 0.609 0.102 0.863 0.152 1.397 0.152 1.6-0.048 0.355-0.075 0.558-0.075 0.607 0 0.051 0.026 0.076 0.076 0.076l-0.152 1.752c0.127 0 0.558 0.178 1.295 0.533h3.732c0.445 0 0.826-0.254 1.143-0.762v-3.273c0.152-0.66 0.229-1.015 0.229-1.066 0-0.584-0.026-1.117-0.076-1.6 0.048-0.342 0.075-0.621 0.075-0.837-0.102-1.269-0.254-1.904-0.457-1.904-0.217-0.203-0.42-0.305-0.61-0.305h-1.219c-0.063 0-0.342 0.051-0.837 0.152h-0.152c-0.737-0.101-1.117-0.152-1.143-0.152-0.469 0.102-0.748 0.152-0.837 0.152zM9.786 1.875v2.666c0.012 0.102 0.063 0.152 0.152 0.152l0.076-0.152v-0.457c0-0.215 0.026-0.494 0.076-0.838-0.101-0.203-0.152-0.482-0.152-0.837v-0.686c-0.101 0.012-0.152 0.062-0.152 0.152zM10.548 18.324v0.304h0.152v-0.304h-0.152zM13.061 3.626v0.152h0.076c0.254-0.85 0.381-1.51 0.381-1.98l-0.152-0.076h-0.077c-0.152 0.001-0.228 0.636-0.228 1.904zM13.061 14.44v0.381h0.152v-0.228c0-0.102-0.050-0.153-0.152-0.153zM13.823 12.917c0.012 0.152 0.215 0.457 0.609 0.914v0.152c-0.102 0.166-0.152 0.318-0.152 0.457v1.218c0 0.076 0.076 0.152 0.229 0.229 0.088 0 0.266-0.33 0.533-0.99 0.305-0.127 0.457-0.33 0.457-0.609v-0.685c0-0.139-0.254-0.24-0.761-0.305-0.229-0.355-0.483-0.533-0.762-0.533-0.104 0.012-0.153 0.063-0.153 0.152zM14.356 17.867v0.152c0 0.115 0.127 0.191 0.381 0.229 0.203-0.229 0.304-0.406 0.304-0.533-0.051 0-0.076-0.025-0.076-0.076-0.406 0.051-0.609 0.127-0.609 0.228zM14.508 2.408v0.304c0.101 0 0.152-0.051 0.152-0.152 0.001-0.101-0.050-0.152-0.152-0.152zM15.27 11.089l-0.076 0.152v0.076c0 0.393 0.102 0.623 0.305 0.686 0-0.102 0.026-0.152 0.076-0.152-0.128-0.508-0.229-0.762-0.305-0.762z"></path>
<path d="M17.897 0.885l0.381 0.076h2.513c0.24 0 0.648 0.051 1.218 0.152l0.762-0.152c0.088 0 0.291 0.051 0.609 0.152l2.056-0.152c0.088 0.051 0.316 0.102 0.686 0.152 0.088 0 0.291-0.051 0.609-0.152 0.039 0 0.191 0.026 0.457 0.076l0.914-0.076c0.33 0.102 0.558 0.152 0.686 0.152h0.152c0.951-0.152 1.459-0.229 1.523-0.229 0.33 0 0.686 0.254 1.066 0.762 0.965 0.508 1.447 1.066 1.447 1.675 0.051 0 0.076 0.026 0.076 0.076 0 0.051-0.026 0.127-0.076 0.229 0.051 0.66 0.076 1.193 0.076 1.599v0.077c0 0.178-0.026 0.406-0.076 0.686 0.101 0.318 0.152 0.521 0.152 0.609-0.102 0.355-0.152 0.66-0.152 0.914 0.203 0.494 0.305 0.826 0.305 0.99v1.295l-0.305 1.904c0 0.291 0.025 0.699 0.076 1.218-0.102 0.508-0.152 0.965-0.152 1.371 0.203 0.469 0.305 0.748 0.305 0.838v0.914c-0.141 0.94-0.266 1.473-0.381 1.6-0.102 0-0.559 0.457-1.371 1.371-0.304 0.139-0.457 0.393-0.457 0.762 0.101 0.787 0.279 1.421 0.533 1.904l0.762 3.047c0 0.786 0.305 1.876 0.914 3.273 0 1.143 0.305 1.955 0.914 2.438 0.152 0 0.279 0.228 0.381 0.685-0.166 0.152-0.291 0.229-0.381 0.229-0.545-0.102-0.902-0.153-1.066-0.153h-0.381c-0.432 0-0.965 0.051-1.599 0.153-0.445-0.051-0.723-0.077-0.838-0.077-0.039 0-0.191 0.026-0.457 0.077-0.203-0.051-0.381-0.077-0.533-0.077l-0.533 0.077c-0.254-0.088-0.381-0.215-0.381-0.381 0.152-0.254 0.229-0.457 0.229-0.609v-0.152c-0.203-1.168-0.508-2.438-0.914-3.808 0-0.215-0.127-0.722-0.381-1.524 0-0.164-0.127-0.648-0.381-1.447-0.051-0.457-0.305-1.371-0.761-2.741 0-0.469-0.432-0.877-1.295-1.219l-0.381 0.076-1.066-0.079c0 0.064-0.254 0.342-0.762 0.837v2.285c0 1.105-0.026 2.602-0.076 4.493 0.051 0.28 0.076 0.508 0.076 0.685l-0.076 0.381c0.051 0.393 0.076 0.826 0.076 1.295v0.076c0 0.088 0.177 0.572 0.533 1.447v0.077c0 0.076-0.076 0.151-0.229 0.228h-3.275c-0.291 0-0.697 0.026-1.218 0.077-0.102-0.051-0.178-0.077-0.229-0.077-0.088 0.050-0.217 0.077-0.381 0.077-0.254-0.153-0.381-0.305-0.381-0.458 0.457-0.722 0.686-1.281 0.686-1.675v-1.599c0-0.826-0.026-1.434-0.076-1.828 0.051-0.393 0.076-1.004 0.076-1.828v-1.295c0-0.113-0.026-0.215-0.076-0.305 0.051-0.088 0.076-0.191 0.076-0.305v-0.151c0-0.293-0.026-0.471-0.076-0.534 0.051-0.279 0.076-0.507 0.076-0.685v-0.685c0-0.215-0.026-0.421-0.076-0.609 0-0.051 0.025-0.127 0.076-0.229-0.051-0.812-0.076-1.295-0.076-1.447 0-0.127 0.025-0.787 0.076-1.98l-0.076-0.381c0.051-0.088 0.076-0.191 0.076-0.304l-0.076-0.381 0.076-0.152c-0.051-0.102-0.076-0.178-0.076-0.229l0.076-0.457c0-0.152-0.026-0.33-0.076-0.533 0.051-0.799 0.076-1.383 0.076-1.752 0-0.432-0.026-1.193-0.076-2.285 0.037-0.406 0.088-0.609 0.152-0.609l-0.076-0.381v-1.066c0-0.279-0.026-0.635-0.076-1.066 0.051-0.101 0.076-0.177 0.076-0.229 0-0.051-0.026-0.076-0.076-0.076l0.076-0.761v-2.894c0-0.102-0.152-0.406-0.457-0.914v-0.077l0.229-0.304zM20.106 13.679v0.152c0 0.063-0.051 0.342-0.152 0.838 0.026 0.508 0.102 0.761 0.229 0.761v-1.218l0.152-0.229v-0.152c0-0.101-0.051-0.152-0.152-0.152h-0.077zM20.106 21.828c0 0.115-0.026 0.215-0.076 0.305 0.051 0.508 0.127 0.762 0.229 0.762h0.076v-0.077c0-0.177 0.025-0.406 0.076-0.685-0.051-0.088-0.076-0.191-0.076-0.305h-0.229zM21.020 18.172v0.229h0.152v-0.381c-0.102 0.012-0.152 0.064-0.152 0.152zM21.172 6.064c0 0.178-0.026 0.406-0.076 0.686 0.051 0.088 0.076 0.191 0.076 0.305 0.064 0 0.191-0.127 0.38-0.381 0-0.28-0.126-0.483-0.38-0.61zM21.248 12.003l-0.152 0.914c0.051 0.266 0.076 0.521 0.076 0.762v0.305h0.152l0.152-0.381-0.228-0.381v-0.534c0-0.127 0.051-0.355 0.152-0.685h-0.152zM21.096 20.227l0.152 0.763h0.076v-0.609c0-0.102-0.051-0.153-0.152-0.153h-0.076zM21.172 2.18l0.076 0.152v0.837h0.152l0.076-0.381v-0.076c0-0.051-0.051-0.254-0.152-0.609l-0.152 0.077zM21.248 16.344c0.064 0 0.191-0.127 0.38-0.381l-0.152-0.076c-0.101 0-0.177 0.153-0.228 0.457zM21.248 16.573v0.229h0.076v-0.229h-0.076zM21.476 18.932c0 0.203-0.025 0.305-0.076 0.305 0.051 0.077 0.076 0.229 0.076 0.458h0.152l0.076-0.686-0.152-0.077h-0.076zM21.551 14.898v0.152c0.012 0.101 0.064 0.152 0.152 0.152 0.102-0.164 0.152-0.291 0.152-0.38l-0.152-0.076c-0.101 0.011-0.152 0.062-0.152 0.152zM21.551 21.371v0.076c0.152 0.229 0.229 0.381 0.229 0.458h0.152v-0.381c0-0.101-0.051-0.152-0.152-0.152h-0.229zM21.551 25.787v0.38h0.076v-0.38h-0.076zM21.629 17.791l0.457 0.762v-0.381c0-0.266-0.076-0.418-0.229-0.457-0.102 0.051-0.178 0.076-0.228 0.076zM21.705 22.74v0.077h0.076c0.102 0 0.152-0.050 0.152-0.152v-0.076h-0.076c-0.102 0.012-0.152 0.064-0.152 0.151zM22.314 15.659c0 0.254-0.026 0.381-0.076 0.381l0.076 0.152v0.076c0 0.242-0.127 0.445-0.381 0.609 0.152 0.342 0.229 0.547 0.229 0.609h0.152l-0.076-0.762c0.064 0 0.191-0.127 0.381-0.381l-0.152-0.686h-0.153zM22.39 1.951c0 0.051-0.026 0.127-0.076 0.229 0.051 0.305 0.127 0.457 0.229 0.457 0.152-0.051 0.229-0.203 0.229-0.457v-0.077c0-0.102-0.051-0.152-0.152-0.152h-0.231zM22.39 19.391c0.152-0.203 0.305-0.305 0.457-0.305v-0.381h-0.076c-0.254 0.217-0.381 0.445-0.381 0.686zM26.275 5.453h-1.371c-0.291 0-0.699-0.025-1.218-0.076-0.254 0-0.635 0.28-1.143 0.838 0.051 0.508 0.076 0.889 0.076 1.143v1.371c0 0.33-0.026 0.66-0.076 0.99 0.051 0.178 0.076 0.457 0.076 0.837 0 0.293-0.026 0.469-0.076 0.533 0.051 0.342 0.076 0.623 0.076 0.838v2.209c0 0.051-0.026 0.076-0.076 0.076 0.215 0.393 0.445 0.672 0.686 0.838h4.798c0.406-0.393 0.609-0.926 0.609-1.6v-2.97c0-0.648 0.025-1.357 0.076-2.132-0.051-0.203-0.076-0.406-0.076-0.609 0.051-0.482 0.076-0.964 0.076-1.447 0-0.381-0.457-0.711-1.371-0.99-0.381 0.101-0.736 0.151-1.066 0.151zM22.924 16.344l0.229 0.381c-0.051 0.279-0.076 0.483-0.076 0.609 0.279 0.432 0.457 0.863 0.533 1.294 0.164 0.102 0.291 0.153 0.38 0.153 0.051-0.102 0.076-0.178 0.076-0.229-0.101-0.342-0.355-0.951-0.761-1.828 0.051-0.088 0.076-0.191 0.076-0.305 0-0.101-0.051-0.152-0.152-0.152h-0.152l-0.153 0.077zM23.076 4.693l0.152 0.076c0.088 0 0.266-0.229 0.533-0.686 0.101-0.051 0.177-0.076 0.228-0.076 0.203 0.229 0.305 0.406 0.305 0.533h0.152l0.076-0.914c-0.355 0-0.533-0.279-0.533-0.838v-0.304c0-0.127 0.051-0.355 0.152-0.686h-0.076c-0.355 0-0.533 0.381-0.533 1.142-0.203 0.319-0.355 0.903-0.456 1.753zM24.523 1.723v0.076l0.229 0.457c-0.051 0.432-0.076 0.787-0.076 1.066v0.152c0.152-0.051 0.229-0.203 0.229-0.457 0-0.076-0.026-0.431-0.076-1.066h0.076c-0.051-0.102-0.076-0.178-0.076-0.229h-0.306zM25.742 3.55c-0.305 0.672-0.457 1.029-0.457 1.066l0.152 0.076h0.305c0.101 0 0.152-0.051 0.152-0.152v-0.837c0-0.102-0.051-0.153-0.152-0.153zM25.818 2.18v0.457h0.076l0.076-0.533v-0.077c-0.102 0.014-0.152 0.063-0.152 0.153zM27.111 15.887c0 0.051 0.026 0.076 0.076 0.076l-0.076 0.381c0.051 0.102 0.076 0.178 0.076 0.229h0.305c0.102-0.026 0.203-0.152 0.305-0.381-0.051 0-0.203-0.177-0.457-0.533-0.039 0-0.115 0.076-0.229 0.228zM27.187 20.991c0.152 0.215 0.229 0.57 0.229 1.064l0.152-0.076-0.076-0.38c0.051-0.37 0.076-0.572 0.076-0.609l-0.152-0.077h-0.076l-0.153 0.077zM27.34 1.799v1.828l0.076 0.914h0.076c0-0.242 0.026-0.496 0.076-0.762-0.051-0.621-0.076-1.232-0.076-1.828v-0.152h-0.152zM27.721 17.182v0.229l0.533 1.981h0.152l0.076-0.381c-0.254-0.482-0.381-0.939-0.381-1.371v-0.457c0-0.102-0.051-0.152-0.152-0.152h-0.076c-0.102 0.011-0.152 0.062-0.152 0.151zM27.949 16.192c0.012 0.102 0.064 0.152 0.152 0.152l0.076-0.305h-0.076c-0.101 0.014-0.152 0.065-0.152 0.153zM28.33 2.56c0.115 1.218 0.215 2.107 0.305 2.665h0.076v-0.761c0.203-1.041 0.304-1.6 0.304-1.676v-0.607l0.076-0.381c-0.101-0.051-0.177-0.076-0.228-0.076-0.356 0.139-0.533 0.418-0.533 0.837zM29.32 16.649l-0.076 0.533c0 0.254 0.026 0.634 0.076 1.142h0.076l0.076-0.914-0.076-0.762h-0.076zM29.32 19.772c0 0.026-0.026 0.127-0.076 0.305 0.051 0.101 0.076 0.178 0.076 0.228h0.076c0-0.050 0.026-0.127 0.076-0.228-0.051-0.088-0.076-0.192-0.076-0.305h-0.076zM29.929 29.062v0.077c0.152 0.736 0.229 1.191 0.229 1.37h0.152v-0.076c0-0.914-0.102-1.371-0.305-1.371h-0.076zM30.082 6.597v0.305l0.076 0.381h0.076l0.076-0.381v-0.534c-0.076 0-0.152 0.076-0.228 0.229zM30.082 13.983v0.076h0.076c0.101-0.33 0.152-0.558 0.152-0.686-0.115 0.001-0.191 0.204-0.228 0.61zM30.92 2.027c0.051 0.102 0.076 0.178 0.076 0.229 0 0.572-0.152 1.41-0.457 2.513v0.229c0.266 0 0.545-0.762 0.838-2.285l-0.229-0.761h-0.076l-0.152 0.075zM30.615 26.397c0.152 1.027 0.229 1.637 0.229 1.828v0.533c0.012 0.101 0.064 0.152 0.152 0.152 0.088-0.051 0.191-0.076 0.305-0.076l0.076 0.151c0 0.127-0.026 0.331-0.076 0.609 0 0.762 0.203 1.143 0.609 1.143 0.723-0.102 1.231-0.153 1.524-0.153-0.242-0.507-0.393-0.761-0.457-0.761-0.166 0-0.342 0.076-0.533 0.229h-0.305c-0.102 0-0.152-0.051-0.152-0.153l0.076-0.38c0-0.496-0.279-0.977-0.837-1.448 0-0.432-0.178-0.99-0.533-1.675h-0.079zM30.843 17.258c0 0.076 0.025 0.381 0.076 0.914h0.152c0.076 0 0.152-0.076 0.229-0.229v-0.076l-0.229-0.304v-0.229c0-0.215 0.101-0.547 0.305-0.99l-0.152-0.076c-0.164 0-0.293 0.33-0.381 0.99zM30.996 23.045v0.077c0.012 0.101 0.064 0.152 0.152 0.152v-0.229h-0.152zM31.224 10.937l0.076 0.305h0.38c0.152 0 0.229-0.482 0.229-1.447 0-0.039-0.026-0.191-0.076-0.457h-0.076c-0.102 0-0.178 0.305-0.229 0.914-0.203 0.228-0.304 0.456-0.304 0.685zM31.377 12.46v2.361l0.076 0.533h0.152v-0.304c0-0.102-0.051-0.355-0.152-0.762 0-0.076 0.076-0.381 0.229-0.914v-1.066h-0.152c-0.104 0.012-0.153 0.063-0.153 0.152zM31.377 24.418v0.151c0 0.37 0.076 0.572 0.228 0.609h0.076v-0.228c0-0.277-0.102-0.456-0.304-0.532zM32.366 4.464c0 0.203-0.051 0.305-0.152 0.305l0.076 0.533v0.305l-0.838 0.686v0.076c0 0.076 0.076 0.152 0.229 0.229h0.533l0.305-0.229-0.076-0.533c0.051-0.634 0.076-1.015 0.076-1.142-0.051-0.102-0.076-0.178-0.076-0.229h-0.077zM31.833 26.244c0.076 0.203 0.152 0.305 0.229 0.305v-0.533c-0.039 0-0.115 0.076-0.229 0.228zM32.443 3.931v0.305h0.076c0.051-0.178 0.076-0.279 0.076-0.305h-0.152z"></path>
<path d="M38.534 0.961h0.838c0.115 0 0.215 0.026 0.305 0.076 0.088-0.051 0.191-0.076 0.305-0.076l0.533 0.076 0.38-0.076c0.203 0.102 0.355 0.152 0.457 0.152 0.191-0.101 0.42-0.152 0.686-0.152l1.599 0.381h1.143c0.533-0.152 1.117-0.279 1.752-0.381l0.533 0.076 0.305-0.076c0.203 0.051 0.381 0.076 0.533 0.076l0.304-0.076c0.178 0 0.787 0.533 1.828 1.6 0.279 0.304 0.533 0.634 0.761 0.99 0 0.102-0.026 0.152-0.076 0.152 0.051 0.686 0.076 1.193 0.076 1.523 0 0.178-0.051 2.006-0.152 5.484v1.371c0.102 0.863 0.152 1.346 0.152 1.447v4.265c0 0.356-0.051 0.635-0.152 0.837 0.102 0.585 0.152 1.295 0.152 2.133v3.808c-0.102 0.736-0.152 1.143-0.152 1.219v1.524c0 0.329 0.026 0.837 0.076 1.524-0.228 0.393-0.837 1.053-1.828 1.98-0.254 0.356-0.533 0.534-0.838 0.534l-0.38-0.077-0.152 0.077-0.457-0.077h-0.152c-0.115 0-0.215 0.026-0.305 0.077-0.088-0.051-0.215-0.077-0.381-0.077s-0.291 0.026-0.381 0.077c-0.279-0.051-0.508-0.077-0.685-0.077h-1.219l-0.457 0.077c-0.115-0.051-0.445-0.102-0.99-0.153-0.432 0.102-0.711 0.153-0.838 0.153-0.279 0-0.559-0.028-0.838-0.077-0.584 0.050-1.142 0.077-1.675 0.077h-0.609c-0.545 0-0.977-0.28-1.295-0.838-0.229 0-0.686-0.456-1.371-1.37-0.037 0-0.115-0.127-0.229-0.381l0.076-0.914v-1.752c-0.101-1.637-0.152-2.525-0.152-2.666v-4.95c0-0.393 0.025-0.748 0.076-1.066-0.051-0.254-0.076-0.584-0.076-0.99v-1.523c0.101-0.863 0.152-1.346 0.152-1.447v-2.67c-0.152-0.482-0.228-0.863-0.228-1.142 0-1.943 0.076-3.922 0.228-5.941v-0.305c0-0.316 0.279-0.621 0.838-0.914 0.621-1.016 1.283-1.523 1.98-1.523zM37.241 19.619v0.152h0.076v-0.152h-0.076zM37.622 2.637c0.101 0.418 0.152 0.697 0.152 0.837h0.152c0-0.076-0.026-0.432-0.076-1.066 0.051-0.102 0.076-0.178 0.076-0.229h-0.076c-0.152 0.051-0.228 0.204-0.228 0.458zM37.85 10.632v0.305c0.012 0.102 0.063 0.152 0.152 0.152h0.076l-0.076-0.457h-0.152zM38.383 18.932v0.153l0.076 0.38h0.076v-0.534h-0.152zM38.383 20.152v0.229c0.012 0.101 0.063 0.151 0.152 0.151h0.076v-0.151l-0.076-0.38c-0.102 0.012-0.152 0.062-0.152 0.151zM38.686 7.587l-0.229 0.304 0.152 0.533c0.152 0 0.229-0.254 0.229-0.761l-0.152-0.076zM38.764 23.58c-0.051 0.279-0.076 0.483-0.076 0.609 0.051 0.102 0.076 0.178 0.076 0.229h0.152c0-0.203 0.026-0.305 0.076-0.305-0.102-0.255-0.152-0.432-0.152-0.534h-0.076zM38.764 25.33c0.051 0.432 0.076 0.762 0.076 0.991h0.076c0-0.088 0.051-0.293 0.152-0.609-0.102-0.164-0.152-0.293-0.152-0.381h-0.152zM38.84 26.627v0.685h0.076v-0.685h-0.076zM43.713 5.302h-0.685c-0.737 0.102-1.143 0.152-1.219 0.152h-0.152c-0.051 0-0.254-0.051-0.609-0.152l-0.381 0.076v0.381c0 0.951-0.101 1.664-0.304 2.132l-0.152 15.459h-0.077l0.076 0.153v0.609c0 0.050-0.026 0.076-0.076 0.076l0.076 0.152v1.371c0 0.051-0.026 0.076-0.076 0.076 0.164 0.558 0.469 0.838 0.914 0.838l0.305 0.305-0.076 0.38c0.152 0.483 0.305 1.219 0.457 2.209 0.215 0 0.445 0.38 0.686 1.142h0.076c0.457 0 0.685-0.152 0.685-0.457l-0.076-1.064c0.102-0.166 0.152-0.318 0.152-0.458-0.152-0.189-0.228-0.367-0.228-0.533l0.076-0.381c-0.051-0.254-0.152-0.38-0.304-0.38-0.166 0.102-0.318 0.153-0.457 0.153h-0.229c-0.076 0-0.152-0.077-0.229-0.229v-0.38c0.051-0.153 0.203-0.229 0.457-0.229h0.076c0.139 0 0.291 0.051 0.457 0.152 0.33-0.101 0.558-0.152 0.685-0.152h1.6c0.076 0 0.152 0.076 0.229 0.229l-0.076 0.533c0.101 0 0.177-0.255 0.229-0.762 0.355-0.33 0.533-0.634 0.533-0.914v-0.914c0-0.483 0.026-0.964 0.076-1.447l-0.076-0.381 0.152-3.349c-0.051-0.102-0.076-0.178-0.076-0.229l0.229-0.762-0.076-0.457c0.102-0.33 0.152-0.558 0.152-0.685-0.203-0.229-0.305-0.355-0.305-0.381v-0.381c0-0.051 0.026-0.076 0.076-0.076l-0.076-0.152v-0.305c0-0.164 0.026-0.291 0.076-0.381l-0.076-0.457v-0.685c0-0.051 0.026-0.076 0.076-0.076l-0.076-0.152v-0.762c0-1.561 0.026-3.668 0.076-6.32 0.102-0.355 0.152-0.66 0.152-0.914v-0.838c-0.215 0-0.445-0.076-0.686-0.229-0.203 0.102-0.355 0.152-0.457 0.152-0.762-0.115-1.143-0.316-1.143-0.609-0.229 0.204-0.355 0.305-0.381 0.305zM40.362 28.834v0.456l0.076 0.381h0.076v-0.837h-0.152zM40.59 30.129v0.151h0.076v-0.151h-0.076zM41.2 1.875c0 0.152 0.026 0.229 0.076 0.229l-0.076 0.381v1.066c0 0.254-0.026 0.635-0.076 1.143h0.152c0-0.127 0.076-0.533 0.229-1.219v-1.6c0-0.102-0.051-0.152-0.152-0.152-0.104 0.012-0.153 0.062-0.153 0.152zM42.42 4.084v0.229l0.076 0.381h0.229c-0.102-0.457-0.152-0.711-0.152-0.762-0.104 0.011-0.153 0.062-0.153 0.152zM43.028 1.723c0 0.051-0.026 0.076-0.076 0.076 0.191 0.711 0.393 1.066 0.609 1.066h0.076c-0.076-0.762-0.279-1.142-0.609-1.142zM43.713 3.017v0.076c0.102 0.166 0.152 0.293 0.152 0.381h0.076v-0.152c-0.076-0.203-0.152-0.305-0.228-0.305zM45.084 27.843l-0.076 0.382v0.228h0.152v-0.609h-0.076zM46.074 1.875c0 0.051-0.026 0.076-0.076 0.076 0.051 0.102 0.076 0.178 0.076 0.229 0 0.203 0.026 0.66 0.076 1.371h0.076c0.102 0 0.152-0.051 0.152-0.152-0.050-1.016-0.152-1.524-0.304-1.524zM46.607 26.322c0 0.406-0.203 0.964-0.609 1.675v0.534c0.012 0.101 0.063 0.151 0.152 0.151 0.406-1.078 0.609-1.839 0.609-2.284l-0.152-0.076zM46.912 29.595h0.152v-0.305c0.254-0.826 0.381-1.408 0.381-1.751v-0.229c-0.356 0.483-0.533 1.244-0.533 2.285zM46.988 20.001h0.152c0.051-0.266 0.076-0.421 0.076-0.458-0.152 0.051-0.228 0.203-0.228 0.458zM47.217 3.855c-0.102 0.166-0.152 0.318-0.152 0.457v0.305h0.152l0.152-0.533v-0.077c0-0.101-0.051-0.152-0.152-0.152zM47.75 16.725c-0.203 0.799-0.381 1.689-0.533 2.666 0.127 0 0.33-0.763 0.609-2.285v-0.381h-0.076zM47.598 5.453l-0.077 0.533c0.076 0.203 0.152 0.305 0.229 0.305v-0.685c0-0.102-0.051-0.153-0.152-0.153zM47.521 23.809v0.076h0.152v-0.229c-0.101 0.012-0.152 0.064-0.152 0.153zM47.75 10.632l-0.076 0.533v1.143h0.152v-1.219l0.076-0.381-0.152-0.076zM47.75 21.295l-0.076 0.761v0.077c0.012 0.101 0.063 0.152 0.152 0.152v-0.99h-0.076zM48.13 27.92v0.456c-0.304 0.838-0.457 1.372-0.457 1.6 0.051 0.203 0.076 0.38 0.076 0.533l0.152-0.076-0.076-0.153v-0.304c0.304-0.826 0.457-1.461 0.457-1.905v-0.151h-0.152zM48.13 19.391c0 0.139-0.127 0.596-0.38 1.37 0.051 0.102 0.076 0.178 0.076 0.229h0.076l0.304-1.524v-0.076h-0.076zM47.75 22.436v0.607h0.076v-0.607h-0.076zM48.435 18.248c0 0.152-0.051 0.33-0.152 0.534h0.076c0.102 0 0.152-0.051 0.152-0.153v-0.38h-0.076zM48.283 25.94v0.457h0.076l0.076-0.457h-0.152zM48.511 2.408v0.152h0.076v-0.152h-0.076zM48.511 17.563v0.457h0.076v-0.457h-0.076zM49.273 18.248c0 0.305-0.229 1.549-0.686 3.732v0.076c0.242-0.113 0.42-0.951 0.533-2.513 0.203-0.178 0.305-0.38 0.305-0.609v-0.533c0-0.102-0.051-0.153-0.152-0.153zM48.664 29.748v0.151h0.229l0.152-0.533v-0.152c-0.063 0.001-0.191 0.179-0.381 0.534zM49.044 28.53v0.305h0.152l0.076-0.381v-0.077h-0.076c-0.101 0.012-0.152 0.064-0.152 0.153zM49.349 27.006c-0.102 0.164-0.152 0.318-0.152 0.457h0.076c0.076 0 0.152-0.077 0.229-0.228v-0.077c-0.001-0.101-0.052-0.152-0.153-0.152zM49.349 12.46l-0.076 0.38v0.762h0.076l0.076-0.381v-0.761h-0.076zM49.349 22.895l-0.076 0.38v0.152c0.012 0.101 0.063 0.152 0.152 0.152v-0.685h-0.076zM49.578 8.652v0.305h0.152v-0.457c-0.102 0.012-0.152 0.063-0.152 0.152zM49.806 20.533c-0.102 0.432-0.178 1.067-0.229 1.905 0.101 0 0.203-0.609 0.305-1.828v-0.077h-0.076z"></path>
<path d="M53.252 0.732l0.381 0.076h10.89c0.406 0 0.889 0.026 1.447 0.076l0.152-0.076c0.025 0 0.127 0.026 0.305 0.076 0.432-0.051 0.787-0.076 1.066-0.076 0.242 0 0.42 0.381 0.533 1.143 0.152 0 0.229 0.609 0.229 1.828v0.914l-0.076 0.152c0.305 0.178 0.457 0.406 0.457 0.685v0.076c0 0.076-0.076 0.152-0.229 0.229h-0.076c-0.178 0-0.483-0.152-0.914-0.457l-0.152 0.076h-1.828l-0.457-0.076c-0.090 0.051-0.215 0.076-0.381 0.076-0.152 0-0.228-0.025-0.228-0.076l-0.381 0.076c-0.229 0-0.559-0.025-0.99-0.076-0.178 0.051-0.279 0.076-0.305 0.076-0.102 0-0.152-0.025-0.152-0.076-0.596 0.051-1.029 0.076-1.295 0.076h-2.513c-0.203 0.127-0.406 0.381-0.609 0.762 0.051 0.686 0.076 1.193 0.076 1.523v0.533c0 0.926-0.026 2.094-0.076 3.504 0 0.445 0.558 0.723 1.675 0.838h1.066c0.432 0 1.066 0.025 1.904 0.076 0-0.101 0.482-0.304 1.447-0.609h0.152c0.025 0 0.101 0.051 0.228 0.152l-0.152 1.523 0.076 0.457c0 0.115-0.026 0.215-0.076 0.305l0.076 0.533c0 0.203-0.026 0.66-0.076 1.371 0 0.127 0.051 0.457 0.152 0.99-0.076 0.203-0.152 0.304-0.228 0.304h-0.229c0-0.177-0.635-0.431-1.904-0.761h-0.076c-0.457 0.102-0.787 0.152-0.99 0.152h-1.6c-0.672 0-1.105 0.178-1.295 0.533l-0.152 0.228v2.589c0 1.143 0.026 2.462 0.076 3.961-0.051 0.277-0.076 0.483-0.076 0.609 0.051 0.432 0.076 0.786 0.076 1.064 0 0.127-0.026 0.787-0.076 1.98 0 0.051 0.026 0.128 0.076 0.229l-0.076 0.38c0 0.648 0.177 1.383 0.533 2.209v0.153c0 0.037-0.076 0.113-0.229 0.228-0.596-0.050-1.029-0.077-1.295-0.077h-0.152c-1.295 0-2.463 0.051-3.503 0.153-0.203-0.077-0.355-0.203-0.457-0.381 0.406-1.41 0.609-2.169 0.609-2.285 0-0.099-0.026-0.151-0.076-0.151l0.076-1.066c0-0.914-0.026-1.955-0.076-3.123 0-0.178 0.025-0.406 0.076-0.686-0.051-0.826-0.076-1.561-0.076-2.209v-2.437c0-0.293 0.051-0.799 0.152-1.523-0.102-0.457-0.152-0.787-0.152-0.99v-1.901c0-0.178 0.051-0.609 0.152-1.295-0.102-0.863-0.152-1.447-0.152-1.752v-1.066c0.101-0.736 0.152-1.142 0.152-1.218v-0.762c-0.102-2.792-0.203-4.189-0.305-4.189l0.305-0.99-0.838-2.285v-0.076c0.257-0.115 0.384-0.191 0.384-0.229zM54.623 8.804v0.229h0.152c0-0.088 0.051-0.215 0.152-0.381h-0.152c-0.101 0.012-0.152 0.063-0.152 0.152zM54.928 23.426v0.077c0 0.076 0.026 0.38 0.076 0.914l-0.305 0.609c0.102 0.316 0.152 0.493 0.152 0.532 0.406-0.392 0.609-0.849 0.609-1.37-0.215 0-0.369-0.254-0.457-0.762h-0.075zM54.851 25.94v0.686c0.102 0.761 0.229 1.14 0.381 1.14 0.102 0 0.152-0.050 0.152-0.151v-0.457l-0.457-1.142c0.001-0.052-0.025-0.077-0.076-0.077zM55.537 28.376c-0.102 0.445-0.152 0.75-0.152 0.914 0.051 0 0.076 0.028 0.076 0.077 0.305-0.077 0.457-0.228 0.457-0.457-0.051-0.356-0.127-0.534-0.229-0.534h-0.152zM55.461 8.271v0.076h0.305c0.051-0.266 0.076-0.418 0.076-0.457l-0.152-0.076c-0.153 0.051-0.229 0.204-0.229 0.457zM55.613 20.991v0.761l0.076 0.534c0.101 0 0.152-0.051 0.152-0.152v-1.295h-0.076c-0.101 0.011-0.152 0.062-0.152 0.152zM55.766 22.895v0.685h0.152v-0.534c0-0.099-0.051-0.151-0.152-0.151zM55.842 19.087v0.228l0.076 0.533h0.152v-0.609c0-0.101-0.051-0.151-0.152-0.151h-0.076zM56.070 29.824v0.152c0.012 0.101 0.063 0.152 0.152 0.152h0.076v-0.076c-0.051-0.102-0.076-0.178-0.076-0.229h-0.152zM56.908 16.573v0.381c0.102 0 0.152-0.051 0.152-0.152v-0.229h-0.152zM56.984 13.983v0.152h0.076v-0.152h-0.076zM59.802 15.126v0.38c0.012 0.102 0.063 0.152 0.152 0.152l0.152-0.229v-0.304c0-0.102-0.051-0.152-0.152-0.152-0.101 0.014-0.152 0.065-0.152 0.153zM62.39 14.060h-0.533c0 0.051-0.026 0.127-0.076 0.229 0.507 0.063 0.761 0.166 0.761 0.305v0.305c0 0.127-0.203 0.229-0.609 0.304v0.152c0.127 0 0.33 0.076 0.609 0.229l0.305-0.533-0.076-0.381v-0.229l0.152-0.229v-0.152c-0.076 0-0.178-0.051-0.305-0.152l-0.228 0.152zM61.933 16.116v0.076c0 0.076 0.076 0.152 0.229 0.229h0.152c0.102 0 0.152-0.051 0.152-0.152v-0.457h-0.152c-0.254 0.126-0.381 0.228-0.381 0.304zM62.468 13.45v0.076c0.012 0.102 0.063 0.152 0.152 0.152 0.166-0.152 0.291-0.229 0.381-0.229 0-0.101-0.051-0.152-0.152-0.152h-0.229c-0.102 0.014-0.152 0.065-0.152 0.153zM62.695 3.855v0.076c0.039 0.305 0.115 0.457 0.229 0.457h0.152c0.063-0.66 0.191-0.99 0.381-0.99 0.164 0 0.266 0.28 0.305 0.838h0.152v-1.067c-0.203-0.215-0.305-0.418-0.305-0.609v-0.228l0.152-0.229c-0.102-0.203-0.152-0.355-0.152-0.457h-0.076c-0.266 0.342-0.545 1.080-0.838 2.209zM63.152 16.421l0.152 0.076c0.088 0 0.164-0.229 0.229-0.686 0.051 0 0.076-0.025 0.076-0.076 0-0.101-0.051-0.152-0.152-0.152-0.102 0-0.204 0.279-0.305 0.838zM63.228 14.212c0.051 0 0.127 0.026 0.229 0.076l0.076-0.152v-0.076h-0.152c-0.102 0.012-0.153 0.062-0.153 0.152zM64.142 1.951l-0.152 0.229 0.229 0.152h0.076v-0.229c0-0.101-0.051-0.152-0.153-0.152zM64.599 3.246v0.533h0.076c0-0.229 0.127-0.482 0.381-0.762-0.051-0.177-0.076-0.279-0.076-0.305l0.076-0.761c-0.102 0-0.178 0.254-0.229 0.761-0.101 0.014-0.177 0.192-0.228 0.534zM65.666 1.723c0 0.051-0.026 0.127-0.076 0.229 0.051 0.279 0.076 0.508 0.076 0.686v0.076c0 0.191-0.127 0.42-0.381 0.686v0.762c0.012 0.102 0.064 0.152 0.152 0.152 0.305-0.736 0.457-1.524 0.457-2.361-0.051-0.102-0.076-0.178-0.076-0.229h-0.152zM66.503 1.723c0 0.026-0.026 0.355-0.076 0.99l0.076 0.305h0.076c0.101 0 0.152-0.051 0.152-0.152v-0.61l-0.075-0.533h-0.153zM67.341 1.875c0 0.762-0.152 1.269-0.457 1.523v0.914l0.076 0.381h0.609c0.039 0 0.115-0.076 0.229-0.229-0.102-1.307-0.229-2.17-0.381-2.589h-0.076z"></path>
<path d="M72.195 0.808c0.596 0.051 1.029 0.076 1.295 0.076l0.533-0.076c0.229 0.102 0.355 0.203 0.381 0.305-0.406 0.533-0.634 1.041-0.685 1.524 0.101 0.457 0.152 0.711 0.152 0.761-0.051 0.926-0.076 1.51-0.076 1.752 0 0.037 0.025 0.24 0.076 0.609-0.102 0.203-0.152 0.483-0.152 0.838v0.076c0.101 0.736 0.152 1.142 0.152 1.218v1.829l-0.152 1.371c0.101 0.863 0.152 1.447 0.152 1.752 0 0.28-0.051 0.661-0.152 1.143 0 0.127 0.025 0.33 0.076 0.609l-0.076 0.685 0.076 1.219-0.076 0.686 0.152 0.457c0 0.051-0.026 0.127-0.076 0.228 0.051 0.52 0.076 0.926 0.076 1.219 0 0.254-0.051 0.558-0.152 0.914 0.101 0.355 0.152 0.66 0.152 0.913v0.761c-0.102 0.863-0.152 1.346-0.152 1.447v0.533c0.101 0.736 0.152 1.118 0.152 1.143 0 0.127-0.051 0.38-0.152 0.761 0.152 0.331 0.228 0.559 0.228 0.686v0.077c-0.254 0.305-0.38 0.483-0.38 0.533l0.305 2.818 0.533 1.295v0.152c0 0.076-0.076 0.152-0.229 0.229h-0.304c-0.127 0-0.356-0.051-0.686-0.153-0.191 0.102-0.393 0.153-0.609 0.153h-0.229c-0.178 0-0.381-0.102-0.609-0.305-0.191 0.151-0.342 0.228-0.457 0.228-0.051 0-0.203-0.101-0.457-0.305-0.115 0.255-0.369 0.381-0.762 0.381h-0.99c-0.076 0-0.152-0.077-0.228-0.229v-0.076c0.355-1.472 0.533-2.311 0.533-2.513-0.051-3.084-0.076-5.547-0.076-7.389 0-0.164-0.051-0.545-0.152-1.14 0.152-0.674 0.229-1.764 0.229-3.276 0-0.127-0.026-0.508-0.076-1.143 0.102-1.168 0.152-1.904 0.152-2.209-0.102-0.432-0.178-0.914-0.229-1.447 0.102-0.826 0.152-1.359 0.152-1.6 0-0.101-0.026-0.152-0.076-0.152l0.076-0.533v-1.978c0-0.584-0.026-1.117-0.076-1.6 0.051-0.266 0.076-0.748 0.076-1.447v-0.837c0-0.164-0.026-0.291-0.076-0.381l0.076-0.457v-1.142l-0.533-0.533v-0.077c0-0.076 0.101-0.177 0.304-0.305h1.828c0.164 0 0.342 0.076 0.533 0.229h0.076c0.166-0.127 0.369-0.228 0.609-0.305zM70.216 23.199v0.076l0.076 1.219c0 0.051-0.026 0.127-0.076 0.229 0 0.113 0.127 0.849 0.381 2.209v1.218c0 0.293-0.026 0.699-0.076 1.219l0.305 1.142h0.076l0.229-0.152h0.152c0.037 0 0.191 0.152 0.457 0.457h0.076c0-0.127 0.026-0.329 0.076-0.609 0-0.164-0.229-0.367-0.685-0.609-0.152-0.191-0.229-0.418-0.229-0.685v-1.295c0-0.889-0.229-2.362-0.686-4.417h-0.076zM70.445 14.669c0 0.115 0.025 0.215 0.076 0.305-0.051 0.432-0.076 0.761-0.076 0.99 0.101 0.242 0.254 1.537 0.457 3.884v0.609c0 0.115 0.101 0.37 0.305 0.762h0.076v-1.827c0-0.421 0.101-0.902 0.304-1.448 0-0.177-0.228-0.507-0.685-0.99l-0.229-1.524c0.051-0.088 0.076-0.191 0.076-0.304 0.001-0.203-0.101-0.355-0.304-0.457zM70.75 5.759v0.152h0.076v-0.152h-0.076zM70.75 7.359v0.38h0.076v-0.38h-0.076zM70.75 8.728v0.152h0.076v-0.152h-0.076zM70.826 9.261v0.076c0.254 1.535 0.432 2.805 0.533 3.808 0.076 0.141 0.177 0.647 0.304 1.524h0.152v-2.894l-0.837-1.752c0-0.33-0.026-0.584-0.076-0.762h-0.076zM71.435 2.027v0.685h0.076l0.076-0.38v-0.305h-0.152zM71.435 5.302v0.152h0.076v-0.152h-0.076zM71.435 5.835c0 1.828 0.126 2.742 0.38 2.742v-1.599c-0.152-0.686-0.229-1.066-0.229-1.143h-0.15zM72.5 18.477v0.761c-0.152 0.661-0.229 1.016-0.229 1.066v5.408c0 0.151 0.076 0.456 0.229 0.914h0.076c0.102 0 0.152-0.051 0.152-0.153v-0.228c0-0.177-0.026-0.406-0.076-0.686 0.254-0.405 0.406-0.735 0.457-0.99l-0.152-0.305-0.152 0.077-0.152-0.077 0.076-0.761v-0.305c0-0.547-0.076-1.383-0.229-2.513 0.102-0.141 0.229-0.826 0.381-2.057v-0.076l-0.076-0.381c-0.076 0.001-0.178 0.104-0.305 0.306zM72.425 2.637v0.456c0.152 0.559 0.33 1.498 0.533 2.818h0.152c0-2.183-0.152-3.275-0.457-3.275h-0.228zM72.806 7.511v1.142h0.076c0.152-0.037 0.229-0.24 0.229-0.609l-0.077-0.685h-0.076c-0.101 0.012-0.152 0.062-0.152 0.152zM72.882 17.182l-0.076 0.381v0.304h0.076c0.051-0.355 0.101-0.583 0.152-0.685h-0.152z"></path>
<path d="M77.166 0.885c0.152 0 0.355 0.051 0.609 0.152 0.355-0.101 0.634-0.152 0.838-0.152l0.99 0.152c0.33-0.101 0.559-0.152 0.686-0.152h1.447c0.164 0 0.519 0.051 1.066 0.152 0.152 0 0.355-0.051 0.609-0.152 0.254 0 0.381 0.026 0.381 0.076 1.092-0.051 1.904-0.076 2.437-0.076h4.95c0.457 0 0.685 0.533 0.685 1.6 0.254 1.726 0.381 2.843 0.381 3.351l-0.305 0.152c-0.392-0.051-0.798-0.229-1.218-0.534l-0.152 0.076h-0.609c-0.178 0-0.406-0.025-0.686-0.076-0.101 0.051-0.177 0.076-0.228 0.076-0.152 0-0.229-0.025-0.229-0.076-0.508 0.051-0.889 0.076-1.143 0.076h-2.437c-0.064 0-0.342-0.051-0.838-0.152h-0.533c-0.102 0-0.356 0.051-0.762 0.152-0.254-0.088-0.381-0.215-0.381-0.38 0.102-0.85 0.279-1.664 0.533-2.438-0.102-0.482-0.152-0.863-0.152-1.142v-0.076c-0.355-0.051-0.559-0.076-0.609-0.076l-0.076 0.152v0.99l-0.152 1.371c0.102 0.672 0.203 1.080 0.305 1.219 0 0.064-0.279 0.469-0.837 1.218v0.152c0 0.355 0.051 0.635 0.152 0.838-0.101 0.203-0.152 0.482-0.152 0.837v1.6c0 0.203 0.051 0.533 0.152 0.99-0.101 0.469-0.152 0.748-0.152 0.838 0 0.609 0.533 1.015 1.599 1.218 0.088 0 0.291-0.051 0.609-0.152l0.457 0.076c1.231 0 2.348-0.203 3.351-0.609h0.305c0.101 0.012 0.152 0.063 0.152 0.152v0.381c0 0.178 0.025 0.406 0.076 0.686-0.102 0.203-0.152 0.381-0.152 0.533 0.051 0.152 0.101 0.229 0.152 0.229l-0.076 0.533v2.437l0.076 0.533-0.229 0.152h-0.152c-1.029-0.406-1.611-0.609-1.752-0.609-0.356 0.051-0.559 0.076-0.609 0.076-0.088 0-0.445-0.076-1.066-0.229-0.191 0.102-0.393 0.152-0.609 0.152-0.051 0-0.127-0.026-0.229-0.076-0.203 0.051-0.381 0.076-0.533 0.076l-0.305-0.076c-0.166 0.102-0.318 0.152-0.457 0.152h-0.152l-0.229-0.152c0.064-1.967 0.166-3.186 0.305-3.656-0.037-0.305-0.191-0.457-0.457-0.457-0.101 0.166-0.152 0.293-0.152 0.381-0.051 1.561-0.076 2.578-0.076 3.047-0.102 0.33-0.152 0.559-0.152 0.686v0.076c0.393 0 0.621 0.102 0.685 0.305l-0.457 0.609c0.051 2.437 0.076 4.316 0.076 5.636v1.752c0 0.229 0.202 0.661 0.609 1.295l0.533-0.076h0.076c0.177 0 0.406 0.026 0.686 0.076l0.533-0.151c0.85 0.050 1.51 0.076 1.98 0.076h1.904c0.215 0 0.418 0.026 0.609 0.076 0.203-0.050 0.406-0.076 0.609-0.076h1.296c0.191 0 0.621-0.152 1.295-0.457h0.152c0.076 0 0.152 0.077 0.229 0.228-0.279 3.149-0.533 4.722-0.761 4.722-0.088 0.051-0.191 0.077-0.305 0.077h-2.361c-2.17 0-3.846 0.026-5.027 0.077-1.004-0.051-2.578-0.077-4.722-0.077h-0.914c-0.254 0-0.381-0.050-0.381-0.152-0.254 0.152-0.457 0.229-0.609 0.229h-0.229c-0.115 0-0.191-0.127-0.228-0.381 0.304-0.775 0.457-1.256 0.457-1.447 0-0.75-0.026-1.256-0.076-1.524 0.051-1.053 0.076-2.017 0.076-2.894v-2.057c0-0.747-0.026-1.256-0.076-1.523 0.051-0.533 0.076-1.118 0.076-1.752v-5.484c0-0.178-0.026-0.406-0.076-0.686 0.051-0.101 0.076-0.177 0.076-0.229l-0.076-0.914 0.076-1.066c0-0.393-0.026-0.748-0.076-1.066 0.051-1.687 0.076-3.16 0.076-4.417v-2.819l-0.076-0.381h0.076l-0.457-1.447v-0.076c0.101-0.203 0.254-0.304 0.457-0.304zM77.774 1.799v0.305l0.533 2.589h0.076c0.051-0.178 0.076-0.279 0.076-0.305 0-0.242-0.152-0.977-0.457-2.209 0-0.254-0.051-0.381-0.152-0.381h-0.076zM77.926 7.968l-0.152 0.305c0 1.193 0.152 2.031 0.457 2.513l-0.228 1.295 0.457 2.209v0.686c0.037 0.304 0.115 0.457 0.229 0.457 0-0.254 0.025-0.38 0.076-0.38-0.088-0.33-0.191-1.168-0.305-2.513v-2.057c0-0.127-0.127-0.634-0.381-1.523l0.076-0.381c0-0.384-0.076-0.587-0.229-0.612zM78.080 28.225c0 0.151-0.026 0.228-0.076 0.228 0.051 0.101 0.076 0.178 0.076 0.228h0.076v-0.456h-0.076zM78.383 5.15c0 0.025-0.026 0.127-0.076 0.304 0 0.229 0.203 1.092 0.609 2.589 0.305 1.51 0.457 2.754 0.457 3.732h-0.076l0.076 0.152v0.152c0 0.051-0.025 0.076-0.076 0.076 0.076 0.203 0.152 0.305 0.228 0.305 0-0.051 0.026-0.076 0.076-0.076 0-0.051-0.026-0.127-0.076-0.229 0.051-1.117 0.127-1.929 0.229-2.437-0.355 0-0.66-1.244-0.914-3.732-0.051 0-0.178-0.279-0.381-0.837h-0.076zM79.449 1.342l-0.076 0.152c0.152 0.686 0.229 1.168 0.229 1.447v0.838c0.012 0.102 0.064 0.152 0.152 0.152v-0.914c0-0.152 0.076-0.457 0.229-0.914-0.064-0.507-0.242-0.761-0.534-0.761zM79.754 26.93l-0.076 0.38v1.064h0.076c0-0.66 0.102-1.117 0.305-1.37l-0.152-0.076h-0.153zM80.363 28.834v0.076c0 0.279 0.026 0.635 0.076 1.066-0.051 0.087-0.076 0.191-0.076 0.304h0.152v-0.151c0-0.164 0.026-0.291 0.076-0.38-0.050-0.61-0.126-0.915-0.228-0.915zM80.592 13.755v0.533c0.101 0 0.152-0.051 0.152-0.152l-0.076-0.381h-0.076zM80.897 1.723v0.914c0.305 0.316 0.457 0.621 0.457 0.914 0.115 0 0.191-0.177 0.229-0.533l-0.076-0.914h0.076c-0.051-0.406-0.178-0.609-0.381-0.609-0.204 0.075-0.305 0.151-0.305 0.228zM82.42 27.386c0 0.028-0.051 0.407-0.152 1.143v0.456h0.152c0.203-0.761 0.305-1.191 0.305-1.295v-0.151c0-0.102-0.051-0.153-0.152-0.153h-0.153zM83.182 13.603c-0.203 0.102-0.305 0.94-0.305 2.513-0.102 0.012-0.152 0.064-0.152 0.152v0.229h0.152c0.254-0.66 0.381-1.015 0.381-1.066s-0.051-0.304-0.152-0.761c0.152-0.266 0.229-0.521 0.229-0.762v-0.152c-0.001-0.102-0.052-0.153-0.153-0.153zM83.943 1.723c0 0.889-0.127 1.904-0.381 3.047l0.152 0.229c0.609-0.051 0.914-0.127 0.914-0.229 0.051-1.676 0.127-2.513 0.229-2.513-0.102-0.381-0.152-0.635-0.152-0.762h-0.609c-0.102-0.001-0.153 0.075-0.153 0.228zM83.715 29.367c0.051 0.101 0.076 0.178 0.076 0.228h0.152c0.115-0.050 0.316-0.406 0.609-1.064 0.254-0.065 0.381-0.141 0.381-0.229v-0.38c0-0.077-0.076-0.153-0.229-0.229-0.242 0-0.469 0.407-0.685 1.219-0.037-0.001-0.139 0.151-0.304 0.456zM83.943 15.659c0.139 0 0.316-0.279 0.533-0.837l-0.076-0.152v-0.533c0-0.127 0.051-0.355 0.152-0.686l-0.152-0.076h-0.076c-0.127-0.001-0.254 0.761-0.381 2.284zM84.628 15.811l-0.076 0.381v0.076c0.012 0.102 0.064 0.152 0.152 0.152 0-0.051 0.026-0.254 0.076-0.609h-0.152z"></path>
<path d="M94.433 0.885h0.305c0.748 0 1.459 0.026 2.133 0.076 0.342-0.051 0.621-0.076 0.837-0.076 0.102 0 0.279 0.051 0.533 0.152 0.115-0.051 0.342-0.101 0.686-0.152 0.711 0.039 1.066 0.115 1.066 0.229v0.229c-0.254 0.279-0.381 0.635-0.381 1.066-0.051 0-0.152 0.102-0.304 0.304 0 0.102 0.025 0.152 0.076 0.152l-0.076 0.914v1.752c0 0.496 0.025 0.75 0.076 0.762-0.051 0.431-0.076 0.786-0.076 1.066v5.025c0 0.634 0.025 1.422 0.076 2.361-0.051 0.088-0.076 0.215-0.076 0.381 0.037 0.406 0.088 0.609 0.152 0.609l-0.076 0.686c0 1.256-0.025 2.246-0.076 2.971 0.051 1.319 0.076 2.843 0.076 4.568v0.153c0 0.432-0.025 1.064-0.076 1.904 0.621 0.558 0.977 0.837 1.066 0.837 0.33-0.101 0.558-0.152 0.686-0.152h6.169c0.215 0 0.496 0.026 0.838 0.076 0.736-0.305 1.143-0.456 1.219-0.456h0.457c0.076 0 0.152 0.101 0.229 0.305-0.139 0.113-0.266 0.926-0.381 2.437-0.051 0-0.127 0.533-0.229 1.599v0.305c0 0.166-0.254 0.293-0.761 0.381-0.711-0.051-1.321-0.077-1.828-0.077h-1.981c-0.318 0-0.697 0.026-1.142 0.077l-0.457-0.077c-0.635 0.050-1.016 0.077-1.143 0.077l-1.675-0.153c-0.191 0.102-0.393 0.153-0.609 0.153-0.152 0-0.229-0.028-0.229-0.077-0.101 0-0.152 0.026-0.152 0.077-0.939-0.051-1.625-0.077-2.056-0.077h-1.447c-0.33 0-0.838 0.026-1.523 0.077l-0.076-0.153v-0.151c0-0.203 0.152-0.483 0.457-0.838l-0.076-0.151c0-0.077 0.076-0.356 0.229-0.838-0.051-0.849-0.076-1.51-0.076-1.98 0-0.266 0.026-0.699 0.076-1.295l-0.229-1.523c0.102-0.483 0.152-0.863 0.152-1.143v-3.579c-0.102-0.863-0.152-1.346-0.152-1.448v-0.457l0.229-2.132-0.229-1.142c0.102-0.483 0.152-0.863 0.152-1.143v-6.173c0-0.242-0.051-0.647-0.152-1.219 0-0.254 0.026-0.558 0.076-0.914-0.051-0.533-0.076-1.117-0.076-1.752v-0.456c0-0.051 0.026-0.076 0.076-0.076l-0.458-1.523v-0.229c0.011-0.101 0.062-0.152 0.15-0.152zM96.033 15.43c-0.203 1.168-0.305 1.879-0.305 2.133l0.076 0.685c-0.152 0.609-0.229 1.041-0.229 1.295v0.229l0.076 0.533h0.076c0.203-0.723 0.355-1.41 0.457-2.056 0-0.115-0.026-0.393-0.076-0.837 0.051-0.559 0.076-1.041 0.076-1.447l-0.076-0.533h-0.075zM95.881 24.418c-0.203 2.716-0.305 4.595-0.305 5.636v0.226h0.229v-0.456c0-0.305 0.076-0.94 0.229-1.904v-2.209c0-0.215-0.026-0.496-0.076-0.838 0.051-0.101 0.076-0.178 0.076-0.228-0.051-0.101-0.076-0.178-0.076-0.228h-0.077zM96.643 23.274c0 0.141-0.178 0.318-0.533 0.534v0.076c0.291 0.051 0.494 0.076 0.609 0.076 0-0.101 0.025-0.151 0.076-0.151-0.051-0.065-0.076-0.242-0.076-0.534h-0.076zM96.338 4.084v0.99c0 0.24 0.025 0.494 0.076 0.761l-0.076 0.381 0.076 0.533c0 0.115-0.026 0.215-0.076 0.305 0.051 0.521 0.076 0.926 0.076 1.218v0.381c0 0.215-0.026 0.494-0.076 0.838 0.051 0.088 0.076 0.191 0.076 0.305l-0.076 0.38c0.051 0.242 0.076 0.598 0.076 1.066h0.076c0.254-0.838 0.381-1.574 0.381-2.209v-0.913c0-0.508 0.025-1.117 0.076-1.828-0.051-0.088-0.076-0.191-0.076-0.305 0-0.051 0.101-0.381 0.304-0.99l-0.761-0.838v-0.075h-0.076zM97.48 18.324c-0.457 1.55-0.685 2.437-0.685 2.666-0.102 0.012-0.152 0.065-0.152 0.152 0.051 0.965 0.076 1.626 0.076 1.981h0.076c0-0.265 0.254-1.611 0.761-4.036v-0.762h-0.076zM97.099 11.927l-0.304 2.513v0.229l0.076 0.761h0.076c0.203-0.101 0.305-0.254 0.305-0.457 0-0.229-0.026-0.381-0.076-0.457 0.051-0.432 0.076-0.787 0.076-1.066v-0.533l-0.076-0.457c0.051-0.088 0.076-0.191 0.076-0.305-0.051-0.102-0.076-0.178-0.076-0.229h-0.077zM97.48 16.954v1.142c0.012 0.102 0.064 0.152 0.152 0.152v-1.447c-0.101 0.014-0.152 0.064-0.152 0.153zM98.013 1.875v1.295c0 0.076-0.051 0.686-0.152 1.828l0.076 0.533h0.076c0-0.888 0.102-1.7 0.305-2.437 0.051-0.634 0.076-1.015 0.076-1.142l-0.152-0.076h-0.229zM98.242 14.974v0.38h0.152v-0.228c0-0.102-0.051-0.152-0.152-0.152zM99.765 28.53c0.115-0.088 0.393-0.42 0.838-0.99-0.037-0.153-0.139-0.255-0.305-0.305-0.33 0-0.508 0.432-0.533 1.295zM100.679 29.9c0 0.127 0.051 0.407 0.152 0.838h0.229l0.152-0.534v-0.228c0-0.266-0.076-0.42-0.229-0.457-0.203 0.051-0.304 0.178-0.304 0.381z"></path>
</svg>
