<!-- Generated by IcoMoon.io -->
<svg version="1.1" xmlns="http://www.w3.org/2000/svg" width="165" height="32" viewBox="0 0 165 32">
<title>registreer</title>
<path d="M1.267 0.885l0.381 0.076h2.513c0.24 0 0.647 0.051 1.218 0.152l0.762-0.152c0.088 0 0.291 0.051 0.609 0.152l2.056-0.152c0.088 0.051 0.316 0.102 0.686 0.152 0.088 0 0.291-0.051 0.609-0.152 0.039 0 0.191 0.026 0.457 0.076l0.915-0.076c0.33 0.102 0.558 0.152 0.686 0.152h0.152c0.951-0.152 1.459-0.229 1.523-0.229 0.33 0 0.686 0.254 1.066 0.762 0.965 0.508 1.447 1.066 1.447 1.675 0.051 0 0.076 0.026 0.076 0.076 0 0.051-0.026 0.127-0.076 0.229 0.051 0.66 0.076 1.193 0.076 1.599v0.077c0 0.178-0.026 0.406-0.076 0.686 0.101 0.318 0.152 0.521 0.152 0.609-0.102 0.355-0.152 0.66-0.152 0.914 0.203 0.494 0.305 0.826 0.305 0.99v1.295l-0.305 1.904c0 0.291 0.025 0.699 0.076 1.218-0.102 0.508-0.152 0.965-0.152 1.371 0.203 0.469 0.305 0.748 0.305 0.838v0.914c-0.141 0.94-0.266 1.473-0.381 1.6-0.102 0-0.559 0.457-1.371 1.371-0.304 0.139-0.457 0.393-0.457 0.762 0.101 0.787 0.279 1.421 0.533 1.904l0.762 3.047c0 0.786 0.305 1.876 0.914 3.273 0 1.143 0.305 1.955 0.914 2.438 0.152 0 0.279 0.228 0.381 0.685-0.166 0.152-0.291 0.229-0.381 0.229-0.545-0.102-0.902-0.153-1.066-0.153h-0.381c-0.432 0-0.965 0.051-1.599 0.153-0.445-0.051-0.723-0.077-0.838-0.077-0.039 0-0.191 0.026-0.457 0.077-0.203-0.051-0.381-0.077-0.533-0.077l-0.533 0.077c-0.254-0.088-0.381-0.215-0.381-0.381 0.152-0.254 0.229-0.457 0.229-0.609v-0.152c-0.203-1.168-0.508-2.438-0.914-3.808 0-0.215-0.127-0.722-0.381-1.524 0-0.164-0.127-0.648-0.381-1.447-0.051-0.457-0.305-1.371-0.761-2.741 0-0.469-0.432-0.877-1.295-1.219l-0.381 0.076-1.067-0.079c0 0.064-0.254 0.342-0.762 0.837v2.285c0 1.105-0.026 2.602-0.076 4.493 0.051 0.28 0.076 0.508 0.076 0.685l-0.076 0.381c0.051 0.393 0.076 0.826 0.076 1.295v0.076c0 0.088 0.177 0.572 0.533 1.447v0.077c0 0.076-0.076 0.151-0.229 0.228h-3.273c-0.291 0-0.697 0.026-1.218 0.077-0.102-0.051-0.178-0.077-0.229-0.077-0.088 0.050-0.217 0.077-0.381 0.077-0.254-0.153-0.381-0.305-0.381-0.458 0.457-0.722 0.686-1.281 0.686-1.675v-1.599c0-0.826-0.026-1.434-0.076-1.828 0.051-0.393 0.076-1.004 0.076-1.828v-1.295c0-0.113-0.026-0.215-0.076-0.305 0.051-0.088 0.076-0.191 0.076-0.305v-0.151c0-0.293-0.026-0.471-0.076-0.534 0.051-0.279 0.076-0.507 0.076-0.685v-0.685c0-0.215-0.026-0.421-0.076-0.609 0-0.051 0.025-0.127 0.076-0.229-0.051-0.812-0.076-1.295-0.076-1.447 0-0.127 0.025-0.787 0.076-1.98l-0.076-0.381c0.051-0.088 0.076-0.191 0.076-0.304l-0.076-0.381 0.076-0.152c-0.051-0.102-0.076-0.178-0.076-0.229l0.076-0.457c0-0.152-0.026-0.33-0.076-0.533 0.050-0.799 0.076-1.383 0.076-1.752 0-0.432-0.026-1.193-0.076-2.285 0.037-0.406 0.088-0.609 0.152-0.609l-0.076-0.381v-1.066c0-0.279-0.026-0.635-0.076-1.066 0.051-0.101 0.076-0.177 0.076-0.229 0-0.051-0.026-0.076-0.076-0.076l0.076-0.761v-2.894c0-0.102-0.152-0.406-0.457-0.914v-0.077l0.228-0.304zM3.476 13.679v0.152c0 0.063-0.051 0.342-0.152 0.838 0.026 0.508 0.102 0.761 0.229 0.761v-1.218l0.152-0.229v-0.152c0-0.101-0.051-0.152-0.152-0.152h-0.077zM3.476 21.828c0 0.115-0.026 0.215-0.076 0.305 0.051 0.508 0.127 0.762 0.229 0.762h0.076v-0.077c0-0.177 0.025-0.406 0.076-0.685-0.051-0.088-0.076-0.191-0.076-0.305h-0.229zM4.39 18.172v0.229h0.152v-0.381c-0.101 0.012-0.152 0.064-0.152 0.152zM4.544 6.064c0 0.178-0.026 0.406-0.076 0.686 0.051 0.088 0.076 0.191 0.076 0.305 0.064 0 0.191-0.127 0.38-0.381 0-0.28-0.127-0.483-0.38-0.61zM4.62 12.003l-0.152 0.914c0.051 0.266 0.076 0.521 0.076 0.762v0.305h0.152l0.152-0.381-0.228-0.381v-0.534c0-0.127 0.051-0.355 0.152-0.685h-0.152zM4.466 20.227l0.152 0.763h0.076v-0.609c0-0.102-0.051-0.153-0.152-0.153h-0.076zM4.544 2.18l0.076 0.152v0.837h0.152l0.076-0.38v-0.077c0-0.051-0.051-0.254-0.152-0.609l-0.152 0.077zM4.62 16.344c0.064 0 0.191-0.127 0.38-0.381l-0.152-0.076c-0.101 0-0.178 0.153-0.228 0.457zM4.62 16.573v0.229h0.076v-0.229h-0.076zM4.847 18.932c0 0.203-0.025 0.305-0.076 0.305 0.051 0.077 0.076 0.229 0.076 0.458h0.152l0.076-0.686-0.152-0.077h-0.076zM4.923 14.898v0.152c0.012 0.101 0.064 0.152 0.152 0.152 0.102-0.164 0.152-0.291 0.152-0.38l-0.152-0.076c-0.101 0.011-0.152 0.062-0.152 0.152zM4.923 21.371v0.076c0.152 0.229 0.229 0.381 0.229 0.458h0.152v-0.381c0-0.101-0.051-0.152-0.152-0.152h-0.229zM4.923 25.787v0.38h0.076v-0.38h-0.076zM4.999 17.791l0.457 0.762v-0.381c0-0.266-0.076-0.418-0.229-0.457-0.101 0.051-0.177 0.076-0.228 0.076zM5.075 22.74v0.077h0.076c0.102 0 0.152-0.050 0.152-0.152v-0.076h-0.075c-0.102 0.012-0.153 0.064-0.153 0.151zM5.685 15.659c0 0.254-0.026 0.381-0.076 0.381l0.076 0.152v0.076c0 0.242-0.127 0.445-0.381 0.609 0.152 0.342 0.229 0.547 0.229 0.609h0.152l-0.076-0.762c0.064 0 0.191-0.127 0.381-0.381l-0.152-0.686h-0.153zM5.761 1.951c0 0.051-0.026 0.127-0.076 0.229 0.050 0.304 0.126 0.457 0.228 0.457 0.152-0.051 0.229-0.203 0.229-0.457v-0.077c0-0.102-0.051-0.152-0.152-0.152h-0.229zM5.761 19.391c0.152-0.203 0.305-0.305 0.457-0.305v-0.381h-0.076c-0.254 0.217-0.381 0.445-0.381 0.686zM9.645 5.453h-1.371c-0.291 0-0.699-0.025-1.218-0.076-0.254 0-0.635 0.28-1.143 0.838 0.051 0.508 0.076 0.889 0.076 1.143v1.371c0 0.33-0.026 0.66-0.076 0.99 0.051 0.177 0.076 0.456 0.076 0.837 0 0.293-0.026 0.469-0.076 0.533 0.051 0.342 0.076 0.623 0.076 0.838v2.209c0 0.051-0.026 0.076-0.076 0.076 0.215 0.393 0.445 0.672 0.686 0.838h4.798c0.406-0.393 0.609-0.926 0.609-1.6v-2.97c0-0.648 0.025-1.357 0.076-2.132-0.051-0.204-0.076-0.407-0.076-0.61 0.051-0.482 0.076-0.964 0.076-1.447 0-0.381-0.457-0.711-1.371-0.99-0.381 0.102-0.736 0.152-1.066 0.152zM6.294 16.344l0.229 0.381c-0.051 0.279-0.076 0.483-0.076 0.609 0.279 0.432 0.456 0.864 0.533 1.295 0.164 0.102 0.291 0.153 0.38 0.153 0.051-0.102 0.076-0.178 0.076-0.229-0.101-0.342-0.355-0.951-0.761-1.828 0.051-0.088 0.076-0.191 0.076-0.305 0-0.101-0.051-0.152-0.152-0.152h-0.152l-0.153 0.076zM6.446 4.693l0.152 0.076c0.088 0 0.266-0.229 0.533-0.686 0.101-0.051 0.177-0.076 0.228-0.076 0.203 0.229 0.305 0.406 0.305 0.533h0.152l0.076-0.914c-0.355 0-0.533-0.279-0.533-0.838v-0.304c0-0.127 0.051-0.355 0.152-0.686h-0.075c-0.355 0.001-0.533 0.382-0.533 1.143-0.203 0.318-0.355 0.902-0.457 1.752zM7.893 1.723v0.076l0.229 0.457c-0.051 0.432-0.076 0.787-0.076 1.066v0.152c0.152-0.051 0.229-0.203 0.229-0.457 0-0.076-0.026-0.431-0.076-1.066h0.076c-0.051-0.102-0.077-0.178-0.077-0.228h-0.305zM9.112 3.55c-0.305 0.674-0.457 1.029-0.457 1.067l0.152 0.076h0.305c0.101 0 0.152-0.051 0.152-0.152v-0.838c0-0.102-0.051-0.153-0.152-0.153zM9.188 2.18v0.457h0.076l0.076-0.533v-0.077c-0.101 0.014-0.152 0.063-0.152 0.153zM10.483 15.887c0 0.051 0.026 0.076 0.076 0.076l-0.076 0.381c0.051 0.102 0.076 0.178 0.076 0.229h0.305c0.102-0.026 0.203-0.152 0.305-0.381-0.051 0-0.203-0.177-0.457-0.533-0.039 0-0.115 0.076-0.229 0.228zM10.559 20.991c0.152 0.215 0.229 0.57 0.229 1.064l0.152-0.076-0.076-0.38c0.051-0.37 0.076-0.572 0.076-0.609l-0.152-0.077h-0.077l-0.152 0.077zM10.711 1.799v1.828l0.076 0.914h0.076c0-0.242 0.026-0.496 0.076-0.762-0.051-0.621-0.076-1.232-0.076-1.828v-0.152h-0.152zM11.092 17.182v0.229l0.533 1.981h0.152l0.076-0.381c-0.254-0.482-0.381-0.939-0.381-1.371v-0.457c0-0.102-0.051-0.152-0.152-0.152h-0.075c-0.102 0.011-0.153 0.062-0.153 0.151zM11.321 16.192c0.012 0.102 0.063 0.152 0.152 0.152l0.076-0.305h-0.076c-0.102 0.014-0.152 0.065-0.152 0.153zM11.702 2.56c0.115 1.218 0.215 2.107 0.305 2.665h0.076v-0.761c0.203-1.041 0.304-1.6 0.304-1.676v-0.607l0.076-0.381c-0.101-0.051-0.178-0.076-0.228-0.076-0.356 0.139-0.533 0.418-0.533 0.837zM12.691 16.649l-0.076 0.533c0 0.254 0.026 0.634 0.076 1.142h0.076l0.076-0.914-0.076-0.762h-0.076zM12.691 19.772c0 0.026-0.026 0.127-0.076 0.305 0.051 0.101 0.076 0.178 0.076 0.228h0.076c0-0.050 0.026-0.127 0.076-0.228-0.051-0.088-0.076-0.192-0.076-0.305h-0.076zM13.301 29.062v0.077c0.152 0.736 0.229 1.191 0.229 1.37h0.152v-0.076c0-0.914-0.102-1.371-0.305-1.371h-0.076zM13.453 6.597v0.305l0.076 0.381h0.076l0.077-0.381v-0.534c-0.077 0-0.153 0.076-0.229 0.229zM13.453 13.983v0.076h0.076c0.101-0.33 0.152-0.558 0.152-0.686-0.113 0.001-0.189 0.204-0.228 0.61zM14.291 2.027c0.051 0.102 0.076 0.178 0.076 0.229 0 0.572-0.152 1.41-0.457 2.513v0.229c0.266 0 0.545-0.762 0.838-2.285l-0.229-0.761h-0.076l-0.152 0.075zM13.986 26.397c0.152 1.027 0.229 1.637 0.229 1.828v0.533c0.012 0.101 0.063 0.152 0.152 0.152 0.088-0.051 0.191-0.076 0.305-0.076l0.076 0.151c0 0.127-0.026 0.331-0.076 0.609 0 0.762 0.203 1.143 0.609 1.143 0.723-0.102 1.231-0.153 1.524-0.153-0.242-0.507-0.393-0.761-0.457-0.761-0.166 0-0.342 0.076-0.533 0.229h-0.305c-0.102 0-0.152-0.051-0.152-0.153l0.076-0.38c0-0.496-0.279-0.977-0.837-1.448 0-0.432-0.178-0.99-0.533-1.675h-0.079zM14.215 17.258c0 0.076 0.025 0.381 0.076 0.914h0.152c0.076 0 0.152-0.076 0.229-0.229v-0.076l-0.229-0.304v-0.229c0-0.215 0.101-0.547 0.305-0.99l-0.152-0.076c-0.166 0-0.293 0.33-0.381 0.99zM14.367 23.045v0.077c0.012 0.101 0.063 0.152 0.152 0.152v-0.229h-0.152zM14.596 10.937l0.076 0.305h0.38c0.152 0 0.229-0.482 0.229-1.447 0-0.039-0.026-0.191-0.076-0.457h-0.076c-0.102 0-0.178 0.305-0.229 0.914-0.203 0.228-0.304 0.456-0.304 0.685zM14.748 12.46v2.361l0.076 0.533h0.152v-0.304c0-0.102-0.051-0.355-0.152-0.762 0-0.076 0.076-0.381 0.229-0.914v-1.066h-0.152c-0.102 0.012-0.153 0.063-0.153 0.152zM14.748 24.418v0.151c0 0.37 0.076 0.572 0.228 0.609h0.076v-0.228c0-0.277-0.101-0.456-0.304-0.532zM15.738 4.464c0 0.203-0.051 0.305-0.152 0.305l0.076 0.533v0.305l-0.838 0.686v0.076c0 0.076 0.076 0.152 0.229 0.229h0.533l0.305-0.229-0.076-0.533c0.051-0.634 0.076-1.015 0.076-1.142-0.051-0.102-0.076-0.178-0.076-0.229h-0.077zM15.205 26.244c0.076 0.203 0.152 0.305 0.229 0.305v-0.533c-0.039 0-0.115 0.076-0.229 0.228zM15.814 3.931v0.305h0.076c0.051-0.178 0.076-0.279 0.076-0.305h-0.152z"></path>
<path d="M19.316 0.885c0.152 0 0.355 0.051 0.609 0.152 0.355-0.101 0.634-0.152 0.838-0.152l0.99 0.152c0.33-0.101 0.559-0.152 0.686-0.152h1.447c0.164 0 0.519 0.051 1.066 0.152 0.152 0 0.355-0.051 0.609-0.152 0.254 0 0.381 0.026 0.381 0.076 1.092-0.051 1.904-0.076 2.437-0.076h4.95c0.457 0 0.685 0.533 0.685 1.6 0.254 1.726 0.381 2.843 0.381 3.351l-0.305 0.152c-0.391-0.051-0.798-0.229-1.216-0.534l-0.152 0.076h-0.609c-0.178 0-0.406-0.025-0.686-0.076-0.101 0.051-0.177 0.076-0.228 0.076-0.152 0-0.229-0.025-0.229-0.076-0.508 0.051-0.889 0.076-1.143 0.076h-2.437c-0.064 0-0.342-0.051-0.838-0.152h-0.533c-0.102 0-0.356 0.051-0.762 0.152-0.254-0.088-0.381-0.215-0.381-0.38 0.102-0.85 0.279-1.664 0.533-2.438-0.102-0.482-0.152-0.863-0.152-1.142v-0.076c-0.355-0.051-0.559-0.076-0.609-0.076l-0.076 0.152v0.99l-0.152 1.371c0.102 0.672 0.203 1.080 0.305 1.219 0 0.064-0.279 0.469-0.837 1.218v0.152c0 0.355 0.051 0.635 0.152 0.838-0.101 0.203-0.152 0.482-0.152 0.837v1.6c0 0.203 0.051 0.533 0.152 0.99-0.101 0.469-0.152 0.748-0.152 0.838 0 0.609 0.533 1.015 1.599 1.218 0.088 0 0.291-0.051 0.609-0.152l0.457 0.076c1.232 0 2.348-0.203 3.351-0.609h0.305c0.101 0.012 0.152 0.063 0.152 0.152v0.381c0 0.178 0.025 0.406 0.076 0.686-0.102 0.203-0.152 0.381-0.152 0.533 0.051 0.152 0.101 0.229 0.152 0.229l-0.076 0.533v2.437l0.076 0.533-0.229 0.152h-0.152c-1.029-0.406-1.611-0.609-1.752-0.609-0.356 0.051-0.559 0.076-0.609 0.076-0.088 0-0.445-0.076-1.066-0.229-0.191 0.102-0.393 0.152-0.609 0.152-0.051 0-0.127-0.026-0.229-0.076-0.203 0.051-0.381 0.076-0.533 0.076l-0.305-0.076c-0.166 0.102-0.318 0.152-0.457 0.152h-0.152l-0.229-0.152c0.064-1.967 0.166-3.186 0.305-3.656-0.037-0.305-0.191-0.457-0.457-0.457-0.101 0.166-0.152 0.293-0.152 0.381-0.051 1.561-0.076 2.578-0.076 3.047-0.102 0.33-0.152 0.559-0.152 0.686v0.076c0.393 0 0.621 0.102 0.685 0.305l-0.457 0.609c0.051 2.437 0.076 4.316 0.076 5.636v1.752c0 0.229 0.202 0.661 0.609 1.295l0.533-0.076h0.076c0.177 0 0.406 0.026 0.686 0.076l0.533-0.151c0.85 0.050 1.51 0.076 1.98 0.076h1.904c0.215 0 0.418 0.026 0.609 0.076 0.203-0.050 0.406-0.076 0.609-0.076h1.296c0.191 0 0.621-0.152 1.295-0.457h0.152c0.076 0 0.152 0.077 0.229 0.228-0.279 3.149-0.533 4.722-0.761 4.722-0.088 0.051-0.191 0.077-0.305 0.077h-2.361c-2.17 0-3.846 0.026-5.027 0.077-1.004-0.051-2.578-0.077-4.722-0.077h-0.914c-0.254 0-0.381-0.050-0.381-0.152-0.254 0.152-0.457 0.229-0.609 0.229h-0.229c-0.115 0-0.191-0.127-0.228-0.381 0.304-0.775 0.457-1.256 0.457-1.447 0-0.75-0.026-1.256-0.076-1.524 0.051-1.053 0.076-2.017 0.076-2.894v-2.057c0-0.747-0.026-1.256-0.076-1.523 0.051-0.533 0.076-1.118 0.076-1.752v-5.484c0-0.178-0.026-0.406-0.076-0.686 0.051-0.101 0.076-0.177 0.076-0.229l-0.076-0.914 0.076-1.066c0-0.393-0.026-0.748-0.076-1.066 0.051-1.687 0.076-3.16 0.076-4.417v-2.819l-0.076-0.381h0.076l-0.457-1.447v-0.076c0.101-0.203 0.253-0.304 0.456-0.304zM19.926 1.799v0.305l0.533 2.589h0.076c0.051-0.178 0.076-0.279 0.076-0.305 0-0.242-0.152-0.977-0.457-2.209 0-0.254-0.051-0.381-0.152-0.381h-0.076zM20.078 7.968l-0.152 0.305c0 1.193 0.152 2.031 0.457 2.513l-0.229 1.295 0.457 2.209v0.686c0.037 0.304 0.115 0.457 0.229 0.457 0-0.254 0.025-0.38 0.076-0.38-0.088-0.33-0.191-1.168-0.305-2.513v-2.057c0-0.127-0.127-0.634-0.381-1.523l0.076-0.381c0-0.384-0.076-0.587-0.228-0.612zM20.23 28.225c0 0.151-0.026 0.228-0.076 0.228 0.051 0.101 0.076 0.178 0.076 0.228h0.076v-0.456h-0.076zM20.535 5.15c0 0.025-0.026 0.127-0.076 0.304 0 0.229 0.203 1.092 0.609 2.589 0.305 1.51 0.457 2.754 0.457 3.732h-0.076l0.076 0.152v0.152c0 0.051-0.025 0.076-0.076 0.076 0.076 0.203 0.152 0.305 0.228 0.305 0-0.051 0.026-0.076 0.076-0.076 0-0.051-0.026-0.127-0.076-0.229 0.051-1.117 0.127-1.929 0.229-2.437-0.355 0-0.66-1.244-0.914-3.732-0.051 0-0.178-0.279-0.381-0.837h-0.076zM21.601 1.342l-0.076 0.152c0.152 0.686 0.229 1.168 0.229 1.447v0.838c0.012 0.102 0.064 0.152 0.152 0.152v-0.914c0-0.152 0.076-0.457 0.229-0.914-0.065-0.507-0.243-0.761-0.534-0.761zM21.906 26.93l-0.076 0.38v1.064h0.076c0-0.66 0.102-1.117 0.305-1.37l-0.152-0.076h-0.153zM22.515 28.834v0.076c0 0.279 0.026 0.635 0.076 1.066-0.051 0.087-0.076 0.191-0.076 0.304h0.152v-0.151c0-0.164 0.026-0.291 0.076-0.38-0.050-0.61-0.126-0.915-0.228-0.915zM22.744 13.755v0.533c0.101 0 0.152-0.051 0.152-0.152l-0.076-0.381h-0.076zM23.048 1.723v0.914c0.305 0.316 0.457 0.621 0.457 0.914 0.115 0 0.191-0.177 0.229-0.533l-0.076-0.914h0.076c-0.051-0.406-0.178-0.609-0.381-0.609-0.203 0.075-0.305 0.151-0.305 0.228zM24.571 27.386c0 0.028-0.051 0.407-0.152 1.143v0.456h0.152c0.203-0.761 0.305-1.191 0.305-1.295v-0.151c0-0.102-0.051-0.153-0.152-0.153h-0.153zM25.333 13.603c-0.203 0.102-0.305 0.94-0.305 2.513-0.102 0.012-0.152 0.064-0.152 0.152v0.229h0.152c0.254-0.66 0.381-1.015 0.381-1.066s-0.051-0.304-0.152-0.761c0.152-0.266 0.229-0.521 0.229-0.762v-0.152c-0.001-0.102-0.052-0.153-0.153-0.153zM26.095 1.723c0 0.889-0.127 1.904-0.381 3.047l0.152 0.229c0.609-0.051 0.914-0.127 0.914-0.229 0.051-1.676 0.127-2.513 0.229-2.513-0.102-0.381-0.152-0.635-0.152-0.762h-0.609c-0.102-0.001-0.153 0.075-0.153 0.228zM25.866 29.367c0.051 0.101 0.076 0.178 0.076 0.228h0.152c0.115-0.050 0.316-0.406 0.609-1.064 0.254-0.065 0.381-0.141 0.381-0.229v-0.38c0-0.077-0.076-0.153-0.229-0.229-0.242 0-0.469 0.407-0.685 1.219-0.037-0.001-0.139 0.151-0.304 0.456zM26.095 15.659c0.139 0 0.316-0.279 0.533-0.837l-0.076-0.152v-0.533c0-0.127 0.051-0.355 0.152-0.686l-0.152-0.076h-0.076c-0.128-0.001-0.254 0.761-0.381 2.284zM26.78 15.811l-0.076 0.381v0.076c0.012 0.102 0.064 0.152 0.152 0.152 0-0.051 0.026-0.254 0.076-0.609h-0.152z"></path>
<path d="M39.747 0.885l0.381 0.152c0.355-0.101 0.66-0.152 0.914-0.152h3.123c0.406 0 0.889 0.026 1.447 0.076 0.102-0.051 0.178-0.076 0.229-0.076l0.381 0.152c0.203-0.101 0.381-0.152 0.533-0.152 0.355 0.102 0.533 0.178 0.533 0.229 0.266-0.152 0.519-0.229 0.761-0.229h1.143c0.215 0 0.875 0.533 1.98 1.6 0.406 0.291 0.609 0.926 0.609 1.904 0 0.115-0.026 0.215-0.076 0.305 0.051 0.939 0.076 1.726 0.076 2.361v1.904c0 0.432 0.177 1.092 0.533 1.98v0.152c0 0.076-0.076 0.152-0.229 0.229h-1.98c-0.166 0-0.293-0.025-0.381-0.076l-0.457 0.076h-2.285c-0.076 0-0.178-0.101-0.305-0.305 0-0.164 0.203-0.697 0.609-1.599v-2.591l0.076-0.762c-0.266-0.051-0.547-0.254-0.838-0.609l-0.152 0.076c-0.037 0-0.242-0.025-0.609-0.076l-0.381 0.076c-0.177-0.051-0.279-0.076-0.304-0.076l-0.381 0.076c-0.115 0-0.217-0.025-0.305-0.076-0.432 0.051-0.787 0.076-1.066 0.076h-1.295c-0.217 0.203-0.52 0.432-0.914 0.686 0.102 0.33 0.152 0.559 0.152 0.686v1.98c0 0.547 0.026 0.926 0.076 1.143-0.051 0.445-0.076 0.723-0.076 0.837-0.051 4.049-0.076 6.715-0.076 7.997-0.102 0.356-0.203 0.534-0.305 0.534h-0.152c-0.152-0.051-0.229-0.203-0.229-0.458h-0.076c0 0.736-0.152 1.321-0.457 1.753-0.039 0.609-0.266 1.524-0.686 2.741 0 0.977-0.152 2.449-0.457 4.417v0.077h0.076c0.508-1.078 0.762-2.297 0.762-3.656 0.127-0.202 0.33-0.305 0.609-0.305v-0.076c0-1.27 0.152-1.904 0.457-1.904l0.305-0.076c0.088 0 0.166 0.736 0.229 2.209 0 0.062-0.026 0.316-0.076 0.761l0.076 0.457c-0.051 0.279-0.076 0.508-0.076 0.686 0.508 0.456 0.787 0.685 0.838 0.685h4.493c0.508-0.342 0.762-0.722 0.762-1.143v-4.263c0-0.051 0.051-0.254 0.152-0.609 0-0.102-0.051-0.153-0.152-0.153-0.166 0.102-0.293 0.153-0.381 0.153-0.115 0-0.217-0.026-0.305-0.077-0.342 0.051-0.623 0.077-0.838 0.077h-1.066c-0.166 0-0.266-0.381-0.305-1.143-0.141 0-0.344-1.117-0.609-3.351-0.051 0-0.076-0.051-0.076-0.152 0.102-0.305 0.203-0.457 0.305-0.457l1.675 0.686c0.42 0 0.748-0.025 0.99-0.076 0.584 0.051 1.142 0.076 1.675 0.076h0.076c0.469 0 0.902-0.025 1.295-0.076 0.279 0.051 0.482 0.076 0.609 0.076 0.596-0.051 1.029-0.076 1.295-0.076 0.457 0.039 0.686 0.115 0.686 0.229v0.229l-0.533 1.752v8.302c0 0.113 0.025 0.215 0.076 0.305-0.051 0.088-0.076 0.191-0.076 0.305 0 0.406 0.025 0.889 0.076 1.447-0.28 0.547-1.066 1.357-2.361 2.437-0.088 0.051-0.191 0.077-0.305 0.077h-0.076c-0.445 0-0.951 0.026-1.523 0.077l-0.302-0.084c-0.191 0.050-0.393 0.077-0.609 0.077h-0.305c-0.051 0-0.076-0.028-0.076-0.077l-0.152 0.077h-0.457c-0.863 0-1.853-0.028-2.97-0.077-0.28 0.050-0.483 0.077-0.609 0.077-0.051 0-0.127-0.028-0.229-0.077-0.432 0.050-0.787 0.077-1.066 0.077h-0.533c-1.269-0.153-1.904-0.381-1.904-0.686-0.432-0.369-0.99-0.977-1.675-1.827 0-0.164 0.025-0.293 0.076-0.381-0.051-1.41-0.076-2.576-0.076-3.503v-1.524c0-0.279 0.051-0.66 0.152-1.142-0.102-0.94-0.152-1.853-0.152-2.742v-8.912c0-1.307-0.026-3.135-0.076-5.482 0.051-0.215 0.076-0.647 0.076-1.295l-0.076-0.457c0-0.203 0.787-0.964 2.361-2.285 0.403-0.152 0.657-0.228 0.759-0.228zM37.462 4.693c-0.102 0.469-0.152 1.129-0.152 1.98l0.076 0.381h0.076c0.152-0.051 0.229-0.203 0.229-0.457v-0.152c0-0.177-0.026-0.406-0.076-0.686 0.152-0.24 0.228-0.521 0.228-0.837-0.001-0.153-0.128-0.229-0.381-0.229zM37.538 3.855v0.076c0.115 0 0.266 0.076 0.457 0.229h0.076v-1.219h-0.076c-0.305 0.178-0.457 0.482-0.457 0.914zM37.614 25.254c0.051 0.088 0.076 0.192 0.076 0.305h0.076l0.152-0.076c-0.051-0.178-0.076-0.432-0.076-0.761-0.088 0-0.164 0.178-0.228 0.532zM38.298 13.069c0 0.203 0.026 0.406 0.076 0.609-0.051 0.33-0.076 0.66-0.076 0.99v0.305c0 0.203 0.051 0.533 0.152 0.99h0.076l0.076-0.381v-2.589c0-0.101-0.051-0.152-0.152-0.152s-0.152 0.076-0.152 0.228zM38.298 22.436v0.152h0.152v-0.305c-0.101 0.015-0.152 0.065-0.152 0.153zM38.528 4.769v0.076c0 0.33-0.026 0.66-0.076 0.99v0.152h0.076c0-0.342 0.127-0.572 0.381-0.686-0.152-0.254-0.229-0.431-0.229-0.533h-0.152zM39.136 9.185c0 0.623-0.152 1.383-0.457 2.285 0 0.127-0.026 0.33-0.076 0.609l0.152 0.076c0.242 0 0.418-0.66 0.533-1.981v-0.835c0.001-0.102-0.051-0.153-0.152-0.153zM38.831 3.779v0.457h0.076c0-0.115 0.127-0.902 0.381-2.361h-0.152c-0.203 0-0.305 0.635-0.305 1.904zM40.735 2.789c0 0.051-0.102 0.381-0.305 0.99v0.686l0.076 0.914-0.152 0.076-0.38-0.076v1.143c0 0.191-0.152 0.596-0.457 1.218v0.305l0.837-0.837v-0.688c0-0.191 0.152-0.445 0.457-0.762 0-0.139 0.076-0.316 0.229-0.533-0.102-0.355-0.152-0.66-0.152-0.914v-1.143l-0.076-0.38h-0.077zM39.517 13.679l0.152 0.076h0.076v-0.457c-0.088 0-0.164 0.127-0.228 0.381zM40.431 27.843c0 0.141-0.254 0.649-0.761 1.524-0.051 0.52-0.102 0.826-0.152 0.913 0.063 0.255 0.139 0.381 0.229 0.381h0.076c0.139 0 0.24-0.355 0.305-1.066 0.406-0.202 0.609-0.329 0.609-0.38v-0.076c-0.052-0.863-0.155-1.296-0.306-1.296zM40.354 14.821c0 0.166-0.177 0.723-0.533 1.675h0.076c0.291 0 0.494-0.558 0.609-1.675h-0.152zM39.899 2.789h0.152c0-0.228 0.127-0.533 0.38-0.914-0.063-0.254-0.139-0.381-0.228-0.381-0.164 0-0.266 0.432-0.304 1.295zM40.431 10.404l-0.304 1.6v0.228h0.152c0.203-0.42 0.305-0.723 0.305-0.914v-0.457c0-0.051 0.026-0.076 0.076-0.076-0.102-0.164-0.152-0.291-0.152-0.381h-0.077zM40.964 20.001c0.152 0.050 0.229 0.202 0.229 0.456v0.762c0 0.101-0.051 0.152-0.152 0.152-0.406-0.279-0.609-0.457-0.609-0.534-0.001-0.253 0.177-0.532 0.532-0.835zM40.735 26.701c-0.203 0.33-0.305 0.584-0.305 0.762v0.228l0.533-0.533c0.001-0.266-0.075-0.418-0.228-0.457zM46.143 2.18v0.152h0.076v-0.152h-0.076zM47.057 2.484v0.152c0.152 0.939 0.229 1.701 0.229 2.285v0.152c0.012 0.101 0.063 0.152 0.152 0.152h0.076c0-0.152 0.025-0.228 0.076-0.228l-0.076-0.152c0-0.33 0.025-0.762 0.076-1.295-0.039-1.371-0.141-2.056-0.305-2.056-0.152 0-0.228 0.33-0.228 0.99zM47.286 17.791c0 0.039-0.026 0.242-0.076 0.609 0 0.115 0.025 0.393 0.076 0.837l-0.076 0.381c0.051 0.088 0.076 0.191 0.076 0.305l0.152-0.077c-0.051-0.494-0.076-1.179-0.076-2.056h-0.076zM47.362 26.93v0.38h0.076v-0.38h-0.076zM47.362 30.129v0.151h0.076v-0.151h-0.076zM48.047 10.175v0.305h0.076v-0.305h-0.076zM49.646 8.5l-0.076 0.381v0.076c0 0.266 0.025 0.699 0.076 1.295h0.076v-1.752h-0.076zM49.646 28.376v0.153h0.076v-0.153h-0.076z"></path>
<path d="M57.528 0.808c0.596 0.051 1.029 0.076 1.295 0.076l0.533-0.076c0.229 0.102 0.355 0.203 0.381 0.305-0.406 0.533-0.634 1.041-0.685 1.524 0.101 0.457 0.152 0.711 0.152 0.761-0.051 0.926-0.076 1.51-0.076 1.752 0 0.037 0.025 0.24 0.076 0.609-0.102 0.203-0.152 0.483-0.152 0.838v0.076c0.101 0.736 0.152 1.142 0.152 1.218v1.829l-0.152 1.371c0.101 0.863 0.152 1.447 0.152 1.752 0 0.28-0.051 0.661-0.152 1.143 0 0.127 0.025 0.33 0.076 0.609l-0.076 0.685 0.076 1.219-0.076 0.686 0.152 0.457c0 0.051-0.026 0.127-0.076 0.228 0.051 0.52 0.076 0.926 0.076 1.219 0 0.254-0.051 0.558-0.152 0.914 0.101 0.355 0.152 0.66 0.152 0.913v0.761c-0.102 0.863-0.152 1.346-0.152 1.447v0.533c0.101 0.736 0.152 1.118 0.152 1.143 0 0.127-0.051 0.38-0.152 0.761 0.152 0.331 0.228 0.559 0.228 0.686v0.077c-0.254 0.305-0.38 0.483-0.38 0.533l0.305 2.818 0.533 1.295v0.152c0 0.076-0.076 0.152-0.229 0.229h-0.304c-0.127 0-0.356-0.051-0.686-0.153-0.191 0.102-0.393 0.153-0.609 0.153h-0.229c-0.178 0-0.381-0.102-0.609-0.305-0.191 0.151-0.342 0.228-0.457 0.228-0.051 0-0.203-0.101-0.457-0.305-0.115 0.255-0.369 0.381-0.762 0.381h-0.99c-0.076 0-0.152-0.077-0.228-0.229v-0.076c0.355-1.472 0.533-2.311 0.533-2.513-0.051-3.084-0.076-5.547-0.076-7.389 0-0.164-0.051-0.545-0.152-1.14 0.152-0.674 0.229-1.764 0.229-3.276 0-0.127-0.026-0.508-0.076-1.143 0.102-1.168 0.152-1.904 0.152-2.209-0.102-0.432-0.178-0.914-0.229-1.447 0.102-0.826 0.152-1.359 0.152-1.6 0-0.101-0.026-0.152-0.076-0.152l0.076-0.533v-1.978c0-0.584-0.026-1.117-0.076-1.6 0.051-0.266 0.076-0.748 0.076-1.447v-0.837c0-0.164-0.026-0.291-0.076-0.381l0.076-0.457v-1.142l-0.533-0.533v-0.077c0-0.076 0.101-0.177 0.304-0.305h1.828c0.164 0 0.342 0.076 0.533 0.229h0.076c0.166-0.127 0.369-0.228 0.609-0.305zM55.548 23.199v0.076l0.076 1.219c0 0.051-0.026 0.127-0.076 0.229 0 0.113 0.127 0.849 0.381 2.209v1.218c0 0.293-0.026 0.699-0.076 1.219l0.305 1.142h0.076l0.229-0.152h0.152c0.037 0 0.191 0.152 0.457 0.457h0.076c0-0.127 0.026-0.329 0.076-0.609 0-0.164-0.229-0.367-0.685-0.609-0.152-0.191-0.229-0.418-0.229-0.685v-1.295c0-0.889-0.229-2.362-0.686-4.417h-0.076zM55.777 14.669c0 0.115 0.025 0.215 0.076 0.305-0.051 0.432-0.076 0.761-0.076 0.99 0.101 0.242 0.254 1.537 0.457 3.884v0.609c0 0.115 0.101 0.37 0.305 0.762h0.076v-1.827c0-0.421 0.101-0.902 0.304-1.448 0-0.177-0.228-0.507-0.685-0.99l-0.229-1.524c0.051-0.088 0.076-0.191 0.076-0.304 0.001-0.203-0.101-0.355-0.304-0.457zM56.082 5.759v0.152h0.076v-0.152h-0.076zM56.082 7.359v0.38h0.076v-0.38h-0.076zM56.082 8.728v0.152h0.076v-0.152h-0.076zM56.158 9.261v0.076c0.254 1.535 0.432 2.805 0.533 3.808 0.076 0.141 0.177 0.647 0.304 1.524h0.152v-2.894l-0.837-1.752c0-0.33-0.026-0.584-0.076-0.762h-0.076zM56.767 2.027v0.685h0.076l0.076-0.38v-0.305h-0.152zM56.767 5.302v0.152h0.076v-0.152h-0.076zM56.767 5.835c0 1.828 0.126 2.742 0.38 2.742v-1.599c-0.152-0.686-0.229-1.066-0.229-1.143h-0.151zM57.833 18.477v0.761c-0.152 0.661-0.229 1.016-0.229 1.066v5.408c0 0.151 0.076 0.456 0.229 0.914h0.076c0.102 0 0.152-0.051 0.152-0.153v-0.228c0-0.177-0.026-0.406-0.076-0.686 0.254-0.405 0.406-0.735 0.457-0.99l-0.152-0.305-0.152 0.077-0.152-0.076 0.076-0.761v-0.305c0-0.547-0.076-1.383-0.229-2.513 0.102-0.141 0.229-0.826 0.381-2.057v-0.076l-0.076-0.381c-0.076 0-0.178 0.102-0.305 0.305zM57.757 2.637v0.456c0.152 0.559 0.33 1.498 0.533 2.818h0.152c0.001-2.183-0.152-3.273-0.456-3.273h-0.229zM58.138 7.511v1.142h0.076c0.152-0.037 0.229-0.24 0.229-0.609l-0.077-0.685h-0.076c-0.102 0.012-0.152 0.062-0.152 0.152zM58.214 17.182l-0.076 0.381v0.304h0.076c0.051-0.355 0.101-0.583 0.152-0.685h-0.152z"></path>
<path d="M68.552 0.885c0.166 0.102 0.291 0.152 0.381 0.152l0.381-0.076 0.457 0.076c0.164-0.101 0.316-0.152 0.457-0.152 0.152 0.051 0.229 0.102 0.229 0.152l0.761-0.076h0.305c0.355 0.012 0.533 0.064 0.533 0.152l0.152-0.076h0.457c0.051 0 0.076 0.026 0.076 0.076l0.381-0.229h0.609c0.863 0.203 1.295 0.33 1.295 0.381 1.256 1.207 1.891 1.891 1.904 2.056 0 0.026-0.026 0.127-0.076 0.305 0 0.127 0.026 0.33 0.076 0.609l-0.076 0.763c0.152 0.457 0.229 0.761 0.229 0.914v0.838c0 0.203-0.051 0.533-0.152 0.99 0.191 0.826 0.418 1.332 0.686 1.524v0.152c0 0.076-0.102 0.178-0.305 0.305h-0.152c-0.547 0-0.926-0.026-1.143-0.076-0.393 0.051-0.826 0.076-1.295 0.076h-0.533c-0.254 0-0.66-0.076-1.218-0.229-0.381 0.203-0.635 0.305-0.762 0.305-0.229-0.102-0.355-0.203-0.381-0.305v-0.231c0-0.291 0.279-0.775 0.838-1.447v-0.076l-0.076-0.457c0.101-0.242 0.152-0.469 0.152-0.686-0.457-0.762-0.965-1.143-1.524-1.143h-0.076c-0.266 0-0.494 0.026-0.685 0.076-0.268-0.048-0.522-0.075-0.763-0.075h-0.686c-0.115 0-0.215 0.026-0.305 0.076-0.305-0.088-0.457-0.164-0.457-0.229-0.102 0.088-0.508 0.166-1.219 0.229 0 0.127-0.178 0.381-0.533 0.762v0.609c0 0.369-0.026 0.647-0.076 0.837 0.051 0.33 0.076 0.661 0.076 0.99v0.914c-0.102 1.142-0.152 1.752-0.152 1.828v0.763c0 0.609 0.229 0.99 0.686 1.142 0 0.152 0.127 0.229 0.381 0.229 0.24 0 0.494-0.025 0.762-0.076l0.38 0.076 0.533-0.076 0.762 0.076 0.762-0.076c0.824 0.063 1.459 0.141 1.904 0.229 0.101 0 0.279-0.051 0.533-0.152 0.443 0.051 0.723 0.076 0.837 0.076 0.699-0.051 1.129-0.076 1.295-0.076 0.191 0.051 0.445 0.229 0.761 0.533 0.088 0.026 0.344 0.33 0.762 0.914 0.711 0.558 1.066 1.041 1.066 1.447v0.609c0 0.761-0.026 1.396-0.076 1.904 0.051 0.355 0.076 0.864 0.076 1.523-0.102 0.902-0.152 1.462-0.152 1.677v0.607c0.101 0.737 0.152 1.142 0.152 1.219-0.152 0.94-0.229 1.498-0.229 1.676 0.051 1.421 0.101 2.437 0.152 3.046-0.127 0.494-0.965 1.357-2.513 2.59-0.711-0.065-1.321-0.141-1.828-0.229-0.076 0-0.508 0.076-1.295 0.229-0.037 0-0.191-0.028-0.457-0.077-0.279 0.050-0.483 0.077-0.609 0.077-0.316-0.102-0.52-0.153-0.609-0.153-0.559 0.028-0.838 0.077-0.838 0.153-0.596-0.051-1.029-0.077-1.295-0.077h-2.589c-0.723 0-1.207-0.228-1.447-0.686-1.066-0.951-1.599-1.585-1.599-1.904v-0.99c0-0.648 0.025-1.357 0.076-2.133-0.051-0.177-0.076-0.277-0.076-0.305 0.051-0.277 0.076-0.558 0.076-0.835 0-0.381-0.229-1.016-0.686-1.904v-0.305c0.012-0.102 0.063-0.153 0.152-0.153h2.818c0.051 0 0.076 0.028 0.076 0.077l0.152-0.077h2.209c0.152 0 0.229 0.102 0.229 0.305-0.305 0.801-0.457 1.41-0.457 1.828l0.076 0.38c-0.102 0.483-0.152 0.787-0.152 0.914 0 0.762 0.432 1.193 1.295 1.295l0.533-0.076h0.152c0.52 0 0.926 0.026 1.219 0.076 0.291-0.050 0.697-0.076 1.218-0.076h0.152c0.139 0 0.291 0.051 0.457 0.152 0.279-0.050 0.508-0.077 0.686-0.077h0.229l0.076-0.38c0-0.24-0.026-0.826-0.076-1.752l0.076-0.152c-0.051-0.202-0.076-0.38-0.076-0.534 0-0.596-0.026-1.205-0.076-1.827 0.101-0.889 0.152-1.828 0.152-2.818v-0.077c0-0.405-0.483-0.685-1.447-0.837v-0.076l-0.762 0.076h-2.818c-0.115 0-0.217 0.026-0.305 0.076l-0.152-0.076c-0.166 0-0.293 0.026-0.381 0.076-0.52-0.051-0.926-0.076-1.219-0.076h-1.295c-0.469 0-1.004-0.381-1.599-1.142l-1.295-1.219v-12.261c0-0.647 0.863-1.586 2.589-2.818 0.432 0.102 0.711 0.152 0.838 0.152 0.076 0 0.305-0.051 0.685-0.152 0.102 0 0.279 0.051 0.533 0.152 0.106-0.101 0.791-0.177 2.061-0.228zM63.83 24.873v0.534c0.102 0 0.152-0.051 0.152-0.153v-0.226c0-0.104-0.050-0.155-0.152-0.155zM64.287 11.546v0.152h0.152v-0.304c-0.101 0.012-0.152 0.063-0.152 0.152zM64.592 3.246c0.152 0.406 0.229 0.66 0.229 0.762 0 0.037-0.026 0.191-0.076 0.457l0.076 0.381c0 0.127-0.026 0.33-0.076 0.609l0.152 2.285h-0.077c0.203 0.33 0.305 0.863 0.305 1.6v1.98l0.076 0.381h-0.076l0.076 0.152v0.609c0.037 0.304 0.115 0.457 0.229 0.457l0.076-0.152v-0.079c0-0.215-0.026-0.418-0.076-0.609l0.076-0.381c0-0.051-0.026-0.254-0.076-0.609 0.101-0.533 0.152-0.812 0.152-0.838-0.152-1.992-0.305-3.236-0.457-3.732v-1.294c0-0.279-0.026-0.634-0.076-1.066 0.051-0.102 0.076-0.178 0.076-0.229-0.204-0.381-0.305-0.71-0.305-0.99-0.076 0-0.152 0.102-0.228 0.305zM64.668 1.799v0.305h0.152v-0.152c0-0.104-0.051-0.153-0.152-0.153zM65.049 24.188c0 0.051-0.026 0.127-0.076 0.229 0.101 0.202 0.152 0.38 0.152 0.533h0.076l0.076-0.381-0.076-0.38h-0.152zM65.125 25.254l-0.076 0.763v0.38h0.076l0.152-0.914c-0.051-0.101-0.076-0.178-0.076-0.229h-0.076zM65.353 28.225c0 0.051-0.102 0.329-0.305 0.837l0.229 0.152c0.115 0 0.191-0.229 0.229-0.685-0.051-0.088-0.076-0.192-0.076-0.305h-0.077zM65.125 26.93v0.913c0 0.077 0.076 0.152 0.229 0.228v-0.835l0.076-0.381-0.152-0.077c-0.102 0.014-0.153 0.065-0.153 0.153zM65.277 29.9l-0.076 0.38c0.012 0.102 0.064 0.153 0.152 0.153h0.076v-0.534h-0.152zM65.353 13.45v0.229c0.012 0.102 0.064 0.152 0.152 0.152h0.152v-0.152c0-0.076-0.076-0.152-0.229-0.229h-0.075zM69.771 14.593v0.229h0.076v-0.229h-0.076zM70.152 27.463c0 0.254-0.051 0.38-0.152 0.38l0.152 1.524c-0.102 0.228-0.152 0.559-0.152 0.99 0.088 0.255 0.24 0.381 0.457 0.381l0.152-0.305c-0.102-0.215-0.178-0.648-0.229-1.295 0.101-0.203 0.152-0.381 0.152-0.534l-0.076-0.305 0.076-0.457c-0.102-0.228-0.203-0.355-0.305-0.38h-0.075zM71.522 29.595l-0.076 0.381c0.051 0.087 0.076 0.191 0.076 0.304h0.152v-0.685h-0.152zM71.979 1.875v0.305c0.012 0.102 0.064 0.152 0.152 0.152v-0.457h-0.152zM72.055 4.312c0 0.102-0.026 0.152-0.076 0.152 0.051 0.102 0.076 0.178 0.076 0.229h0.076v-0.381h-0.076zM73.501 7.13c0.152 0.342 0.229 0.723 0.229 1.142h0.076l0.152-0.533v-0.761c-0.139 0-0.291 0.050-0.457 0.152zM73.731 3.398v0.838h0.076c0.406-0.090 0.609-0.191 0.609-0.305-0.051-0.369-0.102-0.596-0.152-0.686 0.051-0.088 0.076-0.191 0.076-0.305v-0.228c-0.076 0-0.279 0.229-0.609 0.686zM74.112 19.087v1.599c0.152 0 0.254-0.203 0.305-0.609-0.152-0.584-0.229-0.914-0.229-0.99h-0.076zM74.112 27.996v0.534c0 0.545 0.152 0.9 0.457 1.064h0.152c-0.178-0.418-0.33-0.951-0.457-1.599h-0.152zM74.415 26.016v0.228c0 0.077 0.076 0.152 0.229 0.228v-0.305c0-0.099-0.051-0.151-0.152-0.151h-0.077zM74.721 27.082v0.077l0.076 0.381h0.152v-0.077l-0.076-0.381h-0.152zM75.102 24.873v0.229h0.076v-0.229h-0.076zM75.407 14.669v0.152h0.076v-0.152h-0.076zM75.407 20.608v0.305h0.076v-0.305h-0.076zM75.483 26.549v0.077c0.012 0.101 0.064 0.151 0.152 0.151v-0.228h-0.152zM75.483 29.595v0.229h0.152c-0.051-0.102-0.076-0.178-0.076-0.229h-0.076zM76.243 5.074c-0.203 0.457-0.33 1.269-0.381 2.437 0.051 0.291 0.076 0.697 0.076 1.218 0.012 0.102 0.064 0.152 0.152 0.152l0.076-0.533v-0.609l0.229-2.665h-0.152zM75.862 27.767v0.077c0.012 0.101 0.064 0.152 0.152 0.152v-0.38c-0.101 0.011-0.152 0.062-0.152 0.151zM75.938 15.583c0.051 0.102 0.076 0.178 0.076 0.229h0.229v-0.229c0-0.101-0.051-0.152-0.152-0.152-0.102 0.012-0.153 0.063-0.153 0.152zM75.938 24.34v0.381h0.076v-0.381h-0.076zM76.243 20.836c0 0.266 0.178 1.434 0.533 3.504v0.305c0.139 0.255 0.242 0.381 0.305 0.381 0-0.318-0.229-1.764-0.686-4.342-0.101 0.014-0.152 0.065-0.152 0.152zM76.319 26.016v0.228h0.076v-0.228h-0.076z"></path>
<path d="M78.985 0.961h1.066c2.043 0.356 3.186 0.533 3.427 0.533 0.558-0.203 0.914-0.305 1.066-0.305h1.828c0.469 0 1.129-0.025 1.98-0.076 0.102 0.051 0.178 0.076 0.229 0.076l0.533-0.076c0.139 0 0.647 0.026 1.523 0.076 0.076 0 0.305-0.051 0.686-0.152l0.533 0.076c0.164-0.101 0.316-0.152 0.457-0.152 0.088 0 0.215 0.051 0.381 0.152 0.33-0.101 0.559-0.152 0.686-0.152h0.152c0.457 0 0.686 0.203 0.686 0.609 0 1.383 0.076 2.678 0.229 3.884v0.152c-0.102 0.203-0.254 0.305-0.457 0.305-0.445-0.355-0.826-0.533-1.143-0.533h-0.837c-0.076 0-0.483 0.051-1.219 0.152-0.318-0.101-0.52-0.152-0.609-0.152-1.015 0.127-1.523 0.254-1.523 0.381l0.076 0.305c-0.152 0-0.254 1.016-0.305 3.047l0.229 0.533c-0.102 0.355-0.152 0.634-0.152 0.837l0.076 0.457c-0.051 0.28-0.076 0.559-0.076 0.838 0 0.242 0.026 0.494 0.076 0.762-0.051 0.266-0.076 0.418-0.076 0.457 0.051 0.572 0.076 1.104 0.076 1.6 0 0.051-0.026 0.127-0.076 0.229 0.101 0.203 0.152 0.482 0.152 0.837 0 0.266-0.026 0.496-0.076 0.686 0.051 0.33 0.076 0.66 0.076 0.99v0.305c0 1.523-0.076 2.285-0.229 2.285l0.076 0.152v0.99c0 0.356 0.051 0.635 0.152 0.838l-0.152 0.533c0.101 0.254 0.152 0.432 0.152 0.533-0.051 0.674-0.076 1.233-0.076 1.676 0 0.101-0.026 0.152-0.076 0.152l0.076 0.38v0.99c0 0.215-0.026 0.496-0.076 0.838l0.152 0.38c-0.102 0.229-0.152 0.558-0.152 0.99v0.534c0 0.152 0.229 0.863 0.686 2.133-0.076 0.202-0.152 0.305-0.229 0.305h-4.493c-0.559 0-0.838-0.077-0.838-0.229v-0.229l0.457-1.445v-0.838c0-0.113 0.025-0.215 0.076-0.305-0.051-0.088-0.076-0.191-0.076-0.305v-0.229c0-0.456 0.025-0.761 0.076-0.913-0.051-0.443-0.076-0.826-0.076-1.142v-1.066c0-0.393 0.025-0.748 0.076-1.066-0.051-0.254-0.076-0.584-0.076-0.99v-0.229c0-0.164 0.025-0.291 0.076-0.38l-0.152-1.219c0.051-0.445 0.076-0.826 0.076-1.142v-0.156c0-0.291-0.026-0.699-0.076-1.219l0.152-0.381-0.076-0.685 0.076-1.066-0.152-0.914c0.051-0.266 0.076-0.519 0.076-0.761v-0.305l0.229-0.305c-0.203-0.254-0.305-0.406-0.305-0.457 0.051-0.964 0.101-1.447 0.152-1.447l-0.076-0.381v-3.122c0-0.177 0.025-0.406 0.076-0.686 0-1.472-0.406-2.209-1.219-2.209-0.381-0.101-0.736-0.152-1.066-0.152h-0.609c-0.203 0-0.533 0.051-0.99 0.152-0.33-0.101-0.66-0.152-0.99-0.152-0.635 0.051-0.965 0.076-0.99 0.076-0.101-0.164-0.152-0.291-0.152-0.38 0.254-1.586 0.381-2.652 0.381-3.199v-0.229c-0.003-0.279 0.149-0.507 0.454-0.685zM85.382 8.195l-0.229 0.305v0.152c0 0.039 0.051 0.242 0.152 0.609v0.076c-0.305 0.432-0.457 0.863-0.457 1.295 0.051 0.088 0.076 0.191 0.076 0.305 0.152 0 0.355-0.584 0.609-1.752v-0.838c0.003-0.101-0.048-0.152-0.15-0.152zM84.849 11.622v0.458h0.152v-0.458h-0.152zM84.925 22.969c0 0.051-0.026 0.127-0.076 0.229 0.051 0.558 0.127 1.168 0.229 1.828-0.051 0.265-0.076 0.418-0.076 0.456 0.051 0.102 0.076 0.178 0.076 0.229 0.076 0 0.152-0.077 0.229-0.229v-1.524c0-0.189-0.102-0.52-0.305-0.99h-0.077zM84.925 12.46v0.38l0.229 0.305v0.305l0.076 0.762h0.076c0-0.039 0.026-0.191 0.076-0.457 0-0.291-0.127-0.723-0.381-1.295h-0.076zM85.154 14.593l-0.152 0.533c0.355 0.812 0.533 1.295 0.533 1.447v0.533c0.012 0.102 0.064 0.152 0.152 0.152l0.076-0.152v-0.152c0-0.344-0.178-1.029-0.533-2.056v-0.305h-0.076zM85.154 17.639c0 0.203-0.026 0.304-0.076 0.304l0.076 0.381-0.076 0.458c0.051 0.088 0.076 0.215 0.076 0.38h0.152c0.051-0.507 0.076-0.889 0.076-1.143v-0.38h-0.228zM85.611 28.758l-0.152 0.609c0.064 0.305 0.139 0.457 0.229 0.457l0.076-0.38v-0.534c-0.001-0.102-0.051-0.152-0.153-0.152zM85.535 2.103v0.686c0 0.266 0.102 0.445 0.305 0.533 0.152-0.342 0.254-0.799 0.305-1.371l-0.229-0.152c-0.229 0.101-0.356 0.203-0.381 0.304zM85.611 30.053l-0.076 0.38v0.076c0.051 0 0.127 0.026 0.229 0.076l0.076-0.151-0.076-0.38h-0.153zM85.915 13.298v0.457c0.102 0.66 0.152 1.193 0.152 1.599h0.076v-0.457c-0.051-0.572-0.076-1.080-0.076-1.524l-0.152-0.075zM86.068 18.020l-0.076 0.533v0.99h0.076c0-0.088 0.025-0.545 0.076-1.371v-0.152h-0.076zM86.22 30.204v0.152h0.076v-0.152h-0.076zM86.373 25.408l-0.076 0.151v0.838h0.229l0.152-0.534c-0.102-0.304-0.204-0.454-0.305-0.454zM86.525 4.236v0.762h0.152v-0.914c-0.101 0.012-0.152 0.062-0.152 0.152zM86.525 6.597v0.99c0.012 0.101 0.064 0.152 0.152 0.152 0-0.051 0.025-0.076 0.076-0.076l-0.076-0.152v-0.914h-0.152zM86.525 8.652v0.762h0.076c0.037-0.406 0.088-0.609 0.152-0.609-0.051-0.088-0.076-0.191-0.076-0.305-0.101 0.012-0.152 0.063-0.152 0.152zM87.134 18.172v1.904l-0.076 0.761h0.152c0-0.316 0.177-1.103 0.533-2.359-0.305-0.127-0.457-0.279-0.457-0.457-0.101 0.012-0.152 0.064-0.152 0.152zM87.134 14.898v0.99h0.152c0.152-0.545 0.229-0.875 0.229-0.99v-0.533h-0.076c-0.203 0.075-0.305 0.253-0.305 0.533zM87.439 25.94v1.219l-0.304 2.97h0.152c0.203-0.596 0.305-1.689 0.305-3.275v-0.914h-0.153zM87.896 2.103c0.012 0.102 0.064 0.152 0.152 0.152v-0.152h-0.152zM88.429 4.236c0 0.051-0.026 0.127-0.076 0.229 0.051 0.102 0.076 0.178 0.076 0.229h0.914v-0.458h-0.914zM88.656 2.256v0.152h0.076v-0.152h-0.076zM89.419 2.256v0.533c0.012 0.102 0.064 0.152 0.152 0.152 0-0.127 0.025-0.33 0.076-0.609l-0.152-0.076h-0.076zM90.257 1.799c-0.051 1.332-0.076 2.322-0.076 2.97 0.152 0.051 0.229 0.102 0.229 0.152 0.254 0 0.381-0.787 0.381-2.361 0.051-0.279 0.076-0.508 0.076-0.686l-0.152-0.076h-0.458zM91.931 4.236v0.152h0.076v-0.152h-0.076zM92.54 2.56c-0.102 0.33-0.152 0.558-0.152 0.685v0.076c0.127 0 0.229-0.229 0.305-0.685l-0.153-0.076zM93.454 4.007l-0.381 0.533v0.229c0 0.115 0.229 0.191 0.686 0.229v-0.077c-0.064-0.609-0.164-0.914-0.305-0.914z"></path>
<path d="M95.074 0.885l0.381 0.076h2.513c0.24 0 0.647 0.051 1.218 0.152l0.762-0.152c0.088 0 0.291 0.051 0.609 0.152l2.056-0.152c0.088 0.051 0.316 0.102 0.686 0.152 0.088 0 0.291-0.051 0.609-0.152 0.039 0 0.191 0.026 0.457 0.076l0.914-0.076c0.33 0.102 0.558 0.152 0.686 0.152h0.152c0.951-0.152 1.459-0.229 1.523-0.229 0.33 0 0.686 0.254 1.066 0.762 0.965 0.508 1.447 1.066 1.447 1.675 0.051 0 0.076 0.026 0.076 0.076 0 0.051-0.026 0.127-0.076 0.229 0.051 0.66 0.076 1.193 0.076 1.599v0.077c0 0.178-0.026 0.406-0.076 0.686 0.101 0.318 0.152 0.521 0.152 0.609-0.102 0.355-0.152 0.66-0.152 0.914 0.203 0.494 0.305 0.826 0.305 0.99v1.295l-0.305 1.904c0 0.291 0.025 0.699 0.076 1.218-0.102 0.508-0.152 0.965-0.152 1.371 0.203 0.469 0.305 0.748 0.305 0.838v0.914c-0.141 0.94-0.266 1.473-0.381 1.6-0.102 0-0.559 0.457-1.371 1.371-0.304 0.139-0.457 0.393-0.457 0.762 0.101 0.787 0.279 1.421 0.533 1.904l0.762 3.047c0 0.786 0.305 1.876 0.914 3.273 0 1.143 0.305 1.955 0.914 2.438 0.152 0 0.279 0.228 0.381 0.685-0.166 0.152-0.291 0.229-0.381 0.229-0.545-0.102-0.902-0.153-1.066-0.153h-0.381c-0.432 0-0.965 0.051-1.599 0.153-0.445-0.051-0.723-0.077-0.838-0.077-0.039 0-0.191 0.026-0.457 0.077-0.203-0.051-0.381-0.077-0.533-0.077l-0.533 0.077c-0.254-0.088-0.381-0.215-0.381-0.381 0.152-0.254 0.229-0.457 0.229-0.609v-0.152c-0.203-1.168-0.508-2.438-0.914-3.808 0-0.215-0.127-0.722-0.381-1.524 0-0.164-0.127-0.648-0.381-1.447-0.051-0.457-0.305-1.371-0.761-2.741 0-0.469-0.432-0.877-1.295-1.219l-0.381 0.076-1.067-0.079c0 0.064-0.254 0.342-0.762 0.837v2.285c0 1.105-0.026 2.602-0.076 4.493 0.051 0.28 0.076 0.508 0.076 0.685l-0.076 0.381c0.051 0.393 0.076 0.826 0.076 1.295v0.076c0 0.088 0.177 0.572 0.533 1.447v0.077c0 0.076-0.076 0.151-0.229 0.228h-3.275c-0.291 0-0.697 0.026-1.218 0.077-0.102-0.051-0.178-0.077-0.229-0.077-0.088 0.050-0.217 0.077-0.381 0.077-0.254-0.153-0.381-0.305-0.381-0.458 0.457-0.722 0.686-1.281 0.686-1.675v-1.599c0-0.826-0.026-1.434-0.076-1.828 0.051-0.393 0.076-1.004 0.076-1.828v-1.295c0-0.113-0.026-0.215-0.076-0.305 0.051-0.088 0.076-0.191 0.076-0.305v-0.151c0-0.293-0.026-0.471-0.076-0.534 0.051-0.279 0.076-0.507 0.076-0.685v-0.685c0-0.215-0.026-0.421-0.076-0.609 0-0.051 0.025-0.127 0.076-0.229-0.051-0.812-0.076-1.295-0.076-1.447 0-0.127 0.025-0.787 0.076-1.98l-0.076-0.381c0.051-0.088 0.076-0.191 0.076-0.304l-0.076-0.381 0.076-0.152c-0.051-0.102-0.076-0.178-0.076-0.229l0.076-0.457c0-0.152-0.026-0.33-0.076-0.533 0.051-0.799 0.076-1.383 0.076-1.752 0-0.432-0.026-1.193-0.076-2.285 0.037-0.406 0.088-0.609 0.152-0.609l-0.076-0.381v-1.066c0-0.279-0.026-0.635-0.076-1.066 0.051-0.101 0.076-0.177 0.076-0.229 0-0.051-0.026-0.076-0.076-0.076l0.076-0.761v-2.894c0-0.102-0.152-0.406-0.457-0.914v-0.077l0.231-0.304zM97.281 13.679v0.152c0 0.063-0.051 0.342-0.152 0.838 0.026 0.508 0.102 0.761 0.229 0.761v-1.218l0.152-0.229v-0.152c0-0.101-0.051-0.152-0.152-0.152h-0.077zM97.281 21.828c0 0.115-0.026 0.215-0.076 0.305 0.051 0.508 0.127 0.762 0.229 0.762h0.076v-0.077c0-0.177 0.025-0.406 0.076-0.685-0.051-0.088-0.076-0.191-0.076-0.305h-0.229zM98.197 18.172v0.229h0.152v-0.381c-0.102 0.012-0.152 0.064-0.152 0.152zM98.348 6.064c0 0.178-0.026 0.406-0.076 0.686 0.051 0.088 0.076 0.191 0.076 0.305 0.064 0 0.191-0.127 0.38-0.381 0-0.28-0.127-0.483-0.38-0.61zM98.424 12.003l-0.152 0.914c0.051 0.266 0.076 0.521 0.076 0.762v0.305h0.152l0.152-0.381-0.228-0.381v-0.534c0-0.127 0.051-0.355 0.152-0.685h-0.152zM98.272 20.227l0.152 0.763h0.076v-0.609c0-0.102-0.051-0.153-0.152-0.153h-0.076zM98.348 2.18l0.076 0.152v0.837h0.152l0.076-0.381v-0.076c0-0.051-0.051-0.254-0.152-0.609l-0.152 0.077zM98.424 16.344c0.064 0 0.191-0.127 0.38-0.381l-0.152-0.076c-0.101 0-0.177 0.153-0.228 0.457zM98.424 16.573v0.229h0.076v-0.229h-0.076zM98.652 18.932c0 0.203-0.025 0.305-0.076 0.305 0.051 0.077 0.076 0.229 0.076 0.458h0.152l0.076-0.686-0.152-0.077h-0.076zM98.728 14.898v0.152c0.012 0.101 0.064 0.152 0.152 0.152 0.102-0.164 0.152-0.291 0.152-0.38l-0.152-0.076c-0.101 0.011-0.152 0.062-0.152 0.152zM98.728 21.371v0.076c0.152 0.229 0.229 0.381 0.229 0.458h0.152v-0.381c0-0.101-0.051-0.152-0.152-0.152h-0.229zM98.728 25.787v0.38h0.076v-0.38h-0.076zM98.804 17.791l0.457 0.762v-0.381c0-0.266-0.076-0.418-0.229-0.457-0.101 0.051-0.177 0.076-0.228 0.076zM98.881 22.74v0.077h0.076c0.102 0 0.152-0.050 0.152-0.152v-0.076h-0.076c-0.102 0.012-0.152 0.064-0.152 0.151zM99.49 15.659c0 0.254-0.026 0.381-0.076 0.381l0.076 0.152v0.076c0 0.242-0.127 0.445-0.381 0.609 0.152 0.342 0.229 0.547 0.229 0.609h0.152l-0.076-0.762c0.064 0 0.191-0.127 0.381-0.381l-0.152-0.686h-0.153zM99.566 1.951c0 0.051-0.026 0.127-0.076 0.229 0.051 0.305 0.127 0.457 0.229 0.457 0.152-0.051 0.229-0.203 0.229-0.457v-0.077c0-0.102-0.051-0.152-0.152-0.152h-0.231zM99.566 19.391c0.152-0.203 0.305-0.305 0.457-0.305v-0.381h-0.076c-0.254 0.217-0.381 0.445-0.381 0.686zM103.451 5.453h-1.371c-0.291 0-0.699-0.025-1.218-0.076-0.254 0-0.635 0.28-1.143 0.838 0.051 0.508 0.076 0.889 0.076 1.143v1.371c0 0.33-0.026 0.66-0.076 0.99 0.051 0.178 0.076 0.457 0.076 0.837 0 0.293-0.026 0.469-0.076 0.533 0.051 0.342 0.076 0.623 0.076 0.838v2.209c0 0.051-0.026 0.076-0.076 0.076 0.215 0.393 0.445 0.672 0.686 0.838h4.798c0.406-0.393 0.609-0.926 0.609-1.6v-2.97c0-0.648 0.025-1.357 0.076-2.132-0.051-0.203-0.076-0.406-0.076-0.609 0.051-0.482 0.076-0.964 0.076-1.447 0-0.381-0.457-0.711-1.371-0.99-0.381 0.101-0.737 0.151-1.066 0.151zM100.099 16.344l0.229 0.381c-0.051 0.279-0.076 0.483-0.076 0.609 0.279 0.432 0.457 0.863 0.533 1.294 0.164 0.102 0.291 0.153 0.38 0.153 0.051-0.102 0.076-0.178 0.076-0.229-0.101-0.342-0.355-0.951-0.761-1.828 0.051-0.088 0.076-0.191 0.076-0.305 0-0.101-0.051-0.152-0.152-0.152h-0.152l-0.153 0.077zM100.252 4.693l0.152 0.076c0.088 0 0.266-0.229 0.533-0.686 0.101-0.051 0.177-0.076 0.228-0.076 0.203 0.229 0.305 0.406 0.305 0.533h0.152l0.076-0.914c-0.355 0-0.533-0.279-0.533-0.838v-0.304c0-0.127 0.051-0.355 0.152-0.686h-0.076c-0.355 0-0.533 0.381-0.533 1.142-0.203 0.319-0.355 0.903-0.456 1.753zM101.699 1.723v0.076l0.229 0.457c-0.051 0.432-0.076 0.787-0.076 1.066v0.152c0.152-0.051 0.229-0.203 0.229-0.457 0-0.076-0.026-0.431-0.076-1.066h0.076c-0.051-0.102-0.076-0.178-0.076-0.229h-0.306zM102.917 3.55c-0.305 0.672-0.457 1.029-0.457 1.066l0.152 0.076h0.305c0.101 0 0.152-0.051 0.152-0.152v-0.837c0.001-0.102-0.050-0.153-0.152-0.153zM102.994 2.18v0.457h0.076l0.076-0.533v-0.077c-0.102 0.014-0.152 0.063-0.152 0.153zM104.288 15.887c0 0.051 0.026 0.076 0.076 0.076l-0.076 0.381c0.051 0.102 0.076 0.178 0.076 0.229h0.305c0.102-0.026 0.203-0.152 0.305-0.381-0.051 0-0.203-0.177-0.457-0.533-0.039 0-0.115 0.076-0.229 0.228zM104.364 20.991c0.152 0.215 0.229 0.57 0.229 1.064l0.152-0.076-0.076-0.38c0.051-0.37 0.076-0.572 0.076-0.609l-0.152-0.077h-0.076l-0.153 0.077zM104.517 1.799v1.828l0.076 0.914h0.076c0-0.242 0.026-0.496 0.076-0.762-0.051-0.621-0.076-1.232-0.076-1.828v-0.152h-0.152zM104.898 17.182v0.229l0.533 1.981h0.152l0.076-0.381c-0.254-0.482-0.381-0.939-0.381-1.371v-0.457c0-0.102-0.051-0.152-0.152-0.152h-0.076c-0.102 0.011-0.152 0.062-0.152 0.151zM105.126 16.192c0.012 0.102 0.064 0.152 0.152 0.152l0.076-0.305h-0.076c-0.101 0.014-0.152 0.065-0.152 0.153zM105.507 2.56c0.115 1.218 0.215 2.107 0.305 2.665h0.076v-0.761c0.203-1.041 0.304-1.6 0.304-1.676v-0.607l0.076-0.381c-0.101-0.051-0.177-0.076-0.228-0.076-0.356 0.139-0.533 0.418-0.533 0.837zM106.497 16.649l-0.076 0.533c0 0.254 0.026 0.634 0.076 1.142h0.076l0.076-0.914-0.076-0.762h-0.076zM106.497 19.772c0 0.026-0.026 0.127-0.076 0.305 0.051 0.101 0.076 0.178 0.076 0.228h0.076c0-0.050 0.026-0.127 0.076-0.228-0.051-0.088-0.076-0.192-0.076-0.305h-0.076zM107.106 29.062v0.077c0.152 0.736 0.229 1.191 0.229 1.37h0.152v-0.076c0-0.914-0.102-1.371-0.305-1.371h-0.076zM107.258 6.597v0.305l0.076 0.381h0.076l0.076-0.381v-0.534c-0.075 0-0.15 0.076-0.228 0.229zM107.258 13.983v0.076h0.076c0.101-0.33 0.152-0.558 0.152-0.686-0.113 0.001-0.189 0.204-0.228 0.61zM108.096 2.027c0.051 0.102 0.076 0.178 0.076 0.229 0 0.572-0.152 1.41-0.457 2.513v0.229c0.266 0 0.545-0.762 0.838-2.285l-0.229-0.761h-0.076l-0.152 0.075zM107.792 26.397c0.152 1.027 0.229 1.637 0.229 1.828v0.533c0.012 0.101 0.064 0.152 0.152 0.152 0.088-0.051 0.191-0.076 0.305-0.076l0.076 0.151c0 0.127-0.026 0.331-0.076 0.609 0 0.762 0.203 1.143 0.609 1.143 0.723-0.102 1.231-0.153 1.524-0.153-0.242-0.507-0.393-0.761-0.457-0.761-0.166 0-0.342 0.076-0.533 0.229h-0.305c-0.102 0-0.152-0.051-0.152-0.153l0.076-0.38c0-0.496-0.279-0.977-0.837-1.448 0-0.432-0.178-0.99-0.533-1.675h-0.079zM108.020 17.258c0 0.076 0.025 0.381 0.076 0.914h0.152c0.076 0 0.152-0.076 0.229-0.229v-0.076l-0.229-0.304v-0.229c0-0.215 0.101-0.547 0.305-0.99l-0.152-0.076c-0.166 0-0.293 0.33-0.381 0.99zM108.173 23.045v0.077c0.012 0.101 0.064 0.152 0.152 0.152v-0.229h-0.152zM108.401 10.937l0.076 0.305h0.38c0.152 0 0.229-0.482 0.229-1.447 0-0.039-0.026-0.191-0.076-0.457h-0.076c-0.102 0-0.178 0.305-0.229 0.914-0.203 0.228-0.304 0.456-0.304 0.685zM108.553 12.46v2.361l0.076 0.533h0.152v-0.304c0-0.102-0.051-0.355-0.152-0.762 0-0.076 0.076-0.381 0.229-0.914v-1.066h-0.152c-0.102 0.012-0.153 0.063-0.153 0.152zM108.553 24.418v0.151c0 0.37 0.076 0.572 0.228 0.609h0.076v-0.228c0.001-0.277-0.101-0.456-0.304-0.532zM109.543 4.464c0 0.203-0.051 0.305-0.152 0.305l0.076 0.533v0.305l-0.838 0.686v0.076c0 0.076 0.076 0.152 0.229 0.229h0.533l0.305-0.229-0.076-0.533c0.051-0.634 0.076-1.015 0.076-1.142-0.051-0.102-0.076-0.178-0.076-0.229h-0.077zM109.010 26.244c0.076 0.203 0.152 0.305 0.229 0.305v-0.533c-0.039 0-0.115 0.076-0.229 0.228zM109.618 3.931v0.305h0.076c0.051-0.178 0.076-0.279 0.076-0.305h-0.152z"></path>
<path d="M113.122 0.885c0.152 0 0.355 0.051 0.609 0.152 0.355-0.101 0.634-0.152 0.838-0.152l0.99 0.152c0.33-0.101 0.559-0.152 0.686-0.152h1.447c0.164 0 0.519 0.051 1.066 0.152 0.152 0 0.355-0.051 0.609-0.152 0.254 0 0.381 0.026 0.381 0.076 1.091-0.051 1.904-0.076 2.437-0.076h4.951c0.457 0 0.685 0.533 0.685 1.6 0.254 1.726 0.38 2.843 0.38 3.351l-0.305 0.152c-0.392-0.051-0.798-0.229-1.218-0.534l-0.152 0.076h-0.609c-0.178 0-0.407-0.025-0.685-0.076-0.102 0.051-0.178 0.076-0.229 0.076-0.15 0-0.228-0.025-0.228-0.076-0.508 0.051-0.889 0.076-1.142 0.076h-2.438c-0.064 0-0.342-0.051-0.838-0.152h-0.532c-0.102 0-0.356 0.051-0.763 0.152-0.254-0.088-0.38-0.215-0.38-0.38 0.102-0.85 0.279-1.664 0.534-2.438-0.102-0.482-0.153-0.863-0.153-1.142v-0.076c-0.355-0.051-0.558-0.076-0.609-0.076l-0.076 0.152v0.99l-0.152 1.371c0.102 0.672 0.203 1.080 0.305 1.219 0 0.064-0.279 0.469-0.837 1.218v0.152c0 0.355 0.051 0.635 0.152 0.838-0.101 0.203-0.152 0.482-0.152 0.837v1.6c0 0.203 0.051 0.533 0.152 0.99-0.101 0.469-0.152 0.748-0.152 0.838 0 0.609 0.533 1.015 1.599 1.218 0.088 0 0.291-0.051 0.609-0.152l0.456 0.076c1.233 0 2.348-0.203 3.352-0.609h0.305c0.101 0.012 0.152 0.063 0.152 0.152v0.381c0 0.178 0.026 0.406 0.077 0.686-0.102 0.203-0.153 0.381-0.153 0.533 0.051 0.152 0.102 0.229 0.153 0.229l-0.077 0.533v2.437l0.077 0.533-0.229 0.152h-0.152c-1.029-0.406-1.611-0.609-1.752-0.609-0.356 0.051-0.558 0.076-0.609 0.076-0.088 0-0.445-0.076-1.066-0.229-0.191 0.102-0.392 0.152-0.607 0.152-0.051 0-0.128-0.026-0.229-0.076-0.203 0.051-0.38 0.076-0.534 0.076l-0.304-0.076c-0.166 0.102-0.318 0.152-0.457 0.152h-0.152l-0.229-0.152c0.064-1.967 0.166-3.186 0.305-3.656-0.037-0.305-0.191-0.457-0.457-0.457-0.101 0.166-0.152 0.293-0.152 0.381-0.051 1.561-0.076 2.578-0.076 3.047-0.102 0.33-0.152 0.559-0.152 0.686v0.076c0.393 0 0.621 0.102 0.685 0.305l-0.457 0.609c0.051 2.437 0.076 4.316 0.076 5.636v1.752c0 0.229 0.202 0.661 0.609 1.295l0.533-0.076h0.076c0.177 0 0.405 0.026 0.686 0.076l0.534-0.151c0.849 0.050 1.51 0.076 1.98 0.076h1.904c0.215 0 0.418 0.026 0.609 0.076 0.202-0.050 0.406-0.076 0.609-0.076h1.295c0.191 0 0.621-0.152 1.295-0.457h0.152c0.077 0 0.152 0.077 0.228 0.228-0.278 3.149-0.532 4.722-0.761 4.722-0.088 0.051-0.192 0.077-0.305 0.077h-2.361c-2.17 0-3.846 0.026-5.027 0.077-1.004-0.051-2.578-0.077-4.722-0.077h-0.914c-0.254 0-0.381-0.050-0.381-0.152-0.254 0.152-0.457 0.229-0.609 0.229h-0.233c-0.115 0-0.191-0.127-0.228-0.381 0.304-0.775 0.457-1.256 0.457-1.447 0-0.75-0.026-1.256-0.076-1.524 0.051-1.053 0.076-2.017 0.076-2.894v-2.057c0-0.747-0.026-1.256-0.076-1.523 0.051-0.533 0.076-1.118 0.076-1.752v-5.484c0-0.178-0.026-0.406-0.076-0.686 0.051-0.101 0.076-0.177 0.076-0.229l-0.077-0.914 0.076-1.066c0-0.393-0.026-0.748-0.076-1.066 0.051-1.687 0.076-3.16 0.076-4.417v-2.819l-0.076-0.381h0.076l-0.457-1.447v-0.076c0.102-0.203 0.255-0.304 0.458-0.304zM113.731 1.799v0.305l0.533 2.589h0.076c0.051-0.178 0.076-0.279 0.076-0.305 0-0.242-0.152-0.977-0.457-2.209 0-0.254-0.051-0.381-0.152-0.381h-0.076zM113.883 7.968l-0.152 0.305c0 1.193 0.152 2.031 0.457 2.513l-0.229 1.295 0.457 2.209v0.686c0.037 0.304 0.115 0.457 0.229 0.457 0-0.254 0.025-0.38 0.076-0.38-0.088-0.33-0.191-1.168-0.305-2.513v-2.057c0-0.127-0.127-0.634-0.381-1.523l0.076-0.381c0.001-0.384-0.075-0.587-0.228-0.612zM114.036 28.225c0 0.151-0.026 0.228-0.076 0.228 0.051 0.101 0.076 0.178 0.076 0.228h0.076v-0.456h-0.076zM114.34 5.15c0 0.025-0.026 0.127-0.076 0.304 0 0.229 0.203 1.092 0.609 2.589 0.305 1.51 0.457 2.754 0.457 3.732h-0.076l0.076 0.152v0.152c0 0.051-0.025 0.076-0.076 0.076 0.076 0.203 0.152 0.305 0.228 0.305 0-0.051 0.026-0.076 0.076-0.076 0-0.051-0.026-0.127-0.076-0.229 0.051-1.117 0.127-1.929 0.229-2.437-0.355 0-0.66-1.244-0.914-3.732-0.051 0-0.178-0.279-0.381-0.837h-0.076zM115.406 1.342l-0.076 0.152c0.152 0.686 0.229 1.168 0.229 1.447v0.838c0.012 0.102 0.064 0.152 0.152 0.152v-0.914c0-0.152 0.076-0.457 0.229-0.914-0.064-0.507-0.242-0.761-0.534-0.761zM115.711 26.93l-0.076 0.38v1.064h0.076c0-0.66 0.102-1.117 0.305-1.37l-0.152-0.076h-0.153zM116.32 28.834v0.076c0 0.279 0.026 0.635 0.076 1.066-0.051 0.087-0.076 0.191-0.076 0.304h0.152v-0.151c0-0.164 0.026-0.291 0.076-0.38-0.050-0.61-0.126-0.915-0.228-0.915zM116.549 13.755v0.533c0.101 0 0.152-0.051 0.152-0.152l-0.076-0.381h-0.076zM116.854 1.723v0.914c0.305 0.316 0.457 0.621 0.457 0.914 0.115 0 0.191-0.177 0.229-0.533l-0.077-0.915h0.076c-0.051-0.406-0.178-0.609-0.381-0.609-0.203 0.076-0.304 0.152-0.304 0.229zM118.377 27.386c0 0.028-0.051 0.407-0.152 1.143v0.456h0.152c0.203-0.761 0.305-1.191 0.305-1.295v-0.151c0-0.102-0.051-0.153-0.152-0.153h-0.153zM119.138 13.603c-0.203 0.102-0.305 0.94-0.305 2.513-0.102 0.012-0.152 0.064-0.152 0.152v0.229h0.152c0.254-0.66 0.381-1.015 0.381-1.066s-0.051-0.304-0.153-0.761c0.153-0.266 0.229-0.521 0.229-0.762v-0.152c0.001-0.102-0.050-0.153-0.152-0.153zM119.9 1.723c0 0.889-0.127 1.904-0.38 3.047l0.15 0.229c0.609-0.051 0.914-0.127 0.914-0.229 0.051-1.676 0.127-2.513 0.229-2.513-0.102-0.381-0.153-0.635-0.153-0.762h-0.607c-0.102-0.001-0.153 0.075-0.153 0.228zM119.671 29.367c0.051 0.101 0.077 0.178 0.077 0.228h0.152c0.113-0.050 0.316-0.406 0.609-1.064 0.254-0.065 0.38-0.141 0.38-0.229v-0.38c0-0.077-0.076-0.153-0.229-0.229-0.24 0-0.469 0.407-0.685 1.219-0.036-0.001-0.139 0.151-0.304 0.456zM119.9 15.659c0.141 0 0.316-0.279 0.533-0.837l-0.077-0.152v-0.533c0-0.127 0.051-0.355 0.153-0.686l-0.153-0.076h-0.076c-0.126-0.001-0.253 0.761-0.38 2.284zM120.585 15.811l-0.076 0.381v0.076c0.012 0.102 0.062 0.152 0.15 0.152 0-0.051 0.028-0.254 0.077-0.609h-0.152z"></path>
<path d="M130.695 0.885c0.153 0 0.356 0.051 0.609 0.152 0.356-0.101 0.635-0.152 0.838-0.152l0.99 0.152c0.33-0.101 0.558-0.152 0.685-0.152h1.448c0.164 0 0.52 0.051 1.064 0.152 0.153 0 0.356-0.051 0.609-0.152 0.254 0 0.381 0.026 0.381 0.076 1.091-0.051 1.904-0.076 2.437-0.076h4.951c0.457 0 0.685 0.533 0.685 1.6 0.254 1.726 0.38 2.843 0.38 3.351l-0.305 0.152c-0.392-0.051-0.798-0.229-1.218-0.533l-0.152 0.076h-0.609c-0.178 0-0.407-0.025-0.685-0.076-0.102 0.051-0.178 0.076-0.229 0.076-0.15 0-0.228-0.025-0.228-0.076-0.508 0.051-0.889 0.076-1.142 0.076h-2.438c-0.064 0-0.342-0.051-0.838-0.152h-0.532c-0.102 0-0.356 0.051-0.763 0.152-0.254-0.088-0.38-0.215-0.38-0.38 0.102-0.85 0.279-1.664 0.534-2.438-0.102-0.482-0.153-0.863-0.153-1.142v-0.077c-0.355-0.051-0.558-0.076-0.609-0.076l-0.076 0.152v0.99l-0.152 1.371c0.101 0.672 0.203 1.080 0.305 1.219 0 0.064-0.279 0.469-0.837 1.218v0.152c0 0.355 0.051 0.635 0.15 0.838-0.099 0.203-0.15 0.482-0.15 0.837v1.6c0 0.203 0.051 0.533 0.15 0.99-0.099 0.469-0.15 0.748-0.15 0.838 0 0.609 0.533 1.015 1.599 1.218 0.088 0 0.291-0.051 0.609-0.152l0.456 0.076c1.233 0 2.348-0.203 3.352-0.609h0.305c0.101 0.012 0.152 0.063 0.152 0.152v0.381c0 0.178 0.026 0.406 0.077 0.686-0.102 0.203-0.153 0.381-0.153 0.533 0.051 0.152 0.102 0.229 0.153 0.229l-0.077 0.533v2.437l0.077 0.533-0.229 0.152h-0.152c-1.029-0.406-1.611-0.609-1.752-0.609-0.356 0.051-0.558 0.076-0.609 0.076-0.088 0-0.445-0.076-1.066-0.229-0.191 0.102-0.392 0.152-0.607 0.152-0.051 0-0.128-0.026-0.229-0.076-0.203 0.051-0.38 0.076-0.534 0.076l-0.305-0.076c-0.164 0.102-0.316 0.152-0.456 0.152h-0.153l-0.228-0.152c0.064-1.967 0.166-3.186 0.305-3.656-0.037-0.305-0.191-0.457-0.457-0.457-0.101 0.166-0.15 0.293-0.15 0.381-0.051 1.561-0.077 2.578-0.077 3.047-0.101 0.33-0.152 0.559-0.152 0.686v0.076c0.393 0 0.621 0.102 0.685 0.305l-0.456 0.609c0.050 2.437 0.076 4.316 0.076 5.636v1.752c0 0.229 0.202 0.661 0.609 1.295l0.533-0.076h0.077c0.177 0 0.405 0.026 0.685 0.076l0.534-0.151c0.849 0.050 1.51 0.076 1.98 0.076h1.904c0.215 0 0.418 0.026 0.609 0.076 0.202-0.050 0.406-0.076 0.609-0.076h1.295c0.191 0 0.621-0.152 1.295-0.457h0.152c0.077 0 0.152 0.077 0.228 0.228-0.278 3.149-0.532 4.722-0.761 4.722-0.088 0.051-0.192 0.077-0.305 0.077h-2.361c-2.17 0-3.846 0.026-5.027 0.077-1.004-0.051-2.576-0.077-4.722-0.077h-0.914c-0.255 0-0.381-0.050-0.381-0.152-0.254 0.152-0.456 0.229-0.609 0.229h-0.228c-0.115 0-0.191-0.127-0.228-0.381 0.305-0.775 0.456-1.256 0.456-1.447 0-0.75-0.025-1.256-0.076-1.524 0.051-1.053 0.076-2.017 0.076-2.894v-2.057c0-0.747-0.025-1.256-0.076-1.523 0.051-0.533 0.076-1.118 0.076-1.752v-5.484c0-0.178-0.025-0.406-0.076-0.686 0.051-0.101 0.076-0.177 0.076-0.229l-0.076-0.914 0.076-1.066c0-0.393-0.025-0.748-0.076-1.066 0.051-1.687 0.076-3.16 0.076-4.417v-2.819l-0.076-0.381h0.076l-0.456-1.447v-0.076c0.097-0.203 0.249-0.304 0.451-0.304zM131.304 1.799v0.305l0.534 2.589h0.076c0.051-0.178 0.077-0.279 0.077-0.305 0-0.242-0.152-0.977-0.457-2.209 0-0.254-0.051-0.381-0.152-0.381h-0.079zM131.457 7.968l-0.153 0.305c0 1.193 0.153 2.031 0.458 2.513l-0.229 1.295 0.457 2.209v0.686c0.037 0.304 0.115 0.457 0.228 0.457 0-0.254 0.026-0.38 0.077-0.38-0.088-0.33-0.191-1.168-0.305-2.513v-2.057c0-0.127-0.128-0.634-0.381-1.523l0.077-0.381c-0.001-0.384-0.077-0.587-0.229-0.612zM131.609 28.225c0 0.151-0.025 0.228-0.076 0.228 0.051 0.101 0.076 0.178 0.076 0.228h0.077v-0.456h-0.077zM131.913 5.15c0 0.025-0.025 0.127-0.076 0.304 0 0.229 0.202 1.092 0.609 2.589 0.305 1.51 0.456 2.754 0.456 3.732h-0.076l0.076 0.152v0.152c0 0.051-0.025 0.076-0.076 0.076 0.076 0.203 0.152 0.305 0.229 0.305 0-0.051 0.025-0.076 0.076-0.076 0-0.051-0.026-0.127-0.076-0.229 0.050-1.117 0.127-1.929 0.228-2.437-0.355 0-0.66-1.244-0.913-3.732-0.051 0-0.178-0.279-0.381-0.837h-0.076zM132.98 1.342l-0.077 0.152c0.153 0.686 0.229 1.168 0.229 1.447v0.838c0.014 0.102 0.064 0.152 0.152 0.152v-0.914c0-0.152 0.077-0.457 0.228-0.914-0.061-0.507-0.239-0.761-0.532-0.761zM133.285 26.93l-0.077 0.38v1.064h0.077c0-0.66 0.101-1.117 0.305-1.37l-0.152-0.076h-0.153zM133.894 28.834v0.076c0 0.279 0.026 0.635 0.077 1.066-0.051 0.087-0.077 0.191-0.077 0.304h0.152v-0.151c0-0.164 0.026-0.291 0.076-0.38-0.050-0.61-0.127-0.915-0.228-0.915zM134.122 13.755v0.533c0.102 0 0.153-0.051 0.153-0.152l-0.077-0.381h-0.076zM134.427 1.723v0.914c0.305 0.316 0.458 0.621 0.458 0.914 0.113 0 0.189-0.177 0.228-0.533l-0.077-0.914h0.077c-0.051-0.406-0.178-0.609-0.381-0.609-0.203 0.075-0.305 0.151-0.305 0.228zM135.95 27.386c0 0.028-0.051 0.407-0.152 1.143v0.456h0.152c0.202-0.761 0.305-1.191 0.305-1.295v-0.151c0-0.102-0.051-0.153-0.152-0.153h-0.153zM136.712 13.603c-0.203 0.102-0.305 0.94-0.305 2.513-0.101 0.012-0.152 0.064-0.152 0.152v0.229h0.152c0.254-0.66 0.381-1.015 0.381-1.066s-0.051-0.304-0.153-0.761c0.153-0.266 0.229-0.521 0.229-0.762v-0.152c0-0.102-0.051-0.153-0.152-0.153zM137.474 1.723c0 0.889-0.127 1.904-0.38 3.047l0.15 0.229c0.609-0.051 0.914-0.127 0.914-0.229 0.051-1.676 0.127-2.513 0.229-2.513-0.102-0.381-0.153-0.635-0.153-0.762h-0.607c-0.102-0.001-0.153 0.075-0.153 0.228zM137.245 29.367c0.051 0.101 0.077 0.178 0.077 0.228h0.152c0.113-0.050 0.316-0.406 0.609-1.064 0.254-0.065 0.38-0.141 0.38-0.229v-0.38c0-0.077-0.076-0.153-0.229-0.229-0.24 0-0.469 0.407-0.685 1.219-0.037-0.001-0.139 0.151-0.304 0.456zM137.474 15.659c0.141 0 0.316-0.279 0.533-0.837l-0.077-0.152v-0.533c0-0.127 0.051-0.355 0.153-0.686l-0.153-0.076h-0.076c-0.127-0.001-0.253 0.761-0.38 2.284zM138.159 15.811l-0.076 0.381v0.076c0.012 0.102 0.062 0.152 0.15 0.152 0-0.051 0.028-0.254 0.077-0.609h-0.152z"></path>
<path d="M148.078 0.885l0.38 0.076h2.513c0.24 0 0.648 0.051 1.219 0.152l0.761-0.152c0.088 0 0.293 0.051 0.609 0.152l2.057-0.152c0.087 0.051 0.316 0.102 0.685 0.152 0.088 0 0.291-0.051 0.609-0.152 0.037 0 0.191 0.026 0.456 0.076l0.914-0.076c0.33 0.102 0.558 0.152 0.686 0.152h0.152c0.951-0.152 1.459-0.229 1.524-0.229 0.329 0 0.685 0.254 1.064 0.762 0.965 0.508 1.448 1.066 1.448 1.675 0.050 0 0.076 0.026 0.076 0.076 0 0.051-0.026 0.127-0.076 0.229 0.050 0.66 0.076 1.193 0.076 1.599v0.077c0 0.178-0.026 0.406-0.076 0.686 0.099 0.318 0.15 0.521 0.15 0.609-0.101 0.355-0.15 0.66-0.15 0.914 0.202 0.494 0.305 0.826 0.305 0.99v1.295l-0.305 1.904c0 0.291 0.025 0.699 0.076 1.218-0.102 0.508-0.152 0.965-0.152 1.371 0.203 0.469 0.305 0.748 0.305 0.838v0.914c-0.141 0.94-0.266 1.473-0.381 1.6-0.101 0-0.558 0.457-1.37 1.371-0.305 0.139-0.457 0.393-0.457 0.762 0.101 0.787 0.279 1.421 0.533 1.904l0.762 3.047c0 0.786 0.305 1.876 0.914 3.273 0 1.143 0.305 1.955 0.913 2.438 0.153 0 0.28 0.228 0.381 0.685-0.166 0.152-0.293 0.229-0.381 0.229-0.545-0.102-0.9-0.153-1.064-0.153h-0.38c-0.432 0-0.965 0.051-1.599 0.153-0.445-0.051-0.725-0.077-0.838-0.077-0.037 0-0.191 0.026-0.457 0.077-0.203-0.051-0.381-0.077-0.533-0.077l-0.534 0.077c-0.254-0.088-0.38-0.215-0.38-0.381 0.152-0.254 0.229-0.457 0.229-0.609v-0.152c-0.204-1.168-0.509-2.438-0.914-3.808 0-0.215-0.127-0.722-0.381-1.524 0-0.164-0.127-0.648-0.381-1.447-0.050-0.457-0.305-1.371-0.761-2.741 0-0.469-0.432-0.877-1.295-1.219l-0.381 0.076-1.066-0.076c0 0.064-0.254 0.342-0.761 0.837v2.285c0 1.105-0.028 2.602-0.077 4.493 0.050 0.28 0.077 0.508 0.077 0.685l-0.077 0.381c0.050 0.393 0.077 0.826 0.077 1.295v0.076c0 0.088 0.177 0.572 0.533 1.447v0.077c0 0.076-0.077 0.151-0.228 0.228h-3.276c-0.291 0-0.697 0.026-1.218 0.077-0.101-0.051-0.178-0.077-0.228-0.077-0.088 0.050-0.217 0.077-0.381 0.077-0.255-0.153-0.381-0.305-0.381-0.458 0.458-0.722 0.686-1.281 0.686-1.675v-1.599c0-0.826-0.026-1.434-0.077-1.828 0.051-0.393 0.077-1.004 0.077-1.828v-1.295c0-0.113-0.026-0.215-0.077-0.305 0.051-0.088 0.077-0.191 0.077-0.305v-0.151c0-0.293-0.026-0.471-0.077-0.534 0.051-0.279 0.077-0.507 0.077-0.685v-0.685c0-0.215-0.026-0.421-0.077-0.609 0-0.051 0.026-0.127 0.077-0.229-0.051-0.812-0.077-1.295-0.077-1.447 0-0.127 0.026-0.787 0.077-1.98l-0.077-0.381c0.051-0.088 0.077-0.191 0.077-0.304l-0.077-0.381 0.077-0.152c-0.051-0.102-0.077-0.178-0.077-0.229l0.077-0.457c0-0.152-0.026-0.33-0.077-0.533 0.051-0.799 0.077-1.383 0.077-1.752 0-0.432-0.026-1.193-0.077-2.285 0.037-0.406 0.088-0.609 0.153-0.609l-0.077-0.381v-1.069c0-0.279-0.026-0.635-0.077-1.066 0.051-0.101 0.077-0.177 0.077-0.229 0-0.051-0.026-0.076-0.077-0.076l0.077-0.761v-2.894c0-0.102-0.152-0.406-0.457-0.914v-0.077l0.226-0.304zM150.287 13.679v0.152c0 0.063-0.051 0.342-0.153 0.838 0.028 0.508 0.102 0.761 0.229 0.761v-1.218l0.152-0.229v-0.152c0-0.101-0.051-0.152-0.152-0.152h-0.076zM150.287 21.828c0 0.115-0.028 0.215-0.077 0.305 0.050 0.508 0.127 0.762 0.228 0.762h0.077v-0.077c0-0.177 0.026-0.406 0.077-0.685-0.051-0.088-0.077-0.191-0.077-0.305h-0.228zM151.201 18.172v0.229h0.15v-0.381c-0.101 0.012-0.15 0.064-0.15 0.152zM151.352 6.064c0 0.178-0.025 0.406-0.076 0.686 0.051 0.088 0.076 0.191 0.076 0.305 0.065 0 0.192-0.127 0.38-0.381 0.001-0.28-0.126-0.483-0.38-0.61zM151.429 12.003l-0.152 0.914c0.051 0.266 0.076 0.521 0.076 0.762v0.305h0.153l0.15-0.381-0.228-0.381v-0.534c0-0.127 0.050-0.355 0.152-0.685h-0.152zM151.277 20.227l0.152 0.763h0.077v-0.609c0-0.102-0.051-0.153-0.153-0.153h-0.076zM151.352 2.18l0.077 0.152v0.837h0.152l0.076-0.381v-0.076c0-0.051-0.051-0.254-0.15-0.609l-0.155 0.077zM151.429 16.344c0.064 0 0.191-0.127 0.38-0.381l-0.152-0.076c-0.101 0-0.178 0.153-0.228 0.457zM151.429 16.573v0.229h0.077v-0.229h-0.077zM151.657 18.932c0 0.203-0.025 0.305-0.076 0.305 0.051 0.077 0.076 0.229 0.076 0.458h0.152l0.077-0.686-0.153-0.077h-0.076zM151.733 14.898v0.152c0.014 0.101 0.065 0.152 0.153 0.152 0.101-0.164 0.15-0.291 0.15-0.38l-0.15-0.076c-0.102 0.011-0.153 0.062-0.153 0.152zM151.733 21.371v0.076c0.153 0.229 0.229 0.381 0.229 0.458h0.152v-0.381c0-0.101-0.050-0.152-0.152-0.152h-0.229zM151.733 25.787v0.38h0.077v-0.38h-0.077zM151.81 17.791l0.457 0.762v-0.381c0-0.266-0.076-0.418-0.229-0.457-0.102 0.051-0.178 0.076-0.228 0.076zM151.886 22.74v0.077h0.076c0.102 0 0.152-0.050 0.152-0.152v-0.076h-0.077c-0.101 0.012-0.15 0.064-0.15 0.151zM152.496 15.659c0 0.254-0.028 0.381-0.077 0.381l0.077 0.152v0.076c0 0.242-0.127 0.445-0.381 0.609 0.152 0.342 0.228 0.547 0.228 0.609h0.153l-0.077-0.762c0.064 0 0.191-0.127 0.381-0.381l-0.153-0.686h-0.15zM152.571 1.951c0 0.051-0.026 0.127-0.076 0.229 0.050 0.305 0.127 0.457 0.228 0.457 0.152-0.051 0.228-0.203 0.228-0.457v-0.077c0-0.102-0.050-0.152-0.15-0.152h-0.229zM152.571 19.391c0.152-0.203 0.305-0.305 0.457-0.305v-0.381h-0.077c-0.253 0.217-0.38 0.445-0.38 0.686zM156.456 5.453h-1.371c-0.291 0-0.699-0.025-1.219-0.076-0.254 0-0.634 0.28-1.142 0.838 0.050 0.508 0.077 0.889 0.077 1.143v1.371c0 0.33-0.028 0.66-0.077 0.99 0.050 0.178 0.077 0.457 0.077 0.837 0 0.293-0.028 0.469-0.077 0.533 0.050 0.342 0.077 0.623 0.077 0.838v2.209c0 0.051-0.028 0.076-0.077 0.076 0.215 0.393 0.443 0.672 0.686 0.838h4.798c0.406-0.393 0.609-0.926 0.609-1.6v-2.97c0-0.648 0.025-1.357 0.076-2.132-0.051-0.203-0.076-0.406-0.076-0.609 0.051-0.482 0.076-0.964 0.076-1.447 0-0.381-0.456-0.711-1.37-0.99-0.382 0.101-0.737 0.151-1.067 0.151zM153.105 16.344l0.228 0.381c-0.051 0.279-0.077 0.483-0.077 0.609 0.28 0.432 0.458 0.863 0.534 1.294 0.164 0.102 0.291 0.153 0.38 0.153 0.051-0.102 0.076-0.178 0.076-0.229-0.099-0.342-0.355-0.951-0.761-1.828 0.051-0.088 0.076-0.191 0.076-0.305 0-0.101-0.051-0.152-0.15-0.152h-0.153l-0.152 0.077zM153.256 4.693l0.153 0.076c0.087 0 0.265-0.229 0.533-0.686 0.101-0.051 0.177-0.076 0.228-0.076 0.202 0.229 0.305 0.406 0.305 0.533h0.152l0.077-0.914c-0.356 0-0.534-0.279-0.534-0.838v-0.304c0-0.127 0.051-0.355 0.152-0.686h-0.077c-0.355 0-0.532 0.381-0.532 1.142-0.203 0.319-0.353 0.903-0.457 1.753zM154.704 1.723v0.076l0.228 0.457c-0.050 0.432-0.077 0.787-0.077 1.066v0.152c0.153-0.051 0.229-0.203 0.229-0.457 0-0.076-0.026-0.431-0.076-1.066h0.076c-0.051-0.102-0.076-0.178-0.076-0.229h-0.304zM155.923 3.55c-0.305 0.672-0.458 1.029-0.458 1.066l0.153 0.076h0.305c0.099 0 0.15-0.051 0.15-0.152v-0.837c0-0.102-0.051-0.153-0.15-0.153zM155.999 2.18v0.457h0.076l0.077-0.533v-0.077c-0.102 0.014-0.153 0.063-0.153 0.153zM157.293 15.887c0 0.051 0.026 0.076 0.076 0.076l-0.076 0.381c0.051 0.102 0.076 0.178 0.076 0.229h0.305c0.102-0.026 0.203-0.152 0.305-0.381-0.050 0-0.202-0.177-0.456-0.533-0.039 0-0.116 0.076-0.231 0.228zM157.369 20.991c0.153 0.215 0.229 0.57 0.229 1.064l0.152-0.076-0.077-0.38c0.051-0.37 0.077-0.572 0.077-0.609l-0.152-0.077h-0.076l-0.153 0.077zM157.522 1.799v1.828l0.076 0.914h0.076c0-0.242 0.028-0.496 0.077-0.762-0.050-0.621-0.077-1.232-0.077-1.828v-0.152h-0.152zM157.903 17.182v0.229l0.534 1.981h0.15l0.077-0.381c-0.255-0.482-0.381-0.939-0.381-1.371v-0.457c0-0.102-0.051-0.152-0.15-0.152h-0.077c-0.102 0.011-0.153 0.062-0.153 0.151zM158.132 16.192c0.011 0.102 0.062 0.152 0.15 0.152l0.077-0.305h-0.077c-0.101 0.014-0.15 0.065-0.15 0.153zM158.512 2.56c0.113 1.218 0.215 2.107 0.305 2.665h0.076v-0.761c0.203-1.041 0.305-1.6 0.305-1.676v-0.607l0.076-0.381c-0.099-0.051-0.177-0.076-0.226-0.076-0.358 0.139-0.536 0.418-0.536 0.837zM159.502 16.649l-0.076 0.533c0 0.254 0.025 0.634 0.076 1.142h0.076l0.077-0.914-0.077-0.762h-0.076zM159.502 19.772c0 0.026-0.026 0.127-0.076 0.305 0.050 0.101 0.076 0.178 0.076 0.228h0.076c0-0.050 0.028-0.127 0.077-0.228-0.050-0.088-0.077-0.192-0.077-0.305h-0.076zM160.11 29.062v0.077c0.152 0.736 0.229 1.191 0.229 1.37h0.15v-0.076c0-0.914-0.101-1.371-0.305-1.371h-0.075zM160.264 6.597v0.305l0.077 0.381h0.076l0.076-0.381v-0.534c-0.077 0-0.153 0.076-0.229 0.229zM160.264 13.983v0.076h0.077c0.099-0.33 0.15-0.558 0.15-0.686-0.113 0.001-0.189 0.204-0.228 0.61zM161.1 2.027c0.051 0.102 0.077 0.178 0.077 0.229 0 0.572-0.152 1.41-0.457 2.513v0.229c0.266 0 0.545-0.762 0.838-2.285l-0.229-0.761h-0.076l-0.153 0.075zM160.795 26.397c0.153 1.027 0.229 1.637 0.229 1.828v0.533c0.012 0.101 0.064 0.152 0.152 0.152 0.087-0.051 0.191-0.076 0.305-0.076l0.077 0.151c0 0.127-0.028 0.331-0.077 0.609 0 0.762 0.203 1.143 0.607 1.143 0.725-0.102 1.233-0.153 1.524-0.153-0.24-0.507-0.393-0.761-0.456-0.761-0.166 0-0.342 0.076-0.534 0.229h-0.305c-0.102 0-0.152-0.051-0.152-0.153l0.077-0.38c0-0.496-0.28-0.977-0.838-1.448 0-0.432-0.178-0.99-0.533-1.675h-0.077zM161.024 17.258c0 0.076 0.025 0.381 0.076 0.914h0.153c0.076 0 0.15-0.076 0.228-0.229v-0.076l-0.228-0.304v-0.229c0-0.215 0.099-0.547 0.305-0.99l-0.153-0.076c-0.164 0-0.291 0.33-0.381 0.99zM161.178 23.045v0.077c0.012 0.101 0.064 0.152 0.152 0.152v-0.229h-0.152zM161.405 10.937l0.077 0.305h0.38c0.152 0 0.228-0.482 0.228-1.447 0-0.039-0.025-0.191-0.076-0.457h-0.076c-0.102 0-0.178 0.305-0.229 0.914-0.202 0.228-0.304 0.456-0.304 0.685zM161.559 12.46v2.361l0.076 0.533h0.15v-0.304c0-0.102-0.050-0.355-0.15-0.762 0-0.076 0.076-0.381 0.228-0.914v-1.066h-0.152c-0.102 0.012-0.152 0.063-0.152 0.152zM161.559 24.418v0.151c0 0.37 0.076 0.572 0.226 0.609h0.077v-0.228c0-0.277-0.101-0.456-0.304-0.532zM162.549 4.464c0 0.203-0.051 0.305-0.153 0.305l0.077 0.533v0.305l-0.837 0.686v0.076c0 0.076 0.076 0.152 0.228 0.229h0.533l0.305-0.229-0.076-0.533c0.051-0.634 0.076-1.015 0.076-1.142-0.050-0.102-0.076-0.178-0.076-0.229h-0.077zM162.014 26.244c0.076 0.203 0.152 0.305 0.229 0.305v-0.533c-0.037 0-0.115 0.076-0.229 0.228zM162.625 3.931v0.305h0.076c0.051-0.178 0.077-0.279 0.077-0.305h-0.153z"></path>
</svg>
