<!-- Generated by IcoMoon.io -->
<svg version="1.1" xmlns="http://www.w3.org/2000/svg" width="400" height="100" viewBox="0 0 165 32">
<title>restauratie</title>
<path d="M2.934 2.585l0.345 0.068h2.289c0.218 0 0.593 0.046 1.114 0.137l0.694-0.137c0.078 0 0.267 0.046 0.557 0.137l1.872-0.137c0.081 0.049 0.293 0.094 0.628 0.14 0.078 0 0.264-0.046 0.554-0.137 0.036 0 0.176 0.023 0.417 0.068l0.834-0.068c0.303 0.091 0.508 0.137 0.625 0.137h0.137c0.869-0.137 1.332-0.208 1.39-0.208 0.3 0 0.622 0.231 0.97 0.694 0.879 0.466 1.319 0.974 1.319 1.53 0.049 0 0.068 0.023 0.068 0.068s-0.020 0.117-0.068 0.208c0.049 0.602 0.072 1.088 0.072 1.459v0.068c0 0.163-0.023 0.371-0.068 0.625 0.091 0.29 0.14 0.475 0.14 0.554-0.091 0.326-0.14 0.602-0.14 0.834 0.182 0.453 0.277 0.752 0.277 0.902v1.179l-0.28 1.739c0 0.267 0.023 0.635 0.068 1.11-0.091 0.462-0.14 0.879-0.14 1.25 0.189 0.427 0.28 0.684 0.28 0.762v0.834c-0.127 0.856-0.244 1.341-0.345 1.455-0.094 0-0.511 0.417-1.25 1.25-0.28 0.127-0.417 0.361-0.417 0.697 0.091 0.716 0.254 1.293 0.482 1.732l0.697 2.777c0 0.72 0.277 1.713 0.834 2.986 0 1.039 0.277 1.784 0.834 2.224 0.137 0 0.254 0.205 0.345 0.622-0.15 0.14-0.264 0.208-0.345 0.208-0.498-0.094-0.824-0.14-0.97-0.14h-0.348c-0.394 0-0.882 0.046-1.459 0.14-0.404-0.046-0.658-0.068-0.765-0.068-0.036 0-0.173 0.023-0.417 0.068-0.182-0.046-0.345-0.068-0.482-0.068l-0.485 0.068c-0.234-0.081-0.348-0.195-0.348-0.348 0.137-0.228 0.205-0.413 0.205-0.554v-0.14c-0.182-1.061-0.459-2.221-0.83-3.471 0-0.199-0.114-0.658-0.345-1.387 0-0.153-0.114-0.593-0.345-1.319-0.052-0.417-0.283-1.25-0.697-2.497 0-0.433-0.394-0.801-1.182-1.114l-0.348 0.072-0.967-0.072c0 0.059-0.231 0.313-0.697 0.762v2.084c0 1.009-0.023 2.374-0.068 4.096 0.046 0.254 0.068 0.462 0.068 0.625l-0.072 0.345c0.049 0.361 0.068 0.752 0.068 1.182v0.068c0 0.078 0.163 0.521 0.485 1.315v0.068c0 0.068-0.068 0.14-0.205 0.208h-2.982c-0.267 0-0.635 0.023-1.11 0.068-0.091-0.049-0.163-0.068-0.208-0.068-0.081 0.049-0.199 0.075-0.348 0.075-0.231-0.14-0.348-0.28-0.348-0.42 0.417-0.658 0.622-1.166 0.622-1.527v-1.455c0-0.749-0.023-1.309-0.068-1.667 0.046-0.358 0.068-0.915 0.068-1.667v-1.175c0-0.104-0.023-0.199-0.068-0.277 0.046-0.081 0.068-0.176 0.068-0.28v-0.14c0-0.264-0.023-0.427-0.068-0.482 0.046-0.254 0.068-0.466 0.068-0.622v-0.628c0-0.199-0.023-0.384-0.068-0.557 0-0.046 0.023-0.114 0.068-0.208-0.042-0.739-0.065-1.179-0.065-1.319 0-0.114 0.023-0.72 0.068-1.804l-0.068-0.348c0.046-0.081 0.068-0.173 0.068-0.277l-0.068-0.348 0.068-0.14c-0.046-0.091-0.068-0.163-0.068-0.208l0.068-0.417c0-0.137-0.023-0.3-0.068-0.485 0.046-0.729 0.068-1.263 0.068-1.599 0-0.394-0.023-1.088-0.068-2.081 0.033-0.371 0.078-0.557 0.137-0.557l-0.068-0.345v-0.97c0-0.254-0.023-0.58-0.068-0.974 0.046-0.091 0.068-0.16 0.068-0.208 0-0.046-0.023-0.068-0.068-0.068l0.068-0.694v-2.637c0-0.091-0.137-0.371-0.417-0.834v-0.068l0.208-0.28zM4.949 14.248v0.137c0 0.059-0.049 0.313-0.14 0.762 0.026 0.466 0.091 0.694 0.208 0.694v-1.107l0.137-0.208v-0.14c0-0.091-0.046-0.137-0.137-0.137h-0.068zM4.949 21.672c0 0.107-0.023 0.199-0.068 0.28 0.049 0.466 0.114 0.694 0.208 0.694h0.068v-0.068c0-0.16 0.026-0.368 0.068-0.622-0.046-0.085-0.072-0.176-0.072-0.283h-0.205zM5.779 18.344v0.205h0.14v-0.345c-0.094 0.013-0.14 0.059-0.14 0.14zM5.919 7.306c0 0.163-0.026 0.371-0.068 0.625 0.046 0.081 0.068 0.173 0.068 0.277 0.059 0 0.173-0.114 0.345-0.345 0.003-0.257-0.114-0.44-0.345-0.557zM5.988 12.721l-0.137 0.834c0.046 0.244 0.068 0.475 0.068 0.694v0.277h0.137l0.14-0.345-0.208-0.348v-0.485c0-0.114 0.049-0.322 0.14-0.625h-0.14zM5.851 20.217l0.137 0.694h0.068v-0.554c0-0.091-0.046-0.14-0.137-0.14h-0.068zM5.919 3.767l0.068 0.137v0.765h0.14l0.068-0.348v-0.068c0-0.046-0.049-0.231-0.14-0.557l-0.137 0.072zM5.988 16.677c0.062 0 0.176-0.117 0.348-0.345l-0.14-0.072c-0.091 0-0.16 0.14-0.208 0.417zM5.988 16.886v0.208h0.068v-0.208h-0.068zM6.196 19.038c0 0.189-0.023 0.277-0.068 0.277 0.049 0.068 0.068 0.208 0.068 0.42h0.14l0.068-0.625-0.137-0.072h-0.072zM6.268 15.359v0.14c0.010 0.091 0.059 0.137 0.137 0.137 0.091-0.15 0.14-0.264 0.14-0.345l-0.14-0.072c-0.094 0.013-0.137 0.059-0.137 0.14zM6.268 21.258v0.068c0.137 0.205 0.205 0.342 0.205 0.413h0.14v-0.342c0-0.094-0.049-0.14-0.14-0.14h-0.205zM6.268 25.286v0.345h0.068v-0.345h-0.068zM6.336 17.996l0.417 0.694v-0.345c0-0.244-0.068-0.381-0.208-0.417-0.094 0.046-0.163 0.068-0.208 0.068zM6.405 22.506v0.068h0.068c0.091 0 0.14-0.046 0.14-0.137v-0.068h-0.068c-0.094 0.010-0.14 0.062-0.14 0.137zM6.961 16.052c0 0.231-0.023 0.345-0.068 0.345l0.068 0.143v0.068c0 0.221-0.114 0.404-0.345 0.557 0.14 0.313 0.205 0.495 0.205 0.554h0.14l-0.072-0.694c0.059 0 0.176-0.114 0.345-0.345l-0.133-0.628h-0.14zM7.030 3.559c0 0.046-0.023 0.117-0.068 0.208 0.049 0.277 0.114 0.417 0.205 0.417 0.14-0.046 0.208-0.186 0.208-0.417v-0.072c0-0.091-0.049-0.137-0.14-0.137h-0.205zM7.030 19.455c0.137-0.186 0.277-0.277 0.417-0.277v-0.348h-0.068c-0.234 0.199-0.348 0.404-0.348 0.625zM10.569 6.753h-1.25c-0.267 0-0.635-0.023-1.11-0.068-0.231 0-0.58 0.254-1.042 0.762 0.049 0.462 0.068 0.811 0.068 1.042v1.247c0 0.3-0.023 0.602-0.068 0.902 0.049 0.163 0.068 0.417 0.068 0.765 0 0.267-0.023 0.427-0.068 0.485 0.049 0.313 0.068 0.567 0.068 0.765v2.012c0 0.046-0.023 0.068-0.068 0.068 0.199 0.358 0.407 0.612 0.625 0.765h4.373c0.374-0.361 0.557-0.847 0.557-1.459v-2.709c0-0.589 0.023-1.237 0.068-1.944-0.046-0.182-0.068-0.368-0.068-0.554 0.046-0.44 0.068-0.879 0.068-1.319 0-0.348-0.417-0.648-1.25-0.902-0.345 0.094-0.667 0.14-0.97 0.14zM7.518 16.677l0.205 0.345c-0.046 0.257-0.068 0.44-0.068 0.557 0.254 0.394 0.417 0.788 0.485 1.182 0.15 0.091 0.267 0.14 0.345 0.14 0.049-0.098 0.072-0.166 0.072-0.212-0.091-0.309-0.326-0.866-0.694-1.664 0.046-0.081 0.068-0.173 0.068-0.277 0-0.094-0.049-0.14-0.14-0.14h-0.137l-0.137 0.068zM7.655 6.056l0.14 0.068c0.078 0 0.241-0.208 0.485-0.625 0.091-0.046 0.163-0.068 0.205-0.068 0.186 0.208 0.28 0.371 0.28 0.485h0.137l0.068-0.834c-0.326 0-0.485-0.254-0.485-0.765v-0.274c0-0.117 0.049-0.326 0.14-0.625h-0.068c-0.326 0-0.485 0.345-0.485 1.042-0.186 0.29-0.326 0.821-0.417 1.595zM8.974 3.35v0.068l0.208 0.417c-0.049 0.394-0.068 0.716-0.068 0.97v0.137c0.137-0.046 0.205-0.186 0.205-0.417 0-0.068-0.023-0.394-0.068-0.97h0.068c-0.046-0.091-0.068-0.163-0.068-0.208h-0.277zM10.084 5.018c-0.277 0.612-0.417 0.934-0.417 0.97l0.14 0.068h0.277c0.091 0 0.14-0.046 0.14-0.137v-0.765c0-0.091-0.049-0.137-0.14-0.137zM10.152 3.767v0.417h0.072l0.068-0.485v-0.072c-0.091 0.013-0.14 0.059-0.14 0.14zM11.331 16.26c0 0.046 0.026 0.068 0.068 0.068l-0.068 0.348c0.049 0.091 0.068 0.163 0.068 0.208h0.277c0.098-0.023 0.192-0.137 0.283-0.345-0.049 0-0.186-0.163-0.417-0.485-0.036-0.003-0.104 0.068-0.212 0.205zM11.403 20.91c0.14 0.199 0.208 0.521 0.208 0.974l0.137-0.068-0.068-0.348c0.049-0.335 0.068-0.518 0.068-0.557l-0.137-0.068h-0.068l-0.14 0.068zM11.543 3.419v1.667l0.068 0.834h0.068c0-0.221 0.026-0.453 0.068-0.694-0.042-0.567-0.068-1.123-0.068-1.667v-0.14h-0.137zM11.888 17.439v0.208l0.485 1.807h0.137l0.068-0.345c-0.228-0.443-0.342-0.86-0.342-1.254v-0.417c0-0.091-0.046-0.137-0.14-0.137h-0.068c-0.094 0.010-0.14 0.059-0.14 0.137zM12.096 16.541c0.013 0.091 0.062 0.137 0.14 0.137l0.068-0.277h-0.068c-0.094 0.013-0.14 0.059-0.14 0.14zM12.444 4.112c0.101 1.11 0.195 1.921 0.277 2.432h0.068v-0.697c0.186-0.951 0.277-1.459 0.277-1.527v-0.554l0.072-0.348c-0.091-0.046-0.163-0.068-0.208-0.068-0.326 0.127-0.485 0.381-0.485 0.762zM13.346 16.954l-0.068 0.485c0 0.231 0.023 0.58 0.068 1.039h0.068l0.072-0.83-0.072-0.694h-0.068zM13.346 19.803c0 0.020-0.023 0.114-0.068 0.273 0.046 0.094 0.068 0.166 0.068 0.208h0.068c0-0.046 0.023-0.114 0.068-0.208-0.046-0.078-0.068-0.173-0.068-0.273h-0.068zM13.903 28.269v0.068c0.14 0.674 0.208 1.087 0.208 1.254h0.137v-0.072c0-0.834-0.091-1.254-0.277-1.254h-0.068zM14.043 7.792v0.277l0.068 0.345h0.068l0.068-0.345v-0.485c-0.072 0-0.137 0.072-0.205 0.208zM14.043 14.525v0.068h0.068c0.091-0.3 0.137-0.508 0.137-0.622-0.104 0-0.173 0.186-0.205 0.554zM14.805 3.627c0.046 0.091 0.068 0.163 0.068 0.208 0 0.521-0.14 1.286-0.417 2.292v0.208c0.241 0 0.495-0.694 0.762-2.084l-0.208-0.694h-0.068l-0.137 0.068zM14.525 25.84c0.14 0.938 0.208 1.494 0.208 1.667v0.488c0.013 0.088 0.059 0.137 0.14 0.137 0.078-0.049 0.173-0.068 0.277-0.068l0.068 0.14c0 0.114-0.026 0.303-0.068 0.557 0 0.694 0.186 1.039 0.557 1.039 0.658-0.094 1.12-0.143 1.387-0.143-0.218-0.459-0.358-0.69-0.417-0.69-0.15 0-0.313 0.068-0.485 0.205h-0.277c-0.091 0-0.14-0.046-0.14-0.14l0.068-0.342c0-0.453-0.254-0.889-0.762-1.319 0-0.394-0.163-0.902-0.485-1.53h-0.072zM14.733 17.511c0 0.068 0.023 0.345 0.068 0.834h0.137c0.068 0 0.14-0.068 0.208-0.205v-0.072l-0.205-0.28v-0.208c0-0.199 0.094-0.498 0.28-0.902l-0.14-0.068c-0.15 0-0.267 0.3-0.348 0.902zM14.873 22.785v0.072c0.010 0.091 0.059 0.14 0.137 0.14v-0.212h-0.137zM15.082 11.748l0.068 0.277h0.348c0.14 0 0.208-0.44 0.208-1.319 0-0.036-0.026-0.173-0.068-0.417h-0.072c-0.091 0-0.163 0.277-0.208 0.834-0.186 0.208-0.277 0.417-0.277 0.625zM15.222 13.138v2.152l0.068 0.485h0.137v-0.277c0-0.091-0.046-0.326-0.137-0.694 0-0.068 0.068-0.345 0.205-0.834v-0.974h-0.137c-0.094 0.013-0.137 0.059-0.137 0.14zM15.222 24.036v0.137c0 0.339 0.068 0.521 0.205 0.56h0.072v-0.212c0-0.254-0.094-0.417-0.277-0.485zM16.124 5.848c0 0.186-0.049 0.277-0.14 0.277l0.068 0.485v0.277l-0.762 0.628v0.068c0 0.068 0.068 0.14 0.205 0.208h0.485l0.277-0.208-0.065-0.485c0.049-0.58 0.068-0.925 0.068-1.042-0.046-0.091-0.068-0.16-0.068-0.208h-0.068zM15.639 25.703c0.068 0.182 0.137 0.277 0.205 0.277v-0.485c-0.036 0-0.101 0.068-0.205 0.208zM16.192 5.363v0.277h0.068c0.049-0.163 0.068-0.254 0.068-0.277h-0.137z"></path>
<path d="M19.383 2.585c0.14 0 0.326 0.046 0.557 0.137 0.326-0.091 0.58-0.137 0.762-0.137l0.902 0.137c0.303-0.091 0.508-0.137 0.622-0.137h1.319c0.15 0 0.475 0.046 0.974 0.137 0.14 0 0.326-0.046 0.557-0.137 0.228 0 0.345 0.023 0.345 0.068 1-0.042 1.739-0.068 2.224-0.068h4.513c0.417 0 0.625 0.485 0.625 1.459 0.228 1.573 0.345 2.592 0.345 3.054l-0.28 0.137c-0.355-0.046-0.726-0.205-1.107-0.482l-0.137 0.068h-0.557c-0.163 0-0.371-0.023-0.625-0.068-0.091 0.046-0.163 0.068-0.205 0.068-0.14 0-0.208-0.023-0.208-0.068-0.466 0.046-0.811 0.068-1.042 0.068h-2.224c-0.059 0-0.313-0.046-0.762-0.137h-0.488c-0.091 0-0.322 0.046-0.694 0.137-0.231-0.081-0.345-0.195-0.345-0.348 0.091-0.775 0.254-1.514 0.485-2.221-0.091-0.44-0.14-0.788-0.14-1.042v-0.068c-0.326-0.046-0.508-0.068-0.554-0.068l-0.068 0.137v0.902l-0.14 1.25c0.091 0.612 0.182 0.983 0.277 1.11 0 0.059-0.254 0.427-0.762 1.11v0.14c0 0.326 0.049 0.58 0.14 0.762-0.094 0.189-0.143 0.443-0.143 0.765v1.459c0 0.186 0.049 0.485 0.14 0.902-0.091 0.427-0.14 0.681-0.14 0.762 0 0.554 0.485 0.925 1.459 1.11 0.078 0 0.264-0.046 0.554-0.14l0.42 0.072c1.123 0 2.139-0.186 3.054-0.554h0.277c0.091 0.010 0.14 0.055 0.14 0.137v0.345c0 0.163 0.023 0.371 0.068 0.625-0.094 0.189-0.14 0.348-0.14 0.488 0.046 0.137 0.091 0.208 0.14 0.208l-0.068 0.485v2.224l0.068 0.482-0.208 0.14h-0.14c-0.934-0.368-1.468-0.557-1.595-0.557-0.326 0.049-0.508 0.068-0.554 0.068-0.085 0.003-0.407-0.068-0.974-0.205-0.173 0.091-0.358 0.137-0.557 0.137-0.046 0-0.114-0.023-0.205-0.068-0.186 0.049-0.348 0.068-0.488 0.068l-0.277-0.065c-0.15 0.088-0.29 0.137-0.417 0.137h-0.14l-0.205-0.137c0.059-1.794 0.15-2.908 0.277-3.334-0.036-0.277-0.176-0.417-0.417-0.417-0.091 0.15-0.14 0.267-0.14 0.348-0.046 1.423-0.068 2.348-0.068 2.777-0.094 0.3-0.14 0.508-0.14 0.625v0.068c0.358 0 0.567 0.091 0.622 0.277l-0.413 0.554c0.049 2.224 0.068 3.933 0.068 5.135v1.595c0 0.208 0.186 0.606 0.557 1.182l0.485-0.068h0.068c0.16 0 0.368 0.023 0.622 0.068l0.492-0.137c0.775 0.046 1.377 0.068 1.804 0.068h1.735c0.199 0 0.381 0.023 0.557 0.068 0.186-0.049 0.368-0.068 0.554-0.068h1.182c0.173 0 0.567-0.14 1.179-0.417h0.137c0.068 0 0.14 0.068 0.208 0.205-0.254 2.869-0.485 4.304-0.697 4.304-0.075 0.049-0.169 0.075-0.273 0.075h-2.152c-1.976 0-3.503 0.023-4.578 0.068-0.918-0.046-2.351-0.068-4.308-0.068h-0.834c-0.231 0-0.345-0.049-0.345-0.14-0.231 0.14-0.417 0.208-0.557 0.208h-0.205c-0.104 0-0.176-0.117-0.208-0.348 0.28-0.707 0.417-1.146 0.417-1.315 0-0.684-0.023-1.146-0.068-1.39 0.046-0.961 0.068-1.84 0.068-2.637v-1.875c0-0.68-0.023-1.146-0.068-1.387 0.046-0.488 0.068-1.019 0.068-1.595v-5.001c0-0.163-0.023-0.371-0.068-0.625 0.046-0.091 0.068-0.163 0.068-0.208l-0.068-0.83 0.068-0.97c0-0.358-0.023-0.681-0.068-0.97 0.046-1.54 0.068-2.882 0.068-4.028v-2.569l-0.068-0.348h0.068l-0.42-1.319v-0.068c0.094-0.186 0.231-0.28 0.417-0.28zM19.94 3.419v0.277l0.485 2.361h0.068c0.046-0.163 0.068-0.254 0.068-0.277 0-0.218-0.14-0.889-0.417-2.012 0-0.231-0.049-0.345-0.14-0.345h-0.065zM20.080 9.042l-0.14 0.277c0 1.088 0.14 1.849 0.417 2.292l-0.208 1.179 0.417 2.012v0.625c0.033 0.277 0.101 0.417 0.205 0.417 0-0.231 0.023-0.345 0.068-0.345-0.078-0.303-0.169-1.065-0.273-2.292v-1.875c0-0.117-0.117-0.58-0.348-1.387l0.068-0.345c0-0.348-0.068-0.534-0.205-0.557zM20.217 27.503c0 0.14-0.023 0.208-0.068 0.208 0.046 0.091 0.068 0.163 0.068 0.208h0.068v-0.417h-0.068zM20.497 6.473c0 0.023-0.026 0.117-0.068 0.277 0 0.205 0.186 0.993 0.557 2.361 0.277 1.377 0.417 2.51 0.417 3.399h-0.072l0.068 0.14v0.137c0 0.046-0.026 0.068-0.068 0.068 0.068 0.186 0.137 0.277 0.205 0.277 0-0.046 0.023-0.068 0.068-0.068 0.003-0.039-0.020-0.111-0.068-0.202 0.049-1.019 0.114-1.758 0.208-2.224-0.326 0-0.606-1.133-0.834-3.399-0.049 0-0.163-0.254-0.345-0.762h-0.068zM21.467 3.002l-0.068 0.14c0.137 0.625 0.208 1.065 0.208 1.319v0.762c0.013 0.094 0.055 0.14 0.14 0.14v-0.834c0-0.137 0.068-0.417 0.205-0.834-0.055-0.459-0.218-0.694-0.485-0.694zM21.747 26.328l-0.072 0.342v0.974h0.068c0-0.602 0.091-1.019 0.277-1.25l-0.137-0.065h-0.137zM22.3 28.060v0.072c0 0.254 0.026 0.58 0.068 0.97-0.046 0.081-0.068 0.173-0.068 0.277h0.14v-0.14c0-0.15 0.023-0.267 0.068-0.345-0.049-0.557-0.117-0.834-0.208-0.834zM22.509 14.317v0.485c0.091 0 0.137-0.046 0.137-0.137l-0.065-0.348h-0.072zM22.785 3.35v0.834c0.277 0.29 0.417 0.567 0.417 0.834 0.104 0 0.176-0.163 0.208-0.485l-0.068-0.837h0.068c-0.049-0.368-0.163-0.554-0.348-0.554-0.186 0.068-0.277 0.14-0.277 0.208zM24.176 26.742c0 0.026-0.049 0.371-0.14 1.042v0.417h0.14c0.182-0.697 0.277-1.087 0.277-1.179v-0.14c0-0.091-0.049-0.14-0.14-0.14h-0.137zM24.869 14.177c-0.186 0.094-0.277 0.86-0.277 2.292-0.094 0.013-0.14 0.059-0.14 0.14v0.208h0.14c0.228-0.602 0.345-0.928 0.345-0.974s-0.046-0.277-0.14-0.694c0.14-0.241 0.212-0.475 0.212-0.694v-0.14c0-0.091-0.049-0.14-0.14-0.14zM25.563 3.35c0 0.811-0.114 1.735-0.345 2.777l0.14 0.208c0.554-0.046 0.834-0.117 0.834-0.208 0.046-1.527 0.114-2.292 0.205-2.292-0.094-0.348-0.14-0.58-0.14-0.694h-0.554c-0.094 0-0.14 0.068-0.14 0.208zM25.355 28.549c0.046 0.091 0.068 0.163 0.068 0.208h0.137c0.104-0.049 0.29-0.371 0.557-0.974 0.231-0.059 0.345-0.127 0.345-0.208v-0.348c0-0.068-0.068-0.137-0.205-0.205-0.221 0-0.43 0.368-0.625 1.11-0.036 0-0.127 0.137-0.277 0.417zM25.563 16.052c0.127 0 0.287-0.254 0.485-0.762l-0.068-0.14v-0.485c0-0.117 0.049-0.326 0.14-0.625l-0.14-0.068h-0.072c-0.114 0-0.228 0.694-0.345 2.081zM26.188 16.192l-0.072 0.348v0.068c0.013 0.094 0.059 0.14 0.14 0.14 0-0.046 0.023-0.231 0.068-0.557h-0.137z"></path>
<path d="M40.918 2.585c0.15 0.091 0.267 0.137 0.345 0.137l0.345-0.068 0.417 0.068c0.15-0.091 0.29-0.137 0.417-0.137 0.14 0.046 0.208 0.091 0.208 0.137l0.694-0.068h0.277c0.326 0.010 0.485 0.059 0.485 0.137l0.14-0.068h0.417c0.046 0 0.068 0.023 0.068 0.068l0.345-0.208h0.554c0.788 0.186 1.179 0.3 1.179 0.345 1.149 1.101 1.726 1.726 1.735 1.875 0 0.023-0.023 0.117-0.068 0.277 0 0.114 0.026 0.3 0.068 0.554l-0.068 0.694c0.14 0.417 0.208 0.694 0.208 0.83v0.765c0 0.186-0.049 0.485-0.14 0.902 0.176 0.752 0.381 1.214 0.625 1.39v0.137c0 0.068-0.091 0.163-0.28 0.277h-0.137c-0.498 0-0.847-0.023-1.042-0.068-0.358 0.046-0.749 0.068-1.179 0.068h-0.485c-0.228 0-0.602-0.068-1.11-0.205-0.345 0.186-0.58 0.277-0.694 0.277-0.208-0.091-0.326-0.186-0.345-0.277v-0.199c0-0.267 0.254-0.707 0.762-1.319v-0.072l-0.068-0.417c0.091-0.218 0.14-0.427 0.14-0.625-0.417-0.694-0.882-1.039-1.39-1.039h-0.068c-0.241 0-0.453 0.023-0.622 0.068-0.244-0.046-0.475-0.068-0.697-0.068h-0.622c-0.104 0-0.199 0.023-0.277 0.068-0.28-0.081-0.417-0.15-0.417-0.208-0.094 0.081-0.466 0.15-1.114 0.208 0 0.117-0.163 0.345-0.482 0.694v0.554c0 0.335-0.026 0.589-0.068 0.762 0.046 0.303 0.068 0.602 0.068 0.902v0.834c-0.094 1.042-0.14 1.595-0.14 1.667v0.694c0 0.557 0.205 0.902 0.622 1.042 0 0.14 0.117 0.208 0.345 0.208 0.221 0 0.453-0.023 0.697-0.068l0.345 0.068 0.485-0.068 0.694 0.068 0.694-0.068c0.752 0.059 1.332 0.127 1.735 0.205 0.091 0 0.254-0.046 0.485-0.137 0.404 0.046 0.658 0.068 0.762 0.068 0.635-0.046 1.029-0.068 1.179-0.068 0.176 0.046 0.404 0.208 0.694 0.485 0.081 0.023 0.316 0.3 0.697 0.834 0.645 0.508 0.97 0.947 0.97 1.319v0.557c0 0.694-0.023 1.273-0.068 1.732 0.046 0.326 0.068 0.785 0.068 1.39-0.091 0.82-0.137 1.328-0.137 1.527v0.554c0.091 0.674 0.137 1.042 0.137 1.114-0.137 0.856-0.205 1.364-0.205 1.527 0.046 1.296 0.091 2.221 0.14 2.781-0.117 0.449-0.882 1.234-2.292 2.361-0.648-0.059-1.201-0.127-1.667-0.208-0.068 0-0.462 0.068-1.179 0.208-0.036 0-0.173-0.026-0.417-0.068-0.254 0.046-0.44 0.068-0.557 0.068-0.287-0.094-0.475-0.14-0.554-0.14-0.508 0.023-0.762 0.068-0.762 0.14-0.544-0.049-0.938-0.068-1.179-0.068h-2.364c-0.658 0-1.097-0.208-1.315-0.625-0.974-0.869-1.459-1.446-1.459-1.732v-0.908c0-0.593 0.023-1.241 0.068-1.947-0.049-0.16-0.068-0.254-0.068-0.277 0.049-0.254 0.068-0.508 0.068-0.762 0-0.345-0.205-0.925-0.622-1.735v-0.277c0.010-0.091 0.059-0.14 0.137-0.14h2.569c0.046 0 0.068 0.026 0.068 0.068l0.137-0.068h2.012c0.14 0 0.208 0.094 0.208 0.28-0.277 0.729-0.417 1.286-0.417 1.667l0.068 0.342c-0.091 0.443-0.14 0.72-0.14 0.834 0 0.697 0.394 1.087 1.179 1.182l0.485-0.068h0.14c0.475 0 0.843 0.023 1.11 0.068 0.267-0.049 0.635-0.068 1.11-0.068h0.14c0.127 0 0.267 0.046 0.417 0.14 0.254-0.049 0.462-0.068 0.622-0.068h0.208l0.068-0.348c0-0.215-0.026-0.749-0.068-1.595l0.068-0.137c-0.049-0.189-0.068-0.345-0.068-0.485 0-0.544-0.023-1.101-0.068-1.667 0.091-0.808 0.14-1.667 0.14-2.569v-0.075c0-0.368-0.443-0.622-1.319-0.762v-0.072l-0.694 0.068h-2.569c-0.104 0-0.199 0.026-0.277 0.068l-0.14-0.068c-0.15 0-0.267 0.026-0.345 0.068-0.475-0.046-0.847-0.068-1.11-0.068h-1.182c-0.427 0-0.912-0.345-1.455-1.039l-1.179-1.11v-11.178c0-0.589 0.785-1.446 2.361-2.569 0.394 0.091 0.648 0.137 0.762 0.137 0.068 0 0.28-0.046 0.625-0.137 0.091 0 0.254 0.046 0.485 0.137 0.107-0.088 0.729-0.156 1.885-0.205zM36.614 24.453v0.485c0.094 0 0.14-0.049 0.14-0.14v-0.205c0-0.098-0.046-0.14-0.14-0.14zM37.031 12.304v0.14h0.14v-0.28c-0.091 0.013-0.14 0.059-0.14 0.14zM37.311 4.737c0.137 0.371 0.205 0.602 0.205 0.694 0 0.036-0.023 0.173-0.068 0.417l0.068 0.345c0 0.117-0.023 0.303-0.068 0.557l0.14 2.081h-0.068c0.186 0.303 0.28 0.788 0.28 1.459v1.804l0.068 0.348h-0.068l0.068 0.137v0.554c0.036 0.277 0.104 0.417 0.208 0.417l0.068-0.137v-0.065c0-0.195-0.026-0.381-0.068-0.554l0.068-0.345c0-0.046-0.026-0.231-0.068-0.557 0.091-0.485 0.14-0.739 0.14-0.762-0.14-1.817-0.28-2.95-0.417-3.399v-1.185c0-0.254-0.026-0.58-0.068-0.974 0.046-0.091 0.068-0.163 0.068-0.208-0.189-0.345-0.28-0.648-0.28-0.902-0.072 0-0.14 0.091-0.208 0.277zM37.379 3.419v0.277h0.137v-0.137c0-0.094-0.042-0.14-0.137-0.14zM37.727 23.827c0 0.046-0.026 0.114-0.068 0.205 0.091 0.186 0.14 0.345 0.14 0.485h0.068l0.068-0.348-0.068-0.342h-0.14zM37.796 24.798l-0.068 0.697v0.342h0.068l0.137-0.83c-0.046-0.088-0.068-0.16-0.068-0.205h-0.068zM38.004 27.503c0 0.049-0.091 0.303-0.277 0.762l0.205 0.14c0.104 0 0.176-0.205 0.208-0.622-0.049-0.081-0.068-0.176-0.068-0.28h-0.068zM37.796 26.328v0.834c0 0.068 0.068 0.137 0.205 0.205v-0.765l0.068-0.342-0.137-0.072c-0.091 0.013-0.137 0.059-0.137 0.14zM37.932 29.031l-0.068 0.348c0.013 0.091 0.062 0.14 0.14 0.14h0.068v-0.488h-0.14zM38.004 14.040v0.208c0.013 0.091 0.059 0.137 0.14 0.137h0.137v-0.137c0-0.068-0.068-0.137-0.205-0.208h-0.072zM42.029 15.082v0.208h0.068v-0.208h-0.068zM42.377 26.81c0 0.231-0.046 0.348-0.137 0.348l0.137 1.387c-0.091 0.208-0.137 0.508-0.137 0.902 0.078 0.228 0.218 0.345 0.417 0.345l0.137-0.277c-0.091-0.199-0.163-0.593-0.205-1.182 0.091-0.186 0.14-0.342 0.14-0.482l-0.068-0.28 0.068-0.413c-0.094-0.208-0.189-0.326-0.28-0.348h-0.072zM43.624 28.757l-0.068 0.342c0.049 0.081 0.068 0.176 0.068 0.28h0.14v-0.622h-0.14zM44.041 3.487v0.277c0.013 0.091 0.059 0.137 0.14 0.137v-0.413h-0.14zM44.112 5.711c0 0.091-0.023 0.137-0.068 0.137 0.049 0.091 0.068 0.163 0.068 0.208h0.068v-0.345h-0.068zM45.431 8.277c0.14 0.313 0.205 0.661 0.205 1.042h0.068l0.14-0.485v-0.694c-0.124 0-0.264 0.046-0.413 0.137zM45.639 4.878v0.762h0.068c0.371-0.081 0.557-0.173 0.557-0.277-0.049-0.335-0.091-0.544-0.14-0.625 0.049-0.078 0.068-0.173 0.068-0.277v-0.208c-0.068 0-0.254 0.208-0.554 0.625zM45.988 19.178v1.459c0.137 0 0.228-0.189 0.277-0.56-0.14-0.527-0.208-0.834-0.208-0.899h-0.068zM45.988 27.298v0.485c0 0.495 0.137 0.82 0.417 0.974h0.137c-0.163-0.381-0.3-0.873-0.417-1.459h-0.137zM46.265 25.494v0.205c0 0.068 0.068 0.137 0.205 0.205v-0.273c0-0.091-0.046-0.137-0.137-0.137h-0.068zM46.541 26.465v0.068l0.068 0.345h0.14v-0.068l-0.068-0.345h-0.14zM46.886 24.453v0.208h0.068v-0.208h-0.068zM47.166 15.15v0.14h0.068v-0.14h-0.068zM47.166 20.565v0.277h0.068v-0.277h-0.068zM47.235 25.98v0.068c0.013 0.091 0.062 0.14 0.14 0.14v-0.208h-0.14zM47.235 28.757v0.205h0.14c-0.046-0.091-0.068-0.163-0.068-0.205h-0.072zM47.932 6.405c-0.186 0.417-0.303 1.156-0.345 2.221 0.046 0.267 0.068 0.638 0.068 1.11 0.013 0.091 0.062 0.137 0.14 0.137l0.068-0.485v-0.554l0.205-2.429h-0.137zM47.583 27.090v0.068c0.010 0.088 0.059 0.137 0.137 0.137v-0.345c-0.091 0.013-0.137 0.059-0.137 0.14zM47.652 15.984c0.049 0.094 0.068 0.163 0.068 0.208h0.208v-0.208c0-0.091-0.049-0.137-0.14-0.137-0.091 0.010-0.137 0.055-0.137 0.137zM47.652 23.964v0.345h0.068v-0.345h-0.068zM47.932 20.773c0 0.244 0.163 1.306 0.485 3.191v0.277c0.127 0.234 0.218 0.348 0.277 0.348 0-0.293-0.208-1.608-0.625-3.956-0.094 0.013-0.137 0.059-0.137 0.14zM48 25.494v0.205h0.068v-0.205h-0.068z"></path>
<path d="M50.429 2.657h0.974c1.859 0.322 2.904 0.485 3.123 0.485 0.508-0.186 0.834-0.277 0.974-0.277h1.667c0.427 0 1.026-0.023 1.804-0.068 0.091 0.046 0.163 0.068 0.208 0.068l0.482-0.068c0.127 0 0.593 0.023 1.39 0.068 0.068 0 0.277-0.046 0.622-0.14l0.485 0.068c0.153-0.091 0.29-0.137 0.417-0.137 0.081 0 0.199 0.046 0.345 0.137 0.303-0.091 0.508-0.137 0.625-0.137h0.14c0.417 0 0.622 0.186 0.622 0.554 0 1.26 0.068 2.442 0.205 3.539v0.137c-0.091 0.186-0.228 0.277-0.413 0.277-0.407-0.322-0.752-0.485-1.042-0.485h-0.762c-0.068 0-0.44 0.046-1.11 0.137-0.29-0.091-0.475-0.137-0.557-0.137-0.925 0.117-1.39 0.231-1.39 0.345l0.068 0.277c-0.137 0-0.231 0.925-0.277 2.777l0.205 0.485c-0.091 0.326-0.137 0.58-0.137 0.762l0.068 0.417c-0.049 0.254-0.068 0.508-0.068 0.762 0 0.221 0.023 0.453 0.068 0.694-0.049 0.244-0.068 0.381-0.068 0.417 0.046 0.521 0.068 1.006 0.068 1.459 0 0.046-0.026 0.117-0.068 0.208 0.091 0.186 0.137 0.44 0.137 0.762 0 0.244-0.023 0.453-0.068 0.625 0.046 0.303 0.068 0.602 0.068 0.902v0.277c0 1.387-0.068 2.084-0.205 2.084l0.068 0.137v0.902c0 0.326 0.046 0.58 0.137 0.762l-0.137 0.488c0.091 0.228 0.137 0.391 0.137 0.482-0.046 0.612-0.068 1.123-0.068 1.527 0 0.094-0.026 0.14-0.068 0.14l0.068 0.348v0.899c0 0.199-0.026 0.453-0.068 0.762l0.137 0.345c-0.091 0.208-0.137 0.508-0.137 0.902v0.508c0 0.137 0.205 0.785 0.622 1.944-0.068 0.186-0.137 0.28-0.205 0.28h-4.096c-0.508 0-0.762-0.068-0.762-0.208v-0.215l0.417-1.315v-0.762c0-0.104 0.023-0.199 0.068-0.28-0.046-0.078-0.068-0.173-0.068-0.277v-0.208c0-0.42 0.023-0.697 0.068-0.834-0.046-0.407-0.068-0.752-0.068-1.042v-0.974c0-0.355 0.023-0.68 0.068-0.97-0.046-0.231-0.068-0.531-0.068-0.902v-0.205c0-0.153 0.023-0.267 0.068-0.348l-0.137-1.11c0.046-0.404 0.068-0.752 0.068-1.039v-0.143c0-0.267-0.026-0.635-0.068-1.114l0.137-0.342-0.068-0.625 0.068-0.97-0.137-0.834c0.046-0.244 0.068-0.475 0.068-0.694v-0.28l0.205-0.277c-0.186-0.231-0.277-0.371-0.277-0.417 0.046-0.879 0.091-1.319 0.137-1.319l-0.068-0.348v-2.846c0-0.163 0.023-0.371 0.068-0.625 0-1.341-0.368-2.012-1.11-2.012-0.345-0.091-0.671-0.137-0.97-0.137h-0.557c-0.186 0-0.485 0.046-0.902 0.137-0.303-0.091-0.602-0.137-0.902-0.137-0.58 0.046-0.879 0.068-0.899 0.068-0.094-0.15-0.14-0.267-0.14-0.348 0.231-1.446 0.345-2.419 0.345-2.917v-0.205c0.010-0.254 0.15-0.462 0.427-0.625zM56.26 9.25l-0.208 0.277v0.137c0 0.036 0.049 0.221 0.14 0.557v0.068c-0.277 0.394-0.417 0.788-0.417 1.179 0.046 0.081 0.068 0.176 0.068 0.277 0.137 0 0.326-0.534 0.554-1.595v-0.759c0-0.094-0.042-0.14-0.137-0.14zM55.775 12.373v0.417h0.14v-0.417h-0.14zM55.844 22.717c0 0.049-0.026 0.114-0.068 0.208 0.046 0.508 0.114 1.061 0.205 1.667-0.042 0.241-0.065 0.381-0.065 0.413 0.046 0.094 0.068 0.166 0.068 0.208 0.068 0 0.14-0.068 0.208-0.208v-1.387c0-0.173-0.091-0.475-0.277-0.902h-0.072zM55.844 13.138v0.348l0.205 0.277v0.277l0.068 0.694h0.068c0-0.033 0.023-0.173 0.068-0.417 0-0.267-0.117-0.658-0.345-1.179h-0.065zM56.052 15.082l-0.137 0.485c0.322 0.742 0.482 1.182 0.482 1.319v0.488c0.013 0.088 0.062 0.137 0.14 0.137l0.068-0.137v-0.14c0-0.313-0.163-0.938-0.485-1.875v-0.277h-0.068zM56.052 17.856c0 0.186-0.023 0.28-0.068 0.28l0.068 0.342-0.068 0.42c0.049 0.078 0.068 0.199 0.068 0.342h0.14c0.046-0.462 0.068-0.808 0.068-1.039v-0.345h-0.208zM56.469 27.995l-0.137 0.554c0.059 0.277 0.127 0.417 0.205 0.417l0.068-0.345v-0.488c0.003-0.094-0.046-0.137-0.137-0.137zM56.397 3.696v0.625c0 0.244 0.091 0.407 0.28 0.485 0.137-0.313 0.228-0.729 0.277-1.25l-0.205-0.137c-0.212 0.094-0.326 0.186-0.352 0.277zM56.469 29.171l-0.068 0.348v0.068c0.049 0 0.117 0.020 0.208 0.068l0.068-0.137-0.068-0.348h-0.14zM56.749 13.903v0.413c0.091 0.602 0.137 1.088 0.137 1.459h0.068v-0.417c-0.049-0.521-0.068-0.983-0.068-1.387l-0.137-0.068zM56.886 18.204l-0.072 0.485v0.902h0.068c0-0.081 0.023-0.495 0.068-1.25v-0.137h-0.065zM57.026 29.311v0.14h0.068v-0.14h-0.068zM57.166 24.938l-0.068 0.137v0.762h0.205l0.14-0.482c-0.094-0.28-0.186-0.417-0.277-0.417zM57.302 5.639v0.694h0.14v-0.83c-0.094 0.010-0.14 0.059-0.14 0.137zM57.302 7.792v0.902c0.013 0.091 0.059 0.137 0.14 0.137 0-0.046 0.023-0.068 0.068-0.068l-0.068-0.14v-0.83h-0.14zM57.302 9.667v0.694h0.068c0.036-0.371 0.078-0.554 0.14-0.554-0.049-0.081-0.068-0.176-0.068-0.277-0.094 0.010-0.14 0.055-0.14 0.137zM57.859 18.344v1.732l-0.072 0.697h0.14c0-0.29 0.163-1.009 0.482-2.152-0.277-0.114-0.417-0.254-0.417-0.417-0.091 0.013-0.133 0.059-0.133 0.14zM57.859 15.359v0.902h0.137c0.14-0.498 0.208-0.798 0.208-0.902v-0.485h-0.068c-0.186 0.068-0.277 0.231-0.277 0.485zM58.133 25.426v1.11l-0.273 2.702h0.137c0.189-0.544 0.28-1.54 0.28-2.983v-0.83h-0.143zM58.549 3.696c0.013 0.094 0.059 0.14 0.14 0.14v-0.14h-0.14zM59.038 5.639c0 0.046-0.023 0.117-0.068 0.208 0.049 0.091 0.068 0.163 0.068 0.208h0.834v-0.417h-0.834zM59.243 3.836v0.137h0.068v-0.137h-0.068zM59.94 3.836v0.485c0.010 0.094 0.059 0.14 0.137 0.14 0-0.117 0.026-0.3 0.068-0.557l-0.137-0.068h-0.068zM60.705 3.419c-0.049 1.214-0.068 2.116-0.068 2.709 0.14 0.046 0.205 0.091 0.205 0.137 0.231 0 0.348-0.716 0.348-2.152 0.046-0.254 0.068-0.462 0.068-0.625l-0.14-0.068h-0.413zM62.229 5.639v0.137h0.068v-0.137h-0.068zM62.785 4.112c-0.091 0.303-0.14 0.511-0.14 0.625v0.068c0.114 0 0.208-0.208 0.277-0.625l-0.137-0.068zM63.619 5.431l-0.345 0.485v0.208c0 0.104 0.205 0.173 0.622 0.208v-0.068c-0.059-0.554-0.15-0.834-0.277-0.834z"></path>
<path d="M69.258 2.585h0.277c0.326 0 0.58 0.046 0.762 0.137 0.208-0.091 0.44-0.137 0.694-0.137 0.189 0 0.606 0.023 1.25 0.068 0.091-0.046 0.163-0.068 0.208-0.068 0.231 0.091 0.391 0.137 0.485 0.137 0.322-0.091 0.58-0.137 0.762-0.137 0.241 0 0.427 0.117 0.554 0.345v0.208c0 0.059-0.046 0.313-0.137 0.762v0.208l0.97 4.373 1.114 5.346c0.228 0.612 0.508 1.931 0.834 3.956 0.462 2.097 0.694 3.344 0.694 3.748 0.091 0.010 0.14 0.062 0.14 0.137v1.53c0.322 0.205 0.482 0.58 0.482 1.11 0.189 0 0.303 0.557 0.348 1.667 0.127 0 0.241 0.648 0.345 1.947 0.622 0.843 0.996 1.582 1.11 2.221-0.068 0-0.14 0.068-0.205 0.208-0.928-0.049-1.621-0.068-2.084-0.068h-0.902c-0.127 0-0.267-0.049-0.417-0.14-0.303 0.091-0.508 0.14-0.625 0.14h-0.762c-0.068 0-0.163-0.094-0.277-0.28v-0.072c0.14-0.44 0.205-0.716 0.205-0.834v-0.83c-0.137-0.401-0.277-1.097-0.417-2.081-0.127-0.059-0.241-0.381-0.345-0.974-0.264 0-0.495-0.114-0.694-0.345-0.466 0.049-0.811 0.068-1.039 0.068h-2.501c-0.882 0-1.39 0.322-1.53 0.97-0.101 0.661-0.241 1.286-0.417 1.875-0.046 0.081-0.068 0.199-0.068 0.345v0.97c0 0.234 0.046 0.508 0.137 0.834-0.091 0.28-0.186 0.42-0.277 0.42h-0.208c-0.15 0-0.264-0.026-0.345-0.068l-0.417 0.068h-0.205c-0.358 0-0.684-0.026-0.974-0.068l-0.485 0.068c-0.137 0-0.3-0.026-0.482-0.068-0.443 0.046-0.86 0.068-1.25 0.068h-0.485c-0.091 0-0.14-0.049-0.14-0.14v-0.068c0-0.208 0.208-0.58 0.625-1.114 0-0.186 0.114-0.667 0.345-1.455 0.462-2.416 0.948-4.637 1.455-6.665 0.14-0.921 0.485-2.566 1.042-4.926 0-0.195 0.091-0.381 0.277-0.554v-0.072c0-0.104-0.023-0.195-0.068-0.277 0.326-1.481 0.485-2.429 0.485-2.846 0.15 0 0.267-0.485 0.345-1.459 0.231-0.707 0.602-2.302 1.11-4.79 0.189-0.635 0.28-1.006 0.28-1.11v-0.902c0-0.244-0.026-0.635-0.068-1.179 0.176-0.14 0.339-0.212 0.488-0.212zM64.677 27.855v0.554c0 0.231-0.023 0.58-0.068 1.042h0.068c0.091 0 0.14-0.049 0.14-0.14v-1.455h-0.14zM68.148 24.453v0.208c0.091 0 0.14-0.049 0.14-0.14v-0.068h-0.14zM68.913 8.902v0.345c0.010 0.094 0.059 0.14 0.137 0.14v-0.485h-0.137zM69.19 13.278v0.277c0 0.602 0.068 0.902 0.205 0.902 0.049-0.544 0.068-0.938 0.068-1.179v-0.072l0.277-0.417v-0.208c-0.16 0.303-0.345 0.534-0.55 0.697zM69.327 7.863c0 0.091-0.023 0.137-0.068 0.137 0 0.199 0.114 0.498 0.345 0.902 0 0.879 0.068 1.319 0.205 1.319v-0.137c0-0.681-0.114-1.423-0.345-2.221h-0.137zM69.535 14.873v0.208c0.046 0 0.114 0.023 0.205 0.068l0.208-0.277v-0.208c-0.147 0.137-0.283 0.208-0.413 0.208zM69.675 7.030v0.277h0.068v-0.277h-0.068zM69.675 15.844v0.068l0.068 0.345h0.068l0.068-0.345-0.137-0.068h-0.068zM69.812 19.871v0.413c0 0.059 0.208 0.267 0.625 0.622h2.361c0.14 0 0.277-0.322 0.417-0.97-0.371-1.957-0.811-4.015-1.319-6.177 0-0.498-0.091-0.961-0.277-1.387h-0.068c-0.15 0-0.339 0.716-0.557 2.152-0.264 0.892-0.449 1.908-0.554 3.054-0.14 0-0.254 0.508-0.345 1.527-0.189 0.189-0.283 0.443-0.283 0.765zM70.024 5.154v0.765h0.068v-0.765h-0.068zM70.3 13.486c-0.186 0.485-0.277 0.785-0.277 0.902 0.186 0 0.3-0.277 0.345-0.834v-0.068h-0.068zM70.024 22.717v0.557c0.091 0 0.137-0.049 0.137-0.14v-0.277c0-0.094-0.046-0.14-0.137-0.14zM70.229 3.487l0.208 0.277c0 0.199-0.049 0.381-0.14 0.554 0.186 0 0.345 0.742 0.485 2.224 0.15 0 0.381 0.576 0.694 1.735l0.14-0.068-0.068-0.345v-0.488c-0.091-0.671-0.14-1.039-0.14-1.11v-0.417l-0.205 0.137h-0.14c-0.137-0.046-0.205-0.186-0.205-0.417v-1.872c-0.049-0.137-0.186-0.208-0.417-0.208h-0.212zM70.229 7.030v0.277c0.013 0.091 0.059 0.137 0.14 0.137h0.068v-0.205l-0.068-0.345c-0.091 0.010-0.14 0.055-0.14 0.137zM70.44 11.956l-0.068 0.625v0.208h0.068c0-0.345 0.068-0.554 0.205-0.625-0.046-0.091-0.068-0.163-0.068-0.208h-0.137zM70.369 12.861v0.345h0.068v-0.345h-0.068zM70.645 7.932l-0.068 0.345v0.277c0 0.29 0.208 0.752 0.625 1.387 0 0.326 0.068 0.648 0.205 0.97h0.068v-0.895c0-0.14-0.205-0.534-0.622-1.182 0.003-0.602-0.068-0.902-0.208-0.902zM72.798 21.607c0 0.068-0.091 0.163-0.277 0.277h-0.14c-0.176-0.14-0.313-0.208-0.417-0.208l-0.137 0.208v0.14c0 0.241 0.091 0.407 0.28 0.482 0.023 0 0.137-0.088 0.345-0.273h0.068c0.186 0.088 0.277 0.228 0.277 0.413h0.068l0.068-0.482v-0.42c0.003-0.091-0.042-0.137-0.137-0.137zM72.036 23.339c-0.091 0.306-0.14 0.511-0.14 0.625h0.208c0.091 0 0.137-0.049 0.137-0.137v-0.28c0.003-0.068-0.065-0.14-0.205-0.208zM72.244 7.515c-0.091 0.29-0.137 0.475-0.137 0.554 0.091 0.345 0.137 0.58 0.137 0.694 0 0.081-0.046 0.218-0.137 0.417 0.091 0.322 0.137 0.602 0.137 0.834v0.554h0.068c0.068 0 0.163-0.345 0.28-1.042l-0.072-0.342v-1.182c0-0.254-0.091-0.417-0.277-0.485zM72.729 12.998l-0.137 0.277c0.137 0.335 0.205 0.544 0.205 0.625h0.14v-0.137c0-0.511-0.068-0.765-0.208-0.765zM72.798 23.202v0.277h0.068v-0.277h-0.068zM73.286 15.844v0.137c0 0.104 0.023 0.199 0.068 0.277-0.049 0.081-0.068 0.173-0.068 0.277v0.277c0.010 0.094 0.059 0.137 0.137 0.137l0.068-0.137v-1.104h-0.068c-0.094 0.010-0.137 0.055-0.137 0.137zM73.355 14.942v0.14h0.137v-0.14h-0.137zM73.355 23.759v0.068c0.010 0.088 0.059 0.137 0.137 0.137 0.091 0 0.14-0.049 0.14-0.137v-0.28h-0.068c-0.072 0-0.14 0.072-0.208 0.212zM73.491 21.607v0.834c0.013 0.091 0.059 0.137 0.14 0.137v-0.97h-0.14zM73.563 6.265v0.345h0.14v-0.345h-0.14zM73.84 18.481l-0.068 0.14v0.28c0 0.068 0.068 0.137 0.205 0.205h0.068v-0.205c0.003-0.247-0.065-0.381-0.205-0.42zM74.048 20.637l-0.068 0.137c0.186 0.205 0.277 0.326 0.277 0.345v0.554c0 0.052-0.023 0.068-0.068 0.068l0.068 0.14v1.25c0 0.244-0.023 0.638-0.068 1.179l0.205 0.14h0.068v-0.97c0-0.218 0.023-0.453 0.068-0.694-0.049-0.186-0.068-0.368-0.068-0.554 0.046-0.814 0.068-1.296 0.068-1.459-0.228-0.091-0.387-0.137-0.482-0.137zM74.188 15.915c0 0.15-0.026 0.267-0.068 0.345 0.091 0.326 0.137 0.602 0.137 0.834v0.28c0 0.046-0.023 0.068-0.068 0.068 0.046 0.091 0.068 0.163 0.068 0.205l0.485-0.068c0.091 0.114 0.14 0.205 0.14 0.277-0.091 0.153-0.14 0.29-0.14 0.417 0.14 0.163 0.208 0.345 0.208 0.557h0.068l0.068-0.42-0.068-0.342c0.046-0.313 0.068-0.567 0.068-0.762-0.046-0.166-0.068-0.254-0.068-0.28-0.254 0.231-0.391 0.348-0.413 0.348-0.153 0-0.244-0.306-0.28-0.905v-0.554h-0.137zM74.256 13.763c0 0.046-0.023 0.068-0.068 0.068 0 0.046 0.023 0.068 0.068 0.068l-0.068 0.345v0.068l0.068 0.348h-0.068l0.137 0.345-0.068 0.417c0.013 0.091 0.062 0.137 0.14 0.137l0.14-0.208c-0.091-0.15-0.14-0.287-0.14-0.417v-0.062c0-0.163 0.023-0.371 0.068-0.625-0.055-0.326-0.127-0.485-0.208-0.485zM74.465 19.871v0.14c0.013 0.091 0.059 0.137 0.14 0.137l0.068-0.137v-0.14h-0.208zM74.813 15.359v0.14c0.091 0.326 0.14 0.58 0.14 0.762h0.137v-0.068c0-0.114-0.068-0.394-0.205-0.834h-0.072zM75.367 20.011l-0.068 0.273 0.14 0.068h0.068c0.091 0 0.14-0.046 0.14-0.14-0.049-0.091-0.068-0.16-0.068-0.205h-0.212zM75.92 18.204v0.205h0.14v-0.342c-0.091 0.010-0.14 0.055-0.14 0.137zM76.2 29.656l0.348 0.072c0.091-0.15 0.137-0.264 0.137-0.345h-0.137c-0.234 0.114-0.348 0.208-0.348 0.273zM77.311 25.006v0.14h0.068v-0.14h-0.068zM77.382 29.239v0.14h0.068v-0.14h-0.068zM77.799 27.298v0.485c0.010 0.091 0.059 0.14 0.137 0.14v-0.625h-0.137z"></path>
<path d="M89.84 2.517h0.14c0.602 0.14 0.925 0.208 0.97 0.208h0.625c0.241 0 0.612 0.231 1.11 0.694h0.068c0.345-0.462 0.742-0.694 1.179-0.694h0.345c0.068 0 0.14 0.068 0.208 0.208l-0.41 0.485c0 0.046 0.091 0.326 0.277 0.834v2.152c0 0.117-0.068 0.394-0.208 0.834v0.902c-0.186 1.156-0.277 1.849-0.277 2.084 0.186 0.277 0.277 0.462 0.277 0.554 0 0.277-0.023 0.417-0.068 0.417 0.046 0.544 0.068 0.938 0.068 1.179v2.917c0 1.341-0.023 2.452-0.068 3.331 0.046 0.508 0.068 1.436 0.068 2.781 0 0.567-0.023 1.514-0.068 2.843 0.046 0.42 0.091 0.625 0.137 0.625l-0.068 0.485v2.429c0 0.381-0.716 1.169-2.149 2.361-0.081 0.046-0.176 0.068-0.28 0.068h-2.289c-0.199 0-0.453 0.023-0.762 0.068l-0.492-0.137c-0.036 0-0.358 0.068-0.974 0.208l-2.084-0.28c-0.313 0.14-0.567 0.208-0.762 0.208h-0.762l-0.485-0.14c-0.078 0-0.218 0.046-0.417 0.14-1.527-1.286-2.289-2.074-2.289-2.361l0.068-0.42c-0.049-0.254-0.068-0.462-0.068-0.622 0-0.15 0.023-0.267 0.068-0.345-0.059-0.697-0.104-1.087-0.14-1.179 0.049-0.394 0.068-0.72 0.068-0.974v-2.289c0-0.199-0.023-0.381-0.068-0.557 0.049-0.186 0.068-0.371 0.068-0.557v-2.569c0-0.147-0.023-0.264-0.068-0.342l0.068-0.42v-2.149c0-0.348-0.023-0.602-0.068-0.765 0.049-0.3 0.068-0.602 0.068-0.902v-4.441c0.091-0.453 0.14-0.707 0.14-0.765-0.091-0.531-0.14-0.902-0.14-1.11v-1.459c0-0.163-0.023-0.371-0.068-0.625l0.208-1.527c-0.081-0.231-0.244-0.508-0.485-0.83v-0.14c0.010-0.091 0.059-0.137 0.14-0.137h0.137c0.534 0.231 0.974 0.345 1.319 0.345 0-0.231 0.622-0.417 1.872-0.554h1.179c0.14 0 0.208 0.091 0.208 0.277-0.368 0.417-0.557 1.019-0.557 1.804l0.28 1.25c-0.091 0.345-0.14 0.671-0.14 0.97v0.345c0 0.15 0.023 0.267 0.068 0.345l-0.065 0.42c0 1.087-0.023 1.989-0.068 2.709 0.049 1.341 0.068 2.475 0.068 3.403 0 0.462-0.023 1.156-0.068 2.081 0.049 0.407 0.068 0.749 0.068 1.042-0.049 0.762-0.068 1.341-0.068 1.735l0.068 0.622-0.068 0.14 0.14 1.804c-0.059 1.595-0.15 2.755-0.277 3.468 0 0.557 0.667 0.951 2.012 1.182 0.205-0.046 0.899-0.091 2.081-0.137l0.417 0.345c-0.462 0.371-0.694 0.925-0.694 1.667v0.557l-0.277 0.762c0.046 0.091 0.068 0.163 0.068 0.208h0.205c0.267 0 0.475-0.166 0.625-0.488v-0.554c0.277-0.82 0.417-1.494 0.417-2.012v-0.277c0.322-0.394 0.622-0.674 0.899-0.834l-0.068-0.834v-1.319c0-1.618 0.023-2.846 0.068-3.679-0.046-0.879-0.068-1.622-0.068-2.221 0.046-2.523 0.068-4.028 0.068-4.513-0.046-1.042-0.068-1.69-0.068-1.944 0.046-0.531 0.068-1.042 0.068-1.527l-0.068-0.417 0.137-3.194c-0.091-0.208-0.137-0.508-0.137-0.902v-1.107c0-0.137-0.117-0.462-0.348-0.97v-0.072c0.003-0.068 0.075-0.14 0.215-0.208zM81.022 5.503l-0.068 0.345c0.010 0.091 0.059 0.137 0.137 0.137 0-0.046 0.026-0.114 0.068-0.208-0.046-0.081-0.068-0.173-0.068-0.277h-0.068zM81.162 22.164l-0.068 0.482v0.42h0.068l0.068-0.697v-0.205h-0.068zM81.302 3.559c-0.091 0.612-0.14 1.029-0.14 1.25 0.199 0 0.313-0.326 0.345-0.97v-0.143c0-0.091-0.046-0.137-0.137-0.137h-0.068zM81.508 9.182c-0.186 0.241-0.277 0.635-0.277 1.179v0.97c0 0.104 0.394 1.029 1.179 2.777v0.413h0.14c-0.14-1.192-0.371-1.954-0.697-2.289v-0.137c0-0.104 0.026-0.195 0.068-0.277-0.046-0.394-0.068-0.716-0.068-0.974v-0.485l-0.417-0.345v-0.28c0.14-0.173 0.208-0.335 0.208-0.485l-0.137-0.068zM81.579 26.742l0.068 0.14v0.28c0 0.16-0.091 0.342-0.277 0.554v0.068c0.036 0.277 0.101 0.417 0.205 0.417h0.14c-0.049-0.404-0.068-0.658-0.068-0.765 0.14-0.228 0.205-0.413 0.205-0.554v-0.212h-0.137l-0.137 0.072zM81.579 21.19v0.14h0.068v-0.14h-0.068zM81.648 17.026v0.622l0.068 0.348h0.068v-0.208c-0.049-0.404-0.068-0.658-0.068-0.762h-0.068zM81.648 18.344v0.137c0 0.221 0.023 0.453 0.068 0.697l-0.068 0.345c0.046 0.254 0.068 0.466 0.068 0.622h0.068c0-0.749 0.023-1.215 0.068-1.387-0.046-0.046-0.068-0.231-0.068-0.557-0.091 0.016-0.137 0.062-0.137 0.143zM81.924 21.672l0.068 0.697v0.762c0.091 0 0.14-0.049 0.14-0.137v-1.182c0-0.088-0.049-0.14-0.14-0.14h-0.068zM81.996 23.547c0 0.254-0.023 0.58-0.068 0.974 0 0.218 0.049 0.635 0.14 1.247-0.049 0.081-0.068 0.199-0.068 0.348v0.068h0.14c0-0.14 0.023-0.208 0.068-0.208l-0.068-0.14v-0.205c0-0.218 0.046-0.589 0.137-1.11-0.091-0.44-0.137-0.762-0.137-0.974h-0.143zM82.481 27.227l-0.068 0.14v0.557c-0.186 0.554-0.277 0.853-0.277 0.899 0.127 0 0.335 0.257 0.622 0.765l0.14 0.068h0.068c0.091 0 0.137-0.049 0.137-0.137v-0.068c0-0.104-0.023-0.199-0.068-0.28 0.046-0.078 0.068-0.173 0.068-0.277-0.163-0.29-0.326-0.82-0.482-1.595l-0.14-0.072zM82.413 3.419l-0.068 0.345v0.277c0 0.231 0.049 0.508 0.14 0.834h0.14c0.068 0 0.137-0.091 0.205-0.277-0.104-0.788-0.199-1.179-0.277-1.179h-0.14zM83.383 9.459v0.348l0.068 0.345h0.068l0.068-0.345v-0.208c0-0.094-0.046-0.14-0.137-0.14h-0.068zM83.52 12.79l-0.068 0.345v0.557c0 0.322 0.023 0.508 0.068 0.554-0.046 0.313-0.068 0.567-0.068 0.762v1.595h0.068c0.091-0.811 0.14-1.667 0.14-2.569v-0.554l-0.068-0.694h-0.072zM83.52 27.435l-0.068 0.14c0.033 0.28 0.101 0.42 0.205 0.42 0-0.094 0.023-0.14 0.068-0.14-0.052-0.28-0.12-0.42-0.205-0.42zM84.425 26.465v0.345c0.199 1.087 0.381 1.709 0.557 1.875-0.049 0.254-0.068 0.462-0.068 0.622v0.068c0 0.068 0.091 0.163 0.277 0.277 0.14-0.176 0.208-0.335 0.208-0.485-0.091-0.856-0.345-1.709-0.762-2.569-0.12-0.085-0.189-0.134-0.212-0.134zM86.505 26.602c-0.091 0.153-0.14 0.293-0.14 0.42 0 0.68 0.208 1.166 0.625 1.455 0.14 0 0.277-0.531 0.417-1.595-0.104-0.072-0.404-0.163-0.902-0.28zM90.045 28.965c0.049 0.254 0.068 0.44 0.068 0.557h0.068l0.068-0.348-0.068-0.345c-0.088 0.006-0.137 0.055-0.137 0.137zM90.813 3.559c0.186 0.326 0.277 0.534 0.277 0.625h0.068c0-0.462 0.023-0.694 0.068-0.694-0.049-0.091-0.068-0.16-0.068-0.205h-0.14c-0.049-0.003-0.114 0.088-0.205 0.273zM91.090 25.074v0.28l0.068 0.14c0.277-0.094 0.417-0.28 0.417-0.557l-0.485 0.137zM91.92 19.455c0 0.381-0.091 0.775-0.277 1.182-0.094 0.58-0.14 1.061-0.14 1.455v0.974c0 0.101-0.023 0.195-0.068 0.273 0.049 0.081 0.068 0.176 0.068 0.28v0.14c0 0.101-0.023 0.199-0.068 0.277 0.049 0.078 0.068 0.176 0.068 0.277h0.14c0-0.127 0.091-0.404 0.277-0.834 0-0.068-0.049-0.277-0.14-0.622 0.091-0.208 0.163-0.466 0.208-0.762-0.049-0.694-0.068-1.273-0.068-1.735 0-0.114 0.046-0.345 0.137-0.694-0.046-0.094-0.068-0.163-0.068-0.208h-0.068zM91.575 27.575l-0.14 1.319c0.049 0.417 0.114 0.625 0.208 0.625 0.137 0 0.205-0.094 0.205-0.28-0.091-0.15-0.14-0.287-0.14-0.417v-1.107c0.003-0.094-0.042-0.14-0.133-0.14zM92.197 9.735l-0.068 0.137v0.352h0.14l0.068-0.348c0-0.094-0.046-0.14-0.14-0.14zM92.197 14.317l-0.068 0.348v1.595c0.013 0.091 0.059 0.137 0.14 0.137 0.14-1.042 0.205-1.69 0.205-1.944-0.114-0.091-0.186-0.14-0.205-0.14h-0.072zM92.545 24.661v1.039c0 0.264-0.091 0.518-0.277 0.762v0.762c0.205 0 0.44-0.925 0.694-2.777l0.208-1.319v-0.13h-0.14c-0.059 0-0.15 0.342-0.277 1.039-0.104 0-0.173 0.205-0.208 0.625zM92.614 17.162c0 0.023-0.023 0.114-0.068 0.277 0 0.078 0.026 0.498 0.068 1.25-0.046 0.407-0.068 0.661-0.068 0.762 0.049 0.186 0.068 0.348 0.068 0.485h0.068l0.068-0.345v-0.83c0-0.394 0.046-0.694 0.137-0.902-0.137-0.326-0.205-0.554-0.205-0.694h-0.068zM92.614 20.357v0.902h0.14v-0.902h-0.14zM92.962 27.643v0.208h0.14c0-0.049 0.023-0.114 0.068-0.208h-0.208z"></path>
<path d="M96.485 2.585l0.345 0.068h2.289c0.218 0 0.593 0.046 1.114 0.137l0.694-0.137c0.078 0 0.267 0.046 0.557 0.137l1.872-0.137c0.078 0.046 0.29 0.091 0.625 0.137 0.078 0 0.264-0.046 0.554-0.137 0.036 0 0.176 0.023 0.417 0.068l0.834-0.068c0.303 0.091 0.508 0.137 0.625 0.137h0.137c0.869-0.137 1.332-0.208 1.39-0.208 0.3 0 0.622 0.231 0.97 0.694 0.882 0.462 1.319 0.97 1.319 1.527 0.049 0 0.068 0.023 0.068 0.068s-0.023 0.117-0.068 0.208c0.049 0.602 0.068 1.087 0.068 1.459v0.068c0 0.163-0.023 0.371-0.068 0.625 0.091 0.29 0.14 0.475 0.14 0.554-0.091 0.326-0.14 0.602-0.14 0.834 0.186 0.453 0.28 0.752 0.28 0.902v1.179l-0.28 1.735c0 0.267 0.023 0.635 0.068 1.11-0.091 0.462-0.14 0.879-0.14 1.25 0.189 0.427 0.28 0.684 0.28 0.762v0.834c-0.127 0.856-0.244 1.345-0.345 1.459-0.094 0-0.511 0.417-1.25 1.25-0.277 0.134-0.413 0.368-0.413 0.703 0.091 0.716 0.254 1.293 0.482 1.732l0.697 2.777c0 0.72 0.277 1.713 0.834 2.986 0 1.039 0.277 1.784 0.834 2.224 0.137 0 0.254 0.205 0.345 0.622-0.153 0.14-0.267 0.208-0.345 0.208-0.498-0.094-0.824-0.14-0.974-0.14h-0.345c-0.394 0-0.882 0.046-1.459 0.14-0.404-0.049-0.658-0.068-0.762-0.068-0.036 0-0.173 0.023-0.417 0.068-0.186-0.049-0.345-0.068-0.482-0.068l-0.492 0.068c-0.231-0.081-0.345-0.199-0.345-0.348 0.137-0.228 0.205-0.413 0.205-0.554v-0.14c-0.186-1.061-0.462-2.221-0.834-3.471 0-0.199-0.114-0.658-0.345-1.387 0-0.153-0.114-0.593-0.345-1.319-0.049-0.417-0.28-1.25-0.694-2.497 0-0.433-0.394-0.801-1.182-1.114l-0.345 0.068-0.97-0.068c0 0.059-0.231 0.313-0.697 0.762v2.084c0 1.009-0.023 2.374-0.068 4.096 0.049 0.254 0.068 0.462 0.068 0.625l-0.068 0.342c0.049 0.361 0.068 0.752 0.068 1.182v0.068c0 0.078 0.163 0.521 0.485 1.315v0.068c0 0.068-0.068 0.14-0.205 0.208h-2.986c-0.267 0-0.635 0.023-1.11 0.068-0.091-0.049-0.163-0.068-0.208-0.068-0.078 0.046-0.199 0.068-0.345 0.068-0.231-0.14-0.345-0.28-0.345-0.42 0.417-0.658 0.622-1.166 0.622-1.527v-1.446c0-0.749-0.023-1.309-0.068-1.667 0.046-0.358 0.068-0.915 0.068-1.667v-1.175c0-0.104-0.023-0.199-0.068-0.277 0.046-0.081 0.068-0.176 0.068-0.28v-0.14c0-0.264-0.023-0.427-0.068-0.482 0.046-0.254 0.068-0.466 0.068-0.622v-0.628c0-0.199-0.023-0.384-0.068-0.557 0-0.046 0.023-0.114 0.068-0.208-0.046-0.739-0.068-1.175-0.068-1.315 0-0.114 0.023-0.72 0.068-1.804l-0.068-0.348c0.046-0.078 0.068-0.173 0.068-0.277l-0.068-0.348 0.068-0.137c-0.046-0.091-0.068-0.163-0.068-0.208l0.068-0.417c0-0.137-0.023-0.3-0.068-0.485 0.046-0.729 0.068-1.263 0.068-1.599 0-0.394-0.023-1.088-0.068-2.081 0.033-0.371 0.078-0.557 0.137-0.557l-0.068-0.345v-0.977c0-0.254-0.023-0.58-0.068-0.974 0.046-0.091 0.068-0.16 0.068-0.208 0-0.046-0.023-0.068-0.068-0.068l0.068-0.694v-2.637c0-0.091-0.137-0.371-0.417-0.834v-0.068l0.205-0.28zM98.497 14.248v0.137c0 0.059-0.049 0.313-0.14 0.762 0.026 0.466 0.091 0.694 0.208 0.694v-1.107l0.137-0.208v-0.14c0-0.091-0.046-0.137-0.137-0.137h-0.068zM98.497 21.672c0 0.107-0.023 0.199-0.068 0.28 0.049 0.466 0.114 0.694 0.208 0.694h0.068v-0.068c0-0.16 0.026-0.368 0.068-0.622-0.046-0.081-0.068-0.173-0.068-0.28h-0.208zM99.331 18.344v0.205h0.14v-0.345c-0.094 0.013-0.14 0.059-0.14 0.14zM99.471 7.306c0 0.163-0.026 0.371-0.068 0.625 0.046 0.081 0.068 0.173 0.068 0.277 0.059 0 0.173-0.114 0.345-0.345 0-0.257-0.117-0.44-0.345-0.557zM99.536 12.721l-0.137 0.834c0.046 0.244 0.068 0.475 0.068 0.694v0.277h0.137l0.14-0.345-0.208-0.348v-0.485c0-0.114 0.049-0.322 0.14-0.625h-0.14zM99.399 20.217l0.137 0.694h0.068v-0.554c0-0.091-0.046-0.14-0.137-0.14h-0.068zM99.471 3.767l0.068 0.137v0.765h0.14l0.068-0.348v-0.068c0-0.046-0.049-0.231-0.14-0.557l-0.137 0.072zM99.536 16.677c0.062 0 0.176-0.117 0.348-0.345l-0.14-0.068c-0.091-0.003-0.16 0.137-0.208 0.413zM99.536 16.886v0.208h0.068v-0.208h-0.068zM99.748 19.038c0 0.189-0.023 0.277-0.068 0.277 0.049 0.068 0.068 0.208 0.068 0.42h0.14l0.068-0.625-0.137-0.068h-0.072zM99.816 15.359v0.14c0.010 0.091 0.059 0.137 0.137 0.137 0.091-0.15 0.14-0.267 0.14-0.345l-0.14-0.068c-0.091 0.010-0.137 0.055-0.137 0.137zM99.816 21.258v0.068c0.137 0.205 0.205 0.342 0.205 0.413h0.14v-0.342c0-0.094-0.049-0.14-0.14-0.14h-0.205zM99.816 25.286v0.345h0.068v-0.345h-0.068zM99.888 17.996l0.417 0.694v-0.345c0-0.244-0.068-0.381-0.208-0.417-0.094 0.046-0.166 0.068-0.208 0.068zM99.953 22.506v0.068h0.068c0.091 0 0.14-0.046 0.14-0.137v-0.068h-0.068c-0.091 0.010-0.14 0.062-0.14 0.137zM100.51 16.052c0 0.231-0.023 0.345-0.068 0.345l0.068 0.14v0.068c0 0.221-0.114 0.404-0.345 0.557 0.14 0.313 0.205 0.495 0.205 0.554h0.14l-0.068-0.694c0.059 0 0.176-0.114 0.345-0.345l-0.137-0.625h-0.14zM100.581 3.559c0 0.046-0.023 0.117-0.068 0.208 0.049 0.277 0.114 0.417 0.205 0.417 0.14-0.046 0.208-0.186 0.208-0.417v-0.072c0-0.091-0.049-0.137-0.14-0.137h-0.205zM100.581 19.455c0.137-0.186 0.277-0.277 0.417-0.277v-0.348h-0.068c-0.234 0.199-0.348 0.404-0.348 0.625zM104.12 6.753h-1.25c-0.267 0-0.635-0.023-1.11-0.068-0.231 0-0.58 0.254-1.042 0.762 0.049 0.462 0.068 0.811 0.068 1.042v1.247c0 0.3-0.023 0.602-0.068 0.902 0.049 0.163 0.068 0.417 0.068 0.765 0 0.267-0.023 0.427-0.068 0.485 0.049 0.313 0.068 0.567 0.068 0.765v2.012c0 0.046-0.023 0.068-0.068 0.068 0.199 0.358 0.407 0.612 0.625 0.765h4.373c0.371-0.358 0.557-0.843 0.557-1.459v-2.709c0-0.589 0.023-1.237 0.068-1.944-0.049-0.186-0.068-0.371-0.068-0.557 0.046-0.44 0.068-0.879 0.068-1.319 0-0.348-0.417-0.648-1.25-0.902-0.345 0.098-0.671 0.143-0.97 0.143zM101.066 16.677l0.205 0.345c-0.046 0.254-0.068 0.44-0.068 0.557 0.254 0.391 0.417 0.785 0.485 1.179 0.15 0.091 0.267 0.14 0.345 0.14 0.049-0.094 0.068-0.166 0.068-0.208-0.091-0.313-0.326-0.869-0.694-1.667 0.046-0.081 0.068-0.173 0.068-0.277 0-0.094-0.049-0.14-0.14-0.14h-0.14l-0.13 0.072zM101.203 6.056l0.14 0.068c0.078 0 0.241-0.208 0.485-0.625 0.091-0.046 0.163-0.068 0.205-0.068 0.186 0.208 0.28 0.371 0.28 0.485h0.137l0.068-0.834c-0.326 0-0.485-0.254-0.485-0.765v-0.274c0-0.117 0.049-0.326 0.14-0.625h-0.068c-0.326 0-0.485 0.345-0.485 1.042-0.186 0.29-0.326 0.821-0.417 1.595zM102.522 3.35v0.068l0.208 0.417c-0.049 0.394-0.068 0.716-0.068 0.97v0.137c0.137-0.046 0.205-0.186 0.205-0.417 0-0.068-0.023-0.394-0.068-0.97h0.068c-0.046-0.091-0.068-0.163-0.068-0.208h-0.277zM103.632 5.018c-0.277 0.612-0.417 0.934-0.417 0.97l0.14 0.068h0.277c0.091 0 0.14-0.046 0.14-0.137v-0.765c0-0.091-0.049-0.137-0.14-0.137zM103.704 3.767v0.417h0.068l0.068-0.485v-0.072c-0.091 0.013-0.137 0.059-0.137 0.14zM104.882 16.26c0 0.046 0.026 0.068 0.068 0.068l-0.068 0.345c0.049 0.091 0.068 0.163 0.068 0.208h0.277c0.094-0.023 0.189-0.137 0.28-0.345-0.049 0-0.186-0.163-0.417-0.485-0.033 0-0.104 0.072-0.208 0.208zM104.951 20.91c0.14 0.199 0.208 0.521 0.208 0.974l0.137-0.068-0.068-0.345c0.049-0.335 0.068-0.518 0.068-0.557l-0.137-0.068h-0.068l-0.14 0.065zM105.091 3.419v1.667l0.068 0.834h0.068c0-0.221 0.026-0.453 0.068-0.694-0.046-0.567-0.068-1.123-0.068-1.667v-0.14h-0.137zM105.439 17.439v0.208l0.485 1.807h0.137l0.068-0.345c-0.231-0.44-0.345-0.856-0.345-1.25v-0.42c0-0.091-0.046-0.137-0.14-0.137h-0.068c-0.094 0.010-0.137 0.059-0.137 0.137zM105.644 16.541c0.013 0.091 0.062 0.137 0.14 0.137l0.068-0.277h-0.068c-0.091 0.013-0.14 0.059-0.14 0.14zM105.996 4.112c0.101 1.11 0.195 1.921 0.277 2.432h0.068v-0.697c0.186-0.951 0.277-1.459 0.277-1.527v-0.554l0.068-0.345c-0.091-0.046-0.163-0.068-0.208-0.068-0.322 0.124-0.482 0.378-0.482 0.759zM106.895 16.954l-0.065 0.485c0 0.231 0.023 0.58 0.068 1.039h0.068l0.068-0.834-0.068-0.694h-0.072zM106.895 19.803c0 0.020-0.023 0.114-0.068 0.273 0.046 0.094 0.068 0.166 0.068 0.208h0.068c0-0.046 0.023-0.114 0.068-0.208-0.049-0.078-0.068-0.173-0.068-0.273h-0.068zM107.451 28.269v0.068c0.14 0.674 0.208 1.087 0.208 1.254h0.137v-0.072c0-0.834-0.091-1.254-0.277-1.254h-0.068zM107.591 7.792v0.277l0.068 0.345h0.068l0.068-0.345v-0.485c-0.068 0-0.137 0.072-0.205 0.208zM107.591 14.525v0.068h0.068c0.091-0.3 0.137-0.508 0.137-0.625-0.104 0.003-0.169 0.189-0.205 0.557zM108.353 3.627c0.046 0.091 0.068 0.163 0.068 0.208 0 0.521-0.14 1.286-0.417 2.292v0.208c0.241 0 0.495-0.694 0.762-2.084l-0.208-0.694h-0.068l-0.137 0.068zM108.073 25.84c0.14 0.938 0.208 1.494 0.208 1.667v0.488c0.016 0.088 0.059 0.137 0.143 0.137 0.078-0.049 0.173-0.068 0.277-0.068l0.068 0.14c0 0.114-0.026 0.303-0.068 0.557 0 0.694 0.186 1.039 0.557 1.039 0.658-0.091 1.12-0.14 1.387-0.14-0.218-0.462-0.358-0.694-0.417-0.694-0.15 0-0.313 0.068-0.485 0.205h-0.277c-0.091 0-0.14-0.046-0.14-0.14l0.068-0.342c0-0.453-0.254-0.889-0.762-1.319 0-0.394-0.163-0.902-0.485-1.53h-0.075zM108.285 17.511c0 0.068 0.023 0.345 0.068 0.834h0.137c0.068 0 0.14-0.068 0.208-0.205v-0.072l-0.208-0.28v-0.208c0-0.199 0.094-0.498 0.28-0.902l-0.14-0.068c-0.15 0-0.267 0.3-0.345 0.902zM108.425 22.785v0.072c0.010 0.091 0.059 0.14 0.137 0.14v-0.212h-0.137zM108.63 11.748l0.068 0.277h0.345c0.14 0 0.208-0.44 0.208-1.319 0-0.036-0.026-0.173-0.068-0.417h-0.068c-0.091 0-0.163 0.277-0.208 0.834-0.182 0.208-0.277 0.417-0.277 0.625zM108.77 13.138v2.152l0.068 0.485h0.137v-0.277c0-0.091-0.046-0.326-0.137-0.694 0-0.068 0.068-0.345 0.205-0.834v-0.974h-0.14c-0.088 0.013-0.133 0.059-0.133 0.14zM108.77 24.036v0.137c0 0.339 0.068 0.521 0.205 0.56h0.068v-0.212c0.003-0.254-0.088-0.417-0.273-0.485zM109.675 5.848c0 0.186-0.049 0.277-0.14 0.277l0.068 0.485v0.277l-0.762 0.625v0.068c0 0.068 0.068 0.14 0.205 0.208h0.485l0.277-0.208-0.068-0.482c0.049-0.58 0.068-0.925 0.068-1.042-0.046-0.091-0.068-0.163-0.068-0.208h-0.065zM109.187 25.703c0.068 0.186 0.137 0.277 0.205 0.277v-0.485c-0.033 0-0.101 0.068-0.205 0.208zM109.74 5.363v0.277h0.068c0.049-0.163 0.068-0.254 0.068-0.277h-0.137z"></path>
<path d="M116.93 2.585h0.277c0.326 0 0.58 0.046 0.762 0.137 0.208-0.091 0.44-0.137 0.694-0.137 0.189 0 0.606 0.023 1.25 0.068 0.091-0.046 0.163-0.068 0.208-0.068 0.231 0.091 0.391 0.137 0.485 0.137 0.322-0.091 0.58-0.137 0.762-0.137 0.241 0 0.427 0.117 0.554 0.345v0.208c0 0.059-0.046 0.313-0.137 0.762v0.208l0.97 4.373 1.114 5.346c0.228 0.612 0.508 1.931 0.834 3.956 0.462 2.097 0.694 3.344 0.694 3.748 0.091 0.010 0.14 0.062 0.14 0.137v1.53c0.322 0.205 0.482 0.58 0.482 1.11 0.189 0 0.303 0.557 0.348 1.667 0.127 0 0.241 0.648 0.345 1.947 0.622 0.843 0.996 1.582 1.11 2.221-0.068 0-0.14 0.068-0.205 0.208-0.928-0.049-1.621-0.068-2.084-0.068h-0.902c-0.127 0-0.267-0.049-0.417-0.14-0.303 0.091-0.508 0.14-0.625 0.14h-0.762c-0.068 0-0.163-0.094-0.277-0.28v-0.072c0.14-0.44 0.205-0.716 0.205-0.834v-0.83c-0.137-0.401-0.277-1.097-0.417-2.081-0.127-0.059-0.241-0.381-0.345-0.974-0.264 0-0.495-0.114-0.694-0.345-0.466 0.049-0.811 0.068-1.039 0.068h-2.501c-0.882 0-1.39 0.322-1.53 0.97-0.101 0.661-0.241 1.286-0.417 1.875-0.039 0.085-0.062 0.199-0.062 0.348v0.97c0 0.234 0.046 0.508 0.137 0.834-0.091 0.28-0.186 0.42-0.277 0.42h-0.208c-0.15 0-0.264-0.026-0.345-0.068l-0.417 0.068h-0.205c-0.358 0-0.684-0.026-0.974-0.068l-0.485 0.068c-0.137 0-0.3-0.026-0.482-0.068-0.443 0.046-0.86 0.068-1.25 0.068h-0.485c-0.091 0-0.14-0.049-0.14-0.14v-0.072c0-0.208 0.208-0.58 0.625-1.114 0-0.186 0.114-0.667 0.345-1.455 0.462-2.416 0.948-4.637 1.455-6.665 0.14-0.921 0.485-2.566 1.042-4.926 0-0.195 0.091-0.381 0.277-0.554v-0.072c0-0.104-0.023-0.195-0.068-0.277 0.326-1.481 0.485-2.429 0.485-2.846 0.15 0 0.267-0.485 0.345-1.459 0.231-0.707 0.602-2.302 1.11-4.79 0.189-0.635 0.28-1.006 0.28-1.11v-0.902c0-0.244-0.026-0.635-0.068-1.179 0.166-0.14 0.329-0.212 0.482-0.212zM112.348 27.855v0.554c0 0.231-0.023 0.58-0.068 1.042h0.068c0.091 0 0.14-0.049 0.14-0.14v-1.455h-0.14zM115.816 24.453v0.208c0.091 0 0.14-0.049 0.14-0.14v-0.068h-0.14zM116.584 8.902v0.345c0.010 0.094 0.059 0.14 0.137 0.14v-0.485h-0.137zM116.861 13.278v0.277c0 0.602 0.068 0.902 0.205 0.902 0.049-0.544 0.068-0.938 0.068-1.179v-0.072l0.277-0.417v-0.208c-0.16 0.303-0.345 0.534-0.55 0.697zM116.998 7.863c0 0.091-0.023 0.137-0.068 0.137 0 0.199 0.114 0.498 0.345 0.902 0 0.879 0.068 1.319 0.205 1.319v-0.137c0-0.681-0.114-1.423-0.345-2.221h-0.137zM117.206 14.873v0.208c0.046 0 0.114 0.023 0.205 0.068l0.208-0.277v-0.208c-0.147 0.137-0.287 0.208-0.413 0.208zM117.346 7.030v0.277h0.068v-0.277h-0.068zM117.346 15.844v0.068l0.068 0.345h0.068l0.068-0.345-0.14-0.068h-0.065zM117.483 19.871v0.413c0 0.059 0.208 0.267 0.625 0.622h2.361c0.14 0 0.277-0.322 0.417-0.97-0.371-1.957-0.811-4.015-1.319-6.177 0-0.498-0.091-0.961-0.277-1.387h-0.068c-0.15 0-0.339 0.716-0.557 2.152-0.264 0.892-0.449 1.908-0.554 3.054-0.14 0-0.254 0.508-0.345 1.527-0.192 0.189-0.283 0.443-0.283 0.765zM117.692 5.154v0.765h0.068v-0.765h-0.068zM117.968 13.486c-0.186 0.485-0.277 0.785-0.277 0.902 0.186 0 0.3-0.277 0.345-0.834v-0.068h-0.068zM117.692 22.717v0.557c0.091 0 0.137-0.049 0.137-0.14v-0.277c0-0.094-0.042-0.14-0.137-0.14zM117.9 3.487l0.208 0.277c0 0.199-0.049 0.381-0.14 0.554 0.186 0 0.345 0.742 0.485 2.224 0.15 0 0.381 0.576 0.694 1.735l0.14-0.068-0.068-0.345v-0.488c-0.091-0.671-0.14-1.039-0.14-1.11v-0.417l-0.205 0.137h-0.14c-0.137-0.046-0.205-0.186-0.205-0.417v-1.872c-0.049-0.137-0.186-0.208-0.417-0.208h-0.212zM117.9 7.030v0.277c0.013 0.091 0.059 0.137 0.14 0.137h0.068v-0.205l-0.068-0.345c-0.091 0.010-0.14 0.055-0.14 0.137zM118.108 11.956l-0.068 0.625v0.208h0.068c0-0.345 0.068-0.554 0.205-0.625-0.046-0.091-0.068-0.163-0.068-0.208h-0.137zM118.040 12.861v0.345h0.068v-0.345h-0.068zM118.317 7.932l-0.068 0.345v0.277c0 0.29 0.208 0.752 0.625 1.387 0 0.326 0.068 0.648 0.205 0.97h0.068v-0.895c0-0.14-0.205-0.534-0.622-1.182 0-0.602-0.068-0.902-0.208-0.902zM120.469 21.607c0 0.068-0.091 0.163-0.277 0.277h-0.14c-0.176-0.14-0.313-0.208-0.417-0.208l-0.14 0.208v0.14c0 0.241 0.091 0.407 0.28 0.482 0.023 0 0.137-0.088 0.345-0.273h0.068c0.186 0.088 0.277 0.228 0.277 0.413h0.068l0.068-0.482v-0.42c0.007-0.091-0.042-0.137-0.133-0.137zM119.707 23.339c-0.091 0.306-0.14 0.511-0.14 0.625h0.208c0.091 0 0.137-0.049 0.137-0.137v-0.28c0-0.068-0.065-0.14-0.205-0.208zM119.912 7.515c-0.091 0.29-0.137 0.475-0.137 0.554 0.091 0.345 0.137 0.58 0.137 0.694 0 0.081-0.046 0.218-0.137 0.417 0.091 0.322 0.137 0.602 0.137 0.834v0.554h0.068c0.068 0 0.163-0.345 0.28-1.042l-0.068-0.342v-1.182c0-0.254-0.091-0.417-0.28-0.485zM120.4 12.998l-0.137 0.277c0.137 0.335 0.205 0.544 0.205 0.625h0.14v-0.137c0-0.511-0.068-0.765-0.208-0.765zM120.469 23.202v0.277h0.068v-0.277h-0.068zM120.954 15.844v0.137c0 0.104 0.023 0.199 0.068 0.277-0.049 0.081-0.068 0.173-0.068 0.277v0.277c0.010 0.094 0.059 0.137 0.137 0.137l0.068-0.137v-1.104h-0.068c-0.091 0.010-0.137 0.055-0.137 0.137zM121.026 14.942v0.14h0.137v-0.14h-0.137zM121.026 23.759v0.068c0.010 0.088 0.059 0.137 0.137 0.137 0.091 0 0.14-0.049 0.14-0.137v-0.28h-0.068c-0.072 0-0.143 0.072-0.208 0.212zM121.162 21.607v0.834c0.013 0.091 0.059 0.137 0.14 0.137v-0.97h-0.14zM121.231 6.265v0.345h0.14v-0.345h-0.14zM121.508 18.481l-0.068 0.14v0.28c0 0.068 0.068 0.137 0.205 0.205h0.068v-0.205c0.007-0.247-0.065-0.381-0.205-0.42zM121.719 20.637l-0.072 0.137c0.186 0.205 0.277 0.326 0.277 0.345v0.554c0 0.052-0.023 0.068-0.068 0.068l0.068 0.14v1.25c0 0.244-0.023 0.638-0.068 1.179l0.205 0.14h0.068v-0.97c0-0.218 0.023-0.453 0.068-0.694-0.049-0.186-0.068-0.368-0.068-0.554 0.046-0.814 0.068-1.296 0.068-1.459-0.225-0.091-0.387-0.137-0.479-0.137zM121.859 15.915c0 0.15-0.026 0.267-0.068 0.345 0.091 0.326 0.137 0.602 0.137 0.834v0.28c0 0.046-0.023 0.068-0.068 0.068 0.046 0.091 0.068 0.163 0.068 0.205l0.485-0.068c0.091 0.114 0.14 0.205 0.14 0.277-0.091 0.153-0.14 0.29-0.14 0.417 0.14 0.163 0.208 0.345 0.208 0.557h0.068l0.068-0.42-0.068-0.342c0.046-0.313 0.068-0.567 0.068-0.762-0.046-0.166-0.068-0.254-0.068-0.28-0.257 0.231-0.394 0.348-0.417 0.348-0.153 0-0.244-0.306-0.28-0.905v-0.554h-0.133zM121.924 13.763c0 0.046-0.023 0.068-0.068 0.068 0 0.046 0.023 0.068 0.068 0.068l-0.068 0.345v0.068l0.068 0.348h-0.068l0.137 0.345-0.068 0.417c0.013 0.091 0.062 0.137 0.14 0.137l0.14-0.208c-0.091-0.15-0.14-0.287-0.14-0.417v-0.062c0-0.163 0.023-0.371 0.068-0.625-0.055-0.326-0.124-0.485-0.208-0.485zM122.136 19.871v0.14c0.013 0.091 0.059 0.137 0.14 0.137l0.068-0.137v-0.14h-0.208zM122.481 15.359v0.14c0.091 0.326 0.14 0.58 0.14 0.762h0.137v-0.068c0-0.114-0.068-0.394-0.205-0.834h-0.072zM123.038 20.011l-0.068 0.273 0.14 0.068h0.068c0.091 0 0.14-0.046 0.14-0.14-0.049-0.091-0.068-0.16-0.068-0.205h-0.212zM123.591 18.204v0.205h0.14v-0.342c-0.091 0.010-0.14 0.055-0.14 0.137zM123.871 29.656l0.345 0.072c0.091-0.15 0.137-0.264 0.137-0.345h-0.137c-0.231 0.114-0.345 0.208-0.345 0.273zM124.982 25.006v0.14h0.068v-0.14h-0.068zM125.050 29.239v0.14h0.068v-0.14h-0.068zM125.467 27.298v0.485c0.010 0.091 0.059 0.14 0.137 0.14v-0.625h-0.137z"></path>
<path d="M127.271 2.657h0.974c1.859 0.322 2.904 0.485 3.123 0.485 0.508-0.186 0.834-0.277 0.974-0.277h1.667c0.427 0 1.026-0.023 1.804-0.068 0.091 0.046 0.163 0.068 0.208 0.068l0.482-0.068c0.127 0 0.593 0.023 1.39 0.068 0.068 0 0.277-0.046 0.622-0.14l0.485 0.068c0.153-0.091 0.29-0.137 0.417-0.137 0.081 0 0.199 0.046 0.345 0.137 0.303-0.091 0.508-0.137 0.625-0.137h0.14c0.417 0 0.622 0.186 0.622 0.554 0 1.26 0.068 2.442 0.205 3.539v0.137c-0.091 0.186-0.228 0.277-0.413 0.277-0.407-0.322-0.752-0.485-1.042-0.485h-0.762c-0.068 0-0.44 0.046-1.11 0.137-0.29-0.091-0.475-0.137-0.557-0.137-0.925 0.117-1.39 0.231-1.39 0.345l0.068 0.277c-0.137 0-0.231 0.925-0.277 2.777l0.205 0.485c-0.091 0.326-0.137 0.58-0.137 0.762l0.068 0.417c-0.049 0.254-0.068 0.508-0.068 0.762 0 0.221 0.023 0.453 0.068 0.694-0.049 0.244-0.068 0.381-0.068 0.417 0.046 0.521 0.068 1.006 0.068 1.459 0 0.046-0.026 0.117-0.068 0.208 0.091 0.186 0.137 0.44 0.137 0.762 0 0.244-0.023 0.453-0.068 0.625 0.046 0.303 0.068 0.602 0.068 0.902v0.277c0 1.387-0.068 2.084-0.205 2.084l0.068 0.137v0.902c0 0.326 0.046 0.58 0.137 0.762l-0.137 0.488c0.091 0.228 0.137 0.391 0.137 0.482-0.046 0.612-0.068 1.123-0.068 1.527 0 0.094-0.026 0.14-0.068 0.14l0.068 0.348v0.899c0 0.199-0.026 0.453-0.068 0.762l0.137 0.345c-0.091 0.208-0.137 0.508-0.137 0.902v0.508c0 0.137 0.205 0.785 0.622 1.944-0.068 0.186-0.137 0.28-0.205 0.28h-4.096c-0.508 0-0.762-0.068-0.762-0.208v-0.215l0.417-1.315v-0.762c0-0.104 0.023-0.199 0.068-0.28-0.046-0.078-0.068-0.173-0.068-0.277v-0.208c0-0.42 0.023-0.697 0.068-0.834-0.046-0.407-0.068-0.752-0.068-1.042v-0.974c0-0.355 0.023-0.68 0.068-0.97-0.046-0.231-0.068-0.531-0.068-0.902v-0.205c0-0.153 0.023-0.267 0.068-0.348l-0.137-1.11c0.046-0.404 0.068-0.752 0.068-1.039v-0.143c0-0.267-0.026-0.635-0.068-1.114l0.137-0.342-0.068-0.625 0.068-0.97-0.137-0.834c0.046-0.244 0.068-0.475 0.068-0.694v-0.28l0.205-0.277c-0.186-0.231-0.277-0.371-0.277-0.417 0.046-0.879 0.091-1.319 0.137-1.319l-0.068-0.348v-2.846c0-0.163 0.023-0.371 0.068-0.625 0-1.341-0.368-2.012-1.11-2.012-0.345-0.091-0.671-0.137-0.97-0.137h-0.557c-0.186 0-0.485 0.046-0.902 0.137-0.303-0.091-0.602-0.137-0.902-0.137-0.58 0.046-0.879 0.068-0.899 0.068-0.094-0.15-0.14-0.267-0.14-0.348 0.231-1.446 0.345-2.419 0.345-2.917v-0.205c0.010-0.254 0.15-0.462 0.427-0.625zM133.102 9.25l-0.208 0.277v0.137c0 0.036 0.049 0.221 0.14 0.557v0.068c-0.277 0.394-0.417 0.788-0.417 1.179 0.046 0.081 0.068 0.176 0.068 0.277 0.137 0 0.326-0.534 0.554-1.595v-0.759c0-0.094-0.046-0.14-0.137-0.14zM132.614 12.373v0.417h0.14v-0.417h-0.14zM132.685 22.717c0 0.049-0.026 0.114-0.068 0.208 0.046 0.508 0.114 1.061 0.205 1.667-0.046 0.241-0.068 0.381-0.068 0.413 0.046 0.094 0.068 0.166 0.068 0.208 0.068 0 0.14-0.068 0.208-0.208v-1.387c0-0.173-0.091-0.475-0.277-0.902h-0.068zM132.685 13.138v0.348l0.205 0.277v0.277l0.068 0.694h0.068c0-0.033 0.023-0.173 0.068-0.417 0-0.267-0.117-0.658-0.345-1.179h-0.065zM132.891 15.082l-0.137 0.485c0.322 0.742 0.482 1.182 0.482 1.319v0.488c0.013 0.088 0.062 0.137 0.14 0.137l0.068-0.137v-0.14c0-0.313-0.163-0.938-0.485-1.875v-0.277h-0.068zM132.891 17.856c0 0.186-0.023 0.28-0.068 0.28l0.068 0.342-0.068 0.42c0.049 0.078 0.068 0.199 0.068 0.342h0.14c0.046-0.462 0.068-0.808 0.068-1.039v-0.345h-0.208zM133.307 27.995l-0.137 0.554c0.059 0.277 0.127 0.417 0.205 0.417l0.068-0.345v-0.488c0.003-0.094-0.042-0.137-0.137-0.137zM133.239 3.696v0.625c0 0.244 0.091 0.407 0.28 0.485 0.137-0.313 0.228-0.729 0.277-1.25l-0.208-0.137c-0.208 0.094-0.322 0.186-0.348 0.277zM133.307 29.171l-0.068 0.348v0.068c0.049 0 0.117 0.020 0.208 0.068l0.068-0.137-0.068-0.348h-0.14zM133.587 13.903v0.413c0.091 0.602 0.137 1.088 0.137 1.459h0.068v-0.417c-0.049-0.521-0.068-0.983-0.068-1.387l-0.137-0.068zM133.724 18.204l-0.068 0.485v0.902h0.068c0-0.081 0.023-0.495 0.068-1.25v-0.137h-0.068zM133.864 29.311v0.14h0.068v-0.14h-0.068zM134.004 24.938l-0.068 0.137v0.762h0.205l0.14-0.482c-0.091-0.28-0.182-0.417-0.277-0.417zM134.141 5.639v0.694h0.14v-0.83c-0.091 0.010-0.14 0.059-0.14 0.137zM134.141 7.792v0.902c0.013 0.091 0.059 0.137 0.14 0.137 0-0.046 0.023-0.068 0.068-0.068l-0.068-0.14v-0.83h-0.14zM134.141 9.667v0.694h0.068c0.036-0.371 0.078-0.554 0.14-0.554-0.049-0.081-0.068-0.176-0.068-0.277-0.091 0.010-0.14 0.055-0.14 0.137zM134.698 18.344v1.732l-0.068 0.697h0.14c0-0.29 0.163-1.009 0.482-2.152-0.277-0.114-0.417-0.254-0.417-0.417-0.091 0.013-0.137 0.059-0.137 0.14zM134.698 15.359v0.902h0.137c0.14-0.498 0.208-0.798 0.208-0.902v-0.485h-0.068c-0.186 0.068-0.277 0.231-0.277 0.485zM134.974 25.426v1.11l-0.277 2.702h0.137c0.189-0.544 0.28-1.54 0.28-2.983v-0.83h-0.14zM135.391 3.696c0.013 0.094 0.059 0.14 0.14 0.14v-0.14h-0.14zM135.876 5.639c0 0.046-0.023 0.117-0.068 0.208 0.049 0.091 0.068 0.163 0.068 0.208h0.834v-0.417h-0.834zM136.085 3.836v0.137h0.068v-0.137h-0.068zM136.781 3.836v0.485c0.010 0.094 0.059 0.14 0.137 0.14 0-0.117 0.026-0.3 0.068-0.557l-0.137-0.068h-0.068zM137.543 3.419c-0.049 1.214-0.068 2.116-0.068 2.709 0.14 0.046 0.205 0.091 0.205 0.137 0.231 0 0.348-0.716 0.348-2.152 0.046-0.254 0.068-0.462 0.068-0.625l-0.137-0.068h-0.417zM139.070 5.639v0.137h0.068v-0.137h-0.068zM139.627 4.112c-0.094 0.303-0.14 0.511-0.14 0.625v0.068c0.114 0 0.208-0.208 0.277-0.625l-0.137-0.068zM140.461 5.431l-0.345 0.485v0.208c0 0.104 0.205 0.173 0.622 0.208v-0.068c-0.059-0.554-0.15-0.834-0.277-0.834z"></path>
<path d="M144.746 2.517c0.544 0.046 0.938 0.068 1.179 0.068l0.485-0.068c0.205 0.094 0.326 0.186 0.345 0.277-0.368 0.485-0.58 0.951-0.622 1.387 0.091 0.417 0.137 0.648 0.137 0.694-0.046 0.843-0.068 1.377-0.068 1.595 0 0.036 0.026 0.218 0.068 0.554-0.091 0.186-0.137 0.44-0.137 0.762v0.068c0.091 0.671 0.137 1.042 0.137 1.11v1.664l-0.137 1.25c0.091 0.788 0.137 1.319 0.137 1.599 0 0.254-0.046 0.602-0.137 1.039 0 0.117 0.023 0.303 0.068 0.557l-0.068 0.625 0.068 1.11-0.068 0.625 0.137 0.417c0 0.046-0.023 0.114-0.068 0.208 0.049 0.475 0.068 0.843 0.068 1.11 0 0.231-0.046 0.508-0.137 0.834 0.091 0.322 0.137 0.602 0.137 0.834v0.694c-0.091 0.785-0.137 1.227-0.137 1.319v0.482c0.091 0.674 0.137 1.019 0.137 1.042 0 0.114-0.046 0.348-0.137 0.694 0.137 0.303 0.205 0.508 0.205 0.625v0.068c-0.228 0.29-0.342 0.453-0.342 0.498l0.277 2.566 0.485 1.179v0.14c0 0.068-0.068 0.14-0.205 0.208h-0.28c-0.114 0-0.326-0.049-0.622-0.14-0.176 0.091-0.358 0.14-0.557 0.14h-0.205c-0.163 0-0.348-0.094-0.557-0.28-0.176 0.14-0.313 0.208-0.417 0.208-0.049 0-0.186-0.094-0.417-0.28-0.104 0.231-0.339 0.348-0.694 0.348h-0.902c-0.068 0-0.14-0.068-0.208-0.208v-0.065c0.326-1.341 0.485-2.103 0.485-2.289-0.046-2.81-0.068-5.057-0.068-6.733 0-0.15-0.046-0.495-0.137-1.039 0.137-0.612 0.205-1.608 0.205-2.986 0-0.114-0.023-0.462-0.068-1.042 0.094-1.065 0.14-1.735 0.14-2.012-0.091-0.394-0.163-0.834-0.205-1.319 0.091-0.752 0.137-1.237 0.137-1.459 0-0.091-0.023-0.14-0.068-0.14l0.068-0.485v-1.804c0-0.534-0.023-1.019-0.068-1.459 0.049-0.244 0.068-0.681 0.068-1.319v-0.765c0-0.15-0.023-0.267-0.068-0.345l0.068-0.417v-1.042l-0.485-0.485v-0.068c0-0.068 0.094-0.163 0.28-0.277h1.667c0.15 0 0.313 0.068 0.485 0.208h0.068c0.143-0.117 0.329-0.212 0.547-0.28zM142.939 22.926v0.068l0.068 1.11c0 0.049-0.023 0.114-0.068 0.205 0 0.104 0.117 0.775 0.348 2.015v1.107c0 0.267-0.026 0.638-0.068 1.114l0.277 1.042h0.068l0.205-0.14h0.14c0.036 0 0.176 0.14 0.417 0.413h0.068c0-0.114 0.023-0.3 0.068-0.554 0-0.15-0.208-0.339-0.625-0.554-0.137-0.176-0.205-0.381-0.205-0.625v-1.179c0-0.811-0.208-2.152-0.625-4.024h-0.068zM143.15 15.15c0 0.104 0.023 0.199 0.068 0.277-0.049 0.394-0.068 0.694-0.068 0.902 0.091 0.218 0.231 1.4 0.417 3.539v0.557c0 0.101 0.091 0.339 0.277 0.694h0.068v-1.664c0-0.381 0.091-0.82 0.277-1.315 0-0.166-0.205-0.466-0.622-0.902l-0.208-1.39c0.049-0.081 0.068-0.173 0.068-0.277 0-0.189-0.094-0.326-0.277-0.42zM143.427 7.030v0.137h0.068v-0.137h-0.068zM143.427 8.485v0.345h0.068v-0.345h-0.068zM143.427 9.735v0.137h0.068v-0.137h-0.068zM143.495 10.224v0.068c0.231 1.4 0.394 2.556 0.485 3.471 0.068 0.127 0.163 0.589 0.277 1.387h0.14v-2.637l-0.762-1.595c0-0.3-0.026-0.531-0.068-0.694h-0.072zM144.052 3.627v0.625h0.068l0.068-0.348v-0.277h-0.137zM144.052 6.613v0.14h0.068v-0.14h-0.068zM144.052 7.098c0 1.667 0.114 2.501 0.345 2.501v-1.459c-0.14-0.625-0.208-0.974-0.208-1.042h-0.137zM145.022 18.621v0.694c-0.137 0.606-0.205 0.928-0.205 0.974v4.93c0 0.14 0.068 0.417 0.205 0.834h0.068c0.091 0 0.14-0.046 0.14-0.14v-0.208c0-0.163-0.026-0.371-0.068-0.625 0.231-0.368 0.368-0.667 0.417-0.902l-0.14-0.277-0.137 0.065-0.14-0.065 0.068-0.697v-0.277c0-0.495-0.068-1.263-0.208-2.289 0.091-0.127 0.208-0.752 0.345-1.875v-0.072l-0.068-0.345c-0.068 0-0.16 0.091-0.277 0.277zM144.954 4.184v0.417c0.14 0.508 0.303 1.364 0.485 2.569h0.14c0-1.989-0.14-2.986-0.417-2.986h-0.208zM145.302 8.625v1.042h0.068c0.14-0.036 0.208-0.218 0.208-0.554l-0.068-0.625h-0.068c-0.094 0.010-0.14 0.059-0.14 0.137zM145.368 17.439l-0.068 0.345v0.28h0.068c0.049-0.326 0.094-0.534 0.14-0.625h-0.14z"></path>
<path d="M149.275 2.585c0.14 0 0.326 0.046 0.557 0.137 0.326-0.091 0.58-0.137 0.762-0.137l0.902 0.137c0.303-0.091 0.508-0.137 0.622-0.137h1.319c0.15 0 0.475 0.046 0.974 0.137 0.14 0 0.326-0.046 0.557-0.137 0.228 0 0.345 0.023 0.345 0.068 0.996-0.046 1.732-0.068 2.221-0.068h4.513c0.417 0 0.625 0.485 0.625 1.459 0.228 1.573 0.345 2.592 0.345 3.054l-0.28 0.137c-0.355-0.046-0.729-0.208-1.11-0.485l-0.137 0.068h-0.557c-0.163 0-0.371-0.023-0.625-0.068-0.091 0.046-0.163 0.068-0.205 0.068-0.14 0-0.208-0.023-0.208-0.068-0.462 0.046-0.808 0.068-1.039 0.068h-2.224c-0.059 0-0.313-0.046-0.762-0.137h-0.485c-0.091 0-0.322 0.046-0.694 0.137-0.231-0.081-0.345-0.195-0.345-0.345 0.091-0.775 0.254-1.514 0.485-2.221-0.091-0.44-0.14-0.788-0.14-1.042v-0.068c-0.326-0.046-0.508-0.068-0.554-0.068l-0.068 0.137v0.902l-0.14 1.25c0.091 0.612 0.186 0.983 0.277 1.11 0 0.059-0.254 0.427-0.762 1.11v0.14c0 0.326 0.049 0.58 0.14 0.762-0.091 0.186-0.14 0.44-0.14 0.762v1.459c0 0.186 0.049 0.485 0.14 0.902-0.094 0.43-0.143 0.684-0.143 0.765 0 0.554 0.485 0.925 1.459 1.11 0.078 0 0.264-0.046 0.554-0.14l0.417 0.068c1.123 0 2.139-0.186 3.054-0.554h0.277c0.091 0.010 0.14 0.059 0.14 0.137v0.345c0 0.163 0.023 0.371 0.068 0.625-0.094 0.186-0.14 0.345-0.14 0.485 0.046 0.137 0.091 0.208 0.14 0.208l-0.068 0.485v2.224l0.068 0.482-0.208 0.14h-0.14c-0.934-0.368-1.468-0.557-1.595-0.557-0.326 0.049-0.508 0.068-0.554 0.068-0.081 0-0.407-0.068-0.974-0.205-0.173 0.088-0.358 0.137-0.557 0.137-0.046 0-0.114-0.023-0.205-0.068-0.186 0.046-0.345 0.068-0.485 0.068l-0.277-0.068c-0.15 0.088-0.29 0.137-0.417 0.137h-0.14l-0.205-0.137c0.059-1.794 0.15-2.908 0.277-3.334-0.036-0.277-0.176-0.417-0.417-0.417-0.091 0.15-0.14 0.267-0.14 0.345-0.046 1.423-0.068 2.348-0.068 2.777-0.094 0.313-0.14 0.521-0.14 0.638v0.068c0.358 0 0.567 0.091 0.622 0.277l-0.417 0.557c0.049 2.224 0.068 3.933 0.068 5.135v1.595c0 0.208 0.186 0.606 0.557 1.182l0.485-0.068h0.068c0.16 0 0.368 0.023 0.622 0.068l0.495-0.14c0.775 0.046 1.377 0.068 1.804 0.068h1.735c0.199 0 0.381 0.023 0.557 0.068 0.186-0.049 0.368-0.068 0.554-0.068h1.182c0.173 0 0.567-0.14 1.179-0.417h0.137c0.068 0 0.14 0.068 0.208 0.205-0.254 2.869-0.485 4.304-0.697 4.304-0.078 0.046-0.173 0.068-0.277 0.068h-2.152c-1.976 0-3.503 0.023-4.578 0.068-0.915-0.049-2.351-0.068-4.304-0.068h-0.834c-0.231 0-0.345-0.049-0.345-0.14-0.231 0.14-0.417 0.208-0.557 0.208h-0.205c-0.104 0-0.176-0.117-0.208-0.348 0.28-0.707 0.417-1.146 0.417-1.315 0-0.684-0.023-1.146-0.068-1.39 0.046-0.961 0.068-1.84 0.068-2.637v-1.869c0-0.68-0.023-1.146-0.068-1.387 0.046-0.488 0.068-1.019 0.068-1.595v-5.001c0-0.163-0.023-0.371-0.068-0.625 0.046-0.091 0.068-0.163 0.068-0.208l-0.068-0.834 0.068-0.97c0-0.358-0.023-0.681-0.068-0.97 0.046-1.54 0.068-2.882 0.068-4.028v-2.566l-0.068-0.345h0.068l-0.417-1.319v-0.072c0.091-0.186 0.228-0.28 0.413-0.28zM149.832 3.419v0.277l0.485 2.361h0.068c0.046-0.163 0.068-0.254 0.068-0.277 0-0.218-0.14-0.889-0.417-2.012 0-0.231-0.049-0.345-0.14-0.345h-0.065zM149.971 9.042l-0.14 0.277c0 1.088 0.14 1.849 0.417 2.292l-0.205 1.179 0.417 2.012v0.625c0.033 0.277 0.101 0.417 0.205 0.417 0-0.231 0.023-0.345 0.068-0.345-0.081-0.3-0.176-1.065-0.277-2.292v-1.875c0-0.117-0.117-0.58-0.348-1.387l0.068-0.345c0-0.348-0.068-0.534-0.205-0.557zM150.108 27.503c0 0.14-0.023 0.208-0.068 0.208 0.046 0.091 0.068 0.163 0.068 0.208h0.068v-0.417h-0.068zM150.388 6.473c0 0.023-0.026 0.117-0.068 0.277 0 0.205 0.186 0.993 0.557 2.361 0.277 1.377 0.417 2.51 0.417 3.399h-0.068l0.068 0.14v0.137c0 0.046-0.026 0.068-0.068 0.068 0.068 0.186 0.137 0.277 0.205 0.277 0-0.046 0.023-0.068 0.068-0.068 0-0.046-0.023-0.117-0.068-0.208 0.049-1.019 0.114-1.758 0.208-2.224-0.326 0-0.606-1.133-0.834-3.399-0.049 0-0.163-0.254-0.345-0.762h-0.072zM151.355 3.002l-0.068 0.137c0.137 0.625 0.205 1.065 0.205 1.319v0.762c0.013 0.091 0.059 0.137 0.14 0.137v-0.827c0-0.137 0.068-0.417 0.205-0.834-0.052-0.459-0.215-0.694-0.482-0.694zM151.635 26.328l-0.068 0.342v0.974h0.068c0-0.602 0.091-1.019 0.277-1.25l-0.14-0.068h-0.137zM152.189 28.060v0.072c0 0.254 0.026 0.58 0.068 0.97-0.046 0.081-0.068 0.176-0.068 0.28h0.14v-0.143c0-0.15 0.023-0.267 0.068-0.345-0.046-0.557-0.114-0.834-0.208-0.834zM152.4 14.317v0.485c0.091 0 0.137-0.046 0.137-0.137l-0.068-0.348h-0.068zM152.677 3.35v0.834c0.277 0.29 0.417 0.567 0.417 0.834 0.104 0 0.176-0.163 0.208-0.485l-0.068-0.834h0.068c-0.049-0.368-0.163-0.554-0.348-0.554-0.186 0.065-0.277 0.137-0.277 0.205zM154.064 26.742c0 0.026-0.049 0.371-0.14 1.042v0.417h0.14c0.186-0.697 0.277-1.087 0.277-1.179v-0.14c0-0.091-0.049-0.14-0.14-0.14h-0.137zM154.758 14.177c-0.186 0.091-0.277 0.856-0.277 2.292-0.091 0.010-0.14 0.059-0.14 0.137v0.208h0.14c0.228-0.602 0.345-0.925 0.345-0.97s-0.049-0.277-0.14-0.694c0.14-0.241 0.208-0.475 0.208-0.694v-0.14c0.003-0.091-0.042-0.14-0.137-0.14zM155.451 3.35c0 0.811-0.114 1.735-0.345 2.777l0.14 0.208c0.554-0.046 0.834-0.117 0.834-0.208 0.046-1.527 0.114-2.292 0.205-2.292-0.091-0.348-0.137-0.58-0.137-0.694h-0.557c-0.091 0-0.14 0.068-0.14 0.208zM155.246 28.549c0.046 0.091 0.068 0.163 0.068 0.208h0.137c0.104-0.049 0.29-0.371 0.557-0.974 0.231-0.059 0.345-0.127 0.345-0.208v-0.348c0-0.068-0.068-0.137-0.205-0.205-0.221 0-0.43 0.368-0.625 1.11-0.036 0-0.127 0.137-0.277 0.417zM155.451 16.052c0.127 0 0.29-0.254 0.485-0.762l-0.068-0.14v-0.485c0-0.117 0.049-0.326 0.14-0.625l-0.14-0.068h-0.068c-0.117 0-0.231 0.694-0.348 2.081zM156.080 16.192l-0.072 0.348v0.068c0.013 0.094 0.059 0.14 0.14 0.14 0-0.046 0.023-0.231 0.068-0.557h-0.137z"></path>
</svg>
