<!-- Generated by IcoMoon.io -->
<svg version="1.1" xmlns="http://www.w3.org/2000/svg" width="206" height="32" viewBox="0 0 206 32">
<title>timmerwerken</title>
<path d="M2.054 3.317h0.942c1.801 0.312 2.812 0.469 3.022 0.469 0.495-0.177 0.807-0.269 0.942-0.269h1.614c0.413 0 0.997-0.023 1.745-0.069 0.089 0.046 0.158 0.069 0.203 0.069l0.469-0.066c0.125 0 0.571 0.023 1.345 0.069 0.069 0 0.269-0.046 0.607-0.135l0.469 0.069c0.141-0.095 0.276-0.138 0.4-0.138 0.079 0 0.19 0.046 0.338 0.135 0.289-0.089 0.492-0.135 0.604-0.135h0.135c0.404 0 0.604 0.18 0.604 0.538 0 1.221 0.069 2.362 0.203 3.425v0.135c-0.092 0.177-0.226 0.269-0.404 0.269-0.394-0.315-0.728-0.472-1.011-0.472h-0.738c-0.069 0-0.427 0.046-1.076 0.135-0.279-0.089-0.459-0.135-0.535-0.135-0.896 0.112-1.345 0.223-1.345 0.338l0.069 0.269c-0.135 0-0.223 0.896-0.269 2.687l0.203 0.472c-0.092 0.312-0.138 0.561-0.138 0.735l0.069 0.404c-0.046 0.246-0.069 0.492-0.069 0.742 0 0.21 0.023 0.436 0.069 0.673-0.046 0.233-0.069 0.367-0.069 0.4 0.046 0.505 0.069 0.974 0.069 1.414 0 0.046-0.023 0.112-0.069 0.203 0.089 0.18 0.135 0.427 0.135 0.738 0 0.236-0.023 0.44-0.069 0.607 0.046 0.285 0.069 0.577 0.069 0.869v0.269c0 1.342-0.069 2.015-0.203 2.015l0.069 0.135v0.873c0 0.315 0.046 0.561 0.135 0.741l-0.135 0.469c0.089 0.223 0.135 0.377 0.135 0.469-0.046 0.594-0.066 1.086-0.066 1.48 0 0.089-0.023 0.135-0.069 0.135l0.069 0.335v0.876c0 0.194-0.023 0.436-0.069 0.741l0.135 0.338c-0.089 0.197-0.135 0.486-0.135 0.866v0.472c0 0.135 0.203 0.761 0.604 1.88-0.066 0.177-0.131 0.269-0.2 0.269h-3.963c-0.492 0-0.738-0.069-0.738-0.203v-0.2l0.404-1.276v-0.741c0-0.098 0.020-0.19 0.066-0.269-0.046-0.075-0.066-0.167-0.066-0.269v-0.2c0-0.4 0.020-0.669 0.066-0.804-0.046-0.39-0.066-0.728-0.066-1.011v-0.938c0-0.348 0.020-0.66 0.066-0.942-0.046-0.223-0.066-0.515-0.066-0.873v-0.2c0-0.148 0.020-0.259 0.066-0.338l-0.135-1.076c0.043-0.39 0.069-0.728 0.069-1.007v-0.135c0-0.259-0.023-0.617-0.069-1.076l0.135-0.338-0.066-0.604 0.066-0.942-0.135-0.804c0.043-0.233 0.069-0.459 0.069-0.669v-0.269l0.2-0.269c-0.18-0.226-0.269-0.361-0.269-0.404 0.043-0.85 0.089-1.276 0.135-1.276l-0.066-0.338v-2.756c0-0.158 0.020-0.358 0.066-0.607 0-1.299-0.358-1.949-1.076-1.949-0.335-0.085-0.65-0.131-0.942-0.131h-0.535c-0.18 0-0.472 0.046-0.873 0.135-0.292-0.089-0.584-0.135-0.876-0.135-0.558 0.046-0.85 0.069-0.873 0.069-0.089-0.144-0.135-0.256-0.135-0.335 0.223-1.401 0.338-2.343 0.338-2.822v-0.203c-0.003-0.246 0.131-0.446 0.4-0.604zM7.697 9.699l-0.2 0.269v0.135c0 0.036 0.046 0.213 0.135 0.538v0.069c-0.269 0.381-0.404 0.761-0.404 1.139 0.046 0.079 0.069 0.171 0.069 0.269 0.135 0 0.312-0.515 0.538-1.545v-0.738c-0.003-0.089-0.046-0.135-0.138-0.135zM7.228 12.724v0.404h0.135v-0.404h-0.135zM7.297 22.734c0 0.046-0.023 0.112-0.069 0.203 0.046 0.492 0.112 1.030 0.203 1.614-0.046 0.233-0.069 0.367-0.069 0.397 0.046 0.089 0.069 0.157 0.069 0.203 0.069 0 0.135-0.069 0.203-0.203v-1.342c0-0.167-0.089-0.459-0.269-0.876h-0.069zM7.297 13.465v0.335l0.203 0.269v0.269l0.069 0.673h0.069c0-0.036 0.020-0.171 0.066-0.404 0-0.256-0.112-0.637-0.335-1.142h-0.072zM7.497 15.345l-0.135 0.469c0.312 0.715 0.469 1.142 0.469 1.276v0.472c0.013 0.089 0.056 0.135 0.135 0.135l0.069-0.135v-0.135c0-0.305-0.157-0.906-0.469-1.814v-0.269h-0.069zM7.497 18.033c0 0.177-0.023 0.266-0.069 0.266l0.069 0.338-0.066 0.404c0.046 0.079 0.069 0.194 0.069 0.338h0.135c0.043-0.45 0.066-0.784 0.066-1.011v-0.335h-0.203zM7.901 27.84l-0.135 0.538c0.056 0.269 0.125 0.404 0.203 0.404l0.066-0.335v-0.472c0-0.089-0.046-0.135-0.135-0.135zM7.832 4.324v0.604c0 0.236 0.089 0.394 0.269 0.472 0.135-0.302 0.226-0.705 0.269-1.211l-0.2-0.135c-0.203 0.092-0.315 0.18-0.338 0.269zM7.901 28.985l-0.069 0.335v0.069c0.046 0 0.112 0.023 0.203 0.069l0.069-0.135-0.069-0.338h-0.135zM8.17 14.2v0.404c0.089 0.584 0.135 1.053 0.135 1.411h0.069v-0.4c-0.046-0.505-0.069-0.951-0.069-1.345l-0.135-0.069zM8.304 18.367l-0.069 0.469v0.876h0.069c0-0.079 0.023-0.479 0.069-1.211v-0.135h-0.069zM8.439 29.116v0.135h0.069v-0.135h-0.069zM8.573 24.883l-0.069 0.135v0.741h0.203l0.135-0.472c-0.092-0.269-0.18-0.404-0.269-0.404zM8.708 6.208v0.673h0.135v-0.807c-0.092 0.010-0.135 0.053-0.135 0.135zM8.708 8.288v0.876c0.010 0.089 0.056 0.131 0.135 0.131 0-0.043 0.023-0.066 0.069-0.066l-0.072-0.135v-0.807h-0.131zM8.708 10.102v0.673h0.069c0.030-0.358 0.075-0.538 0.131-0.538-0.046-0.075-0.069-0.167-0.069-0.269-0.089 0.013-0.131 0.059-0.131 0.135zM9.243 18.502v1.683l-0.066 0.666h0.135c0-0.279 0.158-0.974 0.472-2.083-0.272-0.108-0.407-0.243-0.407-0.4-0.089 0.013-0.135 0.056-0.135 0.135zM9.243 15.614v0.873h0.135c0.135-0.482 0.203-0.774 0.203-0.873v-0.472h-0.069c-0.177 0.069-0.269 0.226-0.269 0.472zM9.512 25.356v1.076l-0.269 2.618h0.135c0.18-0.528 0.269-1.49 0.269-2.887v-0.807h-0.135zM9.915 4.324c0.010 0.089 0.056 0.135 0.135 0.135v-0.135h-0.135zM10.388 6.208c0 0.046-0.023 0.112-0.069 0.203 0.046 0.085 0.069 0.154 0.069 0.2h0.807v-0.404h-0.807zM10.588 4.459v0.135h0.069v-0.135h-0.069zM11.261 4.459v0.469c0.010 0.089 0.056 0.135 0.135 0.135 0-0.108 0.023-0.289 0.069-0.535l-0.138-0.069h-0.066zM11.999 4.055c-0.043 1.178-0.066 2.047-0.066 2.622 0.135 0.046 0.2 0.089 0.2 0.135 0.223 0 0.338-0.696 0.338-2.083 0.046-0.246 0.069-0.45 0.069-0.607l-0.138-0.066h-0.404zM13.475 6.208v0.135h0.069v-0.135h-0.069zM14.013 4.728c-0.089 0.289-0.135 0.492-0.135 0.604v0.069c0.112 0 0.203-0.203 0.269-0.604l-0.135-0.069zM14.82 6.004l-0.335 0.472v0.203c0 0.098 0.203 0.167 0.607 0.203v-0.072c-0.059-0.538-0.148-0.807-0.272-0.807z"></path>
<path d="M18.968 3.183c0.528 0.043 0.909 0.066 1.142 0.066l0.472-0.066c0.203 0.089 0.315 0.18 0.338 0.269-0.358 0.472-0.561 0.919-0.607 1.345 0.089 0.4 0.135 0.623 0.135 0.669-0.046 0.817-0.069 1.332-0.069 1.549 0 0.033 0.023 0.21 0.069 0.535-0.089 0.18-0.135 0.427-0.135 0.741v0.069c0.089 0.65 0.135 1.007 0.135 1.073v1.614l-0.135 1.204c0.089 0.761 0.135 1.28 0.135 1.545 0 0.246-0.046 0.584-0.135 1.011 0 0.112 0.023 0.292 0.069 0.538l-0.069 0.6 0.069 1.076-0.069 0.607 0.135 0.404c0 0.046-0.023 0.108-0.069 0.2 0.046 0.463 0.069 0.82 0.069 1.076 0 0.223-0.046 0.492-0.135 0.807 0.089 0.312 0.135 0.581 0.135 0.804v0.673c-0.089 0.761-0.135 1.184-0.135 1.276v0.472c0.089 0.65 0.135 0.988 0.135 1.011 0 0.112-0.046 0.335-0.135 0.669 0.135 0.292 0.203 0.492 0.203 0.607v0.062c-0.226 0.269-0.338 0.427-0.338 0.472l0.269 2.487 0.472 1.142v0.131c0 0.069-0.069 0.135-0.203 0.203h-0.269c-0.112 0-0.315-0.046-0.604-0.135-0.167 0.089-0.348 0.135-0.538 0.135h-0.203c-0.157 0-0.335-0.089-0.538-0.269-0.167 0.135-0.302 0.2-0.4 0.2-0.046 0-0.18-0.089-0.404-0.269-0.098 0.223-0.325 0.338-0.673 0.338h-0.873c-0.069 0-0.135-0.069-0.203-0.203v-0.066c0.315-1.299 0.472-2.038 0.472-2.218-0.046-2.72-0.069-4.892-0.069-6.516 0-0.144-0.046-0.479-0.135-1.007 0.135-0.597 0.203-1.558 0.203-2.891 0-0.112-0.023-0.45-0.069-1.011 0.089-1.027 0.135-1.68 0.135-1.949-0.089-0.381-0.154-0.801-0.2-1.273 0.089-0.728 0.135-1.198 0.135-1.414 0-0.085-0.023-0.131-0.069-0.131l0.069-0.472v-1.745c0-0.515-0.023-0.988-0.069-1.414 0.046-0.233 0.069-0.659 0.069-1.276v-0.735c0-0.144-0.023-0.256-0.069-0.338l0.069-0.404v-1.007l-0.472-0.469v-0.069c0-0.069 0.089-0.158 0.269-0.269h1.611c0.144 0 0.302 0.069 0.472 0.203h0.069c0.144-0.112 0.325-0.203 0.535-0.269zM17.222 22.934v0.069l0.069 1.076c0 0.046-0.023 0.112-0.069 0.203 0 0.098 0.112 0.751 0.338 1.949v1.073c0 0.259-0.023 0.617-0.069 1.076l0.269 1.007h0.069l0.203-0.135h0.135c0.033 0 0.167 0.135 0.404 0.404h0.069c0-0.112 0.023-0.292 0.069-0.538 0-0.144-0.203-0.325-0.607-0.535-0.141-0.174-0.207-0.374-0.207-0.61v-1.139c0-0.784-0.2-2.087-0.604-3.898h-0.069zM17.426 15.411c0 0.098 0.023 0.19 0.069 0.269-0.049 0.381-0.069 0.669-0.069 0.873 0.089 0.213 0.223 1.355 0.4 3.429v0.535c0 0.102 0.089 0.328 0.269 0.673h0.069v-1.611c0-0.371 0.089-0.794 0.269-1.28 0-0.157-0.203-0.446-0.607-0.873l-0.2-1.345c0.043-0.075 0.069-0.164 0.069-0.266 0-0.177-0.092-0.312-0.269-0.404zM17.695 7.55v0.135h0.066v-0.135h-0.066zM17.695 8.961v0.335h0.066v-0.335h-0.066zM17.695 10.171v0.135h0.066v-0.135h-0.066zM17.76 10.64v0.069c0.223 1.355 0.381 2.474 0.472 3.357 0.069 0.125 0.157 0.574 0.269 1.345h0.135v-2.553l-0.741-1.545c0-0.292-0.023-0.515-0.069-0.673h-0.066zM18.298 4.259v0.607h0.069l0.066-0.338v-0.269h-0.135zM18.298 7.146v0.135h0.069v-0.135h-0.069zM18.298 7.615c0 1.614 0.112 2.418 0.338 2.418v-1.411c-0.138-0.604-0.203-0.938-0.203-1.007h-0.135zM19.237 18.771v0.673c-0.135 0.584-0.2 0.896-0.2 0.938v4.771c0 0.135 0.069 0.404 0.203 0.807h0.069c0.089 0 0.135-0.046 0.135-0.135v-0.2c0-0.157-0.023-0.358-0.069-0.607 0.223-0.354 0.358-0.646 0.404-0.873l-0.138-0.269-0.135 0.069-0.135-0.069 0.069-0.673v-0.269c0-0.479-0.069-1.221-0.203-2.218 0.089-0.121 0.203-0.728 0.338-1.814v-0.066l-0.069-0.335c-0.066 0-0.157 0.089-0.269 0.269zM19.171 4.797v0.4c0.135 0.492 0.292 1.322 0.472 2.487h0.135c0-1.926-0.135-2.887-0.404-2.887h-0.203zM19.506 9.095v1.007h0.069c0.135-0.033 0.203-0.21 0.203-0.538l-0.069-0.604h-0.069c-0.089 0.010-0.135 0.056-0.135 0.135zM19.575 17.629l-0.069 0.338v0.266h0.069c0.043-0.312 0.089-0.515 0.135-0.604h-0.135z"></path>
<path d="M23.151 3.248h1.611c0.302 0 0.571 0.023 0.807 0.069 0.236-0.046 0.505-0.069 0.807-0.069h1.276c0.335 0 0.627 0.492 0.873 1.48 0.102 0.023 0.413 0.738 0.942 2.149 0.203 0.637 0.627 1.598 1.276 2.887 0 0.171 0.135 0.574 0.404 1.211 0 0.21 0.112 0.459 0.335 0.738v0.269c0 0.059-0.112 0.171-0.335 0.338 0.089 0.171 0.135 0.345 0.135 0.538v1.342c0 0.18 0.069 0.561 0.203 1.145-0.138 0.167-0.203 0.322-0.203 0.469v0.535c0.18 0.741 0.338 1.637 0.472 2.687h0.069c0.046-0.561 0.069-0.896 0.069-1.007 0-1.145-0.112-1.906-0.338-2.284 0.135-0.282 0.203-0.505 0.203-0.673-0.141-1.198-0.253-1.982-0.341-2.349v-0.203c0-0.069 0.069-0.135 0.203-0.203 0.223 0.079 0.715 1.109 1.48 3.091 0.213 0 0.436-0.338 0.673-1.011 0.157-0.135 0.381-0.692 0.673-1.68 0.312-0.515 0.65-1.319 1.007-2.418 0.154-0.19 0.515-1.040 1.076-2.553 0.135-0.256 0.289-0.459 0.469-0.607 0-0.692 0.315-1.499 0.942-2.415 0.223-0.988 0.515-1.48 0.876-1.48h0.942c0.269 0 0.446 0.135 0.538 0.404l-0.069 0.269c0.046 0.246 0.069 0.427 0.069 0.538-0.069 0.246-0.157 0.669-0.269 1.276-0.079 0-0.144 0.292-0.203 0.876h0.135c0-0.315 0.2-0.472 0.604-0.472v-0.735l-0.069-0.404c0.056-0.069 0.102-0.289 0.135-0.669-0.18-0.269-0.269-0.492-0.269-0.673 0.112-0.269 0.315-0.404 0.607-0.404h0.069c0.367 0 0.66 0.023 0.873 0.069 0.279-0.046 0.594-0.069 0.942-0.069h0.269c0.069 0 0.135 0.069 0.203 0.203v0.135c-0.18 0.538-0.269 0.942-0.269 1.211v1.276c0 0.046-0.023 0.069-0.069 0.069 0.089 0.203 0.135 0.427 0.135 0.673 0 0.315-0.046 0.469-0.135 0.469l0.069 0.135v0.538c0 0.427-0.046 1.011-0.135 1.746 0.089 0.538 0.135 0.965 0.135 1.28v0.728c0 0.417 0.023 0.997 0.069 1.749 0 0.144-0.157 0.413-0.472 0.804 0.18 0.269 0.269 0.472 0.269 0.607l-0.069 0.404 0.203 0.538c-0.089 0.325-0.135 0.659-0.135 1.007l0.203 1.68-0.069 0.338v1.076c0 0.325-0.023 0.571-0.069 0.738 0.033 0.292 0.079 1.48 0.135 3.563-0.046 0.39-0.112 0.705-0.203 0.938 0.089 0.18 0.135 0.427 0.135 0.741v1.745c0 0.328-0.069 0.502-0.203 0.538h-0.135c-0.269-0.18-0.404-0.404-0.404-0.673v-1.076c0-0.292-0.046-0.607-0.135-0.942h-0.069v1.745c0 0.358 0.043 0.761 0.135 1.211-0.092 0.338-0.135 0.538-0.135 0.604 0.135 0.223 0.2 0.45 0.2 0.673v0.135c-0.046 0.18-0.269 0.269-0.673 0.269-0.561-0.046-0.85-0.069-0.873-0.069-0.089 0.046-0.157 0.069-0.203 0.069-0.135-0.046-0.203-0.089-0.203-0.135l-1.88 0.135c-0.089-0.115-0.135-0.203-0.135-0.269 0.371-0.548 0.571-1.063 0.607-1.545v-1.211c0.089-0.646 0.135-1.007 0.135-1.073v-1.079c-0.089-0.646-0.135-1.007-0.135-1.073v-5.309l-0.069-0.404c0.043-0.075 0.069-0.19 0.069-0.335v-1.142c0-0.18 0.043-0.472 0.135-0.873-0.079-0.282-0.144-0.889-0.2-1.818 0.056-0.617 0.121-1.132 0.2-1.545-0.046-0.089-0.069-0.158-0.069-0.203h-0.066c-0.338 0.148-0.584 0.617-0.742 1.414-0.269 0.469-0.715 1.545-1.345 3.222-0.358 0.233-0.538 0.705-0.538 1.411-0.167 0.171-0.459 0.774-0.873 1.818-0.089 0.056-0.269 0.548-0.538 1.476-0.157 0.538-0.581 0.807-1.276 0.807-0.312-0.135-0.538-0.203-0.673-0.203-0.292 0.089-0.492 0.135-0.604 0.135-0.413 0-0.705-0.223-0.876-0.673-0.174-0.722-0.892-2.559-2.146-5.506-0.807-1.68-1.234-2.799-1.276-3.36-0.056 0-0.21-0.246-0.469-0.742-0.135 0.174-0.203 0.374-0.203 0.607v6.247c0 0.358 0.023 0.784 0.069 1.28-0.046 0.092-0.069 0.157-0.069 0.2 0.089 0.381 0.135 0.627 0.135 0.741 0 0.046-0.023 0.112-0.069 0.203l0.069 0.404c0 0.135-0.046 0.315-0.135 0.538 0.089 0.594 0.135 1.486 0.135 2.684v1.145c0 0.381-0.046 0.673-0.135 0.873 0.089 0.282 0.135 0.463 0.135 0.538l-0.066 0.466c0 0.705 0.18 1.332 0.538 1.88v0.069c0 0.135-0.089 0.203-0.269 0.203-0.246 0-0.492-0.023-0.741-0.069-0.312 0.046-0.581 0.069-0.804 0.069-0.144 0-0.259-0.023-0.338-0.069-0.302 0.046-0.548 0.069-0.738 0.069h-1.949c-0.069 0-0.135-0.069-0.203-0.203v-0.066c0.269-0.863 0.404-1.332 0.404-1.411v-1.949c0-0.18 0.023-0.269 0.069-0.269l-0.066-0.469v-6.519c0-0.338 0.023-0.584 0.069-0.741-0.046-0.289-0.069-0.577-0.069-0.869v-8.268c0.089-0.646 0.135-1.007 0.135-1.073v-2.553c0-1.299-0.135-1.949-0.404-1.949-0.092-0.112-0.135-0.2-0.135-0.269 0.066-0.177 0.135-0.269 0.2-0.269zM25.504 3.921v1.207c0.010 0.092 0.056 0.135 0.135 0.135v-1.342h-0.135zM25.504 18.367v0.135h0.069v-0.135h-0.069zM25.504 18.836v1.68c0.010 0.089 0.056 0.135 0.135 0.135v-1.814h-0.135zM30.14 14.335v0.472h0.066c0-0.036 0.023-0.167 0.069-0.404l-0.135-0.069zM30.274 12.79v0.135h0.069v-0.135h-0.069zM30.274 13.127v0.203h0.069v-0.203h-0.069zM31.751 19.174v0.203h0.069v-0.203h-0.069zM32.423 21.593v0.069c0.046 0.135 0.18 0.203 0.404 0.203l0.069-0.135v-0.069c0-0.089-0.046-0.135-0.135-0.135l-0.338 0.066zM32.692 20.047c0.089 0.413 0.135 0.66 0.135 0.738 0.089 0 0.135-0.046 0.135-0.135v-0.738h-0.135c-0.089 0.010-0.135 0.056-0.135 0.135zM35.245 12.455v0.269c0.089 0.112 0.135 0.203 0.135 0.269h0.069v-0.203l-0.069-0.338h-0.135zM35.379 13.262v0.338c0.236 2.195 0.502 3.291 0.807 3.291 0-0.089 0.069-0.246 0.203-0.472-0.348-0.479-0.663-1.536-0.942-3.156h-0.069zM36.79 8.895c0 0.046-0.023 0.112-0.066 0.203h0.135v-0.203h-0.069zM37.732 8.491c-0.18 0.345-0.269 0.571-0.269 0.673v0.669h0.069c0.177-0.614 0.269-0.974 0.269-1.073v-0.269h-0.069zM37.801 7.684v0.538h0.066l0.069-0.338v-0.066c-0.003-0.092-0.049-0.135-0.135-0.135zM38.539 8.76c-0.315 1.073-0.472 1.745-0.472 2.015l0.135 0.069c0-0.102 0.023-0.194 0.069-0.269-0.046-0.075-0.069-0.171-0.069-0.269v-0.069c0.358-0.413 0.538-0.84 0.538-1.276-0.046-0.089-0.069-0.158-0.069-0.203h-0.131zM38.067 11.782v0.135h0.135v-0.269c-0.089 0.013-0.135 0.056-0.135 0.135zM38.539 6.88v0.4h0.069v-0.4h-0.069zM40.15 20.716l0.135 0.069v-0.203c-0.092 0.013-0.135 0.059-0.135 0.135zM40.823 18.098c0 0.246 0.203 0.561 0.604 0.942l0.069-0.673c-0.18-0.203-0.269-0.469-0.269-0.804-0.269 0.089-0.404 0.269-0.404 0.535zM40.957 14.942v0.538c0.102 0 0.167-0.112 0.2-0.338-0.046-0.089-0.066-0.158-0.066-0.203h-0.135zM41.899 3.855v2.015c0.089 0 0.135-0.046 0.135-0.135v-1.88h-0.135zM41.965 6.342l-0.066 0.335v0.338h0.135l0.069-0.607-0.138-0.066zM41.899 7.415v0.404h0.135v-0.404h-0.135zM42.772 28.378h0.069c0.112 0 0.338 0.427 0.673 1.276v0.269c0 0.069-0.069 0.135-0.2 0.203h-0.472c-0.046 0-0.157-0.112-0.338-0.338 0.043-0.938 0.135-1.411 0.269-1.411z"></path>
<path d="M45.459 3.248h1.611c0.302 0 0.571 0.023 0.807 0.069 0.233-0.046 0.502-0.069 0.807-0.069h1.276c0.335 0 0.627 0.492 0.873 1.48 0.102 0.023 0.413 0.738 0.942 2.149 0.203 0.637 0.627 1.598 1.276 2.887 0 0.171 0.135 0.574 0.404 1.211 0 0.21 0.112 0.459 0.335 0.738v0.269c0 0.059-0.112 0.171-0.335 0.338 0.089 0.171 0.135 0.345 0.135 0.538v1.342c0 0.18 0.069 0.561 0.203 1.145-0.135 0.167-0.203 0.325-0.203 0.472v0.535c0.18 0.741 0.338 1.637 0.472 2.687h0.069c0.046-0.561 0.069-0.896 0.069-1.007 0-1.145-0.112-1.906-0.338-2.284 0.135-0.282 0.203-0.505 0.203-0.673-0.135-1.198-0.246-1.982-0.338-2.353v-0.203c0-0.069 0.069-0.135 0.203-0.203 0.223 0.079 0.715 1.109 1.48 3.091 0.213 0 0.436-0.338 0.673-1.011 0.157-0.135 0.381-0.692 0.673-1.68 0.312-0.515 0.65-1.319 1.007-2.418 0.154-0.19 0.515-1.040 1.076-2.553 0.135-0.256 0.289-0.459 0.469-0.607 0-0.692 0.315-1.499 0.942-2.415 0.223-0.988 0.515-1.48 0.876-1.48h0.942c0.269 0 0.446 0.135 0.538 0.404l-0.069 0.269c0.046 0.246 0.069 0.427 0.069 0.538-0.069 0.246-0.157 0.669-0.269 1.276-0.079 0-0.144 0.292-0.203 0.876h0.135c0-0.315 0.2-0.472 0.604-0.472v-0.735l-0.069-0.404c0.056-0.069 0.102-0.289 0.135-0.669-0.18-0.269-0.269-0.492-0.269-0.673 0.112-0.269 0.315-0.404 0.607-0.404h0.069c0.367 0 0.66 0.023 0.873 0.069 0.279-0.046 0.594-0.069 0.942-0.069h0.269c0.069 0 0.135 0.069 0.203 0.203v0.135c-0.18 0.538-0.269 0.942-0.269 1.211v1.276c0 0.046-0.023 0.069-0.069 0.069 0.089 0.203 0.135 0.427 0.135 0.673 0 0.315-0.046 0.469-0.135 0.469l0.069 0.135v0.538c0 0.427-0.046 1.011-0.135 1.746 0.089 0.538 0.135 0.965 0.135 1.28v0.728c0 0.417 0.023 0.997 0.069 1.749 0 0.144-0.157 0.413-0.472 0.804 0.18 0.269 0.269 0.472 0.269 0.607l-0.069 0.404 0.203 0.538c-0.089 0.325-0.135 0.659-0.135 1.007l0.203 1.68-0.069 0.338v1.076c0 0.325-0.023 0.571-0.069 0.738 0.033 0.292 0.079 1.48 0.135 3.563-0.046 0.39-0.112 0.705-0.203 0.938 0.089 0.18 0.135 0.427 0.135 0.741v1.745c0 0.328-0.069 0.502-0.203 0.538h-0.135c-0.269-0.18-0.404-0.404-0.404-0.673v-1.076c0-0.292-0.046-0.607-0.135-0.942h-0.075v1.745c0 0.358 0.043 0.761 0.135 1.211-0.092 0.338-0.135 0.538-0.135 0.604 0.135 0.223 0.2 0.45 0.2 0.673v0.135c-0.046 0.18-0.269 0.269-0.673 0.269-0.561-0.046-0.85-0.069-0.873-0.069-0.089 0.046-0.157 0.069-0.203 0.069-0.135-0.046-0.203-0.089-0.203-0.135l-1.88 0.135c-0.085-0.115-0.131-0.203-0.131-0.269 0.371-0.548 0.571-1.063 0.607-1.545v-1.211c0.089-0.646 0.135-1.007 0.135-1.073v-1.079c-0.089-0.646-0.135-1.007-0.135-1.073v-5.309l-0.069-0.404c0.043-0.075 0.069-0.19 0.069-0.335v-1.142c0-0.18 0.043-0.472 0.135-0.873-0.079-0.282-0.144-0.889-0.2-1.818 0.056-0.617 0.121-1.132 0.2-1.545-0.046-0.089-0.069-0.158-0.069-0.203h-0.066c-0.338 0.148-0.584 0.617-0.742 1.414-0.269 0.469-0.715 1.545-1.345 3.222-0.358 0.233-0.538 0.705-0.538 1.411-0.167 0.171-0.459 0.774-0.873 1.818-0.089 0.056-0.269 0.548-0.538 1.476-0.157 0.538-0.581 0.807-1.276 0.807-0.312-0.135-0.538-0.203-0.673-0.203-0.292 0.089-0.492 0.135-0.604 0.135-0.413 0-0.705-0.223-0.876-0.673-0.18-0.728-0.896-2.563-2.149-5.512-0.807-1.68-1.23-2.799-1.276-3.357-0.056 0-0.21-0.246-0.469-0.742-0.135 0.171-0.203 0.371-0.203 0.607v6.247c0 0.358 0.023 0.784 0.069 1.28-0.046 0.089-0.069 0.157-0.069 0.2 0.089 0.381 0.135 0.627 0.135 0.741 0 0.046-0.023 0.112-0.069 0.203l0.069 0.404c0 0.135-0.046 0.315-0.135 0.538 0.089 0.594 0.135 1.486 0.135 2.684v1.145c0 0.381-0.046 0.673-0.135 0.873 0.089 0.282 0.135 0.463 0.135 0.538l-0.069 0.472c0 0.705 0.18 1.332 0.538 1.88v0.066c0 0.135-0.089 0.203-0.269 0.203-0.246 0-0.492-0.023-0.742-0.069-0.312 0.046-0.581 0.069-0.807 0.069-0.144 0-0.259-0.023-0.338-0.069-0.302 0.046-0.548 0.069-0.738 0.069h-1.949c-0.069 0-0.135-0.069-0.203-0.203v-0.066c0.269-0.863 0.404-1.332 0.404-1.411v-1.949c0-0.18 0.023-0.269 0.069-0.269l-0.069-0.472v-6.516c0-0.338 0.023-0.584 0.069-0.741-0.046-0.292-0.069-0.581-0.069-0.873v-8.268c0.089-0.646 0.135-1.007 0.135-1.073v-2.549c0-1.299-0.135-1.949-0.404-1.949-0.089-0.112-0.135-0.203-0.135-0.269 0.079-0.177 0.144-0.269 0.213-0.269zM47.811 3.921v1.207c0.010 0.089 0.056 0.135 0.135 0.135v-1.342h-0.135zM47.811 18.367v0.135h0.069v-0.135h-0.069zM47.811 18.836v1.68c0.010 0.089 0.056 0.135 0.135 0.135v-1.814h-0.135zM52.447 14.335v0.472h0.066c0-0.036 0.023-0.167 0.069-0.404l-0.135-0.069zM52.579 12.79v0.135h0.069v-0.135h-0.069zM52.579 13.127v0.203h0.069v-0.203h-0.069zM54.058 19.174v0.203h0.069v-0.203h-0.069zM54.731 21.593v0.069c0.046 0.135 0.18 0.203 0.404 0.203l0.069-0.135v-0.069c0-0.089-0.046-0.135-0.135-0.135l-0.338 0.066zM55 20.047c0.089 0.413 0.135 0.66 0.135 0.738 0.089 0 0.135-0.046 0.135-0.135v-0.738h-0.135c-0.092 0.010-0.135 0.056-0.135 0.135zM57.553 12.455v0.269c0.089 0.112 0.135 0.203 0.135 0.269h0.069v-0.203l-0.069-0.338h-0.135zM57.687 13.262v0.338c0.236 2.195 0.502 3.291 0.807 3.291 0-0.089 0.069-0.246 0.203-0.472-0.348-0.479-0.663-1.536-0.942-3.156h-0.069zM59.098 8.895c0 0.046-0.023 0.112-0.066 0.203h0.135v-0.203h-0.069zM60.040 8.491c-0.18 0.345-0.269 0.571-0.269 0.673v0.669h0.069c0.177-0.614 0.266-0.974 0.266-1.073v-0.269h-0.066zM60.105 7.684v0.538h0.066l0.069-0.338v-0.066c0-0.092-0.046-0.135-0.135-0.135zM60.844 8.76c-0.315 1.073-0.472 1.745-0.472 2.015l0.135 0.069c0-0.102 0.023-0.194 0.069-0.269-0.046-0.075-0.069-0.171-0.069-0.269v-0.069c0.358-0.413 0.538-0.84 0.538-1.276-0.046-0.089-0.069-0.158-0.069-0.203h-0.131zM60.374 11.782v0.135h0.135v-0.269c-0.089 0.013-0.135 0.056-0.135 0.135zM60.844 6.88v0.4h0.069v-0.4h-0.069zM62.458 20.716l0.135 0.069v-0.203c-0.092 0.013-0.135 0.059-0.135 0.135zM63.131 18.098c0 0.246 0.203 0.561 0.604 0.942l0.069-0.673c-0.18-0.203-0.269-0.469-0.269-0.804-0.269 0.089-0.404 0.269-0.404 0.535zM63.265 14.942v0.538c0.102 0 0.167-0.112 0.2-0.338-0.046-0.089-0.066-0.158-0.066-0.203h-0.135zM64.203 3.855v2.015c0.089 0 0.135-0.046 0.135-0.135v-1.88h-0.135zM64.272 6.342l-0.069 0.338v0.338h0.135l0.069-0.607-0.135-0.069zM64.203 7.415v0.404h0.135v-0.404h-0.135zM65.076 28.378h0.069c0.112 0 0.338 0.427 0.673 1.276v0.269c0 0.069-0.069 0.135-0.2 0.203h-0.472c-0.046 0-0.157-0.112-0.338-0.338 0.046-0.938 0.135-1.411 0.269-1.411z"></path>
<path d="M67.967 3.248c0.135 0 0.312 0.046 0.538 0.135 0.315-0.089 0.561-0.135 0.742-0.135l0.873 0.135c0.289-0.089 0.492-0.135 0.604-0.135h1.276c0.144 0 0.459 0.046 0.942 0.135 0.135 0 0.315-0.046 0.538-0.135 0.223 0 0.335 0.023 0.335 0.069 0.961-0.046 1.68-0.069 2.149-0.069h4.367c0.404 0 0.607 0.472 0.607 1.414 0.223 1.522 0.338 2.51 0.338 2.953l-0.269 0.135c-0.348-0.046-0.705-0.203-1.076-0.472l-0.135 0.069h-0.538c-0.157 0-0.358-0.023-0.604-0.069-0.089 0.046-0.157 0.069-0.203 0.069-0.135 0-0.203-0.023-0.203-0.069-0.446 0.046-0.784 0.069-1.007 0.069h-2.149c-0.056 0-0.302-0.046-0.738-0.135h-0.472c-0.089 0-0.312 0.046-0.673 0.135-0.223-0.075-0.338-0.19-0.338-0.335 0.089-0.751 0.246-1.467 0.472-2.149-0.089-0.427-0.135-0.761-0.135-1.011v-0.066c-0.315-0.046-0.492-0.069-0.538-0.069l-0.069 0.135v0.876l-0.131 1.211c0.089 0.594 0.177 0.952 0.269 1.076 0 0.056-0.246 0.413-0.738 1.073v0.135c0 0.315 0.046 0.561 0.135 0.742-0.089 0.18-0.135 0.427-0.135 0.738v1.414c0 0.18 0.046 0.469 0.135 0.873-0.089 0.417-0.135 0.663-0.135 0.742 0 0.538 0.472 0.896 1.411 1.073 0.079 0 0.256-0.043 0.538-0.131l0.404 0.066c1.086 0 2.070-0.177 2.956-0.535h0.269c0.089 0.010 0.135 0.056 0.135 0.135v0.338c0 0.154 0.023 0.354 0.069 0.604-0.089 0.18-0.135 0.338-0.135 0.472 0.046 0.135 0.089 0.203 0.135 0.203l-0.069 0.472v2.149l0.069 0.472-0.203 0.131h-0.135c-0.906-0.354-1.424-0.535-1.545-0.535-0.312 0.046-0.492 0.069-0.538 0.069-0.079 0-0.394-0.069-0.942-0.203-0.167 0.089-0.348 0.135-0.538 0.135-0.046 0-0.112-0.023-0.2-0.069-0.18 0.046-0.338 0.069-0.472 0.069l-0.269-0.082c-0.144 0.089-0.279 0.135-0.404 0.135h-0.135l-0.203-0.135c0.056-1.736 0.144-2.809 0.269-3.225-0.033-0.269-0.167-0.404-0.404-0.404-0.089 0.148-0.135 0.259-0.135 0.338-0.046 1.378-0.069 2.274-0.069 2.687-0.089 0.292-0.135 0.492-0.135 0.607v0.069c0.348 0 0.548 0.089 0.607 0.269l-0.404 0.535c0.046 2.149 0.069 3.809 0.069 4.974v1.545c0 0.203 0.18 0.584 0.538 1.145l0.469-0.069h0.069c0.157 0 0.358 0.023 0.607 0.069l0.469-0.135c0.751 0.046 1.332 0.069 1.746 0.069h1.68c0.19 0 0.371 0.023 0.538 0.069 0.18-0.046 0.358-0.069 0.538-0.069h1.142c0.167 0 0.548-0.135 1.142-0.404h0.135c0.069 0 0.135 0.069 0.203 0.203-0.246 2.779-0.472 4.167-0.673 4.167-0.079 0.046-0.167 0.069-0.269 0.069h-2.083c-1.913 0-3.393 0.023-4.436 0.069-0.886-0.046-2.274-0.069-4.167-0.069h-0.807c-0.223 0-0.338-0.046-0.338-0.135-0.223 0.135-0.404 0.203-0.538 0.203h-0.203c-0.102 0-0.167-0.112-0.203-0.338 0.269-0.682 0.404-1.109 0.404-1.276 0-0.66-0.023-1.109-0.069-1.345 0.046-0.929 0.069-1.778 0.069-2.549v-1.834c0-0.66-0.023-1.109-0.069-1.342 0.046-0.472 0.069-0.988 0.069-1.545v-4.836c0-0.158-0.023-0.358-0.069-0.607 0.046-0.089 0.069-0.158 0.069-0.203l-0.069-0.804 0.069-0.942c0-0.345-0.023-0.659-0.069-0.942 0.046-1.486 0.069-2.789 0.069-3.898v-2.484l-0.069-0.335h0.069l-0.404-1.28v-0.066c0.102-0.177 0.236-0.269 0.413-0.269zM68.505 4.055v0.269l0.472 2.284h0.069c0.046-0.157 0.069-0.246 0.069-0.269 0-0.213-0.135-0.863-0.404-1.949 0-0.223-0.046-0.338-0.135-0.338h-0.072zM68.639 9.499l-0.135 0.269c0 1.053 0.135 1.791 0.404 2.218l-0.203 1.142 0.404 1.949v0.607c0.033 0.266 0.102 0.4 0.2 0.4 0-0.22 0.023-0.335 0.069-0.335-0.079-0.292-0.167-1.030-0.269-2.218v-1.818c0-0.112-0.112-0.558-0.338-1.342l0.069-0.338c0-0.335-0.066-0.515-0.2-0.535zM68.774 27.37c0 0.135-0.023 0.203-0.069 0.203 0.046 0.089 0.069 0.157 0.069 0.203h0.069v-0.407h-0.069zM69.043 7.015c0 0.023-0.023 0.112-0.069 0.266 0 0.203 0.18 0.965 0.538 2.284 0.269 1.332 0.404 2.431 0.404 3.294h-0.069l0.069 0.135v0.135c0 0.046-0.023 0.069-0.069 0.069 0.069 0.18 0.135 0.269 0.203 0.269 0-0.046 0.023-0.069 0.069-0.069 0-0.046-0.023-0.112-0.069-0.203 0.046-0.988 0.112-1.703 0.203-2.149-0.315 0-0.584-1.099-0.807-3.294-0.046 0-0.157-0.246-0.335-0.738h-0.069zM69.985 3.652l-0.069 0.135c0.135 0.607 0.203 1.030 0.203 1.276v0.742c0.010 0.089 0.056 0.135 0.135 0.135v-0.81c0-0.135 0.069-0.4 0.2-0.804-0.056-0.446-0.213-0.673-0.469-0.673zM70.254 26.229l-0.069 0.338v0.938h0.069c0-0.581 0.089-0.984 0.269-1.207l-0.135-0.069h-0.135zM70.788 27.909v0.069c0 0.246 0.023 0.561 0.069 0.942-0.046 0.075-0.069 0.167-0.069 0.266h0.135v-0.135c0-0.144 0.023-0.256 0.069-0.335-0.046-0.538-0.112-0.807-0.203-0.807zM70.992 14.604v0.472c0.089 0 0.135-0.046 0.135-0.135l-0.069-0.338h-0.066zM71.261 3.99v0.807c0.269 0.279 0.404 0.548 0.404 0.804 0.102 0 0.167-0.157 0.203-0.472l-0.069-0.804h0.069c-0.046-0.358-0.157-0.538-0.338-0.538-0.18 0.069-0.269 0.135-0.269 0.203zM72.603 26.632c0 0.023-0.046 0.354-0.135 1.007v0.404h0.135c0.18-0.673 0.269-1.053 0.269-1.145v-0.131c0-0.089-0.046-0.135-0.135-0.135h-0.135zM73.275 14.469c-0.18 0.089-0.269 0.83-0.269 2.218-0.089 0.013-0.135 0.059-0.135 0.135v0.203h0.135c0.223-0.584 0.338-0.896 0.338-0.942s-0.046-0.269-0.135-0.673c0.135-0.236 0.203-0.463 0.203-0.673v-0.135c-0.003-0.089-0.049-0.135-0.138-0.135zM73.948 3.99c0 0.784-0.112 1.68-0.335 2.687l0.135 0.203c0.538-0.046 0.807-0.112 0.807-0.203 0.046-1.48 0.112-2.218 0.203-2.218-0.089-0.338-0.135-0.561-0.135-0.673h-0.538c-0.095 0-0.138 0.069-0.138 0.203zM73.745 28.378c0.046 0.089 0.069 0.157 0.069 0.203h0.135c0.102-0.046 0.279-0.358 0.538-0.942 0.223-0.056 0.335-0.121 0.335-0.203v-0.335c0-0.069-0.066-0.135-0.2-0.203-0.213 0-0.413 0.358-0.607 1.076-0.033 0-0.121 0.135-0.269 0.404zM73.948 16.284c0.125 0 0.279-0.246 0.472-0.738l-0.069-0.135v-0.469c0-0.112 0.046-0.315 0.135-0.607l-0.135-0.069h-0.069c-0.112 0.003-0.223 0.676-0.335 2.018zM74.552 16.418l-0.069 0.338v0.069c0.010 0.089 0.056 0.135 0.135 0.135 0-0.046 0.023-0.223 0.069-0.538h-0.135z"></path>
<path d="M83.302 3.248l0.338 0.069h2.218c0.21 0 0.571 0.046 1.076 0.135l0.669-0.135c0.079 0 0.259 0.046 0.538 0.135l1.814-0.135c0.079 0.046 0.279 0.089 0.604 0.135 0.079 0 0.259-0.046 0.538-0.135 0.033 0 0.167 0.023 0.404 0.069l0.807-0.069c0.289 0.089 0.492 0.135 0.604 0.135h0.135c0.84-0.135 1.289-0.203 1.345-0.203 0.289 0 0.604 0.223 0.942 0.673 0.85 0.45 1.276 0.942 1.276 1.476 0.046 0 0.069 0.023 0.069 0.069s-0.026 0.112-0.072 0.203c0.046 0.584 0.069 1.053 0.069 1.414v0.066c0 0.157-0.023 0.358-0.069 0.607 0.089 0.282 0.135 0.463 0.135 0.538-0.089 0.315-0.135 0.584-0.135 0.807 0.177 0.436 0.269 0.728 0.269 0.873v1.145l-0.269 1.68c0 0.256 0.023 0.617 0.069 1.073-0.089 0.45-0.135 0.853-0.135 1.211 0.18 0.413 0.269 0.659 0.269 0.742v0.804c-0.125 0.83-0.236 1.299-0.338 1.414-0.089 0-0.492 0.4-1.211 1.207-0.269 0.121-0.404 0.345-0.404 0.673 0.089 0.692 0.246 1.253 0.472 1.68l0.669 2.677c0 0.692 0.269 1.657 0.807 2.887 0 1.011 0.269 1.726 0.807 2.149 0.135 0 0.246 0.203 0.338 0.607-0.144 0.135-0.259 0.203-0.338 0.203-0.482-0.089-0.797-0.135-0.942-0.135h-0.338c-0.381 0-0.85 0.046-1.411 0.135-0.39-0.046-0.637-0.069-0.738-0.069-0.033 0-0.167 0.023-0.404 0.069-0.18-0.046-0.335-0.069-0.469-0.069l-0.472 0.069c-0.223-0.075-0.338-0.19-0.338-0.338 0.135-0.223 0.203-0.404 0.203-0.538v-0.135c-0.18-1.027-0.446-2.149-0.807-3.357 0-0.19-0.112-0.637-0.338-1.342 0-0.148-0.112-0.574-0.335-1.28-0.046-0.404-0.269-1.207-0.673-2.418 0-0.413-0.381-0.771-1.142-1.073l-0.331 0.066-0.942-0.069c0 0.056-0.223 0.302-0.673 0.738v2.018c0 0.974-0.023 2.293-0.069 3.963 0.046 0.246 0.069 0.45 0.069 0.604l-0.069 0.338c0.046 0.348 0.069 0.732 0.069 1.145v0.062c0 0.075 0.157 0.502 0.472 1.276v0.069c0 0.069-0.069 0.135-0.203 0.203h-2.887c-0.256 0-0.617 0.023-1.076 0.069-0.089-0.046-0.157-0.069-0.2-0.069-0.079 0.046-0.19 0.069-0.338 0.069-0.223-0.138-0.335-0.272-0.335-0.407 0.404-0.637 0.607-1.132 0.607-1.476v-1.411c0-0.732-0.023-1.266-0.069-1.614 0.046-0.345 0.069-0.886 0.069-1.611v-1.145c0-0.098-0.023-0.19-0.069-0.266 0.046-0.079 0.069-0.171 0.069-0.269v-0.135c0-0.259-0.023-0.413-0.069-0.472 0.046-0.246 0.069-0.45 0.069-0.607v-0.6c0-0.194-0.023-0.371-0.069-0.538 0-0.046 0.023-0.112 0.069-0.203-0.046-0.719-0.069-1.145-0.069-1.28 0-0.108 0.023-0.692 0.069-1.745l-0.069-0.335c0.046-0.075 0.069-0.167 0.069-0.266l-0.069-0.338 0.069-0.135c-0.046-0.089-0.069-0.158-0.069-0.203l0.069-0.404c0-0.135-0.023-0.292-0.069-0.472 0.046-0.705 0.069-1.221 0.069-1.545 0-0.381-0.023-1.053-0.069-2.015 0.033-0.358 0.079-0.538 0.135-0.538l-0.069-0.338v-0.935c0-0.246-0.023-0.561-0.069-0.942 0.046-0.089 0.069-0.157 0.069-0.203s-0.023-0.069-0.069-0.069l0.069-0.669v-2.549c0-0.089-0.135-0.358-0.404-0.807v-0.069l0.203-0.269zM85.251 14.538v0.135c0 0.059-0.046 0.302-0.135 0.742 0.023 0.45 0.089 0.669 0.203 0.669v-1.076l0.135-0.203v-0.131c0-0.089-0.046-0.135-0.135-0.135h-0.069zM85.251 21.727c0 0.098-0.023 0.19-0.069 0.269 0.046 0.45 0.112 0.669 0.203 0.669h0.069v-0.066c0-0.154 0.023-0.354 0.069-0.604-0.046-0.079-0.069-0.171-0.069-0.269h-0.203zM86.058 18.502v0.2h0.135v-0.335c-0.092 0.013-0.135 0.056-0.135 0.135zM86.193 7.819c0 0.157-0.023 0.358-0.069 0.607 0.046 0.075 0.069 0.167 0.069 0.269 0.056 0 0.167-0.112 0.338-0.338-0.003-0.246-0.115-0.427-0.338-0.538zM86.259 13.059l-0.135 0.804c0.046 0.236 0.069 0.463 0.069 0.673v0.269h0.135l0.135-0.338-0.203-0.331v-0.469c0-0.112 0.046-0.315 0.135-0.607h-0.135zM86.124 20.313l0.135 0.673h0.069v-0.538c0-0.089-0.046-0.135-0.135-0.135h-0.069zM86.193 4.393l0.066 0.135v0.738h0.135l0.069-0.338v-0.066c0-0.046-0.046-0.223-0.135-0.538l-0.135 0.069zM86.259 16.888c0.056 0 0.167-0.112 0.338-0.338l-0.135-0.069c-0.092 0.003-0.157 0.138-0.203 0.407zM86.259 17.091v0.203h0.069v-0.203h-0.069zM86.462 19.174c0 0.18-0.023 0.269-0.069 0.269 0.046 0.069 0.069 0.203 0.069 0.404h0.135l0.069-0.607-0.135-0.069h-0.069zM86.528 15.614v0.135c0.010 0.089 0.056 0.131 0.135 0.131 0.089-0.144 0.135-0.256 0.135-0.335l-0.135-0.069c-0.089 0.013-0.135 0.056-0.135 0.138zM86.528 21.323v0.069c0.135 0.203 0.203 0.338 0.203 0.404h0.135v-0.338c0-0.089-0.046-0.135-0.135-0.135h-0.203zM86.528 25.221v0.338h0.069v-0.338h-0.069zM86.597 18.164l0.404 0.673v-0.335c0-0.233-0.066-0.367-0.2-0.404-0.092 0.043-0.161 0.066-0.203 0.066zM86.662 22.531v0.069h0.069c0.089 0 0.135-0.043 0.135-0.135v-0.066h-0.069c-0.089 0.010-0.135 0.056-0.135 0.131zM87.2 16.284c0 0.223-0.023 0.338-0.069 0.338l0.069 0.135v0.069c0 0.21-0.112 0.39-0.335 0.538 0.135 0.302 0.2 0.479 0.2 0.538h0.135l-0.069-0.676c0.056 0 0.167-0.112 0.338-0.338l-0.135-0.607h-0.135zM87.266 4.19c0 0.046-0.023 0.112-0.069 0.203 0.046 0.269 0.112 0.404 0.203 0.404 0.135-0.046 0.203-0.18 0.203-0.404v-0.069c0-0.089-0.046-0.135-0.135-0.135h-0.203zM87.266 19.578c0.135-0.18 0.269-0.269 0.404-0.269v-0.338h-0.066c-0.226 0.194-0.338 0.39-0.338 0.607zM90.695 7.281h-1.211c-0.259 0-0.617-0.023-1.076-0.069-0.223 0-0.558 0.246-1.007 0.742 0.046 0.45 0.069 0.784 0.069 1.011v1.207c0 0.292-0.023 0.584-0.069 0.876 0.046 0.158 0.069 0.404 0.069 0.738 0 0.259-0.023 0.417-0.069 0.472 0.046 0.305 0.069 0.548 0.069 0.742v1.949c0 0.046-0.023 0.069-0.069 0.069 0.19 0.345 0.394 0.594 0.607 0.742h4.233c0.358-0.348 0.538-0.82 0.538-1.414v-2.631c0-0.571 0.023-1.198 0.069-1.88-0.046-0.18-0.069-0.358-0.069-0.538 0.046-0.423 0.069-0.85 0.069-1.276 0-0.338-0.404-0.627-1.211-0.876-0.338 0.092-0.653 0.138-0.942 0.138zM87.738 16.888l0.203 0.338c-0.046 0.246-0.069 0.427-0.069 0.538 0.246 0.377 0.404 0.758 0.469 1.142 0.144 0.089 0.259 0.135 0.338 0.135 0.046-0.089 0.069-0.157 0.069-0.203-0.089-0.302-0.315-0.84-0.673-1.611 0.043-0.079 0.066-0.171 0.066-0.269 0-0.089-0.046-0.135-0.135-0.135h-0.135l-0.135 0.066zM87.873 6.611l0.135 0.069c0.075 0 0.233-0.203 0.469-0.607 0.089-0.046 0.157-0.069 0.203-0.069 0.18 0.203 0.269 0.358 0.269 0.472h0.135l0.069-0.807c-0.315 0-0.472-0.246-0.472-0.742v-0.266c0-0.112 0.046-0.315 0.135-0.607h-0.069c-0.315 0-0.472 0.338-0.472 1.007-0.177 0.282-0.312 0.797-0.4 1.549zM89.149 3.99v0.069l0.2 0.404c-0.046 0.381-0.069 0.692-0.069 0.938v0.135c0.135-0.046 0.203-0.18 0.203-0.404 0-0.069-0.023-0.377-0.069-0.938h0.069c-0.046-0.089-0.069-0.157-0.069-0.203h-0.266zM90.225 5.601c-0.269 0.594-0.404 0.906-0.404 0.942l0.135 0.069h0.269c0.089 0 0.135-0.046 0.135-0.135v-0.742c-0.003-0.089-0.049-0.135-0.135-0.135zM90.291 4.393v0.404h0.069l0.069-0.472v-0.066c-0.095 0.010-0.138 0.053-0.138 0.135zM91.433 16.484c0 0.046 0.023 0.069 0.069 0.069l-0.069 0.338c0.046 0.089 0.069 0.157 0.069 0.203h0.269c0.089-0.023 0.18-0.135 0.269-0.338-0.046 0-0.18-0.157-0.404-0.472-0.036 0-0.105 0.066-0.203 0.2zM91.498 20.986c0.135 0.194 0.203 0.502 0.203 0.942l0.135-0.069-0.069-0.338c0.046-0.325 0.069-0.502 0.069-0.538l-0.135-0.069h-0.069l-0.135 0.072zM91.633 4.055v1.611l0.069 0.807h0.069c0-0.213 0.023-0.44 0.069-0.673-0.046-0.548-0.069-1.086-0.069-1.611v-0.135h-0.138zM91.971 17.629v0.203l0.472 1.745h0.135l0.069-0.338c-0.223-0.427-0.335-0.83-0.335-1.207v-0.404c0-0.089-0.046-0.135-0.135-0.135h-0.069c-0.095 0.010-0.138 0.056-0.138 0.135zM92.171 16.753c0.010 0.089 0.056 0.135 0.135 0.135l0.069-0.269h-0.069c-0.089 0.013-0.135 0.059-0.135 0.135zM92.506 4.728c0.102 1.073 0.19 1.857 0.269 2.353h0.069v-0.673c0.18-0.919 0.269-1.414 0.269-1.48v-0.535l0.069-0.338c-0.089-0.046-0.157-0.069-0.203-0.069-0.315 0.125-0.472 0.371-0.472 0.741zM93.382 17.157l-0.069 0.472c0 0.223 0.023 0.558 0.069 1.007h0.069l0.069-0.804-0.069-0.673h-0.069zM93.382 19.913c0 0.023-0.023 0.112-0.069 0.269 0.046 0.089 0.069 0.157 0.069 0.2h0.069c0-0.043 0.023-0.108 0.069-0.2-0.046-0.079-0.069-0.171-0.069-0.269h-0.069zM93.92 28.109v0.069c0.135 0.65 0.203 1.050 0.203 1.207h0.135v-0.066c0-0.804-0.089-1.207-0.269-1.207h-0.069zM94.054 8.288v0.269l0.069 0.338h0.069l0.069-0.338v-0.469c-0.072 0-0.141 0.066-0.207 0.2zM94.054 14.807v0.069h0.069c0.089-0.292 0.135-0.492 0.135-0.607-0.105 0-0.171 0.177-0.203 0.538zM94.793 4.259c0.046 0.089 0.069 0.157 0.069 0.203 0 0.502-0.135 1.244-0.404 2.218v0.203c0.233 0 0.479-0.673 0.738-2.015l-0.203-0.673h-0.069l-0.131 0.062zM94.524 25.759c0.135 0.906 0.2 1.444 0.2 1.611v0.472c0.010 0.089 0.056 0.135 0.135 0.135 0.079-0.046 0.167-0.069 0.269-0.069l0.069 0.135c0 0.112-0.023 0.292-0.069 0.538 0 0.669 0.18 1.007 0.538 1.007 0.637-0.089 1.086-0.135 1.342-0.135-0.21-0.446-0.344-0.669-0.404-0.669-0.144 0-0.302 0.069-0.472 0.203h-0.269c-0.089 0-0.135-0.046-0.135-0.135l0.066-0.338c0-0.44-0.246-0.863-0.738-1.28 0-0.377-0.157-0.873-0.469-1.476h-0.062zM94.724 17.698c0 0.069 0.023 0.338 0.069 0.804h0.135c0.069 0 0.135-0.069 0.203-0.203v-0.066l-0.203-0.266v-0.203c0-0.194 0.089-0.482 0.269-0.876l-0.135-0.069c-0.148 0.003-0.259 0.295-0.338 0.879zM94.858 22.8v0.069c0.010 0.089 0.056 0.135 0.135 0.135v-0.203h-0.135zM95.062 12.117l0.069 0.269h0.338c0.135 0 0.203-0.427 0.203-1.276 0-0.036-0.023-0.171-0.069-0.404h-0.069c-0.089 0-0.157 0.269-0.203 0.804-0.18 0.203-0.269 0.407-0.269 0.607zM95.196 13.465v2.083l0.069 0.469h0.135v-0.269c0-0.089-0.046-0.315-0.135-0.673 0-0.069 0.069-0.338 0.203-0.807v-0.938h-0.135c-0.095 0.007-0.138 0.053-0.138 0.135zM95.196 24.011v0.135c0 0.325 0.069 0.502 0.203 0.535h0.069v-0.197c-0.003-0.246-0.095-0.404-0.272-0.472zM96.069 6.408c0 0.18-0.046 0.269-0.135 0.269l0.069 0.469v0.269l-0.738 0.607v0.069c0 0.069 0.069 0.135 0.203 0.203h0.469l0.269-0.203-0.072-0.476c0.046-0.558 0.069-0.892 0.069-1.007-0.046-0.089-0.069-0.154-0.069-0.2h-0.066zM95.6 25.625c0.069 0.18 0.135 0.269 0.2 0.269v-0.472c-0.033 0-0.102 0.069-0.2 0.203zM96.135 5.939v0.269h0.069c0.046-0.157 0.069-0.246 0.069-0.269h-0.138z"></path>
<path d="M96.742 3.248h0.203c0.404 0.135 0.627 0.203 0.673 0.203h0.069l0.673-0.203 0.335 0.203c-0.046 0.525-0.069 0.906-0.069 1.145v0.135c0 0.479 0.023 0.886 0.069 1.207-0.046 0.315-0.069 0.584-0.069 0.807 0 0.292 0.023 0.738 0.069 1.342-0.046 0.404-0.069 0.853-0.069 1.342l0.135 0.069c0.135-0.010 0.246-0.525 0.338-1.545l-0.135-1.073c0-0.617 0.135-1.244 0.404-1.883v-0.942l-0.203-0.269v-0.135c0.112-0.223 0.312-0.338 0.604-0.338 0.338 0.089 0.538 0.135 0.607 0.135 0.125 0 0.39-0.069 0.807-0.203 0.203 0.089 0.315 0.18 0.338 0.269v0.135c0 0.279-0.089 0.682-0.269 1.211 0.404 1.575 0.692 2.877 0.873 3.898l0.472 2.352c0.492 1.814 0.738 2.976 0.738 3.491 0.125 0.302 0.371 1.424 0.738 3.36 0.125 0 0.236 0.604 0.338 1.814l-0.069 0.135 0.338 0.604h0.135c0.312-1.162 0.492-2.241 0.538-3.222 0.259 0 0.413-0.607 0.472-1.814 0.19-0.761 0.344-1.145 0.469-1.145l0.135 0.069-0.069-0.404c0-0.984 0.203-2.149 0.607-3.491 0-0.223 0.135-0.942 0.404-2.149 0-0.19 0.223-1.132 0.673-2.822 0-0.046 0.023-0.223 0.069-0.538-0.089-0.692-0.135-1.207-0.135-1.545 0.069 0 0.135-0.069 0.203-0.203 0.863 0 1.375 0.112 1.545 0.338 0.279-0.21 0.459-0.325 0.538-0.338 0.423 0.046 0.761 0.112 1.007 0.203 0.289-0.089 0.492-0.135 0.604-0.135h0.338l0.404 0.069c0.075-0.046 0.19-0.069 0.335-0.069 0.135 0.148 0.203 0.259 0.203 0.338l-0.269 1.145v0.335c0.584 2.254 0.919 3.908 1.007 4.974 0.18 0.18 0.269 0.427 0.269 0.742v0.472c0.223 0.256 0.338 0.479 0.338 0.669 0 0.158-0.023 0.358-0.069 0.607 0.269 0.525 0.446 1.221 0.538 2.083 0.135 0.194 0.292 0.929 0.472 2.218 0.315 1.155 0.472 2.074 0.472 2.756-0.046 0.075-0.069 0.167-0.069 0.269 0.312 0.144 0.469 0.367 0.469 0.669h0.069c0.144 0 0.236-0.469 0.269-1.411 0.089-0.223 0.312-1.253 0.673-3.091 0.157 0 0.292-0.604 0.404-1.814 0.125-0.19 0.259-0.682 0.404-1.476 0.121-0.256 0.302-1.355 0.538-3.294 0.269 0 0.472-0.873 0.604-2.618h0.069l-0.069-0.135c0.135-0.282 0.269-0.794 0.404-1.549v-0.479c-0.089-0.65-0.135-0.988-0.135-1.011 0-0.18 0.112-0.338 0.338-0.472 0.223 0 0.338 0.046 0.338 0.135 0.043 0 0.069-0.023 0.069-0.069l0.404 0.069c0.459-0.046 0.817-0.069 1.076-0.069 0.371 0.089 0.617 0.135 0.742 0.135 0.751-0.135 1.332-0.203 1.746-0.203l0.203 0.269c-0.482 1.011-0.797 1.926-0.942 2.756l-0.771 3.432-0.807 3.494c0 0.338-0.089 0.758-0.269 1.276l-1.076 5.309c-0.167 0.525-0.325 1.198-0.469 2.015-0.102 0-0.19 0.515-0.269 1.545-0.089 0-0.203 0.538-0.338 1.611-0.112 0-0.269 0.673-0.469 2.015-0.125 0-0.236 0.472-0.338 1.414v0.069c0 0.135 0.069 0.584 0.203 1.342-0.069 0.223-0.223 0.338-0.472 0.338h-0.335c-0.102 0-0.394-0.069-0.876-0.203-0.167 0.089-0.344 0.135-0.538 0.135h-0.404c-0.348 0-0.659-0.023-0.942-0.069-0.627 0.089-1.096 0.135-1.411 0.135-0.18-0.19-0.269-0.367-0.269-0.538 0-0.056 0.043-0.302 0.135-0.738v-0.604c-0.223-0.863-0.358-1.601-0.404-2.218-0.125-0.089-0.279-0.696-0.472-1.814-0.112 0-0.223-0.65-0.335-1.949-0.079 0-0.167-0.404-0.269-1.211-0.135-0.223-0.472-1.949-1.007-5.174-0.102 0-0.19-0.177-0.269-0.535h0.069c-0.269-0.863-0.404-1.355-0.404-1.48v-0.669c-0.023-0.089-0.135-0.18-0.335-0.269-0.144 0-0.279 0.804-0.404 2.418-0.102 0-0.213 0.561-0.338 1.68-0.157 0.203-0.404 1.299-0.738 3.291-0.144 0-0.348 0.942-0.607 2.822-0.223 0-0.381 0.607-0.469 1.814-0.492 2.307-0.738 3.517-0.738 3.629 0 0.069 0.089 0.469 0.269 1.207 0 0.125-0.112 0.236-0.335 0.338-0.279-0.089-0.459-0.135-0.538-0.135l-0.338 0.135c-0.246-0.046-0.446-0.069-0.604-0.069l-0.404 0.069c-0.157-0.046-0.246-0.069-0.269-0.069-0.561 0.046-0.896 0.069-1.011 0.069-0.098 0-0.344-0.023-0.738-0.069-0.236 0.046-0.459 0.069-0.673 0.069-0.19-0.089-0.302-0.177-0.325-0.266l0.203-1.276c-0.538-2.756-1.007-4.928-1.411-6.516-0.236-0.44-0.436-1.624-0.604-3.563 0-0.315-0.112-0.623-0.338-0.938-0.089-0.315-0.135-0.584-0.135-0.807v-0.272c-0.269-0.279-0.404-0.906-0.404-1.88-0.033 0-0.102-0.246-0.203-0.742v-0.735c-0.315-0.203-0.472-0.607-0.472-1.211 0-0.046 0.023-0.069 0.069-0.069-0.223-0.4-0.338-1.073-0.338-2.015-0.312 0-0.538-0.961-0.673-2.887v-0.2c-0.269-0.282-0.404-0.794-0.404-1.549l0.203-0.135 0.269 0.135c0-0.312 0.046-0.669 0.135-1.073-0.046-0.089-0.069-0.158-0.069-0.203h-0.269v0.069c0 0.098 0.023 0.19 0.069 0.269-0.112 0.269-0.246 0.404-0.404 0.404-0.325 0-0.617-0.315-0.873-0.942v-0.203c0.003-0.066 0.092-0.158 0.272-0.269zM100.032 4.124v0.873c0 0.194-0.135 0.505-0.404 0.942-0.046 0.167-0.069 0.345-0.069 0.538 0.089 0.705 0.135 1.175 0.135 1.411v0.472c-0.089 0.65-0.135 1.007-0.135 1.073v0.738c0 0.345-0.046 0.951-0.135 1.814 0.043 0.394 0.066 0.637 0.066 0.742-0.046 0.075-0.066 0.167-0.066 0.269h0.2c0.236-3.002 0.505-4.502 0.807-4.502 0.121-0.45 0.233-0.761 0.335-0.942l-0.069-1.073 0.069-0.269c-0.089-0.18-0.135-0.427-0.135-0.742v-1.345c0-0.069-0.069-0.135-0.2-0.203h-0.197c-0.069 0-0.135 0.069-0.203 0.203zM100.436 11.513v0.135c0 0.046-0.023 0.069-0.069 0.069l0.069 0.135c0 0.371-0.112 1.086-0.338 2.149 0.033 0.719 0.102 1.076 0.203 1.076 0.089-0.102 0.157-0.548 0.203-1.345 0.177-0.21 0.269-0.436 0.269-0.669 0-0.203-0.023-0.338-0.069-0.404 0.046-0.381 0.069-0.696 0.069-0.942v-1.814c0.046-0.302 0.112-0.459 0.203-0.472-0.046-0.089-0.069-0.154-0.069-0.2h-0.069c-0.148 0-0.282 0.761-0.404 2.284zM100.636 16.015c0 0.102-0.089 0.371-0.269 0.807 0.223 0.696 0.358 1.211 0.404 1.545h0.269v-0.135c0-0.046-0.089-0.289-0.269-0.738 0.023-0.328 0.089-0.548 0.203-0.673-0.18-0.367-0.269-0.637-0.269-0.807h-0.069zM106.617 14.738c-0.089 0.751-0.135 1.175-0.135 1.276 0 0.069 0.023 0.381 0.069 0.942-0.046 0.246-0.069 0.45-0.069 0.607 0.089 0.144 0.135 0.256 0.135 0.338-0.089 0.581-0.157 1.119-0.203 1.611l0.203 0.135 0.135-0.203c-0.089-0.171-0.135-0.345-0.135-0.538 0-0.157 0.089-0.381 0.269-0.673l-0.069-0.335v-0.135c0-0.482-0.023-0.817-0.069-1.011 0.046-0.345 0.069-0.728 0.069-1.142v-0.469c0.003-0.236-0.066-0.371-0.2-0.404zM106.483 26.836v0.266c0.089 0 0.135-0.046 0.135-0.135v-0.131h-0.135zM109.643 3.786l-0.135 0.472v0.269c0.18 0.479 0.269 0.906 0.269 1.276v0.472c0.089 0 0.135-0.046 0.135-0.135v-0.676c0-0.112-0.046-0.315-0.135-0.604 0.046-0.381 0.069-0.673 0.069-0.876-0.046-0.089-0.069-0.158-0.069-0.203h-0.135zM112.33 16.618c0.089 0.148 0.135 0.282 0.135 0.404v0.069c0 0.098-0.023 0.19-0.069 0.269 0 0.046 0.023 0.069 0.069 0.069l-0.069 0.338v0.135c0.177 0.873 0.269 1.342 0.269 1.411 0 0.203 0.112 0.919 0.338 2.149 0 0.502 0.18 1.020 0.538 1.545 0.135 0.551 0.2 0.929 0.2 1.145v0.873l0.269 0.338v0.807c0.010 0.089 0.056 0.135 0.135 0.135 0.358-0.696 0.538-1.076 0.538-1.145 0-0.302-0.112-0.617-0.338-0.938 0-0.036-0.069-0.44-0.203-1.211 0.089-0.538 0.157-1.545 0.203-3.022 0.046 0 0.135-0.492 0.269-1.48-0.089-0.404-0.135-0.669-0.135-0.804 0.089-0.157 0.157-0.381 0.203-0.673-0.213 0-0.348 0.761-0.404 2.284-0.223 0.338-0.338 0.784-0.338 1.342l-0.335 0.338c-0.157-0.033-0.292-0.167-0.404-0.404 0-0.18 0.023-0.581 0.069-1.207 0-0.302-0.203-0.728-0.607-1.28 0-0.043-0.023-0.108-0.066-0.2 0-0.036 0.020-0.171 0.066-0.404-0.033-0.719-0.098-1.076-0.2-1.076-0.089-0.007-0.135 0.059-0.135 0.194zM112.865 12.724v0.335c0.112 1.073 0.292 1.611 0.538 1.611v0.135l-0.135 0.807c0 0.489 0.157 0.781 0.469 0.873 0.089-0.046 0.157-0.069 0.203-0.069v-0.066c0-1.132 0.089-1.913 0.269-2.352 0-0.121-0.223-0.21-0.673-0.269-0.358-0.715-0.538-1.096-0.538-1.142-0.089 0.016-0.135 0.059-0.135 0.138zM113.403 10.575l-0.069 0.338v0.069c0 0.279 0.135 0.594 0.404 0.938v-0.072c-0.062-0.847-0.177-1.273-0.335-1.273zM114.948 23.407v0.269h0.135v-0.269h-0.135zM115.286 24.549l0.069 0.469h0.069v-0.469h-0.138zM116.359 25.825v0.942c0 0.243 0.112 0.692 0.338 1.342l0.203 1.342c0.069 0 0.154 0.046 0.269 0.135h0.135c-0.581-1.903-0.873-3.156-0.873-3.76h-0.072zM116.897 21.996v0.338h0.135c0.046-0.617 0.135-1.198 0.269-1.749h-0.069c-0.154-0.003-0.266 0.469-0.335 1.411zM118.042 20.582c0 0.292-0.112 0.719-0.338 1.28v0.669h0.069c0.18-0.623 0.312-1.253 0.404-1.88l-0.135-0.069zM118.108 18.771v0.607c0.135-0.046 0.2-0.18 0.2-0.404v-0.607c-0.135 0.043-0.2 0.177-0.2 0.404zM118.308 17.157v0.472h0.069c0-0.102 0.023-0.194 0.069-0.269-0.046-0.089-0.069-0.157-0.069-0.203h-0.069zM118.377 15.142v0.738h0.069l0.069-0.335v-0.404h-0.138zM118.377 16.618v0.404h0.069v-0.404h-0.069zM118.711 21.593c0 0.157-0.112 0.538-0.338 1.142v0.607h0.069c0-0.233 0.135-0.751 0.404-1.545v-0.203h-0.135zM118.377 23.541v0.269h0.069v-0.269h-0.069zM118.98 12.924c-0.18 0.39-0.269 0.682-0.269 0.873v0.472c0.069 0 0.18-0.427 0.338-1.276v-0.069h-0.069zM119.049 17.429v0.135h0.069v-0.135h-0.069zM119.184 16.349c0.112 0 0.2-0.18 0.269-0.535v-0.942c-0.092 0-0.18 0.495-0.269 1.476zM119.788 12.724c-0.089 0.525-0.157 1.063-0.203 1.611 0.18 0 0.269-0.338 0.269-1.007v-0.604h-0.066zM119.788 8.895l-0.069 0.469c0.046 0.394 0.069 0.64 0.069 0.742h0.069v-1.211h-0.069zM119.853 17.157v0.069c-0.089 0.84-0.135 1.378-0.135 1.611v0.069l0.069 0.338h0.069v-0.945c0-0.4 0.046-0.781 0.135-1.142h-0.138zM120.322 14.873h0.135c0.18-0.751 0.269-1.221 0.269-1.411v-0.066h-0.069c-0.154 0-0.266 0.489-0.335 1.476zM120.526 8.491v0.069h0.135v-0.203c-0.089 0.010-0.135 0.053-0.135 0.135zM120.726 6.073c0 0.381-0.023 0.942-0.069 1.68h0.069c0.089 0 0.135-0.046 0.135-0.135v-1.211l-0.069-0.338h-0.066zM120.795 4.528l-0.069 0.338v0.066l0.069 0.338h0.069v-0.742h-0.069zM122.071 4.393c0 0.315-0.023 0.961-0.069 1.949l0.069 0.135c-0.18 0.472-0.269 0.781-0.269 0.938v1.48c0 0.19-0.023 0.436-0.069 0.738 0.046 0.112 0.089 0.338 0.135 0.673h0.069c0.167-1.424 0.279-2.789 0.338-4.098 0.112 0 0.223-0.742 0.335-2.218h-0.335c-0.135 0.043-0.203 0.18-0.203 0.404zM121.802 10.844v0.404h0.069v-0.404h-0.069z"></path>
<path d="M124.64 3.248c0.135 0 0.312 0.046 0.538 0.135 0.315-0.089 0.561-0.135 0.742-0.135l0.873 0.135c0.289-0.089 0.492-0.135 0.604-0.135h1.276c0.144 0 0.459 0.046 0.942 0.135 0.135 0 0.315-0.046 0.538-0.135 0.223 0 0.335 0.023 0.335 0.069 0.961-0.046 1.68-0.069 2.149-0.069h4.367c0.404 0 0.607 0.472 0.607 1.414 0.223 1.522 0.338 2.51 0.338 2.953l-0.269 0.135c-0.348-0.046-0.705-0.203-1.076-0.472l-0.135 0.069h-0.538c-0.157 0-0.358-0.023-0.604-0.069-0.089 0.046-0.157 0.069-0.203 0.069-0.135 0-0.203-0.023-0.203-0.069-0.446 0.046-0.784 0.069-1.007 0.069h-2.149c-0.056 0-0.302-0.046-0.738-0.135h-0.472c-0.089 0-0.312 0.046-0.673 0.135-0.223-0.075-0.338-0.19-0.338-0.335 0.089-0.751 0.246-1.467 0.472-2.149-0.089-0.427-0.135-0.761-0.135-1.011v-0.066c-0.315-0.046-0.492-0.069-0.538-0.069l-0.069 0.135v0.876l-0.131 1.211c0.089 0.594 0.177 0.952 0.269 1.076 0 0.056-0.246 0.413-0.738 1.073v0.135c0 0.315 0.046 0.561 0.135 0.742-0.089 0.18-0.135 0.427-0.135 0.738v1.414c0 0.18 0.046 0.469 0.135 0.873-0.089 0.417-0.135 0.663-0.135 0.742 0 0.538 0.472 0.896 1.411 1.073 0.079 0 0.256-0.043 0.538-0.131l0.404 0.066c1.086 0 2.070-0.177 2.956-0.535h0.269c0.089 0.010 0.135 0.056 0.135 0.135v0.338c0 0.154 0.023 0.354 0.069 0.604-0.089 0.18-0.135 0.338-0.135 0.472 0.046 0.135 0.089 0.203 0.135 0.203l-0.069 0.472v2.149l0.069 0.472-0.203 0.131h-0.135c-0.906-0.354-1.424-0.535-1.545-0.535-0.312 0.046-0.492 0.069-0.538 0.069-0.079 0-0.394-0.069-0.942-0.203-0.167 0.089-0.348 0.135-0.538 0.135-0.046 0-0.112-0.023-0.2-0.069-0.18 0.046-0.338 0.069-0.472 0.069l-0.269-0.069c-0.144 0.089-0.279 0.135-0.404 0.135h-0.131l-0.203-0.135c0.056-1.736 0.144-2.809 0.269-3.225-0.033-0.269-0.167-0.404-0.404-0.404-0.089 0.148-0.135 0.259-0.135 0.338-0.046 1.378-0.069 2.274-0.069 2.687-0.089 0.292-0.135 0.492-0.135 0.607v0.069c0.348 0 0.548 0.089 0.607 0.269l-0.404 0.535c0.046 2.149 0.069 3.809 0.069 4.974v1.545c0 0.203 0.18 0.584 0.538 1.145l0.469-0.069h0.069c0.157 0 0.358 0.023 0.607 0.069l0.469-0.135c0.751 0.046 1.332 0.069 1.745 0.069h1.68c0.19 0 0.371 0.023 0.538 0.069 0.18-0.046 0.358-0.069 0.538-0.069h1.142c0.167 0 0.548-0.135 1.142-0.404h0.135c0.069 0 0.135 0.069 0.203 0.203-0.246 2.779-0.472 4.167-0.673 4.167-0.079 0.046-0.167 0.069-0.269 0.069h-2.083c-1.913 0-3.393 0.023-4.436 0.069-0.886-0.046-2.274-0.069-4.167-0.069h-0.807c-0.223 0-0.338-0.046-0.338-0.135-0.223 0.135-0.404 0.203-0.538 0.203h-0.203c-0.102 0-0.167-0.112-0.203-0.338 0.269-0.682 0.404-1.109 0.404-1.276 0-0.66-0.023-1.109-0.069-1.345 0.046-0.929 0.069-1.778 0.069-2.549v-1.847c0-0.66-0.023-1.109-0.069-1.342 0.046-0.472 0.069-0.988 0.069-1.545v-4.836c0-0.158-0.023-0.358-0.069-0.607 0.046-0.089 0.069-0.158 0.069-0.203l-0.069-0.804 0.069-0.942c0-0.345-0.023-0.659-0.069-0.942 0.046-1.486 0.069-2.789 0.069-3.898v-2.484l-0.069-0.335h0.069l-0.404-1.28v-0.066c0.098-0.177 0.233-0.269 0.41-0.269zM125.178 4.055v0.269l0.472 2.284h0.069c0.046-0.157 0.069-0.246 0.069-0.269 0-0.213-0.135-0.863-0.404-1.949 0-0.223-0.046-0.338-0.135-0.338h-0.072zM125.313 9.499l-0.135 0.269c0 1.053 0.135 1.791 0.404 2.218l-0.203 1.145 0.404 1.949v0.607c0.033 0.266 0.102 0.4 0.2 0.4 0-0.22 0.023-0.335 0.069-0.335-0.079-0.292-0.167-1.030-0.269-2.218v-1.821c0-0.112-0.112-0.558-0.338-1.342l0.069-0.338c0-0.335-0.066-0.515-0.2-0.535zM125.447 27.37c0 0.135-0.023 0.203-0.069 0.203 0.046 0.089 0.069 0.157 0.069 0.203h0.069v-0.407h-0.069zM125.716 7.015c0 0.023-0.023 0.112-0.069 0.266 0 0.203 0.18 0.965 0.538 2.284 0.269 1.332 0.404 2.431 0.404 3.294h-0.069l0.069 0.135v0.135c0 0.046-0.023 0.069-0.069 0.069 0.069 0.18 0.135 0.269 0.203 0.269 0-0.046 0.023-0.069 0.069-0.069 0-0.046-0.023-0.112-0.069-0.203 0.046-0.988 0.112-1.703 0.203-2.149-0.315 0-0.584-1.099-0.807-3.294-0.046 0-0.157-0.246-0.335-0.738h-0.069zM126.658 3.652l-0.069 0.135c0.135 0.607 0.203 1.030 0.203 1.276v0.742c0.010 0.089 0.056 0.135 0.135 0.135v-0.81c0-0.135 0.069-0.4 0.2-0.804-0.056-0.446-0.213-0.673-0.469-0.673zM126.927 26.229l-0.069 0.338v0.938h0.069c0-0.581 0.089-0.984 0.269-1.207l-0.135-0.069h-0.135zM127.462 27.909v0.069c0 0.246 0.023 0.561 0.069 0.942-0.046 0.075-0.069 0.167-0.069 0.266h0.135v-0.135c0-0.144 0.023-0.256 0.069-0.335-0.046-0.538-0.115-0.807-0.203-0.807zM127.665 14.604v0.472c0.089 0 0.135-0.046 0.135-0.135l-0.069-0.338h-0.066zM127.934 3.99v0.807c0.269 0.279 0.404 0.548 0.404 0.804 0.102 0 0.167-0.157 0.203-0.472l-0.069-0.804h0.069c-0.046-0.358-0.157-0.538-0.338-0.538-0.18 0.069-0.269 0.135-0.269 0.203zM129.276 26.632c0 0.023-0.046 0.354-0.135 1.007v0.404h0.135c0.18-0.673 0.269-1.053 0.269-1.145v-0.131c0-0.089-0.046-0.135-0.135-0.135h-0.135zM129.949 14.469c-0.18 0.089-0.269 0.83-0.269 2.218-0.089 0.013-0.135 0.059-0.135 0.135v0.203h0.135c0.223-0.584 0.338-0.896 0.338-0.942s-0.046-0.266-0.135-0.669c0.135-0.236 0.203-0.463 0.203-0.673v-0.138c-0.003-0.089-0.049-0.135-0.138-0.135zM130.622 3.99c0 0.784-0.112 1.68-0.335 2.687l0.135 0.203c0.538-0.046 0.807-0.112 0.807-0.203 0.046-1.48 0.112-2.218 0.203-2.218-0.089-0.338-0.135-0.561-0.135-0.673h-0.538c-0.095 0-0.138 0.069-0.138 0.203zM130.418 28.378c0.046 0.089 0.069 0.157 0.069 0.203h0.135c0.102-0.046 0.279-0.358 0.538-0.942 0.223-0.056 0.335-0.121 0.335-0.203v-0.335c0-0.069-0.066-0.135-0.2-0.203-0.213 0-0.413 0.358-0.607 1.076-0.033 0-0.125 0.135-0.269 0.404zM130.622 16.284c0.125 0 0.279-0.246 0.472-0.738l-0.069-0.135v-0.469c0-0.112 0.046-0.315 0.135-0.607l-0.135-0.069h-0.069c-0.112 0.003-0.223 0.676-0.335 2.018zM131.225 16.418l-0.069 0.338v0.069c0.010 0.089 0.056 0.135 0.135 0.135 0-0.046 0.023-0.223 0.069-0.538h-0.135z"></path>
<path d="M139.976 3.248l0.338 0.069h2.218c0.21 0 0.571 0.046 1.076 0.135l0.673-0.135c0.079 0 0.259 0.046 0.538 0.135l1.814-0.135c0.079 0.046 0.279 0.089 0.604 0.135 0.079 0 0.259-0.046 0.538-0.135 0.033 0 0.167 0.023 0.404 0.069l0.807-0.069c0.289 0.089 0.492 0.135 0.604 0.135h0.135c0.84-0.135 1.289-0.203 1.345-0.203 0.289 0 0.604 0.223 0.942 0.673 0.85 0.45 1.276 0.942 1.276 1.476 0.046 0 0.069 0.023 0.069 0.069s-0.033 0.112-0.075 0.203c0.046 0.584 0.069 1.053 0.069 1.414v0.066c0 0.157-0.023 0.358-0.069 0.607 0.089 0.282 0.135 0.463 0.135 0.538-0.089 0.315-0.135 0.584-0.135 0.807 0.177 0.436 0.269 0.728 0.269 0.873v1.145l-0.269 1.68c0 0.256 0.023 0.617 0.069 1.073-0.089 0.45-0.135 0.853-0.135 1.211 0.18 0.413 0.269 0.659 0.269 0.742v0.804c-0.125 0.83-0.236 1.299-0.338 1.414-0.089 0-0.492 0.4-1.211 1.207-0.269 0.121-0.404 0.345-0.404 0.673 0.089 0.692 0.246 1.253 0.472 1.68l0.669 2.677c0 0.692 0.269 1.657 0.807 2.887 0 1.011 0.269 1.726 0.807 2.149 0.135 0 0.246 0.203 0.338 0.607-0.144 0.135-0.259 0.203-0.338 0.203-0.482-0.089-0.797-0.135-0.942-0.135h-0.338c-0.381 0-0.85 0.046-1.411 0.135-0.39-0.046-0.637-0.069-0.738-0.069-0.033 0-0.167 0.023-0.404 0.069-0.18-0.046-0.335-0.069-0.469-0.069l-0.469 0.069c-0.223-0.075-0.338-0.19-0.338-0.338 0.135-0.223 0.203-0.404 0.203-0.538v-0.135c-0.18-1.027-0.446-2.149-0.807-3.357 0-0.19-0.112-0.637-0.338-1.342 0-0.148-0.112-0.574-0.335-1.28-0.046-0.404-0.269-1.207-0.673-2.418 0-0.413-0.381-0.771-1.142-1.073l-0.335 0.069-0.942-0.069c0 0.056-0.223 0.302-0.673 0.738v2.018c0 0.974-0.023 2.293-0.069 3.963 0.046 0.246 0.069 0.45 0.069 0.604l-0.069 0.338c0.046 0.348 0.069 0.732 0.069 1.145v0.059c0 0.075 0.157 0.502 0.472 1.276v0.069c0 0.069-0.069 0.135-0.203 0.203h-2.891c-0.256 0-0.617 0.023-1.076 0.069-0.089-0.046-0.157-0.069-0.2-0.069-0.079 0.046-0.19 0.069-0.338 0.069-0.223-0.135-0.338-0.269-0.338-0.404 0.404-0.637 0.607-1.132 0.607-1.476v-1.411c0-0.732-0.023-1.266-0.069-1.614 0.046-0.345 0.069-0.886 0.069-1.611v-1.148c0-0.098-0.023-0.19-0.069-0.266 0.046-0.079 0.069-0.171 0.069-0.269v-0.135c0-0.259-0.023-0.413-0.069-0.472 0.046-0.246 0.069-0.45 0.069-0.607v-0.6c0-0.194-0.023-0.371-0.069-0.538 0-0.046 0.023-0.112 0.069-0.203-0.046-0.719-0.069-1.145-0.069-1.28 0-0.108 0.023-0.692 0.069-1.745l-0.069-0.338c0.046-0.075 0.069-0.167 0.069-0.266l-0.069-0.338 0.069-0.135c-0.046-0.089-0.069-0.158-0.069-0.203l0.069-0.404c0-0.135-0.023-0.292-0.069-0.472 0.046-0.705 0.069-1.221 0.069-1.545 0-0.381-0.023-1.053-0.069-2.015 0.033-0.358 0.079-0.538 0.135-0.538l-0.069-0.338v-0.932c0-0.246-0.023-0.561-0.069-0.942 0.046-0.089 0.069-0.157 0.069-0.203s-0.023-0.069-0.069-0.069l0.069-0.669v-2.549c0-0.089-0.135-0.358-0.404-0.807v-0.069l0.21-0.269zM141.925 14.538v0.135c0 0.059-0.046 0.302-0.135 0.742 0.023 0.45 0.089 0.669 0.203 0.669v-1.076l0.135-0.203v-0.131c0-0.089-0.046-0.135-0.135-0.135h-0.069zM141.925 21.727c0 0.098-0.023 0.19-0.069 0.269 0.046 0.45 0.112 0.669 0.203 0.669h0.069v-0.066c0-0.154 0.023-0.354 0.069-0.604-0.046-0.079-0.069-0.171-0.069-0.269h-0.203zM142.729 18.502v0.2h0.135v-0.335c-0.089 0.013-0.135 0.056-0.135 0.135zM142.863 7.819c0 0.157-0.023 0.358-0.069 0.607 0.046 0.075 0.069 0.167 0.069 0.269 0.056 0 0.167-0.112 0.338-0.338 0-0.246-0.112-0.427-0.338-0.538zM142.932 13.059l-0.135 0.804c0.046 0.236 0.069 0.463 0.069 0.673v0.269h0.135l0.135-0.338-0.203-0.338v-0.463c0-0.112 0.046-0.315 0.135-0.607h-0.135zM142.798 20.313l0.135 0.673h0.069v-0.538c0-0.089-0.046-0.135-0.135-0.135h-0.069zM142.863 4.393l0.069 0.135v0.738h0.135l0.069-0.338v-0.066c0-0.046-0.046-0.223-0.135-0.538l-0.138 0.069zM142.932 16.888c0.056 0 0.167-0.112 0.338-0.338l-0.135-0.069c-0.092 0.003-0.157 0.138-0.203 0.407zM142.932 17.091v0.203h0.069v-0.203h-0.069zM143.135 19.174c0 0.18-0.023 0.269-0.069 0.269 0.046 0.069 0.069 0.203 0.069 0.404h0.135l0.069-0.607-0.135-0.069h-0.069zM143.201 15.614v0.135c0.010 0.089 0.056 0.131 0.135 0.131 0.089-0.144 0.135-0.256 0.135-0.335l-0.135-0.069c-0.089 0.013-0.135 0.056-0.135 0.138zM143.201 21.323v0.069c0.135 0.203 0.203 0.338 0.203 0.404h0.135v-0.338c0-0.089-0.046-0.135-0.135-0.135h-0.203zM143.201 25.221v0.338h0.069v-0.338h-0.069zM143.27 18.164l0.404 0.673v-0.335c0-0.233-0.066-0.367-0.2-0.404-0.092 0.043-0.161 0.066-0.203 0.066zM143.336 22.531v0.069h0.069c0.089 0 0.135-0.043 0.135-0.135v-0.066h-0.069c-0.089 0.010-0.135 0.056-0.135 0.131zM143.874 16.284c0 0.223-0.023 0.338-0.069 0.338l0.069 0.135v0.069c0 0.21-0.112 0.39-0.335 0.538 0.135 0.302 0.2 0.479 0.2 0.538h0.135l-0.069-0.676c0.056 0 0.167-0.112 0.338-0.338l-0.135-0.607h-0.135zM143.939 4.19c0 0.046-0.023 0.112-0.069 0.203 0.046 0.269 0.112 0.404 0.203 0.404 0.135-0.046 0.203-0.18 0.203-0.404v-0.069c0-0.089-0.046-0.135-0.135-0.135h-0.203zM143.939 19.578c0.135-0.18 0.269-0.269 0.404-0.269v-0.338h-0.069c-0.223 0.194-0.335 0.39-0.335 0.607zM147.368 7.281h-1.211c-0.259 0-0.617-0.023-1.076-0.069-0.223 0-0.558 0.246-1.007 0.742 0.046 0.45 0.069 0.784 0.069 1.011v1.207c0 0.292-0.023 0.584-0.069 0.876 0.046 0.158 0.069 0.404 0.069 0.738 0 0.259-0.023 0.417-0.069 0.472 0.046 0.305 0.069 0.548 0.069 0.742v1.949c0 0.046-0.023 0.069-0.069 0.069 0.19 0.345 0.394 0.594 0.607 0.742h4.233c0.358-0.348 0.538-0.82 0.538-1.414v-2.631c0-0.571 0.023-1.198 0.069-1.88-0.046-0.18-0.069-0.358-0.069-0.538 0.046-0.423 0.069-0.85 0.069-1.276 0-0.338-0.404-0.627-1.211-0.876-0.338 0.092-0.653 0.138-0.942 0.138zM144.412 16.888l0.203 0.338c-0.046 0.246-0.069 0.427-0.069 0.538 0.246 0.377 0.404 0.758 0.469 1.142 0.144 0.089 0.259 0.135 0.338 0.135 0.046-0.089 0.069-0.157 0.069-0.203-0.089-0.302-0.315-0.84-0.673-1.611 0.043-0.079 0.066-0.171 0.066-0.269 0-0.089-0.046-0.135-0.135-0.135h-0.135l-0.135 0.066zM144.546 6.611l0.135 0.069c0.075 0 0.233-0.203 0.469-0.607 0.089-0.046 0.157-0.069 0.2-0.069 0.18 0.203 0.269 0.358 0.269 0.472h0.135l0.069-0.807c-0.315 0-0.472-0.246-0.472-0.742v-0.266c0-0.112 0.046-0.315 0.135-0.607h-0.069c-0.315 0-0.472 0.338-0.472 1.007-0.174 0.282-0.308 0.797-0.397 1.549zM145.823 3.99v0.069l0.2 0.404c-0.046 0.381-0.069 0.692-0.069 0.938v0.135c0.135-0.046 0.203-0.18 0.203-0.404 0-0.069-0.023-0.377-0.069-0.938h0.069c-0.046-0.089-0.069-0.157-0.069-0.203h-0.266zM146.895 5.601c-0.269 0.594-0.404 0.906-0.404 0.942l0.135 0.069h0.269c0.089 0 0.135-0.046 0.135-0.135v-0.742c0-0.089-0.046-0.135-0.135-0.135zM146.964 4.393v0.404h0.069l0.069-0.472v-0.066c-0.095 0.010-0.138 0.053-0.138 0.135zM148.106 16.484c0 0.046 0.023 0.069 0.069 0.069l-0.069 0.335c0.046 0.089 0.069 0.157 0.069 0.203h0.269c0.089-0.023 0.18-0.135 0.269-0.338-0.046 0-0.18-0.157-0.404-0.472-0.036 0.003-0.105 0.069-0.203 0.203zM148.172 20.986c0.135 0.194 0.203 0.502 0.203 0.942l0.135-0.069-0.069-0.338c0.046-0.325 0.069-0.502 0.069-0.538l-0.135-0.069h-0.069l-0.135 0.072zM148.306 4.055v1.611l0.069 0.807h0.069c0-0.213 0.023-0.44 0.069-0.673-0.046-0.548-0.069-1.086-0.069-1.611v-0.135h-0.138zM148.644 17.629v0.203l0.472 1.745h0.135l0.069-0.338c-0.223-0.427-0.335-0.83-0.335-1.207v-0.404c0-0.089-0.046-0.135-0.135-0.135h-0.069c-0.095 0.010-0.138 0.056-0.138 0.135zM148.844 16.753c0.010 0.089 0.056 0.135 0.135 0.135l0.069-0.269h-0.069c-0.089 0.013-0.135 0.059-0.135 0.135zM149.179 4.728c0.102 1.073 0.19 1.857 0.269 2.353h0.069v-0.673c0.18-0.919 0.269-1.414 0.269-1.48v-0.535l0.069-0.338c-0.089-0.046-0.157-0.069-0.203-0.069-0.315 0.125-0.472 0.371-0.472 0.741zM150.055 17.157l-0.069 0.472c0 0.223 0.023 0.558 0.069 1.007h0.069l0.069-0.804-0.069-0.673h-0.069zM150.055 19.913c0 0.023-0.023 0.112-0.069 0.269 0.046 0.089 0.069 0.157 0.069 0.2h0.069c0-0.043 0.023-0.108 0.069-0.2-0.046-0.079-0.069-0.171-0.069-0.269h-0.069zM150.59 28.109v0.069c0.135 0.65 0.203 1.050 0.203 1.207h0.135v-0.066c0-0.804-0.089-1.207-0.269-1.207h-0.069zM150.725 8.288v0.269l0.069 0.338h0.069l0.066-0.338v-0.469c-0.069 0-0.135 0.066-0.203 0.2zM150.725 14.807v0.069h0.069c0.089-0.295 0.135-0.495 0.135-0.607-0.102 0-0.167 0.177-0.203 0.538zM151.466 4.259c0.046 0.089 0.069 0.157 0.069 0.203 0 0.502-0.135 1.244-0.404 2.218v0.203c0.233 0 0.479-0.673 0.738-2.015l-0.203-0.673h-0.069l-0.131 0.062zM151.197 25.759c0.135 0.906 0.2 1.444 0.2 1.611v0.472c0.010 0.089 0.056 0.135 0.135 0.135 0.079-0.046 0.167-0.069 0.269-0.069l0.069 0.135c0 0.112-0.023 0.292-0.069 0.538 0 0.669 0.18 1.007 0.538 1.007 0.637-0.089 1.086-0.135 1.342-0.135-0.21-0.446-0.345-0.669-0.404-0.669-0.144 0-0.302 0.069-0.472 0.203h-0.269c-0.089 0-0.135-0.046-0.135-0.135l0.066-0.338c0-0.44-0.246-0.863-0.738-1.28 0-0.377-0.157-0.873-0.469-1.476h-0.062zM151.397 17.698c0 0.069 0.023 0.338 0.069 0.804h0.135c0.069 0 0.135-0.069 0.203-0.203v-0.066l-0.203-0.266v-0.203c0-0.194 0.089-0.482 0.269-0.876l-0.135-0.069c-0.148 0.003-0.259 0.295-0.338 0.879zM151.532 22.8v0.069c0.010 0.089 0.056 0.135 0.135 0.135v-0.203h-0.135zM151.735 12.117l0.069 0.269h0.338c0.135 0 0.203-0.427 0.203-1.276 0-0.036-0.023-0.171-0.069-0.404h-0.069c-0.089 0-0.157 0.269-0.203 0.804-0.18 0.203-0.269 0.407-0.269 0.607zM151.87 13.465v2.083l0.069 0.469h0.135v-0.269c0-0.089-0.046-0.315-0.135-0.673 0-0.069 0.069-0.338 0.203-0.807v-0.938h-0.135c-0.095 0.007-0.138 0.053-0.138 0.135zM151.87 24.011v0.135c0 0.325 0.069 0.502 0.203 0.535h0.069v-0.197c-0.003-0.246-0.095-0.404-0.272-0.472zM152.742 6.408c0 0.18-0.046 0.269-0.135 0.269l0.069 0.469v0.269l-0.738 0.607v0.069c0 0.069 0.069 0.135 0.203 0.203h0.469l0.269-0.203-0.069-0.472c0.046-0.558 0.069-0.892 0.069-1.007-0.046-0.089-0.069-0.157-0.069-0.203h-0.069zM152.273 25.625c0.069 0.18 0.135 0.269 0.2 0.269v-0.472c-0.033 0-0.102 0.069-0.2 0.203zM152.808 5.939v0.269h0.069c0.046-0.157 0.069-0.246 0.069-0.269h-0.138z"></path>
<path d="M155.699 3.248h0.069c0.089 0 0.312 0.046 0.673 0.135 0.338-0.089 0.561-0.135 0.673-0.135 0.404 0.089 0.692 0.135 0.873 0.135s0.469-0.046 0.873-0.135l0.604 0.069c0.302-0.046 0.548-0.069 0.742-0.069l0.135 0.203-0.338 0.876c0.046 0.492 0.069 0.915 0.069 1.276v1.211c0 0.069-0.046 0.423-0.135 1.073v1.746c0 0.315 0.046 0.561 0.135 0.742-0.092 0.358-0.138 0.781-0.138 1.273v0.135c0 0.158 0.046 0.538 0.135 1.145-0.135 0.525-0.203 1.355-0.203 2.487v1.342h0.069c0.089 0 0.18-0.18 0.269-0.538-0.046-0.377-0.069-0.692-0.069-0.938v-0.876c0.604-1.522 1.076-2.375 1.411-2.553 0.177-0.594 0.961-2.024 2.349-4.301 0-0.144 0.381-0.817 1.142-2.015l0.807-1.411-0.069-0.338v-0.066c0-0.315 0.135-0.472 0.404-0.472 0.112 0 0.292 0.023 0.538 0.069 0.246-0.046 0.423-0.069 0.538-0.069l0.472 0.135c0.167-0.089 0.348-0.135 0.538-0.135h3.025c0.089 0.013 0.135 0.059 0.135 0.135v0.203c0 0.059-0.404 0.502-1.211 1.342-0.203 0.515-1.23 2.353-3.091 5.512-0.492 0.951-0.873 1.624-1.142 2.015-0.279 0.427-0.571 0.988-0.876 1.68-0.223 0.236-0.335 0.463-0.335 0.673v0.069c0.715 1.657 1.076 2.576 1.076 2.756 0.492 0.85 0.761 1.499 0.807 1.949 0.581 1.073 0.873 1.68 0.873 1.814 0.236 0.83 0.594 1.657 1.076 2.487 1.211 2.966 1.903 4.58 2.083 4.84 0.089 0 0.315 0.269 0.673 0.804 0.135 0.046 0.2 0.18 0.2 0.404v0.069c0 0.089-0.046 0.135-0.135 0.135h-0.607l-0.404-0.069c-0.046 0-0.066 0.023-0.066 0.069-0.528-0.046-0.909-0.069-1.142-0.069h-1.749c-0.236 0-0.617 0.023-1.142 0.069l-0.2-0.276v-0.673c0-0.354-0.2-0.873-0.604-1.545 0-0.144-0.315-0.886-0.942-2.218l-1.007-2.352-1.48-3.56c-0.157-0.046-0.246-0.069-0.269-0.069-0.144 0.594-0.259 0.929-0.335 1.007-0.348 0.732-0.82 1.536-1.411 2.418-0.089 0.18-0.135 0.427-0.135 0.741v0.673c0.089 0.758 0.135 1.184 0.135 1.276v2.622c0 0.548 0.112 1.086 0.338 1.611v0.135c0 0.069-0.089 0.135-0.269 0.203-0.394-0.046-0.64-0.069-0.738-0.069-0.203 0-0.338 0.023-0.404 0.069-0.381-0.046-0.696-0.069-0.942-0.069h-1.211c-0.236 0-0.617 0.023-1.142 0.069l-0.2-0.269c0-0.135 0.157-0.607 0.472-1.411-0.046-0.472-0.069-0.741-0.069-0.807 0.089-0.404 0.135-0.696 0.135-0.873v-2.622c0-0.236-0.023-0.44-0.069-0.607 0.046-0.233 0.069-0.459 0.069-0.673v-3.087c-0.092-0.65-0.135-1.007-0.135-1.076 0-0.023 0.046-0.358 0.135-1.007v-1.48c0-1.824-0.046-3.147-0.135-3.963 0.089-0.18 0.135-0.427 0.135-0.742v-2.48c-0.089-0.65-0.135-1.011-0.135-1.076v-1.142c0.089-0.65 0.135-1.011 0.135-1.076v-1.207c0-0.194-0.18-0.505-0.538-0.942v-0.135c0-0.069 0.066-0.135 0.2-0.203zM156.64 4.124l0.069 0.338h0.069l0.069-0.269-0.135-0.069h-0.072zM156.909 23.069l0.069 0.338c-0.135 0.302-0.203 0.548-0.203 0.741v0.131c0.010 0.089 0.056 0.135 0.135 0.135 0-0.046 0.089-0.18 0.269-0.404v-0.135l0.404-3.16-0.069-0.404 0.069-0.604-0.069-0.404c-0.315 0.249-0.515 1.503-0.604 3.763zM156.84 24.815l-0.069 0.338c0.010 0.089 0.056 0.135 0.135 0.135l0.069-0.135-0.069-0.338h-0.066zM157.044 26.498l0.069 0.269-0.069 0.938c0.046 0.246 0.069 0.427 0.069 0.538h0.069v-1.745h-0.138zM157.109 28.581v0.669h0.069v-0.669h-0.069zM157.513 10.506l-0.069 0.338c0.046 0.65 0.069 1.004 0.069 1.073h0.069l0.069-0.338v-1.073h-0.138zM157.713 13.331l-0.069 0.469v0.538c0 0.046-0.023 0.069-0.069 0.069 0.135 0.358 0.203 0.65 0.203 0.876h0.069c0.089 0 0.135-0.046 0.135-0.135v-1.683c0-0.089-0.046-0.135-0.135-0.135h-0.135zM157.782 25.422v1.745h0.069c0-1.253 0.157-1.88 0.472-1.88-0.046-0.538-0.069-0.938-0.069-1.207 0-0.157 0.112-0.358 0.335-0.607 0-0.233-0.023-0.617-0.069-1.142-0.079 0.003-0.325 1.030-0.738 3.091zM157.782 28.716v0.269c0.010 0.089 0.056 0.131 0.135 0.131v-0.066l-0.069-0.335h-0.066zM158.117 16.484v3.225h0.069c0.043-0.525 0.069-0.906 0.069-1.145v-2.080h-0.138zM158.451 27.167v1.145h0.135v-0.472l-0.066-0.673h-0.069zM158.858 11.044l-0.069 0.338c0.046 0.075 0.069 0.167 0.069 0.266h0.069v-0.604h-0.069zM158.993 7.346c0 0.069 0.023 0.338 0.069 0.807 0 0.325-0.046 1.020-0.135 2.083 0.112 0 0.203-0.18 0.269-0.538v-1.88c0-0.223 0.089-0.472 0.269-0.738 0.046-1.099 0.069-1.975 0.069-2.622v-0.066l-0.069-0.472c-0.125 0-0.233 0.919-0.335 2.756-0.062 0-0.105 0.226-0.138 0.669zM160.938 15.142v0.069h0.069l0.203-0.742c-0.125 0-0.217 0.226-0.272 0.673zM161.811 15.68l-0.673 1.746 0.135 0.069c0.102-0.069 0.279-0.404 0.538-1.011h0.203c0.135 0 0.203 0.157 0.203 0.472h0.069v-0.538c-0.003-0.269-0.161-0.512-0.476-0.738zM161.545 13.666h0.2l0.269-0.203c-0.089-0.338-0.135-0.65-0.135-0.942h-0.069c-0.121 0-0.213 0.384-0.266 1.145zM165.305 10.64v0.203h0.069v-0.203h-0.069zM167.927 4.662c0 0.203-0.089 0.423-0.269 0.669v1.414c0.089 0.646 0.135 1.007 0.135 1.073 0.089 0 0.135-0.046 0.135-0.135v-0.738c0-0.102 0.069-0.394 0.203-0.876-0.089-0.45-0.135-0.742-0.135-0.876 0.046-0.243 0.069-0.423 0.069-0.535h-0.138zM167.792 23.945v0.203h0.069v-0.203h-0.069zM167.996 27.774v0.807c0.089 0 0.135-0.046 0.135-0.135v-0.673h-0.135z"></path>
<path d="M172.698 3.248c0.135 0 0.312 0.046 0.538 0.135 0.315-0.089 0.561-0.135 0.742-0.135l0.873 0.135c0.289-0.089 0.492-0.135 0.604-0.135h1.276c0.144 0 0.459 0.046 0.942 0.135 0.135 0 0.315-0.046 0.538-0.135 0.223 0 0.335 0.023 0.335 0.069 0.961-0.046 1.68-0.069 2.149-0.069h4.367c0.404 0 0.607 0.472 0.607 1.414 0.223 1.522 0.338 2.51 0.338 2.953l-0.269 0.135c-0.348-0.046-0.705-0.203-1.076-0.472l-0.135 0.069h-0.538c-0.157 0-0.358-0.023-0.604-0.069-0.089 0.046-0.157 0.069-0.203 0.069-0.135 0-0.203-0.023-0.203-0.069-0.446 0.046-0.784 0.069-1.007 0.069h-2.149c-0.056 0-0.302-0.046-0.738-0.135h-0.472c-0.089 0-0.312 0.046-0.673 0.135-0.223-0.075-0.338-0.19-0.338-0.335 0.089-0.751 0.246-1.467 0.472-2.149-0.089-0.427-0.135-0.761-0.135-1.011v-0.066c-0.315-0.046-0.492-0.069-0.538-0.069l-0.069 0.135v0.876l-0.131 1.211c0.089 0.594 0.177 0.952 0.269 1.076 0 0.056-0.246 0.413-0.738 1.073v0.135c0 0.315 0.046 0.561 0.135 0.742-0.089 0.18-0.135 0.427-0.135 0.738v1.414c0 0.18 0.046 0.469 0.135 0.873-0.089 0.417-0.135 0.663-0.135 0.742 0 0.538 0.472 0.896 1.411 1.073 0.079 0 0.256-0.043 0.538-0.131l0.404 0.066c1.086 0 2.070-0.177 2.956-0.535h0.269c0.089 0.010 0.135 0.056 0.135 0.135v0.338c0 0.154 0.023 0.354 0.069 0.604-0.089 0.18-0.135 0.338-0.135 0.472 0.046 0.135 0.089 0.203 0.135 0.203l-0.069 0.472v2.149l0.069 0.472-0.203 0.131h-0.135c-0.906-0.354-1.424-0.535-1.545-0.535-0.312 0.046-0.492 0.069-0.538 0.069-0.079 0-0.394-0.069-0.942-0.203-0.167 0.089-0.348 0.135-0.538 0.135-0.046 0-0.112-0.023-0.2-0.069-0.18 0.046-0.338 0.069-0.472 0.069l-0.269-0.082c-0.144 0.089-0.279 0.135-0.404 0.135h-0.135l-0.203-0.135c0.056-1.736 0.144-2.809 0.269-3.225-0.033-0.269-0.167-0.404-0.404-0.404-0.089 0.148-0.135 0.259-0.135 0.338-0.046 1.378-0.069 2.274-0.069 2.687-0.089 0.292-0.135 0.492-0.135 0.607v0.069c0.348 0 0.548 0.089 0.607 0.269l-0.404 0.535c0.046 2.149 0.069 3.809 0.069 4.974v1.545c0 0.203 0.18 0.584 0.538 1.145l0.469-0.069h0.069c0.157 0 0.358 0.023 0.607 0.069l0.469-0.135c0.751 0.046 1.332 0.069 1.745 0.069h1.68c0.19 0 0.371 0.023 0.538 0.069 0.18-0.046 0.358-0.069 0.538-0.069h1.142c0.167 0 0.548-0.135 1.142-0.404h0.135c0.069 0 0.135 0.069 0.203 0.203-0.246 2.779-0.472 4.167-0.673 4.167-0.079 0.046-0.167 0.069-0.269 0.069h-2.083c-1.913 0-3.393 0.023-4.436 0.069-0.886-0.046-2.274-0.069-4.167-0.069h-0.807c-0.223 0-0.338-0.046-0.338-0.135-0.223 0.135-0.404 0.203-0.538 0.203h-0.203c-0.102 0-0.167-0.112-0.203-0.338 0.269-0.682 0.404-1.109 0.404-1.276 0-0.66-0.023-1.109-0.069-1.345 0.046-0.929 0.069-1.778 0.069-2.549v-1.834c0-0.66-0.023-1.109-0.069-1.342 0.046-0.472 0.069-0.988 0.069-1.545v-4.836c0-0.158-0.023-0.358-0.069-0.607 0.046-0.089 0.069-0.158 0.069-0.203l-0.069-0.804 0.069-0.942c0-0.345-0.023-0.659-0.069-0.942 0.046-1.486 0.069-2.789 0.069-3.898v-2.484l-0.069-0.335h0.069l-0.404-1.28v-0.066c0.102-0.177 0.236-0.269 0.413-0.269zM173.236 4.055v0.269l0.472 2.284h0.069c0.046-0.157 0.069-0.246 0.069-0.269 0-0.213-0.135-0.863-0.404-1.949 0-0.223-0.046-0.338-0.135-0.338h-0.072zM173.37 9.499l-0.135 0.269c0 1.053 0.135 1.791 0.404 2.218l-0.203 1.142 0.404 1.949v0.607c0.033 0.266 0.102 0.4 0.2 0.4 0-0.22 0.023-0.335 0.069-0.335-0.079-0.292-0.167-1.030-0.269-2.218v-1.818c0-0.112-0.112-0.558-0.338-1.342l0.069-0.338c0-0.335-0.066-0.515-0.2-0.535zM173.505 27.37c0 0.135-0.023 0.203-0.069 0.203 0.046 0.089 0.069 0.157 0.069 0.203h0.069v-0.407h-0.069zM173.774 7.015c0 0.023-0.023 0.112-0.069 0.266 0 0.203 0.18 0.965 0.538 2.284 0.269 1.332 0.404 2.431 0.404 3.294h-0.069l0.069 0.135v0.135c0 0.046-0.023 0.069-0.069 0.069 0.069 0.18 0.135 0.269 0.203 0.269 0-0.046 0.023-0.069 0.069-0.069 0-0.046-0.023-0.112-0.069-0.203 0.046-0.988 0.112-1.703 0.203-2.149-0.315 0-0.584-1.099-0.807-3.294-0.046 0-0.157-0.246-0.335-0.738h-0.069zM174.715 3.652l-0.069 0.135c0.135 0.607 0.203 1.030 0.203 1.276v0.742c0.010 0.089 0.056 0.135 0.135 0.135v-0.81c0-0.135 0.069-0.4 0.2-0.804-0.059-0.446-0.213-0.673-0.469-0.673zM174.984 26.229l-0.069 0.338v0.938h0.069c0-0.581 0.089-0.984 0.269-1.207l-0.135-0.069h-0.135zM175.519 27.909v0.069c0 0.246 0.023 0.561 0.069 0.942-0.046 0.075-0.069 0.167-0.069 0.266h0.135v-0.135c0-0.144 0.023-0.256 0.069-0.335-0.046-0.538-0.115-0.807-0.203-0.807zM175.723 14.604v0.472c0.089 0 0.135-0.046 0.135-0.135l-0.069-0.338h-0.066zM175.992 3.99v0.807c0.269 0.279 0.404 0.548 0.404 0.804 0.102 0 0.167-0.157 0.203-0.472l-0.069-0.804h0.069c-0.046-0.358-0.157-0.538-0.338-0.538-0.18 0.069-0.269 0.135-0.269 0.203zM177.334 26.632c0 0.023-0.046 0.354-0.135 1.007v0.404h0.135c0.18-0.673 0.269-1.053 0.269-1.145v-0.131c0-0.089-0.046-0.135-0.135-0.135h-0.135zM178.006 14.469c-0.18 0.089-0.269 0.83-0.269 2.218-0.089 0.013-0.135 0.059-0.135 0.135v0.203h0.135c0.223-0.584 0.338-0.896 0.338-0.942s-0.046-0.269-0.138-0.673c0.135-0.236 0.203-0.463 0.203-0.673v-0.135c0-0.089-0.046-0.135-0.135-0.135zM178.679 3.99c0 0.784-0.112 1.68-0.335 2.687l0.135 0.203c0.538-0.046 0.807-0.112 0.807-0.203 0.046-1.48 0.112-2.218 0.203-2.218-0.089-0.338-0.135-0.561-0.135-0.673h-0.538c-0.095 0-0.138 0.069-0.138 0.203zM178.476 28.378c0.046 0.089 0.069 0.157 0.069 0.203h0.135c0.102-0.046 0.279-0.358 0.538-0.942 0.223-0.056 0.335-0.121 0.335-0.203v-0.335c0-0.069-0.066-0.135-0.2-0.203-0.213 0-0.413 0.358-0.607 1.076-0.033 0-0.125 0.135-0.269 0.404zM178.679 16.284c0.125 0 0.279-0.246 0.472-0.738l-0.069-0.135v-0.469c0-0.112 0.046-0.315 0.135-0.607l-0.135-0.069h-0.069c-0.112 0.003-0.223 0.676-0.335 2.018zM179.283 16.418l-0.069 0.338v0.069c0.010 0.089 0.056 0.135 0.135 0.135 0-0.046 0.023-0.223 0.069-0.538h-0.135z"></path>
<path d="M188.975 3.183l0.807 0.203c0.404-0.089 0.696-0.135 0.873-0.135 0.135 0 0.292 0.046 0.472 0.135 0.167-0.089 0.348-0.135 0.538-0.135h0.2c0.83 0 1.322 0.627 1.48 1.88 0.223 0.135 0.715 1.188 1.48 3.16l1.68 4.032c0 0.102 0.112 0.367 0.338 0.807 0 0.135 0.269 0.781 0.807 1.949 0.089 0.65 0.246 1.027 0.472 1.142 0 0.112 0.269 0.741 0.807 1.88 0.046 0.673 0.157 1.011 0.338 1.011h0.135c0.135-0.046 0.2-0.18 0.2-0.404v-2.425c0-0.479 0.023-0.863 0.069-1.142-0.046-0.325-0.069-0.728-0.069-1.211v-3.156c-0.089-0.65-0.135-1.011-0.135-1.076v-1.745c0-0.315 0.046-0.561 0.135-0.742-0.089-0.335-0.135-0.512-0.135-0.535 0.089-0.338 0.135-0.65 0.135-0.942v-0.607c0-0.144-0.2-0.682-0.604-1.611v-0.066c0.144-0.135 0.259-0.203 0.338-0.203 0.177 0 0.269 0.023 0.269 0.069l0.807-0.069h3.425c0.069 0 0.135 0.069 0.203 0.203v0.203c-0.18 0.167-0.335 0.617-0.469 1.342l0.069 0.807v1.28c0 0.056-0.046 0.302-0.135 0.738v2.891c0 0.315 0.046 0.561 0.135 0.742-0.046 0.243-0.069 0.423-0.069 0.535 0 0.102 0.023 0.194 0.069 0.269l-0.085 0.466c0 0.144 0.023 0.525 0.069 1.142l-0.138 0.538 0.135 0.607c-0.089 0.18-0.135 0.427-0.135 0.742v2.349c0 0.482 0.023 0.889 0.069 1.211-0.046 0.279-0.069 0.66-0.069 1.142v0.135c0 0.292 0.046 1.188 0.135 2.687-0.089 0.404-0.135 0.696-0.135 0.876v0.472l-0.203 0.266v0.538l0.135 0.203v0.059c0 0.125-0.046 0.256-0.135 0.404 0.046 0.997 0.089 1.601 0.135 1.814-0.046 0.079-0.069 0.502-0.069 1.276 0.069 0 0.246 0.203 0.538 0.607v0.131l-0.135 0.203-0.807-0.069h-0.404c-0.413 0-0.997 0.023-1.749 0.069-0.089-0.046-0.157-0.069-0.203-0.069-0.177 0.046-0.335 0.069-0.469 0.069-0.213 0-0.413-0.315-0.607-0.942-0.2-0.279-0.673-1.375-1.411-3.291-0.144-0.18-1.289-2.891-3.425-8.13-0.325-0.627-0.594-1.28-0.807-1.949-0.381-1.043-0.627-1.578-0.742-1.614v-0.6c0-0.171-0.112-0.348-0.335-0.538v-0.203c0-0.036 0.112-0.148 0.335-0.338v-0.2l-0.335 0.069c-0.069 0-0.269-0.158-0.607-0.472-0.135 0.482-0.203 0.771-0.203 0.876v0.069c0.089 0.761 0.135 1.184 0.135 1.276v0.807c0 0.144-0.046 0.459-0.135 0.938 0.144 0.404 0.236 0.607 0.269 0.607-0.046 0.607-0.069 1.053-0.069 1.345v0.738c0 0.807-0.023 1.591-0.069 2.352 0.046 0.394 0.069 0.728 0.069 1.011-0.046 0.817-0.069 1.332-0.069 1.545l0.069 0.607c-0.135 0.617-0.203 0.997-0.203 1.142 0.135 0.223 0.203 0.45 0.203 0.673v0.135c0 0.627-0.023 1.476-0.069 2.553 0.010 0.315 0.213 0.715 0.607 1.207v0.125c0 0.023-0.046 0.089-0.135 0.203-0.528-0.046-0.906-0.069-1.142-0.069h-2.553c-0.236 0-0.617 0.023-1.142 0.069-0.089-0.144-0.135-0.279-0.135-0.404l0.742-1.142c-0.046-0.673-0.069-1.165-0.069-1.48v-0.604c0-0.213 0.023-0.44 0.069-0.673-0.135-0.728-0.203-2.943-0.203-6.651v-3.094c0-0.354 0.023-0.827 0.069-1.411-0.046-0.075-0.069-0.19-0.069-0.338l0.069-0.607c0-0.043-0.023-0.22-0.069-0.535 0.046-0.305 0.069-0.548 0.069-0.742 0-0.223-0.046-0.338-0.135-0.338 0.046-0.738 0.069-1.299 0.069-1.68v-2.756c0-0.046 0.046-0.223 0.135-0.538-0.089-0.144-0.135-0.279-0.135-0.4 0-0.079 0.089-0.282 0.269-0.607-0.089-0.256-0.177-0.906-0.269-1.949-0.033 0-0.144-0.18-0.338-0.538v-0.19c0.013-0.144 0.394-0.236 1.155-0.269zM189.041 5.128l-0.269 1.011v0.203l0.069 0.404c-0.089 0.18-0.135 0.338-0.135 0.469 0.089 0.148 0.135 0.259 0.135 0.338h0.135c0.046-0.404 0.089-1.184 0.135-2.353v-0.072h-0.069zM189.041 24.618c0.089 0.279 0.135 0.459 0.135 0.535h0.069c0.177-1.244 0.269-2.205 0.269-2.887v-0.404c-0.213 0-0.371 0.915-0.472 2.756zM189.779 27.302c-0.18 0.463-0.335 1.020-0.469 1.683v0.469c0.010 0.089 0.056 0.135 0.135 0.135 0-0.358 0.135-0.938 0.404-1.745v-0.541h-0.069zM189.713 3.721l-0.135 0.2c0.19 0.056 0.325 0.167 0.404 0.338v1.276h0.069l0.069-0.338v-0.269c0-0.233-0.023-0.617-0.069-1.142l-0.338-0.066zM189.779 26.163v0.269h0.069v-0.269h-0.069zM190.117 15.68v0.604c0.089 0 0.135-0.046 0.135-0.135v-0.335c0-0.089-0.046-0.135-0.135-0.135zM191.055 3.786c-0.135 0.269-0.269 1.814-0.404 4.636-0.089 0.315-0.223 1.027-0.404 2.149l0.069 0.472c-0.046 1.244-0.069 2.251-0.069 3.022l0.135 0.069 0.135-0.469v-0.673c0.033-0.269 0.102-0.404 0.2-0.404l-0.069-0.673c0.223-2.595 0.338-4.187 0.338-4.771 0.089 0 0.18-0.604 0.269-1.814v-1.142c0.003-0.236-0.066-0.371-0.2-0.404zM190.386 29.050h0.135v-0.131c-0.089 0.007-0.135 0.052-0.135 0.131zM190.72 17.764v0.269h0.135v-0.135c0-0.089-0.046-0.135-0.135-0.135zM190.989 18.971c0.033 0.492 0.102 0.741 0.203 0.741 0.223-0.817 0.338-1.244 0.338-1.28v-0.2l-0.541 0.738zM191.124 20.651l-0.069 0.472v1.076c0.010 0.089 0.056 0.135 0.135 0.135h0.069v-0.069c0-0.079-0.023-0.617-0.069-1.614h-0.066zM191.19 12.79c-0.046 0.233-0.069 0.367-0.069 0.404l0.069 0.338c-0.046 0-0.069 0.023-0.069 0.069h0.135v-0.81h-0.066zM191.596 7.75v0.069c0 1.299-0.069 2.083-0.203 2.353 0.046 0.246 0.069 0.427 0.069 0.538-0.089 0.607-0.135 0.984-0.135 1.142v0.135h0.069c0.112 0 0.203-0.269 0.269-0.804-0.046-0.236-0.069-0.463-0.069-0.673l0.269-0.807c0-0.571 0.112-1.867 0.338-3.898 0-0.033 0.112-0.459 0.338-1.276-0.079-0.259-0.213-0.463-0.404-0.607-0.223 0-0.338 1.050-0.338 3.16-0.049 0-0.118 0.223-0.203 0.669zM192.869 5.735c0 0.089-0.023 0.135-0.066 0.135l0.066 0.338v0.135c-0.19 1.499-0.302 2.284-0.335 2.352 0 0.046 0.023 0.069 0.069 0.069 0 0.561-0.135 1.207-0.404 1.949-0.046 0.246-0.069 0.427-0.069 0.538 0.046 0.089 0.069 0.158 0.069 0.203h0.069c0.404-1.165 0.604-1.975 0.604-2.418 0.089-0.45 0.18-0.719 0.269-0.807-0.089-0.203-0.135-0.427-0.135-0.673l0.203-0.669v-0.276c-0.003-0.584-0.115-0.876-0.341-0.876zM192.869 11.313c0 0.135 0.089 0.446 0.269 0.938h0.069l0.069-0.338-0.069-0.804h-0.135c-0.069 0.003-0.135 0.069-0.203 0.203zM196.098 13.866v0.269l0.066 0.338h0.069c0-0.135 0.023-0.203 0.069-0.203-0.059-0.269-0.128-0.404-0.203-0.404zM196.229 15.345v0.269h0.069v-0.269h-0.069zM196.567 18.367v0.135c0.010 0.089 0.056 0.135 0.135 0.135l0.069-0.135v-0.135h-0.203zM196.567 19.778v0.203h0.135c-0.046-0.089-0.069-0.157-0.069-0.203h-0.066zM198.985 26.094v0.203h0.203v-0.069c0-0.089-0.046-0.135-0.135-0.135h-0.069zM202.076 21.661v2.891h0.069c0-0.315 0.023-0.472 0.069-0.472l-0.069-0.135v-2.015c0-0.046 0.023-0.069 0.069-0.069-0.046-0.089-0.069-0.157-0.069-0.203h-0.069zM202.076 24.749v1.48h0.069c0-0.089 0.023-0.135 0.069-0.135l-0.069-0.135v-0.604c0-0.046 0.023-0.069 0.069-0.069-0.046-0.046-0.069-0.223-0.069-0.538h-0.069z"></path>
</svg>
