<!-- Generated by IcoMoon.io -->
<svg version="1.1" xmlns="http://www.w3.org/2000/svg" width="151" height="32" viewBox="0 0 151 32">
<title>toekomst</title>
<path d="M1.367 1.234h1.050c2.011 0.35 3.136 0.525 3.373 0.525 0.549-0.2 0.9-0.3 1.050-0.3h1.799c0.462 0 1.112-0.024 1.949-0.075 0.1 0.050 0.175 0.075 0.225 0.075l0.525-0.075c0.137 0 0.637 0.025 1.499 0.075 0.075 0 0.3-0.049 0.674-0.149l0.525 0.075c0.163-0.1 0.312-0.149 0.449-0.149 0.087 0 0.212 0.050 0.376 0.149 0.324-0.1 0.549-0.149 0.674-0.149h0.149c0.45 0 0.674 0.2 0.674 0.6 0 1.362 0.075 2.636 0.225 3.823v0.149c-0.1 0.2-0.25 0.3-0.449 0.3-0.438-0.349-0.813-0.525-1.125-0.525h-0.826c-0.075 0-0.475 0.049-1.199 0.149-0.313-0.1-0.512-0.149-0.6-0.149-1 0.125-1.499 0.25-1.499 0.375l0.075 0.3c-0.149 0-0.25 1-0.3 2.999l0.225 0.525c-0.101 0.35-0.15 0.625-0.15 0.824l0.076 0.45c-0.050 0.275-0.076 0.549-0.076 0.824 0 0.237 0.025 0.488 0.076 0.75-0.050 0.262-0.076 0.412-0.076 0.449 0.049 0.562 0.076 1.087 0.076 1.574 0 0.050-0.025 0.125-0.076 0.225 0.1 0.2 0.15 0.475 0.15 0.824 0 0.262-0.025 0.488-0.075 0.674 0.049 0.325 0.075 0.65 0.075 0.974v0.3c0 1.498-0.075 2.248-0.225 2.248l0.075 0.15v0.974c0 0.35 0.049 0.625 0.15 0.825l-0.15 0.525c0.1 0.25 0.15 0.424 0.15 0.525-0.050 0.662-0.075 1.212-0.075 1.649 0 0.101-0.025 0.149-0.076 0.149l0.076 0.375v0.975c0 0.212-0.025 0.487-0.076 0.825l0.15 0.375c-0.101 0.225-0.15 0.55-0.15 0.974v0.525c0 0.149 0.225 0.85 0.674 2.099-0.075 0.2-0.149 0.3-0.225 0.3h-4.421c-0.549 0-0.824-0.075-0.824-0.225v-0.225l0.449-1.425v-0.824c0-0.112 0.025-0.213 0.075-0.3-0.049-0.087-0.075-0.188-0.075-0.3v-0.225c0-0.449 0.025-0.749 0.075-0.9-0.049-0.438-0.075-0.813-0.075-1.125v-1.050c0-0.387 0.025-0.736 0.075-1.049-0.049-0.249-0.075-0.573-0.075-0.974v-0.225c0-0.163 0.025-0.288 0.075-0.375l-0.149-1.199c0.049-0.437 0.075-0.812 0.075-1.125v-0.149c0-0.287-0.025-0.687-0.075-1.199l0.149-0.375-0.075-0.674 0.075-1.049-0.149-0.9c0.049-0.262 0.075-0.512 0.075-0.75v-0.3l0.225-0.3c-0.2-0.25-0.3-0.4-0.3-0.449 0.049-0.949 0.1-1.425 0.149-1.425l-0.075-0.375v-3.073c0-0.175 0.025-0.4 0.075-0.674 0-1.449-0.4-2.174-1.199-2.174-0.375-0.1-0.725-0.15-1.049-0.15h-0.6c-0.2 0-0.525 0.049-0.974 0.149-0.326-0.099-0.65-0.149-0.975-0.149-0.625 0.049-0.949 0.075-0.974 0.075-0.1-0.162-0.149-0.287-0.149-0.375 0.25-1.561 0.375-2.611 0.375-3.148v-0.225c0-0.275 0.149-0.5 0.449-0.674zM7.664 8.355l-0.225 0.3v0.149c0 0.037 0.049 0.237 0.149 0.6v0.075c-0.299 0.426-0.449 0.85-0.449 1.275 0.049 0.088 0.075 0.188 0.075 0.3 0.149 0 0.349-0.574 0.6-1.724v-0.824c0-0.1-0.049-0.15-0.149-0.15zM7.139 11.728v0.45h0.15v-0.45h-0.15zM7.215 22.897c0 0.049-0.025 0.124-0.075 0.225 0.049 0.55 0.125 1.15 0.225 1.798-0.050 0.262-0.075 0.413-0.075 0.45 0.049 0.1 0.075 0.175 0.075 0.225 0.075 0 0.149-0.075 0.225-0.225v-1.499c0-0.188-0.1-0.512-0.3-0.974h-0.076zM7.215 12.553v0.375l0.225 0.3v0.3l0.075 0.749h0.075c0-0.037 0.025-0.188 0.075-0.449 0-0.288-0.125-0.713-0.375-1.274h-0.075zM7.439 14.652l-0.149 0.525c0.349 0.8 0.525 1.274 0.525 1.425v0.525c0.012 0.1 0.063 0.149 0.149 0.149l0.075-0.149v-0.149c0-0.337-0.175-1.012-0.525-2.023v-0.3h-0.075zM7.439 17.65c0 0.199-0.025 0.3-0.075 0.3l0.075 0.375-0.075 0.449c0.049 0.088 0.075 0.213 0.075 0.375h0.149c0.049-0.499 0.075-0.873 0.075-1.124v-0.375h-0.224zM7.888 28.595l-0.149 0.6c0.063 0.3 0.137 0.449 0.225 0.449l0.075-0.375v-0.525c0-0.099-0.049-0.149-0.15-0.149zM7.813 2.357v0.674c0 0.263 0.1 0.437 0.3 0.525 0.15-0.337 0.25-0.788 0.3-1.349l-0.224-0.149c-0.225 0.1-0.35 0.2-0.376 0.299zM7.888 29.868l-0.075 0.375v0.075c0.049 0 0.125 0.025 0.225 0.075l0.075-0.149-0.075-0.375h-0.15zM8.189 13.377v0.45c0.1 0.65 0.149 1.174 0.149 1.574h0.075v-0.449c-0.050-0.562-0.075-1.062-0.075-1.499l-0.149-0.076zM8.338 18.025l-0.075 0.525v0.974h0.075c0-0.087 0.024-0.536 0.075-1.349v-0.149h-0.075zM8.489 30.018v0.149h0.075v-0.149h-0.075zM8.638 25.296l-0.075 0.149v0.824h0.225l0.149-0.525c-0.1-0.298-0.2-0.448-0.3-0.448zM8.789 4.457v0.749h0.149v-0.9c-0.1 0.012-0.149 0.063-0.149 0.15zM8.789 6.781v0.974c0.012 0.1 0.063 0.15 0.149 0.15 0-0.049 0.025-0.075 0.075-0.075l-0.075-0.15v-0.9h-0.149zM8.789 8.805v0.75h0.075c0.037-0.4 0.087-0.6 0.149-0.6-0.049-0.088-0.075-0.188-0.075-0.301-0.1 0.012-0.149 0.063-0.149 0.15zM9.387 18.174v1.874l-0.075 0.75h0.15c0-0.313 0.175-1.087 0.525-2.324-0.3-0.124-0.449-0.274-0.449-0.449-0.101 0.013-0.151 0.064-0.151 0.149zM9.387 14.951v0.974h0.15c0.149-0.537 0.225-0.862 0.225-0.974v-0.525h-0.075c-0.201 0.075-0.301 0.25-0.301 0.525zM9.688 25.821v1.199l-0.3 2.923h0.15c0.2-0.587 0.3-1.661 0.3-3.222v-0.901h-0.15zM10.138 2.357c0.012 0.1 0.063 0.149 0.149 0.149v-0.149h-0.149zM10.663 4.457c0 0.049-0.025 0.125-0.075 0.225 0.049 0.1 0.075 0.175 0.075 0.225h0.9v-0.45h-0.9zM10.888 2.508v0.149h0.075v-0.149h-0.075zM11.637 2.508v0.525c0.012 0.1 0.063 0.149 0.149 0.149 0-0.125 0.025-0.325 0.075-0.6l-0.149-0.075h-0.075zM12.462 2.059c-0.050 1.312-0.075 2.287-0.075 2.924 0.149 0.050 0.225 0.1 0.225 0.149 0.25 0 0.375-0.774 0.375-2.324 0.049-0.275 0.075-0.5 0.075-0.674l-0.149-0.075h-0.45zM14.111 4.457v0.149h0.075v-0.149h-0.075zM14.71 2.808c-0.101 0.325-0.15 0.55-0.15 0.674v0.075c0.125 0 0.225-0.225 0.3-0.674l-0.149-0.075zM15.61 4.231l-0.375 0.525v0.225c0 0.112 0.225 0.188 0.674 0.225v-0.075c-0.063-0.6-0.163-0.901-0.3-0.901z"></path>
<path d="M19.939 1.234h0.825c0.112 0 0.212 0.025 0.3 0.075 0.087-0.049 0.188-0.075 0.3-0.075l0.525 0.075 0.375-0.075c0.2 0.1 0.349 0.149 0.449 0.149 0.188-0.1 0.413-0.149 0.674-0.149l1.574 0.375h1.125c0.525-0.149 1.099-0.275 1.724-0.375l0.525 0.075 0.3-0.075c0.2 0.050 0.375 0.075 0.525 0.075l0.3-0.075c0.175 0 0.774 0.525 1.799 1.574 0.275 0.3 0.525 0.625 0.749 0.974 0 0.1-0.025 0.149-0.075 0.149 0.049 0.674 0.075 1.175 0.075 1.499 0 0.176-0.049 1.975-0.149 5.397v1.349c0.1 0.849 0.149 1.325 0.149 1.425v4.198c0 0.35-0.049 0.625-0.149 0.824 0.1 0.574 0.149 1.274 0.149 2.099v3.748c-0.1 0.726-0.149 1.125-0.149 1.199v1.499c0 0.324 0.025 0.824 0.075 1.498-0.225 0.388-0.824 1.037-1.799 1.95-0.25 0.35-0.525 0.525-0.825 0.525l-0.375-0.075-0.149 0.075-0.449-0.075h-0.15c-0.112 0-0.212 0.024-0.3 0.075-0.087-0.050-0.212-0.075-0.375-0.075s-0.288 0.024-0.375 0.075c-0.275-0.050-0.5-0.075-0.674-0.075h-1.201l-0.449 0.075c-0.112-0.050-0.438-0.1-0.974-0.149-0.425 0.1-0.7 0.149-0.825 0.149-0.275 0-0.549-0.024-0.824-0.075-0.574 0.050-1.125 0.075-1.649 0.075h-0.6c-0.537 0-0.962-0.275-1.274-0.825-0.225 0-0.674-0.449-1.349-1.349-0.037 0-0.112-0.124-0.225-0.375l0.075-0.9v-1.724c-0.1-1.612-0.149-2.486-0.149-2.624v-4.872c0-0.387 0.024-0.737 0.075-1.049-0.050-0.25-0.075-0.574-0.075-0.974v-1.499c0.1-0.849 0.149-1.325 0.149-1.425v-2.622c-0.149-0.475-0.225-0.85-0.225-1.125 0-1.912 0.075-3.861 0.225-5.848v-0.299c0-0.312 0.275-0.612 0.825-0.9 0.61-1 1.26-1.499 1.948-1.499zM18.664 19.599v0.149h0.075v-0.149h-0.075zM19.038 2.882c0.1 0.413 0.15 0.688 0.15 0.825h0.149c0-0.075-0.025-0.424-0.075-1.050 0.049-0.1 0.075-0.175 0.075-0.225h-0.075c-0.149 0.050-0.225 0.201-0.225 0.45zM19.265 10.754v0.3c0.012 0.1 0.063 0.149 0.149 0.149h0.075l-0.075-0.45h-0.149zM19.789 18.924v0.149l0.075 0.375h0.075v-0.525h-0.149zM19.789 20.124v0.225c0.012 0.1 0.063 0.149 0.149 0.149h0.075v-0.149l-0.075-0.376c-0.1 0.013-0.149 0.063-0.149 0.15zM20.088 7.755l-0.225 0.3 0.149 0.525c0.149 0 0.225-0.25 0.225-0.75l-0.149-0.075zM20.163 23.497c-0.049 0.275-0.075 0.476-0.075 0.6 0.049 0.101 0.075 0.176 0.075 0.225h0.149c0-0.199 0.025-0.3 0.075-0.3-0.1-0.249-0.149-0.424-0.149-0.525h-0.075zM20.163 25.22c0.049 0.426 0.075 0.75 0.075 0.975h0.075c0-0.088 0.049-0.287 0.15-0.6-0.101-0.163-0.15-0.287-0.15-0.376h-0.149zM20.238 26.496v0.675h0.075v-0.675h-0.075zM25.036 5.506h-0.674c-0.725 0.101-1.125 0.15-1.199 0.15h-0.15c-0.049 0-0.25-0.049-0.6-0.15l-0.375 0.076v0.375c0 0.937-0.1 1.637-0.3 2.099l-0.149 15.216h-0.075l0.075 0.149v0.6c0 0.050-0.025 0.075-0.075 0.075l0.075 0.149v1.35c0 0.050-0.025 0.075-0.075 0.075 0.163 0.549 0.462 0.824 0.9 0.824l0.3 0.301-0.075 0.375c0.149 0.475 0.3 1.199 0.45 2.173 0.212 0 0.437 0.375 0.674 1.124h0.075c0.449 0 0.674-0.149 0.674-0.449l-0.075-1.049c0.1-0.162 0.149-0.312 0.149-0.449-0.149-0.188-0.225-0.362-0.225-0.525l0.075-0.375c-0.050-0.25-0.15-0.375-0.3-0.375-0.163 0.1-0.312 0.149-0.449 0.149h-0.225c-0.075 0-0.149-0.075-0.225-0.225v-0.375c0.049-0.149 0.2-0.225 0.449-0.225h0.075c0.137 0 0.288 0.049 0.449 0.149 0.325-0.101 0.549-0.149 0.674-0.149h1.574c0.075 0 0.149 0.075 0.225 0.225l-0.075 0.525c0.1 0 0.175-0.25 0.225-0.749 0.35-0.325 0.525-0.625 0.525-0.901v-0.901c0-0.475 0.024-0.948 0.075-1.424l-0.075-0.375 0.149-3.299c-0.050-0.099-0.075-0.174-0.075-0.225l0.225-0.749-0.075-0.449c0.1-0.325 0.149-0.55 0.149-0.674-0.2-0.225-0.3-0.35-0.3-0.376v-0.375c0-0.049 0.024-0.075 0.075-0.075l-0.075-0.149v-0.3c0-0.163 0.024-0.288 0.075-0.376l-0.075-0.449v-0.674c0-0.049 0.024-0.076 0.075-0.076l-0.075-0.149v-0.749c0-1.537 0.024-3.61 0.075-6.222 0.1-0.349 0.149-0.649 0.149-0.9v-0.822c-0.212 0-0.437-0.075-0.674-0.225-0.2 0.1-0.35 0.149-0.45 0.149-0.749-0.112-1.125-0.312-1.125-0.6-0.222 0.201-0.347 0.301-0.373 0.301zM21.738 28.669v0.449l0.075 0.375h0.075v-0.824h-0.149zM21.962 29.943v0.149h0.075v-0.149h-0.075zM22.562 2.133c0 0.149 0.025 0.225 0.075 0.225l-0.075 0.375v1.050c0 0.25-0.025 0.625-0.075 1.125h0.149c0-0.125 0.075-0.525 0.225-1.199v-1.575c0-0.1-0.049-0.149-0.149-0.149-0.101 0.012-0.15 0.062-0.15 0.149zM23.761 4.307v0.225l0.075 0.375h0.225c-0.1-0.449-0.149-0.7-0.149-0.75-0.101 0.013-0.15 0.064-0.15 0.15zM24.361 1.983c0 0.049-0.025 0.075-0.076 0.075 0.188 0.7 0.388 1.050 0.6 1.050h0.075c-0.074-0.75-0.274-1.125-0.599-1.125zM25.036 3.258v0.075c0.1 0.163 0.149 0.288 0.149 0.375h0.075v-0.15c-0.074-0.199-0.148-0.299-0.224-0.299zM26.386 27.695l-0.075 0.375v0.225h0.149v-0.6h-0.075zM27.36 2.133c0 0.049-0.025 0.075-0.075 0.075 0.049 0.1 0.075 0.175 0.075 0.225 0 0.2 0.024 0.65 0.075 1.349h0.075c0.1 0 0.149-0.049 0.149-0.149-0.049-1-0.148-1.499-0.299-1.499zM27.885 26.196c0 0.4-0.2 0.949-0.6 1.65v0.525c0.012 0.101 0.063 0.149 0.149 0.149 0.4-1.062 0.6-1.811 0.6-2.249l-0.149-0.075zM28.185 29.418h0.15v-0.3c0.249-0.813 0.375-1.386 0.375-1.723v-0.225c-0.35 0.475-0.525 1.226-0.525 2.248zM28.259 19.973h0.15c0.049-0.262 0.075-0.412 0.075-0.449-0.15 0.050-0.225 0.201-0.225 0.449zM28.485 4.082c-0.1 0.163-0.149 0.313-0.149 0.45v0.3h0.149l0.149-0.525v-0.076c0-0.099-0.049-0.149-0.149-0.149zM29.009 16.751c-0.2 0.788-0.375 1.662-0.525 2.623 0.125 0 0.324-0.749 0.6-2.248v-0.375h-0.075zM28.859 5.657l-0.075 0.525c0.075 0.2 0.149 0.3 0.225 0.3v-0.675c-0.001-0.1-0.050-0.149-0.15-0.149zM28.784 23.722v0.075h0.149v-0.225c-0.1 0.013-0.149 0.064-0.149 0.15zM29.009 10.754l-0.075 0.525v1.125h0.149v-1.199l0.075-0.375-0.149-0.076zM29.009 21.247l-0.075 0.75v0.075c0.012 0.1 0.063 0.149 0.149 0.149v-0.975h-0.075zM29.384 27.77v0.449c-0.3 0.824-0.449 1.349-0.449 1.574 0.049 0.201 0.075 0.375 0.075 0.525l0.149-0.075-0.075-0.149v-0.3c0.3-0.812 0.449-1.436 0.449-1.873v-0.149h-0.149zM29.384 19.374c0 0.138-0.125 0.588-0.375 1.35 0.049 0.1 0.075 0.175 0.075 0.225h0.075l0.3-1.499v-0.075h-0.075zM29.009 22.373v0.6h0.075v-0.6h-0.075zM29.684 18.25c0 0.149-0.050 0.325-0.15 0.525h0.076c0.1 0 0.149-0.049 0.149-0.149v-0.375h-0.075zM29.534 25.821v0.449h0.076l0.075-0.449h-0.15zM29.759 2.657v0.149h0.075v-0.149h-0.075zM29.759 17.576v0.449h0.075v-0.449h-0.075zM30.508 18.25c0 0.3-0.225 1.525-0.674 3.674v0.075c0.237-0.112 0.412-0.938 0.525-2.475 0.2-0.174 0.3-0.375 0.3-0.6v-0.525c0-0.1-0.050-0.149-0.15-0.149zM29.909 29.569v0.149h0.225l0.149-0.525v-0.149c-0.063 0-0.188 0.176-0.375 0.525zM30.284 28.369v0.3h0.149l0.075-0.375v-0.075h-0.075c-0.1 0.011-0.149 0.063-0.149 0.149zM30.584 26.871c-0.1 0.162-0.149 0.312-0.149 0.449h0.075c0.075 0 0.149-0.075 0.225-0.225v-0.075c-0.001-0.1-0.050-0.149-0.15-0.149zM30.584 12.553l-0.075 0.375v0.75h0.075l0.075-0.376v-0.749h-0.075zM30.584 22.823l-0.075 0.375v0.149c0.012 0.101 0.063 0.149 0.149 0.149v-0.674h-0.075zM30.808 8.805v0.3h0.15v-0.45c-0.101 0.012-0.15 0.063-0.15 0.15zM31.033 20.498c-0.101 0.425-0.176 1.050-0.225 1.874 0.1 0 0.2-0.6 0.3-1.799v-0.075h-0.075z"></path>
<path d="M34.687 1.158c0.149 0 0.349 0.050 0.6 0.149 0.349-0.1 0.625-0.149 0.824-0.149l0.974 0.149c0.325-0.1 0.549-0.149 0.674-0.149h1.425c0.163 0 0.512 0.050 1.049 0.149 0.15 0 0.35-0.049 0.6-0.149 0.25 0 0.375 0.025 0.375 0.075 1.074-0.049 1.874-0.075 2.399-0.075h4.872c0.449 0 0.674 0.525 0.674 1.574 0.25 1.699 0.376 2.799 0.376 3.298l-0.299 0.15c-0.388-0.049-0.786-0.225-1.199-0.525l-0.149 0.075h-0.6c-0.175 0-0.4-0.025-0.674-0.075-0.1 0.049-0.175 0.075-0.225 0.075-0.149 0-0.225-0.025-0.225-0.075-0.5 0.049-0.874 0.075-1.125 0.075h-2.399c-0.063 0-0.337-0.049-0.824-0.149h-0.525c-0.1 0-0.35 0.049-0.749 0.149-0.25-0.087-0.376-0.212-0.376-0.376 0.1-0.837 0.275-1.637 0.525-2.398-0.1-0.475-0.149-0.85-0.149-1.125v-0.074c-0.35-0.049-0.55-0.075-0.6-0.075l-0.075 0.149v0.974l-0.149 1.349c0.1 0.662 0.2 1.062 0.3 1.199 0 0.063-0.275 0.462-0.824 1.199v0.149c0 0.35 0.049 0.625 0.149 0.825-0.1 0.2-0.149 0.475-0.149 0.825v1.574c0 0.2 0.049 0.525 0.149 0.974-0.1 0.462-0.149 0.737-0.149 0.824 0 0.6 0.525 1 1.574 1.199 0.087 0 0.288-0.049 0.6-0.149l0.45 0.075c1.212 0 2.311-0.2 3.298-0.6h0.3c0.1 0.012 0.149 0.063 0.149 0.149v0.375c0 0.175 0.025 0.4 0.076 0.674-0.101 0.2-0.15 0.375-0.15 0.525 0.049 0.149 0.1 0.225 0.15 0.225l-0.076 0.525v2.399l0.076 0.525-0.225 0.149h-0.149c-1.012-0.4-1.586-0.6-1.724-0.6-0.35 0.050-0.55 0.075-0.6 0.075-0.087 0-0.437-0.075-1.049-0.225-0.188 0.1-0.388 0.149-0.6 0.149-0.049 0-0.125-0.024-0.225-0.075-0.2 0.050-0.375 0.075-0.525 0.075l-0.3-0.075c-0.163 0.1-0.312 0.149-0.449 0.149h-0.149l-0.225-0.149c0.063-1.936 0.163-3.136 0.3-3.597-0.037-0.3-0.188-0.45-0.449-0.45-0.1 0.163-0.149 0.288-0.149 0.376-0.050 1.537-0.075 2.536-0.075 2.999-0.101 0.325-0.15 0.549-0.15 0.674v0.075c0.388 0 0.612 0.101 0.674 0.3l-0.449 0.6c0.049 2.399 0.075 4.247 0.075 5.547v1.724c0 0.225 0.2 0.65 0.6 1.275l0.525-0.075h0.072c0.175 0 0.4 0.024 0.674 0.075l0.525-0.15c0.837 0.050 1.487 0.076 1.95 0.076h1.874c0.212 0 0.413 0.024 0.6 0.075 0.2-0.050 0.4-0.075 0.6-0.075h1.274c0.188 0 0.612-0.15 1.274-0.45h0.149c0.075 0 0.149 0.075 0.225 0.225-0.275 3.099-0.525 4.648-0.75 4.648-0.088 0.050-0.188 0.075-0.3 0.075h-2.324c-2.136 0-3.786 0.024-4.947 0.075-0.987-0.050-2.536-0.075-4.647-0.075h-0.9c-0.25 0-0.375-0.050-0.375-0.149-0.25 0.149-0.45 0.225-0.6 0.225h-0.225c-0.112 0-0.188-0.125-0.225-0.375 0.3-0.762 0.449-1.238 0.449-1.425 0-0.736-0.025-1.237-0.075-1.498 0.049-1.037 0.075-1.987 0.075-2.849v-2.023c0-0.737-0.025-1.237-0.075-1.498 0.049-0.526 0.075-1.101 0.075-1.725v-5.396c0-0.175-0.025-0.4-0.075-0.674 0.049-0.1 0.075-0.175 0.075-0.225l-0.075-0.9 0.075-1.050c0-0.387-0.025-0.737-0.075-1.050 0.049-1.662 0.075-3.111 0.075-4.347v-2.774l-0.075-0.375h0.075l-0.449-1.425v-0.076c0.1-0.199 0.25-0.3 0.449-0.3zM35.287 2.059v0.3l0.525 2.548h0.075c0.049-0.175 0.075-0.275 0.075-0.3 0-0.237-0.149-0.962-0.449-2.174 0-0.25-0.050-0.375-0.149-0.375h-0.076zM35.437 8.129l-0.149 0.301c0 1.174 0.149 1.999 0.449 2.474l-0.225 1.274 0.449 2.174v0.674c0.037 0.3 0.112 0.449 0.225 0.449 0-0.25 0.025-0.375 0.075-0.375-0.087-0.325-0.188-1.15-0.3-2.474v-2.024c0-0.125-0.125-0.625-0.375-1.499l0.075-0.375c0.001-0.375-0.074-0.573-0.224-0.6zM35.587 28.070c0 0.149-0.025 0.225-0.075 0.225 0.049 0.101 0.075 0.176 0.075 0.225h0.075v-0.449h-0.075zM35.886 5.356c0 0.025-0.025 0.125-0.075 0.3 0 0.225 0.2 1.074 0.6 2.548 0.3 1.487 0.449 2.711 0.449 3.673h-0.075l0.075 0.149v0.15c0 0.049-0.025 0.075-0.075 0.075 0.075 0.2 0.149 0.3 0.225 0.3 0-0.049 0.024-0.075 0.075-0.075 0-0.049-0.025-0.125-0.075-0.225 0.049-1.099 0.125-1.899 0.225-2.399-0.35 0-0.65-1.225-0.9-3.673-0.049 0-0.175-0.275-0.375-0.825h-0.076zM36.936 1.608l-0.075 0.15c0.149 0.674 0.225 1.15 0.225 1.425v0.824c0.012 0.1 0.063 0.149 0.149 0.149v-0.899c0-0.149 0.075-0.45 0.225-0.9-0.063-0.5-0.237-0.75-0.525-0.75zM37.236 26.796l-0.075 0.375v1.049h0.075c0-0.65 0.1-1.099 0.3-1.349l-0.149-0.075h-0.15zM37.836 28.669v0.075c0 0.275 0.024 0.625 0.075 1.049-0.050 0.089-0.075 0.188-0.075 0.3h0.149v-0.149c0-0.162 0.024-0.287 0.075-0.375-0.049-0.6-0.124-0.9-0.224-0.9zM38.061 13.827v0.525c0.1 0 0.149-0.049 0.149-0.149l-0.075-0.375h-0.075zM38.361 1.983v0.9c0.3 0.313 0.449 0.612 0.449 0.9 0.112 0 0.188-0.175 0.225-0.525l-0.076-0.9h0.076c-0.050-0.4-0.176-0.6-0.376-0.6-0.199 0.076-0.299 0.15-0.299 0.225zM39.859 27.246c0 0.024-0.049 0.4-0.149 1.124v0.449h0.149c0.2-0.749 0.3-1.174 0.3-1.274v-0.149c0-0.101-0.049-0.149-0.149-0.149h-0.15zM40.609 13.677c-0.2 0.1-0.3 0.925-0.3 2.474-0.1 0.012-0.149 0.063-0.149 0.149v0.225h0.149c0.25-0.65 0.376-1 0.376-1.050s-0.050-0.3-0.149-0.75c0.149-0.262 0.225-0.512 0.225-0.749v-0.149c-0.001-0.1-0.051-0.149-0.151-0.149zM41.358 1.983c0 0.874-0.125 1.874-0.375 2.999l0.149 0.225c0.6-0.049 0.9-0.125 0.9-0.225 0.049-1.649 0.125-2.474 0.225-2.474-0.1-0.375-0.149-0.625-0.149-0.749h-0.6c-0.1 0-0.15 0.075-0.15 0.224zM41.134 29.194c0.049 0.101 0.075 0.176 0.075 0.225h0.149c0.112-0.049 0.312-0.4 0.6-1.049 0.249-0.064 0.375-0.138 0.375-0.225v-0.375c0-0.075-0.075-0.149-0.225-0.225-0.237 0-0.462 0.4-0.674 1.199-0.037-0.001-0.137 0.149-0.299 0.449zM41.358 15.701c0.137 0 0.312-0.275 0.525-0.824l-0.075-0.15v-0.525c0-0.125 0.049-0.349 0.149-0.674l-0.149-0.075h-0.075c-0.125 0-0.25 0.749-0.376 2.248zM42.034 15.851l-0.075 0.376v0.075c0.012 0.1 0.063 0.149 0.149 0.149 0-0.049 0.024-0.25 0.075-0.6h-0.149z"></path>
<path d="M51.76 1.158h0.075c0.1 0 0.349 0.050 0.75 0.149 0.375-0.1 0.625-0.149 0.749-0.149 0.45 0.1 0.774 0.149 0.974 0.149s0.525-0.049 0.974-0.149l0.674 0.075c0.337-0.049 0.612-0.075 0.825-0.075l0.15 0.225-0.375 0.974c0.049 0.55 0.075 1.025 0.075 1.425v1.349c0 0.075-0.050 0.476-0.149 1.199v1.95c0 0.349 0.049 0.625 0.149 0.824-0.1 0.4-0.149 0.874-0.149 1.425v0.149c0 0.176 0.049 0.6 0.149 1.274-0.149 0.588-0.225 1.512-0.225 2.773v1.499h0.075c0.1 0 0.2-0.2 0.3-0.6-0.050-0.424-0.075-0.774-0.075-1.050v-0.974c0.674-1.699 1.199-2.649 1.574-2.849 0.2-0.662 1.074-2.261 2.624-4.797 0-0.163 0.424-0.912 1.274-2.249l0.9-1.574-0.075-0.375v-0.074c0-0.35 0.149-0.525 0.449-0.525 0.125 0 0.325 0.025 0.6 0.075 0.275-0.049 0.475-0.075 0.6-0.075l0.525 0.149c0.188-0.1 0.387-0.149 0.6-0.149h3.373c0.1 0.013 0.149 0.063 0.149 0.149v0.225c0 0.064-0.449 0.562-1.349 1.499-0.225 0.574-1.374 2.624-3.448 6.147-0.55 1.062-0.974 1.811-1.274 2.249-0.313 0.475-0.637 1.099-0.974 1.874-0.25 0.262-0.375 0.513-0.375 0.75v0.075c0.8 1.85 1.199 2.873 1.199 3.073 0.549 0.95 0.849 1.675 0.9 2.174 0.65 1.199 0.974 1.874 0.974 2.025 0.263 0.924 0.662 1.849 1.199 2.772 1.349 3.311 2.124 5.111 2.324 5.397 0.1 0 0.349 0.3 0.749 0.9 0.149 0.052 0.225 0.201 0.225 0.45v0.075c0 0.1-0.050 0.149-0.15 0.149h-0.674l-0.449-0.075c-0.050 0-0.076 0.024-0.076 0.075-0.588-0.050-1.012-0.075-1.274-0.075h-1.95c-0.263 0-0.688 0.024-1.274 0.075l-0.225-0.3v-0.75c0-0.4-0.225-0.974-0.674-1.723 0-0.162-0.349-0.987-1.049-2.474l-1.125-2.624-1.65-3.974c-0.175-0.049-0.275-0.075-0.3-0.075-0.163 0.662-0.288 1.037-0.375 1.125-0.388 0.812-0.912 1.711-1.574 2.699-0.1 0.2-0.149 0.476-0.149 0.824v0.749c0.1 0.85 0.149 1.326 0.149 1.425v2.924c0 0.612 0.125 1.213 0.375 1.799v0.149c0 0.075-0.1 0.149-0.3 0.225-0.438-0.050-0.713-0.075-0.825-0.075-0.225 0-0.375 0.024-0.449 0.075-0.425-0.050-0.775-0.075-1.050-0.075h-1.349c-0.263 0-0.688 0.024-1.274 0.075l-0.225-0.3c0-0.149 0.175-0.675 0.525-1.575-0.049-0.525-0.075-0.824-0.075-0.9 0.1-0.449 0.149-0.775 0.149-0.974v-2.924c0-0.262-0.025-0.487-0.075-0.674 0.049-0.262 0.075-0.512 0.075-0.749v-3.449c-0.1-0.724-0.149-1.124-0.149-1.199 0-0.024 0.049-0.4 0.149-1.125v-1.649c0-2.036-0.049-3.51-0.149-4.422 0.1-0.2 0.149-0.475 0.149-0.825v-2.771c-0.1-0.724-0.149-1.125-0.149-1.199v-1.274c0.1-0.724 0.149-1.125 0.149-1.199v-1.35c0-0.212-0.2-0.562-0.6-1.050v-0.149c0-0.075 0.075-0.149 0.225-0.225zM52.809 2.133l0.075 0.375h0.075l0.075-0.3-0.149-0.075h-0.075zM53.109 23.272l0.075 0.375c-0.149 0.337-0.225 0.612-0.225 0.824v0.149c0.012 0.101 0.063 0.149 0.149 0.149 0-0.049 0.1-0.199 0.3-0.449v-0.149l0.45-3.523-0.075-0.449 0.075-0.675-0.075-0.449c-0.349 0.277-0.574 1.674-0.674 4.198zM53.035 25.22l-0.075 0.376c0.012 0.1 0.063 0.149 0.149 0.149l0.075-0.149-0.075-0.376h-0.075zM53.259 27.095l0.075 0.3-0.075 1.049c0.049 0.275 0.075 0.476 0.075 0.6h0.076v-1.949h-0.15zM53.334 29.418v0.749h0.075v-0.749h-0.075zM53.784 9.254l-0.075 0.376c0.049 0.725 0.075 1.124 0.075 1.199h0.075l0.075-0.376v-1.199h-0.149zM54.009 12.403l-0.075 0.525v0.6c0 0.049-0.025 0.075-0.075 0.075 0.149 0.4 0.225 0.725 0.225 0.974h0.075c0.1 0 0.149-0.049 0.149-0.149v-1.874c0-0.1-0.050-0.149-0.149-0.149h-0.15zM54.083 25.896v1.95h0.075c0-1.4 0.175-2.099 0.525-2.099-0.049-0.601-0.075-1.050-0.075-1.35 0-0.175 0.125-0.4 0.375-0.674 0-0.262-0.025-0.687-0.075-1.274-0.088 0-0.362 1.15-0.825 3.448zM54.083 29.569v0.3c0.012 0.101 0.063 0.149 0.149 0.149v-0.075l-0.075-0.375h-0.075zM54.458 15.926v3.597h0.075c0.049-0.587 0.075-1.012 0.075-1.274v-2.324h-0.149zM54.834 27.845v1.274h0.149v-0.525l-0.075-0.749h-0.075zM55.283 9.854l-0.075 0.375c0.049 0.088 0.075 0.188 0.075 0.3h0.075v-0.674h-0.075zM55.433 5.732c0 0.075 0.024 0.375 0.075 0.9 0 0.362-0.050 1.137-0.149 2.324 0.125 0 0.225-0.2 0.3-0.6v-2.1c0-0.25 0.1-0.525 0.3-0.825 0.049-1.224 0.075-2.199 0.075-2.924v-0.074l-0.075-0.525c-0.137 0-0.263 1.025-0.375 3.073-0.064 0-0.113 0.25-0.15 0.75zM57.607 14.427v0.075h0.076l0.225-0.824c-0.138 0-0.238 0.249-0.301 0.749zM58.581 15.026l-0.749 1.949 0.149 0.075c0.112-0.075 0.312-0.449 0.6-1.125h0.225c0.15 0 0.225 0.176 0.225 0.525h0.075v-0.599c0-0.3-0.176-0.574-0.525-0.825zM58.282 12.778h0.225l0.3-0.225c-0.1-0.375-0.149-0.725-0.149-1.050h-0.075c-0.138 0.001-0.238 0.425-0.301 1.275zM62.48 9.404v0.225h0.075v-0.225h-0.075zM65.402 2.733c0 0.225-0.1 0.476-0.3 0.75v1.574c0.1 0.725 0.149 1.125 0.149 1.199 0.1 0 0.149-0.049 0.149-0.149v-0.826c0-0.112 0.075-0.437 0.225-0.974-0.101-0.5-0.15-0.825-0.15-0.974 0.049-0.275 0.076-0.475 0.076-0.6h-0.149zM65.253 24.246v0.225h0.075v-0.225h-0.075zM65.478 28.52v0.9c0.1 0 0.15-0.049 0.15-0.149v-0.749h-0.15z"></path>
<path d="M73.273 1.234h0.825c0.112 0 0.212 0.025 0.3 0.075 0.087-0.049 0.188-0.075 0.3-0.075l0.525 0.075 0.375-0.075c0.2 0.1 0.349 0.149 0.449 0.149 0.188-0.1 0.413-0.149 0.674-0.149l1.574 0.375h1.125c0.525-0.149 1.099-0.275 1.724-0.375l0.525 0.075 0.3-0.075c0.2 0.050 0.375 0.075 0.525 0.075l0.3-0.075c0.175 0 0.774 0.525 1.799 1.574 0.275 0.3 0.525 0.625 0.749 0.974 0 0.1-0.025 0.149-0.075 0.149 0.049 0.674 0.075 1.175 0.075 1.499 0 0.176-0.049 1.975-0.149 5.397v1.349c0.1 0.849 0.149 1.325 0.149 1.425v4.198c0 0.35-0.049 0.625-0.149 0.824 0.1 0.574 0.149 1.274 0.149 2.099v3.748c-0.1 0.726-0.149 1.125-0.149 1.199v1.499c0 0.324 0.025 0.824 0.075 1.498-0.225 0.388-0.824 1.037-1.799 1.95-0.25 0.35-0.525 0.525-0.825 0.525l-0.375-0.075-0.149 0.075-0.449-0.075h-0.15c-0.112 0-0.212 0.024-0.3 0.075-0.087-0.050-0.212-0.075-0.375-0.075s-0.288 0.024-0.375 0.075c-0.275-0.050-0.5-0.075-0.674-0.075h-1.199l-0.449 0.075c-0.112-0.050-0.438-0.1-0.974-0.149-0.425 0.1-0.7 0.149-0.825 0.149-0.275 0-0.549-0.024-0.824-0.075-0.574 0.050-1.125 0.075-1.649 0.075h-0.6c-0.537 0-0.962-0.275-1.274-0.825-0.225 0-0.674-0.449-1.349-1.349-0.037 0-0.112-0.124-0.225-0.375l0.075-0.9v-1.724c-0.1-1.612-0.149-2.486-0.149-2.624v-4.872c0-0.387 0.024-0.737 0.075-1.049-0.050-0.25-0.075-0.574-0.075-0.974v-1.499c0.1-0.849 0.149-1.325 0.149-1.425v-2.622c-0.149-0.475-0.225-0.85-0.225-1.125 0-1.912 0.075-3.861 0.225-5.848v-0.299c0-0.312 0.275-0.612 0.825-0.9 0.609-1 1.259-1.499 1.946-1.499zM71.999 19.599v0.149h0.075v-0.149h-0.075zM72.374 2.882c0.1 0.413 0.15 0.688 0.15 0.825h0.149c0-0.075-0.025-0.424-0.075-1.050 0.049-0.1 0.075-0.175 0.075-0.225h-0.075c-0.149 0.050-0.225 0.201-0.225 0.45zM72.599 10.754v0.3c0.012 0.1 0.063 0.149 0.149 0.149h0.075l-0.075-0.45h-0.149zM73.124 18.924v0.149l0.075 0.375h0.075v-0.525h-0.149zM73.124 20.124v0.225c0.012 0.1 0.063 0.149 0.149 0.149h0.075v-0.149l-0.075-0.376c-0.1 0.013-0.149 0.063-0.149 0.15zM73.424 7.755l-0.225 0.3 0.149 0.525c0.149 0 0.225-0.25 0.225-0.75l-0.149-0.075zM73.499 23.497c-0.049 0.275-0.075 0.476-0.075 0.6 0.049 0.101 0.075 0.176 0.075 0.225h0.149c0-0.199 0.025-0.3 0.075-0.3-0.1-0.249-0.149-0.424-0.149-0.525h-0.075zM73.499 25.22c0.049 0.426 0.075 0.75 0.075 0.975h0.075c0-0.088 0.049-0.287 0.15-0.6-0.101-0.163-0.15-0.287-0.15-0.376h-0.149zM73.573 26.496v0.675h0.075v-0.675h-0.075zM78.371 5.506h-0.674c-0.725 0.101-1.125 0.15-1.199 0.15h-0.15c-0.049 0-0.25-0.049-0.6-0.15l-0.375 0.076v0.375c0 0.937-0.1 1.637-0.3 2.099l-0.15 15.216h-0.075l0.075 0.149v0.6c0 0.050-0.025 0.075-0.075 0.075l0.075 0.149v1.35c0 0.050-0.025 0.075-0.075 0.075 0.163 0.549 0.462 0.824 0.9 0.824l0.3 0.301-0.075 0.375c0.149 0.475 0.3 1.199 0.45 2.173 0.212 0 0.437 0.375 0.674 1.124h0.075c0.449 0 0.674-0.149 0.674-0.449l-0.075-1.049c0.1-0.162 0.149-0.312 0.149-0.449-0.149-0.188-0.225-0.362-0.225-0.525l0.075-0.375c-0.050-0.25-0.15-0.375-0.3-0.375-0.163 0.1-0.312 0.149-0.449 0.149h-0.225c-0.075 0-0.149-0.075-0.225-0.225v-0.375c0.049-0.149 0.2-0.225 0.449-0.225h0.075c0.137 0 0.288 0.049 0.449 0.149 0.325-0.101 0.549-0.149 0.674-0.149h1.574c0.075 0 0.149 0.075 0.225 0.225l-0.075 0.525c0.1 0 0.175-0.25 0.225-0.749 0.35-0.325 0.525-0.625 0.525-0.901v-0.901c0-0.475 0.024-0.948 0.075-1.424l-0.075-0.375 0.149-3.299c-0.048-0.096-0.073-0.171-0.073-0.222l0.225-0.749-0.075-0.449c0.1-0.325 0.149-0.55 0.149-0.674-0.2-0.225-0.3-0.35-0.3-0.376v-0.375c0-0.049 0.024-0.075 0.075-0.075l-0.075-0.15v-0.3c0-0.163 0.024-0.288 0.075-0.376l-0.075-0.448v-0.674c0-0.049 0.024-0.076 0.075-0.076l-0.075-0.149v-0.749c0-1.537 0.024-3.61 0.075-6.222 0.1-0.349 0.149-0.649 0.149-0.9v-0.825c-0.212 0-0.437-0.075-0.674-0.225-0.2 0.1-0.35 0.149-0.45 0.149-0.749-0.112-1.125-0.312-1.125-0.6-0.224 0.201-0.348 0.301-0.374 0.301zM75.073 28.669v0.449l0.075 0.375h0.075v-0.824h-0.149zM75.298 29.943v0.149h0.075v-0.149h-0.075zM75.897 2.133c0 0.149 0.025 0.225 0.075 0.225l-0.075 0.375v1.050c0 0.25-0.025 0.625-0.075 1.125h0.149c0-0.125 0.075-0.525 0.225-1.199v-1.575c0-0.1-0.049-0.149-0.149-0.149-0.101 0.012-0.15 0.062-0.15 0.149zM77.097 4.307v0.225l0.075 0.375h0.225c-0.1-0.449-0.15-0.7-0.15-0.75-0.1 0.013-0.149 0.064-0.149 0.15zM77.697 1.983c0 0.049-0.025 0.075-0.076 0.075 0.188 0.7 0.388 1.050 0.6 1.050h0.075c-0.074-0.75-0.275-1.125-0.599-1.125zM78.371 3.258v0.075c0.1 0.163 0.149 0.288 0.149 0.375h0.075v-0.15c-0.075-0.199-0.149-0.299-0.224-0.299zM79.72 27.695l-0.075 0.375v0.225h0.149v-0.6h-0.075zM80.695 2.133c0 0.049-0.025 0.075-0.075 0.075 0.049 0.1 0.075 0.175 0.075 0.225 0 0.2 0.024 0.65 0.075 1.349h0.075c0.1 0 0.149-0.049 0.149-0.149-0.049-1-0.149-1.499-0.299-1.499zM81.219 26.196c0 0.4-0.2 0.949-0.6 1.65v0.525c0.012 0.101 0.063 0.149 0.149 0.149 0.4-1.062 0.6-1.811 0.6-2.249l-0.149-0.075zM81.519 29.418h0.15v-0.3c0.249-0.813 0.375-1.386 0.375-1.723v-0.225c-0.349 0.475-0.525 1.226-0.525 2.248zM81.594 19.973h0.15c0.049-0.262 0.075-0.412 0.075-0.449-0.149 0.050-0.225 0.201-0.225 0.449zM81.82 4.082c-0.1 0.163-0.149 0.313-0.149 0.45v0.3h0.149l0.149-0.525v-0.076c0-0.099-0.050-0.149-0.149-0.149zM82.344 16.751c-0.2 0.788-0.375 1.662-0.525 2.623 0.125 0 0.324-0.749 0.6-2.248v-0.375h-0.075zM82.194 5.657l-0.075 0.525c0.075 0.2 0.149 0.3 0.225 0.3v-0.675c-0.001-0.1-0.052-0.149-0.15-0.149zM82.119 23.722v0.075h0.149v-0.225c-0.099 0.013-0.149 0.064-0.149 0.15zM82.344 10.754l-0.075 0.525v1.125h0.149v-1.199l0.075-0.375-0.149-0.076zM82.344 21.247l-0.075 0.75v0.075c0.012 0.1 0.063 0.149 0.149 0.149v-0.975h-0.075zM82.718 27.77v0.449c-0.3 0.824-0.449 1.349-0.449 1.574 0.049 0.201 0.075 0.375 0.075 0.525l0.149-0.075-0.075-0.149v-0.3c0.3-0.812 0.449-1.436 0.449-1.873v-0.149h-0.149zM82.718 19.374c0 0.138-0.125 0.588-0.375 1.35 0.049 0.1 0.075 0.175 0.075 0.225h0.075l0.3-1.499v-0.075h-0.075zM82.344 22.373v0.6h0.075v-0.6h-0.075zM83.019 18.25c0 0.149-0.050 0.325-0.15 0.525h0.076c0.1 0 0.149-0.049 0.149-0.149v-0.375h-0.075zM82.869 25.821v0.449h0.076l0.075-0.449h-0.15zM83.094 2.657v0.149h0.075v-0.149h-0.075zM83.094 17.576v0.449h0.075v-0.449h-0.075zM83.843 18.25c0 0.3-0.225 1.525-0.674 3.674v0.075c0.237-0.112 0.412-0.938 0.525-2.475 0.2-0.174 0.3-0.375 0.3-0.6v-0.525c-0.001-0.1-0.050-0.149-0.15-0.149zM83.243 29.569v0.149h0.225l0.149-0.525v-0.149c-0.063 0-0.187 0.176-0.375 0.525zM83.618 28.369v0.3h0.149l0.075-0.375v-0.075h-0.074c-0.1 0.011-0.15 0.063-0.15 0.149zM83.918 26.871c-0.1 0.162-0.149 0.312-0.149 0.449h0.075c0.075 0 0.149-0.075 0.225-0.225v-0.075c0-0.1-0.050-0.149-0.15-0.149zM83.918 12.553l-0.075 0.375v0.75h0.075l0.075-0.376v-0.749h-0.075zM83.918 22.823l-0.075 0.375v0.149c0.012 0.101 0.063 0.149 0.149 0.149v-0.674h-0.075zM84.143 8.805v0.3h0.15v-0.45c-0.101 0.012-0.15 0.063-0.15 0.15zM84.368 20.498c-0.101 0.425-0.176 1.050-0.225 1.874 0.1 0 0.2-0.6 0.3-1.799v-0.075h-0.075z"></path>
<path d="M87.797 1.158h1.799c0.337 0 0.637 0.025 0.9 0.075 0.263-0.049 0.562-0.075 0.9-0.075h1.425c0.375 0 0.7 0.55 0.974 1.649 0.112 0.025 0.462 0.825 1.049 2.399 0.225 0.713 0.7 1.787 1.425 3.224 0 0.188 0.15 0.637 0.45 1.349 0 0.237 0.125 0.512 0.375 0.824v0.302c0 0.063-0.125 0.188-0.375 0.375 0.1 0.188 0.149 0.388 0.149 0.6v1.499c0 0.2 0.075 0.625 0.225 1.274-0.149 0.188-0.225 0.362-0.225 0.525v0.6c0.2 0.825 0.375 1.824 0.525 2.999h0.075c0.049-0.624 0.075-1 0.075-1.124 0-1.274-0.125-2.124-0.375-2.548 0.149-0.312 0.225-0.562 0.225-0.75-0.149-1.337-0.275-2.211-0.375-2.624v-0.225c0-0.075 0.075-0.149 0.225-0.225 0.25 0.087 0.8 1.237 1.649 3.448 0.237 0 0.488-0.375 0.75-1.124 0.175-0.149 0.424-0.774 0.75-1.874 0.349-0.574 0.724-1.474 1.124-2.699 0.175-0.212 0.574-1.162 1.199-2.848 0.15-0.288 0.325-0.512 0.525-0.674 0-0.774 0.349-1.674 1.050-2.699 0.249-1.098 0.574-1.649 0.974-1.649h1.050c0.3 0 0.5 0.149 0.6 0.449l-0.075 0.3c0.049 0.275 0.075 0.475 0.075 0.6-0.075 0.275-0.176 0.75-0.3 1.425-0.087 0-0.163 0.325-0.225 0.974h0.149c0-0.349 0.225-0.525 0.674-0.525v-0.826l-0.075-0.449c0.063-0.075 0.112-0.325 0.149-0.75-0.2-0.3-0.3-0.549-0.3-0.75 0.125-0.3 0.349-0.449 0.674-0.449h0.075c0.413 0 0.737 0.025 0.974 0.075 0.312-0.049 0.662-0.075 1.050-0.075h0.3c0.075 0 0.149 0.075 0.225 0.225v0.149c-0.2 0.6-0.3 1.050-0.3 1.349v1.425c0 0.049-0.025 0.075-0.075 0.075 0.1 0.225 0.149 0.475 0.149 0.749 0 0.35-0.050 0.525-0.149 0.525l0.075 0.149v0.6c0 0.476-0.050 1.125-0.149 1.95 0.1 0.6 0.149 1.074 0.149 1.425v0.824c0 0.462 0.024 1.113 0.075 1.95 0 0.163-0.175 0.462-0.525 0.9 0.2 0.3 0.3 0.525 0.3 0.674l-0.075 0.449 0.225 0.6c-0.1 0.362-0.149 0.737-0.149 1.125l0.225 1.874-0.075 0.375v1.199c0 0.362-0.025 0.638-0.075 0.825 0.037 0.324 0.087 1.65 0.149 3.973-0.050 0.438-0.125 0.788-0.225 1.050 0.1 0.2 0.149 0.475 0.149 0.824v1.95c0 0.362-0.075 0.562-0.225 0.6h-0.149c-0.3-0.199-0.45-0.449-0.45-0.749v-1.199c0-0.325-0.049-0.675-0.149-1.050h-0.075v1.95c0 0.4 0.049 0.85 0.149 1.349-0.1 0.375-0.149 0.6-0.149 0.674 0.149 0.25 0.225 0.501 0.225 0.75v0.149c-0.049 0.2-0.3 0.3-0.749 0.3-0.625-0.050-0.95-0.075-0.974-0.075-0.1 0.050-0.175 0.075-0.225 0.075-0.149-0.050-0.225-0.1-0.225-0.149l-2.099 0.149c-0.1-0.125-0.149-0.225-0.149-0.3 0.412-0.612 0.637-1.187 0.674-1.724v-1.349c0.1-0.725 0.15-1.124 0.15-1.199v-1.199c-0.101-0.725-0.15-1.125-0.15-1.199v-5.921l-0.075-0.449c0.049-0.087 0.075-0.212 0.075-0.375v-1.274c0-0.2 0.049-0.525 0.15-0.974-0.088-0.312-0.163-0.987-0.225-2.024 0.063-0.687 0.137-1.262 0.225-1.724-0.050-0.1-0.075-0.175-0.075-0.225h-0.076c-0.375 0.163-0.65 0.688-0.824 1.574-0.3 0.525-0.8 1.724-1.499 3.598-0.4 0.262-0.6 0.787-0.6 1.574-0.188 0.188-0.512 0.862-0.974 2.023-0.1 0.064-0.3 0.613-0.6 1.651-0.175 0.6-0.65 0.9-1.425 0.9-0.35-0.149-0.6-0.225-0.75-0.225-0.325 0.1-0.549 0.149-0.674 0.149-0.462 0-0.787-0.25-0.974-0.749-0.2-0.813-1-2.861-2.399-6.148-0.902-1.873-1.376-3.122-1.427-3.748-0.063 0-0.237-0.275-0.525-0.824-0.149 0.188-0.225 0.412-0.225 0.674v6.971c0 0.4 0.024 0.875 0.075 1.425-0.050 0.1-0.075 0.175-0.075 0.225 0.1 0.425 0.149 0.699 0.149 0.824 0 0.050-0.025 0.125-0.075 0.226l0.075 0.449c0 0.149-0.050 0.349-0.149 0.6 0.1 0.662 0.149 1.662 0.149 2.999v1.275c0 0.424-0.050 0.749-0.149 0.974 0.1 0.312 0.149 0.513 0.149 0.6l-0.075 0.525c0 0.787 0.2 1.487 0.6 2.099v0.075c0 0.149-0.1 0.225-0.3 0.225-0.275 0-0.55-0.024-0.825-0.075-0.35 0.050-0.65 0.075-0.9 0.075-0.163 0-0.288-0.024-0.376-0.075-0.337 0.050-0.612 0.075-0.824 0.075h-2.173c-0.075 0-0.149-0.075-0.225-0.225v-0.075c0.3-0.961 0.449-1.487 0.449-1.575v-2.173c0-0.2 0.025-0.3 0.075-0.3l-0.075-0.526v-7.271c0-0.375 0.025-0.649 0.075-0.824-0.049-0.325-0.075-0.649-0.075-0.974v-9.222c0.1-0.724 0.149-1.125 0.149-1.199v-2.848c0-1.449-0.149-2.174-0.449-2.174-0.1-0.125-0.149-0.225-0.149-0.3 0.076-0.2 0.15-0.301 0.225-0.301zM90.421 1.908v1.349c0.012 0.1 0.063 0.149 0.149 0.149v-1.498h-0.149zM90.421 18.025v0.149h0.075v-0.149h-0.075zM90.421 18.55v1.874c0.012 0.1 0.063 0.149 0.149 0.149v-2.024h-0.149zM95.593 13.527v0.525h0.075c0-0.037 0.025-0.188 0.075-0.449l-0.149-0.076zM95.744 11.803v0.149h0.075v-0.149h-0.075zM95.744 12.178v0.225h0.075v-0.225h-0.075zM97.392 18.924v0.225h0.075v-0.225h-0.075zM98.142 21.623v0.075c0.049 0.149 0.2 0.225 0.449 0.225l0.075-0.149v-0.075c0-0.101-0.049-0.149-0.149-0.149l-0.375 0.074zM98.441 19.898c0.1 0.463 0.149 0.737 0.149 0.825 0.1 0 0.149-0.050 0.149-0.149v-0.825h-0.149c-0.099 0.014-0.149 0.064-0.149 0.149zM101.29 11.428v0.3c0.1 0.125 0.149 0.225 0.149 0.3h0.075v-0.225l-0.075-0.375h-0.149zM101.44 12.328v0.375c0.263 2.448 0.562 3.673 0.9 3.673 0-0.1 0.075-0.275 0.225-0.525-0.388-0.537-0.737-1.711-1.050-3.523h-0.075zM103.015 7.455c0 0.050-0.025 0.125-0.075 0.225h0.149v-0.225h-0.075zM104.064 7.006c-0.2 0.387-0.3 0.637-0.3 0.749v0.75h0.075c0.2-0.688 0.3-1.087 0.3-1.199v-0.3h-0.075zM104.139 6.106v0.6h0.076l0.075-0.375v-0.076c0-0.1-0.050-0.149-0.15-0.149zM104.963 7.306c-0.35 1.199-0.525 1.949-0.525 2.249l0.149 0.075c0-0.112 0.024-0.212 0.075-0.3-0.050-0.087-0.075-0.188-0.075-0.3v-0.076c0.4-0.462 0.6-0.937 0.6-1.425-0.049-0.1-0.075-0.175-0.075-0.225h-0.149zM104.438 10.679v0.15h0.149v-0.3c-0.099 0.012-0.149 0.062-0.149 0.149zM104.963 5.207v0.45h0.075v-0.45h-0.075zM106.763 20.649l0.15 0.075v-0.225c-0.101 0.013-0.15 0.063-0.15 0.15zM107.512 17.725c0 0.275 0.225 0.625 0.674 1.049l0.075-0.749c-0.2-0.225-0.3-0.525-0.3-0.9-0.299 0.1-0.449 0.3-0.449 0.6zM107.662 14.201v0.6c0.112 0 0.188-0.125 0.225-0.376-0.049-0.1-0.075-0.175-0.075-0.225h-0.15zM108.711 1.833v2.248c0.1 0 0.149-0.049 0.149-0.149v-2.099h-0.149zM108.787 4.607l-0.075 0.375v0.375h0.149l0.075-0.674-0.149-0.075zM108.711 5.806v0.449h0.149v-0.449h-0.149zM109.686 29.194h0.075c0.125 0 0.375 0.476 0.749 1.425v0.3c0 0.075-0.075 0.149-0.225 0.225h-0.525c-0.050 0-0.175-0.125-0.376-0.375 0.052-1.051 0.151-1.575 0.302-1.575z"></path>
<path d="M118.869 1.158c0.163 0.1 0.287 0.149 0.375 0.149l0.375-0.075 0.45 0.075c0.162-0.1 0.312-0.149 0.449-0.149 0.149 0.050 0.225 0.1 0.225 0.149l0.749-0.075h0.3c0.349 0.013 0.525 0.063 0.525 0.149l0.149-0.075h0.449c0.050 0 0.075 0.025 0.075 0.075l0.375-0.225h0.601c0.849 0.2 1.275 0.325 1.275 0.375 1.237 1.187 1.861 1.862 1.873 2.024 0 0.025-0.025 0.125-0.075 0.3 0 0.125 0.024 0.325 0.075 0.6l-0.075 0.749c0.149 0.45 0.225 0.75 0.225 0.9v0.825c0 0.2-0.049 0.525-0.149 0.974 0.188 0.813 0.412 1.311 0.674 1.499v0.15c0 0.075-0.101 0.175-0.3 0.3h-0.149c-0.537 0-0.912-0.025-1.124-0.075-0.388 0.049-0.813 0.075-1.275 0.075h-0.525c-0.249 0-0.65-0.075-1.199-0.225-0.375 0.2-0.624 0.3-0.749 0.3-0.225-0.1-0.349-0.2-0.375-0.3v-0.224c0-0.287 0.274-0.761 0.824-1.425v-0.074l-0.075-0.449c0.101-0.237 0.149-0.462 0.149-0.674-0.449-0.749-0.948-1.124-1.498-1.124h-0.075c-0.263 0-0.487 0.025-0.674 0.075-0.263-0.049-0.513-0.075-0.749-0.075h-0.675c-0.112 0-0.212 0.025-0.3 0.075-0.3-0.087-0.449-0.163-0.449-0.225-0.101 0.088-0.5 0.163-1.199 0.225 0 0.125-0.175 0.375-0.525 0.749v0.6c0 0.362-0.025 0.637-0.075 0.824 0.049 0.325 0.075 0.65 0.075 0.974v0.9c-0.1 1.125-0.149 1.724-0.149 1.799v0.75c0 0.6 0.225 0.974 0.674 1.125 0 0.149 0.125 0.225 0.375 0.225 0.237 0 0.487-0.025 0.749-0.075l0.376 0.075 0.525-0.075 0.75 0.075 0.749-0.075c0.812 0.063 1.436 0.137 1.873 0.225 0.101 0 0.275-0.049 0.525-0.149 0.438 0.049 0.713 0.075 0.825 0.075 0.688-0.049 1.112-0.075 1.275-0.075 0.188 0.049 0.437 0.225 0.749 0.525 0.087 0.025 0.337 0.325 0.749 0.9 0.7 0.549 1.049 1.025 1.049 1.425v0.6c0 0.75-0.024 1.375-0.075 1.874 0.050 0.351 0.075 0.85 0.075 1.499-0.1 0.887-0.149 1.437-0.149 1.65v0.6c0.101 0.725 0.149 1.124 0.149 1.199-0.149 0.925-0.225 1.475-0.225 1.65 0.049 1.399 0.101 2.399 0.149 2.999-0.124 0.487-0.949 1.337-2.473 2.548-0.7-0.063-1.299-0.137-1.8-0.225-0.075 0-0.499 0.075-1.274 0.225-0.037 0-0.188-0.024-0.449-0.075-0.275 0.050-0.476 0.075-0.6 0.075-0.313-0.1-0.513-0.149-0.6-0.149-0.55 0.024-0.825 0.075-0.825 0.149-0.587-0.050-1.012-0.075-1.274-0.075h-2.548c-0.713 0-1.187-0.225-1.425-0.675-1.049-0.937-1.574-1.561-1.574-1.873v-0.974c0-0.637 0.025-1.337 0.075-2.099-0.049-0.175-0.075-0.275-0.075-0.301 0.049-0.274 0.075-0.548 0.075-0.824 0-0.375-0.225-0.999-0.674-1.873v-0.3c0.012-0.101 0.063-0.149 0.149-0.149h2.773c0.049 0 0.075 0.024 0.075 0.075l0.149-0.075h2.174c0.149 0 0.225 0.1 0.225 0.3-0.3 0.787-0.449 1.386-0.449 1.798l0.075 0.375c-0.1 0.476-0.149 0.775-0.149 0.901 0 0.749 0.425 1.174 1.275 1.275l0.525-0.075h0.149c0.512 0 0.912 0.024 1.199 0.075 0.287-0.050 0.687-0.075 1.199-0.075h0.149c0.138 0 0.288 0.049 0.449 0.149 0.275-0.050 0.5-0.075 0.674-0.075h0.225l0.075-0.376c0-0.237-0.024-0.812-0.075-1.724l0.075-0.149c-0.049-0.199-0.075-0.375-0.075-0.525 0-0.587-0.024-1.187-0.075-1.798 0.101-0.875 0.149-1.799 0.149-2.774v-0.075c0-0.4-0.475-0.674-1.424-0.824v-0.082l-0.749 0.075h-2.774c-0.112 0-0.212 0.025-0.3 0.075l-0.149-0.075c-0.162 0-0.287 0.025-0.375 0.075-0.512-0.049-0.912-0.075-1.199-0.075h-1.274c-0.462 0-0.987-0.375-1.574-1.125l-1.274-1.199v-12.068c0-0.637 0.849-1.561 2.548-2.773 0.424 0.1 0.7 0.149 0.824 0.149 0.075 0 0.3-0.049 0.674-0.149 0.1 0 0.275 0.050 0.525 0.149 0.1-0.1 0.775-0.175 2.024-0.225zM114.221 24.771v0.526c0.1 0 0.149-0.050 0.149-0.15v-0.225c0.001-0.1-0.049-0.15-0.149-0.15zM114.671 11.653v0.149h0.149v-0.3c-0.1 0.013-0.149 0.064-0.149 0.15zM114.971 3.482c0.149 0.4 0.225 0.65 0.225 0.749 0 0.038-0.025 0.188-0.075 0.45l0.075 0.375c0 0.125-0.025 0.325-0.075 0.6l0.149 2.248h-0.075c0.2 0.325 0.3 0.85 0.3 1.574v1.95l0.075 0.375h-0.075l0.075 0.149v0.6c0.037 0.3 0.112 0.449 0.225 0.449l0.075-0.149v-0.075c0-0.212-0.025-0.412-0.075-0.6l0.075-0.376c0-0.049-0.025-0.249-0.075-0.6 0.1-0.525 0.15-0.8 0.15-0.825-0.15-1.961-0.3-3.185-0.45-3.673v-1.273c0-0.275-0.025-0.625-0.075-1.049 0.049-0.1 0.075-0.175 0.075-0.225-0.2-0.375-0.3-0.7-0.3-0.974-0.076 0-0.15 0.1-0.225 0.3zM115.046 2.059v0.3h0.149v-0.15c0.001-0.1-0.049-0.149-0.149-0.149zM115.42 24.097c0 0.050-0.025 0.125-0.075 0.225 0.1 0.2 0.149 0.375 0.149 0.525h0.075l0.075-0.375-0.075-0.375h-0.149zM115.496 25.146l-0.075 0.75v0.375h0.075l0.149-0.9c-0.049-0.1-0.075-0.175-0.075-0.226h-0.075zM115.72 28.070c0 0.049-0.1 0.325-0.3 0.824l0.225 0.149c0.112 0 0.188-0.225 0.225-0.674-0.049-0.087-0.075-0.188-0.075-0.3h-0.076zM115.496 26.796v0.9c0 0.075 0.075 0.149 0.225 0.225v-0.824l0.075-0.375-0.149-0.075c-0.101 0.010-0.15 0.061-0.15 0.148zM115.645 29.718l-0.075 0.375c0.012 0.101 0.063 0.149 0.149 0.149h0.075v-0.525h-0.149zM115.72 13.527v0.225c0.012 0.1 0.063 0.149 0.149 0.149h0.15v-0.149c0-0.075-0.075-0.149-0.225-0.225h-0.075zM120.068 14.652v0.225h0.075v-0.225h-0.075zM120.443 27.32c0 0.249-0.052 0.375-0.149 0.375l0.149 1.498c-0.101 0.225-0.149 0.55-0.149 0.974 0.087 0.25 0.236 0.376 0.449 0.376l0.149-0.301c-0.101-0.211-0.176-0.637-0.225-1.274 0.1-0.199 0.149-0.375 0.149-0.525l-0.075-0.3 0.075-0.449c-0.101-0.225-0.2-0.35-0.3-0.375h-0.074zM121.792 29.418l-0.075 0.375c0.049 0.089 0.075 0.188 0.075 0.3h0.149v-0.674h-0.149zM122.242 2.133v0.3c0.012 0.1 0.064 0.149 0.149 0.149v-0.449h-0.149zM122.317 4.532c0 0.1-0.025 0.149-0.075 0.149 0.049 0.1 0.075 0.175 0.075 0.225h0.075v-0.375h-0.075zM123.74 7.306c0.15 0.337 0.226 0.712 0.226 1.125h0.075l0.149-0.525v-0.75c-0.136 0-0.287 0.050-0.45 0.15zM123.967 3.633v0.825h0.075c0.4-0.087 0.6-0.188 0.6-0.3-0.050-0.361-0.1-0.587-0.149-0.674 0.050-0.087 0.075-0.188 0.075-0.3v-0.225c-0.076 0-0.276 0.224-0.6 0.674zM124.341 19.074v1.575c0.149 0 0.249-0.2 0.3-0.6-0.149-0.574-0.225-0.901-0.225-0.975h-0.075zM124.341 27.845v0.525c0 0.537 0.149 0.887 0.449 1.049h0.149c-0.175-0.412-0.324-0.937-0.449-1.574h-0.149zM124.641 25.896v0.225c0 0.075 0.075 0.149 0.225 0.225v-0.3c0-0.1-0.050-0.149-0.149-0.149h-0.076zM124.941 26.946v0.075l0.075 0.375h0.15v-0.075l-0.076-0.375h-0.149zM125.316 24.771v0.225h0.075v-0.225h-0.075zM125.615 14.726v0.15h0.075v-0.15h-0.075zM125.615 20.573v0.3h0.075v-0.3h-0.075zM125.691 26.42v0.075c0.012 0.101 0.062 0.15 0.149 0.15v-0.226h-0.149zM125.691 29.418v0.225h0.149c-0.052-0.1-0.075-0.175-0.075-0.225h-0.075zM126.44 5.281c-0.2 0.45-0.325 1.25-0.375 2.399 0.049 0.288 0.075 0.688 0.075 1.199 0.012 0.1 0.063 0.149 0.149 0.149l0.075-0.525v-0.599l0.225-2.624h-0.149zM126.066 27.62v0.075c0.012 0.101 0.063 0.149 0.149 0.149v-0.375c-0.1 0.012-0.149 0.063-0.149 0.15zM126.14 15.626c0.049 0.1 0.075 0.175 0.075 0.225h0.225v-0.225c0-0.1-0.050-0.149-0.149-0.149-0.101 0.012-0.15 0.063-0.15 0.149zM126.14 24.246v0.375h0.075v-0.375h-0.075zM126.44 20.798c0 0.262 0.175 1.411 0.525 3.448v0.3c0.137 0.25 0.236 0.375 0.3 0.375 0-0.312-0.225-1.736-0.674-4.272-0.101 0.012-0.15 0.062-0.15 0.149zM126.515 25.896v0.225h0.075v-0.225h-0.075z"></path>
<path d="M129.138 1.234h1.050c2.011 0.35 3.136 0.525 3.373 0.525 0.55-0.2 0.9-0.3 1.050-0.3h1.799c0.461 0 1.112-0.024 1.949-0.075 0.101 0.050 0.176 0.075 0.225 0.075l0.525-0.075c0.138 0 0.637 0.025 1.499 0.075 0.075 0 0.3-0.049 0.675-0.149l0.525 0.075c0.162-0.1 0.312-0.149 0.449-0.149 0.087 0 0.212 0.050 0.375 0.149 0.324-0.1 0.55-0.149 0.674-0.149h0.149c0.449 0 0.674 0.2 0.674 0.6 0 1.362 0.075 2.636 0.225 3.823v0.149c-0.1 0.2-0.249 0.3-0.449 0.3-0.438-0.349-0.813-0.525-1.124-0.525h-0.824c-0.075 0-0.476 0.049-1.199 0.149-0.313-0.1-0.512-0.149-0.6-0.149-1 0.125-1.499 0.25-1.499 0.375l0.075 0.3c-0.149 0-0.25 1-0.3 2.999l0.225 0.525c-0.101 0.35-0.149 0.625-0.149 0.824l0.075 0.45c-0.049 0.275-0.075 0.549-0.075 0.824 0 0.237 0.025 0.488 0.075 0.75-0.049 0.262-0.075 0.412-0.075 0.449 0.049 0.562 0.075 1.087 0.075 1.574 0 0.050-0.025 0.125-0.075 0.225 0.101 0.2 0.149 0.475 0.149 0.824 0 0.262-0.024 0.488-0.075 0.674 0.050 0.325 0.075 0.65 0.075 0.974v0.3c0 1.498-0.075 2.248-0.225 2.248l0.075 0.15v0.974c0 0.35 0.049 0.625 0.149 0.825l-0.149 0.525c0.101 0.25 0.149 0.424 0.149 0.525-0.049 0.662-0.075 1.212-0.075 1.649 0 0.101-0.025 0.149-0.075 0.149l0.075 0.375v0.975c0 0.212-0.025 0.487-0.075 0.825l0.149 0.375c-0.101 0.225-0.149 0.55-0.149 0.974v0.525c0 0.149 0.225 0.85 0.674 2.099-0.075 0.2-0.149 0.3-0.225 0.3h-4.423c-0.549 0-0.824-0.075-0.824-0.225v-0.225l0.449-1.425v-0.824c0-0.112 0.025-0.213 0.075-0.3-0.049-0.087-0.075-0.188-0.075-0.3v-0.225c0-0.449 0.025-0.749 0.075-0.9-0.049-0.438-0.075-0.813-0.075-1.125v-1.050c0-0.387 0.025-0.736 0.075-1.049-0.049-0.249-0.075-0.573-0.075-0.974v-0.225c0-0.163 0.025-0.288 0.075-0.375l-0.149-1.199c0.050-0.437 0.075-0.812 0.075-1.125v-0.149c0-0.287-0.024-0.687-0.075-1.199l0.149-0.375-0.075-0.674 0.075-1.049-0.149-0.9c0.050-0.262 0.075-0.512 0.075-0.75v-0.3l0.225-0.3c-0.199-0.25-0.3-0.4-0.3-0.449 0.050-0.949 0.101-1.425 0.149-1.425l-0.075-0.375v-3.073c0-0.175 0.025-0.4 0.075-0.674 0-1.449-0.4-2.174-1.199-2.174-0.375-0.1-0.725-0.149-1.049-0.149h-0.6c-0.201 0-0.525 0.049-0.975 0.149-0.324-0.1-0.65-0.149-0.974-0.149-0.625 0.049-0.949 0.075-0.975 0.075-0.1-0.163-0.149-0.288-0.149-0.376 0.25-1.561 0.375-2.611 0.375-3.148v-0.225c-0.001-0.275 0.149-0.5 0.449-0.674zM135.435 8.355l-0.225 0.3v0.149c0 0.037 0.050 0.237 0.149 0.6v0.075c-0.3 0.425-0.449 0.85-0.449 1.274 0.050 0.088 0.075 0.188 0.075 0.3 0.149 0 0.35-0.574 0.6-1.724v-0.823c0-0.1-0.049-0.15-0.149-0.15zM134.911 11.728v0.45h0.149v-0.45h-0.149zM134.986 22.897c0 0.049-0.024 0.124-0.075 0.225 0.050 0.55 0.125 1.15 0.225 1.798-0.050 0.262-0.075 0.413-0.075 0.45 0.050 0.1 0.075 0.175 0.075 0.225 0.075 0 0.149-0.075 0.225-0.225v-1.499c0-0.188-0.1-0.512-0.3-0.974h-0.076zM134.986 12.553v0.375l0.225 0.3v0.3l0.075 0.749h0.075c0-0.037 0.024-0.188 0.075-0.449 0-0.288-0.125-0.713-0.375-1.274h-0.075zM135.21 14.652l-0.149 0.525c0.35 0.8 0.525 1.274 0.525 1.425v0.525c0.013 0.1 0.063 0.149 0.149 0.149l0.075-0.149v-0.149c0-0.337-0.175-1.012-0.525-2.023v-0.3h-0.075zM135.21 17.65c0 0.199-0.024 0.3-0.075 0.3l0.075 0.375-0.075 0.449c0.050 0.088 0.075 0.213 0.075 0.375h0.149c0.050-0.499 0.075-0.873 0.075-1.124v-0.375h-0.224zM135.66 28.595l-0.149 0.6c0.063 0.3 0.137 0.449 0.225 0.449l0.075-0.375v-0.525c-0.001-0.099-0.052-0.149-0.15-0.149zM135.584 2.357v0.674c0 0.263 0.1 0.437 0.3 0.525 0.15-0.337 0.249-0.788 0.301-1.349l-0.225-0.149c-0.225 0.1-0.35 0.2-0.376 0.299zM135.66 29.868l-0.075 0.375v0.075c0.050 0 0.125 0.025 0.225 0.075l0.075-0.149-0.075-0.375h-0.15zM135.961 13.377v0.45c0.099 0.65 0.149 1.174 0.149 1.574h0.075v-0.449c-0.052-0.562-0.075-1.062-0.075-1.499l-0.149-0.076zM136.11 18.025l-0.075 0.525v0.974h0.075c0-0.087 0.023-0.536 0.075-1.349v-0.149h-0.075zM136.26 30.018v0.149h0.075v-0.149h-0.075zM136.41 25.296l-0.075 0.149v0.824h0.225l0.149-0.525c-0.101-0.298-0.201-0.448-0.3-0.448zM136.56 4.457v0.749h0.149v-0.9c-0.1 0.012-0.149 0.063-0.149 0.15zM136.56 6.781v0.974c0.012 0.1 0.063 0.149 0.149 0.149 0-0.049 0.024-0.075 0.075-0.075l-0.075-0.149v-0.9h-0.149zM136.56 8.805v0.75h0.075c0.037-0.4 0.087-0.6 0.149-0.6-0.050-0.087-0.075-0.188-0.075-0.3-0.1 0.011-0.149 0.062-0.149 0.149zM137.159 18.174v1.874l-0.075 0.749h0.149c0-0.313 0.175-1.087 0.525-2.324-0.3-0.124-0.449-0.274-0.449-0.449-0.101 0.014-0.15 0.065-0.15 0.15zM137.159 14.951v0.974h0.149c0.149-0.537 0.225-0.862 0.225-0.974v-0.525h-0.075c-0.2 0.075-0.3 0.25-0.3 0.525zM137.459 25.821v1.199l-0.3 2.923h0.149c0.199-0.587 0.3-1.661 0.3-3.222v-0.901h-0.149zM137.908 2.357c0.012 0.1 0.064 0.149 0.149 0.149v-0.149h-0.149zM138.433 4.457c0 0.049-0.025 0.125-0.075 0.225 0.049 0.1 0.075 0.175 0.075 0.225h0.9v-0.45h-0.9zM138.658 2.508v0.149h0.075v-0.149h-0.075zM139.408 2.508v0.525c0.013 0.1 0.064 0.149 0.149 0.149 0-0.125 0.025-0.325 0.075-0.6l-0.149-0.075h-0.075zM140.233 2.059c-0.050 1.312-0.075 2.287-0.075 2.924 0.149 0.050 0.225 0.1 0.225 0.149 0.249 0 0.375-0.774 0.375-2.324 0.050-0.275 0.075-0.5 0.075-0.674l-0.149-0.075h-0.45zM141.882 4.457v0.149h0.075v-0.149h-0.075zM142.482 2.808c-0.101 0.325-0.149 0.55-0.149 0.674v0.075c0.124 0 0.225-0.225 0.3-0.674l-0.15-0.075zM143.381 4.231l-0.375 0.525v0.225c0 0.112 0.225 0.188 0.674 0.225v-0.075c-0.063-0.6-0.162-0.901-0.3-0.901z"></path>
<path d="M144.637 1.083h0.525c0.236 0 0.487 0.025 0.749 0.075 0.188-0.049 0.412-0.075 0.674-0.075l0.45 0.075c0.262-0.049 0.512-0.075 0.749-0.075l0.45 0.075c0.262-0.049 0.511-0.075 0.749-0.075h0.225c0.6 0 0.9 0.1 0.9 0.3v0.149c-0.050 0.113-0.225 0.362-0.525 0.75v5.023c-0.101 0.362-0.176 0.887-0.225 1.574 0.049 0.55 0.075 1.050 0.075 1.499v2.249c0.1 0.85 0.149 1.325 0.149 1.425v2.848c0 0.063-0.050 0.337-0.149 0.825v0.824c0 0.662-0.025 1.213-0.075 1.65 0.049 0.337 0.075 0.862 0.075 1.575v0.075l-0.075 0.525c0.212 0.063 0.361 0.188 0.449 0.375 0 0.449-0.2 0.674-0.6 0.674-0.163 0-0.288 0.025-0.375 0.075-0.089-0.049-0.188-0.075-0.3-0.075h-0.376c-0.112 0-0.212 0.025-0.3 0.075-0.1-0.049-0.175-0.075-0.225-0.075-0.624 0.050-0.949 0.075-0.975 0.075l-0.375-0.075-0.375 0.075-0.375-0.149c-0.188 0.101-0.387 0.149-0.6 0.149h-0.075c-0.262 0-0.412-0.075-0.449-0.225v-0.075c0.349-0.787 0.525-1.237 0.525-1.349v-1.125c0-0.475 0.025-1.050 0.075-1.724l-0.075-0.375c0-0.037 0.025-0.188 0.075-0.449 0-0.349-0.025-0.549-0.075-0.6 0.049-0.886 0.075-1.612 0.075-2.174v-1.724c0-1.025-0.025-1.724-0.075-2.099 0.049-0.625 0.075-1.399 0.075-2.324v-4.348c0-0.175-0.025-0.4-0.075-0.674 0-0.049 0.025-0.075 0.075-0.075 0-1.199-0.225-2.148-0.674-2.848l0.301-0.226zM145.236 25.447h0.6c0.213 0 0.412 0.024 0.6 0.075l0.45-0.075c0.237 0 0.487 0.024 0.749 0.075 0.388-0.050 0.812-0.075 1.275-0.075h0.225c0.6 0 0.9 0.874 0.9 2.624v0.375c-0.050 0.438-0.075 0.688-0.075 0.749 0.1 0.2 0.149 0.476 0.149 0.824v0.3c0 0.413-0.476 0.689-1.424 0.825h-0.449c-0.4-0.063-0.601-0.212-0.601-0.449-0.275 0.3-0.574 0.449-0.901 0.449h-1.35c-0.387 0-0.688-0.324-0.9-0.975l0.075-0.3c-0.101-0.637-0.149-1.237-0.149-1.798v-1.498c0-0.113-0.025-0.213-0.075-0.301 0.3-0.549 0.6-0.824 0.9-0.824zM145.461 29.269v0.149c0.012 0.101 0.064 0.149 0.149 0.149l0.075-0.149c0-0.1-0.049-0.149-0.149-0.149h-0.075zM146.285 21.774l-0.075 0.375v0.075h0.149v-0.449h-0.075zM146.285 20.349v0.525h0.075v-0.525h-0.075zM146.66 2.882v0.3h0.149v-0.149c0.001-0.1-0.048-0.15-0.149-0.15zM146.66 4.007v0.225h0.075v-0.225h-0.075zM146.735 4.907l-0.075 0.375c0.050 0.1 0.075 0.175 0.075 0.225 0.101 0 0.15-0.049 0.15-0.149v-0.076l-0.076-0.375h-0.075zM146.886 6.406v0.225c0.049 0.275 0.075 0.5 0.075 0.674h0.075v-0.3c-0.050-0.275-0.075-0.475-0.075-0.6h-0.075zM146.961 8.505v0.749h0.149v-0.375l-0.075-0.375h-0.075zM147.035 12.178c0 0.112-0.024 0.212-0.075 0.3 0.050 0.1 0.075 0.175 0.075 0.225h0.149v-0.376c0.001-0.1-0.049-0.149-0.149-0.149zM147.035 10.004v0.449c0.1 0 0.149-0.075 0.149-0.225-0.050-0.1-0.075-0.175-0.075-0.225h-0.075zM147.11 11.053l-0.075 0.149v0.449h0.149l0.075-0.375v-0.075c0.001-0.099-0.049-0.149-0.149-0.149zM147.41 20.274v0.674c0.1 0 0.149-0.050 0.149-0.149v-0.375c0.001-0.101-0.049-0.15-0.149-0.15zM147.41 22.073v0.449c0.1 0 0.149-0.050 0.149-0.149v-0.149c0.001-0.101-0.049-0.15-0.149-0.15zM147.41 29.569v0.3c0 0.075 0.075 0.149 0.225 0.225h0.3c0.1 0 0.149-0.049 0.149-0.149-0.075-0.249-0.249-0.375-0.525-0.375h-0.149zM147.785 16v0.15h0.075v-0.15h-0.075zM147.785 16.825v0.3h0.075v-0.3h-0.075zM148.76 26.871v0.375h0.149v-0.375h-0.149z"></path>
</svg>
