<!-- Generated by IcoMoon.io -->
<svg version="1.1" xmlns="http://www.w3.org/2000/svg" width="207" height="32" viewBox="0 0 207 32">
<title>toetevoegen</title>
<path d="M2.222 1.505h1.006c1.923 0.335 3.001 0.504 3.228 0.504 0.527-0.194 0.862-0.291 1.003-0.291h1.724c0.443 0 1.064-0.022 1.868-0.069 0.094 0.047 0.166 0.069 0.213 0.069l0.502-0.069c0.13 0 0.61 0.025 1.435 0.069 0.072 0 0.288-0.047 0.646-0.144l0.504 0.072c0.155-0.094 0.296-0.144 0.43-0.144 0.083 0 0.202 0.050 0.357 0.144 0.31-0.094 0.527-0.144 0.646-0.144h0.144c0.432 0 0.646 0.191 0.646 0.574 0 1.305 0.072 2.524 0.216 3.661v0.144c-0.094 0.191-0.238 0.291-0.43 0.291-0.418-0.338-0.776-0.504-1.075-0.504h-0.79c-0.072 0-0.454 0.050-1.15 0.144-0.299-0.094-0.49-0.144-0.574-0.144-0.959 0.119-1.435 0.241-1.435 0.36l0.072 0.288c-0.144 0-0.238 0.959-0.288 2.871l0.216 0.502c-0.094 0.333-0.141 0.596-0.141 0.787l0.072 0.43c-0.050 0.266-0.072 0.529-0.072 0.793 0 0.227 0.022 0.466 0.072 0.718-0.050 0.249-0.072 0.393-0.072 0.43 0.047 0.538 0.072 1.042 0.072 1.507 0 0.050-0.025 0.119-0.072 0.216 0.094 0.191 0.144 0.454 0.144 0.79 0 0.249-0.025 0.466-0.072 0.643 0.047 0.31 0.072 0.623 0.072 0.934v0.288c0 1.438-0.072 2.153-0.216 2.153l0.072 0.144v0.934c0 0.333 0.047 0.599 0.144 0.787l-0.144 0.504c0.094 0.238 0.144 0.405 0.144 0.504-0.050 0.632-0.075 1.156-0.075 1.577 0 0.097-0.025 0.144-0.072 0.144l0.072 0.36v0.934c0 0.202-0.025 0.466-0.072 0.787l0.144 0.36c-0.094 0.211-0.141 0.524-0.141 0.931v0.502c0 0.144 0.216 0.815 0.646 2.012-0.072 0.191-0.144 0.288-0.216 0.288h-4.234c-0.527 0-0.79-0.072-0.79-0.216v-0.213l0.429-1.363v-0.795c0-0.108 0.025-0.202 0.072-0.288-0.047-0.083-0.072-0.177-0.072-0.288v-0.213c0-0.43 0.025-0.718 0.072-0.862-0.047-0.416-0.072-0.776-0.072-1.078v-1c0-0.371 0.025-0.707 0.072-1.003-0.047-0.244-0.072-0.551-0.072-0.937v-0.216c0-0.155 0.025-0.274 0.072-0.357l-0.144-1.147c0.047-0.418 0.072-0.779 0.072-1.078v-0.141c0-0.277-0.025-0.657-0.072-1.15l0.144-0.357-0.072-0.646 0.072-1.003-0.144-0.865c0.047-0.249 0.072-0.49 0.072-0.718v-0.288l0.216-0.285c-0.191-0.238-0.288-0.382-0.288-0.43 0.047-0.909 0.097-1.363 0.144-1.363l-0.072-0.36v-2.943c0-0.169 0.025-0.382 0.072-0.646 0-1.386-0.382-2.081-1.15-2.081-0.357-0.094-0.693-0.144-1.003-0.144h-0.574c-0.191 0-0.504 0.050-0.934 0.144-0.31-0.094-0.621-0.144-0.934-0.144-0.599 0.050-0.906 0.072-0.931 0.072-0.097-0.158-0.144-0.277-0.144-0.36 0.238-1.494 0.357-2.499 0.357-3.015v-0.213c0-0.263 0.144-0.477 0.432-0.646zM8.252 8.321l-0.216 0.288v0.144c0 0.036 0.047 0.227 0.144 0.574v0.069c-0.288 0.407-0.429 0.815-0.429 1.219 0.047 0.083 0.072 0.177 0.072 0.288 0.144 0 0.335-0.549 0.574-1.652v-0.787c-0.003-0.094-0.050-0.144-0.144-0.144zM7.748 11.552v0.43h0.144v-0.43h-0.144zM7.82 22.246c0 0.047-0.025 0.119-0.072 0.213 0.047 0.526 0.119 1.1 0.216 1.724-0.050 0.252-0.072 0.396-0.072 0.432 0.047 0.094 0.072 0.166 0.072 0.213 0.072 0 0.144-0.069 0.216-0.213v-1.438c0-0.177-0.097-0.49-0.288-0.931h-0.072zM7.82 12.342v0.357l0.216 0.288v0.285l0.072 0.72h0.072c0-0.039 0.022-0.18 0.072-0.429 0-0.277-0.119-0.682-0.357-1.219h-0.075zM8.036 14.351l-0.144 0.502c0.335 0.765 0.502 1.219 0.502 1.363v0.502c0.011 0.097 0.058 0.147 0.144 0.147l0.072-0.147v-0.144c0-0.321-0.169-0.97-0.502-1.937v-0.285h-0.072zM8.036 17.222c0 0.191-0.025 0.288-0.072 0.288l0.072 0.357-0.072 0.432c0.047 0.083 0.072 0.202 0.072 0.357h0.144c0.047-0.479 0.072-0.84 0.072-1.078v-0.36h-0.216zM8.466 27.699l-0.144 0.574c0.058 0.288 0.13 0.432 0.216 0.432l0.072-0.36v-0.504c0-0.091-0.047-0.141-0.144-0.141zM8.393 2.583v0.643c0 0.252 0.097 0.418 0.288 0.504 0.144-0.324 0.238-0.754 0.285-1.291l-0.213-0.144c-0.216 0.094-0.335 0.188-0.36 0.288zM8.466 28.921l-0.072 0.36v0.069c0.047 0 0.119 0.025 0.216 0.072l0.072-0.144-0.072-0.36h-0.144zM8.754 13.129v0.432c0.094 0.621 0.141 1.125 0.141 1.507h0.072v-0.432c-0.047-0.538-0.072-1.014-0.072-1.433l-0.141-0.075zM8.895 17.582l-0.069 0.499v0.934h0.069c0-0.083 0.025-0.515 0.072-1.291v-0.141h-0.072zM9.039 29.063v0.144h0.072v-0.144h-0.072zM9.183 24.54l-0.072 0.144v0.79h0.216l0.144-0.504c-0.097-0.285-0.191-0.43-0.288-0.43zM9.327 4.589v0.72h0.144v-0.865c-0.097 0.014-0.144 0.061-0.144 0.144zM9.327 6.814v0.934c0.011 0.097 0.061 0.144 0.144 0.144 0-0.047 0.022-0.069 0.072-0.069l-0.072-0.144v-0.865h-0.144zM9.327 8.754v0.718h0.072c0.036-0.385 0.083-0.574 0.144-0.574-0.050-0.083-0.072-0.18-0.072-0.288-0.097 0.011-0.144 0.061-0.144 0.144zM9.901 17.724v1.793l-0.072 0.72h0.144c0-0.297 0.169-1.042 0.502-2.225-0.285-0.119-0.429-0.263-0.429-0.43-0.097 0.011-0.144 0.058-0.144 0.141zM9.901 14.637v0.934h0.144c0.144-0.515 0.216-0.826 0.216-0.934v-0.499h-0.072c-0.191 0.069-0.288 0.238-0.288 0.499zM10.189 25.045v1.147l-0.288 2.802h0.144c0.191-0.563 0.288-1.591 0.288-3.087v-0.862h-0.144zM10.619 2.583c0.011 0.094 0.058 0.144 0.144 0.144v-0.144h-0.144zM11.123 4.589c0 0.050-0.025 0.122-0.072 0.216 0.047 0.094 0.072 0.169 0.072 0.213h0.862v-0.429h-0.862zM11.336 2.724v0.144h0.072v-0.144h-0.072zM12.054 2.724v0.502c0.011 0.097 0.058 0.144 0.144 0.144 0-0.119 0.025-0.308 0.072-0.574l-0.144-0.072h-0.072zM12.844 2.294c-0.050 1.255-0.072 2.189-0.072 2.799 0.144 0.047 0.216 0.094 0.216 0.144 0.238 0 0.357-0.743 0.357-2.225 0.047-0.263 0.072-0.479 0.072-0.646l-0.141-0.072h-0.432zM14.423 4.589v0.144h0.072v-0.144h-0.072zM14.997 3.012c-0.097 0.31-0.144 0.524-0.144 0.646v0.069c0.119 0 0.216-0.213 0.288-0.646l-0.144-0.069zM15.859 4.375l-0.36 0.502v0.216c0 0.108 0.216 0.177 0.646 0.216v-0.072c-0.058-0.574-0.152-0.862-0.285-0.862z"></path>
<path d="M20.001 1.505h0.79c0.108 0 0.202 0.025 0.288 0.069 0.083-0.047 0.18-0.069 0.288-0.069l0.502 0.069 0.36-0.069c0.188 0.094 0.333 0.144 0.43 0.144 0.18-0.094 0.393-0.144 0.646-0.144l1.507 0.36h1.078c0.502-0.147 1.053-0.266 1.652-0.36l0.502 0.069 0.288-0.069c0.191 0.050 0.36 0.069 0.504 0.069l0.288-0.069c0.169 0 0.743 0.504 1.724 1.507 0.263 0.288 0.502 0.599 0.718 0.934 0 0.094-0.025 0.144-0.072 0.144 0.047 0.643 0.072 1.122 0.072 1.435 0 0.169-0.047 1.893-0.144 5.168v1.291c0.097 0.815 0.144 1.269 0.144 1.363v4.018c0 0.335-0.047 0.599-0.144 0.79 0.097 0.549 0.144 1.219 0.144 2.012v3.588c-0.097 0.693-0.144 1.075-0.144 1.147v1.435c0 0.31 0.025 0.79 0.072 1.438-0.216 0.371-0.79 0.992-1.724 1.865-0.238 0.335-0.502 0.504-0.79 0.504l-0.357-0.072-0.144 0.072-0.43-0.072h-0.144c-0.108 0-0.202 0.025-0.288 0.072-0.083-0.050-0.202-0.072-0.357-0.072s-0.277 0.025-0.357 0.072c-0.263-0.050-0.479-0.072-0.646-0.072h-1.158l-0.43 0.072c-0.108-0.050-0.418-0.094-0.931-0.144-0.407 0.094-0.671 0.144-0.79 0.144-0.263 0-0.526-0.025-0.79-0.072-0.551 0.050-1.078 0.072-1.579 0.072h-0.576c-0.515 0-0.92-0.263-1.219-0.79-0.216 0-0.646-0.43-1.291-1.291-0.036 0-0.108-0.119-0.216-0.36l0.072-0.865v-1.652c-0.094-1.543-0.144-2.383-0.144-2.511v-4.666c0-0.371 0.022-0.707 0.072-1.003-0.047-0.241-0.072-0.554-0.072-0.934v-1.438c0.097-0.812 0.144-1.266 0.144-1.363v-2.511c-0.144-0.454-0.213-0.812-0.213-1.078 0-1.829 0.072-3.694 0.216-5.598v-0.285c0-0.299 0.263-0.587 0.79-0.865 0.582-0.953 1.205-1.433 1.862-1.433zM18.782 19.090v0.141h0.072v-0.141h-0.072zM19.142 3.081c0.097 0.396 0.144 0.659 0.144 0.79h0.144c0-0.069-0.025-0.405-0.072-1.003 0.044-0.097 0.069-0.166 0.069-0.216h-0.072c-0.141 0.050-0.213 0.191-0.213 0.429zM19.356 10.619v0.288c0.014 0.097 0.061 0.141 0.144 0.141h0.072l-0.072-0.43h-0.144zM19.86 18.441v0.144l0.072 0.36h0.072v-0.504h-0.144zM19.86 19.588v0.216c0.011 0.094 0.058 0.144 0.144 0.144h0.072v-0.144l-0.072-0.36c-0.097 0.014-0.144 0.061-0.144 0.144zM20.145 7.748l-0.216 0.285 0.144 0.504c0.144 0 0.216-0.238 0.216-0.718l-0.144-0.072zM20.218 22.82c-0.047 0.263-0.072 0.454-0.072 0.574 0.050 0.094 0.072 0.169 0.072 0.216h0.144c0-0.191 0.022-0.288 0.072-0.288-0.097-0.238-0.144-0.405-0.144-0.502h-0.072zM20.218 24.471c0.047 0.407 0.072 0.718 0.072 0.934h0.072c0-0.083 0.047-0.277 0.144-0.576-0.097-0.155-0.144-0.274-0.144-0.357h-0.144zM20.29 25.69v0.643h0.072v-0.643h-0.072zM24.881 5.598h-0.643c-0.693 0.094-1.078 0.144-1.15 0.144h-0.144c-0.047 0-0.238-0.050-0.574-0.144l-0.357 0.069v0.36c0 0.895-0.097 1.566-0.288 2.009l-0.144 14.567h-0.072l0.072 0.144v0.574c0 0.050-0.025 0.072-0.072 0.072l0.072 0.144v1.291c0 0.050-0.025 0.072-0.072 0.072 0.155 0.524 0.443 0.79 0.862 0.79l0.288 0.288-0.072 0.357c0.144 0.454 0.288 1.15 0.43 2.081 0.202 0 0.418 0.36 0.646 1.078h0.072c0.43 0 0.646-0.144 0.646-0.43l-0.072-1.003c0.097-0.158 0.144-0.299 0.144-0.43-0.144-0.186-0.213-0.349-0.213-0.507l0.072-0.36c-0.050-0.238-0.144-0.357-0.288-0.357-0.155 0.094-0.299 0.144-0.43 0.144h-0.216c-0.072 0-0.144-0.072-0.216-0.216v-0.357c0.047-0.144 0.191-0.216 0.432-0.216h0.072c0.13 0 0.274 0.050 0.43 0.144 0.31-0.094 0.526-0.144 0.646-0.144h1.507c0.072 0 0.144 0.072 0.216 0.216l-0.075 0.502c0.097 0 0.169-0.238 0.216-0.718 0.335-0.31 0.504-0.599 0.504-0.862v-0.859c0-0.454 0.022-0.909 0.072-1.363l-0.072-0.36 0.144-3.159c-0.050-0.094-0.072-0.166-0.072-0.213l0.216-0.72-0.075-0.43c0.097-0.31 0.144-0.526 0.144-0.646-0.191-0.216-0.285-0.335-0.285-0.357v-0.36c0-0.047 0.022-0.069 0.072-0.069l-0.072-0.144v-0.288c0-0.158 0.022-0.277 0.072-0.36l-0.072-0.43v-0.648c0-0.047 0.022-0.069 0.072-0.069l-0.072-0.144v-0.715c0-1.471 0.022-3.458 0.072-5.958 0.094-0.333 0.144-0.623 0.144-0.862v-0.793c-0.205 0-0.418-0.069-0.646-0.213-0.194 0.094-0.338 0.144-0.432 0.144-0.718-0.108-1.078-0.299-1.078-0.574-0.216 0.188-0.335 0.288-0.36 0.288zM21.725 27.771v0.43l0.072 0.36h0.072v-0.79h-0.144zM21.941 28.993v0.144h0.072v-0.144h-0.072zM22.515 2.366c0 0.144 0.022 0.216 0.072 0.216l-0.072 0.357v1.006c0 0.238-0.025 0.599-0.072 1.075h0.144c0-0.119 0.072-0.502 0.216-1.147v-1.507c0-0.094-0.047-0.144-0.144-0.144-0.097 0.014-0.144 0.058-0.144 0.144zM23.665 4.445v0.216l0.072 0.357h0.216c-0.1-0.429-0.147-0.668-0.147-0.715-0.094 0.014-0.141 0.058-0.141 0.141zM24.238 2.222c0 0.050-0.025 0.072-0.072 0.072 0.177 0.668 0.369 1.003 0.574 1.003h0.072c-0.072-0.715-0.263-1.075-0.574-1.075zM24.881 3.442v0.072c0.097 0.155 0.144 0.274 0.144 0.357h0.072v-0.141c-0.072-0.194-0.144-0.288-0.216-0.288zM26.175 26.84l-0.072 0.357v0.213h0.144v-0.571h-0.072zM27.109 2.366c0 0.050-0.025 0.072-0.072 0.072 0.047 0.094 0.072 0.166 0.072 0.213 0 0.191 0.022 0.623 0.072 1.294h0.072c0.094 0 0.144-0.050 0.144-0.144-0.050-0.959-0.147-1.435-0.288-1.435zM27.611 25.405c0 0.382-0.191 0.909-0.574 1.577v0.504c0.011 0.094 0.058 0.144 0.144 0.144 0.382-1.017 0.574-1.735 0.574-2.153l-0.144-0.072zM27.896 28.489h0.144v-0.288c0.238-0.776 0.357-1.327 0.357-1.652v-0.213c-0.333 0.454-0.502 1.175-0.502 2.153zM27.968 19.447h0.144c0.047-0.252 0.072-0.396 0.072-0.43-0.144 0.047-0.216 0.191-0.216 0.43zM28.184 4.231c-0.097 0.155-0.144 0.296-0.144 0.429v0.288h0.144l0.144-0.504v-0.069c0-0.097-0.047-0.144-0.144-0.144zM28.689 16.36c-0.191 0.751-0.36 1.591-0.504 2.511 0.119 0 0.31-0.718 0.576-2.153v-0.357h-0.072zM28.542 5.739l-0.072 0.502c0.072 0.191 0.144 0.288 0.216 0.288v-0.646c0.003-0.097-0.047-0.144-0.144-0.144zM28.47 23.036v0.072h0.144v-0.216c-0.094 0.014-0.144 0.058-0.144 0.144zM28.689 10.619l-0.072 0.504v1.078h0.144v-1.153l0.072-0.357-0.144-0.072zM28.689 20.666l-0.072 0.718v0.072c0.011 0.094 0.058 0.144 0.144 0.144v-0.934h-0.072zM29.046 26.912v0.43c-0.288 0.787-0.43 1.291-0.43 1.507 0.047 0.188 0.072 0.357 0.072 0.502l0.144-0.069-0.072-0.144v-0.288c0.288-0.779 0.43-1.377 0.43-1.793v-0.144h-0.144zM29.046 18.874c0 0.133-0.119 0.563-0.357 1.294 0.047 0.094 0.072 0.166 0.072 0.213h0.072l0.288-1.435v-0.072h-0.075zM28.689 21.744v0.574h0.072v-0.574h-0.072zM29.331 17.796c0 0.144-0.047 0.31-0.144 0.504h0.072c0.097 0 0.144-0.050 0.144-0.144v-0.36h-0.072zM29.19 25.045v0.43h0.072l0.072-0.43h-0.144zM29.404 2.868v0.144h0.072v-0.144h-0.072zM29.404 17.15v0.43h0.072v-0.43h-0.072zM30.121 17.796c0 0.288-0.216 1.46-0.646 3.519v0.069c0.227-0.105 0.396-0.895 0.502-2.366 0.191-0.169 0.288-0.357 0.288-0.574v-0.504c0-0.097-0.047-0.144-0.144-0.144zM29.548 28.633v0.144h0.216l0.144-0.504v-0.144c-0.061 0-0.18 0.169-0.36 0.504zM29.905 27.486v0.288h0.144l0.072-0.36v-0.072h-0.072c-0.094 0.011-0.144 0.061-0.144 0.144zM30.193 26.048c-0.094 0.158-0.144 0.299-0.144 0.43h0.072c0.072 0 0.144-0.069 0.216-0.213v-0.072c0-0.094-0.047-0.144-0.144-0.144zM30.193 12.342l-0.072 0.357v0.718h0.072l0.072-0.357v-0.718h-0.072zM30.193 22.174l-0.072 0.36v0.144c0.011 0.094 0.061 0.144 0.144 0.144v-0.648h-0.072zM30.409 8.754v0.288h0.144v-0.432c-0.097 0.011-0.144 0.061-0.144 0.144zM30.626 19.949c-0.097 0.405-0.169 1.003-0.216 1.793 0.094 0 0.191-0.574 0.288-1.724v-0.069h-0.072z"></path>
<path d="M34.123 1.433c0.144 0 0.335 0.050 0.574 0.144 0.335-0.094 0.599-0.144 0.79-0.144l0.931 0.144c0.31-0.094 0.526-0.144 0.646-0.144h1.363c0.155 0 0.49 0.050 1.006 0.144 0.144 0 0.335-0.047 0.574-0.144 0.238 0 0.36 0.025 0.36 0.072 1.028-0.050 1.793-0.072 2.297-0.072h4.666c0.429 0 0.646 0.504 0.646 1.507 0.238 1.629 0.357 2.682 0.357 3.159l-0.288 0.144c-0.371-0.047-0.754-0.213-1.147-0.502l-0.144 0.069h-0.574c-0.169 0-0.382-0.025-0.646-0.069-0.097 0.047-0.169 0.069-0.216 0.069-0.144 0-0.216-0.025-0.216-0.069-0.477 0.047-0.837 0.069-1.075 0.069h-2.294c-0.058 0-0.321-0.047-0.79-0.144h-0.502c-0.097 0-0.335 0.050-0.718 0.144-0.238-0.083-0.357-0.202-0.357-0.357 0.097-0.801 0.263-1.566 0.502-2.297-0.097-0.454-0.144-0.815-0.144-1.078v-0.069c-0.335-0.050-0.526-0.072-0.574-0.072l-0.072 0.141v0.934l-0.144 1.291c0.094 0.635 0.191 1.017 0.288 1.15 0 0.058-0.263 0.441-0.79 1.147v0.144c0 0.335 0.050 0.599 0.144 0.79-0.097 0.188-0.144 0.454-0.144 0.787v1.507c0 0.191 0.050 0.504 0.144 0.934-0.097 0.443-0.144 0.707-0.144 0.79 0 0.574 0.504 0.959 1.507 1.147 0.083 0 0.277-0.047 0.576-0.144l0.429 0.072c1.158 0 2.211-0.191 3.159-0.574h0.288c0.097 0.011 0.144 0.058 0.144 0.144v0.357c0 0.169 0.025 0.385 0.072 0.646-0.097 0.191-0.144 0.36-0.144 0.504 0.047 0.144 0.097 0.213 0.144 0.213l-0.078 0.504v2.294l0.072 0.504-0.216 0.144h-0.144c-0.97-0.382-1.519-0.574-1.652-0.574-0.335 0.050-0.526 0.072-0.574 0.072-0.083 0-0.418-0.072-1.006-0.216-0.18 0.094-0.371 0.144-0.574 0.144-0.050 0-0.119-0.025-0.216-0.072-0.191 0.050-0.36 0.072-0.504 0.072l-0.288-0.072c-0.155 0.097-0.299 0.147-0.429 0.147h-0.144l-0.216-0.147c0.058-1.854 0.155-3.001 0.288-3.444-0.036-0.288-0.18-0.43-0.429-0.43-0.097 0.158-0.144 0.277-0.144 0.36-0.047 1.471-0.072 2.427-0.072 2.871-0.094 0.31-0.144 0.524-0.144 0.643v0.072c0.371 0 0.585 0.094 0.646 0.288l-0.427 0.571c0.050 2.297 0.072 4.068 0.072 5.312v1.652c0 0.213 0.191 0.623 0.576 1.219l0.502-0.072h0.072c0.169 0 0.382 0.025 0.646 0.072l0.502-0.144c0.801 0.047 1.424 0.069 1.865 0.069h1.793c0.202 0 0.396 0.025 0.574 0.072 0.191-0.050 0.382-0.072 0.576-0.072h1.219c0.18 0 0.587-0.144 1.219-0.43h0.144c0.072 0 0.144 0.072 0.216 0.216-0.263 2.965-0.502 4.448-0.718 4.448-0.083 0.050-0.18 0.069-0.288 0.069h-2.225c-2.045 0-3.625 0.025-4.736 0.072-0.945-0.050-2.427-0.072-4.45-0.072h-0.862c-0.238 0-0.357-0.047-0.357-0.144-0.238 0.144-0.429 0.216-0.574 0.216h-0.216c-0.108 0-0.18-0.119-0.216-0.36 0.288-0.729 0.429-1.183 0.429-1.363 0-0.704-0.025-1.183-0.072-1.435 0.047-0.992 0.072-1.904 0.072-2.727v-1.931c0-0.707-0.025-1.183-0.072-1.435 0.047-0.504 0.072-1.053 0.072-1.652v-5.168c0-0.169-0.025-0.382-0.072-0.646 0.047-0.094 0.072-0.166 0.072-0.213l-0.072-0.862 0.072-1.006c0-0.371-0.025-0.704-0.072-1.003 0.047-1.591 0.072-2.979 0.072-4.162v-2.655l-0.072-0.36h0.072l-0.429-1.363v-0.075c0.097-0.188 0.241-0.285 0.432-0.285zM34.696 2.294v0.288l0.504 2.439h0.072c0.047-0.166 0.072-0.263 0.072-0.288 0-0.227-0.144-0.92-0.432-2.081 0-0.238-0.047-0.357-0.144-0.357h-0.072zM34.84 8.108l-0.144 0.288c0 1.125 0.144 1.912 0.432 2.366l-0.216 1.219 0.432 2.081v0.646c0.036 0.288 0.108 0.429 0.216 0.429 0-0.238 0.022-0.36 0.072-0.36-0.083-0.31-0.18-1.097-0.288-2.366v-1.937c0-0.119-0.119-0.599-0.36-1.435l0.072-0.36c0-0.357-0.072-0.546-0.216-0.571zM34.984 27.198c0 0.144-0.022 0.213-0.072 0.213 0.050 0.097 0.072 0.169 0.072 0.216h0.072v-0.43h-0.072zM35.273 5.453c0 0.025-0.025 0.119-0.072 0.288 0 0.213 0.191 1.028 0.574 2.439 0.288 1.424 0.429 2.599 0.429 3.519h-0.069l0.072 0.144v0.144c0 0.050-0.025 0.072-0.072 0.072 0.072 0.188 0.144 0.288 0.216 0.288 0-0.050 0.025-0.072 0.072-0.072 0-0.047-0.025-0.119-0.072-0.213 0.047-1.053 0.119-1.818 0.216-2.297-0.335 0-0.621-1.172-0.862-3.519-0.050 0-0.169-0.263-0.357-0.787h-0.075zM36.276 1.865l-0.072 0.144c0.144 0.643 0.216 1.097 0.216 1.361v0.79c0.011 0.097 0.058 0.144 0.144 0.144v-0.862c0-0.144 0.072-0.429 0.216-0.862-0.061-0.477-0.23-0.715-0.504-0.715zM36.564 25.979l-0.072 0.357v1.006h0.072c0-0.623 0.097-1.053 0.288-1.294l-0.144-0.069h-0.144zM37.138 27.771v0.069c0 0.266 0.022 0.599 0.072 1.006-0.050 0.083-0.072 0.177-0.072 0.288h0.144v-0.144c0-0.158 0.022-0.277 0.072-0.36-0.050-0.571-0.119-0.859-0.216-0.859zM37.354 13.564v0.502c0.094 0 0.144-0.047 0.144-0.144l-0.072-0.357h-0.072zM37.639 2.222v0.862c0.288 0.299 0.429 0.587 0.429 0.865 0.108 0 0.18-0.169 0.216-0.504l-0.072-0.862h0.072c-0.047-0.385-0.169-0.574-0.357-0.574-0.191 0.069-0.288 0.141-0.288 0.213zM39.077 26.408c0 0.025-0.050 0.382-0.144 1.078v0.43h0.144c0.191-0.718 0.288-1.125 0.288-1.219v-0.144c0-0.094-0.047-0.144-0.144-0.144h-0.144zM39.792 13.417c-0.191 0.097-0.288 0.887-0.288 2.369-0.097 0.011-0.144 0.058-0.144 0.144v0.213h0.144c0.238-0.621 0.357-0.956 0.357-1.003s-0.047-0.288-0.144-0.718c0.144-0.252 0.216-0.49 0.216-0.718v-0.141c0.003-0.1-0.044-0.147-0.141-0.147zM40.513 2.222c0 0.84-0.119 1.793-0.357 2.871l0.144 0.216c0.574-0.050 0.862-0.122 0.862-0.216 0.047-1.577 0.119-2.366 0.216-2.366-0.097-0.36-0.144-0.599-0.144-0.718h-0.574c-0.1 0-0.147 0.069-0.147 0.213zM40.297 28.273c0.047 0.097 0.072 0.169 0.072 0.216h0.144c0.108-0.050 0.299-0.382 0.574-1.003 0.238-0.058 0.357-0.133 0.357-0.216v-0.357c0-0.072-0.072-0.147-0.216-0.216-0.227 0-0.443 0.382-0.646 1.147-0.036 0-0.13 0.144-0.285 0.43zM40.513 15.357c0.13 0 0.299-0.266 0.502-0.79l-0.072-0.144v-0.504c0-0.119 0.047-0.335 0.144-0.646l-0.144-0.069h-0.072c-0.119 0-0.238 0.715-0.357 2.153zM41.158 15.501l-0.072 0.357v0.072c0.011 0.094 0.058 0.144 0.144 0.144 0-0.050 0.025-0.241 0.072-0.574h-0.144z"></path>
<path d="M58.721 1.505h1.006c1.926 0.335 3.001 0.504 3.231 0.504 0.526-0.191 0.862-0.288 1.003-0.288h1.724c0.443 0 1.064-0.022 1.868-0.069 0.094 0.050 0.166 0.069 0.216 0.069l0.502-0.069c0.13 0 0.61 0.025 1.435 0.069 0.072 0 0.288-0.047 0.646-0.144l0.504 0.072c0.155-0.094 0.296-0.144 0.43-0.144 0.083 0 0.202 0.050 0.357 0.144 0.31-0.094 0.526-0.144 0.646-0.144h0.144c0.432 0 0.646 0.191 0.646 0.574 0 1.305 0.072 2.524 0.216 3.661v0.144c-0.097 0.188-0.238 0.288-0.43 0.288-0.418-0.335-0.779-0.504-1.078-0.504h-0.79c-0.072 0-0.454 0.050-1.15 0.144-0.299-0.094-0.49-0.144-0.574-0.144-0.959 0.119-1.435 0.241-1.435 0.36l0.072 0.288c-0.144 0-0.238 0.959-0.288 2.871l0.216 0.502c-0.097 0.335-0.144 0.599-0.144 0.79l0.072 0.429c-0.050 0.266-0.072 0.527-0.072 0.79 0 0.227 0.022 0.466 0.072 0.718-0.050 0.252-0.072 0.396-0.072 0.429 0.047 0.538 0.072 1.042 0.072 1.507 0 0.050-0.025 0.119-0.072 0.216 0.094 0.191 0.144 0.454 0.144 0.79 0 0.249-0.025 0.466-0.072 0.643 0.047 0.31 0.072 0.623 0.072 0.934v0.288c0 1.438-0.072 2.153-0.216 2.153l0.072 0.144v0.934c0 0.333 0.047 0.599 0.144 0.787l-0.144 0.504c0.094 0.238 0.144 0.405 0.144 0.504-0.050 0.635-0.072 1.158-0.072 1.577 0 0.097-0.025 0.144-0.072 0.144l0.072 0.36v0.934c0 0.202-0.025 0.466-0.072 0.787l0.144 0.36c-0.097 0.213-0.144 0.524-0.144 0.934v0.502c0 0.144 0.216 0.815 0.646 2.012-0.072 0.191-0.144 0.288-0.216 0.288h-4.234c-0.526 0-0.79-0.072-0.79-0.216v-0.213l0.429-1.363v-0.798c0-0.108 0.025-0.202 0.072-0.288-0.047-0.083-0.072-0.177-0.072-0.288v-0.213c0-0.43 0.025-0.718 0.072-0.862-0.047-0.416-0.072-0.776-0.072-1.078v-1c0-0.371 0.025-0.707 0.072-1.003-0.047-0.241-0.072-0.549-0.072-0.934v-0.219c0-0.155 0.025-0.274 0.072-0.357l-0.144-1.147c0.047-0.418 0.072-0.779 0.072-1.078v-0.141c0-0.277-0.025-0.657-0.072-1.15l0.144-0.357-0.069-0.646 0.072-1.003-0.144-0.865c0.047-0.249 0.072-0.49 0.072-0.718v-0.288l0.216-0.288c-0.191-0.238-0.288-0.382-0.288-0.429 0.047-0.909 0.097-1.363 0.144-1.363l-0.072-0.36v-2.94c0-0.169 0.025-0.382 0.072-0.646 0-1.386-0.382-2.081-1.15-2.081-0.357-0.094-0.693-0.144-1.003-0.144h-0.574c-0.191 0-0.504 0.050-0.934 0.144-0.31-0.094-0.623-0.144-0.934-0.144-0.599 0.050-0.909 0.072-0.931 0.072-0.097-0.158-0.144-0.277-0.144-0.36 0.238-1.494 0.357-2.499 0.357-3.015v-0.213c0-0.263 0.144-0.477 0.429-0.646zM64.751 8.321l-0.213 0.288v0.144c0 0.036 0.047 0.227 0.144 0.574v0.069c-0.288 0.407-0.43 0.815-0.43 1.219 0.047 0.083 0.072 0.177 0.072 0.288 0.144 0 0.335-0.549 0.574-1.652v-0.787c-0.003-0.094-0.050-0.144-0.147-0.144zM64.249 11.552v0.43h0.144v-0.43h-0.144zM64.321 22.246c0 0.047-0.025 0.119-0.072 0.213 0.047 0.526 0.119 1.1 0.216 1.724-0.050 0.252-0.072 0.396-0.072 0.43 0.047 0.094 0.072 0.169 0.072 0.213 0.072 0 0.144-0.069 0.216-0.213v-1.435c0-0.177-0.097-0.49-0.288-0.931h-0.072zM64.321 12.342v0.357l0.216 0.288v0.285l0.072 0.72h0.072c0-0.039 0.022-0.18 0.072-0.429 0-0.277-0.119-0.682-0.357-1.219h-0.075zM64.538 14.351l-0.144 0.502c0.335 0.765 0.502 1.219 0.502 1.363v0.502c0.011 0.097 0.058 0.147 0.144 0.147l0.072-0.147v-0.144c0-0.321-0.169-0.97-0.502-1.937v-0.285h-0.072zM64.538 17.222c0 0.191-0.025 0.288-0.072 0.288l0.072 0.36-0.072 0.43c0.047 0.083 0.072 0.202 0.072 0.36h0.144c0.047-0.479 0.072-0.84 0.072-1.078v-0.36h-0.216zM64.967 27.699l-0.144 0.574c0.058 0.288 0.13 0.432 0.216 0.432l0.072-0.36v-0.504c0-0.091-0.050-0.141-0.144-0.141zM64.895 2.583v0.643c0 0.252 0.097 0.418 0.288 0.504 0.144-0.321 0.238-0.751 0.288-1.291l-0.216-0.144c-0.216 0.094-0.335 0.188-0.36 0.288zM64.967 28.921l-0.072 0.36v0.069c0.047 0 0.119 0.025 0.216 0.072l0.072-0.144-0.072-0.36h-0.144zM65.252 13.129v0.432c0.097 0.621 0.144 1.125 0.144 1.507h0.072v-0.432c-0.047-0.538-0.072-1.014-0.072-1.433l-0.144-0.075zM65.397 17.582l-0.072 0.502v0.934h0.072c0-0.083 0.025-0.515 0.072-1.291v-0.144h-0.072zM65.541 29.063v0.144h0.072v-0.144h-0.072zM65.685 24.54l-0.072 0.144v0.79h0.216l0.144-0.504c-0.097-0.285-0.194-0.43-0.288-0.43zM65.829 4.589v0.72h0.144v-0.865c-0.097 0.014-0.144 0.061-0.144 0.144zM65.829 6.814v0.934c0.011 0.097 0.058 0.144 0.144 0.144 0-0.047 0.022-0.069 0.072-0.069l-0.072-0.144v-0.865h-0.144zM65.829 8.754v0.718h0.072c0.036-0.385 0.083-0.574 0.144-0.574-0.050-0.083-0.072-0.18-0.072-0.288-0.097 0.011-0.144 0.061-0.144 0.144zM66.403 17.724v1.793l-0.072 0.718h0.144c0-0.297 0.169-1.042 0.502-2.225-0.288-0.119-0.43-0.263-0.43-0.43-0.097 0.014-0.144 0.061-0.144 0.144zM66.403 14.637v0.934h0.144c0.144-0.515 0.216-0.826 0.216-0.934v-0.499h-0.072c-0.191 0.069-0.288 0.238-0.288 0.499zM66.688 25.045v1.147l-0.288 2.802h0.144c0.191-0.563 0.288-1.591 0.288-3.087v-0.862h-0.144zM67.12 2.583c0.011 0.094 0.058 0.144 0.144 0.144v-0.144h-0.144zM67.622 4.589c0 0.050-0.025 0.122-0.072 0.216 0.047 0.094 0.072 0.169 0.072 0.213h0.862v-0.429h-0.862zM67.838 2.724v0.144h0.072v-0.144h-0.072zM68.556 2.724v0.502c0.011 0.097 0.058 0.144 0.144 0.144 0-0.119 0.025-0.308 0.072-0.574l-0.144-0.069h-0.072zM69.345 2.294c-0.050 1.255-0.072 2.189-0.072 2.799 0.144 0.050 0.216 0.094 0.216 0.144 0.238 0 0.357-0.743 0.357-2.225 0.047-0.263 0.072-0.479 0.072-0.646l-0.144-0.072h-0.43zM70.925 4.589v0.144h0.072v-0.144h-0.072zM71.498 3.012c-0.097 0.31-0.144 0.524-0.144 0.646v0.069c0.119 0 0.216-0.213 0.288-0.646l-0.144-0.069zM72.357 4.375l-0.357 0.502v0.216c0 0.108 0.216 0.177 0.646 0.216v-0.072c-0.061-0.574-0.155-0.862-0.288-0.862z"></path>
<path d="M74.064 1.433c0.144 0 0.335 0.050 0.574 0.144 0.335-0.094 0.599-0.144 0.79-0.144l0.931 0.144c0.31-0.094 0.526-0.144 0.646-0.144h1.363c0.155 0 0.49 0.050 1.006 0.144 0.144 0 0.335-0.047 0.574-0.144 0.238 0 0.36 0.025 0.36 0.072 1.028-0.050 1.793-0.072 2.297-0.072h4.666c0.43 0 0.646 0.504 0.646 1.507 0.238 1.629 0.357 2.682 0.357 3.159l-0.288 0.144c-0.371-0.047-0.754-0.213-1.147-0.502l-0.144 0.069h-0.574c-0.169 0-0.382-0.025-0.646-0.069-0.097 0.047-0.169 0.069-0.216 0.069-0.144 0-0.216-0.025-0.216-0.069-0.477 0.047-0.837 0.069-1.075 0.069h-2.297c-0.058 0-0.321-0.047-0.79-0.144h-0.502c-0.097 0-0.335 0.050-0.718 0.144-0.238-0.083-0.357-0.202-0.357-0.357 0.097-0.801 0.263-1.566 0.502-2.297-0.097-0.454-0.144-0.815-0.144-1.078v-0.069c-0.335-0.050-0.526-0.072-0.574-0.072l-0.072 0.141v0.934l-0.144 1.291c0.094 0.635 0.191 1.017 0.288 1.15 0 0.058-0.263 0.441-0.79 1.147v0.144c0 0.335 0.050 0.599 0.144 0.79-0.097 0.188-0.144 0.454-0.144 0.787v1.507c0 0.191 0.050 0.504 0.144 0.934-0.097 0.443-0.144 0.707-0.144 0.79 0 0.574 0.504 0.959 1.507 1.147 0.083 0 0.277-0.047 0.576-0.144l0.43 0.072c1.158 0 2.211-0.191 3.159-0.574h0.288c0.097 0.011 0.144 0.058 0.144 0.144v0.357c0 0.169 0.025 0.385 0.072 0.646-0.097 0.191-0.144 0.36-0.144 0.504 0.047 0.144 0.097 0.213 0.144 0.213l-0.072 0.504v2.294l0.072 0.504-0.216 0.144h-0.144c-0.97-0.382-1.519-0.574-1.652-0.574-0.335 0.050-0.526 0.072-0.574 0.072-0.083 0-0.418-0.072-1.006-0.216-0.183 0.094-0.374 0.144-0.576 0.144-0.050 0-0.119-0.025-0.216-0.072-0.191 0.050-0.36 0.072-0.504 0.072l-0.288-0.072c-0.155 0.097-0.299 0.147-0.43 0.147h-0.144l-0.216-0.147c0.058-1.854 0.155-3.001 0.288-3.444-0.036-0.288-0.18-0.43-0.43-0.43-0.097 0.158-0.144 0.277-0.144 0.36-0.047 1.471-0.072 2.427-0.072 2.871-0.094 0.31-0.144 0.524-0.144 0.643v0.072c0.371 0 0.585 0.094 0.646 0.288l-0.43 0.571c0.050 2.297 0.072 4.068 0.072 5.312v1.652c0 0.213 0.191 0.623 0.576 1.219l0.502-0.072h0.072c0.169 0 0.382 0.025 0.646 0.072l0.502-0.144c0.801 0.047 1.424 0.069 1.865 0.069h1.793c0.202 0 0.396 0.025 0.574 0.072 0.191-0.050 0.382-0.072 0.576-0.072h1.219c0.18 0 0.587-0.144 1.219-0.43h0.144c0.072 0 0.144 0.072 0.216 0.216-0.263 2.965-0.502 4.448-0.718 4.448-0.083 0.050-0.18 0.069-0.288 0.069h-2.222c-2.045 0-3.625 0.025-4.736 0.072-0.945-0.050-2.427-0.072-4.45-0.072h-0.862c-0.238 0-0.357-0.047-0.357-0.144-0.238 0.144-0.43 0.216-0.574 0.216h-0.216c-0.108 0-0.18-0.119-0.216-0.36 0.288-0.729 0.43-1.183 0.43-1.363 0-0.704-0.025-1.183-0.072-1.435 0.047-0.992 0.072-1.904 0.072-2.727v-1.931c0-0.707-0.025-1.183-0.072-1.435 0.047-0.504 0.072-1.053 0.072-1.652v-5.168c0-0.169-0.025-0.382-0.072-0.646 0.047-0.094 0.072-0.166 0.072-0.213l-0.072-0.862 0.072-1.006c0-0.371-0.025-0.704-0.072-1.003 0.047-1.591 0.072-2.979 0.072-4.162v-2.655l-0.072-0.36h0.072l-0.43-1.363v-0.075c0.094-0.188 0.238-0.285 0.432-0.285zM74.638 2.294v0.288l0.504 2.439h0.072c0.047-0.166 0.072-0.263 0.072-0.288 0-0.227-0.144-0.92-0.432-2.081 0-0.238-0.047-0.357-0.144-0.357h-0.072zM74.779 8.108l-0.144 0.288c0 1.125 0.144 1.912 0.432 2.366l-0.216 1.219 0.432 2.081v0.646c0.036 0.288 0.108 0.429 0.216 0.429 0-0.238 0.022-0.36 0.072-0.36-0.083-0.31-0.18-1.097-0.288-2.366v-1.937c0-0.119-0.119-0.599-0.36-1.435l0.072-0.36c0-0.357-0.072-0.546-0.216-0.571zM74.923 27.198c0 0.144-0.022 0.213-0.072 0.213 0.050 0.097 0.072 0.169 0.072 0.216h0.072v-0.43h-0.072zM75.212 5.453c0 0.025-0.025 0.119-0.072 0.288 0 0.213 0.191 1.028 0.574 2.439 0.288 1.424 0.43 2.599 0.43 3.519h-0.072l0.072 0.144v0.144c0 0.050-0.025 0.072-0.072 0.072 0.072 0.188 0.144 0.288 0.216 0.288 0-0.050 0.025-0.072 0.072-0.072 0-0.047-0.025-0.119-0.072-0.213 0.047-1.053 0.119-1.818 0.216-2.297-0.335 0-0.621-1.172-0.862-3.519-0.050 0-0.169-0.263-0.357-0.787h-0.072zM76.215 1.865l-0.072 0.144c0.144 0.643 0.216 1.097 0.216 1.361v0.79c0.011 0.097 0.058 0.144 0.144 0.144v-0.862c0-0.144 0.072-0.429 0.216-0.862-0.061-0.477-0.227-0.715-0.504-0.715zM76.503 25.979l-0.072 0.357v1.006h0.072c0-0.623 0.097-1.053 0.288-1.294l-0.144-0.069h-0.144zM77.077 27.771v0.069c0 0.266 0.022 0.599 0.072 1.006-0.050 0.083-0.072 0.177-0.072 0.288h0.144v-0.144c0-0.158 0.022-0.277 0.072-0.36-0.050-0.571-0.119-0.859-0.216-0.859zM77.293 13.564v0.502c0.094 0 0.144-0.047 0.144-0.144l-0.072-0.357h-0.072zM77.581 2.222v0.862c0.288 0.299 0.43 0.587 0.43 0.865 0.108 0 0.18-0.169 0.216-0.504l-0.072-0.862h0.072c-0.047-0.385-0.169-0.574-0.357-0.574-0.194 0.069-0.288 0.141-0.288 0.213zM79.016 26.408c0 0.025-0.050 0.382-0.144 1.078v0.43h0.144c0.191-0.718 0.288-1.125 0.288-1.219v-0.144c0-0.094-0.047-0.144-0.144-0.144h-0.144zM79.731 13.417c-0.191 0.097-0.288 0.887-0.288 2.369-0.097 0.011-0.144 0.058-0.144 0.144v0.213h0.144c0.238-0.621 0.357-0.956 0.357-1.003s-0.047-0.288-0.144-0.718c0.144-0.252 0.216-0.49 0.216-0.718v-0.141c0.003-0.1-0.044-0.147-0.141-0.147zM80.452 2.222c0 0.84-0.119 1.793-0.357 2.871l0.144 0.216c0.574-0.050 0.862-0.122 0.862-0.216 0.047-1.577 0.119-2.366 0.216-2.366-0.097-0.36-0.144-0.599-0.144-0.718h-0.574c-0.1 0-0.147 0.069-0.147 0.213zM80.236 28.273c0.047 0.097 0.072 0.169 0.072 0.216h0.144c0.108-0.050 0.299-0.382 0.574-1.003 0.238-0.058 0.357-0.133 0.357-0.216v-0.357c0-0.072-0.072-0.147-0.216-0.216-0.227 0-0.443 0.382-0.646 1.147-0.036 0-0.13 0.144-0.285 0.43zM80.452 15.357c0.13 0 0.299-0.266 0.502-0.79l-0.072-0.144v-0.504c0-0.119 0.047-0.335 0.144-0.646l-0.144-0.069h-0.072c-0.119 0-0.238 0.715-0.357 2.153zM81.097 15.501l-0.072 0.357v0.072c0.011 0.094 0.058 0.144 0.144 0.144 0-0.050 0.025-0.241 0.072-0.574h-0.144z"></path>
<path d="M97.011 1.361c1.197 0.050 1.793 0.119 1.793 0.213 0.599-0.094 1.078-0.144 1.435-0.144 0.31 0.097 0.526 0.144 0.646 0.144h1.003c0.072 0 0.144 0.072 0.216 0.216-0.097 0.36-0.169 0.79-0.216 1.291 0.288 1.197 0.526 2.394 0.718 3.588 0.047 0.432 0.166 0.909 0.357 1.438v0.862c0 0.133 0.144 0.418 0.43 0.862v0.432c0 0.105-0.025 0.371-0.072 0.787 0.335 0 0.502 0.266 0.502 0.79v0.646c0.432 1.349 0.693 2.499 0.79 3.444 0.382 1.41 0.621 2.655 0.718 3.733h0.144c0.335-0.31 0.504-0.599 0.504-0.862v-0.862c0.335-0.682 0.502-1.349 0.502-2.009 0.335-1.399 0.549-2.574 0.646-3.519 0.133 0 0.324-0.812 0.576-2.441 0.274-0.621 0.515-1.746 0.718-3.372l0.502-1.219c0-0.252 0.097-0.97 0.288-2.153v-0.574c0-0.333-0.050-0.599-0.144-0.787 0.072-0.205 0.191-0.349 0.357-0.432h0.216c0.13 0 0.274 0.050 0.43 0.144l0.357-0.144c0.252 0.050 0.396 0.072 0.432 0.072 0.249-0.050 0.394-0.072 0.43-0.072l0.288 0.072c0.191-0.050 0.357-0.072 0.502-0.072 0.144 0.097 0.31 0.144 0.504 0.144 0.743-0.144 1.291-0.213 1.652-0.213 0 0.025 0.047 0.094 0.144 0.213v0.141c0 0.122-0.288 0.601-0.862 1.438-0.479 2.139-0.718 3.361-0.718 3.658 0 0.097-0.119 0.36-0.357 0.79 0 0.050 0.022 0.072 0.072 0.072 0 0.119-0.119 0.524-0.36 1.219-0.288 1.962-0.502 3.228-0.646 3.802-0.526 2.164-0.934 4.007-1.219 5.525 0 0.050 0.025 0.072 0.072 0.072-0.477 1.23-0.812 2.596-1.003 4.093l-1.219 5.739v0.216c0 0.263 0.072 0.718 0.216 1.363-0.119 0.238-0.335 0.357-0.646 0.357-0.119 0-0.407-0.047-0.862-0.144-0.324 0.050-0.538 0.097-0.646 0.144-0.083-0.047-0.205-0.069-0.357-0.069l-0.432 0.069c-0.191-0.047-0.357-0.069-0.502-0.069-0.047 0-0.119 0.025-0.216 0.069-0.083-0.047-0.18-0.069-0.288-0.069-0.382 0.094-0.624 0.144-0.718 0.144-0.574-0.058-0.862-0.297-0.862-0.718v-0.144c0.144-0.623 0.216-0.959 0.216-1.006-0.718-2.439-1.388-5.645-2.009-9.616-0.563-1.962-0.898-3.444-1.006-4.45-0.288-0.479-0.43-1.172-0.43-2.081l-0.576-2.366c0-0.050 0.025-0.072 0.072-0.072-0.432-0.515-0.646-1.374-0.646-2.583l-0.79-3.661c0-0.177-0.288-0.751-0.862-1.724l0.216-0.357zM98.879 2.15c0 0.047-0.022 0.069-0.072 0.069 0 0.050 0.025 0.119 0.072 0.216-0.047 0.321-0.072 0.585-0.072 0.787v0.216l0.072 0.36h0.072c0-0.050 0.025-0.241 0.072-0.576l-0.072-0.357c0.050-0.191 0.072-0.385 0.072-0.574-0.003-0.094-0.050-0.141-0.144-0.141zM98.879 4.159c0 0.050-0.022 0.119-0.072 0.216 0.050 0.094 0.072 0.169 0.072 0.213h0.072v-0.429h-0.072zM100.6 2.15l-0.072 0.357v1.078l0.072 0.36h0.072c0.097 0 0.144-0.050 0.144-0.144v-1.507c0-0.097-0.050-0.144-0.144-0.144h-0.072zM101.678 15.645c0 0.623 0.169 2.15 0.502 4.592v0.144c0 0.050-0.022 0.072-0.072 0.072 0.288 0.956 0.432 1.53 0.432 1.721v0.288h0.144c-0.050-0.479-0.072-0.837-0.072-1.078v-2.369l-0.646-1.937c0-0.036 0.025-0.177 0.072-0.43-0.144-0.49-0.216-0.826-0.216-1.003h-0.144zM101.822 7.748v0.36l0.072 0.718h0.072c0-0.144 0.025-0.31 0.072-0.504-0.047-0.188-0.072-0.382-0.072-0.574h-0.144zM102.251 11.982l-0.072 0.144c0.036 0.288 0.108 0.43 0.216 0.43 0.097 0 0.144-0.047 0.144-0.144v-0.213c0-0.072-0.097-0.141-0.288-0.216zM103.687 24.255c0 0.202-0.169 0.346-0.502 0.43 0.144 1.438 0.31 2.153 0.502 2.153 0-0.668 0.216-1.003 0.646-1.003v-0.072c-0.382-0.213-0.576-0.718-0.576-1.507h-0.069zM103.399 13.273v2.228h0.072c0-0.732 0.047-1.136 0.144-1.219l-0.144-0.648 0.072-0.144c-0.047-0.094-0.072-0.166-0.072-0.216h-0.072zM103.759 19.090c-0.144 0.238-0.238 0.765-0.288 1.577 0.047 0.682 0.119 1.352 0.216 2.012h0.144l0.072-0.36v-0.144c0-0.144-0.072-0.335-0.216-0.574 0.191-0.693 0.288-1.532 0.288-2.511h-0.216zM103.615 23.393l0.072 0.144v0.072c0 0.047-0.025 0.069-0.072 0.069 0.047 0.083 0.072 0.202 0.072 0.36h0.072v-0.72l-0.144 0.075zM103.972 17.078l-0.072 0.36v0.144l0.072 0.357h0.072v-0.862h-0.072zM105.696 21.67v0.147h0.144c0-0.227 0.191-0.973 0.574-2.228-0.263 0-0.502 0.696-0.718 2.081zM105.984 25.474v0.144c0.011 0.097 0.058 0.144 0.144 0.144v-0.288h-0.144zM106.056 26.267v0.069c0.083 2.012 0.299 3.015 0.646 3.015l0.072-0.144c-0.382-1.577-0.574-2.391-0.574-2.441v-0.499h-0.144zM106.846 20.811c-0.097 0.335-0.144 0.623-0.144 0.862v0.147h0.072c0.144-0.443 0.216-0.779 0.216-1.006h-0.144zM107.203 16.718c-0.047 0.335-0.072 0.526-0.072 0.576l0.072 0.357h0.072l0.072-0.502v-0.432h-0.144zM107.203 19.588l-0.072 0.504v0.36h0.072c0.097-0.36 0.144-0.551 0.144-0.576-0.047-0.080-0.072-0.177-0.072-0.288h-0.072zM107.275 15.859v0.216c0.108 0 0.18-0.263 0.216-0.79-0.144 0.022-0.216 0.216-0.216 0.574zM107.275 22.892h0.144c0.191-0.693 0.382-1.291 0.574-1.793v-0.576c-0.083 0-0.277 0.671-0.574 2.012-0.097 0-0.144 0.119-0.144 0.357zM107.78 12.7l-0.072 0.36c0.094 0 0.144-0.072 0.144-0.216v-0.144h-0.072zM107.921 17.796v0.934h0.144v-0.934h-0.144zM108.423 13.417l-0.144 0.504v0.862c0.011 0.097 0.058 0.144 0.144 0.144v-0.648c0.144-0.43 0.216-0.671 0.216-0.718v-0.144h-0.216zM108.281 22.603v0.144h0.144c0.097-0.357 0.144-0.574 0.144-0.643-0.194 0.069-0.288 0.238-0.288 0.499zM108.639 12.342l0.072 0.288h0.072l0.216-0.865c-0.238 0.122-0.36 0.31-0.36 0.576zM108.639 21.6v0.144h0.072v-0.144h-0.072zM108.996 17.724c-0.144 0.524-0.216 0.862-0.216 1.003 0.191-0.083 0.288-0.252 0.288-0.504v-0.499h-0.072zM108.996 8.252c0 0.213-0.022 0.36-0.072 0.429 0.050 0.072 0.072 0.216 0.072 0.43h0.072v-0.859h-0.072zM108.996 16.36v0.504h0.072v-0.504h-0.072zM109.645 12.556c-0.144 0.479-0.31 1.338-0.502 2.585h0.144c0-0.296 0.144-1.017 0.43-2.153 0-0.213 0.025-0.357 0.072-0.43h-0.144zM109.717 7.604v0.429c0.097 0 0.144-0.047 0.144-0.144v-0.141c0-0.094-0.050-0.144-0.144-0.144zM110.002 15.285c-0.097 0.36-0.144 0.574-0.144 0.646v0.069h0.072l0.144-0.643v-0.072h-0.072zM110.002 2.583v0.213c0.097 0 0.144-0.047 0.144-0.144v-0.069h-0.144zM110.002 3.73v0.144h0.072v-0.144h-0.072zM110.146 14.351v0.216c0.119 0 0.191-0.216 0.216-0.646-0.144 0.047-0.216 0.191-0.216 0.429zM110.434 7.39c0.050 0.083 0.072 0.177 0.072 0.288h0.072l0.072-1.15c-0.097-0.003-0.169 0.285-0.216 0.862zM110.434 9.973v0.502h0.144v-0.646c-0.097 0.014-0.144 0.061-0.144 0.144zM110.504 12.772v0.288h0.072c0.097 0 0.144-0.050 0.144-0.144v-0.285h-0.072c-0.094 0.011-0.144 0.058-0.144 0.141zM110.864 2.294l-0.072 0.357v0.429c0.011 0.097 0.058 0.144 0.144 0.144 0.047-0.263 0.072-0.454 0.072-0.574l-0.072-0.357h-0.072zM112.011 2.652c0.097 0.385 0.144 0.696 0.144 0.934-0.144 0.646-0.216 1.078-0.216 1.291 0 0.144 0.025 0.31 0.072 0.504-0.047 0.31-0.072 0.623-0.072 0.934v0.357l0.072 0.36c0.144-0.050 0.216-0.194 0.216-0.432v-0.429c0-1.067 0.144-1.926 0.432-2.585l0.144-1.363-0.216-0.144h-0.144c-0.083 0.014-0.227 0.202-0.432 0.574z"></path>
<path d="M116.91 1.505h0.79c0.108 0 0.202 0.025 0.288 0.069 0.083-0.047 0.18-0.069 0.288-0.069l0.502 0.069 0.36-0.069c0.191 0.094 0.335 0.144 0.43 0.144 0.18-0.094 0.396-0.144 0.646-0.144l1.507 0.36h1.078c0.502-0.147 1.053-0.266 1.652-0.36l0.502 0.069 0.288-0.069c0.191 0.050 0.36 0.069 0.504 0.069l0.288-0.069c0.169 0 0.743 0.504 1.724 1.507 0.263 0.288 0.502 0.599 0.718 0.934 0 0.094-0.025 0.144-0.072 0.144 0.047 0.643 0.072 1.122 0.072 1.435 0 0.169-0.047 1.893-0.144 5.168v1.291c0.097 0.815 0.144 1.269 0.144 1.363v4.018c0 0.335-0.047 0.599-0.144 0.79 0.097 0.549 0.144 1.219 0.144 2.012v3.588c-0.097 0.693-0.144 1.075-0.144 1.147v1.435c0 0.31 0.025 0.79 0.072 1.438-0.216 0.371-0.79 0.992-1.724 1.865-0.238 0.335-0.502 0.504-0.79 0.504l-0.357-0.072-0.144 0.072-0.43-0.072h-0.144c-0.108 0-0.202 0.025-0.288 0.072-0.083-0.050-0.202-0.072-0.357-0.072s-0.277 0.025-0.357 0.072c-0.263-0.050-0.479-0.072-0.646-0.072h-1.15l-0.43 0.072c-0.108-0.050-0.418-0.094-0.931-0.144-0.407 0.094-0.671 0.144-0.79 0.144-0.263 0-0.526-0.025-0.79-0.072-0.551 0.050-1.078 0.072-1.579 0.072h-0.585c-0.515 0-0.92-0.263-1.219-0.79-0.216 0-0.646-0.43-1.291-1.291-0.036 0-0.108-0.119-0.216-0.36l0.072-0.862v-1.654c-0.097-1.543-0.144-2.383-0.144-2.511v-4.666c0-0.371 0.022-0.707 0.072-1.003-0.050-0.241-0.072-0.551-0.072-0.934v-1.438c0.094-0.812 0.144-1.266 0.144-1.363v-2.511c-0.144-0.454-0.216-0.812-0.216-1.078 0-1.829 0.072-3.694 0.216-5.598v-0.285c0-0.299 0.263-0.587 0.79-0.865 0.585-0.953 1.208-1.433 1.865-1.433zM115.691 19.090v0.141h0.072v-0.141h-0.072zM116.049 3.081c0.097 0.396 0.144 0.659 0.144 0.79h0.144c0-0.069-0.025-0.405-0.072-1.003 0.047-0.097 0.072-0.166 0.072-0.216h-0.072c-0.144 0.050-0.216 0.191-0.216 0.429zM116.265 10.619v0.288c0.011 0.097 0.058 0.144 0.144 0.144h0.072l-0.072-0.429h-0.144zM116.766 18.441v0.144l0.072 0.36h0.072v-0.504h-0.144zM116.766 19.588v0.216c0.011 0.094 0.058 0.144 0.144 0.144h0.072v-0.144l-0.072-0.36c-0.094 0.014-0.144 0.061-0.144 0.144zM117.054 7.748l-0.216 0.288 0.144 0.504c0.144 0 0.216-0.238 0.216-0.718l-0.144-0.075zM117.126 22.82c-0.047 0.263-0.072 0.454-0.072 0.574 0.050 0.094 0.072 0.169 0.072 0.216h0.144c0-0.191 0.022-0.288 0.072-0.288-0.097-0.238-0.144-0.405-0.144-0.502h-0.072zM117.126 24.471c0.050 0.405 0.072 0.718 0.072 0.934h0.072c0-0.083 0.047-0.277 0.144-0.576-0.097-0.155-0.144-0.274-0.144-0.357h-0.144zM117.198 25.69v0.643h0.072v-0.643h-0.072zM121.79 5.598h-0.646c-0.693 0.094-1.078 0.144-1.15 0.144h-0.144c-0.047 0-0.238-0.050-0.574-0.144l-0.357 0.069v0.36c0 0.895-0.097 1.566-0.288 2.009l-0.141 14.567h-0.072l0.072 0.144v0.574c0 0.050-0.025 0.072-0.072 0.072l0.072 0.144v1.291c0 0.050-0.025 0.072-0.072 0.072 0.155 0.524 0.443 0.79 0.862 0.79l0.288 0.288-0.072 0.357c0.144 0.454 0.288 1.15 0.43 2.081 0.202 0 0.418 0.36 0.646 1.078h0.072c0.43 0 0.646-0.144 0.646-0.43l-0.072-1.003c0.097-0.158 0.144-0.299 0.144-0.43-0.144-0.18-0.216-0.346-0.216-0.504l0.072-0.36c-0.047-0.238-0.144-0.357-0.288-0.357-0.155 0.094-0.299 0.144-0.43 0.144h-0.216c-0.072 0-0.144-0.072-0.216-0.216v-0.36c0.047-0.144 0.191-0.216 0.432-0.216h0.072c0.13 0 0.274 0.050 0.43 0.144 0.31-0.094 0.526-0.144 0.646-0.144h1.507c0.072 0 0.144 0.072 0.216 0.216l-0.072 0.502c0.097 0 0.169-0.238 0.216-0.718 0.335-0.31 0.504-0.599 0.504-0.862v-0.859c0-0.454 0.022-0.909 0.072-1.363l-0.072-0.36 0.144-3.159c-0.050-0.094-0.075-0.166-0.075-0.213l0.216-0.72-0.072-0.43c0.094-0.31 0.144-0.524 0.144-0.643-0.191-0.216-0.288-0.335-0.288-0.36v-0.36c0-0.047 0.022-0.069 0.072-0.069l-0.072-0.144v-0.288c0-0.158 0.022-0.277 0.072-0.36l-0.072-0.43v-0.648c0-0.047 0.022-0.069 0.072-0.069l-0.072-0.144v-0.715c0-1.471 0.022-3.458 0.072-5.958 0.094-0.333 0.144-0.623 0.144-0.862v-0.793c-0.205 0-0.418-0.069-0.646-0.213-0.191 0.094-0.335 0.144-0.43 0.144-0.718-0.108-1.075-0.299-1.075-0.574-0.219 0.188-0.338 0.288-0.363 0.288zM118.634 27.771v0.43l0.072 0.36h0.072v-0.79h-0.144zM118.85 28.993v0.144h0.072v-0.144h-0.072zM119.424 2.366c0 0.144 0.022 0.216 0.072 0.216l-0.072 0.357v1.006c0 0.238-0.025 0.599-0.072 1.075h0.144c0-0.119 0.072-0.502 0.216-1.147v-1.507c0-0.094-0.047-0.144-0.144-0.144-0.097 0.014-0.144 0.058-0.144 0.144zM120.571 4.445v0.216l0.072 0.357h0.216c-0.097-0.429-0.144-0.668-0.144-0.718-0.097 0.017-0.144 0.061-0.144 0.144zM121.144 2.222c0 0.050-0.025 0.072-0.072 0.072 0.177 0.668 0.371 1.003 0.574 1.003h0.072c-0.072-0.715-0.26-1.075-0.574-1.075zM121.79 3.442v0.072c0.097 0.155 0.144 0.274 0.144 0.357h0.072v-0.141c-0.072-0.194-0.144-0.288-0.216-0.288zM123.081 26.84l-0.072 0.36v0.213h0.144v-0.574h-0.072zM124.015 2.366c0 0.050-0.025 0.072-0.072 0.072 0.047 0.094 0.072 0.169 0.072 0.213 0 0.191 0.022 0.623 0.072 1.294h0.072c0.094 0 0.144-0.050 0.144-0.144-0.050-0.959-0.144-1.435-0.288-1.435zM124.52 25.405c0 0.382-0.191 0.909-0.574 1.577v0.504c0.011 0.094 0.058 0.144 0.144 0.144 0.382-1.017 0.574-1.735 0.574-2.153l-0.144-0.072zM124.805 28.489h0.144v-0.288c0.238-0.776 0.357-1.327 0.357-1.652v-0.213c-0.333 0.454-0.502 1.175-0.502 2.153zM124.877 19.447h0.144c0.047-0.252 0.072-0.396 0.072-0.43-0.144 0.047-0.216 0.191-0.216 0.43zM125.093 4.231c-0.097 0.155-0.144 0.296-0.144 0.429v0.288h0.144l0.144-0.504v-0.069c-0.003-0.097-0.050-0.144-0.144-0.144zM125.595 16.36c-0.191 0.751-0.36 1.591-0.504 2.511 0.119 0 0.31-0.718 0.576-2.153v-0.357h-0.072zM125.451 5.739l-0.072 0.502c0.072 0.191 0.144 0.288 0.216 0.288v-0.646c0-0.097-0.047-0.144-0.144-0.144zM125.379 23.036v0.072h0.144v-0.216c-0.094 0.014-0.144 0.058-0.144 0.144zM125.595 10.619l-0.072 0.504v1.078h0.144v-1.153l0.072-0.357-0.144-0.072zM125.595 20.666l-0.072 0.718v0.072c0.011 0.094 0.058 0.144 0.144 0.144v-0.934h-0.072zM125.955 26.912v0.43c-0.288 0.787-0.43 1.291-0.43 1.507 0.047 0.188 0.072 0.357 0.072 0.502l0.144-0.069-0.072-0.144v-0.288c0.288-0.779 0.43-1.377 0.43-1.793v-0.144h-0.144zM125.955 18.874c0 0.133-0.119 0.563-0.357 1.294 0.047 0.094 0.072 0.166 0.072 0.213h0.072l0.288-1.435v-0.072h-0.075zM125.595 21.744v0.574h0.072v-0.574h-0.072zM126.24 17.796c0 0.144-0.047 0.31-0.144 0.504h0.072c0.097 0 0.144-0.050 0.144-0.144v-0.36h-0.072zM126.096 25.045v0.43h0.072l0.072-0.43h-0.144zM126.312 2.868v0.144h0.072v-0.144h-0.072zM126.312 17.15v0.43h0.072v-0.43h-0.072zM127.030 17.796c0 0.288-0.216 1.46-0.646 3.519v0.069c0.227-0.105 0.396-0.895 0.502-2.366 0.191-0.169 0.288-0.357 0.288-0.574v-0.504c0-0.097-0.050-0.144-0.144-0.144zM126.457 28.633v0.144h0.216l0.144-0.504v-0.144c-0.061 0-0.18 0.169-0.36 0.504zM126.814 27.486v0.288h0.144l0.072-0.36v-0.072h-0.072c-0.094 0.011-0.144 0.061-0.144 0.144zM127.102 26.048c-0.094 0.158-0.144 0.299-0.144 0.43h0.072c0.072 0 0.144-0.069 0.216-0.213v-0.072c0-0.094-0.050-0.144-0.144-0.144zM127.102 12.342l-0.072 0.357v0.718h0.072l0.072-0.357v-0.718h-0.072zM127.102 22.174l-0.072 0.36v0.144c0.011 0.094 0.061 0.144 0.144 0.144v-0.648h-0.072zM127.318 8.754v0.288h0.144v-0.432c-0.097 0.011-0.144 0.061-0.144 0.144zM127.532 19.949c-0.097 0.405-0.169 1.003-0.216 1.793 0.094 0 0.191-0.574 0.288-1.724v-0.069h-0.072z"></path>
<path d="M131.031 1.433c0.144 0 0.335 0.050 0.574 0.144 0.335-0.094 0.599-0.144 0.79-0.144l0.931 0.144c0.31-0.094 0.526-0.144 0.646-0.144h1.363c0.155 0 0.49 0.050 1.006 0.144 0.144 0 0.335-0.047 0.574-0.144 0.238 0 0.36 0.025 0.36 0.072 1.028-0.050 1.793-0.072 2.297-0.072h4.666c0.429 0 0.646 0.504 0.646 1.507 0.238 1.629 0.357 2.682 0.357 3.159l-0.288 0.141c-0.371-0.047-0.754-0.213-1.147-0.502l-0.144 0.069h-0.574c-0.169 0-0.382-0.025-0.646-0.069-0.097 0.047-0.169 0.069-0.216 0.069-0.144 0-0.216-0.025-0.216-0.069-0.477 0.047-0.837 0.069-1.075 0.069h-2.297c-0.058 0-0.321-0.047-0.79-0.144h-0.502c-0.097 0-0.335 0.050-0.718 0.144-0.238-0.083-0.357-0.202-0.357-0.357 0.097-0.801 0.263-1.566 0.502-2.297-0.097-0.454-0.144-0.815-0.144-1.078v-0.067c-0.335-0.050-0.526-0.072-0.574-0.072l-0.072 0.141v0.934l-0.144 1.291c0.094 0.635 0.191 1.017 0.288 1.15 0 0.058-0.263 0.441-0.79 1.147v0.144c0 0.335 0.050 0.599 0.144 0.79-0.097 0.188-0.144 0.454-0.144 0.787v1.507c0 0.191 0.050 0.504 0.144 0.934-0.097 0.443-0.144 0.707-0.144 0.79 0 0.574 0.504 0.959 1.507 1.147 0.083 0 0.277-0.047 0.576-0.144l0.429 0.072c1.158 0 2.211-0.191 3.159-0.574h0.288c0.097 0.011 0.144 0.058 0.144 0.144v0.357c0 0.169 0.025 0.385 0.072 0.646-0.097 0.191-0.144 0.36-0.144 0.504 0.047 0.144 0.097 0.213 0.144 0.213l-0.072 0.504v2.294l0.072 0.504-0.216 0.144h-0.144c-0.97-0.382-1.519-0.574-1.652-0.574-0.335 0.050-0.526 0.072-0.574 0.072-0.083 0-0.418-0.072-1.006-0.216-0.18 0.094-0.371 0.144-0.574 0.144-0.050 0-0.119-0.025-0.216-0.072-0.191 0.050-0.36 0.072-0.504 0.072l-0.288-0.072c-0.155 0.097-0.299 0.147-0.429 0.147h-0.144l-0.216-0.147c0.058-1.854 0.155-3.001 0.288-3.444-0.036-0.288-0.18-0.43-0.429-0.43-0.097 0.158-0.144 0.277-0.144 0.36-0.047 1.471-0.072 2.427-0.072 2.871-0.094 0.31-0.144 0.524-0.144 0.643v0.072c0.371 0 0.585 0.094 0.646 0.288l-0.432 0.571c0.050 2.297 0.072 4.068 0.072 5.312v1.652c0 0.213 0.191 0.623 0.576 1.219l0.502-0.072h0.072c0.169 0 0.382 0.025 0.646 0.072l0.502-0.144c0.801 0.047 1.424 0.069 1.865 0.069h1.793c0.202 0 0.396 0.025 0.574 0.072 0.191-0.050 0.382-0.072 0.576-0.072h1.219c0.18 0 0.587-0.144 1.219-0.43h0.144c0.072 0 0.144 0.072 0.216 0.216-0.263 2.965-0.502 4.448-0.718 4.448-0.083 0.050-0.18 0.069-0.288 0.069h-2.225c-2.045 0-3.625 0.025-4.736 0.072-0.945-0.050-2.427-0.072-4.45-0.072h-0.862c-0.238 0-0.357-0.047-0.357-0.144-0.238 0.144-0.429 0.216-0.574 0.216h-0.216c-0.108 0-0.18-0.119-0.216-0.36 0.288-0.729 0.429-1.183 0.429-1.363 0-0.704-0.025-1.183-0.072-1.435 0.047-0.992 0.072-1.904 0.072-2.727v-1.931c0-0.707-0.025-1.183-0.072-1.435 0.047-0.504 0.072-1.053 0.072-1.652v-5.168c0-0.169-0.025-0.382-0.072-0.646 0.047-0.094 0.072-0.166 0.072-0.213l-0.066-0.862 0.072-1.006c0-0.371-0.025-0.704-0.072-1.003 0.047-1.591 0.072-2.979 0.072-4.162v-2.655l-0.072-0.36h0.072l-0.432-1.366v-0.072c0.097-0.188 0.238-0.285 0.432-0.285zM131.605 2.294v0.288l0.504 2.439h0.069c0.047-0.166 0.072-0.263 0.072-0.288 0-0.227-0.144-0.92-0.432-2.081 0-0.238-0.047-0.357-0.144-0.357h-0.069zM131.746 8.108l-0.144 0.288c0 1.125 0.144 1.912 0.432 2.366l-0.216 1.219 0.432 2.081v0.646c0.036 0.288 0.108 0.429 0.216 0.429 0-0.238 0.022-0.36 0.072-0.36-0.083-0.31-0.18-1.097-0.288-2.366v-1.937c0-0.119-0.119-0.599-0.36-1.435l0.072-0.36c0-0.357-0.072-0.546-0.216-0.571zM131.891 27.198c0 0.144-0.022 0.213-0.072 0.213 0.050 0.097 0.072 0.169 0.072 0.216h0.072v-0.43h-0.072zM132.179 5.453c0 0.025-0.025 0.119-0.072 0.288 0 0.213 0.191 1.028 0.574 2.439 0.288 1.424 0.429 2.599 0.429 3.519h-0.072l0.072 0.144v0.144c0 0.050-0.025 0.072-0.072 0.072 0.072 0.188 0.144 0.288 0.216 0.288 0-0.050 0.025-0.072 0.072-0.072 0-0.047-0.025-0.119-0.072-0.213 0.047-1.053 0.119-1.818 0.216-2.297-0.335 0-0.621-1.172-0.862-3.519-0.050 0-0.169-0.263-0.357-0.787h-0.072zM133.185 1.865l-0.072 0.144c0.144 0.643 0.216 1.097 0.216 1.361v0.79c0.011 0.097 0.058 0.144 0.144 0.144v-0.862c0-0.144 0.072-0.429 0.216-0.862-0.064-0.477-0.23-0.715-0.504-0.715zM133.47 25.979l-0.072 0.357v1.006h0.072c0-0.623 0.097-1.053 0.288-1.294l-0.144-0.069h-0.144zM134.046 27.771v0.069c0 0.266 0.022 0.599 0.072 1.006-0.050 0.083-0.072 0.177-0.072 0.288h0.144v-0.144c0-0.158 0.022-0.277 0.072-0.36-0.050-0.571-0.122-0.859-0.216-0.859zM134.26 13.564v0.502c0.094 0 0.144-0.047 0.144-0.144l-0.072-0.357h-0.072zM134.548 2.222v0.862c0.288 0.299 0.429 0.587 0.429 0.865 0.108 0 0.18-0.169 0.216-0.504l-0.072-0.862h0.072c-0.047-0.385-0.169-0.574-0.357-0.574-0.194 0.069-0.288 0.141-0.288 0.213zM135.983 26.408c0 0.025-0.050 0.382-0.144 1.078v0.43h0.144c0.191-0.718 0.288-1.125 0.288-1.219v-0.144c0-0.094-0.047-0.144-0.144-0.144h-0.144zM136.701 13.417c-0.191 0.097-0.288 0.887-0.288 2.369-0.097 0.011-0.144 0.058-0.144 0.144v0.213h0.144c0.238-0.621 0.357-0.956 0.357-1.003s-0.047-0.288-0.141-0.718c0.144-0.252 0.216-0.49 0.216-0.718v-0.141c-0.003-0.1-0.050-0.147-0.144-0.147zM137.419 2.222c0 0.84-0.119 1.793-0.357 2.871l0.144 0.216c0.574-0.050 0.862-0.122 0.862-0.216 0.047-1.577 0.119-2.366 0.216-2.366-0.097-0.36-0.144-0.599-0.144-0.718h-0.574c-0.1 0-0.147 0.069-0.147 0.213zM137.203 28.273c0.047 0.097 0.072 0.169 0.072 0.216h0.144c0.108-0.050 0.299-0.382 0.574-1.003 0.238-0.058 0.357-0.133 0.357-0.216v-0.357c0-0.072-0.072-0.147-0.216-0.216-0.227 0-0.443 0.382-0.646 1.147-0.033 0-0.13 0.144-0.285 0.43zM137.419 15.357c0.13 0 0.299-0.266 0.502-0.79l-0.072-0.144v-0.504c0-0.119 0.047-0.335 0.144-0.646l-0.144-0.069h-0.072c-0.119 0-0.238 0.715-0.357 2.153zM138.064 15.501l-0.072 0.357v0.072c0.011 0.094 0.058 0.144 0.144 0.144 0-0.050 0.025-0.241 0.072-0.574h-0.144z"></path>
<path d="M150.282 1.433l0.357 0.144c0.335-0.094 0.624-0.144 0.862-0.144h2.943c0.382 0 0.837 0.025 1.363 0.072 0.097-0.050 0.169-0.072 0.216-0.072l0.36 0.144c0.191-0.094 0.357-0.144 0.502-0.144 0.335 0.097 0.502 0.169 0.502 0.216 0.252-0.144 0.49-0.216 0.718-0.216h1.075c0.205 0 0.826 0.504 1.865 1.507 0.382 0.277 0.576 0.873 0.576 1.793 0 0.108-0.025 0.205-0.072 0.288 0.047 0.887 0.072 1.629 0.072 2.228v1.793c0 0.405 0.169 1.028 0.502 1.865v0.144c0 0.072-0.072 0.144-0.216 0.216h-1.865c-0.155 0-0.277-0.025-0.357-0.072l-0.432 0.072h-2.153c-0.072 0-0.169-0.094-0.288-0.288 0-0.158 0.191-0.657 0.574-1.507v-2.441l0.072-0.718c-0.249-0.050-0.515-0.241-0.79-0.574l-0.144 0.069c-0.036 0-0.227-0.025-0.576-0.069l-0.352 0.072c-0.169-0.047-0.263-0.069-0.288-0.069l-0.357 0.069c-0.108 0-0.205-0.025-0.288-0.069-0.407 0.047-0.743 0.069-1.006 0.069h-1.219c-0.202 0.191-0.49 0.407-0.859 0.646 0.094 0.31 0.144 0.524 0.144 0.646v1.865c0 0.515 0.022 0.873 0.072 1.078-0.050 0.418-0.072 0.682-0.072 0.79-0.050 3.816-0.072 6.326-0.072 7.534-0.097 0.335-0.191 0.504-0.288 0.504h-0.144c-0.144-0.047-0.216-0.191-0.216-0.43h-0.072c0 0.693-0.144 1.244-0.429 1.652-0.036 0.574-0.252 1.435-0.646 2.585 0 0.92-0.144 2.308-0.429 4.162v0.072h0.072c0.477-1.017 0.718-2.164 0.718-3.447 0.119-0.188 0.31-0.288 0.574-0.288v-0.072c0-1.197 0.144-1.793 0.432-1.793l0.288-0.072c0.083 0 0.155 0.696 0.216 2.081 0 0.061-0.025 0.299-0.072 0.72l0.072 0.43c-0.050 0.263-0.072 0.479-0.072 0.643 0.477 0.432 0.743 0.646 0.79 0.646h4.234c0.477-0.321 0.718-0.682 0.718-1.078v-4.018c0-0.047 0.050-0.238 0.144-0.574 0-0.094-0.047-0.144-0.144-0.144-0.155 0.094-0.274 0.144-0.357 0.144-0.108 0-0.202-0.025-0.288-0.072-0.324 0.050-0.585 0.072-0.79 0.072h-1.003c-0.155 0-0.252-0.36-0.288-1.078-0.133 0-0.324-1.053-0.576-3.159-0.047 0-0.072-0.047-0.072-0.144 0.097-0.288 0.191-0.43 0.288-0.43l1.579 0.646c0.396 0 0.707-0.025 0.934-0.072 0.549 0.050 1.078 0.072 1.579 0.072h0.072c0.443 0 0.851-0.025 1.219-0.072 0.263 0.050 0.454 0.072 0.574 0.072 0.563-0.050 0.97-0.072 1.219-0.072 0.429 0.036 0.646 0.108 0.646 0.216v0.213l-0.502 1.652v7.823c0 0.108 0.022 0.202 0.072 0.288-0.050 0.083-0.072 0.18-0.072 0.288 0 0.385 0.022 0.84 0.072 1.363-0.263 0.515-1.006 1.28-2.225 2.297-0.083 0.050-0.18 0.069-0.288 0.069h-0.072c-0.418 0-0.898 0.025-1.435 0.072l-0.288-0.072c-0.177 0.050-0.371 0.072-0.574 0.072h-0.288c-0.050 0-0.072-0.025-0.072-0.072l-0.144 0.072h-0.432c-0.812 0-1.746-0.025-2.799-0.072-0.263 0.050-0.454 0.072-0.576 0.072-0.047 0-0.119-0.025-0.216-0.072-0.405 0.050-0.743 0.072-1.003 0.072h-0.504c-1.197-0.144-1.793-0.36-1.793-0.646-0.405-0.346-0.931-0.92-1.579-1.721 0-0.158 0.025-0.277 0.072-0.36-0.047-1.327-0.072-2.427-0.072-3.3v-1.433c0-0.263 0.050-0.623 0.144-1.078-0.094-0.884-0.144-1.746-0.144-2.585v-8.396c0-1.23-0.025-2.954-0.072-5.165 0.047-0.205 0.072-0.612 0.072-1.219l-0.072-0.429c0-0.191 0.743-0.909 2.225-2.153 0.385-0.147 0.626-0.219 0.72-0.219zM148.132 5.021c-0.097 0.443-0.144 1.067-0.144 1.868l0.072 0.36h0.072c0.144-0.050 0.216-0.191 0.216-0.432v-0.147c0-0.166-0.025-0.382-0.072-0.643 0.144-0.227 0.216-0.49 0.216-0.79-0.003-0.144-0.125-0.216-0.36-0.216zM148.201 4.231v0.069c0.108 0 0.249 0.072 0.429 0.216h0.072v-1.147h-0.072c-0.285 0.166-0.429 0.457-0.429 0.862zM148.273 24.399c0.047 0.083 0.072 0.18 0.072 0.288h0.072l0.144-0.069c-0.047-0.169-0.072-0.405-0.072-0.718-0.083-0.003-0.155 0.166-0.216 0.499zM148.919 12.916c0 0.191 0.025 0.382 0.072 0.574-0.047 0.31-0.072 0.623-0.072 0.934v0.288c0 0.191 0.047 0.504 0.144 0.934h0.072l0.072-0.36v-2.441c0-0.094-0.047-0.144-0.144-0.144s-0.144 0.072-0.144 0.216zM148.919 21.744v0.144h0.144v-0.288c-0.097 0.011-0.144 0.058-0.144 0.144zM149.135 5.093v0.072c0 0.31-0.022 0.621-0.072 0.931v0.144h0.072c0-0.321 0.119-0.538 0.36-0.643-0.144-0.241-0.216-0.407-0.216-0.504h-0.144zM149.708 9.255c0 0.587-0.144 1.305-0.432 2.153 0 0.119-0.022 0.31-0.072 0.574l0.144 0.072c0.227 0 0.396-0.623 0.504-1.868v-0.787c0-0.097-0.047-0.144-0.144-0.144zM149.423 4.159v0.429h0.072c0-0.105 0.119-0.848 0.357-2.225h-0.144c-0.191 0.003-0.285 0.599-0.285 1.796zM151.216 3.225c0 0.050-0.097 0.36-0.288 0.934v0.646l0.072 0.862-0.144 0.072-0.357-0.072v1.078c0 0.177-0.144 0.563-0.429 1.147v0.288l0.79-0.787v-0.648c0-0.177 0.144-0.418 0.432-0.718 0-0.133 0.072-0.299 0.216-0.504-0.097-0.335-0.144-0.623-0.144-0.862v-1.075l-0.072-0.36h-0.075zM150.069 13.489l0.144 0.072h0.072v-0.432c-0.086 0-0.158 0.122-0.216 0.36zM150.928 26.84c0 0.133-0.238 0.61-0.718 1.435-0.047 0.493-0.097 0.779-0.144 0.865 0.058 0.238 0.13 0.357 0.216 0.357h0.072c0.13 0 0.227-0.333 0.288-1.003 0.382-0.191 0.576-0.31 0.576-0.36v-0.069c-0.050-0.82-0.147-1.225-0.291-1.225zM150.856 14.567c0 0.155-0.169 0.682-0.502 1.577h0.072c0.274 0 0.466-0.524 0.574-1.577h-0.144zM150.426 3.225h0.144c0-0.213 0.119-0.502 0.357-0.862-0.058-0.238-0.13-0.357-0.216-0.357-0.152 0.003-0.249 0.407-0.285 1.219zM150.928 10.405l-0.288 1.507v0.213h0.144c0.191-0.396 0.288-0.682 0.288-0.862v-0.43c0-0.050 0.025-0.072 0.072-0.072-0.097-0.155-0.144-0.274-0.144-0.357h-0.072zM151.432 19.447c0.144 0.050 0.216 0.191 0.216 0.43v0.72c0 0.094-0.050 0.144-0.144 0.144-0.382-0.263-0.576-0.43-0.576-0.504 0-0.238 0.169-0.504 0.504-0.79zM151.216 25.762c-0.191 0.31-0.288 0.551-0.288 0.718v0.216l0.504-0.504c0-0.252-0.072-0.393-0.216-0.43zM156.312 2.652v0.144h0.072v-0.144h-0.072zM157.174 2.94v0.144c0.144 0.887 0.216 1.604 0.216 2.153v0.144c0.011 0.097 0.058 0.144 0.144 0.144h0.072c0-0.144 0.025-0.213 0.072-0.213l-0.072-0.144c0-0.31 0.025-0.72 0.072-1.219-0.036-1.294-0.13-1.937-0.288-1.937-0.144-0.003-0.216 0.308-0.216 0.928zM157.387 17.366c0 0.036-0.025 0.227-0.072 0.574 0 0.108 0.025 0.371 0.072 0.79l-0.072 0.36c0.047 0.083 0.072 0.177 0.072 0.288l0.144-0.072c-0.047-0.466-0.072-1.111-0.072-1.937h-0.072zM157.459 25.979v0.357h0.072v-0.357h-0.072zM157.459 28.993v0.144h0.072v-0.144h-0.072zM158.107 10.189v0.285h0.072v-0.285h-0.072zM159.615 8.61l-0.072 0.357v0.072c0 0.249 0.022 0.657 0.072 1.219h0.072v-1.649h-0.072zM159.615 27.342v0.144h0.072v-0.144h-0.072z"></path>
<path d="M164.315 1.433c0.144 0 0.335 0.050 0.574 0.144 0.335-0.094 0.599-0.144 0.79-0.144l0.931 0.144c0.31-0.094 0.526-0.144 0.646-0.144h1.363c0.155 0 0.49 0.050 1.006 0.144 0.144 0 0.335-0.047 0.574-0.144 0.238 0 0.36 0.025 0.36 0.072 1.028-0.050 1.793-0.072 2.297-0.072h4.666c0.429 0 0.646 0.504 0.646 1.507 0.238 1.629 0.357 2.682 0.357 3.159l-0.288 0.144c-0.371-0.047-0.754-0.213-1.147-0.502l-0.144 0.069h-0.574c-0.169 0-0.382-0.025-0.646-0.069-0.097 0.047-0.169 0.069-0.216 0.069-0.144 0-0.216-0.025-0.216-0.069-0.477 0.047-0.837 0.069-1.075 0.069h-2.297c-0.058 0-0.321-0.047-0.79-0.144h-0.502c-0.097 0-0.335 0.050-0.718 0.144-0.238-0.083-0.357-0.202-0.357-0.357 0.097-0.801 0.263-1.566 0.502-2.297-0.097-0.454-0.144-0.815-0.144-1.078v-0.069c-0.335-0.050-0.526-0.072-0.574-0.072l-0.072 0.141v0.934l-0.144 1.291c0.094 0.635 0.191 1.017 0.288 1.15 0 0.058-0.263 0.441-0.79 1.147v0.144c0 0.335 0.050 0.599 0.144 0.79-0.097 0.188-0.144 0.454-0.144 0.787v1.507c0 0.191 0.050 0.504 0.144 0.934-0.097 0.443-0.144 0.707-0.144 0.79 0 0.574 0.504 0.959 1.507 1.147 0.083 0 0.277-0.047 0.576-0.144l0.429 0.072c1.158 0 2.211-0.191 3.159-0.574h0.283c0.097 0.011 0.144 0.058 0.144 0.144v0.357c0 0.169 0.025 0.385 0.072 0.646-0.097 0.191-0.144 0.36-0.144 0.504 0.047 0.144 0.097 0.213 0.144 0.213l-0.072 0.504v2.294l0.072 0.504-0.216 0.144h-0.144c-0.967-0.382-1.519-0.574-1.649-0.574-0.335 0.050-0.526 0.072-0.574 0.072-0.083 0-0.418-0.072-1.006-0.216-0.18 0.094-0.371 0.144-0.574 0.144-0.050 0-0.119-0.025-0.216-0.072-0.191 0.050-0.36 0.072-0.504 0.072l-0.288-0.072c-0.155 0.097-0.299 0.147-0.429 0.147h-0.144l-0.216-0.147c0.058-1.854 0.155-3.001 0.288-3.444-0.036-0.288-0.18-0.43-0.429-0.43-0.097 0.158-0.144 0.277-0.144 0.36-0.047 1.471-0.072 2.427-0.072 2.871-0.094 0.31-0.144 0.524-0.144 0.643v0.072c0.371 0 0.585 0.094 0.646 0.288l-0.427 0.571c0.050 2.297 0.072 4.068 0.072 5.312v1.652c0 0.213 0.191 0.623 0.576 1.219l0.502-0.072h0.072c0.169 0 0.382 0.025 0.646 0.072l0.502-0.144c0.801 0.047 1.424 0.069 1.865 0.069h1.793c0.202 0 0.396 0.025 0.574 0.072 0.191-0.050 0.382-0.072 0.576-0.072h1.219c0.18 0 0.587-0.144 1.219-0.43h0.144c0.072 0 0.144 0.072 0.216 0.216-0.263 2.965-0.502 4.448-0.718 4.448-0.083 0.050-0.18 0.069-0.288 0.069h-2.225c-2.045 0-3.625 0.025-4.736 0.072-0.945-0.050-2.427-0.072-4.45-0.072h-0.862c-0.238 0-0.357-0.047-0.357-0.144-0.238 0.144-0.429 0.216-0.574 0.216h-0.216c-0.108 0-0.18-0.119-0.216-0.36 0.288-0.729 0.429-1.183 0.429-1.363 0-0.704-0.025-1.183-0.072-1.435 0.047-0.992 0.072-1.904 0.072-2.727v-1.931c0-0.707-0.025-1.183-0.072-1.435 0.047-0.504 0.072-1.053 0.072-1.652v-5.168c0-0.169-0.025-0.382-0.072-0.646 0.047-0.094 0.072-0.166 0.072-0.213l-0.072-0.862 0.072-1.006c0-0.371-0.025-0.704-0.072-1.003 0.047-1.591 0.072-2.979 0.072-4.162v-2.655l-0.072-0.36h0.072l-0.429-1.363v-0.075c0.097-0.188 0.241-0.285 0.432-0.285zM164.888 2.294v0.288l0.504 2.439h0.072c0.047-0.166 0.072-0.263 0.072-0.288 0-0.227-0.144-0.92-0.432-2.081 0-0.238-0.047-0.357-0.144-0.357h-0.072zM165.032 8.108l-0.144 0.288c0 1.125 0.144 1.912 0.432 2.366l-0.216 1.219 0.432 2.081v0.646c0.036 0.288 0.108 0.429 0.216 0.429 0-0.238 0.022-0.36 0.072-0.36-0.083-0.31-0.18-1.097-0.288-2.366v-1.937c0-0.119-0.119-0.599-0.36-1.435l0.072-0.36c-0.003-0.357-0.075-0.546-0.216-0.571zM165.174 27.198c0 0.144-0.022 0.213-0.072 0.213 0.050 0.097 0.072 0.169 0.072 0.216h0.072v-0.43h-0.072zM165.462 5.453c0 0.025-0.025 0.119-0.072 0.288 0 0.213 0.191 1.028 0.574 2.439 0.288 1.424 0.429 2.599 0.429 3.519h-0.072l0.072 0.144v0.144c0 0.050-0.025 0.072-0.072 0.072 0.072 0.188 0.144 0.288 0.216 0.288 0-0.050 0.025-0.072 0.072-0.072 0-0.047-0.025-0.119-0.072-0.213 0.047-1.053 0.119-1.818 0.216-2.297-0.335 0-0.621-1.172-0.862-3.519-0.050 0-0.169-0.263-0.357-0.787h-0.072zM166.468 1.865l-0.072 0.144c0.144 0.643 0.216 1.097 0.216 1.361v0.79c0.011 0.097 0.058 0.144 0.144 0.144v-0.862c0-0.144 0.072-0.429 0.216-0.862-0.064-0.477-0.23-0.715-0.504-0.715zM166.753 25.979l-0.072 0.357v1.006h0.072c0-0.623 0.097-1.053 0.288-1.294l-0.144-0.069h-0.144zM167.329 27.771v0.069c0 0.266 0.022 0.599 0.072 1.006-0.050 0.083-0.072 0.177-0.072 0.288h0.144v-0.144c0-0.158 0.022-0.277 0.072-0.36-0.050-0.571-0.122-0.859-0.216-0.859zM167.543 13.564v0.502c0.094 0 0.144-0.047 0.144-0.144l-0.072-0.357h-0.072zM167.831 2.222v0.862c0.288 0.299 0.429 0.587 0.429 0.865 0.108 0 0.18-0.169 0.216-0.504l-0.072-0.862h0.072c-0.047-0.385-0.169-0.574-0.357-0.574-0.191 0.069-0.288 0.141-0.288 0.213zM169.266 26.408c0 0.025-0.050 0.382-0.144 1.078v0.43h0.144c0.191-0.718 0.288-1.125 0.288-1.219v-0.144c0-0.094-0.047-0.144-0.144-0.144h-0.144zM169.984 13.417c-0.191 0.097-0.288 0.887-0.288 2.369-0.097 0.011-0.144 0.058-0.144 0.144v0.213h0.144c0.238-0.621 0.357-0.956 0.357-1.003s-0.047-0.288-0.144-0.718c0.144-0.252 0.216-0.49 0.216-0.718v-0.141c0.003-0.1-0.047-0.147-0.141-0.147zM170.702 2.222c0 0.84-0.119 1.793-0.357 2.871l0.144 0.216c0.574-0.050 0.862-0.122 0.862-0.216 0.047-1.577 0.119-2.366 0.216-2.366-0.097-0.36-0.144-0.599-0.144-0.718h-0.574c-0.1 0-0.147 0.069-0.147 0.213zM170.486 28.273c0.047 0.097 0.072 0.169 0.072 0.216h0.144c0.108-0.050 0.299-0.382 0.574-1.003 0.238-0.058 0.357-0.133 0.357-0.216v-0.357c0-0.072-0.072-0.147-0.216-0.216-0.227 0-0.443 0.382-0.646 1.147-0.033 0-0.13 0.144-0.285 0.43zM170.702 15.357c0.13 0 0.299-0.266 0.502-0.79l-0.072-0.144v-0.504c0-0.119 0.047-0.335 0.144-0.646l-0.144-0.069h-0.072c-0.119 0-0.238 0.715-0.357 2.153zM171.347 15.501l-0.072 0.357v0.072c0.011 0.094 0.058 0.144 0.144 0.144 0-0.050 0.025-0.241 0.072-0.574h-0.144z"></path>
<path d="M181.7 1.361l0.862 0.213c0.432-0.094 0.743-0.144 0.934-0.144 0.144 0 0.31 0.050 0.502 0.144 0.18-0.094 0.371-0.144 0.576-0.144h0.216c0.884 0 1.41 0.671 1.579 2.012 0.238 0.144 0.765 1.269 1.579 3.372l1.793 4.309c0 0.108 0.119 0.396 0.357 0.862 0 0.144 0.288 0.84 0.862 2.081 0.097 0.696 0.263 1.1 0.504 1.219 0 0.119 0.288 0.79 0.862 2.012 0.050 0.718 0.169 1.075 0.357 1.075h0.144c0.144-0.047 0.216-0.188 0.216-0.43v-2.585c0-0.515 0.022-0.923 0.072-1.219-0.050-0.346-0.072-0.779-0.072-1.294v-3.372c-0.097-0.696-0.144-1.078-0.144-1.15v-1.865c0-0.335 0.047-0.599 0.144-0.79-0.097-0.357-0.144-0.549-0.144-0.574 0.094-0.36 0.144-0.693 0.144-1.003v-0.648c0-0.155-0.216-0.732-0.646-1.724v-0.069c0.155-0.144 0.277-0.216 0.36-0.216 0.191 0 0.288 0.025 0.288 0.072l0.862-0.072h3.661c0.072 0 0.144 0.072 0.216 0.216v0.216c-0.191 0.177-0.36 0.657-0.504 1.435l0.072 0.862v1.363c0 0.058-0.047 0.321-0.144 0.79v3.084c0 0.335 0.047 0.599 0.144 0.79-0.047 0.263-0.072 0.454-0.072 0.574 0 0.108 0.025 0.202 0.072 0.288l-0.072 0.504c0 0.155 0.025 0.563 0.072 1.219l-0.144 0.574 0.144 0.646c-0.097 0.188-0.144 0.454-0.144 0.787v2.513c0 0.515 0.025 0.945 0.072 1.291-0.047 0.299-0.072 0.707-0.072 1.219v0.144c0 0.31 0.047 1.269 0.144 2.871-0.097 0.43-0.144 0.743-0.144 0.934v0.502l-0.216 0.288v0.574l0.144 0.216v0.072c0 0.13-0.047 0.274-0.144 0.43 0.047 1.064 0.097 1.71 0.144 1.937-0.047 0.083-0.072 0.538-0.072 1.363 0.072 0 0.263 0.213 0.574 0.643v0.144l-0.144 0.216-0.862-0.072h-0.429c-0.443 0-1.064 0.025-1.868 0.072-0.094-0.050-0.166-0.072-0.216-0.072-0.191 0.050-0.357 0.072-0.502 0.072-0.227 0-0.443-0.335-0.646-1.003-0.216-0.299-0.718-1.471-1.507-3.519-0.155-0.191-1.377-3.084-3.661-8.684-0.346-0.668-0.635-1.363-0.862-2.081-0.407-1.111-0.671-1.685-0.79-1.724v-0.64c0-0.18-0.119-0.371-0.36-0.574v-0.216c0-0.036 0.119-0.155 0.36-0.36v-0.213l-0.36 0.069c-0.072 0-0.288-0.169-0.646-0.502-0.144 0.515-0.216 0.826-0.216 0.931v0.072c0.094 0.815 0.144 1.269 0.144 1.363v0.862c0 0.158-0.050 0.49-0.144 1.003 0.155 0.432 0.249 0.646 0.288 0.646-0.047 0.646-0.072 1.125-0.072 1.438v0.787c0 0.865-0.025 1.699-0.072 2.513 0.047 0.416 0.072 0.776 0.072 1.075-0.047 0.873-0.072 1.424-0.072 1.652l0.072 0.646c-0.144 0.657-0.216 1.067-0.216 1.219 0.144 0.238 0.216 0.479 0.216 0.718v0.144c0 0.671-0.025 1.579-0.072 2.727 0.011 0.335 0.227 0.765 0.646 1.291v0.144c0 0.025-0.047 0.097-0.144 0.216-0.563-0.050-0.97-0.072-1.219-0.072h-2.727c-0.252 0-0.657 0.025-1.219 0.072-0.097-0.155-0.144-0.296-0.144-0.43l0.79-1.219c-0.050-0.718-0.072-1.244-0.072-1.577v-0.646c0-0.227 0.025-0.468 0.072-0.718-0.144-0.779-0.216-3.148-0.216-7.105v-3.303c0-0.382 0.025-0.884 0.072-1.507-0.047-0.083-0.072-0.202-0.072-0.36l0.072-0.643c0-0.050-0.022-0.241-0.072-0.574 0.050-0.324 0.072-0.587 0.072-0.79 0-0.241-0.047-0.36-0.144-0.36 0.050-0.79 0.072-1.386 0.072-1.793v-2.943c0-0.050 0.050-0.241 0.144-0.574-0.094-0.158-0.144-0.299-0.144-0.429 0-0.083 0.097-0.299 0.288-0.646-0.097-0.277-0.191-0.97-0.288-2.081-0.036 0-0.155-0.191-0.357-0.574v-0.219c-0.003-0.155 0.405-0.252 1.216-0.288zM181.772 3.442l-0.288 1.078v0.213l0.072 0.432c-0.097 0.188-0.144 0.357-0.144 0.502 0.094 0.158 0.144 0.277 0.144 0.36h0.144c0.047-0.429 0.097-1.269 0.144-2.511v-0.075h-0.072zM181.772 24.255c0.097 0.299 0.144 0.493 0.144 0.574h0.072c0.191-1.327 0.288-2.355 0.288-3.084v-0.432c-0.23 0-0.396 0.981-0.504 2.943zM182.562 27.126c-0.191 0.49-0.357 1.089-0.502 1.793v0.504c0.011 0.094 0.058 0.144 0.144 0.144 0-0.385 0.144-1.003 0.429-1.868v-0.574h-0.072zM182.49 1.934l-0.144 0.216c0.205 0.058 0.346 0.177 0.432 0.357v1.363h0.072l0.072-0.357v-0.288c0-0.249-0.025-0.657-0.072-1.216l-0.36-0.075zM182.562 25.906v0.288h0.072v-0.288h-0.072zM182.922 14.711v0.646c0.094 0 0.144-0.050 0.144-0.144v-0.36c-0.003-0.094-0.050-0.141-0.144-0.141zM183.925 2.009c-0.144 0.288-0.288 1.937-0.429 4.952-0.097 0.333-0.238 1.097-0.429 2.294l0.072 0.504c-0.050 1.327-0.072 2.402-0.072 3.228l0.144 0.072 0.144-0.504v-0.718c0.036-0.288 0.108-0.429 0.216-0.429l-0.072-0.718c0.238-2.777 0.357-4.472 0.357-5.096 0.097 0 0.191-0.646 0.288-1.937v-1.219c-0.003-0.252-0.075-0.396-0.219-0.429zM183.207 28.993h0.144v-0.144c-0.097 0.011-0.144 0.061-0.144 0.144zM183.568 16.934v0.288h0.144v-0.144c-0.003-0.094-0.050-0.144-0.144-0.144zM183.853 18.225c0.036 0.526 0.108 0.79 0.216 0.79 0.238-0.87 0.36-1.327 0.36-1.363v-0.213l-0.576 0.787zM183.997 20.021l-0.072 0.504v1.144c0.011 0.097 0.058 0.147 0.144 0.147h0.072v-0.072c0-0.083-0.022-0.657-0.072-1.724h-0.072zM184.069 11.622c-0.047 0.252-0.072 0.396-0.072 0.435l0.072 0.357c-0.047 0-0.072 0.025-0.072 0.072h0.144v-0.865h-0.072zM184.502 6.24v0.072c0 1.388-0.072 2.225-0.216 2.511 0.050 0.263 0.072 0.454 0.072 0.574-0.094 0.646-0.144 1.053-0.144 1.219v0.144h0.072c0.119 0 0.216-0.288 0.288-0.862-0.050-0.252-0.072-0.49-0.072-0.718l0.288-0.865c0-0.61 0.119-1.998 0.357-4.162 0-0.036 0.119-0.49 0.357-1.363-0.083-0.274-0.227-0.49-0.429-0.643-0.238 0-0.357 1.122-0.357 3.372-0.050 0.003-0.122 0.244-0.216 0.72zM185.862 4.090c0 0.094-0.022 0.144-0.072 0.144l0.072 0.357v0.144c-0.202 1.602-0.321 2.439-0.357 2.511 0 0.047 0.025 0.069 0.072 0.069 0 0.599-0.144 1.294-0.429 2.081-0.047 0.266-0.072 0.454-0.072 0.574 0.047 0.097 0.072 0.169 0.072 0.216h0.072c0.429-1.244 0.646-2.106 0.646-2.585 0.097-0.479 0.191-0.765 0.288-0.862-0.097-0.216-0.144-0.454-0.144-0.718l0.216-0.718v-0.283c-0.003-0.621-0.122-0.931-0.363-0.931zM185.862 10.045c0 0.144 0.097 0.479 0.288 1.003h0.072l0.072-0.357-0.072-0.865h-0.144c-0.072 0.003-0.144 0.075-0.216 0.219zM189.307 12.772v0.288l0.072 0.357h0.072c0-0.144 0.022-0.213 0.072-0.213-0.058-0.288-0.13-0.432-0.216-0.432zM189.453 14.351v0.288h0.072v-0.288h-0.072zM189.811 17.582v0.144c0.011 0.094 0.058 0.144 0.144 0.144l0.072-0.144v-0.144h-0.216zM189.811 19.090v0.213h0.144c-0.050-0.094-0.072-0.169-0.072-0.213h-0.072zM192.393 25.834v0.213h0.216v-0.069c0-0.097-0.047-0.144-0.144-0.144h-0.072zM195.697 21.096v3.087h0.072c0-0.335 0.025-0.504 0.072-0.504l-0.072-0.144v-2.15c0-0.047 0.025-0.069 0.072-0.069-0.047-0.094-0.072-0.169-0.072-0.216h-0.072zM195.697 24.399v1.579h0.072c0-0.097 0.025-0.144 0.072-0.144l-0.072-0.144v-0.646c0-0.050 0.025-0.072 0.072-0.072-0.047-0.047-0.072-0.238-0.072-0.574h-0.072z"></path>
<path d="M199.59 1.361h0.502c0.227 0 0.466 0.025 0.718 0.069 0.18-0.044 0.393-0.069 0.646-0.069l0.429 0.069c0.252-0.047 0.49-0.069 0.718-0.069l0.432 0.069c0.249-0.047 0.49-0.069 0.718-0.069h0.216c0.576 0 0.862 0.094 0.862 0.288v0.144c-0.050 0.108-0.216 0.344-0.504 0.715v4.808c-0.094 0.346-0.166 0.851-0.216 1.507 0.050 0.527 0.072 1.003 0.072 1.438v2.15c0.097 0.815 0.144 1.269 0.144 1.363v2.727c0 0.058-0.047 0.321-0.144 0.79v0.787c0 0.635-0.022 1.161-0.072 1.579 0.050 0.321 0.072 0.826 0.072 1.507v0.069l-0.072 0.504c0.205 0.058 0.346 0.177 0.432 0.36 0 0.43-0.191 0.643-0.576 0.643-0.155 0-0.274 0.025-0.357 0.072-0.083-0.050-0.18-0.072-0.288-0.072h-0.357c-0.108 0-0.205 0.025-0.288 0.072-0.094-0.050-0.166-0.072-0.216-0.072-0.599 0.050-0.909 0.072-0.931 0.072l-0.357-0.072-0.36 0.072-0.357-0.144c-0.177 0.094-0.371 0.144-0.574 0.144h-0.072c-0.252 0-0.396-0.072-0.432-0.216v-0.064c0.335-0.754 0.504-1.186 0.504-1.294v-1.075c0-0.454 0.022-1.006 0.072-1.652l-0.072-0.36c0-0.036 0.022-0.177 0.072-0.43 0-0.335-0.025-0.526-0.072-0.574 0.047-0.851 0.072-1.546 0.072-2.084v-1.649c0-0.981-0.025-1.652-0.072-2.009 0.047-0.599 0.072-1.338 0.072-2.225v-4.162c0-0.166-0.025-0.382-0.072-0.643 0-0.050 0.022-0.072 0.072-0.072 0-1.147-0.216-2.056-0.646-2.727l0.285-0.219zM200.163 24.684h0.574c0.205 0 0.396 0.025 0.576 0.072l0.429-0.072c0.227 0 0.466 0.025 0.718 0.072 0.371-0.050 0.779-0.072 1.219-0.072h0.216c0.576 0 0.862 0.84 0.862 2.513v0.357c-0.050 0.418-0.072 0.657-0.072 0.718 0.094 0.191 0.144 0.454 0.144 0.79v0.288c0 0.396-0.454 0.657-1.363 0.79h-0.432c-0.382-0.058-0.576-0.202-0.576-0.43-0.263 0.288-0.549 0.43-0.862 0.43h-1.291c-0.371 0-0.657-0.31-0.862-0.934l0.072-0.288c-0.097-0.61-0.144-1.183-0.144-1.721v-1.435c0-0.108-0.022-0.202-0.072-0.288 0.291-0.524 0.576-0.79 0.865-0.79zM200.38 28.345v0.144c0.011 0.094 0.058 0.144 0.144 0.144l0.072-0.144c0-0.094-0.047-0.144-0.144-0.144h-0.072zM201.169 21.171l-0.072 0.357v0.072h0.144v-0.43h-0.072zM201.169 19.805v0.504h0.072v-0.504h-0.072zM201.527 3.081v0.288h0.144v-0.144c0-0.094-0.050-0.144-0.144-0.144zM201.527 4.159v0.216h0.072v-0.216h-0.072zM201.599 5.021l-0.072 0.36c0.047 0.097 0.072 0.169 0.072 0.216 0.094 0 0.144-0.050 0.144-0.144v-0.075l-0.072-0.36h-0.072zM201.743 6.457v0.213c0.047 0.266 0.072 0.479 0.072 0.646h0.072v-0.285c-0.050-0.263-0.072-0.454-0.072-0.574h-0.072zM201.815 8.466v0.72h0.144v-0.36l-0.072-0.36h-0.072zM201.884 11.982c0 0.108-0.025 0.202-0.072 0.288 0.047 0.097 0.072 0.169 0.072 0.216h0.144v-0.36c0-0.094-0.047-0.144-0.144-0.144zM201.884 9.901v0.429c0.097 0 0.144-0.069 0.144-0.216-0.047-0.094-0.072-0.166-0.072-0.213h-0.072zM201.956 10.907l-0.072 0.144v0.429h0.144l0.072-0.357v-0.075c0-0.094-0.047-0.141-0.144-0.141zM202.245 19.733v0.646c0.097 0 0.144-0.050 0.144-0.144v-0.36c0-0.091-0.047-0.141-0.144-0.141zM202.245 21.456v0.43c0.097 0 0.144-0.050 0.144-0.144v-0.141c0-0.094-0.047-0.144-0.144-0.144zM202.245 28.633v0.288c0 0.072 0.072 0.144 0.216 0.216h0.288c0.097 0 0.144-0.050 0.144-0.144-0.072-0.241-0.238-0.36-0.504-0.36h-0.144zM202.602 15.645v0.144h0.072v-0.144h-0.072zM202.602 16.432v0.288h0.072v-0.288h-0.072zM203.536 26.048v0.36h0.144v-0.36h-0.144z"></path>
</svg>
