<!-- Generated by IcoMoon.io -->
<svg version="1.1" xmlns="http://www.w3.org/2000/svg" width="500" height="100" viewBox="0 0 205 32">
<title>treecycleshop</title>
<path d="M2.038 2.055h0.974c1.862 0.322 2.904 0.485 3.123 0.485 0.511-0.186 0.834-0.277 0.974-0.277h1.667c0.427 0 1.026-0.023 1.804-0.068 0.091 0.046 0.163 0.068 0.208 0.068l0.482-0.068c0.127 0 0.593 0.023 1.39 0.068 0.068 0 0.277-0.046 0.622-0.14l0.485 0.068c0.153-0.091 0.29-0.137 0.417-0.137 0.081 0 0.199 0.046 0.345 0.137 0.306-0.091 0.514-0.137 0.632-0.137h0.14c0.417 0 0.622 0.186 0.622 0.554 0 1.26 0.068 2.442 0.205 3.539v0.137c-0.091 0.186-0.228 0.277-0.413 0.277-0.407-0.322-0.752-0.485-1.042-0.485h-0.762c-0.068 0-0.44 0.046-1.11 0.137-0.29-0.088-0.475-0.133-0.557-0.133-0.925 0.117-1.39 0.231-1.39 0.348l0.068 0.277c-0.137 0-0.231 0.925-0.277 2.777l0.205 0.485c-0.091 0.326-0.137 0.58-0.137 0.762l0.068 0.417c-0.042 0.254-0.062 0.511-0.062 0.765 0 0.221 0.023 0.453 0.068 0.694-0.049 0.244-0.068 0.381-0.068 0.417 0.046 0.521 0.068 1.006 0.068 1.459 0 0.046-0.026 0.117-0.068 0.208 0.091 0.182 0.133 0.44 0.133 0.762 0 0.244-0.023 0.453-0.068 0.625 0.046 0.3 0.068 0.602 0.068 0.905v0.273c0 1.39-0.068 2.087-0.205 2.087l0.068 0.137v0.902c0 0.326 0.046 0.58 0.137 0.762l-0.133 0.488c0.091 0.228 0.137 0.394 0.137 0.482-0.046 0.615-0.068 1.127-0.068 1.53 0 0.091-0.026 0.137-0.068 0.137l0.068 0.348v0.902c0 0.199-0.026 0.453-0.068 0.762l0.137 0.345c-0.094 0.212-0.137 0.514-0.137 0.905v0.488c0 0.137 0.205 0.785 0.622 1.941-0.072 0.186-0.137 0.28-0.208 0.28h-4.093c-0.508 0-0.762-0.068-0.762-0.208v-0.208l0.417-1.319v-0.765c0-0.101 0.023-0.199 0.068-0.277-0.049-0.078-0.072-0.176-0.072-0.277v-0.208c0-0.417 0.023-0.694 0.068-0.834-0.046-0.407-0.068-0.749-0.068-1.042v-0.97c0-0.358 0.023-0.684 0.068-0.97-0.046-0.234-0.068-0.534-0.068-0.902v-0.212c0-0.15 0.023-0.267 0.068-0.345l-0.137-1.11c0.046-0.407 0.068-0.752 0.068-1.042v-0.14c0-0.264-0.026-0.635-0.068-1.11l0.137-0.345-0.068-0.628 0.068-0.97-0.137-0.834c0.046-0.244 0.068-0.475 0.068-0.694v-0.277l0.205-0.277c-0.182-0.231-0.274-0.371-0.274-0.42 0.046-0.879 0.091-1.319 0.137-1.319l-0.068-0.345v-2.846c0-0.163 0.023-0.371 0.068-0.625 0-1.341-0.368-2.012-1.11-2.012-0.348-0.094-0.671-0.14-0.97-0.14h-0.557c-0.186 0-0.485 0.046-0.902 0.137-0.303-0.091-0.602-0.137-0.905-0.137-0.58 0.046-0.879 0.068-0.899 0.068-0.094-0.15-0.14-0.264-0.14-0.345 0.231-1.446 0.345-2.419 0.345-2.917v-0.205c0.003-0.254 0.143-0.462 0.417-0.625zM7.87 8.648l-0.208 0.277v0.137c0 0.036 0.049 0.221 0.14 0.557v0.068c-0.277 0.397-0.417 0.788-0.417 1.182 0.046 0.081 0.072 0.176 0.072 0.277 0.137 0 0.326-0.534 0.554-1.595v-0.762c-0.003-0.094-0.046-0.14-0.14-0.14zM7.385 11.77v0.417h0.14v-0.417h-0.14zM7.456 22.112c0 0.052-0.026 0.117-0.068 0.208 0.046 0.508 0.114 1.065 0.205 1.667-0.046 0.241-0.068 0.381-0.068 0.417 0.046 0.091 0.068 0.163 0.068 0.205 0.068 0 0.14-0.068 0.208-0.205v-1.39c0-0.173-0.091-0.472-0.277-0.902h-0.068zM7.456 12.536v0.348l0.205 0.277v0.277l0.072 0.694h0.068c0-0.033 0.023-0.173 0.068-0.417 0-0.267-0.117-0.658-0.345-1.179h-0.068zM7.661 14.479l-0.137 0.485c0.322 0.739 0.482 1.179 0.482 1.319v0.485c0.013 0.091 0.062 0.14 0.14 0.14l0.072-0.14v-0.14c0-0.313-0.163-0.938-0.485-1.875v-0.274h-0.072zM7.661 17.254c0 0.189-0.023 0.28-0.068 0.28l0.068 0.345-0.068 0.417c0.046 0.085 0.068 0.199 0.068 0.348h0.14c0.046-0.462 0.068-0.811 0.068-1.042v-0.348h-0.208zM8.078 27.39l-0.137 0.554c0.059 0.28 0.127 0.42 0.205 0.42l0.068-0.348v-0.485c0.003-0.094-0.046-0.14-0.137-0.14zM8.007 3.093v0.625c0 0.244 0.091 0.407 0.28 0.485 0.137-0.313 0.228-0.729 0.277-1.25l-0.205-0.137c-0.212 0.094-0.326 0.186-0.352 0.277zM8.078 28.568l-0.072 0.348v0.068c0.049 0 0.117 0.023 0.208 0.068l0.068-0.14-0.065-0.345h-0.14zM8.358 13.298v0.414c0.091 0.606 0.137 1.091 0.137 1.462h0.068v-0.417c-0.046-0.521-0.068-0.983-0.068-1.39l-0.137-0.068zM8.495 17.602l-0.072 0.485v0.902h0.068c0-0.078 0.023-0.495 0.068-1.247v-0.14h-0.065zM8.635 28.705v0.14h0.068v-0.14h-0.068zM8.775 24.339l-0.072 0.137v0.762h0.205l0.143-0.485c-0.094-0.277-0.186-0.413-0.277-0.413zM8.912 5.037v0.694h0.14v-0.83c-0.094 0.010-0.14 0.055-0.14 0.137zM8.912 7.189v0.902c0.013 0.094 0.055 0.14 0.14 0.14 0-0.046 0.023-0.068 0.068-0.068l-0.068-0.14v-0.834h-0.14zM8.912 9.065v0.694h0.068c0.036-0.371 0.078-0.554 0.14-0.554-0.046-0.081-0.068-0.176-0.068-0.28-0.094 0.013-0.14 0.059-0.14 0.14zM9.468 17.742v1.732l-0.072 0.697h0.14c0-0.293 0.163-1.009 0.482-2.155-0.274-0.114-0.413-0.254-0.413-0.413-0.094 0.013-0.137 0.059-0.137 0.14zM9.468 14.756v0.902h0.137c0.14-0.498 0.208-0.798 0.208-0.902v-0.485h-0.068c-0.186 0.068-0.277 0.231-0.277 0.485zM9.745 24.82v1.114l-0.277 2.702h0.137c0.189-0.541 0.28-1.537 0.28-2.982v-0.834h-0.14zM10.162 3.093c0.013 0.094 0.059 0.14 0.14 0.14v-0.14h-0.14zM10.647 5.037c0 0.046-0.023 0.117-0.068 0.208 0.046 0.094 0.068 0.163 0.068 0.208h0.834v-0.417h-0.834zM10.852 3.233v0.137h0.068v-0.137h-0.068zM11.549 3.233v0.485c0.010 0.094 0.059 0.14 0.137 0.14 0-0.117 0.026-0.3 0.068-0.557l-0.133-0.068h-0.072zM12.314 2.816c-0.049 1.215-0.072 2.116-0.072 2.709 0.14 0.046 0.205 0.091 0.205 0.137 0.231 0 0.348-0.716 0.348-2.152 0.049-0.254 0.072-0.462 0.072-0.625l-0.137-0.068h-0.417zM13.838 5.037v0.14h0.068v-0.14h-0.068zM14.395 3.51c-0.091 0.303-0.14 0.511-0.14 0.625v0.068c0.114 0 0.208-0.208 0.277-0.625l-0.137-0.068zM15.228 4.829l-0.345 0.488v0.208c0 0.104 0.205 0.173 0.622 0.208v-0.072c-0.055-0.554-0.15-0.834-0.277-0.834z"></path>
<path d="M16.703 1.983l0.345 0.068h2.292c0.218 0 0.593 0.046 1.114 0.137l0.694-0.137c0.078 0 0.267 0.046 0.557 0.137l1.872-0.137c0.078 0.049 0.29 0.094 0.625 0.14 0.078 0 0.264-0.046 0.554-0.137 0.036 0 0.176 0.023 0.417 0.068l0.834-0.068c0.303 0.091 0.508 0.137 0.625 0.137h0.137c0.869-0.137 1.332-0.208 1.39-0.208 0.3 0 0.622 0.231 0.97 0.694 0.882 0.462 1.319 0.97 1.319 1.527 0.049 0 0.068 0.023 0.068 0.068s-0.020 0.12-0.068 0.212c0.049 0.602 0.068 1.088 0.068 1.459v0.068c0 0.163-0.023 0.371-0.068 0.625 0.091 0.29 0.14 0.475 0.14 0.554-0.091 0.326-0.14 0.602-0.14 0.834 0.186 0.453 0.28 0.752 0.28 0.902v1.179l-0.28 1.739c0 0.267 0.023 0.635 0.068 1.11-0.091 0.462-0.137 0.879-0.137 1.247 0.189 0.427 0.28 0.684 0.28 0.762v0.834c-0.13 0.86-0.247 1.345-0.348 1.459-0.094 0-0.511 0.42-1.25 1.254-0.28 0.127-0.417 0.355-0.417 0.69 0.094 0.72 0.254 1.299 0.485 1.739l0.697 2.774c0 0.716 0.277 1.713 0.834 2.986 0 1.039 0.277 1.781 0.834 2.221 0.137 0 0.254 0.208 0.345 0.622-0.153 0.14-0.267 0.212-0.348 0.212-0.498-0.094-0.824-0.14-0.97-0.14h-0.348c-0.394 0-0.882 0.049-1.459 0.14-0.404-0.046-0.658-0.072-0.765-0.072-0.036 0-0.173 0.026-0.417 0.068-0.182-0.042-0.345-0.068-0.482-0.068l-0.485 0.072c-0.234-0.085-0.348-0.199-0.348-0.348 0.137-0.231 0.205-0.417 0.205-0.557v-0.14c-0.182-1.061-0.459-2.217-0.83-3.468 0-0.199-0.114-0.658-0.345-1.39 0-0.15-0.114-0.589-0.345-1.315-0.052-0.42-0.283-1.254-0.697-2.501 0-0.43-0.394-0.801-1.182-1.114l-0.348 0.072-0.967-0.068c0 0.062-0.231 0.313-0.697 0.762v2.087c0 1.006-0.023 2.374-0.068 4.096 0.049 0.254 0.068 0.462 0.068 0.622l-0.072 0.345c0.049 0.358 0.068 0.752 0.068 1.179v0.068c0 0.081 0.163 0.521 0.485 1.319v0.068c0 0.068-0.068 0.14-0.205 0.208h-2.983c-0.267 0-0.635 0.026-1.11 0.068-0.094-0.039-0.163-0.065-0.212-0.065-0.078 0.049-0.195 0.072-0.345 0.072-0.231-0.14-0.348-0.28-0.348-0.417 0.417-0.658 0.625-1.169 0.625-1.527v-1.459c0-0.749-0.023-1.306-0.068-1.667 0.046-0.355 0.068-0.912 0.068-1.667v-1.175c0-0.107-0.023-0.199-0.068-0.28 0.046-0.081 0.068-0.173 0.068-0.28v-0.137c0-0.264-0.023-0.43-0.068-0.485 0.046-0.254 0.068-0.462 0.068-0.622v-0.625c0-0.199-0.023-0.384-0.068-0.56 0-0.046 0.023-0.114 0.068-0.205-0.046-0.742-0.068-1.182-0.068-1.322 0-0.114 0.023-0.716 0.068-1.804l-0.068-0.345c0.046-0.078 0.068-0.173 0.068-0.277l-0.068-0.348 0.068-0.137c-0.046-0.094-0.068-0.166-0.068-0.212l0.068-0.417c0-0.137-0.023-0.3-0.068-0.485 0.046-0.729 0.068-1.26 0.068-1.595 0-0.394-0.023-1.088-0.068-2.081 0.033-0.371 0.078-0.557 0.137-0.557l-0.068-0.348v-0.97c0-0.254-0.023-0.58-0.068-0.974 0.046-0.091 0.068-0.16 0.068-0.208 0-0.046-0.023-0.068-0.068-0.068l0.068-0.694v-2.637c0-0.091-0.137-0.371-0.417-0.834v-0.068l0.208-0.28zM18.719 13.646v0.137c0 0.059-0.049 0.313-0.14 0.762 0.023 0.466 0.091 0.697 0.208 0.697v-1.11l0.137-0.208v-0.14c0-0.091-0.046-0.137-0.137-0.137h-0.068zM18.719 21.073c0 0.104-0.023 0.199-0.068 0.277 0.049 0.466 0.114 0.697 0.208 0.697h0.068v-0.072c0-0.163 0.026-0.371 0.068-0.625-0.046-0.081-0.072-0.173-0.072-0.277h-0.205zM19.549 17.742v0.205h0.14v-0.345c-0.094 0.013-0.14 0.059-0.14 0.14zM19.689 6.704c0 0.163-0.026 0.371-0.068 0.625 0.046 0.081 0.068 0.173 0.068 0.277 0.059 0 0.173-0.114 0.345-0.345 0.003-0.257-0.114-0.44-0.345-0.557zM19.757 12.119l-0.137 0.834c0.046 0.241 0.068 0.475 0.068 0.694v0.277h0.137l0.14-0.345-0.208-0.348v-0.485c0-0.114 0.049-0.322 0.14-0.625h-0.14zM19.621 19.614l0.137 0.694h0.068v-0.557c0-0.088-0.046-0.137-0.137-0.137h-0.068zM19.689 3.165l0.068 0.137v0.765h0.14l0.068-0.348v-0.068c0-0.046-0.049-0.231-0.14-0.557l-0.137 0.072zM19.757 16.075c0.062 0 0.176-0.117 0.348-0.345l-0.14-0.072c-0.091 0-0.16 0.14-0.208 0.417zM19.757 16.283v0.208h0.068v-0.208h-0.068zM19.966 18.436c0 0.186-0.023 0.277-0.068 0.277 0.049 0.068 0.068 0.205 0.068 0.417h0.14l0.068-0.622-0.137-0.072h-0.072zM20.037 14.756v0.14c0.010 0.091 0.059 0.137 0.137 0.137 0.091-0.15 0.14-0.267 0.14-0.345l-0.14-0.072c-0.094 0.013-0.137 0.059-0.137 0.14zM20.037 20.656v0.068c0.137 0.212 0.205 0.348 0.205 0.417h0.14v-0.345c0-0.091-0.049-0.14-0.14-0.14h-0.205zM20.037 24.68v0.348h0.068v-0.348h-0.068zM20.106 17.394l0.417 0.694v-0.345c0-0.244-0.068-0.381-0.208-0.42-0.094 0.049-0.163 0.072-0.208 0.072zM20.174 21.906v0.068h0.068c0.091 0 0.14-0.049 0.14-0.137v-0.068h-0.068c-0.094 0.006-0.14 0.055-0.14 0.137zM20.731 15.45c0 0.231-0.023 0.345-0.068 0.345l0.068 0.14v0.068c0 0.221-0.114 0.407-0.345 0.557 0.14 0.313 0.205 0.498 0.205 0.554h0.14l-0.072-0.694c0.059 0 0.176-0.114 0.345-0.345l-0.134-0.625h-0.14zM20.799 2.956c0 0.046-0.023 0.117-0.068 0.208 0.046 0.277 0.114 0.417 0.205 0.417 0.14-0.046 0.208-0.186 0.208-0.417v-0.072c0-0.091-0.049-0.137-0.14-0.137h-0.205zM20.799 18.849c0.137-0.186 0.277-0.273 0.417-0.273v-0.348h-0.068c-0.234 0.195-0.348 0.407-0.348 0.622zM24.339 6.151h-1.25c-0.267 0-0.635-0.023-1.11-0.068-0.231 0-0.58 0.254-1.042 0.762 0.049 0.462 0.068 0.811 0.068 1.042v1.25c0 0.3-0.023 0.602-0.068 0.902 0.049 0.163 0.068 0.417 0.068 0.765 0 0.267-0.023 0.427-0.068 0.485 0.049 0.309 0.072 0.563 0.072 0.762v2.012c0 0.046-0.023 0.068-0.068 0.068 0.199 0.358 0.407 0.612 0.625 0.765h4.373c0.371-0.358 0.557-0.843 0.557-1.459v-2.709c0-0.589 0.023-1.237 0.068-1.944-0.049-0.182-0.072-0.368-0.072-0.554 0.046-0.44 0.068-0.879 0.068-1.319 0-0.348-0.417-0.648-1.25-0.902-0.345 0.094-0.667 0.14-0.97 0.14zM21.288 16.075l0.205 0.345c-0.046 0.257-0.068 0.443-0.068 0.56 0.254 0.391 0.417 0.781 0.485 1.175 0.15 0.094 0.267 0.14 0.345 0.14 0.049-0.091 0.068-0.163 0.068-0.208-0.091-0.313-0.326-0.866-0.694-1.664 0.049-0.081 0.075-0.176 0.075-0.28 0-0.094-0.049-0.14-0.14-0.14h-0.14l-0.137 0.072zM21.424 5.454l0.14 0.068c0.078 0 0.241-0.208 0.485-0.625 0.091-0.042 0.163-0.068 0.205-0.068 0.186 0.208 0.28 0.371 0.28 0.485h0.137l0.068-0.834c-0.326 0-0.485-0.254-0.485-0.765v-0.273c0-0.117 0.049-0.326 0.14-0.625h-0.068c-0.326 0-0.485 0.345-0.485 1.042-0.186 0.29-0.326 0.821-0.417 1.595zM22.743 2.748v0.068l0.208 0.417c-0.049 0.394-0.068 0.716-0.068 0.97v0.137c0.137-0.042 0.205-0.182 0.205-0.413 0-0.068-0.023-0.394-0.068-0.97h0.068c-0.042-0.094-0.068-0.163-0.068-0.208h-0.277zM23.853 4.412c-0.277 0.615-0.417 0.938-0.417 0.974l0.14 0.068h0.277c0.091 0 0.14-0.046 0.14-0.137v-0.765c0-0.091-0.049-0.14-0.14-0.14zM23.922 3.165v0.417h0.068l0.072-0.488v-0.068c-0.091 0.013-0.14 0.059-0.14 0.14zM25.101 15.658c0 0.046 0.026 0.068 0.068 0.068l-0.068 0.348c0.049 0.091 0.068 0.163 0.068 0.208h0.277c0.094-0.023 0.189-0.137 0.28-0.345-0.049 0-0.186-0.163-0.417-0.485-0.033-0.003-0.101 0.068-0.208 0.205zM25.172 20.308c0.14 0.199 0.208 0.521 0.208 0.97l0.137-0.068-0.068-0.345c0.049-0.339 0.068-0.521 0.068-0.557l-0.137-0.065h-0.068l-0.14 0.065zM25.312 2.816v1.667l0.068 0.834h0.068c0-0.221 0.026-0.453 0.068-0.694-0.042-0.567-0.068-1.123-0.068-1.667v-0.14h-0.137zM25.657 16.837v0.208l0.488 1.804h0.137l0.068-0.342c-0.231-0.44-0.345-0.86-0.345-1.254v-0.417c0-0.091-0.046-0.137-0.14-0.137h-0.068c-0.094 0.010-0.14 0.055-0.14 0.137zM25.866 15.938c0.013 0.091 0.062 0.137 0.14 0.137l0.068-0.277h-0.068c-0.094 0.010-0.14 0.059-0.14 0.14zM26.214 3.51c0.101 1.11 0.195 1.921 0.277 2.432h0.068v-0.697c0.186-0.947 0.28-1.455 0.28-1.527v-0.554l0.068-0.345c-0.091-0.049-0.163-0.072-0.208-0.072-0.326 0.127-0.485 0.381-0.485 0.762zM27.116 16.352l-0.068 0.485c0 0.231 0.023 0.58 0.068 1.042h0.068l0.068-0.834-0.068-0.694h-0.068zM27.116 19.197c0 0.023-0.023 0.114-0.068 0.277 0.046 0.091 0.068 0.163 0.068 0.205h0.068c0-0.046 0.023-0.114 0.068-0.205-0.046-0.078-0.068-0.173-0.068-0.277h-0.068zM27.673 27.666v0.068c0.14 0.671 0.208 1.087 0.208 1.25h0.137v-0.068c0-0.834-0.091-1.25-0.277-1.25h-0.068zM27.813 7.189v0.277l0.068 0.348h0.068l0.068-0.345v-0.488c-0.072 0-0.137 0.072-0.205 0.208zM27.813 13.923v0.068h0.068c0.091-0.3 0.137-0.508 0.137-0.625-0.104 0-0.173 0.189-0.205 0.557zM28.575 3.025c0.046 0.091 0.068 0.163 0.068 0.208 0 0.521-0.14 1.286-0.417 2.292v0.208c0.241 0 0.495-0.694 0.762-2.084l-0.208-0.694h-0.068l-0.137 0.068zM28.295 25.237c0.14 0.938 0.208 1.491 0.208 1.667v0.485c0.013 0.091 0.059 0.14 0.14 0.14 0.081-0.049 0.173-0.068 0.277-0.068l0.068 0.14c0 0.114-0.026 0.3-0.068 0.554 0 0.694 0.186 1.042 0.557 1.042 0.658-0.094 1.12-0.14 1.387-0.14-0.218-0.466-0.358-0.694-0.417-0.694-0.15 0-0.313 0.068-0.485 0.205h-0.277c-0.091 0-0.14-0.049-0.14-0.14l0.068-0.345c0-0.453-0.254-0.889-0.762-1.315 0-0.394-0.163-0.902-0.485-1.53h-0.072zM28.503 16.908c0 0.068 0.023 0.342 0.068 0.834h0.137c0.068 0 0.14-0.068 0.208-0.208v-0.072l-0.205-0.28v-0.202c0-0.199 0.094-0.498 0.28-0.905l-0.14-0.068c-0.15 0-0.267 0.3-0.348 0.902zM28.643 22.183v0.068c0.010 0.094 0.059 0.14 0.137 0.14v-0.208h-0.137zM28.851 11.145l0.068 0.277h0.345c0.14 0 0.208-0.44 0.208-1.319 0-0.036-0.026-0.173-0.068-0.417h-0.068c-0.091 0-0.163 0.277-0.208 0.834-0.186 0.208-0.277 0.417-0.277 0.625zM28.991 12.536v2.152l0.068 0.485h0.137v-0.277c0-0.091-0.046-0.326-0.137-0.694 0-0.068 0.068-0.345 0.205-0.834v-0.974h-0.137c-0.094 0.013-0.137 0.059-0.137 0.14zM28.991 23.433v0.137c0 0.335 0.068 0.521 0.205 0.557h0.068v-0.208c0.003-0.254-0.091-0.413-0.273-0.485zM29.893 5.245c0 0.186-0.049 0.277-0.14 0.277l0.072 0.488v0.277l-0.765 0.625v0.068c0 0.068 0.068 0.14 0.205 0.208h0.485l0.277-0.208-0.065-0.485c0.049-0.58 0.068-0.925 0.068-1.042-0.046-0.091-0.068-0.163-0.068-0.208h-0.068zM29.408 25.101c0.068 0.186 0.137 0.273 0.205 0.273v-0.482c-0.036 0-0.101 0.068-0.205 0.208zM29.962 4.76v0.277h0.068c0.049-0.163 0.068-0.254 0.068-0.277h-0.137z"></path>
<path d="M33.153 1.983c0.14 0 0.326 0.046 0.557 0.137 0.326-0.091 0.58-0.137 0.762-0.137l0.902 0.137c0.303-0.091 0.508-0.137 0.622-0.137h1.319c0.15 0 0.475 0.046 0.974 0.137 0.14 0 0.326-0.046 0.557-0.137 0.228 0 0.345 0.023 0.345 0.068 0.996-0.046 1.732-0.068 2.221-0.068h4.513c0.417 0 0.625 0.485 0.625 1.459 0.228 1.573 0.345 2.592 0.345 3.054l-0.28 0.137c-0.355-0.046-0.729-0.208-1.11-0.485l-0.13 0.072h-0.557c-0.163 0-0.371-0.023-0.625-0.068-0.091 0.046-0.163 0.068-0.205 0.068-0.14 0-0.208-0.023-0.208-0.068-0.462 0.046-0.807 0.068-1.039 0.068h-2.224c-0.059 0-0.313-0.046-0.762-0.137h-0.485c-0.091 0-0.322 0.046-0.694 0.137-0.231-0.081-0.345-0.195-0.345-0.345 0.091-0.775 0.254-1.514 0.485-2.221-0.091-0.44-0.14-0.788-0.14-1.042v-0.072c-0.326-0.046-0.508-0.068-0.554-0.068l-0.068 0.137v0.902l-0.14 1.25c0.091 0.612 0.186 0.983 0.277 1.11 0 0.059-0.254 0.427-0.762 1.11v0.14c0 0.326 0.049 0.58 0.14 0.762-0.091 0.186-0.14 0.44-0.14 0.762v1.459c0 0.186 0.049 0.485 0.14 0.902-0.091 0.427-0.14 0.681-0.14 0.762 0 0.554 0.485 0.925 1.459 1.11 0.078 0 0.264-0.046 0.554-0.14l0.417 0.068c1.123 0 2.139-0.186 3.054-0.554h0.277c0.091 0.010 0.14 0.059 0.14 0.137v0.345c0 0.163 0.023 0.371 0.068 0.625-0.094 0.186-0.14 0.345-0.14 0.485 0.046 0.137 0.091 0.208 0.14 0.208l-0.068 0.485v2.23l0.068 0.482-0.208 0.14h-0.14c-0.934-0.368-1.468-0.554-1.595-0.554-0.326 0.046-0.508 0.072-0.554 0.072-0.081 0-0.407-0.072-0.974-0.208-0.173 0.091-0.358 0.137-0.557 0.137-0.046 0-0.114-0.023-0.205-0.068-0.186 0.046-0.345 0.068-0.485 0.068l-0.287-0.068c-0.15 0.091-0.29 0.14-0.417 0.14h-0.14l-0.205-0.14c0.059-1.794 0.15-2.904 0.277-3.331-0.036-0.277-0.176-0.417-0.417-0.417-0.091 0.15-0.14 0.267-0.14 0.345-0.046 1.423-0.068 2.348-0.068 2.777-0.094 0.3-0.14 0.508-0.14 0.625v0.068c0.358 0 0.567 0.094 0.622 0.277l-0.413 0.56c0.049 2.221 0.068 3.93 0.068 5.135v1.595c0 0.205 0.186 0.602 0.557 1.179l0.485-0.068h0.068c0.16 0 0.368 0.026 0.622 0.068l0.485-0.14c0.775 0.049 1.377 0.068 1.804 0.068h1.735c0.199 0 0.381 0.026 0.557 0.068 0.186-0.046 0.368-0.068 0.554-0.068h1.182c0.173 0 0.567-0.14 1.179-0.413h0.137c0.068 0 0.14 0.068 0.208 0.205-0.254 2.869-0.485 4.301-0.697 4.301-0.078 0.049-0.173 0.068-0.277 0.068h-2.152c-1.976 0-3.503 0.026-4.578 0.068-0.915-0.046-2.351-0.068-4.304-0.068h-0.834c-0.231 0-0.345-0.046-0.345-0.14-0.231 0.14-0.417 0.208-0.557 0.208h-0.205c-0.104 0-0.176-0.114-0.208-0.345 0.28-0.707 0.417-1.149 0.417-1.319 0-0.68-0.023-1.146-0.068-1.387 0.046-0.961 0.068-1.84 0.068-2.641v-1.866c0-0.68-0.023-1.146-0.068-1.387 0.046-0.485 0.068-1.019 0.068-1.595v-5.001c0-0.163-0.023-0.371-0.068-0.625 0.046-0.091 0.068-0.163 0.068-0.208l-0.062-0.83 0.068-0.97c0-0.358-0.023-0.681-0.068-0.97 0.046-1.54 0.068-2.882 0.068-4.028v-2.569l-0.068-0.345h0.068l-0.417-1.319v-0.072c0.091-0.186 0.228-0.28 0.413-0.28zM33.709 2.816v0.277l0.485 2.361h0.068c0.046-0.163 0.068-0.254 0.068-0.277 0-0.218-0.14-0.889-0.417-2.012 0-0.231-0.049-0.345-0.14-0.345h-0.065zM33.849 8.44l-0.14 0.277c0 1.088 0.14 1.849 0.417 2.292l-0.205 1.179 0.417 2.012v0.625c0.033 0.277 0.101 0.417 0.205 0.417 0-0.231 0.023-0.345 0.068-0.345-0.081-0.3-0.176-1.065-0.277-2.292v-1.875c0-0.117-0.117-0.58-0.348-1.387l0.068-0.345c0-0.348-0.068-0.534-0.205-0.557zM33.986 26.904c0 0.137-0.023 0.205-0.068 0.205 0.046 0.094 0.068 0.166 0.068 0.208h0.068v-0.413h-0.068zM34.266 5.871c0 0.023-0.026 0.117-0.068 0.277 0 0.205 0.186 0.993 0.557 2.361 0.277 1.377 0.417 2.51 0.417 3.399h-0.072l0.068 0.14v0.137c0 0.046-0.026 0.068-0.068 0.068 0.068 0.186 0.137 0.277 0.205 0.277 0-0.046 0.023-0.068 0.068-0.068 0-0.046-0.023-0.117-0.068-0.208 0.049-1.019 0.114-1.758 0.208-2.224-0.326 0-0.606-1.133-0.834-3.399-0.049 0-0.163-0.254-0.345-0.762h-0.068zM35.236 2.4l-0.068 0.14c0.137 0.625 0.205 1.065 0.205 1.319v0.762c0.013 0.091 0.059 0.137 0.14 0.137v-0.83c0-0.137 0.068-0.417 0.205-0.834-0.052-0.459-0.215-0.694-0.482-0.694zM35.516 25.722l-0.068 0.345v0.97h0.068c0-0.599 0.091-1.019 0.277-1.247l-0.14-0.068h-0.137zM36.070 27.461v0.068c0 0.254 0.026 0.58 0.068 0.97-0.046 0.078-0.068 0.176-0.068 0.277h0.14v-0.14c0-0.147 0.023-0.264 0.068-0.342-0.049-0.557-0.117-0.834-0.208-0.834zM36.278 13.714v0.485c0.091 0 0.137-0.046 0.137-0.137l-0.068-0.348h-0.068zM36.555 2.748v0.834c0.277 0.29 0.417 0.567 0.417 0.834 0.104 0 0.176-0.163 0.208-0.485l-0.068-0.837h0.068c-0.049-0.368-0.163-0.554-0.348-0.554-0.186 0.068-0.277 0.14-0.277 0.208zM37.945 26.139c0 0.023-0.049 0.371-0.14 1.039v0.42h0.14c0.186-0.697 0.277-1.087 0.277-1.182v-0.14c0-0.088-0.049-0.137-0.14-0.137h-0.137zM38.639 13.574c-0.186 0.091-0.277 0.856-0.277 2.292-0.091 0.010-0.14 0.059-0.14 0.137v0.208h0.14c0.228-0.602 0.345-0.925 0.345-0.97s-0.049-0.277-0.14-0.694c0.14-0.241 0.208-0.475 0.208-0.694v-0.14c0.003-0.091-0.046-0.14-0.137-0.14zM39.333 2.748c0 0.811-0.114 1.735-0.345 2.777l0.14 0.208c0.554-0.046 0.834-0.117 0.834-0.208 0.046-1.527 0.114-2.292 0.205-2.292-0.091-0.348-0.137-0.58-0.137-0.694h-0.557c-0.094 0-0.14 0.068-0.14 0.208zM39.124 27.943c0.046 0.094 0.068 0.166 0.068 0.208h0.137c0.104-0.046 0.29-0.368 0.557-0.974 0.231-0.059 0.345-0.127 0.345-0.205v-0.345c0-0.068-0.068-0.14-0.205-0.208-0.221 0-0.43 0.368-0.625 1.114-0.036-0.003-0.127 0.134-0.277 0.41zM39.333 15.45c0.127 0 0.29-0.254 0.485-0.762l-0.068-0.14v-0.485c0-0.117 0.049-0.326 0.14-0.625l-0.14-0.068h-0.068c-0.117-0.003-0.231 0.694-0.348 2.081zM39.958 15.59l-0.072 0.348v0.068c0.013 0.094 0.059 0.14 0.14 0.14 0-0.046 0.023-0.231 0.068-0.557h-0.137z"></path>
<path d="M49.169 1.983c0.14 0 0.326 0.046 0.557 0.137 0.326-0.091 0.58-0.137 0.762-0.137l0.902 0.137c0.303-0.091 0.508-0.137 0.622-0.137h1.319c0.15 0 0.475 0.046 0.974 0.137 0.14 0 0.326-0.046 0.557-0.137 0.228 0 0.345 0.023 0.345 0.068 0.996-0.046 1.732-0.068 2.221-0.068h4.513c0.417 0 0.625 0.485 0.625 1.459 0.228 1.573 0.345 2.592 0.345 3.054l-0.28 0.137c-0.355-0.046-0.729-0.208-1.11-0.485l-0.13 0.072h-0.557c-0.163 0-0.371-0.023-0.625-0.068-0.091 0.046-0.163 0.068-0.205 0.068-0.14 0-0.208-0.023-0.208-0.068-0.462 0.046-0.807 0.068-1.039 0.068h-2.224c-0.059 0-0.313-0.046-0.762-0.137h-0.485c-0.091 0-0.322 0.046-0.694 0.137-0.231-0.081-0.345-0.195-0.345-0.345 0.091-0.775 0.254-1.514 0.485-2.221-0.091-0.44-0.14-0.788-0.14-1.042v-0.072c-0.326-0.046-0.508-0.068-0.554-0.068l-0.068 0.137v0.902l-0.147 1.25c0.091 0.612 0.186 0.983 0.277 1.11 0 0.059-0.254 0.427-0.762 1.11v0.14c0 0.326 0.049 0.58 0.14 0.762-0.091 0.186-0.14 0.44-0.14 0.762v1.459c0 0.186 0.049 0.485 0.14 0.902-0.094 0.43-0.143 0.684-0.143 0.765 0 0.554 0.485 0.925 1.459 1.11 0.078 0 0.264-0.046 0.554-0.14l0.417 0.068c1.123 0 2.139-0.186 3.054-0.554h0.277c0.091 0.010 0.14 0.059 0.14 0.137v0.345c0 0.163 0.023 0.371 0.068 0.625-0.094 0.186-0.14 0.345-0.14 0.485 0.046 0.137 0.091 0.208 0.14 0.208l-0.068 0.485v2.227l0.068 0.482-0.205 0.143h-0.14c-0.934-0.368-1.468-0.554-1.595-0.554-0.326 0.046-0.508 0.072-0.554 0.072-0.081 0-0.407-0.072-0.974-0.208-0.173 0.091-0.358 0.137-0.557 0.137-0.046 0-0.114-0.023-0.205-0.068-0.186 0.046-0.345 0.068-0.485 0.068l-0.28-0.072c-0.15 0.091-0.29 0.14-0.417 0.14h-0.14l-0.205-0.14c0.059-1.794 0.15-2.904 0.277-3.331-0.036-0.277-0.176-0.417-0.417-0.417-0.091 0.15-0.14 0.267-0.14 0.345-0.046 1.423-0.068 2.348-0.068 2.777-0.094 0.3-0.14 0.508-0.14 0.625v0.068c0.358 0 0.567 0.094 0.622 0.277l-0.417 0.557c0.049 2.221 0.068 3.93 0.068 5.135v1.595c0 0.205 0.186 0.602 0.557 1.179l0.485-0.068h0.068c0.16 0 0.368 0.026 0.622 0.068l0.485-0.14c0.775 0.049 1.377 0.068 1.804 0.068h1.735c0.199 0 0.381 0.026 0.557 0.068 0.186-0.046 0.368-0.068 0.554-0.068h1.182c0.173 0 0.567-0.14 1.179-0.413h0.137c0.068 0 0.14 0.068 0.208 0.205-0.254 2.869-0.485 4.301-0.697 4.301-0.078 0.049-0.173 0.068-0.277 0.068h-2.152c-1.976 0-3.503 0.026-4.578 0.068-0.915-0.046-2.351-0.068-4.304-0.068h-0.834c-0.231 0-0.345-0.046-0.345-0.14-0.231 0.14-0.417 0.208-0.557 0.208h-0.205c-0.104 0-0.176-0.114-0.208-0.345 0.28-0.707 0.417-1.149 0.417-1.319 0-0.68-0.023-1.146-0.068-1.387 0.046-0.961 0.068-1.84 0.068-2.641v-1.862c0-0.68-0.023-1.146-0.068-1.387 0.046-0.485 0.068-1.019 0.068-1.595v-5.001c0-0.163-0.023-0.371-0.068-0.625 0.046-0.091 0.068-0.163 0.068-0.208l-0.059-0.83 0.068-0.97c0-0.358-0.023-0.681-0.068-0.97 0.046-1.54 0.068-2.882 0.068-4.028v-2.569l-0.068-0.345h0.068l-0.417-1.319v-0.072c0.091-0.186 0.228-0.28 0.413-0.28zM49.726 2.816v0.277l0.485 2.361h0.068c0.046-0.163 0.068-0.254 0.068-0.277 0-0.218-0.14-0.889-0.417-2.012 0-0.231-0.049-0.345-0.14-0.345h-0.065zM49.866 8.44l-0.14 0.277c0 1.088 0.14 1.849 0.417 2.292l-0.205 1.179 0.417 2.012v0.625c0.033 0.277 0.101 0.417 0.205 0.417 0-0.231 0.023-0.345 0.068-0.345-0.081-0.3-0.176-1.065-0.277-2.292v-1.875c0-0.117-0.117-0.58-0.348-1.387l0.068-0.345c0-0.348-0.068-0.534-0.205-0.557zM50.002 26.904c0 0.137-0.023 0.205-0.068 0.205 0.046 0.094 0.068 0.166 0.068 0.208h0.068v-0.413h-0.068zM50.282 5.871c0 0.023-0.026 0.117-0.068 0.277 0 0.205 0.186 0.993 0.557 2.361 0.277 1.377 0.417 2.51 0.417 3.399h-0.068l0.068 0.14v0.137c0 0.046-0.026 0.068-0.068 0.068 0.068 0.186 0.137 0.277 0.205 0.277 0-0.046 0.023-0.068 0.068-0.068 0-0.046-0.023-0.117-0.068-0.208 0.049-1.019 0.114-1.758 0.208-2.224-0.326 0-0.606-1.133-0.834-3.399-0.049 0-0.163-0.254-0.345-0.762h-0.072zM51.253 2.4l-0.068 0.14c0.137 0.625 0.205 1.065 0.205 1.319v0.762c0.013 0.091 0.059 0.137 0.14 0.137v-0.83c0-0.137 0.068-0.417 0.205-0.834-0.052-0.459-0.215-0.694-0.482-0.694zM51.533 25.722l-0.068 0.345v0.97h0.068c0-0.599 0.091-1.019 0.277-1.247l-0.14-0.068h-0.137zM52.086 27.461v0.068c0 0.254 0.026 0.58 0.068 0.97-0.046 0.078-0.068 0.176-0.068 0.277h0.14v-0.14c0-0.147 0.023-0.264 0.068-0.342-0.049-0.557-0.117-0.834-0.208-0.834zM52.295 13.714v0.485c0.091 0 0.137-0.046 0.137-0.137l-0.068-0.348h-0.068zM52.571 2.748v0.834c0.277 0.29 0.417 0.567 0.417 0.834 0.104 0 0.176-0.163 0.208-0.485l-0.068-0.837h0.068c-0.049-0.368-0.163-0.554-0.348-0.554-0.186 0.068-0.277 0.14-0.277 0.208zM53.962 26.139c0 0.023-0.049 0.371-0.14 1.039v0.42h0.14c0.186-0.697 0.277-1.087 0.277-1.182v-0.14c0-0.088-0.049-0.137-0.14-0.137h-0.137zM54.655 13.574c-0.186 0.091-0.277 0.856-0.277 2.292-0.091 0.010-0.14 0.059-0.14 0.137v0.208h0.14c0.228-0.602 0.345-0.925 0.345-0.97s-0.049-0.277-0.14-0.694c0.14-0.241 0.208-0.475 0.208-0.694v-0.14c0.003-0.091-0.046-0.14-0.137-0.14zM55.349 2.748c0 0.811-0.114 1.735-0.345 2.777l0.14 0.208c0.554-0.046 0.834-0.117 0.834-0.208 0.046-1.527 0.114-2.292 0.205-2.292-0.091-0.348-0.137-0.58-0.137-0.694h-0.557c-0.094 0-0.14 0.068-0.14 0.208zM55.14 27.943c0.046 0.094 0.068 0.166 0.068 0.208h0.137c0.104-0.046 0.29-0.368 0.557-0.974 0.231-0.059 0.345-0.127 0.345-0.205v-0.345c0-0.068-0.068-0.14-0.205-0.208-0.221 0-0.43 0.368-0.625 1.114-0.036-0.003-0.127 0.134-0.277 0.41zM55.349 15.45c0.127 0 0.29-0.254 0.485-0.762l-0.068-0.14v-0.485c0-0.117 0.049-0.326 0.14-0.625l-0.14-0.068h-0.068c-0.117-0.003-0.231 0.694-0.348 2.081zM55.974 15.59l-0.068 0.348v0.068c0.013 0.094 0.059 0.14 0.14 0.14 0-0.046 0.023-0.231 0.068-0.557h-0.14z"></path>
<path d="M67.513 1.983h0.694c0.267 0 0.635 0.023 1.11 0.068l0.14-0.068c0.091 0.046 0.163 0.068 0.205 0.068 0.58-0.046 0.882-0.068 0.902-0.068l0.345 0.068 0.417-0.068c0.326 0 0.485 0.046 0.485 0.137 0.186-0.091 0.44-0.137 0.762-0.137h0.485c0.326 0 0.508 0.023 0.557 0.068 0.313-0.046 0.567-0.068 0.762-0.068h2.152c0.322 0 0.622 0.326 0.899 0.97-0.091 0.15-0.137 0.267-0.137 0.345 0.046 0 0.068 0.023 0.068 0.068 0.15-0.091 0.264-0.137 0.345-0.137 0.645 0.44 0.97 0.834 0.97 1.179 0.14 0.648 0.208 1.065 0.208 1.25v0.417c-0.14 0.879-0.208 1.459-0.208 1.735v1.39c0 0.231-0.046 0.345-0.137 0.345 0.186 0.326 0.277 0.554 0.277 0.694v0.14c0 0.068-0.068 0.137-0.205 0.208-0.094-0.046-0.163-0.068-0.208-0.068v0.137h0.557c0.277 0.199 0.417 0.407 0.417 0.625-0.104 0.186-0.635 0.277-1.595 0.277-0.254 0-0.485-0.046-0.697-0.137l-1.11 0.137c-0.358-0.046-0.752-0.068-1.179-0.068h-0.277c-0.068 0-0.163-0.091-0.28-0.277 0-0.14 0.117-0.508 0.345-1.11v-3.331c-0.059-0.208-0.449-0.417-1.179-0.622-0.046 0-0.068 0.023-0.068 0.068-0.137 0-0.205-0.023-0.205-0.068-0.694 0.046-1.201 0.068-1.527 0.068h-1.807c-0.462 0.3-0.694 0.742-0.694 1.319-0.186 0-0.277 0.326-0.277 0.97 0.228 0.117 0.345 0.3 0.345 0.554v0.694c0 0.394 0.023 0.811 0.068 1.25l-0.137 0.834c0.046 0.811 0.068 1.296 0.068 1.459 0 0.381-0.026 0.752-0.068 1.11l0.137 4.096c-0.046 1.201-0.068 2.589-0.068 4.164v1.804c0.163 0.694 0.417 1.039 0.762 1.039h3.123c0.199 0 0.453 0.026 0.762 0.068 0.508-0.241 0.762-0.521 0.762-0.834v-3.048c-0.277-0.43-0.417-0.801-0.417-1.114v-0.205c0-0.104 0.117-0.176 0.348-0.205 0.322 0 0.645 0.046 0.97 0.137 0.394-0.049 0.72-0.068 0.974-0.068h0.485c0.264 0 0.495 0.088 0.694 0.273 0.218-0.228 0.567-0.342 1.039-0.342h0.068c0.254 0 0.417 0.088 0.485 0.277-0.114 0.462-0.254 0.856-0.417 1.179 0 0.277 0.023 0.762 0.068 1.455 0 0.176-0.068 0.775-0.208 1.807v0.417c0 0.186 0.068 0.58 0.208 1.179v0.694c0 0.606-0.534 1.182-1.595 1.735-0.199 0.173-0.453 0.453-0.762 0.834-1.748-0.046-3.067-0.068-3.959-0.068h-2.566c-0.371 0-0.86 0.026-1.459 0.068-0.059-0.046-0.218-0.068-0.485-0.068l-0.694 0.068c-0.277 0-0.648-0.345-1.11-1.042-0.834-0.355-1.25-1.026-1.25-2.009v-0.072c0-0.153 0.023-0.267 0.068-0.348-0.049-0.391-0.068-0.716-0.068-0.97v-1.739c0.091-0.453 0.14-0.707 0.14-0.762v-0.834c-0.14-0.557-0.208-1.69-0.208-3.399v-1.595c0-0.199 0.068-0.847 0.208-1.947 0-0.671-0.026-2.103-0.068-4.304 0.046-0.544 0.068-0.938 0.068-1.179-0.094-0.173-0.14-0.358-0.14-0.554v-0.625c0-0.834-0.023-1.967-0.068-3.403l0.068-0.137c-0.049-0.081-0.068-0.173-0.068-0.277v-0.348c0-0.091 0.466-0.508 1.39-1.25 0.016-0.371 0.407-0.694 1.195-0.974zM66.335 22.252v0.625c0 0.322-0.208 0.485-0.625 0.485v0.277c0 0.303-0.023 0.602-0.068 0.899 0.049 0.371 0.117 0.56 0.208 0.56 0.15 0 0.264-0.348 0.345-1.042 0.078 0 0.15-0.114 0.205-0.345l-0.068-0.485c0.091-0.3 0.137-0.508 0.137-0.622v-0.352h-0.133zM65.706 4.62v0.137c0 0.29 0.114 0.707 0.345 1.25 0.013 0.417 0.081 0.625 0.208 0.625l0.068-0.137v-0.625c0-0.244 0.137-0.475 0.417-0.694v-0.14c0-0.173-0.117-0.381-0.348-0.625v-0.205c0.189-0.244 0.28-0.453 0.28-0.625-0.049 0-0.068-0.023-0.068-0.068-0.599 0.241-0.902 0.612-0.902 1.107zM65.706 11.77v2.084h0.068v-2.084h-0.068zM65.706 14.688v1.11h0.068v-1.11h-0.068zM66.4 27.943v0.28h0.208v-0.072c-0.049-0.091-0.068-0.163-0.068-0.208h-0.14zM66.748 12.952v0.068c0.137 0.199 0.205 0.381 0.205 0.554h0.068v-0.414c0-0.068-0.068-0.137-0.208-0.208h-0.065zM66.885 10.383c0 0.046-0.023 0.117-0.068 0.208 0.117 0.326 0.208 0.485 0.28 0.485 0-0.046 0.023-0.114 0.068-0.208-0.081-0.322-0.173-0.485-0.28-0.485zM67.302 8.856v0.14h0.068v-0.14h-0.068zM67.718 5.594v0.485h0.068v-0.485h-0.068zM67.718 22.112v0.348h0.068v-0.348h-0.068zM68.347 4.9l0.068 0.345h0.068v-0.345h-0.137zM68.552 5.734v0.068c0.023 0.602 0.091 0.902 0.208 0.902 0-0.046 0.023-0.068 0.068-0.068l-0.068-0.137v-0.28c0-0.046 0.023-0.068 0.068-0.068-0.101-0.28-0.192-0.417-0.277-0.417zM70.564 3.025v0.208h0.068v-0.208h-0.068zM70.912 26.208v0.625c0.189 0.521 0.28 1.192 0.28 2.012h0.068c0-0.033 0.023-0.173 0.068-0.417-0.091-1.009-0.205-1.745-0.345-2.224h-0.072zM71.329 3.442l-0.068 0.345v0.068c0.091 0 0.137-0.046 0.137-0.14v-0.273h-0.068zM71.538 2.956l-0.068 0.417c0.091 0 0.163-0.137 0.208-0.417h-0.14zM75.774 5.734v0.417h0.068v-0.417h-0.068zM75.774 25.514v0.14c0 0.475 0.068 1.074 0.205 1.807h0.068v-1.114l-0.068-0.834h-0.205zM75.839 6.287v0.208c0.189 0.729 0.28 1.123 0.28 1.179v1.042c0.010 0.091 0.059 0.137 0.137 0.137h0.068c0-1.146-0.137-2.002-0.417-2.569h-0.068zM76.467 9.55l-0.068 0.137v0.14c0.176 0.785 0.335 1.179 0.485 1.179 0.091 0 0.137-0.046 0.137-0.14v-0.065c0-0.498-0.186-0.915-0.554-1.25zM76.604 4.552v0.974c0.189 0.531 0.28 0.993 0.28 1.387 0.231 0.254 0.345 0.534 0.345 0.834h-0.068c0.091 0.231 0.14 0.394 0.14 0.485h0.137v-1.804c-0.205-0.267-0.462-0.889-0.762-1.875h-0.072zM77.161 22.6l-0.068 0.342c0 0.199 0.117 0.339 0.345 0.42 0-0.231 0.026-0.348 0.068-0.348-0.091-0.277-0.186-0.413-0.277-0.413h-0.068zM77.646 20.724v0.068c0.254 0.742 0.44 1.11 0.557 1.11 0.091 0 0.137-0.049 0.137-0.137v-0.348c-0.345-0.462-0.554-0.694-0.622-0.694h-0.072zM77.646 23.779v0.068c0.231 0.508 0.345 1.368 0.345 2.569l0.14 0.068 0.137-0.068-0.065-0.14c0.046-0.254 0.068-0.462 0.068-0.622-0.101 0-0.173-0.114-0.205-0.345 0-0.117 0.068-0.277 0.205-0.485v-0.212c-0.348-0.554-0.554-0.834-0.625-0.834zM77.718 4.275v0.137c0 0.277 0.114 0.417 0.345 0.417l0.068-0.137v-0.14c0-0.068-0.091-0.16-0.28-0.277h-0.133zM78.271 9.55c0 0.104-0.023 0.199-0.068 0.277l0.137 0.072 0.068-0.345h-0.137z"></path>
<path d="M77.213 1.983l1.807 0.137c0.173-0.046 0.381-0.068 0.622-0.068l2.429 0.345c0.091-0.046 0.163-0.068 0.208-0.068 0.186 0.068 0.277 0.14 0.277 0.208v0.762c0 0.29 0.14 0.752 0.417 1.39 0.241 0.983 0.544 1.722 0.902 2.221 0.046 0.081 0.068 0.199 0.068 0.345v0.834c0.671 0.996 1.179 2.129 1.527 3.399 0.417 1.136 0.716 1.853 0.902 2.152 0.127 0 0.241 0.417 0.345 1.25h0.137c0-0.244-0.023-0.453-0.068-0.625l0.068-0.348c-0.046-0.475-0.068-0.843-0.068-1.11s0.277-0.869 0.834-1.804c0-0.475 0.205-0.938 0.622-1.387v-0.899c0.059-0.137 0.267-0.277 0.625-0.417v-0.625c0.186-0.521 0.277-0.961 0.277-1.319 0.173-0.059 0.381-0.635 0.622-1.735 0.244 0 0.43-0.534 0.557-1.595-0.049-0.313-0.068-0.567-0.068-0.762l0.277-0.208c0.117 0 0.326 0.046 0.625 0.137l0.417-0.208c0.15 0.117 0.749 0.231 1.804 0.345 0.013 0.094 0.153 0.163 0.417 0.208l0.28-0.137c0.15 0.091 0.29 0.137 0.417 0.137 0-0.137 0.205-0.254 0.622-0.345h0.29c0.091 0.010 0.137 0.059 0.137 0.137v0.14c-0.231 0.208-0.462 0.531-0.694 0.97-0.254 0-0.466 0.485-0.625 1.459l-0.205 0.137-0.625-0.068-0.068 0.14v1.595c0 0.544-0.189 1.078-0.557 1.595 0 0.218-0.205 0.358-0.622 0.417v0.208l0.345 0.345c-0.485 1.621-0.834 2.429-1.042 2.429v0.208c-0.326 1.309-0.694 2.279-1.11 2.917-0.176 0.788-0.381 1.459-0.625 2.012 0 0.186-0.228 0.739-0.694 1.667 0 0.088-0.163 0.531-0.485 1.315v2.361c0 0.28-0.091 0.42-0.277 0.42v0.205c0.231 0 0.345 0.811 0.345 2.429v3.126c0 0.147 0.117 0.495 0.345 1.039v0.068c0 0.068-0.068 0.14-0.205 0.208-0.602-0.023-0.902-0.068-0.902-0.14l-0.14 0.068c-0.879 0.049-1.478 0.068-1.804 0.068-0.104 0-0.358-0.023-0.762-0.068-0.208 0.094-0.534 0.14-0.974 0.14-0.186-0.068-0.277-0.14-0.277-0.208v-0.199c0-0.163 0.163-0.645 0.485-1.459v-0.068c0-0.189-0.026-0.277-0.068-0.277l0.068-0.697v-2.084c0-0.495-0.026-0.889-0.068-1.179 0.046-0.335 0.068-0.752 0.068-1.25v-2.012l-2.432-6.662c-0.218-0.254-0.82-2.012-1.804-5.275 0-0.176-0.186-0.475-0.557-0.902-0.186-1.11-0.391-1.667-0.622-1.667 0-0.186-0.208-0.762-0.625-1.735-0.010-0.335-0.241-0.707-0.694-1.11 0-0.068-0.163-0.277-0.485-0.625v-0.208l0.065-0.14zM80.059 3.093v2.361h0.208l0.068-0.485v-1.179l-0.068-0.834h-0.068c-0.091 0.010-0.14 0.059-0.14 0.137zM84.503 12.187v0.762h0.14v-0.065l-0.068-0.694h-0.072zM84.503 14.825v0.554h0.14v-0.69c-0.094 0.010-0.14 0.055-0.14 0.137zM84.988 26.973c0.091 0.176 0.14 0.358 0.14 0.557-0.091 0.010-0.14 0.059-0.14 0.137v0.205c0 0.107 0.023 0.199 0.068 0.28-0.036 0.127-0.081 0.407-0.14 0.834l0.14 0.068h0.068c0.068 0 0.137-0.068 0.205-0.208-0.046-0.58-0.068-0.902-0.068-0.974l0.068-0.97-0.137-0.068-0.205 0.14zM86.027 17.322v0.488c0.013 0.091 0.062 0.14 0.14 0.14l0.068-0.14-0.068-0.488h-0.14zM86.239 19.129v0.622h0.068v-0.622h-0.068zM86.307 20.516v0.068c0 1.169 0.137 2.419 0.417 3.751-0.091 0.44-0.14 0.781-0.14 1.035v0.352l0.277 1.944v0.762c0 0.466 0.394 0.697 1.182 0.697v-0.068c-0.189-0.648-0.28-1.019-0.28-1.114v-0.97l-0.068-0.485-0.345 0.068c-0.234-0.254-0.348-0.534-0.348-0.834v-0.485c0-0.049 0.023-0.068 0.068-0.068l-0.068-0.137v-1.254c-0.14-1.201-0.345-2.289-0.622-3.262h-0.072zM86.724 15.521v0.277c0.137 0.394 0.205 0.72 0.205 0.974h0.068v-0.697c0-0.091-0.046-0.326-0.14-0.694-0.088 0.013-0.133 0.059-0.133 0.14zM88.391 10.243c-0.231 0.752-0.485 1.472-0.762 2.152v0.14c0.091 0.15 0.137 0.267 0.137 0.348h0.14c0.368-0.199 0.557-1.029 0.557-2.501v-0.14h-0.072zM87.834 21.073v0.277c0.013 0.094 0.059 0.14 0.14 0.14h0.068v-0.277c0-0.091-0.049-0.14-0.14-0.14h-0.068zM88.736 13.714c0 0.417-0.049 0.765-0.14 1.042l0.068 0.974-0.277 0.762c0 0.068 0.046 0.277 0.137 0.625h0.14v-0.072l0.208-1.387v-1.804c0.003-0.091-0.042-0.14-0.137-0.14zM90.195 11.702l0.068 0.694v0.554l-0.068 0.14 0.14 0.068c0.091-0.104 0.163-0.521 0.205-1.25-0.046-0.091-0.068-0.16-0.068-0.208h-0.277zM91.028 2.748l-0.072 0.345v0.14c0.013 0.091 0.062 0.137 0.14 0.137 0.091-0.15 0.14-0.29 0.14-0.417v-0.068c0-0.091-0.049-0.137-0.14-0.137h-0.068zM93.597 3.373l-0.068 0.137c0.013 0.094 0.059 0.14 0.14 0.14 0-0.046 0.023-0.117 0.068-0.208l-0.14-0.068z"></path>
<path d="M96.788 1.983h0.694c0.267 0 0.635 0.023 1.11 0.068l0.14-0.068c0.091 0.046 0.163 0.068 0.205 0.068 0.58-0.046 0.882-0.068 0.902-0.068l0.345 0.068 0.417-0.068c0.326 0 0.485 0.046 0.485 0.137 0.186-0.091 0.44-0.137 0.762-0.137h0.485c0.326 0 0.508 0.023 0.557 0.068 0.313-0.046 0.567-0.068 0.762-0.068h2.152c0.322 0 0.622 0.326 0.899 0.97-0.091 0.15-0.137 0.267-0.137 0.345 0.046 0 0.068 0.023 0.068 0.068 0.15-0.091 0.264-0.137 0.345-0.137 0.645 0.44 0.97 0.834 0.97 1.179 0.14 0.648 0.208 1.065 0.208 1.25v0.417c-0.14 0.879-0.208 1.459-0.208 1.735v1.39c0 0.231-0.046 0.345-0.137 0.345 0.186 0.326 0.277 0.554 0.277 0.694v0.14c0 0.068-0.068 0.137-0.205 0.208-0.094-0.046-0.163-0.068-0.208-0.068v0.137h0.557c0.277 0.199 0.417 0.407 0.417 0.625-0.104 0.186-0.635 0.277-1.595 0.277-0.254 0-0.485-0.046-0.697-0.137l-1.11 0.137c-0.358-0.046-0.752-0.068-1.179-0.068h-0.277c-0.068 0-0.163-0.091-0.28-0.277 0-0.14 0.117-0.508 0.345-1.11v-3.331c-0.059-0.208-0.449-0.417-1.179-0.622-0.046 0-0.068 0.023-0.068 0.068-0.137 0-0.205-0.023-0.205-0.068-0.687 0.046-1.198 0.068-1.521 0.068h-1.807c-0.462 0.3-0.694 0.742-0.694 1.319-0.186 0-0.277 0.326-0.277 0.97 0.228 0.117 0.345 0.3 0.345 0.554v0.694c0 0.394 0.023 0.811 0.068 1.25l-0.137 0.834c0.046 0.811 0.068 1.296 0.068 1.459 0 0.381-0.026 0.752-0.068 1.11l0.137 4.096c-0.046 1.201-0.068 2.589-0.068 4.164v1.804c0.163 0.694 0.417 1.039 0.762 1.039h3.123c0.199 0 0.453 0.026 0.762 0.068 0.508-0.241 0.762-0.521 0.762-0.834v-3.048c-0.277-0.43-0.417-0.801-0.417-1.114v-0.205c0-0.104 0.117-0.176 0.348-0.205 0.322 0 0.645 0.046 0.97 0.137 0.394-0.049 0.72-0.068 0.974-0.068h0.485c0.264 0 0.495 0.088 0.694 0.273 0.218-0.228 0.567-0.342 1.039-0.342h0.068c0.254 0 0.417 0.088 0.485 0.277-0.114 0.462-0.254 0.856-0.417 1.179 0 0.277 0.023 0.762 0.068 1.455 0 0.176-0.068 0.775-0.208 1.807v0.417c0 0.186 0.068 0.58 0.208 1.179v0.694c0 0.606-0.534 1.182-1.595 1.735-0.199 0.173-0.453 0.453-0.762 0.834-1.748-0.046-3.067-0.068-3.959-0.068h-2.566c-0.371 0-0.86 0.026-1.459 0.068-0.059-0.046-0.218-0.068-0.485-0.068l-0.694 0.068c-0.277 0-0.648-0.345-1.11-1.042-0.834-0.355-1.25-1.026-1.25-2.009v-0.072c0-0.153 0.023-0.267 0.068-0.348-0.049-0.391-0.068-0.716-0.068-0.97v-1.739c0.091-0.453 0.14-0.707 0.14-0.762v-0.834c-0.14-0.557-0.208-1.69-0.208-3.399v-1.595c0-0.199 0.068-0.847 0.208-1.947 0-0.671-0.026-2.103-0.068-4.304 0.046-0.544 0.068-0.938 0.068-1.179-0.094-0.173-0.14-0.358-0.14-0.554v-0.625c0-0.834-0.023-1.967-0.068-3.403l0.068-0.137c-0.049-0.081-0.068-0.173-0.068-0.277v-0.348c0-0.091 0.466-0.508 1.39-1.25 0.010-0.371 0.4-0.694 1.188-0.974zM95.609 22.252v0.625c0 0.322-0.208 0.485-0.625 0.485v0.277c0 0.303-0.023 0.602-0.068 0.899 0.049 0.371 0.117 0.56 0.208 0.56 0.15 0 0.264-0.348 0.345-1.042 0.078 0 0.15-0.114 0.205-0.345l-0.068-0.485c0.091-0.3 0.137-0.508 0.137-0.622v-0.352h-0.133zM94.981 4.62v0.137c0 0.29 0.114 0.707 0.345 1.25 0.013 0.417 0.081 0.625 0.208 0.625l0.068-0.137v-0.625c0-0.244 0.137-0.475 0.417-0.694v-0.14c0-0.173-0.117-0.381-0.348-0.625v-0.205c0.192-0.244 0.283-0.453 0.283-0.625-0.049 0-0.068-0.023-0.068-0.068-0.602 0.241-0.905 0.612-0.905 1.107zM94.981 11.77v2.084h0.068v-2.084h-0.068zM94.981 14.688v1.11h0.068v-1.11h-0.068zM95.674 27.943v0.28h0.208v-0.072c-0.049-0.091-0.068-0.163-0.068-0.208h-0.14zM96.026 12.952v0.068c0.137 0.199 0.205 0.381 0.205 0.554h0.068v-0.414c0-0.068-0.068-0.137-0.208-0.208h-0.065zM96.163 10.383c0 0.046-0.023 0.117-0.068 0.208 0.117 0.326 0.208 0.485 0.28 0.485 0-0.046 0.023-0.114 0.068-0.208-0.085-0.322-0.176-0.485-0.28-0.485zM96.58 8.856v0.14h0.068v-0.14h-0.068zM96.996 5.594v0.485h0.068v-0.485h-0.068zM96.996 22.112v0.348h0.068v-0.348h-0.068zM97.621 4.9l0.068 0.345h0.068v-0.345h-0.137zM97.827 5.734v0.068c0.023 0.602 0.091 0.902 0.208 0.902 0-0.046 0.023-0.068 0.068-0.068l-0.065-0.14v-0.277c0-0.046 0.023-0.068 0.068-0.068-0.104-0.28-0.195-0.417-0.28-0.417zM99.842 3.025v0.208h0.068v-0.208h-0.068zM100.187 26.208v0.625c0.189 0.521 0.28 1.192 0.28 2.012h0.068c0-0.033 0.023-0.173 0.068-0.417-0.091-1.009-0.205-1.745-0.345-2.224h-0.072zM100.604 3.442l-0.068 0.345v0.068c0.091 0 0.137-0.046 0.137-0.14v-0.273h-0.068zM100.812 2.956l-0.068 0.417c0.091 0 0.163-0.137 0.208-0.417h-0.14zM105.048 5.734v0.417h0.068v-0.417h-0.068zM105.048 25.514v0.14c0 0.475 0.068 1.074 0.205 1.807h0.068v-1.114l-0.068-0.834h-0.205zM105.117 6.287v0.208c0.189 0.729 0.28 1.123 0.28 1.179v1.042c0.010 0.091 0.059 0.137 0.137 0.137h0.068c0-1.146-0.137-2.002-0.417-2.569h-0.068zM105.742 9.55l-0.068 0.137v0.14c0.176 0.785 0.335 1.179 0.485 1.179 0.091 0 0.137-0.046 0.137-0.14v-0.065c0-0.498-0.186-0.915-0.554-1.25zM105.879 4.552v0.974c0.189 0.531 0.28 0.993 0.28 1.387 0.231 0.254 0.345 0.534 0.345 0.834h-0.068c0.091 0.231 0.14 0.394 0.14 0.485h0.137v-1.804c-0.208-0.267-0.462-0.892-0.762-1.875h-0.072zM106.436 22.6l-0.068 0.342c0 0.199 0.117 0.339 0.345 0.42 0-0.231 0.026-0.348 0.068-0.348-0.091-0.277-0.186-0.413-0.277-0.413h-0.068zM106.921 20.724v0.068c0.254 0.742 0.44 1.11 0.557 1.11 0.091 0 0.137-0.049 0.137-0.137v-0.348c-0.345-0.462-0.554-0.694-0.622-0.694h-0.072zM106.921 23.779v0.068c0.231 0.508 0.345 1.368 0.345 2.569l0.14 0.068 0.137-0.068-0.065-0.14c0.046-0.254 0.068-0.462 0.068-0.622-0.101 0-0.173-0.114-0.205-0.345 0-0.117 0.068-0.277 0.205-0.485v-0.212c-0.348-0.554-0.554-0.834-0.625-0.834zM106.992 4.275v0.137c0 0.277 0.114 0.417 0.345 0.417l0.068-0.137v-0.14c0-0.068-0.091-0.16-0.28-0.277h-0.133zM107.546 9.55c0 0.104-0.023 0.199-0.068 0.277l0.137 0.068 0.068-0.345h-0.137z"></path>
<path d="M110.551 1.983h0.277c0.684 0 1.332 0.023 1.947 0.068 0.313-0.046 0.567-0.068 0.762-0.068 0.091 0 0.254 0.046 0.485 0.137 0.101-0.046 0.313-0.091 0.622-0.137 0.648 0.036 0.974 0.104 0.974 0.208v0.208c-0.231 0.254-0.345 0.58-0.345 0.97-0.049 0-0.14 0.091-0.28 0.277 0 0.091 0.023 0.137 0.068 0.137l-0.068 0.834v1.595c0 0.453 0.023 0.684 0.068 0.694-0.049 0.394-0.068 0.716-0.068 0.97v4.581c0 0.58 0.023 1.296 0.068 2.152-0.049 0.081-0.068 0.199-0.068 0.345 0.036 0.371 0.081 0.557 0.14 0.557l-0.068 0.625c0 1.146-0.023 2.048-0.068 2.706 0.049 1.205 0.068 2.595 0.068 4.164v0.14c0 0.394-0.023 0.974-0.068 1.735 0.567 0.508 0.889 0.762 0.974 0.762 0.3-0.091 0.508-0.14 0.622-0.14h5.626c0.195 0 0.449 0.026 0.762 0.068 0.671-0.277 1.039-0.417 1.11-0.417h0.417c0.068 0 0.14 0.091 0.205 0.277-0.127 0.107-0.241 0.847-0.345 2.224-0.046 0-0.114 0.485-0.205 1.459v0.287c0 0.15-0.231 0.264-0.694 0.345-0.648-0.046-1.205-0.068-1.667-0.068h-1.807c-0.29 0-0.635 0.026-1.039 0.068l-0.417-0.068c-0.58 0.049-0.928 0.068-1.042 0.068l-1.527-0.14c-0.176 0.094-0.358 0.14-0.557 0.14-0.137 0-0.205-0.023-0.205-0.068-0.091 0-0.14 0.026-0.14 0.068-0.856-0.046-1.481-0.068-1.872-0.068h-1.319c-0.303 0-0.762 0.026-1.39 0.068l-0.075-0.137v-0.14c0-0.186 0.14-0.44 0.417-0.762l-0.068-0.137c0-0.068 0.068-0.326 0.205-0.762-0.046-0.775-0.068-1.377-0.068-1.807 0-0.241 0.026-0.635 0.068-1.179l-0.205-1.387c0.091-0.443 0.137-0.788 0.137-1.042v-3.266c-0.091-0.788-0.137-1.227-0.137-1.319v-0.417l0.205-1.944-0.205-1.042c0.091-0.44 0.137-0.788 0.137-1.042v-5.62c0-0.218-0.046-0.589-0.137-1.11 0-0.231 0.023-0.508 0.068-0.834-0.046-0.485-0.068-1.019-0.068-1.595v-0.417c0-0.046 0.023-0.068 0.068-0.068l-0.417-1.39v-0.208c0.013-0.091 0.059-0.14 0.14-0.14zM112.010 15.241c-0.189 1.065-0.28 1.713-0.28 1.941l0.068 0.625c-0.14 0.557-0.205 0.951-0.205 1.179v0.208l0.068 0.482h0.068c0.186-0.658 0.326-1.283 0.417-1.872 0-0.104-0.023-0.358-0.068-0.762 0.049-0.508 0.068-0.948 0.068-1.319l-0.068-0.485h-0.068zM111.87 23.433c-0.186 2.475-0.277 4.184-0.277 5.135v0.205h0.205v-0.41c0-0.28 0.068-0.86 0.208-1.735v-2.015c0-0.199-0.026-0.453-0.068-0.762 0.046-0.088 0.068-0.16 0.068-0.205-0.049-0.091-0.068-0.163-0.068-0.205h-0.068zM112.563 22.392c0 0.127-0.163 0.29-0.485 0.485v0.068c0.267 0.049 0.453 0.068 0.557 0.068 0-0.088 0.023-0.137 0.068-0.137-0.049-0.062-0.068-0.218-0.068-0.485h-0.072zM112.287 4.9v0.902c0 0.221 0.023 0.453 0.068 0.694l-0.068 0.345 0.068 0.485c0 0.104-0.026 0.199-0.068 0.277 0.046 0.475 0.068 0.847 0.068 1.11v0.345c0 0.199-0.026 0.453-0.068 0.765 0.046 0.081 0.068 0.173 0.068 0.277l-0.068 0.352c0.046 0.221 0.068 0.544 0.068 0.974h0.068c0.228-0.765 0.345-1.436 0.345-2.012v-0.834c0-0.462 0.023-1.019 0.068-1.667-0.049-0.081-0.068-0.173-0.068-0.277 0-0.046 0.091-0.345 0.277-0.902l-0.694-0.765v-0.068h-0.065zM113.325 17.879c-0.417 1.413-0.622 2.224-0.622 2.429-0.091 0.013-0.14 0.062-0.14 0.14 0.049 0.882 0.068 1.478 0.068 1.804h0.068c0-0.241 0.231-1.468 0.694-3.676v-0.697h-0.068zM112.98 12.050l-0.277 2.289v0.208l0.068 0.694h0.068c0.186-0.091 0.277-0.231 0.277-0.417 0-0.208-0.026-0.345-0.068-0.417 0.046-0.394 0.068-0.716 0.068-0.97v-0.485l-0.068-0.417c0.046-0.081 0.068-0.173 0.068-0.277-0.049-0.094-0.068-0.163-0.068-0.208h-0.068zM113.325 16.628v1.042c0.013 0.088 0.059 0.137 0.14 0.137v-1.315c-0.091 0.010-0.14 0.059-0.14 0.137zM113.814 2.885v1.182c0 0.068-0.046 0.625-0.14 1.667l0.068 0.485h0.068c0-0.811 0.091-1.55 0.277-2.221 0.049-0.58 0.068-0.925 0.068-1.042l-0.137-0.068h-0.205zM114.022 14.825v0.348h0.137v-0.208c0-0.094-0.046-0.14-0.137-0.14zM115.409 27.181c0.104-0.078 0.358-0.381 0.762-0.902-0.036-0.14-0.127-0.231-0.277-0.28-0.303 0-0.462 0.394-0.485 1.182zM116.243 28.428c0 0.117 0.049 0.371 0.14 0.765h0.205l0.14-0.488v-0.205c0-0.244-0.068-0.381-0.205-0.417-0.189 0.046-0.28 0.163-0.28 0.345z"></path>
<path d="M125.662 1.983c0.14 0 0.326 0.046 0.557 0.137 0.326-0.091 0.58-0.137 0.762-0.137l0.902 0.137c0.303-0.091 0.508-0.137 0.622-0.137h1.319c0.15 0 0.475 0.046 0.974 0.137 0.14 0 0.326-0.046 0.557-0.137 0.228 0 0.345 0.023 0.345 0.068 0.996-0.046 1.732-0.068 2.221-0.068h4.513c0.417 0 0.625 0.485 0.625 1.459 0.228 1.573 0.345 2.592 0.345 3.054l-0.274 0.14c-0.355-0.046-0.729-0.208-1.11-0.485l-0.137 0.068h-0.557c-0.163 0-0.371-0.023-0.625-0.068-0.091 0.046-0.163 0.068-0.205 0.068-0.14 0-0.208-0.023-0.208-0.068-0.462 0.046-0.808 0.068-1.039 0.068h-2.224c-0.059 0-0.313-0.046-0.762-0.137h-0.492c-0.091 0-0.322 0.046-0.694 0.137-0.231-0.081-0.345-0.195-0.345-0.345 0.091-0.775 0.254-1.514 0.485-2.221-0.091-0.44-0.14-0.788-0.14-1.042v-0.072c-0.326-0.046-0.508-0.068-0.554-0.068l-0.068 0.137v0.902l-0.14 1.25c0.091 0.612 0.186 0.983 0.277 1.11 0 0.059-0.254 0.427-0.762 1.11v0.14c0 0.326 0.049 0.58 0.14 0.762-0.091 0.186-0.14 0.44-0.14 0.762v1.459c0 0.186 0.049 0.485 0.14 0.902-0.091 0.427-0.14 0.681-0.14 0.762 0 0.554 0.485 0.925 1.459 1.11 0.078 0 0.264-0.046 0.554-0.14l0.417 0.068c1.123 0 2.139-0.186 3.054-0.554h0.277c0.091 0.010 0.14 0.059 0.14 0.137v0.345c0 0.163 0.023 0.371 0.068 0.625-0.094 0.186-0.14 0.345-0.14 0.485 0.046 0.137 0.091 0.208 0.14 0.208l-0.068 0.485v2.23l0.068 0.482-0.208 0.14h-0.14c-0.934-0.368-1.468-0.554-1.595-0.554-0.326 0.046-0.508 0.072-0.554 0.072-0.081 0-0.407-0.072-0.974-0.208-0.173 0.091-0.358 0.137-0.557 0.137-0.046 0-0.114-0.023-0.205-0.068-0.186 0.049-0.348 0.068-0.488 0.068l-0.277-0.068c-0.15 0.091-0.29 0.14-0.417 0.14h-0.14l-0.205-0.14c0.059-1.794 0.15-2.904 0.277-3.331-0.036-0.277-0.176-0.417-0.417-0.417-0.091 0.15-0.14 0.267-0.14 0.345-0.046 1.423-0.068 2.348-0.068 2.777-0.094 0.3-0.14 0.508-0.14 0.625v0.068c0.358 0 0.567 0.094 0.622 0.277l-0.417 0.557c0.049 2.221 0.068 3.93 0.068 5.135v1.595c0 0.205 0.186 0.602 0.557 1.179l0.485-0.068h0.068c0.16 0 0.368 0.026 0.622 0.068l0.485-0.14c0.775 0.049 1.377 0.068 1.804 0.068h1.735c0.199 0 0.381 0.026 0.557 0.068 0.186-0.046 0.368-0.068 0.554-0.068h1.182c0.173 0 0.567-0.14 1.179-0.413h0.137c0.068 0 0.14 0.068 0.208 0.205-0.254 2.869-0.485 4.301-0.697 4.301-0.078 0.049-0.173 0.068-0.277 0.068h-2.152c-1.976 0-3.503 0.026-4.578 0.068-0.915-0.046-2.351-0.068-4.304-0.068h-0.834c-0.231 0-0.345-0.046-0.345-0.14-0.231 0.14-0.417 0.208-0.557 0.208h-0.205c-0.104 0-0.176-0.114-0.208-0.345 0.28-0.707 0.417-1.149 0.417-1.319 0-0.68-0.023-1.146-0.068-1.387 0.046-0.961 0.068-1.84 0.068-2.641v-1.862c0-0.68-0.023-1.146-0.068-1.387 0.046-0.485 0.068-1.019 0.068-1.595v-5.001c0-0.163-0.023-0.371-0.068-0.625 0.046-0.091 0.068-0.163 0.068-0.208l-0.059-0.83 0.068-0.97c0-0.358-0.023-0.681-0.068-0.97 0.046-1.54 0.068-2.882 0.068-4.028v-2.569l-0.068-0.345h0.068l-0.417-1.319v-0.072c0.094-0.186 0.231-0.28 0.413-0.28zM126.219 2.816v0.277l0.485 2.361h0.068c0.046-0.163 0.068-0.254 0.068-0.277 0-0.218-0.14-0.889-0.417-2.012 0-0.231-0.049-0.345-0.14-0.345h-0.065zM126.359 8.44l-0.14 0.277c0 1.088 0.14 1.849 0.417 2.292l-0.205 1.179 0.417 2.012v0.625c0.033 0.277 0.101 0.417 0.205 0.417 0-0.231 0.023-0.345 0.068-0.345-0.081-0.3-0.176-1.065-0.277-2.292v-1.875c0-0.117-0.117-0.58-0.348-1.387l0.068-0.345c0.003-0.348-0.068-0.534-0.205-0.557zM126.496 26.904c0 0.137-0.023 0.205-0.068 0.205 0.046 0.094 0.068 0.166 0.068 0.208h0.068v-0.413h-0.068zM126.776 5.871c0 0.023-0.026 0.117-0.068 0.277 0 0.205 0.186 0.993 0.557 2.361 0.277 1.377 0.417 2.51 0.417 3.399h-0.068l0.068 0.14v0.137c0 0.046-0.026 0.068-0.068 0.068 0.068 0.186 0.137 0.277 0.205 0.277 0-0.046 0.023-0.068 0.068-0.068 0-0.046-0.023-0.117-0.068-0.208 0.049-1.019 0.114-1.758 0.208-2.224-0.326 0-0.606-1.133-0.834-3.399-0.049 0-0.163-0.254-0.345-0.762h-0.072zM127.746 2.4l-0.068 0.14c0.137 0.625 0.205 1.065 0.205 1.319v0.762c0.013 0.091 0.059 0.137 0.14 0.137v-0.83c0-0.137 0.068-0.417 0.205-0.834-0.052-0.459-0.215-0.694-0.482-0.694zM128.026 25.722l-0.068 0.345v0.97h0.068c0-0.599 0.091-1.019 0.277-1.247l-0.14-0.068h-0.137zM128.58 27.461v0.068c0 0.254 0.026 0.58 0.068 0.97-0.046 0.078-0.068 0.176-0.068 0.277h0.14v-0.14c0-0.147 0.023-0.264 0.068-0.342-0.046-0.557-0.117-0.834-0.208-0.834zM128.788 13.714v0.485c0.091 0 0.137-0.046 0.137-0.137l-0.068-0.348h-0.068zM129.065 2.748v0.834c0.277 0.29 0.417 0.567 0.417 0.834 0.104 0 0.176-0.163 0.208-0.485l-0.068-0.837h0.068c-0.049-0.368-0.163-0.554-0.348-0.554-0.186 0.068-0.277 0.14-0.277 0.208zM130.455 26.139c0 0.023-0.049 0.371-0.14 1.039v0.42h0.14c0.186-0.697 0.277-1.087 0.277-1.182v-0.14c0-0.088-0.049-0.137-0.14-0.137h-0.137zM131.149 13.574c-0.186 0.091-0.277 0.856-0.277 2.292-0.091 0.010-0.14 0.059-0.14 0.137v0.208h0.14c0.228-0.602 0.345-0.925 0.345-0.97s-0.049-0.277-0.14-0.694c0.14-0.241 0.208-0.475 0.208-0.694v-0.14c0.003-0.091-0.046-0.14-0.137-0.14zM131.842 2.748c0 0.811-0.114 1.735-0.345 2.777l0.14 0.208c0.554-0.046 0.834-0.117 0.834-0.208 0.046-1.527 0.114-2.292 0.205-2.292-0.091-0.348-0.137-0.58-0.137-0.694h-0.557c-0.094 0-0.14 0.068-0.14 0.208zM131.634 27.943c0.046 0.094 0.068 0.166 0.068 0.208h0.137c0.104-0.046 0.29-0.368 0.557-0.974 0.231-0.059 0.345-0.127 0.345-0.205v-0.345c0-0.068-0.068-0.14-0.205-0.208-0.221 0-0.43 0.368-0.625 1.114-0.036-0.003-0.127 0.134-0.277 0.41zM131.842 15.45c0.127 0 0.29-0.254 0.485-0.762l-0.068-0.14v-0.485c0-0.117 0.049-0.326 0.14-0.625l-0.14-0.072h-0.068c-0.117 0-0.231 0.697-0.348 2.084zM132.467 15.59l-0.068 0.348v0.068c0.013 0.094 0.059 0.14 0.14 0.14 0-0.046 0.023-0.231 0.068-0.557h-0.14z"></path>
<path d="M147.197 1.983c0.15 0.091 0.267 0.137 0.345 0.137l0.345-0.068 0.417 0.068c0.15-0.091 0.29-0.137 0.417-0.137 0.14 0.046 0.208 0.091 0.208 0.137l0.694-0.068h0.277c0.326 0.010 0.485 0.059 0.485 0.137l0.14-0.068h0.417c0.046 0 0.068 0.023 0.068 0.068l0.345-0.208h0.554c0.798 0.189 1.188 0.306 1.188 0.352 1.149 1.101 1.726 1.726 1.735 1.875 0 0.023-0.023 0.117-0.068 0.277 0 0.114 0.026 0.3 0.068 0.554l-0.068 0.694c0.14 0.417 0.208 0.694 0.208 0.83v0.765c0 0.186-0.049 0.485-0.14 0.902 0.176 0.752 0.381 1.214 0.625 1.39v0.137c0 0.068-0.091 0.163-0.28 0.277h-0.137c-0.498 0-0.847-0.023-1.042-0.068-0.358 0.046-0.749 0.068-1.179 0.068h-0.485c-0.228 0-0.602-0.068-1.11-0.205-0.345 0.186-0.58 0.277-0.694 0.277-0.208-0.091-0.326-0.186-0.345-0.277v-0.205c0-0.267 0.254-0.707 0.762-1.319v-0.072l-0.072-0.417c0.091-0.218 0.14-0.427 0.14-0.625-0.417-0.694-0.882-1.039-1.39-1.039h-0.068c-0.241 0-0.453 0.023-0.622 0.068-0.244-0.046-0.475-0.068-0.697-0.068h-0.622c-0.104 0-0.199 0.023-0.277 0.068-0.28-0.081-0.417-0.15-0.417-0.208-0.094 0.081-0.466 0.15-1.114 0.208 0 0.117-0.163 0.345-0.482 0.694v0.554c0 0.335-0.026 0.589-0.068 0.762 0.046 0.303 0.068 0.602 0.068 0.902v0.834c-0.094 1.042-0.14 1.595-0.14 1.667v0.694c0 0.557 0.205 0.902 0.622 1.042 0 0.14 0.117 0.208 0.345 0.208 0.221 0 0.453-0.023 0.697-0.068l0.345 0.068 0.485-0.068 0.694 0.068 0.694-0.068c0.752 0.059 1.332 0.127 1.735 0.205 0.091 0 0.254-0.046 0.485-0.137 0.404 0.046 0.658 0.068 0.762 0.068 0.635-0.046 1.029-0.068 1.179-0.068 0.176 0.046 0.404 0.208 0.694 0.485 0.081 0.023 0.316 0.3 0.697 0.834 0.645 0.508 0.97 0.947 0.97 1.319v0.557c0 0.694-0.023 1.273-0.068 1.735 0.046 0.326 0.068 0.785 0.068 1.387-0.091 0.82-0.137 1.328-0.137 1.527v0.557c0.091 0.671 0.137 1.039 0.137 1.11-0.137 0.86-0.205 1.368-0.205 1.527 0.046 1.296 0.091 2.224 0.14 2.781-0.117 0.453-0.882 1.237-2.292 2.361-0.648-0.059-1.201-0.127-1.667-0.208-0.068 0-0.462 0.068-1.179 0.208-0.036 0-0.173-0.023-0.417-0.068-0.254 0.049-0.44 0.068-0.557 0.068-0.287-0.091-0.475-0.14-0.554-0.14-0.508 0.026-0.762 0.068-0.762 0.14-0.544-0.046-0.938-0.068-1.179-0.068h-2.364c-0.658 0-1.097-0.208-1.315-0.622-0.974-0.869-1.459-1.446-1.459-1.735v-0.912c0-0.593 0.023-1.237 0.068-1.944-0.049-0.163-0.068-0.254-0.068-0.277 0.049-0.254 0.068-0.508 0.068-0.762 0-0.348-0.205-0.928-0.622-1.735v-0.28c0.010-0.088 0.059-0.14 0.137-0.14h2.569c0.046 0 0.068 0.026 0.068 0.068l0.137-0.068h2.012c0.14 0 0.208 0.094 0.208 0.28-0.277 0.733-0.417 1.286-0.417 1.667l0.068 0.345c-0.091 0.443-0.14 0.72-0.14 0.834 0 0.697 0.394 1.087 1.179 1.179l0.485-0.068h0.14c0.475 0 0.843 0.026 1.11 0.068 0.267-0.046 0.635-0.068 1.11-0.068h0.14c0.127 0 0.267 0.049 0.417 0.14 0.254-0.046 0.462-0.068 0.622-0.068h0.208l0.068-0.345c0-0.218-0.026-0.752-0.068-1.595l0.068-0.137c-0.049-0.189-0.068-0.348-0.068-0.488 0-0.541-0.023-1.097-0.068-1.667 0.091-0.808 0.14-1.667 0.14-2.566v-0.075c0-0.371-0.443-0.625-1.319-0.762v-0.072l-0.684 0.072h-2.569c-0.104 0-0.199 0.023-0.277 0.068l-0.14-0.068c-0.15 0-0.267 0.023-0.345 0.068-0.475-0.046-0.847-0.068-1.11-0.068h-1.182c-0.427 0-0.912-0.345-1.455-1.039l-1.179-1.114v-11.178c0-0.589 0.785-1.446 2.361-2.569 0.394 0.091 0.648 0.137 0.762 0.137 0.068 0 0.28-0.046 0.625-0.137 0.091 0 0.254 0.046 0.485 0.137 0.091-0.088 0.713-0.156 1.869-0.205zM142.893 23.847v0.488c0.094 0 0.14-0.049 0.14-0.14v-0.208c0-0.091-0.042-0.14-0.14-0.14zM143.31 11.702v0.14h0.14v-0.28c-0.091 0.013-0.14 0.059-0.14 0.14zM143.59 4.135c0.137 0.371 0.205 0.602 0.205 0.694 0 0.036-0.023 0.173-0.068 0.417l0.068 0.345c0 0.117-0.023 0.303-0.068 0.557l0.14 2.081h-0.068c0.182 0.306 0.28 0.791 0.28 1.462v1.804l0.068 0.348h-0.068l0.068 0.137v0.554c0.036 0.277 0.104 0.417 0.208 0.417l0.068-0.137v-0.068c0-0.195-0.026-0.381-0.068-0.554l0.068-0.345c0-0.046-0.026-0.231-0.068-0.557 0.091-0.485 0.14-0.739 0.14-0.762-0.14-1.817-0.28-2.95-0.417-3.399v-1.185c0-0.254-0.026-0.58-0.068-0.974 0.046-0.091 0.068-0.163 0.068-0.208-0.189-0.345-0.28-0.648-0.28-0.902-0.072 0-0.137 0.091-0.208 0.277zM143.661 2.816v0.277h0.137v-0.137c0-0.094-0.046-0.14-0.137-0.14zM144.006 23.225c0 0.046-0.026 0.114-0.068 0.208 0.091 0.186 0.14 0.342 0.14 0.482h0.068l0.068-0.345-0.072-0.345h-0.137zM144.078 24.199l-0.068 0.694v0.345h0.068l0.137-0.834c-0.046-0.091-0.068-0.163-0.068-0.205h-0.068zM144.283 26.904c0 0.049-0.091 0.303-0.277 0.762l0.205 0.14c0.104 0 0.176-0.205 0.208-0.625-0.049-0.078-0.068-0.173-0.068-0.277h-0.068zM144.078 25.722v0.834c0 0.068 0.068 0.14 0.205 0.208v-0.765l0.068-0.345-0.14-0.068c-0.091 0.010-0.133 0.055-0.133 0.137zM144.215 28.428l-0.072 0.348c0.013 0.094 0.062 0.14 0.14 0.14h0.068v-0.488h-0.137zM144.283 13.438v0.208c0.013 0.091 0.059 0.137 0.14 0.137h0.137v-0.137c0-0.068-0.068-0.137-0.205-0.208h-0.072zM148.308 14.479v0.208h0.068v-0.208h-0.068zM148.656 26.208c0 0.234-0.046 0.348-0.137 0.348l0.137 1.387c-0.091 0.208-0.137 0.508-0.137 0.902 0.078 0.231 0.218 0.348 0.417 0.348l0.137-0.28c-0.091-0.199-0.163-0.593-0.205-1.179 0.091-0.186 0.14-0.345 0.14-0.485l-0.068-0.277 0.068-0.417c-0.094-0.208-0.189-0.326-0.28-0.348h-0.072zM149.906 28.151l-0.068 0.345c0.049 0.078 0.068 0.176 0.068 0.277h0.14v-0.622h-0.14zM150.32 2.885v0.277c0.013 0.094 0.059 0.14 0.14 0.14v-0.417h-0.14zM150.392 5.109c0 0.091-0.023 0.137-0.068 0.137 0.049 0.091 0.068 0.163 0.068 0.208h0.068v-0.345h-0.068zM151.71 7.674c0.14 0.313 0.205 0.661 0.205 1.042h0.068l0.14-0.485v-0.694c-0.124 0-0.264 0.046-0.413 0.137zM151.919 4.275v0.762h0.068c0.371-0.081 0.557-0.173 0.557-0.277-0.049-0.335-0.091-0.544-0.14-0.625 0.049-0.078 0.068-0.173 0.068-0.277v-0.208c-0.068 0-0.254 0.208-0.554 0.625zM152.267 18.576v1.455c0.137 0 0.228-0.186 0.277-0.557-0.14-0.531-0.208-0.834-0.208-0.899h-0.068zM152.267 26.696v0.482c0 0.498 0.137 0.82 0.417 0.974h0.137c-0.163-0.381-0.3-0.869-0.417-1.455h-0.137zM152.544 24.892v0.208c0 0.068 0.068 0.137 0.205 0.205v-0.273c0-0.094-0.046-0.14-0.137-0.14h-0.068zM152.821 25.862v0.068l0.068 0.342h0.143v-0.065l-0.068-0.342h-0.143zM153.169 23.847v0.208h0.068v-0.208h-0.068zM153.446 14.548v0.14h0.068v-0.14h-0.068zM153.446 19.963v0.28h0.068v-0.28h-0.068zM153.514 25.374v0.068c0.013 0.094 0.062 0.14 0.14 0.14v-0.208h-0.14zM153.514 28.151v0.208h0.14c-0.046-0.094-0.068-0.166-0.068-0.208h-0.072zM154.211 5.802c-0.186 0.417-0.303 1.156-0.345 2.221 0.046 0.267 0.068 0.638 0.068 1.11 0.013 0.091 0.062 0.137 0.14 0.137l0.068-0.485v-0.554l0.205-2.429h-0.137zM153.862 26.488v0.068c0.010 0.091 0.059 0.14 0.137 0.14v-0.348c-0.091 0.013-0.137 0.055-0.137 0.14zM153.931 15.381c0.049 0.094 0.068 0.163 0.068 0.208h0.208v-0.208c0-0.091-0.049-0.137-0.14-0.137-0.088 0.010-0.137 0.055-0.137 0.137zM153.931 23.365v0.345h0.068v-0.345h-0.068zM154.211 20.171c0 0.241 0.163 1.302 0.485 3.191v0.277c0.127 0.231 0.218 0.345 0.277 0.345 0-0.29-0.208-1.608-0.625-3.956-0.094 0.016-0.137 0.062-0.137 0.143zM154.279 24.892v0.208h0.068v-0.208h-0.068z"></path>
<path d="M168.475 1.915c0.254 0 0.557 0.068 0.902 0.208 0.176-0.091 0.358-0.137 0.557-0.137 0.391 0 0.694 0.046 0.899 0.137 0.218-0.091 0.43-0.137 0.625-0.137 0.186 0.068 0.277 0.137 0.277 0.208v0.137l-0.205 0.694c0 0.231 0.023 0.345 0.068 0.345l-0.068 0.834v1.527c0 0.313 0.023 0.589 0.068 0.83-0.049 1.009-0.117 1.934-0.208 2.777v0.068c0 1.631 0.013 3.383 0.036 5.258s0.036 2.849 0.036 2.934v0.277c0 0.303 0.023 0.602 0.068 0.902-0.14 0.602-0.208 1.153-0.208 1.667l0.14 0.492-0.068 0.413c0 0.14 0.023 0.303 0.068 0.488-0.049 0.645-0.068 1.201-0.068 1.667 0 0.772 0.049 1.605 0.14 2.497-0.091 0.29-0.163 0.938-0.208 1.944 0 0.104 0.208 0.593 0.625 1.459l-0.208 0.345c-0.694-0.046-1.201-0.068-1.527-0.068h-0.762c-0.443 0-0.882 0.026-1.319 0.068-0.205-0.046-0.58-0.068-1.11-0.068h-0.068c-0.068 0-0.14-0.068-0.208-0.208 0.29-0.612 0.498-0.98 0.625-1.107v-0.488c0-0.059-0.049-0.313-0.14-0.762v-1.674c0.091-0.785 0.14-1.224 0.14-1.315v-2.084c-0.091-0.785-0.14-1.227-0.14-1.319v-0.902l0.208-1.667c-0.049-0.554-0.091-0.834-0.14-0.834-0.241-0.355-0.521-0.589-0.834-0.694h-0.14c-0.44 0.14-0.716 0.208-0.834 0.208h-0.83c-0.303 0-0.534-0.068-0.697-0.208-0.189 0.094-0.352 0.14-0.488 0.14-0.059 0-0.29-0.023-0.694-0.068-0.694 0.267-1.039 0.68-1.039 1.25 0 0.824-0.026 1.677-0.068 2.566l0.137 2.364c-0.091 1.087-0.137 2.126-0.137 3.122 0.091 0.303 0.137 0.511 0.137 0.625-0.091 0.622-0.137 1.019-0.137 1.179 0.462 0.961 0.694 1.491 0.694 1.595v0.137c-0.114 0.094-0.186 0.14-0.205 0.14-0.104 0-0.199-0.023-0.28-0.068l-0.277 0.14-0.485-0.068c-0.104 0-0.199 0.026-0.277 0.068-0.475-0.046-0.847-0.068-1.11-0.068h-1.25c-0.244 0-0.635 0.026-1.179 0.068-0.094-0.15-0.14-0.29-0.14-0.417 0.199-0.404 0.381-1.009 0.557-1.804v-3.683c0-0.599-0.026-1.061-0.068-1.387 0.046-0.326 0.068-0.788 0.068-1.39v-2.562c0-0.049 0.023-0.068 0.068-0.068l-0.068-0.14v-2.361c0-0.267 0.023-0.43 0.068-0.485-0.046-0.254-0.068-0.462-0.068-0.625v-6.112c0-0.427 0.023-1.029 0.068-1.804-0.091-0.15-0.137-0.29-0.137-0.417v-0.208c0.010-0.231 0.059-0.345 0.137-0.345-0.046-0.625-0.068-1.088-0.068-1.39v-1.459c0-0.186-0.163-0.44-0.485-0.762v-0.14c0.046-0.137 0.186-0.208 0.417-0.208 0.241 0 0.453 0.023 0.622 0.068 0.404-0.046 0.752-0.068 1.042-0.068h0.417c0.091 0 0.322 0.046 0.694 0.137 0.068 0 0.277-0.046 0.622-0.137l0.348 0.068c0.241-0.046 0.475-0.068 0.694-0.068 0.068 0 0.137 0.091 0.205 0.277-0.368 0.612-0.554 1.052-0.554 1.319s0.023 0.427 0.068 0.485c-0.046 0.475-0.068 0.843-0.068 1.11v2.986c0.091 0.788 0.137 1.224 0.137 1.319v0.834c-0.091 0.671-0.137 1.042-0.137 1.11v0.554c0.482 0.602 1.019 0.902 1.595 0.902h1.319c0.417-0.14 0.645-0.208 0.694-0.208 0.241 0.046 0.381 0.068 0.417 0.068 0.15-0.091 0.264-0.137 0.345-0.137 0.15 0.091 0.29 0.137 0.417 0.137 0.557-0.462 0.834-0.856 0.834-1.179-0.091-0.186-0.14-0.44-0.14-0.762v-1.315c0-0.068 0.049-0.44 0.14-1.11v-3.819c-0.091-1.273-0.254-2.012-0.485-2.221v-0.14c0-0.068 0.068-0.137 0.208-0.208h0.205c0.049 0 0.231 0.046 0.557 0.137 0.173-0.137 0.381-0.205 0.625-0.205zM158.339 9.481v0.485c0.091 0 0.14-0.046 0.14-0.137v-0.348h-0.14zM158.339 11.562c0.186 0.326 0.277 0.554 0.277 0.694v0.208c-0.186 0.521-0.277 0.843-0.277 0.97v1.179h0.14v-0.554c0-0.277 0.137-0.97 0.417-2.084-0.28-0.244-0.417-0.453-0.417-0.625-0.094 0.003-0.14 0.075-0.14 0.212zM158.411 2.956v0.417c0.427 0.218 0.68 0.453 0.762 0.694 0.059 0.231 0.127 0.345 0.205 0.345l0.068-0.137v-0.348l-0.065-0.417c0.049-0.078 0.068-0.195 0.068-0.345 0-0.091-0.046-0.137-0.137-0.137h-0.068c0 0.231-0.163 0.345-0.485 0.345l-0.348-0.417zM159.245 14.408v0.902c0 0.091-0.091 0.44-0.28 1.042 0.049 1.039 0.068 1.69 0.068 1.944-0.277 0.788-0.462 1.387-0.554 1.807 0.218 1.433 0.404 2.149 0.554 2.149l0.14-0.068-0.068-0.694c0-0.114 0.023-0.3 0.068-0.554-0.049-0.186-0.068-0.348-0.068-0.485 0-0.371 0.254-0.742 0.762-1.11l0.068-0.42c0-0.059-0.205-0.199-0.622-0.413v-0.14c0-0.208-0.026-0.72-0.068-1.527 0.326-0.589 0.485-1.26 0.485-2.012v-0.42c0-0.036 0.114-0.15 0.345-0.345v-0.14c0-0.068-0.068-0.137-0.208-0.208-0.417 0.195-0.622 0.43-0.622 0.694zM158.479 26.071v0.137c0.091-0.046 0.163-0.068 0.205-0.068v-0.068h-0.205zM158.548 4.484c0.049 0.625 0.068 1.088 0.068 1.387v0.694h0.14v-1.247c0-0.094 0.046-0.326 0.14-0.694-0.049-0.091-0.068-0.163-0.068-0.208h-0.14l-0.14 0.068zM158.896 7.814v0.208h0.068v-0.208h-0.068zM159.033 27.041l-0.068 0.348c0 0.554 0.094 0.834 0.28 0.834l0.068-0.14c-0.14-0.58-0.208-0.925-0.208-1.042h-0.072zM159.59 21.975l-0.14 0.205c0.036 0.28 0.104 0.42 0.208 0.42h0.068v-0.488c0.003-0.088-0.046-0.137-0.137-0.137zM159.59 23.293l-0.068 0.345v0.345c0.013 0.094 0.059 0.14 0.14 0.14l0.068-0.14v-0.554c0-0.091-0.049-0.137-0.14-0.137zM160.078 2.816l0.205 0.485c-0.186 0.339-0.277 0.544-0.277 0.625 0 0.104 0.023 0.358 0.068 0.765l-0.14 0.694c0.091 0.208 0.14 0.417 0.14 0.625-0.068 0.371-0.14 0.554-0.208 0.554 0 0.244 0.14 0.707 0.417 1.39v0.208c0 0.173-0.114 0.381-0.345 0.625 0 0.059 0.049 0.313 0.14 0.762v0.417c0 0.521-0.026 1.192-0.068 2.012v0.068h0.068c0.326-1.436 0.485-2.523 0.485-3.263 0.091 0 0.137-0.394 0.137-1.182v-0.137c0-0.104-0.091-0.407-0.277-0.902 0-0.3 0.114-0.993 0.345-2.081l0.068-0.625c-0.127-0.925-0.267-1.387-0.417-1.387h-0.068c-0.091 0.023-0.182 0.137-0.274 0.345zM159.867 12.744v0.277h0.068c0.091 0 0.14-0.046 0.14-0.137 0-0.094-0.049-0.14-0.14-0.14h-0.068zM160.768 21.418v0.834c0 0.166-0.023 0.371-0.068 0.625 0.049 0.091 0.068 0.163 0.068 0.205 0.091 0 0.14-0.046 0.14-0.14v-1.524h-0.14zM160.768 23.57l-0.068 0.345v0.068l0.068 0.485c0.091 0 0.14-0.049 0.14-0.137v-0.762h-0.14zM160.768 25.032v0.69c0.013 0.091 0.059 0.14 0.14 0.14v-0.83h-0.14zM160.768 26.556v0.482c0.013 0.094 0.059 0.14 0.14 0.14v-0.622h-0.14zM161.045 16.628l-0.068 0.348c0.078 0 0.15-0.117 0.205-0.348h-0.137zM161.462 14.199v0.208h0.068v-0.208h-0.068zM162.784 16.143l0.14 0.068c0.078 0 0.218-0.046 0.417-0.137 0.313 0.137 0.495 0.208 0.554 0.208 0-0.046 0.026-0.068 0.068-0.068-0.218-0.508-0.518-0.762-0.902-0.762h-0.068c-0.094-0.003-0.163 0.228-0.208 0.69zM164.031 13.574c0.013 0.104 0.267 0.475 0.762 1.11l0.068 0.345h0.068v-1.042c0-0.462-0.208-0.694-0.625-0.694-0.147 0.052-0.238 0.143-0.274 0.28zM164.936 15.313c0 0.104-0.023 0.195-0.068 0.277 0.049 0.081 0.068 0.199 0.068 0.348h0.14v-0.14l-0.068-0.485h-0.072zM167.922 2.748v0.554l0.068 0.348h0.208v-0.208c-0.059-0.462-0.15-0.694-0.277-0.694zM167.922 8.508v1.459c0.010 0.091 0.059 0.137 0.137 0.137 0.013-0.091 0.059-0.137 0.14-0.137-0.036-0.97-0.127-1.459-0.277-1.459zM168.127 4.275v0.137h0.068v-0.137h-0.068zM168.199 4.969l-0.068 0.277c0.326 0.856 0.485 1.595 0.485 2.221 0.173 0.29 0.313 1.192 0.417 2.709 0.127 0 0.218 1.319 0.277 3.956-0.046 1.332-0.068 2.419-0.068 3.263 0.091 0.153 0.14 0.29 0.14 0.417 0 0.078-0.049 0.339-0.14 0.765 0 0.186 0.049 0.739 0.14 1.667 0 0.020-0.023 0.114-0.068 0.273l0.208 1.947c0 0.544-0.049 0.915-0.14 1.11 0.091 0.557 0.14 1.25 0.14 2.084h0.068c0-0.453 0.14-1.68 0.417-3.679-0.046-1.976-0.068-3.087-0.068-3.331l0.068-1.11c-0.068-0.28-0.137-0.417-0.205-0.417 0.091-4.985 0.14-8.179 0.14-9.579h-0.068c-0.059 0-0.153 0.345-0.28 1.042l-0.215 0.133h-0.14c-0.218 0-0.453-1.11-0.694-3.331-0.091-0.010-0.163-0.15-0.205-0.417h-0.14zM169.169 28.705v0.208h0.068v-0.208h-0.068zM169.309 2.608v0.694h0.068l0.14-0.485c-0.049-0.091-0.068-0.163-0.068-0.208h-0.14zM170.351 25.237c0 0.531-0.163 0.882-0.485 1.039h-0.068c0.046 0.625 0.068 1.087 0.068 1.39v0.834l0.068 0.345h0.068v-1.524c0.326-0.808 0.485-1.387 0.485-1.735v-0.212c0-0.088-0.046-0.137-0.137-0.137zM170.351 3.442c0.059 0.208 0.241 0.371 0.554 0.485l0.068-0.834v-0.345l-0.14-0.208c-0.29 0-0.446 0.3-0.482 0.902zM170.904 18.227c-0.091 0.348-0.137 0.58-0.137 0.694l0.137 0.068 0.068-0.345v-0.417h-0.068z"></path>
<path d="M176.283 2.055h0.762c0.104 0 0.199 0.023 0.277 0.068 0.081-0.046 0.176-0.068 0.277-0.068l0.485 0.068 0.345-0.068c0.189 0.091 0.326 0.137 0.417 0.137 0.176-0.091 0.381-0.137 0.625-0.137l1.455 0.345h1.042c0.485-0.137 1.019-0.254 1.595-0.345l0.485 0.068 0.277-0.068c0.186 0.046 0.345 0.068 0.485 0.068l0.277-0.068c0.163 0 0.72 0.485 1.667 1.455 0.254 0.277 0.485 0.58 0.694 0.902 0 0.091-0.023 0.137-0.068 0.137 0.049 0.625 0.068 1.087 0.068 1.39 0 0.163-0.046 1.827-0.137 4.998v1.25c0.091 0.788 0.137 1.224 0.137 1.319v3.884c0 0.326-0.046 0.58-0.137 0.762 0.091 0.534 0.137 1.182 0.137 1.947v3.468c-0.091 0.671-0.137 1.039-0.137 1.11v1.39c0 0.303 0.023 0.762 0.068 1.39-0.205 0.355-0.762 0.961-1.664 1.804-0.231 0.326-0.485 0.485-0.765 0.485l-0.345-0.068-0.137 0.068-0.417-0.068h-0.14c-0.104 0-0.199 0.026-0.277 0.068-0.081-0.046-0.199-0.068-0.348-0.068s-0.264 0.026-0.345 0.068c-0.254-0.046-0.462-0.068-0.622-0.068h-1.11l-0.417 0.068c-0.104-0.046-0.407-0.091-0.902-0.14-0.394 0.094-0.648 0.14-0.762 0.14-0.254 0-0.508-0.023-0.762-0.068-0.534 0.049-1.042 0.068-1.53 0.068h-0.554c-0.498 0-0.892-0.254-1.179-0.762-0.208 0-0.625-0.417-1.25-1.25-0.036 0-0.104-0.117-0.208-0.345l0.068-0.834v-1.595c-0.091-1.494-0.14-2.302-0.14-2.429v-4.516c0-0.355 0.026-0.68 0.068-0.97-0.046-0.231-0.068-0.531-0.068-0.902v-1.387c0.091-0.785 0.14-1.224 0.14-1.319v-2.429c-0.14-0.44-0.208-0.788-0.208-1.042 0-1.771 0.068-3.575 0.208-5.415v-0.277c0-0.29 0.254-0.567 0.762-0.834 0.567-0.925 1.172-1.387 1.807-1.387zM175.105 19.061v0.14h0.068v-0.14h-0.068zM175.45 3.582c0.091 0.381 0.137 0.635 0.137 0.762h0.14c0-0.068-0.023-0.394-0.068-0.97 0.049-0.091 0.068-0.163 0.068-0.208h-0.068c-0.137 0.046-0.208 0.186-0.208 0.417zM175.658 10.869v0.277c0.013 0.091 0.059 0.137 0.14 0.137h0.068l-0.068-0.417h-0.14zM176.143 18.436v0.14l0.068 0.342h0.068v-0.482h-0.137zM176.143 19.546v0.205c0.013 0.094 0.059 0.14 0.14 0.14h0.068v-0.14l-0.068-0.342c-0.094 0.010-0.14 0.059-0.14 0.137zM176.42 8.091l-0.205 0.28 0.137 0.485c0.14 0 0.208-0.231 0.208-0.694l-0.14-0.072zM176.492 22.672c-0.046 0.254-0.068 0.44-0.068 0.554 0.049 0.091 0.068 0.163 0.068 0.208h0.14c0-0.186 0.023-0.28 0.068-0.28-0.094-0.228-0.14-0.394-0.14-0.482h-0.068zM176.492 24.267c0.049 0.391 0.068 0.694 0.068 0.899h0.068c0-0.078 0.046-0.264 0.137-0.557-0.091-0.147-0.137-0.264-0.137-0.342h-0.137zM176.56 25.442v0.625h0.068v-0.625h-0.068zM181.001 6.011h-0.622c-0.671 0.094-1.042 0.14-1.114 0.14h-0.137c-0.049 0-0.231-0.046-0.557-0.14l-0.345 0.068v0.345c0 0.869-0.091 1.517-0.277 1.944l-0.14 14.092h-0.068l0.068 0.14v0.554c0 0.046-0.023 0.068-0.068 0.068l0.068 0.14v1.247c0 0.049-0.023 0.068-0.068 0.068 0.15 0.508 0.43 0.762 0.834 0.762l0.274 0.283-0.068 0.345c0.137 0.443 0.277 1.11 0.417 2.012 0.195 0 0.404 0.345 0.622 1.042h0.068c0.417 0 0.622-0.14 0.622-0.42l-0.068-0.97c0.094-0.15 0.14-0.29 0.14-0.417-0.14-0.173-0.205-0.339-0.205-0.485l0.068-0.345c-0.046-0.231-0.137-0.345-0.277-0.345-0.15 0.091-0.29 0.137-0.417 0.137h-0.205c-0.068 0-0.14-0.068-0.208-0.205v-0.348c0.049-0.14 0.186-0.208 0.417-0.208h0.068c0.127 0 0.267 0.049 0.417 0.14 0.303-0.091 0.508-0.14 0.622-0.14h1.459c0.068 0 0.14 0.068 0.205 0.208l-0.068 0.482c0.091 0 0.16-0.228 0.205-0.694 0.326-0.3 0.485-0.58 0.485-0.834v-0.83c0-0.44 0.023-0.879 0.068-1.315l-0.068-0.348 0.137-3.054c-0.046-0.091-0.068-0.163-0.068-0.208l0.205-0.694-0.059-0.417c0.091-0.303 0.14-0.508 0.14-0.625-0.186-0.205-0.277-0.322-0.277-0.345v-0.348c0-0.046 0.023-0.068 0.068-0.068l-0.068-0.137v-0.28c0-0.15 0.023-0.267 0.068-0.345l-0.068-0.417v-0.628c0-0.046 0.023-0.068 0.068-0.068l-0.068-0.137v-0.697c0-1.423 0.023-3.341 0.068-5.76 0.094-0.326 0.14-0.602 0.14-0.834v-0.765c-0.199 0-0.404-0.068-0.622-0.205-0.189 0.091-0.326 0.137-0.417 0.137-0.697-0.104-1.042-0.29-1.042-0.554-0.212 0.182-0.329 0.277-0.352 0.277zM177.95 27.461v0.413l0.068 0.348h0.068v-0.762h-0.137zM178.155 28.637v0.14h0.068v-0.14h-0.068zM178.712 2.885c0 0.14 0.023 0.208 0.068 0.208l-0.068 0.348v0.97c0 0.231-0.026 0.58-0.068 1.042h0.14c0-0.117 0.068-0.485 0.205-1.11v-1.459c0-0.091-0.049-0.137-0.14-0.137-0.091 0.013-0.137 0.059-0.137 0.137zM179.823 4.9v0.208l0.068 0.345h0.205c-0.091-0.417-0.137-0.648-0.137-0.694-0.091 0.013-0.137 0.059-0.137 0.14zM180.379 2.748c0 0.046-0.026 0.068-0.068 0.068 0.173 0.648 0.358 0.97 0.554 0.97h0.068c-0.072-0.694-0.254-1.039-0.554-1.039zM181.001 3.927v0.068c0.091 0.15 0.14 0.267 0.14 0.345h0.068v-0.133c-0.068-0.186-0.137-0.28-0.208-0.28zM182.252 26.556l-0.068 0.345v0.205h0.14v-0.554h-0.072zM183.153 2.885c0 0.049-0.023 0.068-0.068 0.068 0.049 0.091 0.068 0.163 0.068 0.208 0 0.186 0.023 0.602 0.068 1.25h0.068c0.094 0 0.14-0.046 0.14-0.137-0.042-0.925-0.14-1.39-0.277-1.39zM183.642 25.166c0 0.371-0.189 0.882-0.557 1.53v0.482c0.013 0.094 0.059 0.14 0.14 0.14 0.368-0.987 0.554-1.68 0.554-2.084l-0.137-0.068zM183.919 28.151h0.14v-0.277c0.228-0.749 0.345-1.286 0.345-1.595v-0.208c-0.322 0.443-0.485 1.133-0.485 2.081zM183.987 19.409h0.137c0.049-0.244 0.068-0.384 0.068-0.42-0.133 0.049-0.205 0.186-0.205 0.42zM184.195 4.692c-0.091 0.15-0.137 0.29-0.137 0.417v0.277h0.137l0.14-0.485v-0.072c0-0.091-0.049-0.137-0.14-0.137zM184.68 16.42c-0.186 0.729-0.345 1.537-0.485 2.429 0.117 0 0.303-0.694 0.557-2.081v-0.348h-0.072zM184.541 6.151l-0.068 0.485c0.068 0.186 0.137 0.277 0.205 0.277v-0.625c0.003-0.091-0.039-0.137-0.137-0.137zM184.475 22.877v0.068h0.137v-0.208c-0.094 0.013-0.137 0.062-0.137 0.14zM184.68 10.869l-0.068 0.485v1.042h0.14v-1.11l0.068-0.345-0.14-0.072zM184.68 20.584l-0.068 0.694v0.068c0.013 0.098 0.055 0.143 0.14 0.143v-0.905h-0.072zM185.029 26.628v0.413c-0.277 0.765-0.417 1.254-0.417 1.459 0.049 0.189 0.068 0.345 0.068 0.485l0.14-0.068-0.068-0.14v-0.277c0.277-0.752 0.417-1.332 0.417-1.732v-0.14h-0.14zM185.029 18.849c0 0.13-0.114 0.547-0.345 1.254 0.049 0.091 0.068 0.16 0.068 0.205h0.068l0.277-1.39v-0.068h-0.068zM184.68 21.63v0.554h0.068v-0.554h-0.068zM185.309 17.81c0 0.14-0.049 0.303-0.14 0.485h0.068c0.091 0 0.137-0.046 0.137-0.14v-0.345h-0.065zM185.169 24.82v0.417h0.068l0.068-0.417h-0.137zM185.374 3.373v0.137h0.068v-0.137h-0.068zM185.374 17.182v0.42h0.068v-0.42h-0.068zM186.071 17.81c0 0.277-0.208 1.413-0.625 3.403v0.068c0.218-0.101 0.381-0.866 0.485-2.289 0.186-0.16 0.277-0.345 0.277-0.554v-0.488c0-0.094-0.046-0.14-0.137-0.14zM185.514 28.291v0.137h0.208l0.137-0.485v-0.137c-0.055 0-0.169 0.163-0.345 0.485zM185.862 27.181v0.28h0.14l0.068-0.348v-0.072h-0.068c-0.094 0.013-0.14 0.059-0.14 0.14zM186.139 25.794c-0.094 0.15-0.14 0.287-0.14 0.413h0.068c0.068 0 0.137-0.068 0.205-0.205v-0.068c0.003-0.094-0.039-0.14-0.133-0.14zM186.139 12.536l-0.068 0.348v0.694h0.068l0.068-0.345v-0.697h-0.068zM186.139 22.046l-0.068 0.345v0.14c0.010 0.091 0.059 0.14 0.137 0.14v-0.625h-0.068zM186.348 9.065v0.277h0.14v-0.417c-0.091 0.013-0.14 0.059-0.14 0.14zM186.556 19.891c-0.094 0.394-0.163 0.974-0.208 1.735 0.091 0 0.186-0.557 0.277-1.667v-0.068h-0.068z"></path>
<path d="M189.698 1.983l1.179 0.137 0.277-0.137c0.612 0.046 1.101 0.117 1.459 0.208 0.114 0 0.3-0.023 0.557-0.068 0.576 0.046 0.879 0.068 0.899 0.068 0.86-0.046 1.573-0.068 2.152-0.068 0.15-0.091 0.29-0.137 0.417-0.137h0.277c0.081 0 0.29 0.068 0.625 0.208 0.186-0.068 0.277-0.137 0.277-0.208 0.303 0 1.273 0.091 2.917 0.277 0.186-0.094 0.44-0.14 0.762-0.14 0.267 0 0.869 0.557 1.807 1.667 0.15 0 0.29 0.231 0.417 0.694 0 0.163-0.026 0.371-0.068 0.625 0.091 1.029 0.14 1.768 0.14 2.221-0.049 1.481-0.068 2.338-0.068 2.569 0 0.15 0.023 0.267 0.068 0.345-0.049 0.394-0.068 0.72-0.068 0.974v5.415c0 0.303-0.534 0.879-1.595 1.735-0.28 0.417-0.534 0.622-0.765 0.622-0.44 0.049-0.925 0.068-1.455 0.068h-0.28c-0.635 0-1.078-0.023-1.319-0.068-0.44 0.049-0.925 0.068-1.455 0.068h-1.667c-0.557 0-0.834-0.091-0.834-0.277l0.068-0.625c-0.186-0.694-0.3-1.641-0.345-2.846-0.137-0.186-0.228-0.277-0.277-0.277l-0.072 0.14c0.186 0.521 0.277 0.847 0.277 0.974v2.361l0.28 0.413c-0.14 0.488-0.208 0.788-0.208 0.902v0.834c0 0.635 0.026 1.468 0.068 2.501 0 0.046-0.023 0.068-0.068 0.068l0.068 0.345v4.301c0 0.254 0.14 0.788 0.417 1.595 0 0.068-0.091 0.166-0.277 0.28l-0.625-0.068-0.348 0.072c-0.254-0.046-0.462-0.068-0.622-0.068l-0.345 0.068-0.28-0.068c-0.023 0-0.326 0.026-0.902 0.068-0.58-0.046-0.899-0.068-0.97-0.068-0.254 0.049-0.466 0.068-0.625 0.068l-0.205-0.28c0.368-0.908 0.557-1.488 0.557-1.732v-8.192c0-0.254 0.023-0.58 0.068-0.97-0.046-0.049-0.068-0.234-0.068-0.56 0-0.228 0.023-0.342 0.068-0.342-0.046-0.466-0.068-0.811-0.068-1.042v-2.917c0-2.025-0.026-4.614-0.068-7.772 0.036-0.462 0.078-0.694 0.137-0.694l-0.068-0.485v-1.39c0-0.267-0.14-0.589-0.417-0.97v-0.212c-0.006-0.068 0.059-0.137 0.199-0.208zM191.57 9.273v0.348c0.013 0.091 0.062 0.137 0.14 0.137l0.068-0.137v-0.14l-0.068-0.345c-0.091 0.010-0.14 0.055-0.14 0.137zM191.642 7.538v0.068c0.013 0.094 0.059 0.14 0.14 0.14v-0.348c-0.091 0.013-0.14 0.059-0.14 0.14zM191.642 27.39c0.091 0.228 0.14 0.394 0.14 0.482h0.068v-0.205c-0.049-0.163-0.068-0.254-0.068-0.277h-0.14zM194.904 6.151c-0.404-0.046-0.658-0.068-0.762-0.068l-0.068 0.485v0.205c0.091 0.117 0.14 0.208 0.14 0.277-0.091 0.29-0.14 0.453-0.14 0.485l0.068 0.417c0 0.173-0.068 0.82-0.205 1.944 0 0.104 0.023 0.199 0.068 0.277-0.091 0.173-0.137 0.358-0.137 0.554 0.091 0.788 0.137 1.273 0.137 1.459-0.046 0.326-0.068 0.508-0.068 0.554s0.023 0.068 0.068 0.068l-0.137 1.595c0.114 0 0.508 0.163 1.179 0.485h3.403c0.404 0 0.749-0.231 1.039-0.694v-2.976c0.14-0.602 0.208-0.925 0.208-0.974 0-0.531-0.026-1.019-0.068-1.455 0.046-0.313 0.068-0.567 0.068-0.765-0.094-1.156-0.231-1.735-0.417-1.735-0.199-0.186-0.381-0.277-0.557-0.277h-1.11c-0.062 0-0.316 0.046-0.762 0.14h-0.14c-0.671-0.094-1.019-0.14-1.042-0.14-0.43 0.094-0.684 0.14-0.765 0.14zM197.402 2.885v2.432c0.013 0.091 0.059 0.137 0.14 0.137l0.068-0.137v-0.417c0-0.199 0.023-0.453 0.068-0.765-0.091-0.186-0.137-0.44-0.137-0.762v-0.625c-0.091 0.013-0.14 0.059-0.14 0.137zM198.095 17.879v0.277h0.14v-0.277h-0.14zM200.387 4.484v0.137h0.068c0.228-0.775 0.345-1.377 0.345-1.804l-0.14-0.068h-0.068c-0.133 0-0.205 0.576-0.205 1.735zM200.387 14.339v0.348h0.14v-0.208c0-0.094-0.046-0.14-0.14-0.14zM201.081 12.952c0.013 0.14 0.199 0.417 0.557 0.834v0.137c-0.091 0.15-0.14 0.29-0.14 0.417v1.11c0 0.068 0.068 0.137 0.208 0.208 0.078 0 0.241-0.3 0.482-0.902 0.28-0.114 0.417-0.3 0.417-0.554v-0.628c0-0.127-0.228-0.218-0.694-0.277-0.205-0.326-0.44-0.485-0.694-0.485-0.088 0.010-0.137 0.059-0.137 0.14zM201.569 17.462v0.14c0 0.101 0.114 0.173 0.345 0.205 0.186-0.205 0.277-0.368 0.277-0.485-0.046 0-0.068-0.023-0.068-0.068-0.371 0.046-0.554 0.117-0.554 0.208zM201.709 3.373v0.277c0.091 0 0.137-0.046 0.137-0.14 0-0.091-0.046-0.137-0.137-0.137zM202.403 11.285l-0.068 0.14v0.068c0 0.358 0.091 0.567 0.277 0.625 0-0.091 0.026-0.137 0.068-0.137-0.117-0.466-0.208-0.697-0.277-0.697z"></path>
</svg>
