<!-- Generated by IcoMoon.io -->
<svg version="1.1" xmlns="http://www.w3.org/2000/svg" width="500" height="100  " viewBox="0 0 134 32">
<title>vanonze</title>
<path d="M0.623 1.219c1.236 0.050 1.855 0.124 1.855 0.223 0.619-0.099 1.113-0.148 1.484-0.148 0.321 0.099 0.544 0.148 0.668 0.148h1.039c0.074 0 0.148 0.074 0.223 0.223-0.1 0.371-0.174 0.815-0.224 1.335 0.297 1.237 0.545 2.473 0.742 3.709 0.049 0.446 0.173 0.94 0.371 1.484v0.89c0 0.136 0.148 0.434 0.445 0.89v0.445c0 0.111-0.025 0.384-0.074 0.816 0.346 0 0.52 0.272 0.52 0.815v0.668c0.446 1.397 0.718 2.584 0.816 3.562 0.396 1.459 0.644 2.745 0.742 3.858h0.148c0.346-0.321 0.52-0.618 0.52-0.891v-0.89c0.346-0.705 0.52-1.397 0.52-2.078 0.346-1.447 0.569-2.659 0.668-3.636 0.136 0 0.334-0.84 0.594-2.522 0.284-0.643 0.532-1.806 0.742-3.488l0.52-1.261c0-0.26 0.099-1.001 0.297-2.225v-0.592c0-0.346-0.050-0.619-0.148-0.816 0.074-0.21 0.198-0.358 0.371-0.445h0.223c0.136 0 0.285 0.050 0.445 0.148l0.372-0.148c0.26 0.050 0.408 0.074 0.445 0.074 0.26-0.049 0.408-0.074 0.445-0.074l0.297 0.074c0.198-0.049 0.371-0.074 0.52-0.074 0.148 0.099 0.322 0.148 0.52 0.148 0.766-0.148 1.335-0.223 1.707-0.223 0 0.025 0.049 0.099 0.148 0.223v0.148c0 0.124-0.297 0.619-0.89 1.484-0.495 2.213-0.741 3.475-0.741 3.783 0 0.1-0.124 0.372-0.372 0.816 0 0.050 0.025 0.074 0.074 0.074 0 0.124-0.124 0.545-0.371 1.261-0.297 2.029-0.52 3.339-0.668 3.932-0.545 2.238-0.964 4.143-1.261 5.713 0 0.050 0.024 0.074 0.074 0.074-0.495 1.274-0.841 2.684-1.039 4.229l-1.261 5.935v0.223c0 0.272 0.074 0.741 0.223 1.41-0.124 0.247-0.347 0.371-0.668 0.371-0.124 0-0.421-0.050-0.89-0.148-0.334 0.050-0.557 0.099-0.668 0.148-0.086-0.050-0.21-0.074-0.371-0.074l-0.446 0.076c-0.198-0.050-0.372-0.074-0.52-0.074-0.049 0-0.124 0.024-0.223 0.074-0.086-0.050-0.186-0.074-0.297-0.074-0.396 0.099-0.644 0.148-0.742 0.148-0.594-0.062-0.89-0.31-0.89-0.742v-0.148c0.148-0.643 0.223-0.988 0.223-1.038-0.742-2.521-1.435-5.836-2.078-9.942-0.582-2.028-0.927-3.561-1.039-4.6-0.297-0.495-0.445-1.211-0.445-2.152l-0.594-2.448c0-0.049 0.024-0.074 0.074-0.074-0.445-0.533-0.668-1.423-0.668-2.672l-0.815-3.783c0-0.186-0.297-0.779-0.89-1.781l0.223-0.372zM2.551 2.036c0 0.049-0.025 0.074-0.075 0.074 0 0.049 0.025 0.124 0.075 0.223-0.050 0.334-0.074 0.606-0.074 0.816v0.223l0.075 0.371h0.074c0-0.049 0.024-0.248 0.074-0.594l-0.075-0.372c0.049-0.198 0.074-0.396 0.074-0.594 0.001-0.099-0.049-0.148-0.148-0.148zM2.551 4.113c0 0.050-0.025 0.124-0.075 0.223 0.049 0.1 0.075 0.174 0.075 0.223h0.074v-0.446h-0.074zM4.332 2.036l-0.074 0.371v1.113l0.074 0.371h0.074c0.099 0 0.148-0.049 0.148-0.148v-1.558c0-0.099-0.050-0.148-0.148-0.148h-0.074zM5.445 15.984c0 0.644 0.173 2.226 0.52 4.749v0.148c0 0.050-0.025 0.074-0.074 0.074 0.297 0.989 0.445 1.584 0.445 1.781v0.297h0.149c-0.050-0.494-0.075-0.865-0.075-1.112v-2.449l-0.668-2.003c0-0.037 0.024-0.186 0.074-0.446-0.148-0.507-0.223-0.853-0.223-1.039h-0.148zM5.593 7.823v0.371l0.074 0.742h0.074c0-0.148 0.024-0.322 0.074-0.52-0.049-0.197-0.073-0.396-0.073-0.594h-0.149zM6.038 12.201l-0.074 0.148c0.037 0.297 0.111 0.445 0.223 0.445 0.099 0 0.148-0.049 0.148-0.148v-0.223c0-0.074-0.099-0.148-0.297-0.222zM7.522 24.887c0 0.211-0.173 0.359-0.52 0.446 0.148 1.484 0.322 2.226 0.52 2.226 0-0.693 0.223-1.038 0.668-1.038v-0.074c-0.396-0.224-0.594-0.742-0.594-1.56h-0.074zM7.225 13.536v2.299h0.074c0-0.753 0.049-1.174 0.148-1.261l-0.148-0.668 0.074-0.148c-0.049-0.099-0.074-0.173-0.074-0.223h-0.074zM7.597 19.546c-0.148 0.248-0.248 0.792-0.297 1.633 0.049 0.706 0.124 1.398 0.223 2.078h0.148l0.074-0.372v-0.148c0-0.148-0.075-0.347-0.223-0.594 0.198-0.718 0.297-1.583 0.297-2.598h-0.222zM7.448 23.997l0.074 0.148v0.074c0 0.050-0.025 0.074-0.074 0.074 0.049 0.087 0.074 0.211 0.074 0.371h0.074v-0.741l-0.148 0.075zM7.82 17.468l-0.075 0.372v0.148l0.074 0.371h0.074v-0.89h-0.073zM9.599 22.217v0.148h0.148c0-0.235 0.198-1.001 0.594-2.3-0.271 0.001-0.519 0.718-0.742 2.153zM9.896 26.149v0.148c0.012 0.1 0.062 0.149 0.148 0.149v-0.298h-0.148zM9.971 26.965v0.074c0.086 2.077 0.309 3.115 0.668 3.115l0.074-0.148c-0.396-1.632-0.594-2.473-0.594-2.521v-0.52h-0.148zM10.787 21.327c-0.099 0.346-0.148 0.643-0.148 0.89v0.148h0.074c0.148-0.458 0.223-0.804 0.223-1.038h-0.149zM11.158 17.097c-0.049 0.347-0.074 0.545-0.074 0.594l0.074 0.371h0.074l0.074-0.52v-0.446h-0.148zM11.158 20.065l-0.074 0.52v0.371h0.074c0.099-0.371 0.148-0.569 0.148-0.594-0.049-0.087-0.074-0.186-0.074-0.297h-0.074zM11.232 16.207v0.223c0.111 0 0.186-0.272 0.223-0.816-0.149 0.025-0.223 0.223-0.223 0.594zM11.232 23.478h0.148c0.198-0.716 0.396-1.335 0.594-1.854v-0.595c-0.087 0-0.285 0.693-0.594 2.078-0.099 0-0.148 0.124-0.148 0.371zM11.752 12.942l-0.074 0.371c0.099 0 0.148-0.074 0.148-0.223v-0.148h-0.074zM11.9 18.21v0.964h0.148v-0.964h-0.148zM12.419 13.685l-0.148 0.52v0.89c0.012 0.099 0.062 0.148 0.148 0.148v-0.668c0.148-0.445 0.223-0.693 0.223-0.742v-0.148h-0.223zM12.271 23.181v0.148h0.148c0.099-0.371 0.148-0.594 0.148-0.668-0.197 0.075-0.296 0.249-0.296 0.52zM12.641 12.571l0.074 0.297h0.074l0.223-0.89c-0.247 0.124-0.371 0.322-0.371 0.594zM12.641 22.143v0.148h0.074v-0.148h-0.074zM13.013 18.136c-0.149 0.545-0.223 0.89-0.223 1.038 0.198-0.086 0.297-0.26 0.297-0.52v-0.52h-0.074zM13.013 8.342c0 0.223-0.025 0.371-0.074 0.445 0.049 0.074 0.074 0.223 0.074 0.445h0.074v-0.889h-0.074zM13.013 16.727v0.52h0.074v-0.52h-0.074zM13.681 12.794c-0.148 0.495-0.322 1.385-0.52 2.671h0.148c0-0.309 0.148-1.051 0.445-2.226 0-0.223 0.025-0.371 0.074-0.445h-0.147zM13.755 7.675v0.445c0.099 0 0.148-0.049 0.148-0.148v-0.149c0.001-0.099-0.049-0.148-0.148-0.148zM14.051 15.613c-0.099 0.371-0.148 0.594-0.148 0.668v0.074h0.074l0.148-0.668v-0.074h-0.074zM14.051 2.48v0.223c0.099 0 0.148-0.049 0.148-0.148v-0.075h-0.148zM14.051 3.667v0.148h0.074v-0.148h-0.074zM14.199 14.649v0.223c0.124 0 0.198-0.223 0.223-0.668-0.148 0.049-0.223 0.198-0.223 0.445zM14.497 7.452c0.049 0.086 0.074 0.186 0.074 0.297h0.074l0.074-1.187c-0.099 0-0.173 0.297-0.222 0.89zM14.497 10.123v0.52h0.148v-0.669c-0.099 0.013-0.148 0.062-0.148 0.149zM14.571 13.016v0.297h0.074c0.099 0 0.148-0.049 0.148-0.148v-0.297h-0.074c-0.099 0.013-0.148 0.062-0.148 0.148zM14.942 2.184l-0.074 0.371v0.445c0.012 0.1 0.062 0.149 0.148 0.149 0.049-0.272 0.074-0.47 0.074-0.594l-0.074-0.371h-0.074zM16.129 2.555c0.099 0.396 0.148 0.718 0.148 0.964-0.148 0.668-0.223 1.113-0.223 1.335 0 0.148 0.024 0.322 0.074 0.52-0.050 0.322-0.074 0.644-0.074 0.964v0.371l0.074 0.372c0.148-0.049 0.223-0.198 0.223-0.446v-0.445c0-1.1 0.148-1.991 0.445-2.671l0.149-1.41-0.223-0.148h-0.148c-0.086 0.012-0.234 0.21-0.445 0.594z"></path>
<path d="M22.936 1.293h0.297c0.346 0 0.619 0.050 0.815 0.148 0.223-0.099 0.47-0.148 0.742-0.148 0.198 0 0.643 0.025 1.335 0.074 0.099-0.049 0.173-0.074 0.223-0.074 0.248 0.099 0.42 0.148 0.52 0.148 0.346-0.099 0.618-0.148 0.815-0.148 0.26 0 0.458 0.124 0.594 0.371v0.223c0 0.062-0.050 0.334-0.149 0.815v0.223l1.039 4.675 1.187 5.713c0.248 0.656 0.544 2.066 0.89 4.229 0.495 2.238 0.741 3.574 0.741 4.007 0.099 0.012 0.149 0.062 0.149 0.148v1.632c0.346 0.223 0.52 0.619 0.52 1.187 0.198 0 0.322 0.594 0.371 1.781 0.136 0 0.26 0.693 0.372 2.078 0.668 0.902 1.063 1.694 1.187 2.374-0.074 0-0.148 0.074-0.223 0.223-0.989-0.050-1.731-0.074-2.225-0.074h-0.964c-0.136 0-0.285-0.050-0.446-0.148-0.322 0.099-0.544 0.148-0.668 0.148h-0.816c-0.074 0-0.173-0.099-0.297-0.297v-0.074c0.148-0.47 0.223-0.766 0.223-0.891v-0.89c-0.148-0.434-0.297-1.175-0.445-2.225-0.136-0.063-0.26-0.409-0.371-1.039-0.285 0-0.532-0.124-0.742-0.372-0.495 0.051-0.865 0.075-1.113 0.075h-2.671c-0.939 0-1.484 0.347-1.632 1.038-0.111 0.706-0.26 1.373-0.445 2.004-0.050 0.086-0.074 0.211-0.074 0.371v1.038c0 0.248 0.049 0.545 0.148 0.891-0.1 0.297-0.198 0.445-0.297 0.445h-0.223c-0.161 0-0.285-0.024-0.371-0.074l-0.445 0.074h-0.223c-0.383 0-0.73-0.024-1.038-0.074l-0.52 0.074c-0.148 0-0.322-0.024-0.52-0.074-0.471 0.050-0.915 0.074-1.335 0.074h-0.52c-0.099 0-0.148-0.050-0.148-0.148v-0.074c0-0.223 0.223-0.618 0.668-1.187 0-0.197 0.124-0.716 0.371-1.558 0.495-2.584 1.014-4.96 1.558-7.123 0.148-0.988 0.52-2.745 1.113-5.267 0-0.21 0.099-0.408 0.297-0.594v-0.074c0-0.111-0.025-0.21-0.074-0.297 0.347-1.582 0.52-2.597 0.52-3.042 0.161 0 0.284-0.52 0.371-1.558 0.248-0.754 0.643-2.46 1.187-5.119 0.198-0.681 0.297-1.076 0.297-1.187v-0.965c0-0.26-0.025-0.68-0.074-1.261 0.184-0.148 0.358-0.223 0.518-0.223zM18.040 28.301v0.594c0 0.248-0.025 0.619-0.074 1.112h0.074c0.099 0 0.148-0.049 0.148-0.148v-1.558h-0.148zM21.75 24.665v0.223c0.099 0 0.148-0.049 0.148-0.148v-0.074h-0.148zM22.566 8.045v0.372c0.012 0.099 0.062 0.148 0.148 0.148v-0.52h-0.148zM22.862 12.72v0.297c0 0.644 0.074 0.964 0.223 0.964 0.049-0.582 0.074-1.001 0.074-1.261v-0.074l0.297-0.445v-0.223c-0.173 0.321-0.371 0.568-0.594 0.742zM23.011 6.932c0 0.1-0.025 0.149-0.075 0.149 0 0.21 0.124 0.532 0.372 0.964 0 0.94 0.074 1.41 0.223 1.41v-0.149c0-0.729-0.124-1.521-0.371-2.374h-0.149zM23.234 14.426v0.223c0.049 0 0.124 0.025 0.223 0.074l0.223-0.297v-0.223c-0.162 0.149-0.311 0.223-0.446 0.223zM23.382 6.042v0.297h0.074v-0.297h-0.074zM23.382 15.465v0.074l0.074 0.371h0.074l0.074-0.371-0.148-0.074h-0.074zM23.53 19.767v0.446c0 0.062 0.223 0.284 0.668 0.668h2.522c0.149 0 0.297-0.347 0.446-1.039-0.396-2.089-0.865-4.29-1.41-6.602 0-0.532-0.099-1.026-0.297-1.484h-0.074c-0.161 0-0.359 0.767-0.594 2.3-0.285 0.952-0.482 2.041-0.594 3.265-0.148 0-0.272 0.545-0.371 1.632-0.198 0.198-0.297 0.471-0.297 0.815zM23.753 4.039v0.816h0.074v-0.816h-0.074zM24.049 12.942c-0.198 0.52-0.297 0.841-0.297 0.964 0.198 0 0.322-0.297 0.371-0.89v-0.074h-0.074zM23.753 22.81v0.594c0.099 0 0.148-0.049 0.148-0.148v-0.297c0-0.1-0.049-0.149-0.148-0.149zM23.976 2.258l0.223 0.297c0 0.21-0.049 0.408-0.148 0.594 0.198 0 0.372 0.791 0.52 2.373 0.161 0 0.408 0.619 0.741 1.855l0.148-0.074-0.074-0.372v-0.52c-0.099-0.716-0.148-1.113-0.148-1.187v-0.444l-0.223 0.148h-0.148c-0.148-0.049-0.223-0.198-0.223-0.445v-2.004c-0.050-0.148-0.198-0.223-0.446-0.223h-0.223zM23.976 6.042v0.297c0.012 0.099 0.062 0.148 0.148 0.148h0.074v-0.222l-0.074-0.371c-0.099 0.012-0.148 0.062-0.148 0.148zM24.197 11.31l-0.074 0.668v0.223h0.074c0-0.372 0.075-0.594 0.223-0.668-0.050-0.099-0.074-0.173-0.074-0.223h-0.149zM24.123 12.275v0.371h0.074v-0.371h-0.074zM24.421 7.007l-0.074 0.371v0.297c0 0.31 0.223 0.804 0.668 1.484 0 0.347 0.074 0.693 0.223 1.039h0.074v-0.965c0-0.148-0.223-0.569-0.668-1.261-0.001-0.644-0.075-0.964-0.223-0.964zM26.721 21.624c0 0.074-0.099 0.173-0.297 0.297h-0.148c-0.186-0.148-0.334-0.223-0.445-0.223l-0.149 0.223v0.148c0 0.26 0.099 0.434 0.297 0.52 0.024 0 0.148-0.1 0.371-0.297h0.074c0.198 0.099 0.297 0.248 0.297 0.445h0.074l0.075-0.52v-0.445c0-0.099-0.050-0.148-0.149-0.148zM25.904 23.478c-0.099 0.322-0.148 0.545-0.148 0.668h0.223c0.099 0 0.148-0.049 0.148-0.148v-0.297c0-0.074-0.074-0.149-0.223-0.223zM26.127 6.561c-0.099 0.31-0.148 0.508-0.148 0.594 0.099 0.371 0.148 0.619 0.148 0.742 0 0.087-0.050 0.235-0.148 0.446 0.099 0.346 0.148 0.644 0.148 0.89v0.594h0.074c0.074 0 0.173-0.372 0.297-1.113l-0.074-0.371v-1.261c0-0.273-0.099-0.446-0.297-0.52zM26.647 12.423l-0.148 0.297c0.148 0.359 0.223 0.582 0.223 0.668h0.149v-0.148c-0.001-0.545-0.076-0.816-0.224-0.816zM26.721 23.33v0.297h0.074v-0.297h-0.074zM27.24 15.465v0.148c0 0.111 0.024 0.21 0.074 0.297-0.050 0.087-0.074 0.186-0.074 0.297v0.297c0.012 0.099 0.062 0.148 0.148 0.148l0.074-0.148v-1.187h-0.074c-0.099 0.012-0.148 0.062-0.148 0.149zM27.314 14.5v0.148h0.148v-0.148h-0.148zM27.314 23.923v0.074c0.012 0.1 0.062 0.148 0.148 0.148 0.099 0 0.148-0.049 0.148-0.148v-0.297h-0.074c-0.074 0.001-0.148 0.075-0.222 0.223zM27.462 21.624v0.89c0.012 0.1 0.062 0.148 0.148 0.148v-1.038h-0.148zM27.537 5.225v0.371h0.148v-0.371h-0.148zM27.834 18.284l-0.074 0.148v0.297c0 0.074 0.074 0.148 0.223 0.223h0.074v-0.223c-0.001-0.26-0.075-0.408-0.223-0.445zM28.056 20.585l-0.074 0.148c0.198 0.223 0.297 0.347 0.297 0.371v0.595c0 0.049-0.025 0.074-0.074 0.074l0.074 0.148v1.335c0 0.26-0.025 0.681-0.074 1.261l0.223 0.148h0.074v-1.038c0-0.234 0.024-0.482 0.074-0.741-0.050-0.197-0.074-0.396-0.074-0.594 0.049-0.865 0.074-1.386 0.074-1.559-0.247-0.098-0.421-0.147-0.52-0.147zM28.205 15.539c0 0.161-0.025 0.285-0.075 0.371 0.099 0.347 0.149 0.644 0.149 0.89v0.297c0 0.050-0.025 0.074-0.074 0.074 0.049 0.1 0.074 0.174 0.074 0.223l0.52-0.075c0.099 0.124 0.148 0.223 0.148 0.297-0.099 0.161-0.148 0.309-0.148 0.445 0.148 0.173 0.223 0.371 0.223 0.594h0.074l0.074-0.445-0.074-0.371c0.049-0.334 0.074-0.606 0.074-0.816-0.049-0.173-0.074-0.272-0.074-0.297-0.272 0.248-0.421 0.371-0.445 0.371-0.161 0-0.26-0.321-0.297-0.964v-0.593h-0.149zM28.279 13.239c0 0.050-0.025 0.074-0.074 0.074 0 0.050 0.024 0.074 0.074 0.074l-0.074 0.372v0.074l0.074 0.371h-0.074l0.148 0.371-0.074 0.446c0.012 0.099 0.062 0.148 0.148 0.148l0.148-0.223c-0.099-0.161-0.148-0.31-0.148-0.446v-0.074c0-0.173 0.024-0.396 0.074-0.668-0.061-0.345-0.135-0.519-0.222-0.519zM28.501 19.767v0.148c0.012 0.1 0.062 0.149 0.148 0.149l0.074-0.149v-0.148h-0.222zM28.872 14.946v0.148c0.099 0.347 0.148 0.619 0.148 0.815h0.148v-0.074c0-0.124-0.074-0.42-0.223-0.89h-0.073zM29.466 19.916l-0.075 0.298 0.149 0.074h0.074c0.099 0 0.148-0.050 0.148-0.148-0.050-0.099-0.074-0.173-0.074-0.224h-0.222zM30.059 17.988v0.223h0.148v-0.371c-0.099 0.012-0.148 0.062-0.148 0.148zM30.356 30.229l0.371 0.074c0.099-0.16 0.149-0.283 0.149-0.371h-0.149c-0.248 0.125-0.371 0.223-0.371 0.297zM31.543 25.259v0.148h0.074v-0.148h-0.074zM31.617 29.785v0.148h0.074v-0.148h-0.074zM32.063 27.708v0.52c0.012 0.1 0.062 0.148 0.148 0.148v-0.668h-0.148z"></path>
<path d="M35.957 1.219l0.89 0.223c0.445-0.099 0.766-0.148 0.964-0.148 0.148 0 0.322 0.050 0.52 0.148 0.186-0.099 0.383-0.148 0.594-0.148h0.223c0.915 0 1.459 0.693 1.633 2.078 0.247 0.148 0.791 1.311 1.632 3.487l1.855 4.452c0 0.111 0.124 0.408 0.372 0.89 0 0.148 0.297 0.865 0.89 2.152 0.099 0.717 0.272 1.138 0.52 1.261 0 0.124 0.297 0.816 0.89 2.078 0.049 0.741 0.173 1.112 0.372 1.112h0.148c0.148-0.049 0.223-0.197 0.223-0.445v-2.671c0-0.532 0.024-0.952 0.074-1.261-0.050-0.358-0.074-0.803-0.074-1.335v-3.488c-0.099-0.717-0.148-1.113-0.148-1.187v-1.929c0-0.346 0.049-0.619 0.148-0.815-0.099-0.372-0.148-0.569-0.148-0.594 0.099-0.371 0.148-0.716 0.148-1.039v-0.668c0-0.161-0.223-0.754-0.668-1.781v-0.075c0.161-0.148 0.285-0.223 0.372-0.223 0.198 0 0.297 0.025 0.297 0.074l0.89-0.074h3.783c0.075 0 0.149 0.074 0.223 0.223v0.223c-0.198 0.186-0.372 0.681-0.52 1.484l0.074 0.89v1.41c0 0.063-0.049 0.334-0.148 0.816v3.19c0 0.347 0.049 0.619 0.148 0.816-0.049 0.272-0.074 0.471-0.074 0.594 0 0.111 0.025 0.21 0.074 0.297l-0.074 0.52c0 0.161 0.025 0.582 0.074 1.261l-0.15 0.594 0.148 0.668c-0.099 0.198-0.148 0.471-0.148 0.816v2.597c0 0.532 0.025 0.977 0.074 1.335-0.049 0.311-0.074 0.73-0.074 1.262v0.148c0 0.321 0.049 1.311 0.148 2.968-0.099 0.445-0.148 0.767-0.148 0.964v0.52l-0.223 0.298v0.594l0.148 0.223v0.074c0 0.136-0.049 0.285-0.148 0.446 0.049 1.1 0.099 1.769 0.148 2.003-0.049 0.087-0.074 0.557-0.074 1.409 0.074 0 0.272 0.223 0.594 0.669v0.148l-0.149 0.223-0.89-0.074h-0.445c-0.458 0-1.101 0.024-1.929 0.074-0.099-0.050-0.173-0.074-0.223-0.074-0.198 0.050-0.372 0.074-0.52 0.074-0.235 0-0.458-0.347-0.668-1.039-0.223-0.309-0.742-1.52-1.558-3.636-0.161-0.198-1.422-3.19-3.784-8.978-0.359-0.693-0.656-1.41-0.89-2.152-0.421-1.15-0.693-1.744-0.816-1.781v-0.668c0-0.186-0.124-0.383-0.371-0.594v-0.223c0-0.037 0.124-0.161 0.371-0.371v-0.223l-0.371 0.074c-0.074 0-0.297-0.173-0.668-0.52-0.149 0.532-0.223 0.853-0.223 0.964v0.074c0.099 0.841 0.149 1.311 0.149 1.41v0.89c0 0.161-0.050 0.508-0.149 1.039 0.161 0.445 0.26 0.668 0.297 0.668-0.050 0.668-0.074 1.163-0.074 1.484v0.815c0 0.89-0.025 1.757-0.074 2.597 0.049 0.434 0.074 0.804 0.074 1.113-0.050 0.901-0.074 1.472-0.074 1.706l0.074 0.668c-0.149 0.682-0.223 1.101-0.223 1.262 0.149 0.247 0.223 0.495 0.223 0.741v0.149c0 0.692-0.025 1.632-0.074 2.818 0.012 0.347 0.235 0.792 0.668 1.336v0.148c0 0.024-0.050 0.099-0.148 0.223-0.582-0.050-1.001-0.074-1.261-0.074h-2.819c-0.26 0-0.681 0.024-1.261 0.074-0.099-0.161-0.148-0.31-0.148-0.445l0.815-1.262c-0.049-0.741-0.074-1.286-0.074-1.632v-0.668c0-0.235 0.025-0.482 0.074-0.742-0.148-0.803-0.223-3.253-0.223-7.346v-3.413c0-0.396 0.025-0.915 0.074-1.558-0.049-0.086-0.074-0.21-0.074-0.371l0.074-0.668c0-0.049-0.025-0.248-0.074-0.594 0.049-0.334 0.074-0.606 0.074-0.816 0-0.248-0.049-0.371-0.148-0.371 0.049-0.816 0.074-1.435 0.074-1.855v-3.042c0-0.049 0.049-0.248 0.148-0.594-0.099-0.161-0.148-0.309-0.148-0.445 0-0.086 0.099-0.309 0.297-0.668-0.099-0.285-0.198-1.001-0.297-2.152-0.037 0-0.161-0.198-0.371-0.594v-0.224c-0.001-0.161 0.42-0.26 1.26-0.297zM36.032 3.372l-0.297 1.112v0.223l0.074 0.445c-0.099 0.198-0.148 0.371-0.148 0.52 0.099 0.161 0.148 0.285 0.148 0.371h0.148c0.049-0.446 0.099-1.311 0.148-2.597v-0.073h-0.073zM36.032 24.887c0.099 0.311 0.148 0.508 0.148 0.595h0.074c0.198-1.373 0.297-2.436 0.297-3.19v-0.445c-0.235-0.001-0.408 1.012-0.519 3.040zM36.849 27.856c-0.198 0.508-0.372 1.125-0.52 1.854v0.52c0.012 0.1 0.062 0.149 0.148 0.149 0-0.396 0.148-1.039 0.446-1.93v-0.594h-0.074zM36.774 1.813l-0.149 0.223c0.21 0.062 0.359 0.186 0.446 0.371v1.41h0.074l0.074-0.371v-0.297c0-0.26-0.025-0.681-0.074-1.261l-0.371-0.075zM36.849 26.595v0.297h0.074v-0.297h-0.074zM37.219 15.020v0.668c0.099 0 0.148-0.049 0.148-0.148v-0.371c0-0.099-0.050-0.149-0.148-0.149zM38.258 1.888c-0.148 0.297-0.297 2.003-0.446 5.119-0.099 0.346-0.248 1.137-0.445 2.373l0.074 0.52c-0.050 1.373-0.074 2.485-0.074 3.339l0.148 0.074 0.148-0.52v-0.742c0.037-0.297 0.111-0.445 0.223-0.445l-0.074-0.742c0.248-2.869 0.372-4.625 0.372-5.268 0.099 0 0.198-0.668 0.297-2.003v-1.262c0-0.26-0.074-0.408-0.223-0.445zM37.516 29.785h0.148v-0.148c-0.099 0.013-0.148 0.062-0.148 0.148zM37.887 17.32v0.297h0.148v-0.149c0-0.099-0.049-0.148-0.148-0.148zM38.184 18.655c0.037 0.545 0.111 0.815 0.223 0.815 0.247-0.901 0.371-1.372 0.371-1.409v-0.223l-0.594 0.816zM38.332 20.51l-0.074 0.52v1.187c0.012 0.099 0.062 0.148 0.148 0.148h0.074v-0.074c0-0.087-0.025-0.681-0.074-1.781h-0.074zM38.407 11.829c-0.050 0.26-0.074 0.409-0.074 0.446l0.074 0.371c-0.050 0-0.074 0.025-0.074 0.074h0.148v-0.89h-0.074zM38.851 6.265v0.074c0 1.435-0.074 2.3-0.223 2.597 0.049 0.272 0.074 0.47 0.074 0.594-0.099 0.668-0.148 1.088-0.148 1.261v0.149h0.074c0.124 0 0.223-0.297 0.297-0.89-0.049-0.26-0.074-0.507-0.074-0.742l0.297-0.89c0-0.631 0.124-2.065 0.372-4.304 0-0.037 0.124-0.507 0.371-1.41-0.087-0.284-0.235-0.507-0.445-0.668-0.248 0-0.372 1.162-0.372 3.487-0.050 0.001-0.124 0.249-0.223 0.744zM40.261 4.039c0 0.099-0.025 0.148-0.074 0.148l0.074 0.372v0.148c-0.21 1.657-0.334 2.522-0.371 2.597 0 0.049 0.024 0.074 0.074 0.074 0 0.619-0.148 1.335-0.445 2.152-0.050 0.272-0.074 0.471-0.074 0.594 0.049 0.099 0.074 0.173 0.074 0.223h0.074c0.445-1.286 0.668-2.177 0.668-2.671 0.099-0.495 0.198-0.791 0.297-0.89-0.099-0.223-0.148-0.47-0.148-0.742l0.223-0.742v-0.297c-0.001-0.643-0.125-0.964-0.372-0.964zM40.261 10.197c0 0.148 0.099 0.495 0.297 1.039h0.074l0.075-0.371-0.075-0.891h-0.148c-0.075 0-0.149 0.075-0.223 0.223zM43.823 13.016v0.297l0.074 0.372h0.074c0-0.148 0.025-0.223 0.074-0.223-0.062-0.297-0.136-0.446-0.222-0.446zM43.971 14.649v0.297h0.074v-0.297h-0.074zM44.342 17.988v0.148c0.012 0.099 0.062 0.148 0.148 0.148l0.074-0.148v-0.148h-0.222zM44.342 19.546v0.223h0.148c-0.049-0.098-0.074-0.172-0.074-0.223h-0.074zM47.013 26.521v0.223h0.223v-0.074c0-0.1-0.050-0.148-0.149-0.148h-0.074zM50.425 21.624v3.189h0.074c0-0.346 0.025-0.52 0.074-0.52l-0.074-0.148v-2.225c0-0.050 0.025-0.074 0.074-0.074-0.049-0.1-0.074-0.174-0.074-0.223h-0.074zM50.425 25.036v1.634h0.074c0-0.1 0.025-0.148 0.074-0.148l-0.074-0.149v-0.668c0-0.050 0.025-0.074 0.074-0.074-0.049-0.050-0.074-0.247-0.074-0.595h-0.074z"></path>
<path d="M66.916 1.368h0.816c0.111 0 0.21 0.025 0.297 0.074 0.086-0.049 0.186-0.074 0.297-0.074l0.52 0.074 0.371-0.074c0.198 0.099 0.346 0.148 0.445 0.148 0.186-0.099 0.409-0.148 0.668-0.148l1.558 0.371h1.113c0.52-0.148 1.088-0.272 1.707-0.371l0.52 0.074 0.297-0.074c0.198 0.050 0.371 0.074 0.52 0.074l0.297-0.074c0.173 0 0.766 0.52 1.781 1.558 0.272 0.297 0.52 0.619 0.742 0.964 0 0.099-0.025 0.148-0.074 0.148 0.049 0.668 0.074 1.163 0.074 1.484 0 0.174-0.049 1.955-0.148 5.342v1.335c0.099 0.84 0.148 1.311 0.148 1.41v4.155c0 0.347-0.049 0.619-0.148 0.815 0.099 0.569 0.148 1.261 0.148 2.078v3.709c-0.099 0.718-0.148 1.113-0.148 1.187v1.484c0 0.321 0.025 0.815 0.074 1.483-0.223 0.384-0.815 1.026-1.781 1.93-0.248 0.347-0.52 0.52-0.816 0.52l-0.371-0.074-0.148 0.074-0.445-0.074h-0.149c-0.111 0-0.21 0.024-0.297 0.074-0.086-0.050-0.21-0.074-0.371-0.074s-0.285 0.024-0.371 0.074c-0.272-0.050-0.495-0.074-0.668-0.074h-1.187l-0.445 0.074c-0.111-0.050-0.434-0.099-0.964-0.148-0.421 0.099-0.693 0.148-0.816 0.148-0.272 0-0.544-0.024-0.815-0.074-0.569 0.050-1.113 0.074-1.632 0.074h-0.594c-0.532 0-0.952-0.272-1.261-0.816-0.223 0-0.668-0.445-1.335-1.335-0.037 0-0.111-0.123-0.223-0.371l0.074-0.89v-1.706c-0.099-1.596-0.148-2.46-0.148-2.597v-4.823c0-0.383 0.024-0.73 0.074-1.038-0.050-0.248-0.074-0.569-0.074-0.964v-1.484c0.099-0.84 0.148-1.311 0.148-1.41v-2.597c-0.148-0.47-0.223-0.841-0.223-1.113 0-1.893 0.074-3.821 0.223-5.788v-0.295c0-0.309 0.272-0.606 0.816-0.89 0.603-0.989 1.245-1.484 1.926-1.484zM65.655 19.546v0.148h0.074v-0.148h-0.074zM66.026 3c0.099 0.409 0.149 0.681 0.149 0.816h0.148c0-0.074-0.025-0.42-0.074-1.039 0.049-0.099 0.074-0.173 0.074-0.223h-0.074c-0.148 0.050-0.223 0.199-0.223 0.446zM66.248 10.791v0.297c0.012 0.099 0.062 0.148 0.148 0.148h0.074l-0.074-0.446h-0.148zM66.767 18.878v0.148l0.074 0.371h0.074v-0.52h-0.148zM66.767 20.065v0.223c0.012 0.099 0.062 0.148 0.148 0.148h0.074v-0.148l-0.074-0.372c-0.098 0.013-0.148 0.062-0.148 0.149zM67.064 7.823l-0.223 0.297 0.148 0.52c0.148 0 0.223-0.248 0.223-0.742l-0.148-0.074zM67.139 23.404c-0.049 0.272-0.074 0.471-0.074 0.594 0.049 0.1 0.074 0.174 0.074 0.223h0.148c0-0.197 0.025-0.297 0.074-0.297-0.099-0.247-0.148-0.42-0.148-0.52h-0.074zM67.139 25.11c0.049 0.422 0.074 0.742 0.074 0.965h0.074c0-0.087 0.049-0.284 0.149-0.594-0.1-0.161-0.149-0.284-0.149-0.372h-0.148zM67.213 26.372v0.669h0.074v-0.669h-0.074zM71.962 5.597h-0.668c-0.718 0.1-1.113 0.149-1.187 0.149h-0.149c-0.049 0-0.248-0.049-0.594-0.149l-0.371 0.075v0.371c0 0.927-0.099 1.62-0.297 2.078l-0.149 15.062h-0.074l0.074 0.148v0.594c0 0.050-0.025 0.074-0.074 0.074l0.074 0.148v1.336c0 0.050-0.025 0.074-0.074 0.074 0.161 0.544 0.458 0.815 0.89 0.815l0.297 0.298-0.074 0.371c0.148 0.47 0.297 1.187 0.446 2.151 0.21 0 0.433 0.371 0.668 1.112h0.074c0.445 0 0.668-0.148 0.668-0.445l-0.074-1.038c0.099-0.16 0.148-0.309 0.148-0.445-0.148-0.186-0.223-0.359-0.223-0.52l0.074-0.371c-0.050-0.248-0.149-0.371-0.297-0.371-0.161 0.099-0.309 0.148-0.445 0.148h-0.223c-0.074 0-0.148-0.074-0.223-0.223v-0.371c0.049-0.148 0.198-0.223 0.445-0.223h0.074c0.136 0 0.285 0.049 0.445 0.148 0.322-0.1 0.544-0.148 0.668-0.148h1.558c0.074 0 0.148 0.074 0.223 0.223l-0.074 0.52c0.099 0 0.173-0.248 0.223-0.741 0.347-0.322 0.52-0.619 0.52-0.891v-0.891c0-0.47 0.024-0.938 0.074-1.409l-0.072-0.37 0.148-3.266c-0.050-0.098-0.074-0.172-0.074-0.223l0.223-0.741-0.074-0.445c0.099-0.322 0.148-0.544 0.148-0.668-0.198-0.223-0.297-0.347-0.297-0.372v-0.371c0-0.049 0.024-0.074 0.074-0.074l-0.074-0.148v-0.297c0-0.161 0.024-0.285 0.074-0.372l-0.074-0.445v-0.668c0-0.049 0.024-0.075 0.074-0.075l-0.074-0.148v-0.742c0-1.521 0.024-3.574 0.074-6.159 0.099-0.346 0.148-0.643 0.148-0.89v-0.815c-0.21 0-0.433-0.074-0.668-0.223-0.198 0.099-0.347 0.148-0.446 0.148-0.742-0.111-1.113-0.309-1.113-0.594-0.222 0.199-0.345 0.298-0.37 0.298zM68.697 28.523v0.445l0.074 0.371h0.074v-0.815h-0.148zM68.92 29.785v0.148h0.074v-0.148h-0.074zM69.513 2.258c0 0.148 0.025 0.223 0.074 0.223l-0.074 0.371v1.039c0 0.248-0.025 0.619-0.074 1.113h0.148c0-0.124 0.074-0.52 0.223-1.187v-1.559c0-0.099-0.049-0.148-0.148-0.148-0.1 0.012-0.149 0.061-0.149 0.148zM70.7 4.41v0.223l0.074 0.371h0.223c-0.099-0.445-0.148-0.693-0.148-0.742-0.1 0.013-0.149 0.063-0.149 0.149zM71.294 2.11c0 0.049-0.025 0.074-0.075 0.074 0.186 0.693 0.384 1.039 0.594 1.039h0.074c-0.074-0.743-0.272-1.113-0.593-1.113zM71.962 3.372v0.074c0.099 0.161 0.148 0.285 0.148 0.371h0.074v-0.149c-0.074-0.197-0.148-0.296-0.222-0.296zM73.297 27.559l-0.074 0.371v0.223h0.148v-0.594h-0.074zM74.262 2.258c0 0.049-0.025 0.074-0.074 0.074 0.049 0.099 0.074 0.173 0.074 0.223 0 0.198 0.024 0.644 0.074 1.335h0.074c0.099 0 0.148-0.049 0.148-0.148-0.049-0.989-0.148-1.484-0.296-1.484zM74.781 26.075c0 0.396-0.198 0.939-0.594 1.633v0.52c0.012 0.1 0.062 0.148 0.148 0.148 0.396-1.051 0.594-1.793 0.594-2.226l-0.148-0.074zM75.077 29.265h0.149v-0.297c0.247-0.804 0.371-1.372 0.371-1.706v-0.223c-0.347 0.47-0.52 1.212-0.52 2.225zM75.151 19.916h0.149c0.049-0.26 0.074-0.408 0.074-0.445-0.148 0.050-0.223 0.199-0.223 0.445zM75.374 4.187c-0.099 0.161-0.148 0.31-0.148 0.446v0.297h0.148l0.148-0.52v-0.075c0.001-0.098-0.049-0.148-0.148-0.148zM75.894 16.727c-0.198 0.779-0.371 1.645-0.52 2.596 0.124 0 0.321-0.741 0.594-2.225v-0.371h-0.074zM75.745 5.746l-0.074 0.52c0.074 0.198 0.148 0.297 0.223 0.297v-0.669c0-0.099-0.050-0.148-0.149-0.148zM75.671 23.627v0.074h0.148v-0.223c-0.099 0.013-0.148 0.063-0.148 0.149zM75.894 10.791l-0.074 0.52v1.113h0.148v-1.187l0.074-0.371-0.148-0.075zM75.894 21.177l-0.074 0.742v0.074c0.012 0.099 0.062 0.148 0.148 0.148v-0.965h-0.074zM76.265 27.633v0.445c-0.297 0.815-0.445 1.335-0.445 1.558 0.049 0.199 0.074 0.371 0.074 0.52l0.148-0.074-0.074-0.148v-0.297c0.297-0.803 0.445-1.421 0.445-1.854v-0.148h-0.148zM76.265 19.323c0 0.137-0.124 0.582-0.371 1.336 0.049 0.099 0.074 0.173 0.074 0.223h0.074l0.297-1.484v-0.074h-0.074zM75.894 22.292v0.593h0.074v-0.594h-0.074zM76.561 18.21c0 0.148-0.050 0.322-0.149 0.52h0.075c0.099 0 0.148-0.049 0.148-0.148v-0.371h-0.074zM76.412 25.704v0.445h0.075l0.074-0.445h-0.149zM76.635 2.777v0.148h0.074v-0.148h-0.074zM76.635 17.543v0.445h0.074v-0.445h-0.074zM77.378 18.21c0 0.297-0.223 1.509-0.668 3.637v0.074c0.235-0.111 0.408-0.928 0.52-2.449 0.198-0.172 0.297-0.371 0.297-0.594v-0.52c-0.001-0.099-0.050-0.148-0.149-0.148zM76.784 29.414v0.148h0.223l0.148-0.52v-0.148c-0.062 0-0.186 0.174-0.371 0.52zM77.155 28.227v0.297h0.148l0.074-0.371v-0.074h-0.074c-0.099 0.011-0.148 0.062-0.148 0.148zM77.452 26.744c-0.099 0.16-0.148 0.309-0.148 0.445h0.074c0.074 0 0.148-0.074 0.223-0.223v-0.074c-0.001-0.099-0.050-0.148-0.149-0.148zM77.452 12.571l-0.074 0.371v0.742h0.074l0.074-0.372v-0.742h-0.074zM77.452 22.736l-0.074 0.371v0.148c0.012 0.1 0.062 0.148 0.148 0.148v-0.668h-0.074zM77.675 8.862v0.297h0.149v-0.446c-0.1 0.012-0.149 0.062-0.149 0.149zM77.897 20.436c-0.1 0.421-0.174 1.039-0.223 1.855 0.099 0 0.198-0.594 0.297-1.781v-0.074h-0.074z"></path>
<path d="M82.367 1.219l0.89 0.223c0.445-0.099 0.766-0.148 0.964-0.148 0.148 0 0.322 0.050 0.52 0.148 0.186-0.099 0.383-0.148 0.594-0.148h0.223c0.915 0 1.459 0.693 1.633 2.078 0.247 0.148 0.791 1.311 1.632 3.487l1.855 4.452c0 0.111 0.124 0.408 0.372 0.89 0 0.148 0.297 0.865 0.89 2.152 0.099 0.717 0.272 1.138 0.52 1.261 0 0.124 0.297 0.816 0.89 2.078 0.049 0.741 0.173 1.112 0.372 1.112h0.148c0.148-0.049 0.223-0.197 0.223-0.445v-2.671c0-0.532 0.024-0.952 0.074-1.261-0.050-0.358-0.074-0.803-0.074-1.335v-3.488c-0.099-0.717-0.148-1.113-0.148-1.187v-1.929c0-0.346 0.049-0.619 0.148-0.815-0.099-0.372-0.148-0.569-0.148-0.594 0.099-0.371 0.148-0.716 0.148-1.039v-0.668c0-0.161-0.223-0.754-0.668-1.781v-0.075c0.161-0.148 0.285-0.223 0.372-0.223 0.198 0 0.297 0.025 0.297 0.074l0.89-0.074h3.783c0.075 0 0.149 0.074 0.223 0.223v0.223c-0.198 0.186-0.372 0.681-0.52 1.484l0.074 0.89v1.41c0 0.063-0.049 0.334-0.148 0.816v3.19c0 0.347 0.049 0.619 0.148 0.816-0.049 0.272-0.074 0.471-0.074 0.594 0 0.111 0.025 0.21 0.074 0.297l-0.074 0.52c0 0.161 0.025 0.582 0.074 1.261l-0.148 0.594 0.148 0.668c-0.099 0.198-0.148 0.471-0.148 0.816v2.597c0 0.532 0.025 0.977 0.074 1.335-0.049 0.311-0.074 0.73-0.074 1.262v0.148c0 0.321 0.049 1.311 0.148 2.968-0.099 0.445-0.148 0.767-0.148 0.964v0.52l-0.223 0.298v0.594l0.148 0.223v0.074c0 0.136-0.049 0.285-0.148 0.446 0.049 1.1 0.099 1.769 0.148 2.003-0.049 0.087-0.074 0.557-0.074 1.409 0.074 0 0.272 0.223 0.594 0.669v0.148l-0.149 0.223-0.89-0.074h-0.446c-0.458 0-1.101 0.024-1.929 0.074-0.099-0.050-0.173-0.074-0.223-0.074-0.198 0.050-0.372 0.074-0.52 0.074-0.235 0-0.458-0.347-0.668-1.039-0.223-0.309-0.743-1.52-1.558-3.636-0.161-0.198-1.422-3.19-3.784-8.978-0.359-0.693-0.656-1.41-0.89-2.152-0.421-1.15-0.693-1.744-0.816-1.781v-0.668c0-0.186-0.124-0.383-0.371-0.594v-0.223c0-0.037 0.124-0.161 0.371-0.371v-0.223l-0.371 0.074c-0.074 0-0.297-0.173-0.668-0.52-0.149 0.532-0.223 0.853-0.223 0.964v0.074c0.099 0.841 0.149 1.311 0.149 1.41v0.89c0 0.161-0.050 0.508-0.149 1.039 0.161 0.445 0.26 0.668 0.297 0.668-0.050 0.668-0.074 1.163-0.074 1.484v0.815c0 0.89-0.025 1.757-0.074 2.597 0.049 0.434 0.074 0.804 0.074 1.113-0.050 0.901-0.074 1.472-0.074 1.706l0.074 0.668c-0.149 0.682-0.223 1.101-0.223 1.262 0.149 0.247 0.223 0.495 0.223 0.741v0.149c0 0.692-0.025 1.632-0.074 2.818 0.012 0.347 0.235 0.792 0.668 1.336v0.148c0 0.024-0.050 0.099-0.148 0.223-0.582-0.050-1.001-0.074-1.261-0.074h-2.821c-0.26 0-0.681 0.024-1.261 0.074-0.099-0.161-0.148-0.31-0.148-0.445l0.815-1.262c-0.049-0.741-0.074-1.286-0.074-1.632v-0.668c0-0.235 0.025-0.482 0.074-0.742-0.148-0.803-0.223-3.253-0.223-7.346v-3.413c0-0.396 0.025-0.915 0.074-1.558-0.049-0.086-0.074-0.21-0.074-0.371l0.074-0.668c0-0.049-0.025-0.248-0.074-0.594 0.049-0.334 0.074-0.606 0.074-0.816 0-0.248-0.049-0.371-0.148-0.371 0.049-0.816 0.074-1.435 0.074-1.855v-3.042c0-0.049 0.049-0.248 0.148-0.594-0.099-0.161-0.148-0.309-0.148-0.445 0-0.086 0.099-0.309 0.297-0.668-0.099-0.285-0.198-1.001-0.297-2.152-0.037 0-0.161-0.198-0.371-0.594v-0.224c0-0.161 0.42-0.26 1.261-0.297zM82.441 3.372l-0.297 1.113v0.222l0.074 0.445c-0.099 0.198-0.148 0.371-0.148 0.52 0.099 0.161 0.148 0.285 0.148 0.371h0.148c0.049-0.446 0.099-1.311 0.148-2.597v-0.073h-0.073zM82.441 24.887c0.099 0.311 0.148 0.508 0.148 0.595h0.074c0.198-1.373 0.297-2.436 0.297-3.19v-0.445c-0.234-0.001-0.408 1.012-0.519 3.040zM83.258 27.856c-0.198 0.508-0.372 1.125-0.52 1.854v0.52c0.012 0.1 0.062 0.149 0.148 0.149 0-0.396 0.148-1.039 0.446-1.93v-0.594h-0.074zM83.183 1.813l-0.148 0.223c0.21 0.062 0.359 0.186 0.446 0.371v1.41h0.074l0.074-0.371v-0.297c0-0.26-0.025-0.681-0.074-1.261l-0.372-0.075zM83.258 26.595v0.297h0.074v-0.297h-0.074zM83.629 15.020v0.668c0.099 0 0.148-0.049 0.148-0.148v-0.371c0-0.099-0.049-0.149-0.148-0.149zM84.668 1.888c-0.148 0.297-0.297 2.003-0.446 5.119-0.099 0.346-0.248 1.137-0.445 2.373l0.074 0.52c-0.050 1.373-0.074 2.485-0.074 3.339l0.148 0.074 0.148-0.52v-0.742c0.037-0.297 0.111-0.445 0.223-0.445l-0.074-0.742c0.248-2.869 0.372-4.625 0.372-5.268 0.099 0 0.198-0.668 0.297-2.003v-1.262c-0.001-0.26-0.075-0.408-0.223-0.445zM83.925 29.785h0.148v-0.148c-0.099 0.013-0.148 0.062-0.148 0.148zM84.296 17.32v0.297h0.148v-0.149c0-0.099-0.049-0.148-0.148-0.148zM84.593 18.655c0.037 0.545 0.111 0.815 0.223 0.815 0.247-0.901 0.371-1.372 0.371-1.409v-0.223l-0.594 0.816zM84.742 20.51l-0.074 0.52v1.187c0.012 0.099 0.062 0.148 0.148 0.148h0.074v-0.074c0-0.087-0.025-0.681-0.074-1.781h-0.074zM84.816 11.829c-0.050 0.26-0.074 0.409-0.074 0.446l0.074 0.371c-0.050 0-0.074 0.025-0.074 0.074h0.148v-0.89h-0.074zM85.26 6.265v0.074c0 1.435-0.074 2.3-0.223 2.597 0.049 0.272 0.074 0.47 0.074 0.594-0.099 0.668-0.148 1.088-0.148 1.261v0.149h0.074c0.124 0 0.223-0.297 0.297-0.89-0.049-0.26-0.074-0.507-0.074-0.742l0.297-0.89c0-0.631 0.124-2.065 0.372-4.304 0-0.037 0.124-0.507 0.371-1.41-0.087-0.284-0.235-0.507-0.445-0.668-0.248 0-0.372 1.162-0.372 3.487-0.049 0.001-0.124 0.249-0.223 0.744zM86.67 4.039c0 0.099-0.025 0.148-0.074 0.148l0.074 0.372v0.148c-0.21 1.657-0.334 2.522-0.371 2.597 0 0.049 0.024 0.074 0.074 0.074 0 0.619-0.148 1.335-0.445 2.152-0.050 0.272-0.074 0.471-0.074 0.594 0.049 0.099 0.074 0.173 0.074 0.223h0.074c0.445-1.286 0.668-2.177 0.668-2.671 0.099-0.495 0.198-0.791 0.297-0.89-0.099-0.223-0.148-0.47-0.148-0.742l0.223-0.742v-0.297c-0.001-0.643-0.124-0.964-0.372-0.964zM86.67 10.197c0 0.148 0.099 0.495 0.297 1.039h0.074l0.075-0.371-0.075-0.89h-0.148c-0.075-0.001-0.149 0.074-0.223 0.222zM90.232 13.016v0.297l0.074 0.372h0.074c0-0.148 0.025-0.223 0.074-0.223-0.061-0.297-0.136-0.446-0.222-0.446zM90.38 14.649v0.297h0.074v-0.297h-0.074zM90.751 17.988v0.148c0.012 0.099 0.062 0.148 0.148 0.148l0.074-0.148v-0.148h-0.222zM90.751 19.546v0.223h0.148c-0.049-0.098-0.074-0.172-0.074-0.223h-0.074zM93.422 26.521v0.223h0.223v-0.074c0-0.1-0.050-0.148-0.149-0.148h-0.074zM96.835 21.624v3.189h0.074c0-0.346 0.025-0.52 0.074-0.52l-0.074-0.148v-2.225c0-0.050 0.025-0.074 0.074-0.074-0.049-0.1-0.074-0.174-0.074-0.223h-0.074zM96.835 25.036v1.634h0.074c0-0.1 0.025-0.148 0.074-0.148l-0.074-0.149v-0.668c0-0.050 0.025-0.074 0.074-0.074-0.049-0.050-0.074-0.247-0.074-0.595h-0.074z"></path>
<path d="M106.351 1.293l0.371 0.223 0.371-0.223h0.594c0.557 0.198 1.026 0.297 1.41 0.297 0.507-0.198 0.828-0.297 0.965-0.297l1.038 0.297c0.024 0 0.123-0.024 0.297-0.074 0.197 0.099 0.371 0.148 0.52 0.148 0.322-0.099 0.495-0.148 0.52-0.148 0.322 0.148 0.545 0.223 0.668 0.223 1.126-0.297 1.769-0.445 1.931-0.445h0.074c0.074 0 0.172 0.099 0.297 0.297 0 2.597-0.174 4.056-0.52 4.378 0 1.212-0.396 1.954-1.187 2.225v0.594c0 0.186-0.124 0.408-0.372 0.668l0.074 0.297c0 0.223-0.396 1.038-1.187 2.448 0 0.161-0.371 0.853-1.112 2.078 0 0.754-0.52 1.868-1.559 3.339l0.075 0.148c0 0.235-0.174 0.482-0.521 0.741l0.074 0.445-0.594 1.039c0 0.247-0.421 1.162-1.262 2.745 0 0.148-0.545 1.36-1.632 3.636 0.123 0.050 0.371 0.1 0.742 0.149 0.1-0.050 0.174-0.074 0.223-0.074l0.371 0.074 0.742-0.074c0.148 0 0.347 0.049 0.595 0.148l2.004-0.148c0.049 0 0.123 0.024 0.223 0.074 0.271-0.050 0.494-0.074 0.668-0.074h0.964c0.174 0 0.396 0.024 0.668 0.074 0.853-0.124 1.497-0.298 1.931-0.521h0.148l0.223 0.148c-0.051 0.828-0.148 1.447-0.297 1.855v1.187c-0.063 0.496-0.162 0.741-0.298 0.741h-0.074c-0.198-0.061-0.297-0.283-0.297-0.668v-0.52c-0.087 0-0.161 0.124-0.223 0.371 0 0.557 0.173 0.952 0.52 1.187v0.298c0 0.124-0.272 0.247-0.815 0.371-0.148 0-0.965-0.074-2.448-0.223-0.458 0.148-0.73 0.223-0.815 0.223l-0.52-0.223c-0.248 0.148-0.496 0.223-0.743 0.223h-1.41c-0.494 0-0.742-0.050-0.742-0.148l-0.89 0.074h-2.448c-0.21 0-0.482-0.024-0.816-0.074-0.049 0.050-0.248 0.074-0.594 0.074h-0.074c-0.148 0-0.223-0.024-0.223-0.074l-0.372 0.074h-0.742c-0.198-0.087-0.297-0.26-0.297-0.52v-3.636c0-0.347 0.321-1.089 0.964-2.227 0-0.21 0.446-1.198 1.335-2.967 0.964-2.005 1.559-3.315 1.782-3.933 0-0.309 0.297-0.828 0.89-1.558 0.433-1.534 0.803-2.3 1.112-2.3 0.297-1.311 0.718-2.3 1.261-2.968 0.322-0.557 0.595-0.976 0.816-1.261 0-0.235 0.198-0.383 0.594-0.445v-0.52c0.099-0.124 0.148-0.198 0.148-0.223v-0.293c0-0.742 0.099-1.211 0.298-1.41v-0.148l-0.816-0.668-1.559-0.223c-0.321 0.1-0.545 0.149-0.668 0.149h-0.297c-0.718-0.099-1.112-0.149-1.187-0.149h-1.262c-0.347 0-0.718 0.075-1.113 0.223l-0.371-0.074c-0.445 0-0.791 0.173-1.039 0.52l-0.742 0.074-0.148-0.223v-0.075c0-0.062 0.148-0.483 0.445-1.261 0-0.124-0.025-0.322-0.074-0.594 0-1.781 0.223-2.671 0.668-2.671 0.322 0 0.644-0.049 0.964-0.148h0.223c0.346 0.013 0.52 0.062 0.52 0.148l0.52-0.074c0.198 0 0.644 0.025 1.336 0.074 0.322-0.148 0.716-0.223 1.187-0.223zM101.825 29.71l-0.075 0.148v0.074h0.372v-0.148l-0.297-0.074zM101.825 28.82v0.371h0.074v-0.371h-0.074zM102.122 3.667v0.074c0.012 0.099 0.062 0.148 0.148 0.148 0-0.099 0.024-0.148 0.074-0.148-0.050-0.099-0.074-0.173-0.074-0.223-0.099 0.013-0.148 0.063-0.148 0.149zM102.196 24.739v0.742h0.148l0.074-0.669c-0.050-0.098-0.074-0.172-0.074-0.223-0.099 0.014-0.148 0.063-0.148 0.149zM102.27 26.075l-0.074 0.372v1.261c0.148 0 0.223-0.272 0.223-0.815v-0.816h-0.149zM102.64 2.184c0 0.099-0.025 0.148-0.074 0.148 0.062 0.297 0.136 0.445 0.223 0.445 0.099-0.198 0.148-0.371 0.148-0.52l-0.148-0.074h-0.149zM102.64 29.785v0.074l0.297 0.074 0.074-0.148-0.148-0.074c-0.099 0.050-0.173 0.074-0.223 0.074zM102.715 29.043c0.049 0.087 0.074 0.186 0.074 0.297h0.148l-0.074-0.371-0.148 0.074zM103.012 24.145v0.148c0.099 0 0.149-0.049 0.149-0.148h-0.149zM103.754 3.594c0 0.322-0.024 0.569-0.074 0.742l0.074 0.149-0.074 0.445c0.111 0 0.21-0.272 0.297-0.816-0.099-0.198-0.148-0.371-0.148-0.52h-0.075zM103.977 21.177v0.224c0.013 0.099 0.062 0.148 0.148 0.148v-0.521c-0.098 0.014-0.148 0.062-0.148 0.149zM104.422 2.406c0.049 1.051 0.074 1.669 0.074 1.855h-0.074c0.123 0.495 0.246 0.742 0.371 0.742h0.371c0.099 0 0.148-0.049 0.148-0.148-0.063-1.88-0.186-2.819-0.371-2.819-0.347-0.001-0.519 0.123-0.519 0.37zM105.46 19.323v0.297l0.074 0.446c-0.148 0.247-0.223 0.495-0.223 0.741v0.669c0.099 0.692 0.173 1.657 0.223 2.893 0.111 0 0.186-0.123 0.223-0.371-0.148-0.247-0.223-0.445-0.223-0.594 0.111 0 0.186-0.123 0.223-0.371-0.037-0.396-0.087-0.594-0.148-0.594l0.074-0.741v-3.191c-0.149 0-0.223 0.272-0.223 0.815zM106.128 2.555c0 0.099-0.025 0.148-0.074 0.148 0 0.050 0.024 0.074 0.074 0.074 0 0.087-0.050 0.285-0.148 0.594 0 0.025 0.024 0.124 0.074 0.297-0.050 0.26-0.074 0.507-0.074 0.742 0.136 0 0.26-0.594 0.371-1.781l-0.148-0.074h-0.075zM106.425 16.281c0.049 0.099 0.074 0.173 0.074 0.223h0.074c0.1-0.322 0.148-0.544 0.148-0.668v-0.223h-0.074c-0.148 0-0.222 0.223-0.222 0.668zM106.722 30.081v0.148h0.148c0-0.098-0.048-0.148-0.148-0.148zM107.092 19.991c-0.1 0.347-0.148 0.644-0.148 0.89v0.742l-0.074 0.148h0.223v-0.074l0.223-1.633-0.148-0.074h-0.076zM107.166 27.411c0.248 0.582 0.371 1.051 0.371 1.409 0.384 0.927 0.656 1.397 0.816 1.409h0.445c0.074 0 0.173-0.32 0.297-0.964 0.074 0 0.173-0.297 0.297-0.89h-0.074c-0.235 0.248-0.507 0.371-0.815 0.371-0.791-0.582-1.187-1.026-1.187-1.335h-0.149zM107.315 4.855v0.223c0.1 0 0.148-0.049 0.148-0.148v-0.075h-0.148zM107.389 14.649c0.050 0.396 0.124 0.594 0.223 0.594h0.074c0.148-0.693 0.223-1.261 0.223-1.707-0.049-0.099-0.074-0.173-0.074-0.223h-0.074c-0.124 0-0.248 0.446-0.372 1.336zM108.502 27.262c0.050 0.099 0.074 0.173 0.074 0.223h0.297v-0.223h-0.371zM109.022 2.11v1.41h0.148v-0.52l-0.074-0.89h-0.074zM109.838 13.536v0.223c0.012 0.099 0.061 0.148 0.148 0.148v-0.371h-0.148zM109.838 30.229l0.148 0.074h0.074l0.074-0.371v-0.52c0.247-0.358 0.371-0.631 0.371-0.815v-0.148h-0.074c-0.198 0-0.396 0.594-0.593 1.78zM109.987 27.485h0.297c0.099 0 0.148-0.050 0.148-0.148 0-0.1-0.050-0.148-0.148-0.148h-0.074c-0.075-0.001-0.149 0.098-0.223 0.296zM110.803 27.633l-0.074 0.148c0.012 0.1 0.062 0.148 0.148 0.148 0-0.049 0.024-0.123 0.074-0.223l-0.148-0.073zM110.877 30.006v0.074c0 0.074 0.099 0.174 0.297 0.298h0.445c0.346 0 0.52-0.224 0.52-0.669 0.148-0.049 0.223-0.197 0.223-0.445 0-0.086-0.049-0.234-0.148-0.445 0.1-0.148 0.174-0.568 0.223-1.261-1.039 1.162-1.559 1.979-1.559 2.447zM110.951 2.11v0.149c0 0.074 0.074 0.148 0.223 0.223v-0.149c-0.050-0.099-0.074-0.173-0.074-0.223h-0.149zM111.321 27.114v0.223h0.074c0.099 0 0.148-0.050 0.148-0.148v-0.074h-0.222zM111.618 11.681v0.223c0.063 0 0.186-0.124 0.371-0.371v-0.074h-0.148c-0.074-0.001-0.148 0.074-0.223 0.222z"></path>
<path d="M117.759 1.293c0.148 0 0.346 0.050 0.594 0.148 0.346-0.099 0.619-0.148 0.815-0.148l0.964 0.148c0.322-0.099 0.545-0.148 0.669-0.148h1.41c0.16 0 0.506 0.050 1.038 0.148 0.148 0 0.346-0.049 0.594-0.148 0.248 0 0.371 0.025 0.371 0.074 1.063-0.049 1.855-0.074 2.374-0.074h4.823c0.445 0 0.668 0.52 0.668 1.558 0.247 1.682 0.372 2.77 0.372 3.265l-0.298 0.148c-0.384-0.049-0.778-0.223-1.187-0.52l-0.148 0.074h-0.594c-0.173 0-0.396-0.025-0.668-0.074-0.1 0.049-0.174 0.074-0.223 0.074-0.148 0-0.223-0.025-0.223-0.074-0.495 0.049-0.865 0.074-1.112 0.074h-2.375c-0.062 0-0.334-0.049-0.815-0.148h-0.52c-0.1 0-0.347 0.049-0.742 0.148-0.248-0.086-0.371-0.21-0.371-0.372 0.099-0.828 0.271-1.62 0.52-2.373-0.1-0.47-0.148-0.841-0.148-1.113v-0.072c-0.347-0.049-0.545-0.074-0.594-0.074l-0.074 0.148v0.964l-0.148 1.335c0.099 0.656 0.197 1.051 0.297 1.187 0 0.062-0.272 0.458-0.815 1.187v0.148c0 0.347 0.049 0.619 0.148 0.816-0.1 0.198-0.148 0.47-0.148 0.816v1.558c0 0.198 0.049 0.52 0.148 0.964-0.1 0.458-0.148 0.729-0.148 0.815 0 0.594 0.52 0.989 1.558 1.187 0.086 0 0.285-0.049 0.594-0.148l0.445 0.074c1.199 0 2.287-0.198 3.266-0.594h0.297c0.099 0.012 0.148 0.062 0.148 0.148v0.371c0 0.173 0.024 0.396 0.074 0.668-0.1 0.198-0.148 0.371-0.148 0.52 0.049 0.148 0.099 0.223 0.148 0.223l-0.074 0.52v2.374l0.074 0.52-0.223 0.148h-0.148c-1.002-0.396-1.571-0.594-1.707-0.594-0.347 0.050-0.545 0.074-0.595 0.074-0.086 0-0.433-0.074-1.038-0.223-0.186 0.099-0.383 0.148-0.594 0.148-0.049 0-0.123-0.024-0.223-0.074-0.198 0.050-0.371 0.074-0.52 0.074l-0.297-0.074c-0.161 0.099-0.31 0.148-0.445 0.148h-0.148l-0.223-0.148c0.061-1.917 0.16-3.104 0.297-3.561-0.037-0.297-0.186-0.446-0.445-0.446-0.1 0.161-0.148 0.285-0.148 0.372-0.051 1.521-0.074 2.51-0.074 2.968-0.1 0.322-0.149 0.544-0.149 0.668v0.074c0.384 0 0.606 0.1 0.669 0.297l-0.445 0.594c0.049 2.374 0.074 4.204 0.074 5.49v1.707c0 0.223 0.197 0.644 0.594 1.262l0.52-0.074h0.074c0.173 0 0.396 0.024 0.668 0.074l0.52-0.149c0.828 0.050 1.472 0.075 1.93 0.075h1.855c0.21 0 0.408 0.024 0.594 0.074 0.197-0.050 0.396-0.074 0.594-0.074h1.261c0.186 0 0.607-0.149 1.262-0.446h0.148c0.074 0 0.148 0.074 0.224 0.223-0.273 3.067-0.521 4.601-0.743 4.601-0.087 0.050-0.186 0.074-0.297 0.074h-2.3c-2.115 0-3.747 0.024-4.897 0.074-0.977-0.050-2.51-0.074-4.601-0.074h-0.89c-0.248 0-0.371-0.050-0.371-0.148-0.248 0.148-0.445 0.223-0.594 0.223h-0.223c-0.111 0-0.186-0.124-0.223-0.371 0.297-0.754 0.445-1.225 0.445-1.41 0-0.729-0.025-1.224-0.074-1.483 0.049-1.026 0.074-1.967 0.074-2.82v-2.005c0-0.73-0.025-1.224-0.074-1.483 0.049-0.521 0.074-1.089 0.074-1.708v-5.341c0-0.173-0.025-0.396-0.074-0.668 0.049-0.099 0.074-0.173 0.074-0.223l-0.074-0.89 0.074-1.039c0-0.383-0.025-0.729-0.074-1.039 0.049-1.645 0.074-3.079 0.074-4.303v-2.744l-0.074-0.371h0.074l-0.445-1.41v-0.075c0.094-0.197 0.244-0.297 0.442-0.297zM118.353 2.184v0.297l0.52 2.522h0.074c0.049-0.173 0.074-0.272 0.074-0.297 0-0.235-0.148-0.952-0.445-2.152 0-0.248-0.050-0.371-0.148-0.371h-0.075zM118.501 8.193l-0.148 0.297c0 1.162 0.148 1.979 0.445 2.448l-0.223 1.261 0.445 2.152v0.668c0.037 0.297 0.111 0.445 0.223 0.445 0-0.248 0.025-0.371 0.074-0.371-0.086-0.322-0.186-1.138-0.297-2.448v-2.004c0-0.124-0.123-0.619-0.371-1.484l0.074-0.371c0.001-0.37-0.074-0.567-0.222-0.593zM118.648 27.93c0 0.148-0.025 0.223-0.074 0.223 0.049 0.1 0.074 0.174 0.074 0.223h0.074v-0.445h-0.074zM118.945 5.448c0 0.025-0.025 0.124-0.074 0.297 0 0.223 0.197 1.063 0.594 2.522 0.297 1.472 0.445 2.683 0.445 3.636h-0.074l0.074 0.148v0.149c0 0.049-0.024 0.074-0.074 0.074 0.074 0.198 0.148 0.297 0.223 0.297 0-0.049 0.025-0.074 0.074-0.074 0-0.049-0.024-0.124-0.074-0.223 0.050-1.088 0.124-1.88 0.223-2.374-0.346 0-0.643-1.212-0.89-3.636-0.049 0-0.174-0.272-0.371-0.816h-0.075zM119.984 1.739l-0.074 0.149c0.148 0.668 0.223 1.138 0.223 1.41v0.815c0.013 0.099 0.063 0.148 0.148 0.148v-0.889c0-0.148 0.074-0.446 0.223-0.89-0.062-0.495-0.234-0.743-0.52-0.743zM120.28 26.67l-0.074 0.371v1.038h0.074c0-0.644 0.1-1.088 0.297-1.335l-0.148-0.074h-0.149zM120.875 28.523v0.074c0 0.272 0.024 0.619 0.074 1.038-0.050 0.088-0.074 0.186-0.074 0.297h0.148v-0.148c0-0.16 0.024-0.284 0.074-0.371-0.049-0.594-0.123-0.89-0.222-0.89zM121.098 13.832v0.52c0.099 0 0.148-0.049 0.148-0.148l-0.074-0.371h-0.074zM121.395 2.11v0.89c0.297 0.31 0.445 0.606 0.445 0.89 0.111 0 0.186-0.173 0.224-0.52l-0.075-0.89h0.075c-0.051-0.396-0.174-0.594-0.372-0.594-0.199 0.075-0.297 0.149-0.297 0.223zM122.879 27.114c0 0.024-0.050 0.396-0.148 1.112v0.445h0.148c0.197-0.741 0.297-1.162 0.297-1.261v-0.148c0-0.1-0.050-0.148-0.148-0.148h-0.149zM123.62 13.685c-0.198 0.099-0.297 0.915-0.297 2.448-0.1 0.012-0.148 0.062-0.148 0.148v0.223h0.148c0.247-0.644 0.371-0.989 0.371-1.039s-0.050-0.297-0.148-0.742c0.148-0.26 0.223-0.507 0.223-0.742v-0.148c0-0.099-0.050-0.148-0.149-0.148zM124.362 2.11c0 0.865-0.123 1.855-0.371 2.968l0.148 0.223c0.594-0.049 0.89-0.124 0.89-0.223 0.050-1.632 0.124-2.448 0.223-2.448-0.099-0.371-0.148-0.619-0.148-0.742h-0.594c-0.1 0-0.149 0.074-0.149 0.222zM124.14 29.043c0.049 0.1 0.074 0.174 0.074 0.223h0.148c0.111-0.049 0.309-0.396 0.594-1.038 0.248-0.063 0.371-0.137 0.371-0.223v-0.371c0-0.074-0.074-0.148-0.223-0.223-0.234 0-0.457 0.396-0.668 1.187-0.037-0.001-0.136 0.148-0.296 0.445zM124.362 15.687c0.137 0 0.309-0.272 0.52-0.815l-0.074-0.149v-0.52c0-0.124 0.050-0.346 0.148-0.668l-0.148-0.074h-0.074c-0.124 0-0.249 0.742-0.372 2.225zM125.029 15.836l-0.074 0.372v0.074c0.013 0.099 0.063 0.148 0.148 0.148 0-0.049 0.025-0.248 0.074-0.594h-0.148z"></path>
</svg>
