<!-- Generated by IcoMoon.io -->
<svg version="1.1" xmlns="http://www.w3.org/2000/svg" width="500" height="500" viewBox="0 0 28 32">
<title>veiligheid</title>
<path d="M0 27.731c0.149-0.948 0.227-1.836 0.435-2.694 0.478-1.962 0.975-3.921 1.574-5.847 0.135-0.438 0.657-0.897 1.107-1.070 1.421-0.546 2.886-0.983 4.349-1.406 0.243-0.070 0.663 0.045 0.837 0.23 2.601 2.765 5.626 2.776 8.168 0.028 0.176-0.191 0.601-0.345 0.823-0.268 1.356 0.471 2.712 0.723 4.17 0.781 3.625 0.143 6.538 2.946 6.836 6.345 0.334 3.832-1.837 6.979-5.482 7.941-2.96 0.782-6.212-0.49-7.85-3.152-0.416-0.677-0.865-0.882-1.637-0.875-4.141 0.044-8.284 0.025-12.425 0.026-0.243 0-0.486-0.020-0.903-0.039zM27.446 24.694c-0.007-3.55-2.891-6.438-6.414-6.421-3.46 0.016-6.365 2.926-6.379 6.387-0.014 3.563 2.928 6.495 6.489 6.468 3.462-0.027 6.311-2.934 6.304-6.435z"></path>
<path d="M5.588 8.681c0.64-2.521 0.941-5.188 3.393-7.001 0.396 1.522 0.771 2.964 1.146 4.406 0.078-0.017 0.155-0.034 0.233-0.051-0.16-1.057-0.317-2.114-0.48-3.171-0.341-2.212 0.11-2.733 2.392-2.753 2.631-0.023 2.966 0.358 2.592 2.96-0.139 0.976-0.281 1.951-0.421 2.927 0.078 0.016 0.156 0.033 0.235 0.051 0.365-1.419 0.731-2.837 1.099-4.263 1.876 1.036 3.572 4.808 3.193 6.994-3.553 0.945-7.169 0.502-10.759 0.524-0.787 0.005-1.576-0.362-2.622-0.622z"></path>
<path d="M6.074 9.688c0.393 0 0.635 0 0.699 0 0.72 1.585 1.35 3.097 2.085 4.557 0.712 1.412 1.826 2.43 3.489 2.426 1.661-0.004 2.772-1.025 3.485-2.436 0.724-1.434 1.35-2.917 2.082-4.517 0.016 0 0.28 0 0.783 0-0.232 0.885-0.366 1.735-0.683 2.511-0.38 0.934-0.91 1.809-1.384 2.704-1.072 2.022-3.009 3.089-5.048 2.75-1.226-0.203-2.303-0.822-2.9-1.863-0.945-1.646-1.687-3.409-2.484-5.136-0.121-0.261-0.080-0.597-0.125-0.996z"></path>
<path d="M20.023 26.2c1.494-1.54 2.929-2.999 4.341-4.48 0.475-0.497 0.859-0.733 1.457-0.116 0.549 0.564 0.497 0.934-0.046 1.459-1.764 1.706-3.504 3.439-5.216 5.198-0.539 0.554-0.936 0.561-1.459 0.007-0.896-0.948-1.794-1.902-2.766-2.769-0.74-0.66-0.361-1.048 0.124-1.586 0.577-0.642 0.979-0.411 1.448 0.096 0.652 0.707 1.335 1.385 2.117 2.191z"></path>
</svg>
