<!-- Generated by IcoMoon.io -->
<svg version="1.1" xmlns="http://www.w3.org/2000/svg" width="32" height="32" viewBox="0 0 32 32">
<title>vergrootglas</title>
<path d="M12.797 23.004c-2.409 2.459-4.819 4.922-7.233 7.381-0.282 0.288-0.579 0.563-0.876 0.839-1.114 1.036-2.803 1.034-3.854-0.002-1.048-1.032-1.136-2.776-0.101-3.867 1.653-1.74 3.365-3.425 5.055-5.132 0.82-0.828 1.612-1.688 2.482-2.458 0.554-0.49 0.613-0.867 0.265-1.541-1.822-3.528-1.994-7.186-0.338-10.786 2.16-4.694 5.915-7.237 11.106-7.341 6.348-0.128 11.382 4.125 12.486 10.357 1.151 6.488-3.222 12.866-9.735 14.202-3.061 0.628-5.689 0.178-9.257-1.65zM19.764 3.61c-4.601-0.288-8.816 3.587-9.096 8.363-0.285 4.855 3.442 9.056 8.307 9.364 4.981 0.316 9.225-3.483 9.421-8.612 0.198-5.186-4.039-9.061-8.631-9.115z"></path>
<path d="M20.585 5.778c0.281 0.019 0.423 0.021 0.564 0.038 2.024 0.24 5.033 3.449 5.137 5.476 0.036 0.704-0.407 1.299-1.096 1.468-0.667 0.165-1.29-0.129-1.587-0.764-0.11-0.235-0.184-0.487-0.281-0.729-0.506-1.254-1.365-2.143-2.66-2.594-0.311-0.108-0.631-0.23-0.897-0.416-0.551-0.387-0.7-0.933-0.473-1.57 0.241-0.67 0.715-0.979 1.292-0.909z"></path>
</svg>
