<!-- Generated by IcoMoon.io -->
<svg version="1.1" xmlns="http://www.w3.org/2000/svg" width="161" height="32" viewBox="0 0 161 32">
<title>verzenden</title>
<path d="M1.945 1.215c1.231 0.047 1.845 0.123 1.845 0.221 0.616-0.098 1.109-0.147 1.477-0.147 0.319 0.098 0.542 0.149 0.665 0.149h1.033c0.074 0 0.147 0.074 0.221 0.219-0.098 0.37-0.172 0.814-0.221 1.33 0.297 1.231 0.542 2.463 0.741 3.692 0.049 0.444 0.172 0.935 0.368 1.477v0.886c0 0.135 0.147 0.432 0.444 0.886v0.444c0 0.113-0.025 0.383-0.074 0.812 0.344 0 0.515 0.27 0.515 0.81v0.665c0.444 1.391 0.714 2.573 0.812 3.543 0.395 1.454 0.64 2.735 0.738 3.842h0.147c0.344-0.319 0.515-0.616 0.515-0.886v-0.886c0.344-0.702 0.518-1.391 0.518-2.068 0.344-1.44 0.565-2.645 0.665-3.619 0.135 0 0.333-0.837 0.591-2.512 0.284-0.636 0.53-1.794 0.738-3.467l0.515-1.254c0-0.26 0.098-0.996 0.297-2.215v-0.591c0-0.344-0.049-0.616-0.147-0.812 0.074-0.209 0.196-0.358 0.37-0.444h0.221c0.135 0 0.284 0.047 0.444 0.147l0.368-0.147c0.258 0.047 0.405 0.074 0.442 0.074 0.26-0.049 0.407-0.074 0.444-0.074l0.295 0.074c0.198-0.049 0.37-0.074 0.518-0.074 0.147 0.098 0.319 0.147 0.515 0.147 0.763-0.147 1.33-0.221 1.7-0.221 0 0.025 0.049 0.098 0.147 0.221v0.145c0 0.125-0.297 0.618-0.888 1.479-0.493 2.203-0.738 3.457-0.738 3.766 0 0.098-0.123 0.37-0.368 0.81 0 0.049 0.025 0.074 0.074 0.074 0 0.125-0.123 0.544-0.368 1.256-0.295 2.021-0.518 3.324-0.665 3.915-0.54 2.228-0.959 4.124-1.254 5.687 0 0.049 0.025 0.074 0.074 0.074-0.493 1.268-0.837 2.672-1.033 4.21l-1.256 5.908v0.221c0 0.27 0.074 0.738 0.221 1.403-0.125 0.248-0.344 0.37-0.665 0.37-0.123 0-0.419-0.049-0.886-0.147-0.331 0.049-0.554 0.098-0.665 0.147-0.086-0.049-0.211-0.074-0.37-0.074l-0.442 0.074c-0.198-0.049-0.37-0.074-0.518-0.074-0.049 0-0.123 0.025-0.221 0.074-0.086-0.049-0.184-0.074-0.295-0.074-0.395 0.098-0.64 0.147-0.738 0.147-0.591-0.061-0.886-0.307-0.886-0.738v-0.147c0.147-0.64 0.221-0.982 0.221-1.033-0.738-2.512-1.428-5.81-2.068-9.895-0.579-2.021-0.923-3.547-1.033-4.582-0.297-0.491-0.444-1.207-0.444-2.142l-0.591-2.436c0-0.047 0.025-0.074 0.074-0.074-0.442-0.528-0.663-1.416-0.663-2.657l-0.812-3.766c0-0.186-0.297-0.777-0.888-1.774l0.223-0.368zM3.864 2.027c0 0.049-0.025 0.074-0.074 0.074 0 0.049 0.025 0.125 0.074 0.221-0.049 0.331-0.074 0.603-0.074 0.814v0.221l0.074 0.368h0.074c0-0.047 0.025-0.245 0.074-0.589l-0.074-0.37c0.049-0.198 0.074-0.393 0.074-0.591 0-0.098-0.047-0.147-0.147-0.147zM3.864 4.093c0 0.049-0.025 0.125-0.074 0.221 0.049 0.1 0.074 0.172 0.074 0.221h0.074v-0.442h-0.074zM5.638 2.027l-0.074 0.368v1.109l0.074 0.368h0.074c0.098 0 0.147-0.047 0.147-0.147v-1.551c0-0.098-0.049-0.147-0.147-0.147h-0.074zM6.745 15.909c0 0.64 0.172 2.215 0.518 4.727v0.147c0 0.049-0.025 0.074-0.074 0.074 0.297 0.984 0.444 1.577 0.444 1.772v0.297h0.147c-0.049-0.491-0.074-0.861-0.074-1.109v-2.434l-0.667-1.994c0-0.039 0.025-0.186 0.074-0.444-0.147-0.505-0.221-0.849-0.221-1.035h-0.147zM6.892 7.786v0.37l0.074 0.738h0.074c0-0.147 0.025-0.319 0.074-0.518-0.047-0.194-0.074-0.393-0.074-0.591h-0.147zM7.336 12.143l-0.074 0.147c0.037 0.297 0.11 0.444 0.221 0.444 0.098 0 0.147-0.049 0.147-0.147v-0.223c0-0.074-0.098-0.147-0.295-0.221zM8.813 24.771c0 0.211-0.172 0.358-0.515 0.444 0.147 1.477 0.319 2.215 0.515 2.215 0-0.689 0.221-1.035 0.665-1.035v-0.074c-0.395-0.221-0.591-0.736-0.591-1.551h-0.074zM8.518 13.473v2.287h0.074c0-0.749 0.049-1.168 0.147-1.254l-0.147-0.665 0.074-0.147c-0.051-0.098-0.074-0.172-0.074-0.221h-0.074zM8.886 19.454c-0.147 0.245-0.245 0.788-0.295 1.624 0.049 0.702 0.123 1.391 0.221 2.068h0.147l0.074-0.37v-0.147c0-0.147-0.074-0.344-0.221-0.591 0.196-0.714 0.297-1.575 0.297-2.584h-0.223zM8.739 23.883l0.074 0.147v0.074c0 0.049-0.025 0.074-0.074 0.074 0.049 0.088 0.074 0.211 0.074 0.37h0.074v-0.738l-0.147 0.074zM9.107 17.388l-0.074 0.368v0.147l0.074 0.37h0.074v-0.886h-0.074zM10.879 22.111v0.147h0.147c0-0.233 0.196-0.996 0.591-2.289-0.27 0-0.515 0.716-0.738 2.142zM11.175 26.025v0.147c0.012 0.1 0.061 0.147 0.147 0.147v-0.297h-0.147zM11.249 26.839v0.074c0.086 2.068 0.307 3.101 0.665 3.101l0.074-0.147c-0.393-1.624-0.591-2.461-0.591-2.51v-0.518h-0.147zM12.061 21.226c-0.098 0.344-0.147 0.64-0.147 0.886v0.147h0.074c0.147-0.456 0.221-0.8 0.221-1.033h-0.147zM12.431 17.018c-0.051 0.344-0.074 0.54-0.074 0.591l0.074 0.368h0.074l0.074-0.515v-0.444h-0.147zM12.431 19.97l-0.074 0.518v0.37h0.074c0.098-0.37 0.147-0.565 0.147-0.591-0.049-0.086-0.074-0.184-0.074-0.297h-0.074zM12.505 16.13v0.221c0.11 0 0.184-0.27 0.221-0.81-0.147 0.025-0.221 0.221-0.221 0.589zM12.505 23.367h0.147c0.196-0.716 0.393-1.33 0.591-1.845v-0.591c-0.086 0-0.284 0.689-0.591 2.068-0.098 0-0.147 0.123-0.147 0.368zM13.021 12.881l-0.074 0.37c0.098 0 0.147-0.074 0.147-0.221v-0.149h-0.074zM13.17 18.124v0.961h0.147v-0.961h-0.147zM13.685 13.622l-0.147 0.515v0.888c0.012 0.098 0.061 0.147 0.147 0.147v-0.667c0.147-0.442 0.221-0.689 0.221-0.738v-0.145h-0.221zM13.538 23.073v0.147h0.147c0.098-0.37 0.147-0.591 0.147-0.665-0.196 0.074-0.295 0.245-0.295 0.518zM13.906 12.513l0.074 0.297h0.074l0.221-0.888c-0.245 0.123-0.368 0.321-0.368 0.591zM13.906 22.038v0.147h0.074v-0.147h-0.074zM14.277 18.051c-0.147 0.54-0.221 0.886-0.221 1.035 0.196-0.086 0.297-0.26 0.297-0.518v-0.518h-0.076zM14.277 8.303c0 0.221-0.025 0.37-0.074 0.444 0.049 0.074 0.074 0.221 0.074 0.444h0.074v-0.888h-0.074zM14.277 16.647v0.518h0.074v-0.518h-0.074zM14.941 12.734c-0.147 0.491-0.319 1.379-0.515 2.659h0.147c0-0.307 0.147-1.047 0.442-2.215 0-0.221 0.025-0.37 0.074-0.444h-0.147zM15.015 7.638v0.444c0.098 0 0.147-0.047 0.147-0.147v-0.149c0-0.098-0.049-0.147-0.147-0.147zM15.31 15.541c-0.098 0.368-0.147 0.589-0.147 0.663v0.074h0.074l0.147-0.663v-0.074h-0.074zM15.31 2.471v0.221c0.098 0 0.147-0.049 0.147-0.147v-0.074h-0.147zM15.31 3.651v0.147h0.074v-0.147h-0.074zM15.459 14.579v0.221c0.123 0 0.196-0.221 0.221-0.665-0.147 0.051-0.221 0.198-0.221 0.444zM15.754 7.418c0.049 0.086 0.074 0.184 0.074 0.295h0.074l0.074-1.18c-0.098 0-0.172 0.295-0.221 0.886zM15.754 10.075v0.518h0.147v-0.665c-0.098 0.014-0.147 0.061-0.147 0.147zM15.827 12.955v0.297h0.074c0.098 0 0.147-0.049 0.147-0.147v-0.297h-0.074c-0.098 0.012-0.147 0.063-0.147 0.147zM16.195 2.175l-0.074 0.37v0.442c0.012 0.098 0.061 0.147 0.147 0.147 0.051-0.27 0.076-0.466 0.076-0.589l-0.074-0.37h-0.076zM17.378 2.545c0.098 0.393 0.147 0.714 0.147 0.961-0.147 0.663-0.221 1.105-0.221 1.328 0 0.147 0.025 0.319 0.074 0.518-0.049 0.319-0.074 0.638-0.074 0.957v0.37l0.074 0.37c0.147-0.049 0.221-0.198 0.221-0.444v-0.444c0-1.094 0.147-1.982 0.442-2.657l0.147-1.405-0.219-0.145h-0.147c-0.088 0.012-0.235 0.209-0.444 0.591z"></path>
<path d="M19.906 1.289c0.147 0 0.344 0.047 0.591 0.147 0.344-0.1 0.616-0.147 0.812-0.147l0.959 0.147c0.319-0.1 0.542-0.147 0.665-0.147h1.403c0.16 0 0.505 0.047 1.033 0.147 0.147 0 0.344-0.049 0.591-0.147 0.248 0 0.37 0.025 0.37 0.074 1.060-0.049 1.845-0.074 2.363-0.074h4.799c0.444 0 0.665 0.516 0.665 1.551 0.248 1.673 0.37 2.758 0.37 3.248l-0.297 0.147c-0.383-0.047-0.775-0.221-1.182-0.518l-0.147 0.074h-0.591c-0.172 0-0.393-0.025-0.665-0.074-0.098 0.049-0.172 0.074-0.221 0.074-0.147 0-0.221-0.025-0.221-0.074-0.493 0.049-0.861 0.074-1.109 0.074h-2.363c-0.061 0-0.333-0.047-0.812-0.147h-0.518c-0.098 0-0.344 0.049-0.738 0.147-0.248-0.086-0.37-0.209-0.37-0.368 0.098-0.824 0.27-1.612 0.518-2.363-0.098-0.468-0.147-0.837-0.147-1.109v-0.074c-0.344-0.047-0.542-0.074-0.591-0.074l-0.074 0.147v0.961l-0.145 1.33c0.098 0.653 0.196 1.047 0.295 1.182 0 0.059-0.27 0.456-0.812 1.18v0.147c0 0.344 0.049 0.616 0.147 0.812-0.098 0.196-0.147 0.468-0.147 0.81v1.551c0 0.198 0.049 0.518 0.147 0.961-0.098 0.456-0.147 0.724-0.147 0.81 0 0.591 0.518 0.984 1.551 1.182 0.086 0 0.282-0.049 0.591-0.147l0.444 0.074c1.193 0 2.277-0.198 3.248-0.591h0.297c0.098 0.012 0.147 0.061 0.147 0.147v0.37c0 0.172 0.025 0.393 0.074 0.665-0.098 0.196-0.147 0.368-0.147 0.515 0.049 0.147 0.098 0.221 0.147 0.221l-0.074 0.518v2.363l0.074 0.518-0.221 0.147h-0.147c-0.996-0.395-1.563-0.591-1.698-0.591-0.344 0.047-0.542 0.074-0.591 0.074-0.086 0-0.43-0.074-1.033-0.221-0.184 0.098-0.383 0.147-0.591 0.147-0.049 0-0.123-0.025-0.221-0.074-0.196 0.049-0.368 0.074-0.515 0.074l-0.297-0.074c-0.16 0.098-0.307 0.147-0.444 0.147h-0.147l-0.221-0.147c0.061-1.909 0.16-3.089 0.297-3.543-0.037-0.297-0.184-0.444-0.444-0.444-0.098 0.16-0.147 0.284-0.147 0.37-0.049 1.512-0.074 2.498-0.074 2.952-0.098 0.319-0.147 0.542-0.147 0.665v0.074c0.383 0 0.603 0.098 0.665 0.297l-0.444 0.589c0.049 2.363 0.074 4.185 0.074 5.466v1.698c0 0.221 0.196 0.64 0.591 1.254l0.518-0.074h0.074c0.172 0 0.393 0.027 0.665 0.074l0.518-0.147c0.824 0.049 1.465 0.074 1.919 0.074h1.845c0.209 0 0.407 0.027 0.591 0.074 0.196-0.047 0.395-0.074 0.591-0.074h1.256c0.184 0 0.601-0.147 1.254-0.444h0.147c0.074 0 0.147 0.074 0.221 0.221-0.27 3.052-0.518 4.578-0.738 4.578-0.086 0.049-0.184 0.074-0.297 0.074h-2.289c-2.105 0-3.729 0.025-4.873 0.074-0.972-0.049-2.498-0.074-4.578-0.074h-0.886c-0.248 0-0.37-0.049-0.37-0.147-0.248 0.147-0.444 0.221-0.591 0.221h-0.223c-0.11 0-0.184-0.125-0.221-0.37 0.297-0.751 0.442-1.219 0.442-1.403 0-0.726-0.025-1.219-0.074-1.477 0.049-1.023 0.074-1.958 0.074-2.807v-1.994c0-0.724-0.025-1.219-0.074-1.477 0.049-0.518 0.074-1.082 0.074-1.698v-5.319c0-0.172-0.025-0.393-0.074-0.663 0.049-0.090 0.074-0.164 0.074-0.213l-0.074-0.886 0.074-1.033c0-0.383-0.025-0.726-0.074-1.035 0.049-1.636 0.074-3.064 0.074-4.284v-2.731l-0.074-0.368h0.074l-0.442-1.405v-0.074c0.098-0.196 0.245-0.295 0.442-0.295zM20.497 2.175v0.297l0.515 2.512h0.074c0.049-0.172 0.074-0.272 0.074-0.297 0-0.233-0.147-0.947-0.442-2.142 0-0.245-0.049-0.37-0.147-0.37h-0.074zM20.645 8.156l-0.147 0.295c0 1.156 0.147 1.97 0.442 2.436l-0.221 1.254 0.442 2.142v0.665c0.037 0.297 0.11 0.444 0.221 0.444 0-0.248 0.025-0.37 0.074-0.37-0.086-0.319-0.184-1.133-0.297-2.436v-1.992c0-0.123-0.123-0.616-0.368-1.477l0.074-0.37c0.004-0.368-0.070-0.563-0.219-0.589zM20.794 27.796c0 0.147-0.025 0.221-0.074 0.221 0.049 0.1 0.074 0.174 0.074 0.221h0.074v-0.444h-0.074zM21.089 5.425c0 0.025-0.025 0.123-0.074 0.295 0 0.221 0.196 1.060 0.591 2.512 0.295 1.465 0.442 2.672 0.442 3.619h-0.074l0.074 0.147v0.147c0 0.049-0.025 0.074-0.074 0.074 0.074 0.198 0.147 0.297 0.221 0.297 0-0.047 0.025-0.074 0.074-0.074 0-0.047-0.025-0.123-0.074-0.221 0.049-1.082 0.123-1.87 0.221-2.363-0.344 0-0.64-1.205-0.886-3.619-0.049 0-0.172-0.27-0.37-0.81h-0.072zM22.122 1.731l-0.074 0.147c0.147 0.665 0.221 1.133 0.221 1.405v0.81c0.012 0.1 0.061 0.147 0.147 0.147v-0.884c0-0.147 0.074-0.444 0.221-0.888-0.059-0.491-0.231-0.738-0.515-0.738zM22.416 26.542l-0.074 0.37v1.033h0.074c0-0.64 0.098-1.082 0.297-1.328l-0.147-0.074h-0.149zM23.007 28.387v0.074c0 0.272 0.025 0.616 0.074 1.035-0.049 0.086-0.074 0.184-0.074 0.297h0.147v-0.147c0-0.16 0.025-0.284 0.074-0.37-0.047-0.591-0.123-0.888-0.221-0.888zM23.228 13.767v0.518c0.098 0 0.147-0.047 0.147-0.147l-0.072-0.37h-0.076zM23.525 2.101v0.886c0.297 0.307 0.442 0.603 0.442 0.886 0.11 0 0.184-0.172 0.221-0.515l-0.074-0.888h0.074c-0.049-0.393-0.172-0.591-0.368-0.591-0.196 0.076-0.295 0.149-0.295 0.223zM25.002 26.986c0 0.025-0.049 0.393-0.147 1.107v0.444h0.147c0.196-0.738 0.297-1.156 0.297-1.254v-0.147c0-0.098-0.049-0.147-0.147-0.147h-0.149zM25.74 13.622c-0.198 0.098-0.297 0.91-0.297 2.434-0.098 0.014-0.147 0.061-0.147 0.147v0.223h0.147c0.245-0.64 0.37-0.984 0.37-1.033s-0.049-0.297-0.147-0.738c0.147-0.258 0.221-0.505 0.221-0.738v-0.149c0-0.098-0.049-0.145-0.147-0.145zM26.479 2.101c0 0.863-0.123 1.845-0.37 2.954l0.147 0.221c0.591-0.049 0.886-0.125 0.886-0.221 0.049-1.624 0.123-2.436 0.221-2.436-0.098-0.37-0.147-0.616-0.147-0.738h-0.591c-0.096-0.002-0.145 0.074-0.145 0.221zM26.256 28.905c0.049 0.098 0.074 0.172 0.074 0.221h0.147c0.11-0.049 0.307-0.393 0.591-1.035 0.248-0.059 0.37-0.133 0.37-0.221v-0.368c0-0.074-0.074-0.147-0.221-0.221-0.233 0-0.456 0.393-0.665 1.18-0.037 0.002-0.135 0.149-0.297 0.444zM26.479 15.614c0.135 0 0.307-0.272 0.515-0.812l-0.074-0.147v-0.518c0-0.123 0.049-0.344 0.147-0.663l-0.145-0.076h-0.074c-0.125 0-0.248 0.738-0.37 2.215zM27.144 15.762l-0.074 0.37v0.074c0.012 0.1 0.061 0.147 0.147 0.147 0-0.047 0.025-0.245 0.074-0.591h-0.147z"></path>
<path d="M36.762 1.289l0.368 0.074h2.436c0.233 0 0.628 0.047 1.182 0.147l0.738-0.147c0.086 0 0.282 0.047 0.591 0.147l1.995-0.147c0.086 0.047 0.307 0.098 0.665 0.147 0.086 0 0.282-0.049 0.591-0.147 0.037 0 0.184 0.025 0.444 0.074l0.886-0.074c0.319 0.098 0.542 0.147 0.665 0.147h0.147c0.923-0.147 1.416-0.221 1.477-0.221 0.319 0 0.665 0.245 1.033 0.736 0.935 0.493 1.403 1.035 1.403 1.624 0.049 0 0.074 0.027 0.074 0.074 0 0.049-0.025 0.125-0.074 0.221 0.049 0.64 0.074 1.156 0.074 1.553v0.074c0 0.172-0.025 0.393-0.074 0.663 0.098 0.307 0.147 0.505 0.147 0.591-0.098 0.344-0.147 0.64-0.147 0.886 0.196 0.481 0.297 0.802 0.297 0.961v1.254l-0.297 1.845c0 0.284 0.025 0.677 0.074 1.182-0.098 0.491-0.147 0.935-0.147 1.328 0.196 0.456 0.297 0.726 0.297 0.812v0.886c-0.139 0.914-0.262 1.432-0.374 1.557-0.098 0-0.542 0.442-1.328 1.328-0.297 0.135-0.444 0.383-0.444 0.738 0.098 0.763 0.27 1.379 0.518 1.845l0.738 2.952c0 0.763 0.297 1.823 0.886 3.177 0 1.107 0.297 1.894 0.886 2.361 0.147 0 0.27 0.221 0.37 0.665-0.162 0.147-0.284 0.221-0.37 0.221-0.53-0.098-0.873-0.147-1.033-0.147h-0.37c-0.419 0-0.935 0.049-1.551 0.147-0.43-0.049-0.702-0.074-0.812-0.074-0.037 0-0.184 0.025-0.444 0.074-0.196-0.049-0.368-0.074-0.516-0.074l-0.518 0.074c-0.245-0.086-0.368-0.211-0.368-0.37 0.147-0.245 0.221-0.444 0.221-0.591v-0.145c-0.196-1.133-0.493-2.363-0.886-3.694 0-0.209-0.123-0.702-0.368-1.477 0-0.16-0.125-0.628-0.37-1.403-0.049-0.444-0.297-1.33-0.738-2.659 0-0.456-0.419-0.849-1.256-1.18l-0.37 0.074-1.033-0.074c0 0.061-0.245 0.331-0.738 0.81v2.215c0 1.070-0.025 2.522-0.074 4.357 0.049 0.272 0.074 0.493 0.074 0.665l-0.074 0.37c0.049 0.383 0.074 0.8 0.074 1.254v0.074c0 0.086 0.172 0.554 0.518 1.403v0.074c0 0.074-0.074 0.147-0.221 0.221h-3.175c-0.284 0-0.677 0.025-1.182 0.074-0.098-0.049-0.172-0.074-0.221-0.074-0.086 0.049-0.209 0.074-0.368 0.074-0.248-0.147-0.37-0.297-0.37-0.444 0.444-0.702 0.665-1.242 0.665-1.624v-1.542c0-0.802-0.025-1.391-0.074-1.772 0.049-0.383 0.074-0.974 0.074-1.772v-1.256c0-0.11-0.025-0.211-0.074-0.297 0.049-0.086 0.074-0.184 0.074-0.297v-0.145c0-0.284-0.025-0.456-0.074-0.518 0.049-0.272 0.074-0.493 0.074-0.665v-0.665c0-0.209-0.025-0.405-0.074-0.589 0-0.049 0.025-0.125 0.074-0.221-0.049-0.788-0.074-1.256-0.074-1.403 0-0.125 0.025-0.763 0.074-1.921l-0.074-0.368c0.049-0.086 0.074-0.186 0.074-0.297l-0.074-0.37 0.074-0.147c-0.049-0.098-0.074-0.172-0.074-0.221l0.074-0.444c0-0.147-0.025-0.319-0.074-0.515 0.049-0.775 0.074-1.342 0.074-1.698 0-0.419-0.025-1.156-0.074-2.215 0.037-0.393 0.086-0.591 0.147-0.591l-0.074-0.37v-1.033c0-0.272-0.025-0.616-0.074-1.035 0.049-0.098 0.074-0.172 0.074-0.221 0-0.047-0.025-0.074-0.074-0.074l0.074-0.736v-2.807c0-0.098-0.147-0.393-0.442-0.888v-0.074l0.221-0.295zM38.904 13.694v0.147c0 0.061-0.049 0.333-0.147 0.812 0.025 0.491 0.098 0.738 0.221 0.738v-1.18l0.147-0.221v-0.149c0-0.098-0.049-0.147-0.147-0.147h-0.074zM38.904 21.596c0 0.11-0.025 0.209-0.074 0.295 0.049 0.493 0.123 0.738 0.221 0.738h0.074v-0.074c0-0.172 0.025-0.393 0.074-0.665-0.049-0.086-0.074-0.184-0.074-0.295h-0.221zM39.79 18.051v0.221h0.147v-0.37c-0.098 0.014-0.147 0.063-0.147 0.149zM39.937 6.309c0 0.172-0.025 0.393-0.074 0.665 0.049 0.086 0.074 0.184 0.074 0.297 0.061 0 0.184-0.125 0.368-0.37 0-0.27-0.123-0.466-0.368-0.591zM40.011 12.069l-0.147 0.888c0.049 0.258 0.074 0.505 0.074 0.736v0.297h0.147l0.147-0.368-0.221-0.37v-0.518c0-0.125 0.049-0.344 0.147-0.665h-0.147zM39.863 20.043l0.147 0.738h0.074v-0.589c0-0.098-0.049-0.147-0.147-0.147h-0.074zM39.937 2.545l0.074 0.147v0.812h0.147l0.074-0.37v-0.072c0-0.049-0.049-0.245-0.147-0.591l-0.147 0.074zM40.011 16.279c0.061 0 0.184-0.123 0.37-0.37l-0.147-0.074c-0.1 0-0.174 0.147-0.223 0.444zM40.011 16.5v0.221h0.074v-0.221h-0.074zM40.232 18.789c0 0.198-0.025 0.297-0.074 0.297 0.049 0.074 0.074 0.221 0.074 0.444h0.147l0.074-0.665-0.147-0.074h-0.074zM40.305 14.876v0.147c0.012 0.098 0.061 0.147 0.147 0.147 0.098-0.16 0.147-0.284 0.147-0.37l-0.147-0.072c-0.098 0.012-0.147 0.061-0.147 0.147zM40.305 21.152v0.074c0.147 0.221 0.221 0.37 0.221 0.444h0.147v-0.37c0-0.1-0.049-0.147-0.147-0.147h-0.221zM40.305 25.436v0.368h0.074v-0.368h-0.074zM40.379 17.683l0.444 0.736v-0.368c0-0.258-0.074-0.405-0.221-0.442-0.1 0.047-0.174 0.074-0.223 0.074zM40.453 22.482v0.074h0.074c0.098 0 0.147-0.047 0.147-0.147v-0.074h-0.074c-0.098 0.010-0.147 0.061-0.147 0.147zM41.044 15.614c0 0.245-0.025 0.368-0.074 0.368l0.074 0.147v0.074c0 0.233-0.123 0.432-0.368 0.591 0.147 0.331 0.221 0.53 0.221 0.591h0.147l-0.074-0.738c0.061 0 0.184-0.123 0.37-0.37l-0.147-0.663h-0.149zM41.117 2.322c0 0.049-0.025 0.125-0.074 0.221 0.049 0.297 0.123 0.444 0.221 0.444 0.147-0.049 0.221-0.198 0.221-0.444v-0.072c0-0.098-0.049-0.147-0.147-0.147h-0.221zM41.117 19.233c0.147-0.198 0.297-0.297 0.444-0.297v-0.368h-0.074c-0.248 0.209-0.37 0.432-0.37 0.665zM44.883 5.718h-1.33c-0.284 0-0.677-0.025-1.182-0.074-0.248 0-0.616 0.272-1.109 0.812 0.049 0.493 0.074 0.861 0.074 1.109v1.328c0 0.319-0.025 0.64-0.074 0.959 0.049 0.174 0.074 0.444 0.074 0.812 0 0.284-0.025 0.456-0.074 0.518 0.049 0.331 0.074 0.603 0.074 0.81v2.142c0 0.049-0.025 0.074-0.074 0.074 0.211 0.383 0.43 0.653 0.665 0.812h4.652c0.393-0.383 0.591-0.898 0.591-1.551v-2.876c0-0.628 0.025-1.317 0.074-2.068-0.049-0.196-0.074-0.393-0.074-0.591 0.049-0.468 0.074-0.935 0.074-1.403 0-0.37-0.442-0.689-1.328-0.959-0.368 0.1-0.712 0.147-1.033 0.147zM41.635 16.279l0.221 0.37c-0.049 0.272-0.074 0.468-0.074 0.591 0.27 0.417 0.442 0.837 0.516 1.254 0.16 0.098 0.282 0.147 0.37 0.147 0.049-0.098 0.074-0.172 0.074-0.221-0.098-0.331-0.344-0.923-0.738-1.772 0.049-0.086 0.074-0.184 0.074-0.297 0-0.098-0.049-0.147-0.147-0.147h-0.147l-0.147 0.074zM41.782 4.981l0.147 0.074c0.086 0 0.258-0.221 0.516-0.665 0.098-0.047 0.172-0.074 0.221-0.074 0.196 0.221 0.297 0.393 0.297 0.518h0.147l0.074-0.888c-0.344 0-0.516-0.27-0.516-0.81v-0.297c0-0.125 0.049-0.346 0.147-0.665h-0.074c-0.344 0-0.518 0.37-0.518 1.109-0.196 0.307-0.344 0.873-0.442 1.698zM43.186 2.101v0.074l0.221 0.444c-0.049 0.417-0.074 0.763-0.074 1.033v0.147c0.147-0.047 0.221-0.196 0.221-0.442 0-0.074-0.025-0.419-0.074-1.035h0.074c-0.049-0.098-0.074-0.172-0.074-0.221h-0.295zM44.366 3.872c-0.297 0.653-0.442 0.996-0.442 1.035l0.147 0.074h0.297c0.098 0 0.147-0.049 0.147-0.147v-0.814c0-0.098-0.049-0.147-0.149-0.147zM44.442 2.545v0.442h0.074l0.074-0.518v-0.074c-0.098 0.012-0.147 0.063-0.147 0.149zM45.696 15.835c0 0.049 0.025 0.074 0.074 0.074l-0.074 0.37c0.049 0.1 0.074 0.174 0.074 0.221h0.295c0.098-0.025 0.196-0.147 0.297-0.37-0.049 0-0.196-0.172-0.442-0.515-0.037 0-0.11 0.072-0.223 0.221zM45.771 20.784c0.147 0.211 0.221 0.554 0.221 1.033l0.147-0.074-0.074-0.368c0.049-0.358 0.074-0.554 0.074-0.591l-0.147-0.074h-0.074l-0.147 0.074zM45.919 2.175v1.772l0.074 0.888h0.074c0-0.233 0.025-0.479 0.074-0.738-0.049-0.603-0.074-1.193-0.074-1.772v-0.149h-0.147zM46.287 17.091v0.221l0.518 1.919h0.147l0.074-0.37c-0.245-0.468-0.368-0.91-0.368-1.328v-0.442c0-0.098-0.049-0.147-0.147-0.147h-0.074c-0.1 0.012-0.149 0.061-0.149 0.147zM46.508 16.13c0.012 0.1 0.061 0.147 0.147 0.147l0.074-0.297h-0.074c-0.098 0.016-0.147 0.063-0.147 0.149zM46.878 2.913c0.11 1.18 0.209 2.044 0.295 2.586h0.074v-0.738c0.196-1.008 0.297-1.551 0.297-1.624v-0.591l0.074-0.37c-0.098-0.047-0.172-0.074-0.221-0.074-0.346 0.135-0.518 0.407-0.518 0.812zM47.837 16.574l-0.074 0.518c0 0.245 0.025 0.616 0.074 1.107h0.074l0.074-0.886-0.074-0.738h-0.074zM47.837 19.603c0 0.025-0.025 0.123-0.074 0.295 0.049 0.1 0.074 0.174 0.074 0.221h0.074c0-0.047 0.025-0.123 0.074-0.221-0.049-0.086-0.074-0.184-0.074-0.295h-0.074zM48.429 28.61v0.074c0.147 0.714 0.221 1.156 0.221 1.328h0.147v-0.074c0-0.886-0.098-1.328-0.297-1.328h-0.072zM48.576 6.826v0.297l0.074 0.37h0.074l0.074-0.37v-0.518c-0.074 0-0.147 0.074-0.221 0.221zM48.576 13.988v0.074h0.074c0.098-0.319 0.147-0.542 0.147-0.663-0.11 0-0.184 0.196-0.221 0.589zM49.388 2.395c0.049 0.098 0.074 0.172 0.074 0.221 0 0.554-0.147 1.367-0.442 2.436v0.225c0.258 0 0.528-0.738 0.812-2.215l-0.221-0.738h-0.074l-0.149 0.072zM49.093 26.025c0.147 0.996 0.221 1.587 0.221 1.772v0.518c0.012 0.1 0.061 0.147 0.147 0.147 0.086-0.047 0.184-0.074 0.297-0.074l0.074 0.147c0 0.125-0.025 0.319-0.074 0.591 0 0.736 0.196 1.107 0.591 1.107 0.702-0.098 1.193-0.147 1.477-0.147-0.233-0.491-0.383-0.736-0.444-0.736-0.16 0-0.333 0.074-0.516 0.221h-0.297c-0.098 0-0.147-0.049-0.147-0.147l0.074-0.37c0-0.479-0.27-0.947-0.812-1.403 0-0.419-0.172-0.961-0.518-1.626h-0.074zM49.314 17.165c0 0.074 0.025 0.37 0.074 0.886h0.147c0.074 0 0.147-0.074 0.221-0.221v-0.076l-0.221-0.295v-0.221c0-0.211 0.098-0.53 0.297-0.961l-0.147-0.074c-0.162 0-0.284 0.323-0.37 0.961zM49.462 22.776v0.074c0.012 0.098 0.061 0.147 0.147 0.147v-0.221h-0.147zM49.685 11.036l0.074 0.297h0.368c0.147 0 0.221-0.468 0.221-1.405 0-0.037-0.025-0.184-0.074-0.442h-0.074c-0.098 0-0.172 0.295-0.221 0.886-0.198 0.221-0.295 0.444-0.295 0.665zM49.832 12.513v2.289l0.074 0.518h0.147v-0.297c0-0.098-0.049-0.346-0.147-0.738 0-0.074 0.074-0.37 0.221-0.886v-1.035h-0.147c-0.098 0.012-0.147 0.063-0.147 0.149zM49.832 24.106v0.147c0 0.358 0.074 0.554 0.221 0.591h0.074v-0.221c0-0.27-0.098-0.444-0.295-0.518zM50.791 4.76c0 0.198-0.049 0.297-0.147 0.297l0.074 0.518v0.295l-0.812 0.665v0.074c0 0.074 0.074 0.147 0.221 0.221h0.518l0.297-0.221-0.074-0.518c0.049-0.616 0.074-0.984 0.074-1.107-0.049-0.098-0.074-0.172-0.074-0.221h-0.076zM50.274 25.877c0.074 0.198 0.147 0.297 0.221 0.297v-0.515c-0.035-0.002-0.11 0.074-0.221 0.219zM50.865 4.243v0.297h0.074c0.049-0.172 0.074-0.27 0.074-0.297h-0.147z"></path>
<path d="M59.209 1.289l0.368 0.221 0.37-0.221h0.591c0.554 0.196 1.023 0.295 1.403 0.295 0.505-0.196 0.824-0.295 0.959-0.295l1.033 0.295c0.025 0 0.123-0.025 0.297-0.072 0.196 0.098 0.368 0.145 0.516 0.145 0.319-0.098 0.493-0.145 0.518-0.145 0.319 0.145 0.542 0.219 0.665 0.219 1.119-0.295 1.759-0.442 1.919-0.442h0.074c0.074 0 0.172 0.098 0.297 0.295 0 2.586-0.172 4.038-0.518 4.357 0 1.207-0.393 1.945-1.182 2.215v0.591c0 0.184-0.123 0.405-0.368 0.665l0.074 0.295c0 0.221-0.395 1.035-1.182 2.436 0 0.16-0.37 0.849-1.109 2.068 0 0.751-0.518 1.86-1.551 3.324l0.074 0.147c0 0.233-0.172 0.479-0.516 0.736l0.074 0.444-0.591 1.033c0 0.248-0.419 1.158-1.254 2.733 0 0.147-0.542 1.354-1.624 3.619 0.123 0.049 0.37 0.1 0.738 0.147 0.098-0.047 0.172-0.074 0.221-0.074l0.37 0.074 0.738-0.074c0.147 0 0.344 0.049 0.591 0.147l1.995-0.147c0.049 0 0.123 0.027 0.221 0.074 0.27-0.047 0.493-0.074 0.665-0.074h0.959c0.172 0 0.393 0.027 0.665 0.074 0.849-0.123 1.489-0.297 1.919-0.518h0.147l0.221 0.147c-0.049 0.824-0.147 1.44-0.297 1.845v1.182c-0.061 0.491-0.16 0.738-0.297 0.738h-0.074c-0.198-0.061-0.297-0.284-0.297-0.665v-0.518c-0.086 0-0.16 0.125-0.221 0.37 0 0.554 0.172 0.947 0.518 1.18v0.297c0 0.125-0.272 0.245-0.812 0.37-0.147 0-0.959-0.074-2.436-0.221-0.456 0.147-0.726 0.221-0.812 0.221l-0.518-0.221c-0.248 0.147-0.493 0.221-0.738 0.221h-1.399c-0.493 0-0.738-0.049-0.738-0.147l-0.886 0.074h-2.436c-0.209 0-0.479-0.025-0.812-0.074-0.049 0.049-0.248 0.074-0.591 0.074h-0.074c-0.147 0-0.221-0.025-0.221-0.074l-0.37 0.074h-0.738c-0.196-0.086-0.297-0.258-0.297-0.518v-3.619c0-0.344 0.321-1.082 0.959-2.215 0-0.209 0.444-1.193 1.33-2.952 0.959-1.994 1.551-3.298 1.772-3.913 0-0.307 0.297-0.824 0.886-1.553 0.432-1.524 0.8-2.289 1.109-2.289 0.297-1.303 0.714-2.287 1.256-2.952 0.319-0.554 0.591-0.974 0.812-1.254 0-0.233 0.196-0.383 0.591-0.444v-0.52c0.098-0.123 0.147-0.196 0.147-0.221v-0.295c0-0.736 0.098-1.205 0.297-1.403v-0.147l-0.812-0.665-1.551-0.221c-0.321 0.098-0.542 0.145-0.665 0.145h-0.297c-0.714-0.098-1.107-0.145-1.18-0.145h-1.256c-0.344 0-0.714 0.072-1.109 0.219l-0.37-0.074c-0.442 0-0.788 0.174-1.033 0.518l-0.738 0.074-0.147-0.221v-0.074c0-0.059 0.147-0.479 0.444-1.254 0-0.125-0.025-0.319-0.074-0.591 0-1.772 0.221-2.657 0.665-2.657 0.319 0 0.64-0.049 0.959-0.147h0.221c0.344 0.012 0.518 0.059 0.518 0.147l0.516-0.074c0.196 0 0.64 0.025 1.33 0.074 0.321-0.147 0.714-0.223 1.182-0.223zM54.705 29.572l-0.074 0.147v0.074h0.37v-0.147l-0.297-0.074zM54.705 28.684v0.37h0.074v-0.37h-0.074zM55.001 3.651v0.074c0.012 0.1 0.061 0.147 0.147 0.147 0-0.098 0.025-0.147 0.074-0.147-0.049-0.098-0.074-0.172-0.074-0.219-0.098 0.010-0.147 0.059-0.147 0.145zM55.075 24.623v0.738h0.147l0.074-0.665c-0.049-0.098-0.074-0.172-0.074-0.221-0.098 0.010-0.147 0.061-0.147 0.147zM55.148 25.951l-0.074 0.37v1.256c0.147 0 0.221-0.272 0.221-0.812v-0.812h-0.147zM55.517 2.175c0 0.1-0.025 0.147-0.074 0.147 0.061 0.297 0.135 0.444 0.221 0.444 0.098-0.198 0.147-0.37 0.147-0.518l-0.147-0.074h-0.147zM55.517 29.645v0.074l0.297 0.074 0.074-0.147-0.147-0.074c-0.1 0.047-0.174 0.074-0.223 0.074zM55.59 28.905c0.049 0.086 0.074 0.184 0.074 0.297h0.147l-0.074-0.37-0.147 0.074zM55.887 24.032v0.147c0.098 0 0.147-0.047 0.147-0.147h-0.147zM56.625 3.578c0 0.321-0.025 0.567-0.074 0.738l0.074 0.147-0.074 0.444c0.11 0 0.211-0.272 0.297-0.812-0.098-0.196-0.147-0.37-0.147-0.518h-0.076zM56.846 21.078v0.221c0.012 0.098 0.061 0.147 0.147 0.147v-0.518c-0.098 0.014-0.147 0.063-0.147 0.149zM57.288 2.395c0.049 1.047 0.074 1.663 0.074 1.845h-0.074c0.123 0.493 0.248 0.738 0.37 0.738h0.37c0.098 0 0.147-0.049 0.147-0.147-0.061-1.87-0.184-2.807-0.37-2.807-0.344 0.002-0.518 0.125-0.518 0.37zM58.323 19.233v0.297l0.074 0.442c-0.147 0.248-0.221 0.493-0.221 0.738v0.665c0.098 0.689 0.172 1.649 0.221 2.878 0.11 0 0.184-0.123 0.221-0.37-0.147-0.245-0.221-0.442-0.221-0.589 0.11 0 0.184-0.125 0.221-0.37-0.037-0.393-0.086-0.591-0.147-0.591l0.074-0.736v-3.177c-0.147 0-0.221 0.272-0.221 0.814zM58.988 2.545c0 0.098-0.025 0.147-0.074 0.147 0 0.049 0.025 0.074 0.074 0.074 0 0.086-0.049 0.284-0.147 0.591 0 0.025 0.025 0.123 0.074 0.295-0.049 0.26-0.074 0.505-0.074 0.738 0.135 0 0.258-0.591 0.37-1.772l-0.147-0.074h-0.076zM59.283 16.204c0.049 0.1 0.074 0.174 0.074 0.221h0.074c0.098-0.319 0.147-0.542 0.147-0.665v-0.219h-0.074c-0.147 0-0.221 0.221-0.221 0.663zM59.579 29.938v0.147h0.147c0-0.096-0.049-0.147-0.147-0.147zM59.948 19.896c-0.098 0.346-0.147 0.64-0.147 0.888v0.738l-0.074 0.147h0.221v-0.074l0.221-1.626-0.147-0.074h-0.074zM60.021 27.281c0.245 0.577 0.368 1.045 0.368 1.403 0.383 0.923 0.653 1.391 0.812 1.403h0.442c0.074 0 0.172-0.319 0.297-0.959 0.074 0 0.172-0.297 0.297-0.888h-0.074c-0.235 0.248-0.505 0.37-0.812 0.37-0.788-0.577-1.18-1.021-1.18-1.328h-0.149zM60.171 4.834v0.221c0.098 0 0.147-0.049 0.147-0.147v-0.074h-0.147zM60.244 14.579c0.049 0.393 0.123 0.591 0.221 0.591h0.074c0.147-0.689 0.221-1.256 0.221-1.698-0.049-0.1-0.074-0.174-0.074-0.221h-0.074c-0.123 0-0.245 0.442-0.368 1.328zM61.351 27.133c0.049 0.098 0.074 0.172 0.074 0.221h0.297v-0.221h-0.37zM61.868 2.101v1.405h0.147v-0.52l-0.074-0.886h-0.074zM62.681 13.473v0.219c0.012 0.1 0.061 0.147 0.147 0.147v-0.368h-0.147zM62.681 30.087l0.147 0.074h0.074l0.074-0.368v-0.518c0.245-0.358 0.368-0.628 0.368-0.812v-0.147h-0.072c-0.198-0.002-0.395 0.589-0.591 1.772zM62.828 27.356h0.297c0.098 0 0.147-0.049 0.147-0.147s-0.049-0.147-0.147-0.147h-0.074c-0.076-0.002-0.149 0.096-0.223 0.295zM63.64 27.504l-0.074 0.147c0.012 0.098 0.061 0.145 0.147 0.145 0-0.047 0.025-0.123 0.074-0.219l-0.147-0.074zM63.714 29.864v0.074c0 0.074 0.098 0.174 0.297 0.297h0.442c0.344 0 0.518-0.221 0.518-0.663 0.147-0.049 0.221-0.198 0.221-0.444 0-0.086-0.049-0.233-0.147-0.444 0.098-0.147 0.172-0.565 0.221-1.254-1.033 1.156-1.551 1.968-1.551 2.434zM63.787 2.101v0.147c0 0.074 0.074 0.147 0.221 0.221v-0.147c-0.049-0.098-0.074-0.172-0.074-0.221h-0.147zM64.158 26.986v0.221h0.074c0.098 0 0.147-0.049 0.147-0.147v-0.074h-0.221zM64.452 11.627v0.219c0.061 0 0.184-0.123 0.37-0.368v-0.072h-0.147c-0.076 0-0.149 0.074-0.223 0.221z"></path>
<path d="M70.562 1.289c0.147 0 0.344 0.047 0.591 0.147 0.344-0.1 0.616-0.147 0.812-0.147l0.959 0.147c0.319-0.1 0.542-0.147 0.665-0.147h1.403c0.16 0 0.505 0.047 1.033 0.147 0.147 0 0.344-0.049 0.591-0.147 0.248 0 0.37 0.025 0.37 0.074 1.060-0.049 1.845-0.074 2.363-0.074h4.799c0.444 0 0.665 0.516 0.665 1.551 0.248 1.673 0.37 2.758 0.37 3.248l-0.297 0.147c-0.383-0.047-0.775-0.221-1.182-0.518l-0.147 0.074h-0.591c-0.172 0-0.393-0.025-0.665-0.074-0.098 0.049-0.172 0.074-0.221 0.074-0.147 0-0.221-0.025-0.221-0.074-0.493 0.049-0.861 0.074-1.109 0.074h-2.363c-0.061 0-0.333-0.047-0.812-0.147h-0.518c-0.098 0-0.344 0.049-0.738 0.147-0.248-0.086-0.37-0.209-0.37-0.368 0.098-0.824 0.27-1.612 0.518-2.363-0.098-0.468-0.147-0.837-0.147-1.109v-0.074c-0.344-0.047-0.542-0.074-0.591-0.074l-0.074 0.147v0.961l-0.147 1.328c0.098 0.653 0.196 1.047 0.295 1.182 0 0.059-0.27 0.456-0.812 1.18v0.147c0 0.344 0.049 0.616 0.147 0.812-0.098 0.196-0.147 0.468-0.147 0.81v1.551c0 0.198 0.049 0.518 0.147 0.961-0.098 0.456-0.147 0.724-0.147 0.81 0 0.591 0.518 0.984 1.551 1.182 0.086 0 0.282-0.049 0.591-0.147l0.444 0.074c1.193 0 2.277-0.198 3.248-0.591h0.297c0.098 0.012 0.147 0.061 0.147 0.147v0.37c0 0.172 0.025 0.393 0.074 0.665-0.098 0.196-0.147 0.368-0.147 0.515 0.049 0.147 0.098 0.221 0.147 0.221l-0.074 0.518v2.363l0.074 0.518-0.221 0.147h-0.147c-0.996-0.395-1.563-0.591-1.698-0.591-0.344 0.047-0.542 0.074-0.591 0.074-0.086 0-0.43-0.074-1.033-0.221-0.184 0.098-0.383 0.147-0.591 0.147-0.049 0-0.123-0.025-0.221-0.074-0.196 0.049-0.368 0.074-0.516 0.074l-0.297-0.074c-0.16 0.098-0.307 0.147-0.444 0.147h-0.147l-0.221-0.147c0.061-1.909 0.16-3.089 0.297-3.543-0.037-0.297-0.184-0.444-0.444-0.444-0.098 0.16-0.147 0.284-0.147 0.37-0.051 1.518-0.078 2.502-0.078 2.958-0.098 0.319-0.147 0.542-0.147 0.665v0.074c0.383 0 0.603 0.098 0.665 0.297l-0.444 0.589c0.049 2.363 0.074 4.185 0.074 5.466v1.698c0 0.221 0.196 0.64 0.591 1.254l0.518-0.074h0.074c0.172 0 0.393 0.027 0.665 0.074l0.518-0.147c0.824 0.049 1.465 0.074 1.919 0.074h1.845c0.209 0 0.407 0.027 0.591 0.074 0.196-0.047 0.395-0.074 0.591-0.074h1.256c0.184 0 0.601-0.147 1.254-0.444h0.147c0.074 0 0.147 0.074 0.221 0.221-0.27 3.052-0.518 4.578-0.738 4.578-0.086 0.049-0.184 0.074-0.297 0.074h-2.289c-2.105 0-3.729 0.025-4.873 0.074-0.972-0.049-2.498-0.074-4.578-0.074h-0.886c-0.248 0-0.37-0.049-0.37-0.147-0.248 0.147-0.444 0.221-0.591 0.221h-0.221c-0.11 0-0.184-0.125-0.221-0.37 0.297-0.751 0.442-1.219 0.442-1.403 0-0.726-0.025-1.219-0.074-1.477 0.049-1.023 0.074-1.958 0.074-2.807v-1.994c0-0.724-0.025-1.219-0.074-1.477 0.049-0.518 0.074-1.082 0.074-1.698v-5.319c0-0.172-0.025-0.393-0.074-0.663 0.049-0.1 0.074-0.174 0.074-0.221l-0.074-0.888 0.074-1.033c0-0.383-0.025-0.726-0.074-1.035 0.049-1.636 0.074-3.064 0.074-4.284v-2.725l-0.074-0.37h0.074l-0.44-1.403v-0.074c0.098-0.196 0.245-0.295 0.444-0.295zM71.154 2.175v0.297l0.516 2.512h0.074c0.049-0.172 0.074-0.272 0.074-0.297 0-0.233-0.147-0.947-0.442-2.142 0-0.245-0.049-0.37-0.147-0.37h-0.074zM71.301 8.156l-0.147 0.297c0 1.156 0.147 1.97 0.442 2.436l-0.221 1.254 0.442 2.142v0.665c0.037 0.297 0.11 0.444 0.221 0.444 0-0.248 0.025-0.37 0.074-0.37-0.086-0.319-0.184-1.133-0.297-2.436v-1.995c0-0.123-0.123-0.616-0.368-1.477l0.074-0.37c0.002-0.368-0.072-0.563-0.219-0.589zM71.448 27.796c0 0.147-0.025 0.221-0.074 0.221 0.049 0.1 0.074 0.174 0.074 0.221h0.074v-0.444h-0.074zM71.743 5.425c0 0.025-0.025 0.123-0.074 0.295 0 0.221 0.196 1.060 0.591 2.512 0.295 1.465 0.442 2.672 0.442 3.619h-0.074l0.074 0.147v0.147c0 0.049-0.025 0.074-0.074 0.074 0.074 0.198 0.147 0.297 0.221 0.297 0-0.047 0.025-0.074 0.074-0.074 0-0.047-0.025-0.123-0.074-0.221 0.049-1.082 0.123-1.87 0.221-2.363-0.344 0-0.64-1.205-0.886-3.619-0.049 0-0.172-0.27-0.37-0.81h-0.072zM72.778 1.731l-0.074 0.147c0.147 0.665 0.221 1.133 0.221 1.405v0.81c0.012 0.1 0.061 0.147 0.147 0.147v-0.884c0-0.147 0.074-0.444 0.221-0.888-0.061-0.491-0.233-0.738-0.516-0.738zM73.072 26.542l-0.074 0.37v1.033h0.074c0-0.64 0.098-1.082 0.297-1.328l-0.147-0.074h-0.149zM73.664 28.387v0.074c0 0.272 0.025 0.616 0.074 1.035-0.049 0.086-0.074 0.184-0.074 0.297h0.147v-0.147c0-0.16 0.025-0.284 0.074-0.37-0.049-0.591-0.123-0.888-0.221-0.888zM73.885 13.767v0.518c0.098 0 0.147-0.047 0.147-0.147l-0.074-0.37h-0.074zM74.181 2.101v0.886c0.297 0.307 0.442 0.603 0.442 0.886 0.11 0 0.184-0.172 0.221-0.515l-0.074-0.888h0.074c-0.049-0.393-0.172-0.591-0.368-0.591-0.196 0.076-0.295 0.149-0.295 0.223zM75.656 26.986c0 0.025-0.049 0.393-0.147 1.107v0.444h0.147c0.196-0.738 0.297-1.156 0.297-1.254v-0.147c0-0.098-0.049-0.147-0.147-0.147h-0.149zM76.397 13.622c-0.198 0.098-0.297 0.91-0.297 2.434-0.098 0.014-0.147 0.061-0.147 0.147v0.223h0.147c0.245-0.64 0.37-0.984 0.37-1.033s-0.049-0.297-0.147-0.738c0.147-0.258 0.221-0.505 0.221-0.738v-0.149c0-0.098-0.049-0.145-0.147-0.145zM77.135 2.101c0 0.863-0.123 1.845-0.37 2.954l0.147 0.221c0.591-0.049 0.886-0.125 0.886-0.221 0.049-1.624 0.123-2.436 0.221-2.436-0.098-0.37-0.147-0.616-0.147-0.738h-0.591c-0.098-0.002-0.145 0.074-0.145 0.221zM76.912 28.905c0.049 0.098 0.074 0.172 0.074 0.221h0.147c0.11-0.049 0.307-0.393 0.591-1.035 0.248-0.059 0.37-0.133 0.37-0.221v-0.368c0-0.074-0.074-0.147-0.221-0.221-0.233 0-0.456 0.393-0.665 1.18-0.037 0.002-0.137 0.149-0.297 0.444zM77.135 15.614c0.135 0 0.307-0.272 0.516-0.812l-0.074-0.147v-0.518c0-0.123 0.049-0.344 0.147-0.663l-0.147-0.076h-0.074c-0.123 0-0.245 0.738-0.368 2.215zM77.798 15.762l-0.074 0.37v0.074c0.012 0.1 0.061 0.147 0.147 0.147 0-0.047 0.025-0.245 0.074-0.591h-0.147z"></path>
<path d="M88.452 1.215l0.886 0.221c0.442-0.1 0.763-0.147 0.959-0.147 0.147 0 0.319 0.047 0.516 0.147 0.184-0.1 0.383-0.147 0.591-0.147h0.221c0.91 0 1.452 0.689 1.624 2.068 0.245 0.147 0.788 1.305 1.624 3.469l1.845 4.431c0 0.11 0.123 0.405 0.37 0.886 0 0.147 0.297 0.863 0.886 2.142 0.098 0.716 0.27 1.133 0.518 1.256 0 0.123 0.295 0.81 0.886 2.068 0.049 0.736 0.172 1.107 0.368 1.107h0.147c0.147-0.049 0.221-0.196 0.221-0.444v-2.657c0-0.53 0.025-0.949 0.074-1.256-0.049-0.356-0.074-0.8-0.074-1.328v-3.471c-0.098-0.716-0.147-1.109-0.147-1.182v-1.919c0-0.344 0.049-0.616 0.147-0.812-0.098-0.368-0.147-0.565-0.147-0.589 0.098-0.37 0.147-0.714 0.147-1.035v-0.665c0-0.16-0.221-0.751-0.665-1.774v-0.072c0.16-0.147 0.282-0.221 0.368-0.221 0.196 0 0.297 0.025 0.297 0.074l0.886-0.074h3.766c0.074 0 0.147 0.074 0.221 0.221v0.219c-0.196 0.186-0.368 0.677-0.516 1.479l0.074 0.886v1.405c0 0.059-0.049 0.331-0.147 0.81v3.177c0 0.344 0.049 0.616 0.147 0.81-0.049 0.272-0.074 0.468-0.074 0.591 0 0.11 0.025 0.211 0.074 0.297l-0.074 0.515c0 0.162 0.025 0.579 0.074 1.256l-0.147 0.591 0.147 0.663c-0.098 0.198-0.147 0.468-0.147 0.812v2.586c0 0.53 0.025 0.972 0.074 1.328-0.049 0.307-0.074 0.724-0.074 1.254v0.147c0 0.319 0.049 1.305 0.147 2.954-0.098 0.444-0.147 0.763-0.147 0.959v0.518l-0.221 0.297v0.591l0.151 0.221v0.074c0 0.135-0.049 0.284-0.147 0.444 0.049 1.096 0.098 1.759 0.147 1.994-0.049 0.086-0.074 0.554-0.074 1.405 0.074 0 0.27 0.219 0.591 0.663v0.147l-0.147 0.221-0.888-0.074h-0.444c-0.456 0-1.096 0.025-1.919 0.074-0.098-0.049-0.172-0.074-0.221-0.074-0.196 0.049-0.37 0.074-0.518 0.074-0.233 0-0.456-0.344-0.665-1.033-0.221-0.307-0.738-1.514-1.551-3.621-0.162-0.196-1.416-3.175-3.766-8.933-0.356-0.689-0.653-1.405-0.886-2.142-0.419-1.146-0.689-1.737-0.812-1.772v-0.665c0-0.184-0.123-0.383-0.37-0.591v-0.221c0-0.037 0.123-0.16 0.37-0.368v-0.223l-0.37 0.076c-0.074 0-0.295-0.174-0.665-0.518-0.147 0.53-0.221 0.849-0.221 0.959v0.074c0.098 0.837 0.147 1.305 0.147 1.405v0.886c0 0.16-0.049 0.505-0.147 1.035 0.16 0.444 0.258 0.663 0.297 0.663-0.049 0.665-0.074 1.158-0.074 1.479v0.808c0 0.888-0.025 1.747-0.074 2.586 0.049 0.432 0.074 0.802 0.074 1.107-0.049 0.898-0.074 1.467-0.074 1.7l0.074 0.663c-0.147 0.677-0.221 1.096-0.221 1.256 0.147 0.245 0.221 0.491 0.221 0.736v0.147c0 0.689-0.025 1.624-0.074 2.807 0.012 0.344 0.233 0.788 0.665 1.328v0.147c0 0.027-0.049 0.098-0.147 0.221-0.579-0.049-0.996-0.074-1.256-0.074h-2.807c-0.258 0-0.677 0.025-1.256 0.074-0.098-0.16-0.147-0.307-0.147-0.444l0.812-1.254c-0.049-0.738-0.074-1.281-0.074-1.624v-0.661c0-0.233 0.025-0.479 0.074-0.738-0.147-0.8-0.221-3.236-0.221-7.309v-3.396c0-0.393 0.025-0.91 0.074-1.553-0.049-0.086-0.074-0.209-0.074-0.368l0.074-0.665c0-0.049-0.025-0.245-0.074-0.591 0.049-0.331 0.074-0.603 0.074-0.81 0-0.248-0.049-0.37-0.147-0.37 0.049-0.812 0.074-1.428 0.074-1.845v-3.028c0-0.047 0.049-0.245 0.147-0.589-0.098-0.16-0.147-0.307-0.147-0.444 0-0.086 0.098-0.307 0.295-0.665-0.098-0.284-0.196-0.996-0.295-2.142-0.037 0-0.162-0.196-0.37-0.591v-0.223c0-0.16 0.419-0.26 1.256-0.297zM88.525 3.357l-0.297 1.107v0.221l0.074 0.444c-0.098 0.196-0.147 0.37-0.147 0.516 0.098 0.162 0.147 0.284 0.147 0.37h0.147c0.049-0.442 0.098-1.305 0.147-2.584v-0.074h-0.072zM88.525 24.771c0.098 0.307 0.147 0.505 0.147 0.591h0.074c0.196-1.366 0.297-2.426 0.297-3.177v-0.444c-0.235 0-0.407 1.013-0.518 3.030zM89.337 27.725c-0.196 0.503-0.37 1.119-0.518 1.845v0.515c0.012 0.1 0.061 0.147 0.147 0.147 0-0.393 0.147-1.033 0.444-1.919v-0.589h-0.074zM89.264 1.804l-0.147 0.221c0.209 0.061 0.356 0.186 0.444 0.37v1.403h0.074l0.074-0.368v-0.295c0-0.26-0.025-0.677-0.074-1.256l-0.37-0.076zM89.337 26.469v0.297h0.074v-0.297h-0.074zM89.706 14.95v0.665c0.098 0 0.147-0.049 0.147-0.147v-0.37c0-0.096-0.049-0.147-0.147-0.147zM90.739 1.878c-0.147 0.297-0.295 1.994-0.442 5.096-0.098 0.344-0.248 1.133-0.444 2.363l0.074 0.515c-0.049 1.367-0.074 2.475-0.074 3.324l0.147 0.074 0.147-0.518v-0.736c0.037-0.297 0.11-0.442 0.221-0.442l-0.074-0.738c0.245-2.856 0.368-4.603 0.368-5.243 0.098 0 0.196-0.665 0.297-1.997v-1.254c0.002-0.258-0.072-0.405-0.221-0.444zM90.002 29.645h0.147v-0.147c-0.098 0.010-0.147 0.061-0.147 0.147zM90.37 17.239v0.297h0.147v-0.147c0.002-0.1-0.049-0.149-0.147-0.149zM90.665 18.568c0.037 0.542 0.11 0.812 0.221 0.812 0.248-0.898 0.37-1.366 0.37-1.405v-0.221l-0.591 0.814zM90.814 20.413l-0.074 0.518v1.18c0.012 0.1 0.061 0.147 0.147 0.147h0.074v-0.074c0-0.086-0.025-0.675-0.074-1.772h-0.074zM90.888 11.773c-0.049 0.26-0.074 0.407-0.074 0.444l0.074 0.37c-0.049 0-0.074 0.025-0.074 0.074h0.147v-0.888h-0.074zM91.33 6.235v0.074c0 1.428-0.074 2.289-0.221 2.586 0.049 0.27 0.074 0.468 0.074 0.591-0.098 0.663-0.147 1.082-0.147 1.254v0.147h0.074c0.123 0 0.221-0.297 0.297-0.888-0.049-0.258-0.074-0.503-0.074-0.736l0.295-0.888c0-0.628 0.123-2.056 0.37-4.284 0-0.037 0.123-0.503 0.37-1.403-0.086-0.284-0.233-0.505-0.444-0.665-0.245 0-0.368 1.156-0.368 3.471-0.053 0.004-0.127 0.25-0.225 0.741zM92.733 4.020c0 0.1-0.025 0.147-0.074 0.147l0.074 0.37v0.147c-0.209 1.651-0.331 2.512-0.368 2.586 0 0.047 0.025 0.074 0.074 0.074 0 0.616-0.147 1.328-0.444 2.142-0.049 0.27-0.074 0.468-0.074 0.589 0.049 0.1 0.074 0.174 0.074 0.221h0.074c0.444-1.279 0.665-2.166 0.665-2.659 0.098-0.491 0.196-0.788 0.297-0.886-0.098-0.221-0.147-0.468-0.147-0.738l0.221-0.736v-0.295c0-0.638-0.123-0.961-0.37-0.961zM92.733 10.148c0 0.147 0.098 0.493 0.297 1.035h0.074l0.074-0.37-0.074-0.888h-0.149c-0.074 0.002-0.147 0.076-0.221 0.223zM96.278 12.955v0.297l0.074 0.37h0.074c0-0.147 0.025-0.221 0.074-0.221-0.061-0.297-0.135-0.446-0.221-0.446zM96.425 14.579v0.297h0.074v-0.297h-0.074zM96.794 17.901v0.147c0.012 0.1 0.061 0.147 0.147 0.147l0.074-0.147v-0.147h-0.221zM96.794 19.454v0.221h0.147c-0.049-0.1-0.074-0.174-0.074-0.221h-0.074zM99.453 26.395v0.221h0.221v-0.074c0-0.098-0.049-0.147-0.147-0.147h-0.074zM102.849 21.522v3.175h0.074c0-0.344 0.025-0.518 0.074-0.518l-0.074-0.147v-2.215c0-0.047 0.025-0.074 0.074-0.074-0.049-0.098-0.074-0.172-0.074-0.219h-0.074zM102.849 24.918v1.624h0.074c0-0.098 0.025-0.147 0.074-0.147l-0.074-0.147v-0.663c0-0.049 0.025-0.074 0.074-0.074-0.049-0.049-0.074-0.248-0.074-0.591h-0.074z"></path>
<path d="M111.508 1.215l0.738 0.074h1.328c0.284 0 0.677 0.025 1.182 0.074 0.086-0.049 0.211-0.074 0.37-0.074 0.098 0 0.147 0.025 0.147 0.074l0.886-0.074h3.248c0.614 0 1.254 0.515 1.919 1.551 0.64 0.432 0.959 0.849 0.959 1.254l-0.074 0.297 0.147 1.109c-0.147 0.8-0.221 1.784-0.221 2.952v0.591c0 0.344-0.074 0.714-0.221 1.107l0.37 0.812-0.074 0.518c0 1.735-0.049 3.801-0.147 6.202 0.098 0.491 0.147 0.935 0.147 1.328v2.289c0 1.6-0.025 3.347-0.074 5.243 0.049 0.358 0.074 1.023 0.074 1.994l-1.845 1.772c-0.258 0.346-0.505 0.518-0.738 0.518h-0.812l-0.442-0.074-0.147 0.074c-0.689-0.049-1.281-0.074-1.774-0.074h-0.368c-0.395 0-0.714 0.025-0.959 0.074-0.307-0.049-0.653-0.074-1.033-0.074h-1.109c-0.284 0-0.677 0.025-1.182 0.074-0.098-0.049-0.172-0.074-0.221-0.074-0.43 0.049-0.8 0.074-1.109 0.074h-0.297c-0.258 0-0.432-0.098-0.518-0.297v-0.518l0.074-0.442c-0.184-0.505-0.333-1.070-0.442-1.7h-0.074v0.591c0 0.198 0.025 0.393 0.074 0.591l-0.074 0.37c0.098 0.702 0.147 1.094 0.147 1.18-0.184 0.147-0.356 0.221-0.516 0.221h-0.147c-0.258 0-0.479-0.025-0.665-0.074-0.258 0.049-0.505 0.074-0.738 0.074h-0.149c-0.074 0-0.147-0.074-0.221-0.221 0.442-0.959 0.665-2.068 0.665-3.322-0.049-0.493-0.074-0.861-0.074-1.109v-8.046c0-0.047 0.025-0.074 0.074-0.074-0.049-0.245-0.098-0.368-0.147-0.368 0.049-0.812 0.074-1.428 0.074-1.847v-0.221c0-0.996-0.025-2.35-0.074-4.061 0.037-0.297 0.086-0.444 0.147-0.444-0.049-0.125-0.098-0.37-0.147-0.738 0.049-1.242 0.074-2.228 0.074-2.952v-2.142c0-0.049 0.025-0.074 0.074-0.074-0.098-0.198-0.147-0.468-0.147-0.812v-1.997c-0.245-0.603-0.368-0.923-0.368-0.959l0.221-0.147h0.442c0.209 0 0.407 0.047 0.591 0.147 0.196-0.1 0.468-0.147 0.812-0.147h0.074c0.172 0 0.368 0.098 0.591 0.295 0.086-0.196 0.258-0.295 0.518-0.295 0.233 0 0.479 0.025 0.738 0.074 0.295-0.037 0.442-0.084 0.442-0.147zM108.333 2.839v2.068h0.147v-0.37c0-0.258 0.025-0.479 0.074-0.665-0.037-0.689-0.11-1.033-0.221-1.033zM108.333 10.148v0.444h0.147v-0.444h-0.147zM108.775 23.441c0.098 0.319 0.147 0.542 0.147 0.663v2.807l0.074 0.37h0.074v-2.807c0-0.444-0.049-0.861-0.147-1.254-0.098 0-0.147 0.074-0.147 0.221zM108.998 13.031l0.147 0.074v-0.223c-0.098 0.012-0.147 0.063-0.147 0.149zM109.366 2.395c0.049 0.493 0.074 0.861 0.074 1.109v1.919h0.074c0.098-0.518 0.147-0.79 0.147-0.812l-0.074-0.37c0.037-0.297 0.086-0.444 0.147-0.444l-0.074-0.147v-0.072c0-0.047 0.025-0.072 0.074-0.072l-0.074-0.147v-0.593c0-0.211 0.074-0.479 0.221-0.812-0.049-0.098-0.074-0.172-0.074-0.221l-0.442 0.663zM109.366 19.307c0.049 0.736 0.074 1.281 0.074 1.624v0.959l0.444 2.289c0 1.428 0.196 2.142 0.591 2.142l0.297 0.147-0.074-0.886v-0.961c-0.196-0.542-0.297-0.91-0.297-1.107 0.098-0.321 0.147-0.542 0.147-0.665 0-0.444-0.27-0.961-0.812-1.551-0.137-1.33-0.26-1.992-0.37-1.992zM109.44 10.889v0.297h0.147v-0.149c0-0.098-0.049-0.147-0.147-0.147zM109.884 15.393v0.442c0.196 0.395 0.344 1.281 0.444 2.659 0.16 0.64 0.307 0.961 0.442 0.961h0.147l0.074-0.37v-2.142c-0.11-0.113-0.284-0.456-0.518-1.035-0.059 0-0.258-0.172-0.589-0.515zM110.399 4.834l-0.368 3.175c0.049 0.098 0.074 0.174 0.074 0.221h0.074l0.368-2.068v-0.589l-0.074-0.738h-0.074zM110.105 9.559l-0.074 0.368 0.442 2.363c0 0.049-0.025 0.074-0.074 0.074 0.147 1.428 0.297 2.142 0.444 2.142 0.049-0.098 0.074-0.172 0.074-0.221-0.147-0.714-0.221-1.403-0.221-2.068v-0.518c-0.297-1.021-0.442-1.735-0.442-2.14h-0.149zM110.696 26.763c0 0.319-0.025 0.738-0.074 1.254 0.061 0.444 0.16 0.665 0.297 0.665v-0.074c-0.049-0.935-0.098-1.551-0.147-1.845h-0.076zM111.655 29.349h-0.221l-0.368-0.074-0.074 0.37v0.219c0 0.074 0.074 0.147 0.221 0.221h0.074c0.209-0.393 0.454-0.589 0.738-0.589v-0.147c0-0.1-0.049-0.147-0.147-0.147l-0.223 0.147zM111.434 2.913v0.886h0.074l0.147-0.663c-0.049-0.1-0.074-0.172-0.074-0.221h-0.147zM113.723 5.793h-1.109c-0.356 0-0.603 0.567-0.738 1.7v1.033c-0.098 0.837-0.147 1.305-0.147 1.403 0 0.174 0.098 0.64 0.297 1.405 0 0.098-0.098 0.515-0.297 1.254 0 0.061 0.098 0.53 0.297 1.403 0 0.321-0.025 0.64-0.074 0.961 0.049 1.121 0.074 2.177 0.074 3.175v0.738c0 0.245-0.049 0.542-0.147 0.886 0 0.309 0.025 0.677 0.074 1.109-0.049 1.34-0.074 2.62-0.074 3.84v0.444c0 0.491 0.27 0.886 0.812 1.18h0.297c0.282 0 0.456 0.027 0.516 0.074 0.27-0.047 0.493-0.074 0.665-0.074h1.033c0.27 0 0.616 0.027 1.033 0.074 0.086-0.047 0.184-0.074 0.295-0.074 0.27 0.049 0.493 0.074 0.665 0.074 0.442-0.628 0.665-1.193 0.665-1.698v-8.866c0-0.663-0.025-1.205-0.074-1.624 0.049-0.331 0.074-0.849 0.074-1.551v-6.202c-0.196-0.258-0.516-0.503-0.959-0.738l-0.37 0.074-0.368-0.074-0.37 0.074c-0.172-0.047-0.27-0.074-0.297-0.074l-0.665 0.074-0.516-0.147c-0.182 0.098-0.38 0.147-0.589 0.147zM112.764 29.275v0.147h0.147c0-0.1-0.049-0.147-0.147-0.147zM113.723 29.275v0.074c0.049 0.297 0.123 0.444 0.221 0.444l0.074-0.147c-0.098-0.223-0.196-0.346-0.295-0.37zM114.462 1.878c-0.086 0.358-0.16 1.416-0.221 3.177l0.147 0.074c0.135 0 0.233-0.984 0.295-2.954-0.049-0.086-0.074-0.184-0.074-0.297h-0.147zM115.421 2.471v0.147c0.098 0 0.147-0.049 0.147-0.147h-0.147zM115.421 2.987v0.297h0.074v-0.297h-0.074zM118.743 4.39l-0.074 0.518v2.068c0.012 0.098 0.061 0.147 0.147 0.147l0.074-0.738v-1.847c0.002-0.098-0.047-0.147-0.147-0.147zM118.743 23.883v0.221h0.074v-0.221h-0.074zM119.482 18.568c-0.245 0.738-0.368 1.281-0.368 1.624v1.182c-0.196 0.751-0.297 1.266-0.297 1.551l0.37-0.221 0.368 0.074 0.147-0.221c-0.098-0.444-0.147-0.763-0.147-0.959v-0.665l-0.147-0.518c0-0.037 0.123-0.356 0.368-0.959-0.098-0.444-0.147-0.738-0.147-0.888h-0.147zM120.222 5.351c-0.198 0.456-0.297 0.724-0.297 0.81v0.591c0 3.175-0.049 5.857-0.147 8.050 0.098 0 0.147 0.074 0.147 0.221h0.074v-1.624c0-0.221 0.074-0.689 0.221-1.405-0.049-0.196-0.074-0.368-0.074-0.515l0.147-1.405c0-0.11-0.025-0.209-0.074-0.297 0.098-0.65 0.147-1.636 0.147-2.952v-1.107l-0.074-0.368h-0.072zM121.108 19.233l-0.074 0.736v0.888c0.147 0 0.221-0.27 0.221-0.812v-0.297l-0.074-0.515h-0.074zM121.108 21.964l-0.074 0.444v0.37h0.074c0-0.061 0.025-0.307 0.074-0.738v-0.074h-0.074z"></path>
<path d="M125.001 1.289c0.147 0 0.344 0.047 0.591 0.147 0.344-0.1 0.616-0.147 0.812-0.147l0.959 0.147c0.319-0.1 0.542-0.147 0.665-0.147h1.403c0.16 0 0.505 0.047 1.033 0.147 0.147 0 0.344-0.049 0.591-0.147 0.248 0 0.37 0.025 0.37 0.074 1.060-0.049 1.845-0.074 2.363-0.074h4.799c0.444 0 0.665 0.516 0.665 1.551 0.248 1.673 0.37 2.758 0.37 3.248l-0.297 0.147c-0.383-0.047-0.775-0.221-1.182-0.518l-0.145 0.076h-0.591c-0.172 0-0.393-0.025-0.665-0.074-0.098 0.049-0.172 0.074-0.221 0.074-0.147 0-0.221-0.025-0.221-0.074-0.493 0.049-0.861 0.074-1.109 0.074h-2.363c-0.061 0-0.333-0.047-0.812-0.147h-0.518c-0.098 0-0.344 0.049-0.738 0.147-0.248-0.086-0.37-0.209-0.37-0.368 0.098-0.824 0.27-1.612 0.518-2.363-0.098-0.468-0.147-0.837-0.147-1.109v-0.076c-0.344-0.047-0.542-0.074-0.591-0.074l-0.074 0.147v0.961l-0.147 1.328c0.098 0.653 0.196 1.047 0.295 1.182 0 0.059-0.27 0.456-0.812 1.18v0.147c0 0.344 0.049 0.616 0.147 0.812-0.098 0.196-0.147 0.468-0.147 0.81v1.551c0 0.198 0.049 0.518 0.147 0.961-0.098 0.456-0.147 0.724-0.147 0.81 0 0.591 0.518 0.984 1.551 1.182 0.086 0 0.282-0.049 0.591-0.147l0.444 0.074c1.193 0 2.277-0.198 3.248-0.591h0.297c0.098 0.012 0.147 0.061 0.147 0.147v0.37c0 0.172 0.025 0.393 0.074 0.665-0.098 0.196-0.147 0.368-0.147 0.515 0.049 0.147 0.098 0.221 0.147 0.221l-0.074 0.518v2.363l0.074 0.518-0.221 0.147h-0.147c-0.996-0.395-1.563-0.591-1.698-0.591-0.344 0.047-0.542 0.074-0.591 0.074-0.086 0-0.43-0.074-1.033-0.221-0.184 0.098-0.383 0.147-0.591 0.147-0.049 0-0.123-0.025-0.221-0.074-0.196 0.049-0.368 0.074-0.516 0.074l-0.297-0.074c-0.16 0.098-0.307 0.147-0.444 0.147h-0.147l-0.221-0.147c0.061-1.909 0.16-3.089 0.297-3.543-0.037-0.297-0.184-0.444-0.444-0.444-0.098 0.16-0.147 0.284-0.147 0.37-0.053 1.518-0.078 2.502-0.078 2.958-0.098 0.319-0.147 0.542-0.147 0.665v0.074c0.383 0 0.603 0.098 0.665 0.297l-0.444 0.589c0.049 2.363 0.074 4.185 0.074 5.466v1.698c0 0.221 0.196 0.64 0.591 1.254l0.518-0.074h0.074c0.172 0 0.393 0.027 0.665 0.074l0.518-0.147c0.824 0.049 1.465 0.074 1.919 0.074h1.845c0.209 0 0.407 0.027 0.591 0.074 0.196-0.047 0.395-0.074 0.591-0.074h1.256c0.184 0 0.601-0.147 1.254-0.444h0.147c0.074 0 0.147 0.074 0.221 0.221-0.27 3.052-0.518 4.578-0.738 4.578-0.086 0.049-0.184 0.074-0.297 0.074h-2.289c-2.105 0-3.729 0.025-4.873 0.074-0.972-0.049-2.498-0.074-4.578-0.074h-0.886c-0.248 0-0.37-0.049-0.37-0.147-0.248 0.147-0.444 0.221-0.591 0.221h-0.221c-0.11 0-0.184-0.125-0.221-0.37 0.297-0.751 0.442-1.219 0.442-1.403 0-0.726-0.025-1.219-0.074-1.477 0.049-1.023 0.074-1.958 0.074-2.807v-1.994c0-0.724-0.025-1.219-0.074-1.477 0.049-0.518 0.074-1.082 0.074-1.698v-5.319c0-0.172-0.025-0.393-0.074-0.663 0.049-0.1 0.074-0.174 0.074-0.221l-0.074-0.888 0.074-1.033c0-0.383-0.025-0.726-0.074-1.035 0.049-1.636 0.074-3.064 0.074-4.284v-2.725l-0.074-0.37h0.074l-0.44-1.403v-0.074c0.098-0.196 0.245-0.295 0.442-0.295zM125.594 2.175v0.297l0.516 2.512h0.074c0.049-0.172 0.074-0.272 0.074-0.297 0-0.233-0.147-0.947-0.442-2.142 0-0.245-0.049-0.37-0.147-0.37h-0.074zM125.742 8.156l-0.147 0.297c0 1.156 0.147 1.97 0.442 2.436l-0.221 1.254 0.442 2.142v0.665c0.037 0.297 0.11 0.444 0.221 0.444 0-0.248 0.025-0.37 0.074-0.37-0.086-0.319-0.184-1.133-0.297-2.436v-1.995c0-0.123-0.123-0.616-0.368-1.477l0.074-0.37c0.002-0.368-0.072-0.563-0.219-0.589zM125.889 27.796c0 0.147-0.025 0.221-0.074 0.221 0.049 0.1 0.074 0.174 0.074 0.221h0.074v-0.444h-0.074zM126.183 5.425c0 0.025-0.025 0.123-0.074 0.295 0 0.221 0.196 1.060 0.591 2.512 0.295 1.465 0.442 2.672 0.442 3.619h-0.074l0.074 0.147v0.147c0 0.049-0.025 0.074-0.074 0.074 0.074 0.198 0.147 0.297 0.221 0.297 0-0.047 0.025-0.074 0.074-0.074 0-0.047-0.025-0.123-0.074-0.221 0.049-1.082 0.123-1.87 0.221-2.363-0.344 0-0.64-1.205-0.886-3.619-0.049 0-0.172-0.27-0.37-0.81h-0.072zM127.217 1.731l-0.074 0.147c0.147 0.665 0.221 1.133 0.221 1.405v0.81c0.012 0.1 0.061 0.147 0.147 0.147v-0.884c0-0.147 0.074-0.444 0.221-0.888-0.059-0.491-0.231-0.738-0.516-0.738zM127.513 26.542l-0.074 0.37v1.033h0.074c0-0.64 0.098-1.082 0.297-1.328l-0.147-0.074h-0.149zM128.104 28.387v0.074c0 0.272 0.025 0.616 0.074 1.035-0.049 0.086-0.074 0.184-0.074 0.297h0.147v-0.147c0-0.16 0.025-0.284 0.074-0.37-0.049-0.591-0.123-0.888-0.221-0.888zM128.325 13.767v0.518c0.098 0 0.147-0.047 0.147-0.147l-0.074-0.37h-0.074zM128.62 2.101v0.886c0.297 0.307 0.442 0.603 0.442 0.886 0.11 0 0.184-0.172 0.221-0.515l-0.074-0.888h0.076c-0.049-0.393-0.172-0.591-0.368-0.591-0.198 0.076-0.297 0.149-0.297 0.223zM130.097 26.986c0 0.025-0.049 0.393-0.147 1.107v0.444h0.147c0.196-0.738 0.297-1.156 0.297-1.254v-0.147c0-0.098-0.049-0.147-0.147-0.147h-0.149zM130.835 13.622c-0.198 0.098-0.297 0.91-0.297 2.434-0.098 0.014-0.147 0.061-0.147 0.147v0.223h0.147c0.245-0.64 0.37-0.984 0.37-1.033s-0.049-0.297-0.147-0.738c0.147-0.258 0.221-0.505 0.221-0.738v-0.149c0.002-0.098-0.049-0.145-0.147-0.145zM131.574 2.101c0 0.863-0.123 1.845-0.37 2.954l0.147 0.221c0.591-0.049 0.886-0.125 0.886-0.221 0.049-1.624 0.123-2.436 0.221-2.436-0.098-0.37-0.147-0.616-0.147-0.738h-0.591c-0.096-0.002-0.145 0.074-0.145 0.221zM131.353 28.905c0.049 0.098 0.074 0.172 0.074 0.221h0.147c0.11-0.049 0.307-0.393 0.591-1.035 0.248-0.059 0.37-0.133 0.37-0.221v-0.368c0-0.074-0.074-0.147-0.221-0.221-0.233 0-0.456 0.393-0.665 1.18-0.039 0.002-0.137 0.149-0.297 0.444zM131.574 15.614c0.135 0 0.307-0.272 0.516-0.812l-0.074-0.147v-0.518c0-0.123 0.049-0.344 0.147-0.663l-0.145-0.076h-0.074c-0.125 0-0.248 0.738-0.37 2.215zM132.239 15.762l-0.074 0.37v0.074c0.012 0.1 0.061 0.147 0.147 0.147 0-0.047 0.025-0.245 0.074-0.591h-0.147z"></path>
<path d="M142.89 1.215l0.886 0.221c0.442-0.098 0.763-0.147 0.959-0.147 0.147 0 0.319 0.047 0.516 0.147 0.184-0.1 0.383-0.147 0.591-0.147h0.221c0.91 0 1.452 0.689 1.624 2.068 0.245 0.147 0.788 1.305 1.624 3.469l1.847 4.431c0 0.11 0.123 0.405 0.368 0.886 0 0.147 0.297 0.863 0.888 2.142 0.1 0.716 0.272 1.133 0.516 1.256 0 0.123 0.297 0.81 0.888 2.068 0.047 0.736 0.172 1.107 0.372 1.107h0.147c0.147-0.049 0.219-0.196 0.219-0.444v-2.657c0-0.53 0.025-0.949 0.072-1.256-0.047-0.356-0.072-0.8-0.072-1.328v-3.471c-0.1-0.716-0.147-1.109-0.147-1.182v-1.919c0-0.344 0.047-0.616 0.147-0.812-0.1-0.368-0.147-0.565-0.147-0.589 0.1-0.37 0.147-0.714 0.147-1.035v-0.665c0-0.16-0.219-0.751-0.663-1.774v-0.072c0.16-0.147 0.284-0.221 0.368-0.221 0.196 0 0.297 0.025 0.297 0.074l0.888-0.074h3.764c0.076 0 0.147 0.074 0.223 0.221v0.219c-0.2 0.186-0.372 0.677-0.52 1.479l0.076 0.886v1.405c0 0.059-0.047 0.331-0.147 0.81v3.177c0 0.344 0.047 0.616 0.147 0.81-0.047 0.272-0.076 0.468-0.076 0.591 0 0.11 0.029 0.211 0.076 0.297l-0.076 0.515c0 0.162 0.029 0.579 0.076 1.256l-0.147 0.591 0.147 0.663c-0.1 0.198-0.147 0.468-0.147 0.812v2.586c0 0.53 0.025 0.972 0.072 1.328-0.047 0.307-0.072 0.724-0.072 1.254v0.147c0 0.319 0.047 1.305 0.147 2.954-0.1 0.444-0.147 0.763-0.147 0.959v0.518l-0.219 0.297v0.591l0.143 0.219v0.074c0 0.135-0.047 0.284-0.143 0.444 0.047 1.096 0.096 1.759 0.143 1.994-0.047 0.086-0.072 0.554-0.072 1.405 0.072 0 0.272 0.219 0.591 0.663v0.147l-0.147 0.221-0.888-0.074h-0.444c-0.456 0-1.094 0.025-1.919 0.074-0.1-0.049-0.172-0.074-0.223-0.074-0.196 0.049-0.368 0.074-0.516 0.074-0.235 0-0.456-0.344-0.663-1.033-0.223-0.307-0.738-1.514-1.555-3.621-0.16-0.196-1.414-3.175-3.764-8.933-0.358-0.687-0.655-1.401-0.888-2.14-0.419-1.146-0.689-1.737-0.812-1.772v-0.665c0-0.184-0.123-0.383-0.37-0.591v-0.221c0-0.037 0.123-0.16 0.37-0.368v-0.223l-0.37 0.076c-0.074 0-0.295-0.174-0.665-0.518-0.147 0.53-0.221 0.849-0.221 0.959v0.074c0.098 0.837 0.147 1.305 0.147 1.405v0.886c0 0.16-0.049 0.505-0.147 1.035 0.16 0.444 0.258 0.663 0.297 0.663-0.049 0.665-0.074 1.158-0.074 1.479v0.808c0 0.888-0.025 1.747-0.074 2.586 0.049 0.432 0.074 0.802 0.074 1.107-0.049 0.898-0.074 1.467-0.074 1.7l0.074 0.663c-0.147 0.677-0.221 1.096-0.221 1.256 0.147 0.245 0.221 0.491 0.221 0.736v0.147c0 0.689-0.025 1.624-0.074 2.807 0.012 0.344 0.233 0.788 0.665 1.328v0.147c0 0.027-0.049 0.098-0.147 0.221-0.579-0.049-0.996-0.074-1.256-0.074h-2.807c-0.258 0-0.677 0.025-1.256 0.074-0.098-0.16-0.147-0.307-0.147-0.444l0.812-1.254c-0.049-0.738-0.074-1.281-0.074-1.624v-0.661c0-0.233 0.025-0.479 0.074-0.738-0.147-0.8-0.221-3.236-0.221-7.309v-3.396c0-0.393 0.025-0.91 0.074-1.553-0.049-0.086-0.074-0.209-0.074-0.368l0.074-0.665c0-0.049-0.025-0.245-0.074-0.591 0.049-0.331 0.074-0.603 0.074-0.81 0-0.248-0.049-0.37-0.147-0.37 0.049-0.812 0.074-1.428 0.074-1.845v-3.028c0-0.047 0.049-0.245 0.147-0.589-0.098-0.16-0.147-0.307-0.147-0.444 0-0.086 0.098-0.307 0.295-0.665-0.098-0.284-0.196-0.996-0.295-2.142-0.037 0-0.162-0.196-0.37-0.591v-0.223c0-0.16 0.419-0.26 1.256-0.297zM142.964 3.357l-0.297 1.107v0.221l0.074 0.444c-0.098 0.196-0.147 0.37-0.147 0.516 0.098 0.162 0.147 0.284 0.147 0.37h0.147c0.049-0.442 0.098-1.305 0.147-2.584v-0.074h-0.072zM142.964 24.771c0.098 0.307 0.147 0.505 0.147 0.591h0.074c0.196-1.366 0.297-2.426 0.297-3.177v-0.444c-0.235 0-0.407 1.013-0.518 3.030zM143.776 27.725c-0.196 0.503-0.37 1.119-0.518 1.845v0.515c0.012 0.1 0.061 0.147 0.147 0.147 0-0.393 0.147-1.033 0.444-1.919v-0.589h-0.074zM143.702 1.804l-0.147 0.221c0.209 0.061 0.356 0.186 0.444 0.37v1.403h0.074l0.074-0.368v-0.295c0-0.26-0.025-0.677-0.074-1.256l-0.37-0.076zM143.776 26.469v0.297h0.074v-0.297h-0.074zM144.144 14.95v0.665c0.098 0 0.147-0.049 0.147-0.147v-0.37c0.002-0.096-0.047-0.147-0.147-0.147zM145.179 1.878c-0.147 0.297-0.295 1.994-0.442 5.096-0.098 0.344-0.248 1.133-0.444 2.363l0.074 0.515c-0.049 1.367-0.074 2.475-0.074 3.324l0.147 0.074 0.147-0.518v-0.736c0.037-0.297 0.11-0.442 0.221-0.442l-0.074-0.738c0.245-2.856 0.368-4.603 0.368-5.243 0.098 0 0.196-0.665 0.297-1.997v-1.254c0-0.258-0.074-0.405-0.221-0.444zM144.441 29.645h0.147v-0.147c-0.098 0.010-0.147 0.061-0.147 0.147zM144.811 17.239v0.297h0.147v-0.147c0-0.1-0.051-0.149-0.147-0.149zM145.106 18.568c0.037 0.542 0.11 0.812 0.221 0.812 0.248-0.898 0.37-1.366 0.37-1.405v-0.221l-0.591 0.814zM145.253 20.413l-0.074 0.518v1.18c0.012 0.1 0.061 0.147 0.147 0.147h0.074v-0.074c0-0.086-0.025-0.675-0.074-1.772h-0.074zM145.327 11.773c-0.049 0.26-0.074 0.407-0.074 0.444l0.074 0.37c-0.049 0-0.074 0.025-0.074 0.074h0.147v-0.888h-0.074zM145.77 6.235v0.074c0 1.428-0.074 2.289-0.221 2.586 0.049 0.27 0.074 0.468 0.074 0.591-0.098 0.663-0.147 1.082-0.147 1.254v0.147h0.074c0.123 0 0.221-0.297 0.297-0.888-0.049-0.258-0.074-0.503-0.074-0.736l0.295-0.888c0-0.628 0.123-2.056 0.37-4.284 0-0.037 0.123-0.503 0.37-1.403-0.086-0.284-0.233-0.505-0.444-0.665-0.245 0-0.368 1.156-0.368 3.471-0.053 0.004-0.127 0.25-0.225 0.741zM147.172 4.020c0 0.1-0.025 0.147-0.074 0.147l0.074 0.37v0.147c-0.209 1.651-0.331 2.512-0.368 2.586 0 0.047 0.025 0.074 0.074 0.074 0 0.616-0.147 1.328-0.444 2.142-0.049 0.27-0.074 0.468-0.074 0.589 0.049 0.1 0.074 0.174 0.074 0.221h0.074c0.444-1.279 0.665-2.166 0.665-2.659 0.098-0.491 0.196-0.788 0.297-0.886-0.098-0.221-0.147-0.468-0.147-0.738l0.221-0.736v-0.295c0-0.638-0.123-0.961-0.37-0.961zM147.172 10.148c0 0.147 0.098 0.493 0.297 1.035h0.074l0.074-0.37-0.074-0.888h-0.147c-0.074 0.002-0.149 0.076-0.223 0.223zM150.717 12.955v0.297l0.074 0.37h0.074c0-0.147 0.025-0.221 0.074-0.221-0.061-0.297-0.135-0.446-0.221-0.446zM150.866 14.579v0.297h0.074v-0.297h-0.074zM151.232 17.901v0.147c0.012 0.1 0.063 0.147 0.147 0.147l0.076-0.147v-0.147h-0.223zM151.232 19.454v0.221h0.147c-0.047-0.1-0.072-0.174-0.072-0.221h-0.076zM153.894 26.395v0.221h0.219v-0.074c0-0.098-0.047-0.147-0.147-0.147h-0.072zM157.29 21.522v3.175h0.072c0-0.344 0.025-0.518 0.076-0.518l-0.076-0.147v-2.215c0-0.047 0.025-0.074 0.076-0.074-0.051-0.098-0.076-0.172-0.076-0.219h-0.072zM157.29 24.918v1.624h0.072c0-0.098 0.025-0.147 0.076-0.147l-0.076-0.147v-0.663c0-0.049 0.025-0.074 0.076-0.074-0.051-0.049-0.076-0.248-0.076-0.591h-0.072z"></path>
</svg>
