<!-- Generated by IcoMoon.io -->
<svg version="1.1" xmlns="http://www.w3.org/2000/svg" width="183" height="32" viewBox="0 0 183 32">
<title>wiezijnwij</title>
<path d="M1.367 1.452h0.22c0.441 0.147 0.686 0.22 0.734 0.22h0.073l0.734-0.22 0.368 0.22c-0.050 0.575-0.075 0.991-0.075 1.248v0.146c0 0.526 0.024 0.967 0.073 1.321-0.050 0.344-0.073 0.637-0.073 0.882 0 0.318 0.024 0.807 0.073 1.469-0.050 0.441-0.073 0.929-0.073 1.467l0.146 0.073c0.147-0.012 0.269-0.575 0.368-1.688l-0.146-1.174c0-0.672 0.147-1.359 0.441-2.055v-1.028l-0.22-0.295v-0.146c0.122-0.245 0.342-0.366 0.661-0.366 0.365 0.097 0.585 0.146 0.66 0.146 0.134 0 0.427-0.073 0.88-0.22 0.22 0.099 0.342 0.196 0.368 0.293v0.146c0 0.306-0.097 0.746-0.293 1.321 0.441 1.726 0.759 3.144 0.955 4.258l0.512 2.569c0.538 1.981 0.807 3.255 0.807 3.817 0.134 0.33 0.403 1.554 0.807 3.67 0.134 0 0.257 0.661 0.368 1.982l-0.075 0.147 0.366 0.66h0.147c0.342-1.271 0.538-2.446 0.587-3.522 0.281 0 0.453-0.661 0.514-1.982 0.208-0.832 0.38-1.248 0.514-1.248l0.147 0.073-0.073-0.441c0-1.076 0.22-2.349 0.661-3.817 0-0.245 0.147-1.028 0.441-2.349 0-0.208 0.245-1.236 0.734-3.083 0-0.049 0.024-0.245 0.073-0.587-0.099-0.759-0.147-1.321-0.147-1.688 0.073 0 0.146-0.073 0.22-0.22 0.943 0 1.505 0.123 1.689 0.366 0.306-0.231 0.502-0.354 0.587-0.366 0.465 0.049 0.832 0.123 1.101 0.22 0.318-0.097 0.538-0.147 0.661-0.147h0.366l0.441 0.073c0.085-0.049 0.208-0.073 0.366-0.073 0.147 0.158 0.22 0.281 0.22 0.366l-0.293 1.248v0.368c0.635 2.458 1.003 4.27 1.102 5.432 0.195 0.196 0.293 0.465 0.293 0.807v0.514c0.245 0.283 0.366 0.526 0.366 0.734 0 0.172-0.024 0.392-0.073 0.661 0.293 0.575 0.49 1.333 0.587 2.276 0.146 0.208 0.318 1.016 0.514 2.423 0.342 1.26 0.514 2.264 0.514 3.009-0.049 0.087-0.073 0.184-0.073 0.293 0.342 0.158 0.514 0.404 0.514 0.733h0.073c0.158 0 0.257-0.514 0.293-1.542 0.097-0.245 0.342-1.37 0.734-3.377 0.17 0 0.318-0.661 0.441-1.982 0.134-0.208 0.281-0.746 0.441-1.615 0.134-0.281 0.33-1.481 0.587-3.597 0.293 0 0.514-0.953 0.661-2.863h0.073l-0.073-0.147c0.147-0.306 0.293-0.868 0.441-1.688v-0.514c-0.097-0.708-0.147-1.076-0.147-1.101 0-0.195 0.122-0.366 0.366-0.514 0.245 0 0.368 0.049 0.368 0.147 0.049 0 0.073-0.024 0.073-0.073l0.441 0.073c0.502-0.049 0.892-0.073 1.174-0.073 0.401 0.097 0.67 0.146 0.806 0.146 0.819-0.147 1.456-0.22 1.908-0.22l0.22 0.293c-0.526 1.101-0.868 2.104-1.028 3.009l-0.807 3.744-0.88 3.817c0 0.366-0.097 0.832-0.293 1.394l-1.174 5.798c-0.184 0.575-0.354 1.307-0.514 2.201-0.109 0-0.208 0.564-0.293 1.689-0.097 0-0.22 0.587-0.366 1.76-0.123 0-0.293 0.733-0.514 2.201-0.135 0-0.257 0.515-0.368 1.543v0.073c0 0.147 0.073 0.637 0.22 1.469-0.073 0.243-0.245 0.366-0.514 0.366h-0.368c-0.109 0-0.429-0.073-0.953-0.222-0.184 0.097-0.38 0.149-0.587 0.149h-0.441c-0.38 0-0.722-0.026-1.028-0.075-0.686 0.097-1.2 0.147-1.542 0.147-0.195-0.208-0.293-0.404-0.293-0.587 0-0.062 0.049-0.331 0.147-0.807v-0.663c-0.245-0.941-0.392-1.748-0.441-2.422-0.134-0.097-0.306-0.759-0.514-1.982-0.123 0-0.245-0.71-0.366-2.128-0.087 0-0.184-0.439-0.293-1.321-0.147-0.243-0.514-2.128-1.101-5.652-0.109 0-0.208-0.195-0.293-0.587h0.073c-0.293-0.943-0.441-1.481-0.441-1.615v-0.731c-0.024-0.097-0.147-0.195-0.366-0.293-0.16 0-0.307 0.882-0.441 2.642-0.109 0-0.233 0.613-0.366 1.835-0.172 0.22-0.441 1.42-0.807 3.597-0.158 0-0.38 1.028-0.661 3.083-0.245 0-0.415 0.661-0.514 1.982-0.538 2.521-0.807 3.842-0.807 3.963 0 0.075 0.097 0.514 0.293 1.321 0 0.134-0.123 0.257-0.368 0.366-0.306-0.097-0.502-0.147-0.587-0.147l-0.366 0.147c-0.269-0.049-0.49-0.073-0.661-0.073l-0.441 0.073c-0.172-0.049-0.269-0.073-0.293-0.073-0.611 0.047-0.979 0.073-1.101 0.073-0.111 0-0.38-0.026-0.807-0.073-0.257 0.047-0.502 0.073-0.734 0.073-0.22-0.097-0.344-0.195-0.366-0.293l0.22-1.394c-0.587-3.010-1.101-5.383-1.542-7.121-0.257-0.477-0.477-1.774-0.661-3.89 0-0.342-0.123-0.686-0.368-1.028-0.097-0.342-0.146-0.635-0.146-0.88v-0.293c-0.293-0.306-0.441-0.991-0.441-2.055-0.037 0-0.109-0.269-0.22-0.807v-0.807c-0.345-0.22-0.515-0.661-0.515-1.321 0-0.049 0.024-0.073 0.073-0.073-0.245-0.441-0.366-1.174-0.366-2.201-0.344 0-0.587-1.052-0.734-3.156v-0.222c-0.293-0.306-0.441-0.868-0.441-1.688l0.22-0.147 0.293 0.146c0-0.344 0.049-0.734 0.147-1.175-0.049-0.096-0.073-0.17-0.073-0.219h-0.295v0.073c0 0.109 0.024 0.208 0.073 0.293-0.122 0.293-0.269 0.441-0.441 0.441-0.354 0-0.672-0.344-0.955-1.028v-0.22c0.002-0.073 0.1-0.17 0.295-0.293zM4.964 2.407v0.953c0 0.208-0.147 0.55-0.441 1.028-0.049 0.184-0.073 0.38-0.073 0.587 0.099 0.772 0.147 1.286 0.147 1.543v0.514c-0.099 0.708-0.147 1.101-0.147 1.174v0.807c0 0.38-0.049 1.040-0.147 1.982 0.050 0.429 0.074 0.696 0.074 0.807-0.049 0.085-0.073 0.184-0.073 0.293h0.22c0.257-3.278 0.55-4.918 0.88-4.918 0.134-0.49 0.257-0.832 0.366-1.028l-0.073-1.175 0.073-0.292c-0.097-0.196-0.146-0.465-0.146-0.809v-1.467c0-0.073-0.073-0.146-0.22-0.22h-0.22c-0.073 0-0.147 0.073-0.22 0.22zM5.405 10.481v0.147c0 0.049-0.026 0.073-0.073 0.073l0.073 0.147c0 0.404-0.123 1.187-0.368 2.349 0.037 0.783 0.109 1.174 0.22 1.174 0.097-0.111 0.172-0.599 0.22-1.469 0.196-0.233 0.293-0.477 0.293-0.734 0-0.22-0.024-0.366-0.073-0.441 0.049-0.415 0.073-0.757 0.073-1.026v-1.982c0.049-0.33 0.122-0.502 0.22-0.514-0.049-0.097-0.073-0.17-0.073-0.22h-0.073c-0.16 0-0.306 0.833-0.441 2.496zM5.625 15.399c0 0.109-0.097 0.404-0.293 0.882 0.245 0.759 0.391 1.321 0.441 1.688h0.293v-0.147c0-0.049-0.097-0.318-0.293-0.807 0.024-0.354 0.097-0.601 0.22-0.734-0.196-0.404-0.293-0.698-0.293-0.882h-0.074zM12.158 14.003c-0.097 0.821-0.147 1.286-0.147 1.396 0 0.073 0.024 0.417 0.073 1.028-0.047 0.269-0.073 0.49-0.073 0.66 0.097 0.16 0.147 0.283 0.147 0.368-0.097 0.635-0.172 1.224-0.22 1.762l0.22 0.147 0.147-0.22c-0.097-0.184-0.147-0.38-0.147-0.588 0-0.17 0.097-0.415 0.293-0.734l-0.073-0.366v-0.147c0-0.526-0.026-0.892-0.073-1.101 0.049-0.38 0.073-0.795 0.073-1.248v-0.514c0-0.255-0.073-0.403-0.22-0.441zM12.010 27.216v0.293c0.097 0 0.147-0.047 0.147-0.147v-0.147h-0.147zM15.461 2.039l-0.147 0.514v0.293c0.195 0.526 0.293 0.991 0.293 1.394v0.514c0.097 0 0.146-0.049 0.146-0.147v-0.733c0-0.122-0.049-0.342-0.146-0.661 0.049-0.415 0.073-0.734 0.073-0.953-0.049-0.097-0.073-0.172-0.073-0.22h-0.146zM18.397 16.059c0.097 0.158 0.147 0.306 0.147 0.441v0.073c0 0.111-0.024 0.208-0.073 0.293 0 0.049 0.024 0.073 0.073 0.073l-0.073 0.366v0.147c0.195 0.953 0.293 1.469 0.293 1.542 0 0.22 0.122 1.002 0.366 2.349 0 0.55 0.195 1.113 0.587 1.688 0.147 0.601 0.22 1.016 0.22 1.247v0.959l0.293 0.365v0.882c0.012 0.097 0.062 0.147 0.147 0.147 0.391-0.759 0.587-1.174 0.587-1.248 0-0.33-0.123-0.672-0.366-1.028 0-0.035-0.073-0.477-0.22-1.321 0.097-0.588 0.172-1.688 0.22-3.304 0.049 0 0.146-0.538 0.293-1.615-0.097-0.441-0.147-0.734-0.147-0.882 0.097-0.17 0.172-0.415 0.22-0.734-0.233 0-0.38 0.832-0.441 2.496-0.245 0.366-0.368 0.856-0.368 1.469l-0.366 0.366c-0.172-0.037-0.318-0.184-0.441-0.441 0-0.196 0.024-0.635 0.073-1.321 0-0.33-0.22-0.795-0.661-1.394 0-0.049-0.026-0.123-0.073-0.22 0-0.037 0.024-0.184 0.073-0.441-0.037-0.783-0.111-1.175-0.22-1.175-0.096 0-0.144 0.075-0.144 0.22zM18.983 11.802v0.366c0.123 1.174 0.318 1.762 0.587 1.762v0.147l-0.146 0.882c0 0.538 0.17 0.856 0.514 0.953 0.097-0.049 0.17-0.073 0.22-0.073v-0.073c0-1.236 0.097-2.092 0.293-2.569 0-0.135-0.245-0.233-0.734-0.293-0.392-0.783-0.587-1.2-0.587-1.248-0.097 0.012-0.147 0.061-0.147 0.146zM19.572 9.453l-0.073 0.368v0.073c0 0.306 0.147 0.649 0.441 1.028v-0.075c-0.075-0.929-0.198-1.394-0.368-1.394zM21.259 23.471v0.293h0.146v-0.293h-0.146zM21.627 24.723l0.073 0.514h0.073v-0.514h-0.146zM22.801 26.115v1.029c0 0.269 0.123 0.759 0.368 1.469l0.22 1.467c0.073 0 0.172 0.050 0.293 0.149h0.147c-0.635-2.081-0.955-3.451-0.955-4.112h-0.075zM23.388 21.931v0.368h0.147c0.049-0.673 0.147-1.309 0.293-1.909h-0.073c-0.172 0-0.293 0.514-0.368 1.542zM24.636 20.39c0 0.318-0.123 0.784-0.366 1.396v0.733h0.073c0.195-0.686 0.342-1.37 0.441-2.055l-0.147-0.073zM24.709 18.407v0.661c0.147-0.049 0.22-0.195 0.22-0.441v-0.661c-0.146 0.050-0.22 0.198-0.22 0.441zM24.929 16.647v0.514h0.073c0-0.109 0.024-0.208 0.073-0.293-0.049-0.097-0.073-0.172-0.073-0.22h-0.073zM25.004 14.444v0.807h0.073l0.073-0.366v-0.441h-0.146zM25.004 16.059v0.441h0.073v-0.441h-0.073zM25.37 21.492c0 0.172-0.123 0.588-0.366 1.247v0.663h0.073c0-0.258 0.146-0.819 0.441-1.689v-0.22h-0.147zM25.004 23.62v0.293h0.073v-0.293h-0.073zM25.664 12.022c-0.196 0.429-0.293 0.746-0.293 0.955v0.514c0.073 0 0.196-0.465 0.368-1.394v-0.075h-0.075zM25.738 16.94v0.146h0.073v-0.146h-0.073zM25.884 15.767c0.123 0 0.22-0.196 0.293-0.588v-1.028c-0.097 0-0.196 0.54-0.293 1.616zM26.544 11.802c-0.097 0.575-0.172 1.163-0.22 1.762 0.195 0 0.293-0.366 0.293-1.101v-0.661h-0.073zM26.544 7.618l-0.073 0.514c0.049 0.429 0.073 0.696 0.073 0.807h0.073v-1.321h-0.073zM26.618 16.647v0.073c-0.097 0.918-0.146 1.505-0.146 1.762v0.073l0.073 0.368h0.073v-1.028c0-0.441 0.049-0.856 0.147-1.248h-0.147zM27.132 14.151h0.147c0.196-0.819 0.293-1.333 0.293-1.542v-0.073h-0.073c-0.172 0-0.295 0.538-0.368 1.615zM27.353 7.177v0.074h0.147v-0.22c-0.099 0.012-0.147 0.061-0.147 0.146zM27.573 4.535c0 0.417-0.024 1.028-0.073 1.835h0.073c0.097 0 0.147-0.049 0.147-0.146v-1.321l-0.073-0.368h-0.075zM27.646 2.847l-0.073 0.366v0.073l0.073 0.368h0.073v-0.807h-0.073zM29.042 2.7c0 0.344-0.026 1.052-0.073 2.128l0.073 0.146c-0.196 0.514-0.293 0.856-0.293 1.028v1.615c0 0.208-0.024 0.477-0.073 0.807 0.049 0.123 0.097 0.366 0.147 0.734h0.073c0.184-1.554 0.306-3.047 0.366-4.477 0.123 0 0.245-0.807 0.368-2.422h-0.368c-0.149 0.050-0.22 0.196-0.22 0.441zM28.747 9.746v0.441h0.073v-0.441h-0.073z"></path>
<path d="M34.638 1.379c0.575 0.049 0.991 0.073 1.248 0.073l0.514-0.073c0.22 0.097 0.344 0.196 0.368 0.293-0.392 0.514-0.611 1.003-0.661 1.467 0.097 0.441 0.147 0.686 0.147 0.734-0.049 0.892-0.073 1.456-0.073 1.689 0 0.037 0.024 0.233 0.073 0.587-0.097 0.195-0.147 0.465-0.147 0.807v0.073c0.097 0.71 0.147 1.102 0.147 1.174v1.762l-0.147 1.323c0.097 0.832 0.147 1.394 0.147 1.688 0 0.269-0.049 0.635-0.147 1.101 0 0.123 0.024 0.318 0.073 0.587l-0.073 0.661 0.073 1.174-0.073 0.661 0.147 0.441c0 0.049-0.026 0.123-0.073 0.22 0.049 0.502 0.073 0.894 0.073 1.175 0 0.245-0.049 0.538-0.147 0.88 0.097 0.344 0.147 0.635 0.147 0.882v0.733c-0.097 0.832-0.147 1.298-0.147 1.394v0.515c0.097 0.71 0.147 1.075 0.147 1.101 0 0.123-0.049 0.366-0.147 0.734 0.147 0.318 0.22 0.538 0.22 0.66v0.075c-0.245 0.293-0.368 0.465-0.368 0.514l0.293 2.717 0.514 1.247v0.146c0 0.075-0.073 0.149-0.22 0.222h-0.293c-0.123 0-0.344-0.049-0.661-0.147-0.184 0.097-0.38 0.147-0.587 0.147h-0.22c-0.172 0-0.366-0.097-0.587-0.293-0.184 0.147-0.33 0.222-0.441 0.222-0.049 0-0.196-0.097-0.441-0.293-0.109 0.243-0.354 0.366-0.734 0.366h-0.953c-0.073 0-0.147-0.073-0.22-0.222v-0.073c0.342-1.418 0.514-2.226 0.514-2.422-0.049-2.974-0.073-5.348-0.073-7.121 0-0.16-0.049-0.526-0.147-1.102 0.147-0.648 0.22-1.7 0.22-3.156 0-0.122-0.024-0.49-0.073-1.101 0.097-1.125 0.146-1.835 0.146-2.128-0.097-0.415-0.172-0.88-0.22-1.394 0.097-0.795 0.146-1.309 0.146-1.542 0-0.097-0.024-0.147-0.073-0.147l0.073-0.514v-1.909c0-0.563-0.024-1.076-0.073-1.542 0.049-0.257 0.073-0.722 0.073-1.394v-0.807c0-0.158-0.024-0.281-0.073-0.368l0.073-0.441v-1.099l-0.514-0.514v-0.075c0-0.073 0.097-0.172 0.293-0.293h1.762c0.158 0 0.33 0.073 0.514 0.22h0.073c0.161-0.122 0.357-0.22 0.59-0.293zM32.728 22.959v0.075l0.073 1.174c0 0.049-0.024 0.123-0.073 0.222 0 0.109 0.123 0.819 0.368 2.128v1.172c0 0.283-0.026 0.673-0.073 1.175l0.293 1.101h0.073l0.22-0.147h0.147c0.036 0 0.184 0.147 0.441 0.441h0.073c0-0.123 0.024-0.319 0.073-0.587 0-0.16-0.22-0.356-0.661-0.588-0.147-0.184-0.22-0.404-0.22-0.661v-1.248c0-0.856-0.22-2.274-0.661-4.258h-0.073zM32.949 14.737c0 0.111 0.024 0.208 0.073 0.293-0.049 0.415-0.073 0.734-0.073 0.953 0.097 0.233 0.245 1.481 0.441 3.743v0.587c0 0.111 0.097 0.356 0.293 0.734h0.073v-1.762c0-0.403 0.097-0.868 0.293-1.394 0-0.17-0.22-0.49-0.661-0.953l-0.22-1.469c0.049-0.085 0.073-0.184 0.073-0.293 0.002-0.195-0.096-0.341-0.292-0.439zM33.242 6.149v0.146h0.073v-0.146h-0.073zM33.242 7.691v0.368h0.073v-0.368h-0.073zM33.242 9.012v0.147h0.073v-0.147h-0.073zM33.317 9.526v0.073c0.245 1.481 0.415 2.705 0.514 3.67 0.073 0.135 0.172 0.625 0.293 1.469h0.147v-2.788l-0.807-1.689c0-0.318-0.024-0.563-0.073-0.734h-0.075zM33.903 2.553v0.661h0.073l0.073-0.366v-0.295h-0.146zM33.903 5.709v0.147h0.073v-0.147h-0.073zM33.903 6.224c0 1.762 0.123 2.642 0.368 2.642v-1.542c-0.147-0.661-0.22-1.028-0.22-1.101h-0.147zM34.931 18.407v0.734c-0.147 0.635-0.22 0.979-0.22 1.028v5.211c0 0.147 0.073 0.441 0.22 0.882h0.073c0.097 0 0.146-0.050 0.146-0.149v-0.22c0-0.17-0.024-0.392-0.073-0.66 0.245-0.392 0.391-0.71 0.441-0.956l-0.147-0.292-0.147 0.073-0.146-0.073 0.073-0.734v-0.293c0-0.526-0.073-1.333-0.22-2.422 0.097-0.135 0.22-0.794 0.366-1.982v-0.073l-0.073-0.366c-0.071 0.002-0.17 0.099-0.292 0.293zM34.858 3.139v0.441c0.147 0.538 0.318 1.444 0.514 2.715h0.147c0-2.104-0.147-3.156-0.441-3.156h-0.22zM35.224 7.838v1.101h0.073c0.147-0.037 0.22-0.233 0.22-0.587l-0.073-0.661h-0.073c-0.099 0.012-0.147 0.062-0.147 0.147zM35.297 17.161l-0.073 0.368v0.293h0.073c0.049-0.342 0.097-0.563 0.147-0.661h-0.147z"></path>
<path d="M39.428 1.452c0.146 0 0.342 0.049 0.587 0.147 0.342-0.097 0.611-0.147 0.807-0.147l0.955 0.147c0.318-0.097 0.538-0.147 0.661-0.147h1.394c0.158 0 0.502 0.049 1.028 0.147 0.147 0 0.342-0.049 0.587-0.147 0.245 0 0.368 0.024 0.368 0.073 1.052-0.049 1.835-0.073 2.349-0.073h4.771c0.441 0 0.661 0.514 0.661 1.542 0.245 1.663 0.368 2.741 0.368 3.231l-0.296 0.146c-0.38-0.049-0.771-0.22-1.174-0.514l-0.147 0.073h-0.587c-0.172 0-0.391-0.024-0.661-0.073-0.097 0.049-0.17 0.073-0.219 0.073-0.147 0-0.22-0.024-0.22-0.073-0.49 0.049-0.857 0.073-1.101 0.073h-2.349c-0.061 0-0.33-0.049-0.807-0.147h-0.514c-0.097 0-0.342 0.049-0.733 0.147-0.245-0.085-0.368-0.208-0.368-0.366 0.097-0.819 0.269-1.602 0.514-2.349-0.097-0.465-0.146-0.832-0.146-1.101v-0.075c-0.344-0.049-0.538-0.073-0.587-0.073l-0.076 0.147v0.953l-0.147 1.321c0.097 0.649 0.195 1.040 0.293 1.175 0 0.061-0.269 0.452-0.807 1.174v0.146c0 0.344 0.049 0.613 0.146 0.807-0.097 0.196-0.146 0.465-0.146 0.807v1.542c0 0.195 0.049 0.514 0.146 0.953-0.097 0.453-0.146 0.722-0.146 0.807 0 0.587 0.514 0.979 1.542 1.174 0.085 0 0.281-0.049 0.587-0.147l0.441 0.073c1.186 0 2.262-0.195 3.231-0.587h0.293c0.097 0.012 0.147 0.062 0.147 0.147v0.366c0 0.172 0.024 0.392 0.073 0.661-0.097 0.196-0.147 0.368-0.147 0.514 0.049 0.147 0.097 0.22 0.147 0.22l-0.073 0.514v2.349l0.073 0.514-0.22 0.146h-0.147c-0.991-0.391-1.554-0.587-1.688-0.587-0.344 0.049-0.538 0.073-0.587 0.073-0.087 0-0.429-0.073-1.028-0.22-0.184 0.097-0.38 0.146-0.588 0.146-0.049 0-0.122-0.024-0.22-0.073-0.196 0.050-0.368 0.073-0.514 0.073l-0.293-0.073c-0.158 0.099-0.306 0.147-0.441 0.147h-0.147l-0.22-0.147c0.062-1.896 0.158-3.071 0.293-3.522-0.036-0.293-0.184-0.441-0.441-0.441-0.099 0.158-0.147 0.281-0.147 0.366-0.049 1.505-0.073 2.484-0.073 2.937-0.097 0.318-0.147 0.538-0.147 0.66v0.073c0.38 0 0.599 0.097 0.661 0.293l-0.441 0.587c0.049 2.349 0.073 4.159 0.073 5.43v1.689c0 0.22 0.195 0.635 0.587 1.247l0.514-0.073h0.073c0.17 0 0.391 0.026 0.661 0.073l0.514-0.146c0.819 0.047 1.456 0.073 1.908 0.073h1.835c0.208 0 0.404 0.026 0.587 0.073 0.196-0.047 0.391-0.073 0.587-0.073h1.248c0.184 0 0.6-0.147 1.248-0.441h0.147c0.073 0 0.147 0.075 0.22 0.22-0.269 3.034-0.514 4.552-0.734 4.552-0.087 0.049-0.184 0.075-0.293 0.075h-2.276c-2.092 0-3.706 0.024-4.845 0.073-0.967-0.049-2.484-0.073-4.552-0.073h-0.882c-0.245 0-0.366-0.050-0.366-0.149-0.245 0.149-0.441 0.222-0.587 0.222h-0.214c-0.109 0-0.184-0.123-0.22-0.366 0.293-0.745 0.441-1.212 0.441-1.396 0-0.722-0.026-1.212-0.073-1.467 0.049-1.016 0.073-1.944 0.073-2.791v-1.981c0-0.722-0.026-1.212-0.073-1.469 0.049-0.514 0.073-1.076 0.073-1.688v-5.278c0-0.172-0.026-0.392-0.073-0.661 0.049-0.097 0.073-0.172 0.073-0.22l-0.073-0.88 0.073-1.028c0-0.38-0.026-0.722-0.073-1.028 0.049-1.627 0.073-3.047 0.073-4.258v-2.715l-0.073-0.368h0.073l-0.441-1.394v-0.073c0.097-0.195 0.245-0.293 0.441-0.293zM40.015 2.334v0.293l0.514 2.496h0.073c0.049-0.17 0.073-0.269 0.073-0.293 0-0.233-0.147-0.943-0.441-2.128 0-0.245-0.049-0.366-0.146-0.366h-0.073zM40.161 8.278l-0.146 0.293c0 1.149 0.146 1.958 0.441 2.422l-0.22 1.248 0.441 2.128v0.661c0.036 0.293 0.109 0.441 0.22 0.441 0-0.245 0.024-0.366 0.073-0.366-0.085-0.318-0.184-1.127-0.293-2.423v-1.981c0-0.122-0.123-0.611-0.368-1.467l0.073-0.368c0-0.368-0.073-0.563-0.22-0.588zM40.308 27.804c0 0.146-0.024 0.22-0.073 0.22 0.049 0.097 0.073 0.172 0.073 0.22h0.073v-0.439h-0.073zM40.602 5.563c0 0.024-0.024 0.122-0.073 0.293 0 0.22 0.195 1.052 0.587 2.496 0.293 1.456 0.441 2.656 0.441 3.597h-0.073l0.073 0.146v0.147c0 0.049-0.024 0.073-0.073 0.073 0.073 0.196 0.147 0.293 0.22 0.293 0-0.049 0.024-0.073 0.073-0.073 0-0.049-0.024-0.123-0.073-0.22 0.049-1.076 0.123-1.859 0.22-2.349-0.344 0-0.635-1.2-0.882-3.597-0.049 0-0.172-0.269-0.366-0.807h-0.075zM41.629 1.893l-0.073 0.147c0.147 0.661 0.22 1.127 0.22 1.394v0.807c0.012 0.097 0.061 0.146 0.147 0.146v-0.88c0-0.147 0.073-0.441 0.22-0.882-0.062-0.488-0.234-0.733-0.515-0.733zM41.923 26.557l-0.073 0.365v1.028h0.073c0-0.635 0.097-1.075 0.293-1.32l-0.147-0.073h-0.146zM42.51 28.392v0.073c0 0.269 0.024 0.611 0.073 1.028-0.049 0.087-0.073 0.182-0.073 0.293h0.147v-0.147c0-0.158 0.024-0.283 0.073-0.368-0.049-0.587-0.123-0.879-0.22-0.879zM42.73 13.857v0.514c0.097 0 0.147-0.049 0.147-0.147l-0.073-0.366h-0.075zM43.023 2.259v0.88c0.293 0.306 0.441 0.601 0.441 0.882 0.111 0 0.184-0.172 0.22-0.514l-0.073-0.882h0.073c-0.049-0.391-0.172-0.587-0.368-0.587-0.195 0.075-0.293 0.147-0.293 0.22zM44.492 26.997c0 0.024-0.049 0.392-0.147 1.102v0.439h0.147c0.195-0.733 0.293-1.149 0.293-1.247v-0.147c0-0.097-0.049-0.147-0.147-0.147h-0.146zM45.226 13.711c-0.196 0.097-0.293 0.906-0.293 2.422-0.097 0.012-0.147 0.062-0.147 0.147v0.22h0.147c0.245-0.635 0.366-0.979 0.366-1.028s-0.049-0.293-0.146-0.734c0.146-0.257 0.22-0.502 0.22-0.734v-0.147c-0.002-0.097-0.050-0.146-0.147-0.146zM45.959 2.259c0 0.856-0.123 1.835-0.366 2.936l0.147 0.22c0.587-0.049 0.88-0.123 0.88-0.22 0.049-1.615 0.123-2.422 0.22-2.422-0.097-0.368-0.147-0.611-0.147-0.734h-0.587c-0.097 0-0.147 0.075-0.147 0.22zM45.74 28.906c0.049 0.097 0.073 0.17 0.073 0.22h0.146c0.111-0.049 0.306-0.392 0.587-1.028 0.245-0.062 0.368-0.135 0.368-0.22v-0.368c0-0.075-0.073-0.147-0.22-0.22-0.233 0-0.453 0.392-0.661 1.174-0.035 0.002-0.134 0.147-0.292 0.442zM45.959 15.692c0.135 0 0.306-0.269 0.514-0.807l-0.073-0.147v-0.514c0-0.123 0.049-0.342 0.146-0.661l-0.146-0.073h-0.073c-0.122 0.002-0.245 0.734-0.368 2.203zM46.62 15.838l-0.073 0.368v0.073c0.012 0.097 0.062 0.147 0.147 0.147 0-0.049 0.024-0.245 0.073-0.588h-0.147z"></path>
<path d="M70.606 1.452l0.366 0.22 0.368-0.22h0.587c0.55 0.196 1.016 0.293 1.394 0.293 0.502-0.196 0.819-0.293 0.953-0.293l1.028 0.293c0.024 0 0.122-0.024 0.293-0.073 0.196 0.097 0.366 0.146 0.514 0.146 0.319-0.097 0.491-0.146 0.515-0.146 0.318 0.146 0.538 0.22 0.661 0.22 1.113-0.293 1.75-0.441 1.908-0.441h0.073c0.073 0 0.172 0.097 0.293 0.293 0 2.568-0.172 4.012-0.514 4.331 0 1.2-0.392 1.932-1.174 2.201v0.587c0 0.184-0.123 0.404-0.368 0.661l0.073 0.293c0 0.22-0.392 1.028-1.174 2.422 0 0.158-0.368 0.844-1.101 2.055 0 0.746-0.514 1.847-1.542 3.304l0.073 0.146c0 0.233-0.172 0.477-0.514 0.734l0.073 0.441-0.588 1.028c0 0.243-0.415 1.149-1.248 2.715 0 0.147-0.538 1.347-1.615 3.597 0.122 0.047 0.366 0.097 0.734 0.146 0.097-0.047 0.17-0.073 0.22-0.073l0.368 0.073 0.734-0.073c0.146 0 0.342 0.049 0.587 0.147l1.982-0.147c0.049 0 0.122 0.026 0.22 0.073 0.269-0.047 0.49-0.073 0.661-0.073h0.955c0.17 0 0.391 0.026 0.661 0.073 0.844-0.122 1.481-0.293 1.908-0.514h0.147l0.22 0.147c-0.049 0.821-0.147 1.432-0.293 1.836v1.172c-0.062 0.49-0.16 0.734-0.293 0.734h-0.073c-0.196-0.061-0.293-0.281-0.293-0.661v-0.511c-0.087 0-0.16 0.122-0.22 0.366 0 0.55 0.172 0.943 0.514 1.174v0.293c0 0.122-0.269 0.243-0.807 0.366-0.147 0-0.955-0.073-2.423-0.222-0.453 0.149-0.722 0.222-0.807 0.222l-0.514-0.222c-0.245 0.149-0.49 0.222-0.733 0.222h-1.399c-0.49 0-0.734-0.049-0.734-0.147l-0.882 0.075h-2.422c-0.208 0-0.477-0.026-0.807-0.075-0.049 0.049-0.245 0.075-0.587 0.075h-0.073c-0.146 0-0.22-0.026-0.22-0.075l-0.368 0.075h-0.733c-0.195-0.087-0.293-0.258-0.293-0.514v-3.597c0-0.344 0.318-1.076 0.953-2.201 0-0.208 0.441-1.187 1.321-2.937 0.955-1.982 1.542-3.279 1.762-3.89 0-0.306 0.293-0.819 0.88-1.542 0.429-1.517 0.795-2.276 1.101-2.276 0.293-1.297 0.71-2.276 1.248-2.937 0.318-0.55 0.588-0.965 0.807-1.248 0-0.233 0.196-0.379 0.587-0.441v-0.509c0.097-0.123 0.147-0.196 0.147-0.22v-0.293c0-0.734 0.097-1.2 0.293-1.394v-0.147l-0.806-0.661-1.542-0.22c-0.318 0.097-0.538 0.147-0.661 0.147h-0.293c-0.71-0.097-1.102-0.147-1.174-0.147h-1.248c-0.344 0-0.71 0.073-1.102 0.22l-0.366-0.073c-0.441 0-0.783 0.172-1.028 0.514l-0.733 0.073-0.147-0.22v-0.073c0-0.062 0.147-0.477 0.441-1.248 0-0.123-0.024-0.318-0.073-0.588 0-1.762 0.22-2.642 0.661-2.642 0.318 0 0.635-0.049 0.955-0.147h0.22c0.344 0.012 0.514 0.062 0.514 0.147l0.514-0.073c0.195 0 0.635 0.024 1.321 0.073 0.315-0.146 0.707-0.219 1.172-0.219zM66.128 29.565l-0.073 0.149v0.073h0.366v-0.147l-0.293-0.075zM66.128 28.684v0.366h0.073v-0.366h-0.073zM66.42 3.801v0.073c0.012 0.097 0.062 0.147 0.147 0.147 0-0.097 0.024-0.147 0.073-0.147-0.049-0.097-0.073-0.17-0.073-0.22-0.097 0.014-0.147 0.062-0.147 0.147zM66.495 24.648v0.733h0.147l0.073-0.66c-0.049-0.097-0.073-0.172-0.073-0.222-0.099 0.014-0.147 0.062-0.147 0.149zM66.568 25.969l-0.073 0.366v1.248c0.147 0 0.22-0.271 0.22-0.807v-0.807h-0.147zM66.936 2.334c0 0.097-0.026 0.146-0.073 0.146 0.061 0.293 0.134 0.441 0.22 0.441 0.097-0.196 0.147-0.368 0.147-0.514l-0.147-0.073h-0.147zM66.936 29.639v0.075l0.293 0.073 0.073-0.147-0.147-0.075c-0.097 0.050-0.17 0.075-0.219 0.075zM67.009 28.906c0.049 0.085 0.073 0.182 0.073 0.293h0.147l-0.073-0.368-0.147 0.075zM67.302 24.060v0.147c0.097 0 0.147-0.049 0.147-0.147h-0.147zM68.036 3.728c0 0.318-0.024 0.564-0.073 0.734l0.073 0.147-0.073 0.441c0.109 0 0.208-0.269 0.293-0.807-0.099-0.196-0.147-0.368-0.147-0.514h-0.073zM68.257 21.124v0.222c0.012 0.097 0.061 0.147 0.146 0.147v-0.514c-0.097 0.011-0.146 0.059-0.146 0.144zM68.698 2.553c0.049 1.040 0.073 1.651 0.073 1.835h-0.073c0.122 0.49 0.245 0.734 0.366 0.734h0.368c0.097 0 0.146-0.049 0.146-0.147-0.061-1.859-0.184-2.788-0.366-2.788-0.344 0-0.514 0.123-0.514 0.366zM69.724 19.289v0.293l0.073 0.441c-0.147 0.245-0.22 0.488-0.22 0.734v0.66c0.097 0.686 0.172 1.639 0.22 2.863 0.109 0 0.184-0.122 0.22-0.365-0.147-0.246-0.22-0.442-0.22-0.588 0.109 0 0.184-0.122 0.22-0.368-0.037-0.391-0.087-0.587-0.147-0.587l0.073-0.734v-3.156c-0.144 0-0.219 0.269-0.219 0.807zM70.385 2.7c0 0.097-0.024 0.147-0.073 0.147 0 0.049 0.024 0.073 0.073 0.073 0 0.085-0.049 0.281-0.147 0.587 0 0.024 0.024 0.123 0.073 0.293-0.049 0.257-0.073 0.502-0.073 0.734 0.135 0 0.257-0.587 0.368-1.762l-0.147-0.073h-0.073zM70.678 16.279c0.049 0.097 0.073 0.172 0.073 0.22h0.073c0.097-0.318 0.146-0.538 0.146-0.661v-0.22h-0.073c-0.144 0.002-0.219 0.22-0.219 0.661zM70.972 29.932v0.146h0.147c0-0.097-0.049-0.146-0.147-0.146zM71.34 19.95c-0.097 0.342-0.147 0.635-0.147 0.88v0.733l-0.073 0.147h0.22v-0.075l0.22-1.615-0.146-0.073h-0.075zM71.413 27.29c0.245 0.575 0.366 1.040 0.366 1.394 0.38 0.918 0.648 1.382 0.807 1.394h0.441c0.073 0 0.172-0.318 0.293-0.953 0.073 0 0.17-0.293 0.293-0.882h-0.073c-0.233 0.246-0.502 0.368-0.807 0.368-0.783-0.576-1.175-1.016-1.175-1.321h-0.146zM71.559 4.974v0.22c0.097 0 0.147-0.049 0.147-0.147v-0.073h-0.147zM71.633 14.664c0.049 0.392 0.123 0.587 0.22 0.587h0.073c0.147-0.684 0.22-1.248 0.22-1.688-0.049-0.097-0.073-0.172-0.073-0.22h-0.075c-0.122 0-0.245 0.441-0.366 1.321zM72.734 27.143c0.049 0.097 0.073 0.17 0.073 0.22h0.293v-0.22h-0.366zM73.248 2.259v1.394h0.147v-0.514l-0.073-0.88h-0.075zM74.055 13.564v0.22c0.012 0.097 0.062 0.146 0.147 0.146v-0.366h-0.147zM74.055 30.078l0.147 0.075h0.073l0.073-0.366v-0.515c0.245-0.353 0.366-0.623 0.366-0.806v-0.147h-0.073c-0.195 0-0.391 0.588-0.587 1.76zM74.202 27.363h0.293c0.097 0 0.147-0.049 0.147-0.147s-0.049-0.146-0.147-0.146h-0.073c-0.075 0.002-0.147 0.099-0.22 0.293zM75.010 27.511l-0.073 0.147c0.012 0.097 0.061 0.147 0.147 0.147 0-0.049 0.024-0.122 0.073-0.22l-0.147-0.075zM75.083 29.859v0.075c0 0.073 0.097 0.17 0.293 0.293h0.441c0.342 0 0.514-0.222 0.514-0.663 0.147-0.047 0.22-0.195 0.22-0.439 0-0.087-0.049-0.231-0.147-0.441 0.097-0.147 0.17-0.563 0.22-1.248-1.028 1.152-1.542 1.958-1.542 2.423zM75.157 2.259v0.146c0 0.073 0.073 0.147 0.22 0.22v-0.146c-0.049-0.097-0.073-0.17-0.073-0.22h-0.147zM75.524 26.997v0.22h0.073c0.097 0 0.147-0.047 0.147-0.146v-0.075h-0.22zM75.817 11.729v0.22c0.061 0 0.184-0.123 0.366-0.368v-0.073h-0.147c-0.073 0-0.146 0.073-0.219 0.22z"></path>
<path d="M84.68 1.379c0.575 0.049 0.991 0.073 1.248 0.073l0.514-0.073c0.22 0.097 0.344 0.196 0.368 0.293-0.392 0.514-0.611 1.003-0.661 1.467 0.097 0.441 0.147 0.686 0.147 0.734-0.049 0.892-0.073 1.456-0.073 1.689 0 0.037 0.024 0.233 0.073 0.587-0.097 0.195-0.147 0.465-0.147 0.807v0.073c0.097 0.71 0.147 1.102 0.147 1.174v1.762l-0.147 1.321c0.097 0.832 0.147 1.394 0.147 1.688 0 0.269-0.049 0.635-0.147 1.101 0 0.123 0.024 0.318 0.073 0.587l-0.073 0.661 0.073 1.174-0.073 0.661 0.147 0.441c0 0.049-0.026 0.123-0.073 0.22 0.049 0.502 0.073 0.894 0.073 1.175 0 0.245-0.049 0.538-0.147 0.88 0.097 0.344 0.147 0.635 0.147 0.882v0.733c-0.097 0.832-0.147 1.298-0.147 1.394v0.515c0.097 0.71 0.147 1.075 0.147 1.101 0 0.123-0.049 0.366-0.147 0.734 0.147 0.318 0.22 0.538 0.22 0.66v0.075c-0.245 0.293-0.368 0.465-0.368 0.514l0.293 2.717 0.514 1.247v0.146c0 0.075-0.073 0.149-0.22 0.222h-0.293c-0.123 0-0.344-0.049-0.661-0.147-0.184 0.097-0.38 0.147-0.587 0.147h-0.22c-0.172 0-0.366-0.097-0.587-0.293-0.184 0.147-0.33 0.222-0.441 0.222-0.049 0-0.196-0.097-0.441-0.293-0.109 0.243-0.354 0.366-0.734 0.366h-0.953c-0.073 0-0.147-0.073-0.22-0.222v-0.073c0.342-1.418 0.514-2.226 0.514-2.422-0.049-2.974-0.073-5.348-0.073-7.121 0-0.16-0.049-0.526-0.147-1.102 0.147-0.648 0.22-1.7 0.22-3.156 0-0.122-0.024-0.49-0.073-1.101 0.097-1.125 0.146-1.835 0.146-2.128-0.097-0.415-0.17-0.88-0.219-1.394 0.097-0.795 0.146-1.309 0.146-1.542 0-0.097-0.024-0.147-0.073-0.147l0.073-0.514v-1.908c0-0.563-0.024-1.076-0.073-1.542 0.049-0.257 0.073-0.722 0.073-1.394v-0.807c0-0.158-0.024-0.281-0.073-0.368l0.073-0.441v-1.099l-0.514-0.514v-0.075c0-0.073 0.097-0.172 0.293-0.293h1.762c0.158 0 0.33 0.073 0.514 0.22h0.073c0.16-0.122 0.356-0.22 0.588-0.293zM82.772 22.959v0.075l0.073 1.174c0 0.049-0.024 0.123-0.073 0.222 0 0.109 0.123 0.819 0.368 2.128v1.172c0 0.283-0.026 0.673-0.073 1.175l0.293 1.101h0.073l0.22-0.147h0.147c0.037 0 0.184 0.147 0.441 0.441h0.073c0-0.123 0.024-0.319 0.073-0.587 0-0.16-0.22-0.356-0.661-0.588-0.147-0.184-0.22-0.404-0.22-0.661v-1.248c0-0.856-0.22-2.274-0.661-4.258h-0.073zM82.993 14.737c0 0.111 0.024 0.208 0.073 0.293-0.049 0.415-0.073 0.734-0.073 0.953 0.097 0.233 0.245 1.481 0.441 3.743v0.587c0 0.111 0.097 0.356 0.293 0.734h0.073v-1.762c0-0.403 0.097-0.868 0.293-1.394 0-0.17-0.22-0.49-0.661-0.953l-0.22-1.469c0.049-0.085 0.073-0.184 0.073-0.293 0.002-0.195-0.097-0.341-0.292-0.439zM83.286 6.149v0.146h0.073v-0.146h-0.073zM83.286 7.691v0.368h0.073v-0.368h-0.073zM83.286 9.012v0.147h0.073v-0.147h-0.073zM83.359 9.526v0.073c0.245 1.481 0.415 2.705 0.514 3.67 0.073 0.135 0.172 0.625 0.293 1.469h0.147v-2.788l-0.807-1.689c0-0.318-0.024-0.563-0.073-0.734h-0.075zM83.946 2.553v0.661h0.073l0.073-0.366v-0.295h-0.146zM83.946 5.709v0.147h0.073v-0.147h-0.073zM83.946 6.224c0 1.762 0.123 2.642 0.368 2.642v-1.542c-0.147-0.661-0.22-1.028-0.22-1.101h-0.147zM84.975 18.407v0.734c-0.147 0.635-0.22 0.979-0.22 1.028v5.211c0 0.147 0.073 0.441 0.22 0.882h0.073c0.097 0 0.146-0.050 0.146-0.149v-0.22c0-0.17-0.024-0.392-0.073-0.66 0.245-0.392 0.391-0.71 0.441-0.956l-0.147-0.292-0.147 0.073-0.146-0.073 0.073-0.734v-0.293c0-0.526-0.073-1.333-0.22-2.422 0.097-0.135 0.22-0.794 0.366-1.982v-0.073l-0.073-0.366c-0.073 0.002-0.17 0.099-0.292 0.293zM84.901 3.139v0.441c0.147 0.538 0.318 1.444 0.514 2.715h0.147c0-2.104-0.147-3.156-0.441-3.156h-0.22zM85.267 7.838v1.101h0.073c0.147-0.037 0.22-0.233 0.22-0.587l-0.073-0.661h-0.073c-0.097 0.012-0.147 0.062-0.147 0.147zM85.341 17.161l-0.073 0.368v0.293h0.073c0.049-0.342 0.097-0.563 0.147-0.661h-0.147z"></path>
<path d="M97.911 1.452h0.368c0.257 0 0.477 0.024 0.661 0.073 0.257-0.049 0.502-0.073 0.734-0.073h0.22c0.342 0 0.611 0.049 0.807 0.147 0.184-0.097 0.38-0.147 0.587-0.147h1.248c0.293 0.024 0.438 0.099 0.438 0.22 0 0.208-0.17 0.55-0.514 1.028 0.097 1.394 0.149 2.594 0.149 3.597-0.050 3.671-0.097 5.506-0.149 5.506 0.097 0.477 0.149 1.187 0.149 2.128v0.661c0 0.637-0.026 1.469-0.075 2.496l0.075 0.147-0.075 0.147c0 0.158 0.024 0.281 0.075 0.366 0 0.22-0.026 0.76-0.075 1.616 0.049 2.63 0.075 4.514 0.075 5.652 0 0.344-0.050 0.514-0.149 0.514l0.149 2.864c0 0.208-0.538 0.769-1.616 1.686h-0.22c-0.097-0.342-0.293-0.514-0.587-0.514 0 0.050-0.024 0.075-0.073 0.075 0 0.087 0.147 0.257 0.441 0.514v0.147c0 0.344-0.172 0.514-0.514 0.514h-0.587c-0.196 0-0.392-0.026-0.587-0.073l-0.441 0.073-0.514-0.073c-0.097 0-0.146 0.024-0.146 0.073-0.575-0.049-0.991-0.073-1.248-0.073h-5.873c-0.392 0-1.028-0.538-1.908-1.616-0.16 0-0.404-0.271-0.734-0.807l0.073-0.733c-0.049-2.25-0.073-3.963-0.073-5.14-0.293-0.66-0.441-1.101-0.441-1.321v-0.146c0.097-0.196 0.22-0.293 0.366-0.293 0.391 0.012 0.587 0.062 0.587 0.147 0.097-0.049 0.172-0.073 0.22-0.073 0.354 0 0.918-0.026 1.688-0.075 0.073 0 0.342 0.075 0.807 0.22l1.321-0.22h0.073c0.073 0 0.17 0.097 0.293 0.293-0.415 1.616-0.686 2.423-0.807 2.423l-0.22-0.149-0.073 0.149v0.365c0.158-0.097 0.306-0.146 0.441-0.146 0.123 0.146 0.245 0.856 0.368 2.128 0.122 0.439 0.49 0.66 1.101 0.66 0.257-0.047 0.404-0.073 0.441-0.073 0.147 0 0.22 0.026 0.22 0.073 0.49-0.047 0.856-0.073 1.101-0.073h1.835c0.354 0 0.649-0.318 0.882-0.955-0.049-0.66-0.073-1.149-0.073-1.467v-2.277c0-0.281 0.024-0.452 0.073-0.514l-0.073-0.514c0-1.271 0.024-3.84 0.073-7.706-0.049-1.248-0.073-1.982-0.073-2.203 0-0.049 0.024-0.122 0.073-0.22-0.049-0.538-0.073-1.003-0.073-1.394v-3.381c0-0.734 0.024-1.738 0.073-3.009-0.037-0.354-0.208-0.672-0.514-0.953v-0.075c0-0.073 0.073-0.147 0.219-0.22zM89.543 22.079c0.087 0.488 0.184 1.785 0.293 3.89 0.024 0.012 0.123 0.231 0.293 0.661-0.062 1.151-0.135 1.786-0.22 1.908 0.122 1.078 0.465 1.616 1.028 1.616h0.147c0.049-0.894 0.073-1.481 0.073-1.76l-0.147-0.075c-0.085 0.049-0.184 0.075-0.293 0.075-0.147 0-0.269-0.442-0.368-1.321v-1.472c-0.245-1.516-0.49-2.691-0.734-3.521h-0.071zM91.451 24.428l0.147 0.514c0.097 0 0.147-0.049 0.147-0.149l-0.075-0.512h-0.073c-0.097 0.012-0.147 0.062-0.147 0.147zM92.333 29.051v0.149c0.037 0.292 0.109 0.439 0.22 0.439v-0.075l-0.073-0.514h-0.147zM92.993 27.363v0.587c0.097 0 0.147-0.071 0.147-0.22l-0.073-0.366h-0.075zM94.095 28.757v0.222c0.111 0.441 0.233 0.661 0.368 0.661v-0.075c-0.196-0.293-0.293-0.561-0.293-0.807h-0.075zM94.536 27.143v0.441c0.49 1.358 0.734 2.066 0.734 2.128h0.22l0.073-0.368v-0.293c-0.073-0.623-0.366-1.309-0.882-2.055-0.099 0.014-0.146 0.064-0.146 0.147zM96.371 29.492v0.147h0.073v-0.147h-0.073zM99.013 2.7v0.147h0.073v-0.147h-0.073zM99.673 12.977v0.22l-0.22 1.542 0.073 0.293-0.293 1.982c0.049 0.085 0.073 0.184 0.073 0.293h0.147c0-0.097 0.097-0.269 0.293-0.514v-0.293c0-0.342 0.049-0.611 0.147-0.807-0.049-0.819-0.073-1.456-0.073-1.908v-0.809h-0.147zM100.407 2.186c0 1.884-0.122 3.304-0.366 4.257 0.097 0.306 0.147 0.502 0.147 0.587-0.049 0.661-0.073 1.224-0.073 1.689v0.441h0.073c0.195-0.587 0.293-0.955 0.293-1.101v-1.469c0-0.134 0.073-0.599 0.22-1.394-0.097-0.953-0.147-1.566-0.147-1.835 0-0.158 0.097-0.404 0.293-0.734l-0.073-0.366v-0.222h-0.22c-0.099 0.014-0.147 0.062-0.147 0.147zM100.48 25.969c0 0.109-0.024 0.208-0.073 0.293 0.049 0.33 0.073 0.601 0.073 0.807v0.514h0.147c-0.049-0.49-0.073-0.856-0.073-1.102v-0.293l0.073-0.147-0.147-0.071zM100.48 28.318v0.293h0.073v-0.293h-0.073zM101.509 11.949c0 0.661-0.073 1.491-0.22 2.496v0.073c0.147 0.635 0.22 1.345 0.22 2.128h0.147v-1.248c0-0.318-0.026-0.635-0.073-0.953 0.097-0.563 0.146-0.906 0.146-1.028-0.049-0.722-0.097-1.21-0.146-1.467h-0.075zM101.509 10.922v0.441c0.097 0 0.147-0.049 0.147-0.146v-0.295h-0.147zM101.509 17.748v0.807h0.147v-0.807h-0.147z"></path>
<path d="M106.005 1.379l0.882 0.22c0.439-0.097 0.757-0.147 0.953-0.147 0.149 0 0.318 0.049 0.514 0.147 0.184-0.097 0.38-0.147 0.588-0.147h0.22c0.906 0 1.443 0.686 1.616 2.055 0.245 0.147 0.784 1.297 1.616 3.449l1.835 4.404c0 0.111 0.122 0.404 0.366 0.882 0 0.147 0.293 0.856 0.88 2.128 0.097 0.71 0.271 1.125 0.514 1.248 0 0.123 0.293 0.807 0.882 2.055 0.047 0.733 0.17 1.101 0.366 1.101h0.147c0.147-0.049 0.22-0.196 0.22-0.441v-2.642c0-0.526 0.024-0.943 0.075-1.248-0.050-0.354-0.075-0.795-0.075-1.321v-3.451c-0.097-0.71-0.146-1.101-0.146-1.174v-1.908c0-0.342 0.047-0.611 0.146-0.807-0.097-0.366-0.146-0.563-0.146-0.587 0.097-0.366 0.146-0.71 0.146-1.028v-0.661c0-0.158-0.22-0.746-0.66-1.762v-0.073c0.158-0.147 0.281-0.22 0.365-0.22 0.196 0 0.293 0.024 0.293 0.073l0.882-0.073h3.743c0.073 0 0.147 0.073 0.222 0.22v0.22c-0.196 0.184-0.368 0.673-0.514 1.469l0.073 0.882v1.394c0 0.062-0.049 0.33-0.147 0.807v3.156c0 0.344 0.049 0.613 0.147 0.807-0.049 0.269-0.073 0.465-0.073 0.587 0 0.109 0.024 0.208 0.073 0.293l-0.073 0.514c0 0.158 0.024 0.575 0.073 1.248l-0.15 0.587 0.147 0.661c-0.097 0.196-0.147 0.465-0.147 0.807v2.569c0 0.526 0.024 0.967 0.075 1.321-0.050 0.306-0.075 0.722-0.075 1.248v0.146c0 0.318 0.049 1.298 0.147 2.937-0.097 0.439-0.147 0.759-0.147 0.953v0.514l-0.22 0.293v0.588l0.146 0.22v0.075c0 0.134-0.047 0.283-0.146 0.439 0.047 1.090 0.097 1.75 0.146 1.984-0.047 0.085-0.073 0.549-0.073 1.394 0.073 0 0.269 0.22 0.587 0.661v0.146l-0.146 0.222-0.882-0.073h-0.439c-0.453 0-1.090 0.024-1.909 0.073-0.097-0.049-0.17-0.073-0.22-0.073-0.196 0.047-0.368 0.073-0.514 0.073-0.233 0-0.453-0.344-0.661-1.028-0.222-0.306-0.734-1.505-1.543-3.597-0.158-0.196-1.406-3.156-3.743-8.881-0.354-0.686-0.649-1.394-0.88-2.128-0.415-1.137-0.686-1.724-0.807-1.762v-0.664c0-0.184-0.122-0.379-0.368-0.587v-0.22c0-0.037 0.123-0.158 0.368-0.368v-0.22l-0.368 0.073c-0.073 0-0.292-0.17-0.66-0.514-0.149 0.526-0.22 0.844-0.22 0.955v0.075c0.096 0.832 0.146 1.297 0.146 1.394v0.882c0 0.158-0.049 0.502-0.146 1.028 0.158 0.441 0.255 0.661 0.292 0.661-0.049 0.661-0.073 1.151-0.073 1.469v0.807c0 0.88-0.026 1.738-0.075 2.569 0.049 0.427 0.075 0.794 0.075 1.101-0.050 0.892-0.075 1.456-0.075 1.688l0.075 0.661c-0.149 0.672-0.22 1.088-0.22 1.248 0.146 0.243 0.22 0.49 0.22 0.733v0.147c0 0.684-0.026 1.615-0.075 2.79 0.012 0.342 0.231 0.784 0.661 1.321v0.146c0 0.027-0.049 0.097-0.147 0.222-0.575-0.049-0.99-0.073-1.247-0.073h-2.785c-0.257 0-0.672 0.024-1.248 0.073-0.097-0.158-0.146-0.306-0.146-0.441l0.807-1.247c-0.050-0.733-0.075-1.272-0.075-1.616v-0.661c0-0.233 0.024-0.476 0.075-0.734-0.149-0.794-0.222-3.215-0.222-7.265v-3.377c0-0.391 0.026-0.905 0.073-1.542-0.047-0.085-0.073-0.208-0.073-0.366l0.073-0.661c0-0.049-0.024-0.245-0.073-0.587 0.049-0.33 0.073-0.599 0.073-0.807 0-0.245-0.047-0.366-0.146-0.366 0.047-0.807 0.073-1.42 0.073-1.835v-3.010c0-0.049 0.049-0.245 0.147-0.587-0.097-0.158-0.147-0.306-0.147-0.441 0-0.085 0.097-0.306 0.293-0.661-0.097-0.281-0.196-0.991-0.293-2.128-0.037 0-0.158-0.195-0.366-0.587v-0.223c0-0.158 0.417-0.257 1.248-0.293zM106.078 3.507l-0.293 1.101v0.22l0.075 0.441c-0.097 0.196-0.149 0.366-0.149 0.514 0.097 0.16 0.149 0.283 0.149 0.368h0.146c0.049-0.441 0.097-1.297 0.149-2.569v-0.075h-0.076zM106.078 24.794c0.097 0.307 0.146 0.502 0.146 0.588h0.075c0.196-1.358 0.293-2.41 0.293-3.156v-0.441c-0.231 0-0.403 1.003-0.514 3.009zM106.887 27.73c-0.196 0.502-0.368 1.113-0.514 1.835v0.514c0.012 0.097 0.059 0.149 0.146 0.149 0-0.392 0.149-1.028 0.441-1.909v-0.588h-0.073zM106.812 1.966l-0.146 0.22c0.208 0.061 0.353 0.184 0.439 0.366v1.394h0.075l0.073-0.366v-0.293c0-0.257-0.026-0.672-0.073-1.248l-0.368-0.073zM106.887 26.483v0.293h0.073v-0.293h-0.073zM107.253 15.032v0.661c0.097 0 0.147-0.049 0.147-0.147v-0.368c0-0.097-0.050-0.146-0.147-0.146zM108.281 2.039c-0.147 0.293-0.292 1.982-0.441 5.066-0.097 0.344-0.243 1.126-0.439 2.349l0.073 0.514c-0.049 1.358-0.073 2.458-0.073 3.302l0.146 0.073 0.149-0.514v-0.733c0.035-0.293 0.109-0.441 0.22-0.441l-0.075-0.734c0.245-2.838 0.368-4.576 0.368-5.211 0.097 0 0.196-0.661 0.293-1.982v-1.247c-0.002-0.257-0.076-0.403-0.222-0.441zM107.545 29.639h0.149v-0.147c-0.099 0.014-0.149 0.061-0.149 0.147zM107.913 17.307v0.293h0.147v-0.147c0-0.096-0.049-0.146-0.147-0.146zM108.208 18.628c0.035 0.538 0.109 0.809 0.22 0.809 0.243-0.894 0.366-1.359 0.366-1.396v-0.22l-0.587 0.807zM108.352 20.464l-0.073 0.514v1.174c0.012 0.097 0.061 0.147 0.147 0.147h0.075v-0.075c0-0.087-0.026-0.672-0.075-1.76h-0.075zM108.427 11.876c-0.049 0.257-0.075 0.404-0.075 0.441l0.075 0.366c-0.049 0-0.075 0.026-0.075 0.073h0.149v-0.88h-0.075zM108.866 6.37v0.073c0 1.42-0.073 2.276-0.22 2.569 0.049 0.269 0.075 0.465 0.075 0.587-0.097 0.661-0.147 1.076-0.147 1.248v0.147h0.073c0.122 0 0.22-0.293 0.293-0.882-0.049-0.257-0.075-0.502-0.075-0.733l0.293-0.882c0-0.625 0.122-2.043 0.368-4.257 0-0.037 0.122-0.502 0.366-1.394-0.087-0.281-0.233-0.502-0.441-0.661-0.245 0-0.366 1.149-0.366 3.449-0.046 0-0.12 0.245-0.219 0.734zM110.262 4.169c0 0.097-0.024 0.146-0.075 0.146l0.075 0.368v0.147c-0.208 1.639-0.33 2.496-0.366 2.569 0 0.049 0.026 0.073 0.073 0.073 0 0.611-0.146 1.321-0.439 2.128-0.050 0.269-0.075 0.465-0.075 0.587 0.049 0.097 0.075 0.172 0.075 0.22h0.073c0.441-1.272 0.661-2.154 0.661-2.642 0.097-0.49 0.196-0.783 0.293-0.882-0.097-0.22-0.147-0.465-0.147-0.733l0.222-0.734v-0.295c0-0.635-0.125-0.953-0.369-0.953zM110.262 10.26c0 0.147 0.097 0.49 0.293 1.028h0.075l0.071-0.368-0.071-0.88h-0.149c-0.071 0-0.144 0.073-0.219 0.22zM113.787 13.050v0.293l0.071 0.368h0.075c0-0.147 0.024-0.22 0.075-0.22-0.064-0.293-0.137-0.441-0.22-0.441zM113.931 14.664v0.293h0.075v-0.293h-0.075zM114.301 17.968v0.147c0.012 0.097 0.059 0.147 0.146 0.147l0.075-0.147v-0.147h-0.22zM114.301 19.51v0.22h0.146c-0.049-0.096-0.073-0.17-0.073-0.22h-0.073zM116.943 26.408v0.222h0.22v-0.073c0-0.097-0.050-0.149-0.147-0.149h-0.073zM120.32 21.565v3.158h0.073c0-0.345 0.026-0.515 0.073-0.515l-0.073-0.147v-2.201c0-0.049 0.026-0.073 0.073-0.073-0.047-0.097-0.073-0.172-0.073-0.222h-0.073zM120.32 24.941v1.616h0.073c0-0.097 0.026-0.149 0.073-0.149l-0.073-0.146v-0.661c0-0.047 0.026-0.073 0.073-0.073-0.047-0.049-0.073-0.245-0.073-0.587h-0.073z"></path>
<path d="M131.421 1.452h0.22c0.439 0.147 0.686 0.22 0.733 0.22h0.075l0.733-0.22 0.369 0.22c-0.050 0.575-0.075 0.991-0.075 1.248v0.146c0 0.526 0.024 0.967 0.075 1.321-0.050 0.344-0.075 0.637-0.075 0.882 0 0.318 0.024 0.807 0.075 1.469-0.050 0.441-0.075 0.929-0.075 1.467l0.146 0.073c0.149-0.012 0.271-0.575 0.368-1.688l-0.147-1.174c0-0.672 0.147-1.359 0.441-2.055v-1.028l-0.22-0.293v-0.147c0.122-0.245 0.342-0.366 0.66-0.366 0.368 0.097 0.588 0.146 0.663 0.146 0.134 0 0.427-0.073 0.879-0.22 0.222 0.097 0.344 0.196 0.368 0.293v0.146c0 0.306-0.097 0.746-0.293 1.321 0.439 1.726 0.759 3.144 0.955 4.258l0.514 2.569c0.538 1.981 0.807 3.255 0.807 3.817 0.135 0.33 0.403 1.554 0.806 3.67 0.135 0 0.258 0.661 0.368 1.982l-0.075 0.147 0.368 0.66h0.146c0.344-1.271 0.538-2.446 0.588-3.522 0.283 0 0.453-0.661 0.514-1.982 0.208-0.832 0.38-1.248 0.514-1.248l0.147 0.073-0.073-0.441c0-1.076 0.22-2.349 0.66-3.817 0-0.245 0.149-1.028 0.442-2.349 0-0.208 0.243-1.236 0.733-3.083 0-0.049 0.024-0.245 0.073-0.587-0.097-0.759-0.147-1.321-0.147-1.688 0.075 0 0.147-0.073 0.22-0.22 0.943 0 1.505 0.123 1.689 0.366 0.306-0.231 0.502-0.354 0.588-0.366 0.464 0.049 0.832 0.123 1.101 0.22 0.318-0.097 0.538-0.147 0.661-0.147h0.366l0.441 0.073c0.087-0.049 0.208-0.073 0.366-0.073 0.147 0.158 0.222 0.281 0.222 0.366l-0.293 1.248v0.368c0.635 2.458 1.002 4.27 1.102 5.432 0.195 0.196 0.292 0.465 0.292 0.807v0.514c0.245 0.283 0.366 0.526 0.366 0.734 0 0.172-0.024 0.392-0.073 0.661 0.292 0.575 0.488 1.333 0.587 2.276 0.147 0.208 0.318 1.016 0.514 2.423 0.344 1.26 0.514 2.264 0.514 3.009-0.047 0.087-0.073 0.184-0.073 0.293 0.344 0.158 0.514 0.404 0.514 0.733h0.073c0.16 0 0.258-0.514 0.293-1.542 0.097-0.245 0.344-1.37 0.734-3.377 0.17 0 0.318-0.661 0.441-1.982 0.134-0.208 0.281-0.746 0.439-1.615 0.134-0.281 0.33-1.481 0.588-3.597 0.293 0 0.514-0.953 0.66-2.863h0.075l-0.075-0.147c0.149-0.306 0.293-0.868 0.442-1.688v-0.514c-0.097-0.708-0.149-1.076-0.149-1.101 0-0.195 0.122-0.366 0.368-0.514 0.243 0 0.366 0.049 0.366 0.147 0.049 0 0.073-0.024 0.073-0.073l0.441 0.073c0.5-0.049 0.892-0.073 1.174-0.073 0.404 0.097 0.672 0.147 0.807 0.147 0.819-0.147 1.455-0.22 1.909-0.22l0.22 0.293c-0.526 1.101-0.87 2.104-1.028 3.009l-0.807 3.743-0.882 3.817c0 0.366-0.097 0.832-0.293 1.394l-1.172 5.798c-0.184 0.575-0.356 1.307-0.514 2.201-0.109 0-0.21 0.564-0.293 1.689-0.097 0-0.22 0.587-0.368 1.76-0.122 0-0.293 0.733-0.514 2.201-0.134 0-0.255 0.515-0.366 1.543v0.073c0 0.147 0.073 0.637 0.222 1.469-0.075 0.243-0.246 0.366-0.514 0.366h-0.372c-0.109 0-0.427-0.073-0.953-0.222-0.184 0.097-0.38 0.149-0.588 0.149h-0.441c-0.379 0-0.722-0.026-1.028-0.075-0.684 0.097-1.198 0.147-1.543 0.147-0.195-0.208-0.292-0.404-0.292-0.587 0-0.062 0.049-0.331 0.147-0.807v-0.663c-0.245-0.941-0.392-1.748-0.441-2.422-0.135-0.097-0.306-0.759-0.514-1.982-0.123 0-0.245-0.71-0.366-2.128-0.087 0-0.184-0.439-0.293-1.321-0.147-0.243-0.514-2.128-1.102-5.652-0.109 0-0.208-0.195-0.293-0.587h0.075c-0.293-0.943-0.439-1.481-0.439-1.615v-0.731c-0.026-0.097-0.149-0.195-0.368-0.293-0.158 0-0.306 0.882-0.439 2.642-0.109 0-0.233 0.613-0.368 1.835-0.17 0.22-0.439 1.42-0.807 3.597-0.158 0-0.379 1.028-0.66 3.083-0.246 0-0.415 0.661-0.514 1.982-0.54 2.521-0.807 3.842-0.807 3.963 0 0.075 0.097 0.514 0.293 1.321 0 0.134-0.123 0.257-0.368 0.366-0.306-0.097-0.502-0.147-0.588-0.147l-0.365 0.147c-0.271-0.049-0.49-0.073-0.663-0.073l-0.439 0.073c-0.172-0.049-0.271-0.073-0.293-0.073-0.611 0.047-0.981 0.073-1.102 0.073-0.109 0-0.379-0.026-0.807-0.073-0.255 0.047-0.502 0.073-0.733 0.073-0.22-0.097-0.344-0.195-0.366-0.293l0.22-1.394c-0.587-3.010-1.101-5.383-1.542-7.121-0.257-0.477-0.476-1.774-0.661-3.89 0-0.342-0.122-0.686-0.368-1.028-0.097-0.342-0.146-0.635-0.146-0.88v-0.293c-0.293-0.306-0.441-0.991-0.441-2.055-0.036 0-0.109-0.269-0.22-0.807v-0.807c-0.344-0.22-0.515-0.661-0.515-1.321 0-0.049 0.026-0.073 0.075-0.073-0.245-0.441-0.366-1.174-0.366-2.201-0.344 0-0.587-1.052-0.734-3.156v-0.222c-0.293-0.306-0.439-0.868-0.439-1.688l0.22-0.147 0.293 0.147c0-0.344 0.049-0.734 0.147-1.175-0.049-0.097-0.073-0.17-0.073-0.22h-0.293v0.073c0 0.109 0.024 0.208 0.073 0.293-0.122 0.293-0.269 0.441-0.441 0.441-0.353 0-0.67-0.344-0.953-1.028v-0.22c-0.003-0.073 0.094-0.17 0.29-0.293zM135.018 2.407v0.953c0 0.208-0.147 0.55-0.439 1.028-0.050 0.184-0.075 0.38-0.075 0.587 0.097 0.771 0.147 1.285 0.147 1.542v0.514c-0.097 0.71-0.147 1.102-0.147 1.174v0.807c0 0.38-0.049 1.040-0.147 1.982 0.049 0.429 0.073 0.696 0.073 0.807-0.047 0.085-0.073 0.184-0.073 0.293h0.222c0.255-3.278 0.549-4.918 0.88-4.918 0.135-0.49 0.257-0.832 0.366-1.028l-0.075-1.175 0.075-0.293c-0.097-0.196-0.147-0.465-0.147-0.807v-1.466c0-0.073-0.073-0.146-0.22-0.22h-0.222c-0.071 0-0.144 0.073-0.217 0.22zM135.458 10.481v0.147c0 0.049-0.026 0.073-0.073 0.073l0.073 0.147c0 0.404-0.123 1.187-0.366 2.349 0.035 0.783 0.109 1.174 0.22 1.174 0.097-0.111 0.17-0.601 0.22-1.469 0.196-0.233 0.293-0.477 0.293-0.734 0-0.22-0.024-0.366-0.075-0.441 0.050-0.415 0.075-0.759 0.075-1.028v-1.981c0.049-0.33 0.122-0.502 0.22-0.514-0.047-0.097-0.073-0.17-0.073-0.22h-0.073c-0.163 0-0.309 0.833-0.442 2.496zM135.677 15.399c0 0.109-0.097 0.404-0.292 0.882 0.243 0.759 0.391 1.321 0.439 1.688h0.293v-0.147c0-0.049-0.097-0.318-0.293-0.807 0.024-0.354 0.097-0.601 0.22-0.734-0.196-0.404-0.293-0.698-0.293-0.882h-0.075zM142.211 14.003c-0.097 0.821-0.149 1.285-0.149 1.394 0 0.073 0.026 0.417 0.075 1.028-0.049 0.269-0.075 0.49-0.075 0.66 0.097 0.16 0.149 0.283 0.149 0.368-0.097 0.635-0.172 1.224-0.222 1.762l0.222 0.147 0.146-0.22c-0.097-0.184-0.146-0.38-0.146-0.588 0-0.17 0.097-0.415 0.292-0.734l-0.073-0.366v-0.147c0-0.526-0.026-0.892-0.075-1.101 0.049-0.38 0.075-0.795 0.075-1.248v-0.512c0-0.255-0.073-0.403-0.219-0.441zM142.062 27.216v0.293c0.097 0 0.149-0.047 0.149-0.147v-0.147h-0.149zM145.513 2.039l-0.146 0.514v0.293c0.195 0.526 0.293 0.991 0.293 1.394v0.514c0.096 0 0.146-0.049 0.146-0.147v-0.733c0-0.122-0.049-0.342-0.146-0.661 0.047-0.415 0.071-0.734 0.071-0.953-0.047-0.097-0.071-0.172-0.071-0.22h-0.147zM148.449 16.059c0.097 0.158 0.147 0.306 0.147 0.441v0.073c0 0.111-0.026 0.208-0.073 0.293 0 0.049 0.024 0.073 0.073 0.073l-0.073 0.366v0.147c0.195 0.953 0.293 1.469 0.293 1.542 0 0.22 0.122 1.002 0.365 2.349 0 0.55 0.196 1.113 0.588 1.688 0.147 0.601 0.22 1.016 0.22 1.247v0.959l0.293 0.365v0.882c0.012 0.097 0.062 0.147 0.147 0.147 0.391-0.759 0.587-1.174 0.587-1.248 0-0.33-0.122-0.672-0.365-1.028 0-0.035-0.075-0.477-0.222-1.321 0.097-0.588 0.17-1.688 0.222-3.304 0.047 0 0.146-0.538 0.292-1.615-0.097-0.441-0.147-0.734-0.147-0.882 0.097-0.17 0.172-0.415 0.22-0.734-0.231 0-0.379 0.832-0.439 2.496-0.245 0.366-0.368 0.856-0.368 1.469l-0.365 0.366c-0.172-0.037-0.319-0.184-0.441-0.441 0-0.196 0.026-0.635 0.073-1.321 0-0.33-0.22-0.795-0.66-1.394 0-0.049-0.027-0.123-0.075-0.22 0-0.037 0.024-0.184 0.075-0.441-0.038-0.783-0.111-1.175-0.222-1.175-0.097 0-0.147 0.075-0.147 0.22zM149.037 11.802v0.366c0.122 1.174 0.318 1.762 0.587 1.762v0.147l-0.147 0.882c0 0.538 0.172 0.856 0.514 0.953 0.097-0.049 0.172-0.073 0.22-0.073v-0.073c0-1.236 0.097-2.092 0.293-2.569 0-0.135-0.243-0.233-0.733-0.293-0.392-0.783-0.588-1.2-0.588-1.248-0.099 0.012-0.146 0.061-0.146 0.146zM149.624 9.453l-0.073 0.368v0.073c0 0.306 0.146 0.649 0.439 1.028v-0.075c-0.073-0.929-0.196-1.394-0.366-1.394zM151.312 23.471v0.293h0.147v-0.293h-0.147zM151.68 24.723l0.073 0.514h0.073v-0.514h-0.146zM152.853 26.115v1.029c0 0.269 0.123 0.759 0.368 1.469l0.22 1.467c0.075 0 0.172 0.050 0.293 0.149h0.147c-0.637-2.081-0.955-3.451-0.955-4.112h-0.075zM153.442 21.931v0.368h0.147c0.049-0.673 0.147-1.309 0.293-1.909h-0.073c-0.172 0-0.295 0.514-0.368 1.542zM154.688 20.39c0 0.318-0.122 0.784-0.365 1.396v0.733h0.073c0.195-0.686 0.344-1.37 0.441-2.055l-0.149-0.073zM154.763 18.407v0.661c0.147-0.049 0.22-0.195 0.22-0.441v-0.661c-0.146 0.050-0.22 0.198-0.22 0.441zM154.982 16.647v0.514h0.075c0-0.109 0.024-0.208 0.075-0.293-0.050-0.097-0.075-0.172-0.075-0.22h-0.075zM155.056 14.444v0.807h0.075l0.073-0.366v-0.441h-0.147zM155.056 16.059v0.441h0.075v-0.441h-0.075zM155.423 21.492c0 0.172-0.123 0.588-0.366 1.247v0.663h0.075c0-0.258 0.146-0.819 0.439-1.689v-0.22h-0.147zM155.056 23.62v0.293h0.075v-0.293h-0.075zM155.717 12.022c-0.196 0.429-0.293 0.746-0.293 0.955v0.514c0.073 0 0.196-0.465 0.366-1.394v-0.075h-0.073zM155.79 16.94v0.146h0.075v-0.146h-0.075zM155.936 15.767c0.123 0 0.222-0.196 0.293-0.588v-1.028c-0.097 0-0.195 0.54-0.293 1.616zM156.598 11.802c-0.097 0.575-0.172 1.163-0.22 1.762 0.196 0 0.293-0.366 0.293-1.101v-0.661h-0.073zM156.598 7.618l-0.073 0.514c0.049 0.429 0.073 0.696 0.073 0.807h0.075v-1.321h-0.075zM156.672 16.647v0.073c-0.097 0.918-0.147 1.505-0.147 1.762v0.073l0.073 0.368h0.075v-1.028c0-0.441 0.047-0.856 0.146-1.248h-0.146zM157.186 14.151h0.146c0.196-0.819 0.293-1.333 0.293-1.542v-0.073h-0.073c-0.172 0-0.295 0.538-0.366 1.615zM157.405 7.177v0.074h0.147v-0.22c-0.099 0.012-0.147 0.061-0.147 0.146zM157.625 4.535c0 0.417-0.024 1.028-0.073 1.835h0.073c0.097 0 0.149-0.049 0.149-0.146v-1.321l-0.075-0.368h-0.075zM157.698 2.847l-0.075 0.366v0.073l0.075 0.368h0.075v-0.807h-0.075zM159.094 2.7c0 0.344-0.027 1.052-0.075 2.128l0.075 0.146c-0.196 0.514-0.293 0.856-0.293 1.028v1.615c0 0.208-0.026 0.477-0.075 0.807 0.049 0.123 0.097 0.366 0.147 0.734h0.073c0.184-1.554 0.306-3.047 0.368-4.477 0.122 0 0.243-0.807 0.366-2.422h-0.366c-0.149 0.050-0.22 0.196-0.22 0.441zM158.8 9.746v0.441h0.073v-0.441h-0.073z"></path>
<path d="M164.692 1.379c0.575 0.049 0.99 0.073 1.247 0.073l0.514-0.073c0.22 0.097 0.344 0.196 0.368 0.293-0.392 0.514-0.611 1.003-0.663 1.467 0.097 0.441 0.149 0.686 0.149 0.734-0.050 0.892-0.075 1.456-0.075 1.689 0 0.037 0.024 0.233 0.075 0.587-0.097 0.195-0.149 0.465-0.149 0.807v0.073c0.097 0.71 0.149 1.102 0.149 1.174v1.762l-0.149 1.321c0.097 0.832 0.149 1.394 0.149 1.688 0 0.269-0.050 0.635-0.149 1.101 0 0.123 0.026 0.318 0.075 0.587l-0.075 0.661 0.075 1.174-0.075 0.661 0.149 0.441c0 0.049-0.027 0.123-0.075 0.22 0.047 0.502 0.075 0.894 0.075 1.175 0 0.245-0.050 0.538-0.149 0.88 0.097 0.344 0.149 0.635 0.149 0.882v0.733c-0.097 0.832-0.149 1.298-0.149 1.394v0.515c0.097 0.71 0.149 1.075 0.149 1.101 0 0.123-0.050 0.366-0.149 0.734 0.149 0.318 0.222 0.538 0.222 0.66v0.075c-0.245 0.293-0.366 0.465-0.366 0.514l0.293 2.717 0.514 1.247v0.146c0 0.075-0.075 0.149-0.222 0.222h-0.292c-0.123 0-0.345-0.049-0.663-0.147-0.182 0.097-0.379 0.147-0.587 0.147h-0.222c-0.17 0-0.365-0.097-0.587-0.293-0.182 0.147-0.331 0.222-0.441 0.222-0.047 0-0.196-0.097-0.439-0.293-0.109 0.243-0.356 0.366-0.734 0.366h-0.955c-0.073 0-0.146-0.073-0.22-0.222v-0.073c0.342-1.418 0.514-2.226 0.514-2.422-0.049-2.974-0.073-5.348-0.073-7.121 0-0.16-0.049-0.526-0.147-1.102 0.147-0.648 0.22-1.7 0.22-3.156 0-0.122-0.024-0.49-0.073-1.101 0.096-1.125 0.147-1.835 0.147-2.128-0.097-0.415-0.172-0.88-0.22-1.394 0.096-0.795 0.146-1.309 0.146-1.542 0-0.097-0.024-0.147-0.073-0.147l0.073-0.514v-1.908c0-0.563-0.024-1.076-0.073-1.542 0.049-0.257 0.073-0.722 0.073-1.394v-0.807c0-0.158-0.024-0.281-0.073-0.368l0.073-0.441v-1.099l-0.514-0.514v-0.075c0-0.073 0.097-0.172 0.293-0.293h1.76c0.16 0 0.331 0.073 0.514 0.22h0.075c0.163-0.122 0.359-0.22 0.591-0.293zM162.782 22.959v0.075l0.075 1.174c0 0.049-0.026 0.123-0.075 0.222 0 0.109 0.122 0.819 0.368 2.128v1.172c0 0.283-0.027 0.673-0.075 1.175l0.293 1.101h0.073l0.222-0.147h0.146c0.036 0 0.184 0.147 0.441 0.441h0.073c0-0.123 0.026-0.319 0.075-0.587 0-0.16-0.22-0.356-0.661-0.588-0.147-0.184-0.222-0.404-0.222-0.661v-1.248c0-0.856-0.22-2.274-0.66-4.258h-0.073zM163.003 14.737c0 0.111 0.026 0.208 0.075 0.293-0.049 0.415-0.075 0.734-0.075 0.953 0.097 0.233 0.245 1.481 0.441 3.743v0.587c0 0.111 0.097 0.356 0.293 0.734h0.073v-1.762c0-0.403 0.097-0.868 0.293-1.394 0-0.17-0.22-0.49-0.661-0.953l-0.22-1.469c0.049-0.085 0.073-0.184 0.073-0.293 0.002-0.195-0.096-0.341-0.292-0.439zM163.296 6.149v0.146h0.075v-0.146h-0.075zM163.296 7.691v0.368h0.075v-0.368h-0.075zM163.296 9.012v0.147h0.075v-0.147h-0.075zM163.37 9.526v0.073c0.243 1.481 0.415 2.705 0.514 3.67 0.073 0.135 0.17 0.625 0.293 1.469h0.146v-2.788l-0.807-1.689c0-0.318-0.024-0.563-0.073-0.734h-0.073zM163.957 2.553v0.661h0.073l0.075-0.366v-0.295h-0.147zM163.957 5.709v0.147h0.073v-0.147h-0.073zM163.957 6.224c0 1.762 0.123 2.642 0.366 2.642v-1.542c-0.146-0.661-0.22-1.028-0.22-1.101h-0.146zM164.985 18.407v0.734c-0.149 0.635-0.222 0.979-0.222 1.028v5.211c0 0.147 0.073 0.441 0.222 0.882h0.073c0.096 0 0.147-0.050 0.147-0.149v-0.22c0-0.17-0.026-0.392-0.075-0.66 0.245-0.392 0.392-0.71 0.441-0.956l-0.147-0.292-0.147 0.073-0.147-0.073 0.075-0.734v-0.293c0-0.526-0.075-1.333-0.22-2.422 0.096-0.135 0.22-0.794 0.365-1.982v-0.073l-0.073-0.366c-0.070 0.002-0.169 0.099-0.29 0.293zM164.912 3.139v0.441c0.147 0.538 0.318 1.444 0.514 2.715h0.147c0-2.104-0.147-3.156-0.441-3.156h-0.22zM165.278 7.838v1.101h0.073c0.149-0.037 0.222-0.233 0.222-0.587l-0.073-0.661h-0.075c-0.099 0.012-0.147 0.062-0.147 0.147zM165.351 17.161l-0.073 0.368v0.293h0.073c0.050-0.342 0.097-0.563 0.149-0.661h-0.149z"></path>
<path d="M177.922 1.452h0.366c0.257 0 0.476 0.024 0.661 0.073 0.257-0.049 0.502-0.073 0.733-0.073h0.22c0.344 0 0.611 0.049 0.807 0.147 0.184-0.097 0.38-0.147 0.588-0.147h1.247c0.293 0.024 0.441 0.097 0.441 0.22 0 0.208-0.17 0.55-0.514 1.028 0.097 1.394 0.147 2.594 0.147 3.597-0.049 3.671-0.097 5.506-0.147 5.506 0.097 0.477 0.147 1.187 0.147 2.128v0.661c0 0.637-0.024 1.469-0.075 2.496l0.075 0.147-0.075 0.147c0 0.158 0.026 0.281 0.075 0.366 0 0.22-0.024 0.76-0.075 1.616 0.050 2.63 0.075 4.514 0.075 5.652 0 0.344-0.049 0.514-0.147 0.514l0.147 2.864c0 0.208-0.538 0.769-1.616 1.686h-0.22c-0.097-0.342-0.293-0.514-0.588-0.514 0 0.050-0.024 0.075-0.073 0.075 0 0.087 0.147 0.257 0.441 0.514v0.147c0 0.344-0.172 0.514-0.514 0.514h-0.588c-0.196 0-0.392-0.026-0.588-0.073l-0.439 0.073-0.514-0.073c-0.097 0-0.147 0.024-0.147 0.073-0.575-0.049-0.99-0.073-1.248-0.073h-5.871c-0.392 0-1.029-0.538-1.908-1.616-0.16 0-0.404-0.271-0.734-0.807l0.073-0.733c-0.047-2.25-0.073-3.963-0.073-5.14-0.293-0.66-0.441-1.101-0.441-1.321v-0.146c0.097-0.196 0.22-0.293 0.368-0.293 0.391 0.012 0.587 0.062 0.587 0.147 0.097-0.049 0.17-0.073 0.222-0.073 0.353 0 0.918-0.026 1.686-0.075 0.075 0 0.344 0.075 0.807 0.22l1.321-0.22h0.075c0.075 0 0.17 0.097 0.293 0.293-0.415 1.616-0.686 2.423-0.807 2.423l-0.22-0.149-0.075 0.149v0.365c0.158-0.097 0.306-0.146 0.439-0.146 0.123 0.146 0.246 0.856 0.368 2.128 0.122 0.439 0.49 0.66 1.102 0.66 0.255-0.047 0.404-0.073 0.439-0.073 0.147 0 0.22 0.026 0.22 0.073 0.49-0.047 0.856-0.073 1.102-0.073h1.835c0.354 0 0.649-0.318 0.882-0.955-0.050-0.66-0.075-1.149-0.075-1.467v-2.277c0-0.281 0.024-0.452 0.075-0.514l-0.075-0.514c0-1.271 0.024-3.84 0.075-7.706-0.050-1.248-0.075-1.982-0.075-2.203 0-0.049 0.024-0.122 0.075-0.22-0.050-0.538-0.075-1.003-0.075-1.394v-3.381c0-0.734 0.024-1.738 0.075-3.009-0.038-0.354-0.21-0.672-0.514-0.953v-0.075c0.003-0.073 0.076-0.147 0.222-0.22zM169.553 22.079c0.087 0.488 0.184 1.785 0.293 3.89 0.026 0.012 0.123 0.231 0.293 0.661-0.061 1.151-0.135 1.786-0.222 1.908 0.122 1.078 0.467 1.616 1.028 1.616h0.149c0.047-0.894 0.073-1.481 0.073-1.76l-0.147-0.075c-0.087 0.049-0.184 0.075-0.293 0.075-0.146 0-0.269-0.442-0.366-1.321v-1.472c-0.245-1.516-0.488-2.691-0.734-3.521h-0.073zM171.461 24.428l0.149 0.514c0.097 0 0.146-0.049 0.146-0.149l-0.073-0.514h-0.073c-0.099 0.014-0.149 0.064-0.149 0.149zM172.343 29.051v0.149c0.036 0.292 0.109 0.439 0.22 0.439v-0.075l-0.073-0.514h-0.147zM173.004 27.363v0.587c0.097 0 0.147-0.071 0.147-0.22l-0.075-0.366h-0.073zM174.103 28.757v0.222c0.111 0.441 0.233 0.661 0.368 0.661v-0.075c-0.196-0.293-0.293-0.561-0.293-0.807h-0.075zM174.546 27.143v0.441c0.488 1.358 0.733 2.066 0.733 2.128h0.22l0.075-0.368v-0.293c-0.075-0.623-0.368-1.309-0.882-2.055-0.097 0.014-0.146 0.064-0.146 0.147zM176.382 29.492v0.147h0.073v-0.147h-0.073zM179.025 2.7v0.147h0.073v-0.147h-0.073zM179.683 12.977v0.22l-0.22 1.542 0.075 0.293-0.293 1.982c0.047 0.085 0.073 0.184 0.073 0.293h0.147c0-0.097 0.097-0.269 0.293-0.514v-0.293c0-0.342 0.047-0.611 0.146-0.807-0.047-0.819-0.073-1.456-0.073-1.908v-0.809h-0.147zM180.417 2.186c0 1.884-0.122 3.304-0.365 4.257 0.097 0.306 0.146 0.502 0.146 0.587-0.047 0.661-0.073 1.224-0.073 1.689v0.441h0.073c0.196-0.587 0.293-0.955 0.293-1.101v-1.469c0-0.134 0.075-0.599 0.22-1.394-0.097-0.953-0.146-1.566-0.146-1.835 0-0.158 0.097-0.404 0.293-0.734l-0.075-0.366v-0.222h-0.22c-0.097 0.014-0.147 0.062-0.147 0.147zM180.492 25.969c0 0.109-0.024 0.208-0.075 0.293 0.050 0.33 0.075 0.601 0.075 0.807v0.514h0.147c-0.049-0.49-0.073-0.856-0.073-1.102v-0.293l0.073-0.147-0.147-0.071zM180.492 28.318v0.293h0.075v-0.293h-0.075zM181.518 11.949c0 0.661-0.073 1.491-0.22 2.496v0.073c0.147 0.635 0.22 1.345 0.22 2.128h0.149v-1.248c0-0.318-0.027-0.635-0.075-0.953 0.097-0.563 0.146-0.906 0.146-1.028-0.047-0.722-0.097-1.21-0.146-1.467h-0.075zM181.518 10.922v0.441c0.097 0 0.149-0.049 0.149-0.146v-0.295h-0.149zM181.518 17.748v0.807h0.149v-0.807h-0.149z"></path>
</svg>
