<!-- Generated by IcoMoon.io -->
<svg version="1.1" xmlns="http://www.w3.org/2000/svg" width="164" height="32" viewBox="0 0 164 32">
<title>wijmaken</title>
<path d="M0.919 1.029h0.229c0.457 0.152 0.711 0.229 0.762 0.229h0.076l0.761-0.229 0.381 0.229c-0.051 0.597-0.076 1.028-0.076 1.294v0.152c0 0.546 0.025 1.003 0.076 1.37-0.051 0.356-0.076 0.66-0.076 0.914 0 0.33 0.025 0.838 0.076 1.523-0.052 0.457-0.077 0.966-0.077 1.523l0.152 0.076c0.152-0.011 0.279-0.595 0.38-1.751l-0.152-1.218c0-0.697 0.152-1.409 0.456-2.132v-1.067l-0.229-0.304v-0.153c0.127-0.253 0.355-0.38 0.685-0.38 0.38 0.102 0.609 0.152 0.685 0.152 0.139 0 0.444-0.076 0.914-0.229 0.23 0.103 0.356 0.204 0.381 0.306v0.152c0 0.318-0.102 0.774-0.305 1.371 0.456 1.79 0.787 3.261 0.99 4.416l0.533 2.665c0.558 2.055 0.838 3.376 0.838 3.96 0.139 0.343 0.418 1.612 0.837 3.807 0.139 0 0.267 0.685 0.382 2.055l-0.076 0.152 0.38 0.685h0.152c0.355-1.32 0.558-2.538 0.609-3.654 0.292 0 0.47-0.685 0.533-2.055 0.215-0.863 0.393-1.294 0.533-1.294l0.152 0.076-0.076-0.457c0-1.116 0.229-2.437 0.685-3.96 0-0.253 0.152-1.066 0.456-2.437 0-0.215 0.254-1.282 0.762-3.198 0-0.050 0.025-0.254 0.076-0.609-0.102-0.787-0.152-1.37-0.152-1.752 0.076 0 0.152-0.076 0.229-0.229 0.977 0 1.561 0.127 1.752 0.38 0.317-0.241 0.52-0.367 0.609-0.38 0.482 0.051 0.862 0.127 1.141 0.229 0.33-0.102 0.558-0.152 0.685-0.152h0.38l0.457 0.076c0.088-0.050 0.215-0.076 0.38-0.076 0.152 0.165 0.229 0.292 0.229 0.38l-0.305 1.294v0.381c0.659 2.55 1.041 4.429 1.142 5.634 0.203 0.203 0.305 0.482 0.305 0.838v0.533c0.254 0.292 0.38 0.546 0.38 0.762 0 0.177-0.026 0.406-0.076 0.685 0.305 0.597 0.508 1.383 0.609 2.361 0.152 0.215 0.329 1.053 0.533 2.512 0.355 1.306 0.533 2.348 0.533 3.122-0.050 0.089-0.076 0.191-0.076 0.305 0.356 0.165 0.533 0.418 0.533 0.761h0.076c0.165 0 0.267-0.533 0.305-1.599 0.102-0.254 0.355-1.421 0.762-3.503 0.177 0 0.329-0.685 0.456-2.055 0.139-0.215 0.292-0.774 0.456-1.676 0.139-0.291 0.343-1.535 0.609-3.731 0.305 0 0.533-0.99 0.685-2.97h0.076l-0.076-0.152c0.152-0.317 0.305-0.9 0.457-1.752v-0.533c-0.103-0.735-0.153-1.116-0.153-1.141 0-0.203 0.127-0.381 0.381-0.533 0.253 0 0.38 0.051 0.38 0.152 0.050 0 0.076-0.025 0.076-0.076l0.456 0.076c0.52-0.050 0.926-0.076 1.218-0.076 0.419 0.102 0.698 0.152 0.838 0.152 0.85-0.152 1.511-0.229 1.979-0.229l0.228 0.306c-0.546 1.142-0.901 2.183-1.067 3.122l-0.838 3.884-0.914 3.96c0 0.38-0.103 0.862-0.305 1.447l-1.218 6.015c-0.191 0.597-0.368 1.358-0.533 2.285-0.114 0-0.215 0.584-0.305 1.752-0.102 0-0.229 0.609-0.381 1.826-0.127 0-0.305 0.761-0.533 2.285-0.139 0-0.267 0.534-0.38 1.6v0.076c0 0.152 0.076 0.66 0.229 1.522-0.076 0.254-0.254 0.38-0.533 0.38h-0.381c-0.114 0-0.444-0.076-0.99-0.229-0.191 0.103-0.394 0.152-0.609 0.152h-0.456c-0.394 0-0.749-0.025-1.067-0.076-0.711 0.103-1.244 0.152-1.599 0.152-0.203-0.215-0.305-0.418-0.305-0.609 0-0.064 0.050-0.343 0.153-0.837v-0.685c-0.254-0.977-0.406-1.815-0.457-2.512-0.139-0.102-0.318-0.788-0.533-2.056-0.127 0-0.254-0.736-0.38-2.208-0.089 0-0.191-0.456-0.305-1.371-0.152-0.252-0.533-2.207-1.142-5.862-0.114 0-0.215-0.203-0.305-0.609h0.076c-0.305-0.977-0.456-1.535-0.456-1.675v-0.761c-0.026-0.102-0.152-0.203-0.38-0.305-0.165 0-0.318 0.914-0.457 2.741-0.114 0-0.241 0.635-0.38 1.903-0.177 0.229-0.456 1.473-0.838 3.731-0.165 0-0.393 1.066-0.685 3.199-0.254 0-0.432 0.685-0.533 2.055-0.559 2.615-0.838 3.986-0.838 4.112 0 0.076 0.102 0.533 0.305 1.37 0 0.14-0.127 0.267-0.38 0.38-0.318-0.102-0.521-0.152-0.609-0.152l-0.38 0.152c-0.279-0.050-0.508-0.076-0.685-0.076l-0.457 0.076c-0.177-0.050-0.279-0.076-0.305-0.076-0.635 0.052-1.015 0.076-1.142 0.076-0.114 0-0.394-0.024-0.837-0.076-0.267 0.052-0.521 0.076-0.762 0.076-0.229-0.102-0.356-0.202-0.38-0.305l0.229-1.446c-0.609-3.123-1.142-5.584-1.599-7.386-0.267-0.494-0.495-1.84-0.685-4.035 0-0.355-0.127-0.711-0.38-1.067-0.102-0.355-0.152-0.659-0.152-0.914v-0.305c-0.305-0.317-0.457-1.028-0.457-2.132-0.038 0-0.114-0.279-0.229-0.838v-0.837c-0.356-0.229-0.533-0.685-0.533-1.37 0-0.050 0.025-0.077 0.076-0.077-0.25-0.458-0.377-1.219-0.377-2.286-0.356 0-0.609-1.091-0.762-3.274v-0.228c-0.304-0.317-0.456-0.901-0.456-1.752l0.229-0.152 0.305 0.152c0-0.355 0.050-0.762 0.152-1.218-0.050-0.102-0.076-0.177-0.076-0.228h-0.305v0.076c0 0.114 0.026 0.215 0.076 0.305-0.126 0.305-0.279 0.456-0.456 0.456-0.368 0-0.698-0.355-0.99-1.065v-0.229c0-0.076 0.102-0.177 0.305-0.305zM4.65 2.018v0.99c0 0.215-0.152 0.571-0.456 1.066-0.051 0.191-0.077 0.394-0.077 0.609 0.102 0.799 0.153 1.332 0.153 1.599v0.533c-0.103 0.736-0.153 1.142-0.153 1.218v0.838c0 0.394-0.050 1.079-0.152 2.056 0.050 0.444 0.076 0.723 0.076 0.837-0.050 0.089-0.076 0.191-0.076 0.305h0.229c0.267-3.401 0.571-5.101 0.914-5.101 0.139-0.508 0.267-0.863 0.381-1.067l-0.078-1.217 0.077-0.305c-0.103-0.203-0.153-0.482-0.153-0.838v-1.523c0-0.076-0.076-0.152-0.229-0.229h-0.229c-0.076 0.001-0.152 0.077-0.228 0.229zM5.106 10.394v0.152c0 0.051-0.026 0.076-0.076 0.076l0.076 0.152c0 0.419-0.127 1.232-0.38 2.437 0.038 0.812 0.114 1.218 0.229 1.218 0.102-0.114 0.177-0.621 0.229-1.523 0.203-0.241 0.305-0.494 0.305-0.762 0-0.229-0.026-0.38-0.077-0.456 0.050-0.431 0.077-0.787 0.077-1.067v-2.053c0.050-0.343 0.127-0.52 0.229-0.533-0.051-0.102-0.076-0.177-0.076-0.229h-0.077c-0.165 0-0.318 0.863-0.457 2.588zM5.335 15.495c0 0.114-0.102 0.418-0.305 0.914 0.254 0.787 0.406 1.37 0.457 1.752h0.305v-0.153c0-0.050-0.102-0.33-0.305-0.838 0.025-0.367 0.102-0.621 0.229-0.761-0.203-0.419-0.305-0.724-0.305-0.914h-0.077zM12.111 14.048c-0.102 0.85-0.152 1.332-0.152 1.447 0 0.076 0.026 0.432 0.076 1.067-0.050 0.279-0.076 0.508-0.076 0.685 0.102 0.165 0.152 0.292 0.152 0.381-0.102 0.66-0.177 1.269-0.229 1.827l0.229 0.152 0.153-0.229c-0.103-0.191-0.153-0.393-0.153-0.609 0-0.177 0.102-0.431 0.305-0.761l-0.076-0.38v-0.154c0-0.546-0.026-0.926-0.076-1.141 0.050-0.394 0.076-0.825 0.076-1.294v-0.533c0-0.267-0.077-0.419-0.229-0.457zM11.958 27.753v0.305c0.102 0 0.152-0.051 0.152-0.152v-0.152h-0.152zM15.537 1.638l-0.152 0.533v0.305c0.203 0.546 0.305 1.028 0.305 1.447v0.533c0.102 0 0.152-0.050 0.152-0.152v-0.763c0-0.127-0.050-0.355-0.152-0.685 0.050-0.432 0.076-0.762 0.076-0.99-0.050-0.102-0.076-0.177-0.076-0.229h-0.153zM18.583 16.18c0.102 0.165 0.152 0.317 0.152 0.456v0.076c0 0.114-0.026 0.215-0.076 0.305 0 0.051 0.026 0.076 0.076 0.076l-0.076 0.38v0.153c0.203 0.99 0.305 1.523 0.305 1.599 0 0.229 0.127 1.041 0.38 2.437 0 0.571 0.203 1.155 0.609 1.752 0.152 0.62 0.229 1.053 0.229 1.294v0.99l0.305 0.38v0.915c0.012 0.102 0.064 0.152 0.152 0.152 0.406-0.787 0.609-1.218 0.609-1.295 0-0.343-0.127-0.697-0.38-1.066 0-0.038-0.076-0.494-0.229-1.37 0.102-0.61 0.177-1.752 0.229-3.427 0.050 0 0.152-0.559 0.305-1.675-0.102-0.456-0.152-0.761-0.152-0.914 0.102-0.177 0.177-0.431 0.229-0.761-0.241 0-0.393 0.863-0.456 2.588-0.254 0.38-0.38 0.888-0.38 1.522l-0.381 0.38c-0.177-0.038-0.33-0.191-0.456-0.456 0-0.202 0.026-0.659 0.076-1.37 0-0.343-0.229-0.825-0.685-1.447 0-0.050-0.026-0.127-0.076-0.229 0-0.038 0.025-0.191 0.076-0.457-0.038-0.812-0.114-1.218-0.229-1.218-0.103 0.002-0.153 0.078-0.153 0.231zM19.192 11.765v0.38c0.127 1.218 0.33 1.827 0.609 1.827v0.152l-0.152 0.914c0 0.558 0.177 0.888 0.533 0.99 0.102-0.050 0.177-0.076 0.229-0.076v-0.076c0-1.282 0.102-2.17 0.305-2.665 0-0.139-0.254-0.241-0.762-0.305-0.406-0.812-0.609-1.243-0.609-1.294-0.103 0.013-0.153 0.064-0.153 0.153zM19.802 9.328l-0.076 0.382v0.076c0 0.317 0.152 0.673 0.457 1.067v-0.077c-0.078-0.965-0.204-1.447-0.381-1.447zM21.553 23.871v0.305h0.152v-0.305h-0.152zM21.934 25.165l0.076 0.533h0.076v-0.533h-0.152zM23.152 26.611v1.067c0 0.279 0.127 0.788 0.38 1.523l0.229 1.522c0.076 0 0.177 0.051 0.305 0.152h0.153c-0.66-2.158-0.99-3.578-0.99-4.264h-0.077zM23.76 22.272v0.38h0.152c0.050-0.698 0.152-1.357 0.305-1.98h-0.076c-0.177 0-0.304 0.533-0.38 1.6zM25.055 20.672c0 0.33-0.127 0.813-0.38 1.447v0.762h0.076c0.203-0.711 0.355-1.422 0.456-2.133l-0.152-0.076zM25.131 18.617v0.685c0.152-0.050 0.229-0.202 0.229-0.456v-0.685c-0.153 0.050-0.229 0.203-0.229 0.456zM25.36 16.79v0.533h0.076c0-0.114 0.026-0.215 0.077-0.305-0.051-0.102-0.077-0.177-0.077-0.229h-0.076zM25.436 14.506v0.838h0.077l0.076-0.38v-0.457h-0.153zM25.436 16.18v0.456h0.077v-0.456h-0.077zM25.816 21.815c0 0.177-0.127 0.609-0.381 1.295v0.685h0.077c0-0.267 0.152-0.85 0.456-1.752v-0.229h-0.152zM25.436 24.024v0.305h0.077v-0.305h-0.077zM26.121 11.992c-0.203 0.445-0.305 0.774-0.305 0.99v0.533c0.076 0 0.203-0.482 0.38-1.447v-0.076h-0.076zM26.197 17.094v0.152h0.076v-0.152h-0.076zM26.349 15.876c0.127 0 0.229-0.203 0.305-0.609v-1.067c-0.102 0.001-0.203 0.56-0.305 1.676zM27.034 11.765c-0.102 0.597-0.178 1.206-0.229 1.827 0.203 0 0.305-0.382 0.305-1.142v-0.685h-0.076zM27.034 7.425l-0.076 0.533c0.050 0.445 0.076 0.724 0.076 0.838h0.076v-1.371h-0.076zM27.111 16.79v0.076c-0.102 0.952-0.152 1.561-0.152 1.827v0.076l0.076 0.381h0.076v-1.067c0-0.456 0.050-0.888 0.152-1.294h-0.152zM27.644 14.201h0.152c0.203-0.85 0.305-1.383 0.305-1.599v-0.076h-0.076c-0.177-0.001-0.305 0.558-0.38 1.675zM27.872 6.967v0.076h0.152v-0.228c-0.102 0.012-0.152 0.064-0.152 0.152zM28.1 4.227c0 0.431-0.026 1.066-0.076 1.903h0.076c0.102 0 0.153-0.050 0.153-0.152v-1.371l-0.076-0.38h-0.077zM28.177 2.476l-0.077 0.381v0.076l0.077 0.38h0.076v-0.838h-0.076zM29.624 2.323c0 0.356-0.026 1.091-0.076 2.208l0.076 0.152c-0.203 0.533-0.305 0.888-0.305 1.067v1.676c0 0.215-0.026 0.494-0.076 0.838 0.050 0.127 0.102 0.38 0.152 0.761h0.077c0.191-1.611 0.317-3.16 0.38-4.645 0.127 0 0.253-0.838 0.38-2.513h-0.38c-0.153 0.050-0.229 0.203-0.229 0.456zM29.318 9.633v0.456h0.076v-0.456h-0.076z"></path>
<path d="M35.429 0.953c0.597 0.051 1.028 0.076 1.294 0.076l0.533-0.076c0.229 0.102 0.355 0.203 0.38 0.305-0.406 0.533-0.635 1.041-0.685 1.523 0.102 0.457 0.152 0.711 0.152 0.762-0.051 0.926-0.076 1.511-0.076 1.752 0 0.038 0.025 0.241 0.076 0.609-0.103 0.203-0.152 0.482-0.152 0.837v0.076c0.102 0.736 0.152 1.142 0.152 1.218v1.827l-0.152 1.37c0.102 0.863 0.152 1.447 0.152 1.752 0 0.279-0.051 0.66-0.152 1.142 0 0.127 0.025 0.33 0.076 0.609l-0.076 0.685 0.076 1.218-0.076 0.685 0.152 0.457c0 0.050-0.026 0.127-0.076 0.229 0.050 0.52 0.076 0.926 0.076 1.218 0 0.254-0.051 0.559-0.152 0.914 0.102 0.356 0.152 0.661 0.152 0.914v0.762c-0.103 0.862-0.152 1.345-0.152 1.447v0.533c0.102 0.735 0.152 1.117 0.152 1.141 0 0.127-0.051 0.38-0.152 0.761 0.152 0.33 0.229 0.559 0.229 0.685v0.076c-0.254 0.305-0.382 0.483-0.382 0.534l0.305 2.817 0.533 1.294v0.152c0 0.076-0.076 0.152-0.229 0.229h-0.305c-0.127 0-0.356-0.050-0.685-0.152-0.191 0.103-0.394 0.152-0.609 0.152h-0.229c-0.177 0-0.38-0.102-0.609-0.305-0.191 0.152-0.343 0.229-0.456 0.229-0.051 0-0.203-0.102-0.457-0.305-0.114 0.254-0.368 0.38-0.761 0.38h-0.99c-0.076 0-0.152-0.076-0.229-0.229v-0.076c0.355-1.473 0.533-2.309 0.533-2.511-0.050-3.085-0.076-5.546-0.076-7.387 0-0.164-0.050-0.545-0.152-1.141 0.152-0.672 0.229-1.764 0.229-3.273 0-0.127-0.026-0.508-0.076-1.142 0.102-1.167 0.152-1.903 0.152-2.208-0.102-0.432-0.177-0.914-0.229-1.447 0.102-0.825 0.152-1.358 0.152-1.599 0-0.102-0.026-0.152-0.076-0.152l0.076-0.533v-1.982c0-0.583-0.026-1.117-0.076-1.599 0.050-0.267 0.076-0.749 0.076-1.447v-0.838c0-0.165-0.026-0.291-0.076-0.38l0.076-0.456v-1.142l-0.533-0.533v-0.076c0-0.076 0.102-0.177 0.305-0.305h1.827c0.165 0 0.343 0.076 0.533 0.229h0.076c0.165-0.127 0.368-0.229 0.609-0.305zM33.45 23.339v0.076l0.076 1.218c0 0.050-0.026 0.126-0.076 0.229 0 0.114 0.127 0.85 0.38 2.208v1.218c0 0.291-0.026 0.697-0.076 1.218l0.305 1.141h0.076l0.229-0.152h0.152c0.038 0 0.191 0.152 0.456 0.456h0.076c0-0.126 0.026-0.329 0.076-0.609 0-0.164-0.229-0.368-0.685-0.609-0.152-0.191-0.229-0.418-0.229-0.685v-1.295c0-0.888-0.229-2.361-0.685-4.416h-0.075zM33.678 14.809c0 0.115 0.026 0.216 0.076 0.305-0.050 0.432-0.076 0.761-0.076 0.99 0.102 0.241 0.254 1.536 0.456 3.884v0.609c0 0.114 0.102 0.368 0.305 0.761h0.076v-1.826c0-0.418 0.102-0.9 0.305-1.447 0-0.177-0.229-0.508-0.685-0.99l-0.229-1.523c0.050-0.088 0.076-0.191 0.076-0.305 0.001-0.203-0.1-0.355-0.304-0.457zM33.982 5.902v0.152h0.076v-0.152h-0.076zM33.982 7.501v0.38h0.076v-0.38h-0.076zM33.982 8.871v0.152h0.076v-0.152h-0.076zM34.058 9.404v0.076c0.254 1.536 0.432 2.805 0.533 3.807 0.076 0.14 0.177 0.647 0.305 1.523h0.152v-2.893l-0.837-1.751c0-0.33-0.026-0.584-0.076-0.762h-0.077zM34.668 2.171v0.685h0.076l0.076-0.381v-0.304h-0.152zM34.668 5.444v0.153h0.076v-0.153h-0.076zM34.668 5.978c0 1.827 0.127 2.741 0.38 2.741v-1.599c-0.152-0.685-0.229-1.067-0.229-1.142h-0.152zM35.734 18.617v0.762c-0.153 0.66-0.229 1.015-0.229 1.066v5.405c0 0.152 0.076 0.456 0.229 0.914h0.076c0.102 0 0.152-0.050 0.152-0.152v-0.229c0-0.176-0.026-0.406-0.076-0.685 0.253-0.406 0.406-0.735 0.456-0.99l-0.152-0.305-0.152 0.076-0.152-0.076 0.076-0.761v-0.305c0-0.546-0.076-1.384-0.229-2.514 0.102-0.139 0.229-0.825 0.38-2.055v-0.076l-0.076-0.38c-0.076-0.001-0.177 0.101-0.305 0.304zM35.658 2.779v0.457c0.152 0.558 0.329 1.497 0.533 2.817h0.152c0-2.182-0.152-3.274-0.456-3.274h-0.229zM36.038 7.652v1.142h0.076c0.152-0.038 0.229-0.241 0.229-0.609l-0.076-0.685h-0.076c-0.103 0.013-0.153 0.064-0.153 0.152zM36.114 17.323l-0.076 0.381v0.305h0.076c0.050-0.355 0.102-0.584 0.152-0.685h-0.152z"></path>
<path d="M49.154 1.029h0.38c0.267 0 0.494 0.026 0.685 0.076 0.267-0.050 0.52-0.076 0.761-0.076h0.229c0.356 0 0.635 0.051 0.838 0.152 0.191-0.102 0.393-0.152 0.609-0.152h1.294c0.305 0.026 0.457 0.102 0.457 0.229 0 0.216-0.177 0.571-0.533 1.067 0.102 1.447 0.152 2.691 0.152 3.731-0.050 3.807-0.102 5.71-0.152 5.71 0.102 0.495 0.152 1.232 0.152 2.208v0.685c0 0.66-0.026 1.523-0.076 2.588l0.076 0.152-0.076 0.153c0 0.165 0.026 0.292 0.076 0.38 0 0.229-0.026 0.787-0.076 1.675 0.050 2.728 0.076 4.682 0.076 5.863 0 0.356-0.050 0.533-0.152 0.533l0.152 2.97c0 0.215-0.558 0.799-1.675 1.751h-0.229c-0.102-0.355-0.305-0.533-0.609-0.533 0 0.051-0.026 0.076-0.077 0.076 0 0.089 0.153 0.267 0.457 0.533v0.152c0 0.356-0.177 0.533-0.533 0.533h-0.608c-0.203 0-0.406-0.024-0.609-0.076l-0.457 0.076-0.533-0.076c-0.102 0-0.152 0.026-0.152 0.076-0.597-0.050-1.028-0.076-1.294-0.076h-6.092c-0.406 0-1.067-0.558-1.979-1.675-0.165 0-0.419-0.278-0.762-0.837l0.076-0.762c-0.050-2.334-0.076-4.111-0.076-5.33-0.305-0.685-0.456-1.141-0.456-1.371v-0.152c0.102-0.202 0.229-0.305 0.38-0.305 0.406 0.014 0.609 0.065 0.609 0.152 0.102-0.050 0.177-0.076 0.229-0.076 0.367 0 0.952-0.024 1.752-0.076 0.076 0 0.355 0.076 0.838 0.229l1.37-0.229h0.076c0.076 0 0.177 0.103 0.305 0.305-0.432 1.677-0.711 2.514-0.838 2.514l-0.229-0.152-0.076 0.152v0.38c0.165-0.103 0.317-0.152 0.456-0.152 0.127 0.152 0.254 0.888 0.382 2.207 0.127 0.456 0.508 0.686 1.142 0.686 0.267-0.051 0.418-0.076 0.456-0.076 0.152 0 0.229 0.025 0.229 0.076 0.508-0.051 0.888-0.076 1.142-0.076h1.903c0.368 0 0.673-0.329 0.914-0.991-0.051-0.685-0.076-1.192-0.076-1.522v-2.361c0-0.291 0.025-0.47 0.076-0.534l-0.076-0.533c0-1.319 0.025-3.984 0.076-7.994-0.051-1.294-0.076-2.055-0.076-2.285 0-0.050 0.025-0.127 0.076-0.229-0.051-0.558-0.076-1.041-0.076-1.447v-3.501c0-0.761 0.025-1.802 0.076-3.122-0.038-0.368-0.215-0.697-0.533-0.99v-0.076c0-0.077 0.076-0.153 0.229-0.229zM40.473 22.424c0.088 0.508 0.191 1.854 0.305 4.035 0.026 0.014 0.127 0.242 0.305 0.686-0.064 1.193-0.139 1.853-0.229 1.98 0.127 1.117 0.482 1.675 1.066 1.675h0.152c0.050-0.925 0.077-1.535 0.077-1.826l-0.153-0.076c-0.088 0.050-0.191 0.076-0.305 0.076-0.152 0-0.279-0.456-0.38-1.371v-1.524c-0.254-1.572-0.508-2.791-0.762-3.654h-0.075zM42.453 24.86l0.152 0.533c0.102 0 0.152-0.050 0.152-0.152l-0.076-0.533h-0.076c-0.102 0.011-0.152 0.064-0.152 0.152zM43.367 29.658v0.152c0.038 0.305 0.115 0.456 0.229 0.456v-0.076l-0.076-0.533h-0.153zM44.052 27.906v0.61c0.102 0 0.152-0.076 0.152-0.229l-0.076-0.381h-0.076zM45.194 29.353v0.229c0.114 0.456 0.241 0.685 0.38 0.685v-0.076c-0.203-0.305-0.305-0.582-0.305-0.837h-0.076zM45.651 27.677v0.456c0.508 1.409 0.762 2.145 0.762 2.208h0.229l0.076-0.38v-0.304c-0.076-0.647-0.38-1.358-0.914-2.132-0.103 0.013-0.153 0.063-0.153 0.152zM47.555 30.114v0.152h0.076v-0.152h-0.076zM50.295 2.323v0.152h0.076v-0.152h-0.076zM50.98 12.983v0.229l-0.229 1.599 0.076 0.305-0.305 2.055c0.050 0.089 0.076 0.191 0.076 0.305h0.152c0-0.102 0.102-0.279 0.305-0.533v-0.305c0-0.355 0.050-0.635 0.152-0.838-0.050-0.85-0.076-1.51-0.076-1.979v-0.837h-0.151zM51.742 1.791c0 1.955-0.127 3.426-0.382 4.416 0.102 0.318 0.153 0.52 0.153 0.609-0.051 0.685-0.077 1.27-0.077 1.752v0.456h0.077c0.203-0.609 0.305-0.99 0.305-1.142v-1.523c0-0.139 0.076-0.621 0.229-1.447-0.102-0.99-0.152-1.624-0.152-1.903 0-0.165 0.102-0.419 0.305-0.762l-0.077-0.379v-0.229h-0.229c-0.102 0.012-0.152 0.064-0.152 0.153zM51.818 26.459c0 0.114-0.026 0.216-0.076 0.305 0.050 0.344 0.076 0.622 0.076 0.838v0.533h0.152c-0.051-0.508-0.076-0.888-0.076-1.141v-0.306l0.076-0.152-0.152-0.077zM51.818 28.897v0.305h0.076v-0.305h-0.076zM52.885 11.916c0 0.685-0.076 1.549-0.229 2.588v0.076c0.153 0.66 0.229 1.396 0.229 2.208h0.152v-1.293c0-0.33-0.026-0.659-0.076-0.99 0.102-0.584 0.152-0.939 0.152-1.067-0.051-0.749-0.102-1.256-0.152-1.523h-0.076zM52.885 10.851v0.456c0.102 0 0.152-0.050 0.152-0.152v-0.305h-0.152zM52.885 17.932v0.837h0.152v-0.837h-0.152z"></path>
<path d="M66.114 1.029h1.827c0.343 0 0.647 0.026 0.914 0.076 0.267-0.050 0.571-0.076 0.914-0.076h1.447c0.38 0 0.711 0.559 0.99 1.675 0.114 0.026 0.47 0.838 1.066 2.437 0.229 0.724 0.711 1.815 1.447 3.274 0 0.191 0.153 0.647 0.457 1.37 0 0.241 0.127 0.52 0.38 0.837v0.305c0 0.064-0.127 0.191-0.38 0.38 0.102 0.191 0.152 0.394 0.152 0.609v1.523c0 0.203 0.076 0.635 0.229 1.294-0.152 0.191-0.229 0.368-0.229 0.533v0.609c0.203 0.838 0.38 1.853 0.533 3.046h0.076c0.050-0.635 0.076-1.015 0.076-1.142 0-1.294-0.127-2.158-0.38-2.588 0.152-0.317 0.229-0.571 0.229-0.762-0.152-1.358-0.279-2.246-0.38-2.665v-0.229c0-0.076 0.076-0.152 0.229-0.229 0.254 0.088 0.812 1.256 1.675 3.502 0.241 0 0.495-0.38 0.762-1.141 0.177-0.152 0.431-0.787 0.762-1.903 0.355-0.584 0.735-1.497 1.141-2.741 0.177-0.215 0.584-1.18 1.218-2.893 0.153-0.292 0.33-0.52 0.533-0.685 0-0.787 0.355-1.7 1.067-2.741 0.253-1.116 0.584-1.675 0.99-1.675h1.067c0.305 0 0.508 0.152 0.609 0.456l-0.076 0.305c0.050 0.279 0.076 0.482 0.076 0.609-0.076 0.279-0.178 0.762-0.305 1.447-0.088 0-0.165 0.33-0.229 0.99h0.152c0-0.355 0.229-0.533 0.685-0.533v-0.836l-0.076-0.456c0.064-0.076 0.114-0.33 0.152-0.762-0.203-0.305-0.305-0.558-0.305-0.762 0.127-0.305 0.355-0.456 0.685-0.456h0.076c0.419 0 0.749 0.026 0.99 0.076 0.317-0.050 0.673-0.076 1.067-0.076h0.305c0.076 0 0.152 0.076 0.229 0.229v0.152c-0.203 0.609-0.305 1.067-0.305 1.37v1.447c0 0.050-0.026 0.076-0.076 0.076 0.102 0.229 0.152 0.482 0.152 0.761 0 0.356-0.051 0.533-0.152 0.533l0.076 0.152v0.61c0 0.483-0.051 1.142-0.152 1.98 0.102 0.609 0.152 1.091 0.152 1.447v0.837c0 0.47 0.025 1.13 0.076 1.98 0 0.165-0.177 0.47-0.533 0.914 0.203 0.305 0.305 0.533 0.305 0.685l-0.076 0.456 0.229 0.609c-0.102 0.368-0.152 0.749-0.152 1.142l0.229 1.903-0.076 0.38v1.218c0 0.368-0.026 0.647-0.076 0.837 0.038 0.33 0.088 1.676 0.152 4.036-0.051 0.445-0.127 0.799-0.229 1.066 0.102 0.203 0.152 0.483 0.152 0.837v1.981c0 0.367-0.076 0.571-0.229 0.609h-0.152c-0.305-0.203-0.457-0.456-0.457-0.761v-1.218c0-0.329-0.050-0.686-0.152-1.067h-0.076v1.981c0 0.406 0.050 0.862 0.152 1.37-0.102 0.38-0.152 0.609-0.152 0.685 0.152 0.254 0.229 0.508 0.229 0.761v0.152c-0.050 0.203-0.305 0.305-0.761 0.305-0.635-0.050-0.965-0.076-0.99-0.076-0.102 0.052-0.177 0.076-0.229 0.076-0.152-0.050-0.229-0.102-0.229-0.152l-2.132 0.152c-0.102-0.126-0.152-0.229-0.152-0.305 0.418-0.62 0.647-1.206 0.685-1.751v-1.372c0.102-0.736 0.153-1.141 0.153-1.218v-1.218c-0.103-0.735-0.153-1.141-0.153-1.218v-6.016l-0.076-0.456c0.050-0.088 0.076-0.215 0.076-0.38v-1.294c0-0.203 0.050-0.533 0.153-0.99-0.089-0.317-0.165-1.003-0.229-2.056 0.064-0.697 0.139-1.282 0.229-1.752-0.051-0.102-0.076-0.177-0.076-0.229h-0.077c-0.38 0.165-0.66 0.698-0.837 1.599-0.305 0.533-0.812 1.752-1.523 3.655-0.406 0.267-0.609 0.799-0.609 1.599-0.191 0.191-0.52 0.876-0.99 2.055-0.102 0.065-0.305 0.621-0.609 1.676-0.177 0.609-0.66 0.914-1.447 0.914-0.356-0.152-0.609-0.229-0.762-0.229-0.33 0.102-0.558 0.152-0.685 0.152-0.47 0-0.8-0.253-0.99-0.761-0.203-0.825-1.015-2.905-2.437-6.243-0.914-1.903-1.396-3.172-1.447-3.807-0.064 0-0.241-0.279-0.533-0.837-0.152 0.191-0.229 0.418-0.229 0.685v7.081c0 0.407 0.025 0.889 0.076 1.447-0.051 0.103-0.076 0.178-0.076 0.229 0.102 0.433 0.152 0.711 0.152 0.837 0 0.052-0.026 0.128-0.076 0.23l0.076 0.456c0 0.152-0.051 0.356-0.152 0.609 0.102 0.673 0.152 1.688 0.152 3.046v1.295c0 0.432-0.051 0.761-0.152 0.99 0.102 0.318 0.152 0.521 0.152 0.61l-0.076 0.533c0 0.799 0.203 1.511 0.609 2.131v0.076c0 0.152-0.102 0.229-0.305 0.229-0.279 0-0.559-0.024-0.838-0.076-0.356 0.052-0.66 0.076-0.914 0.076-0.165 0-0.292-0.024-0.382-0.076-0.343 0.052-0.621 0.076-0.837 0.076h-2.208c-0.076 0-0.152-0.076-0.229-0.229v-0.076c0.305-0.976 0.456-1.511 0.456-1.599v-2.208c0-0.203 0.026-0.305 0.076-0.305l-0.076-0.534v-7.385c0-0.381 0.026-0.66 0.076-0.838-0.050-0.33-0.076-0.659-0.076-0.99v-9.367c0.102-0.735 0.152-1.142 0.152-1.218v-2.893c0-1.472-0.152-2.208-0.456-2.208-0.102-0.127-0.152-0.229-0.152-0.305 0.076-0.203 0.152-0.305 0.228-0.305zM68.779 1.791v1.37c0.012 0.102 0.064 0.152 0.152 0.152v-1.522h-0.152zM68.779 18.16v0.152h0.076v-0.152h-0.076zM68.779 18.693v1.903c0.012 0.103 0.064 0.152 0.152 0.152v-2.055h-0.152zM74.033 13.592v0.533h0.076c0-0.038 0.026-0.191 0.076-0.456l-0.152-0.077zM74.184 11.841v0.152h0.076v-0.152h-0.076zM74.184 12.221v0.229h0.076v-0.229h-0.076zM75.86 19.074v0.229h0.076v-0.229h-0.076zM76.621 21.815v0.076c0.050 0.152 0.203 0.229 0.456 0.229l0.076-0.152v-0.076c0-0.102-0.050-0.152-0.152-0.152l-0.38 0.075zM76.926 20.063c0.102 0.47 0.152 0.749 0.152 0.837 0.102 0 0.152-0.050 0.152-0.152v-0.837h-0.152c-0.1 0.013-0.152 0.065-0.152 0.152zM79.819 11.46v0.305c0.102 0.127 0.152 0.229 0.152 0.305h0.076v-0.229l-0.076-0.38h-0.152zM79.971 12.374v0.38c0.267 2.487 0.571 3.731 0.914 3.731 0-0.102 0.076-0.279 0.229-0.533-0.394-0.546-0.749-1.738-1.067-3.578h-0.076zM81.571 7.425c0 0.051-0.026 0.127-0.076 0.229h0.152v-0.229h-0.076zM82.637 6.967c-0.203 0.393-0.305 0.647-0.305 0.761v0.762h0.076c0.203-0.698 0.305-1.104 0.305-1.218v-0.305h-0.076zM82.712 6.054v0.609h0.077l0.076-0.38v-0.076c0-0.102-0.051-0.153-0.153-0.153zM83.55 7.272c-0.356 1.218-0.533 1.979-0.533 2.285l0.152 0.076c0-0.114 0.025-0.215 0.076-0.305-0.051-0.088-0.076-0.191-0.076-0.305v-0.076c0.406-0.47 0.609-0.952 0.609-1.447-0.050-0.102-0.076-0.177-0.076-0.229h-0.152zM83.017 10.698v0.153h0.152v-0.305c-0.102 0.012-0.152 0.064-0.152 0.152zM83.55 5.14v0.457h0.076v-0.457h-0.076zM85.377 20.825l0.153 0.076v-0.229c-0.102 0.013-0.153 0.065-0.153 0.153zM86.139 17.856c0 0.279 0.229 0.635 0.685 1.067l0.076-0.762c-0.203-0.229-0.305-0.533-0.305-0.914-0.304 0.102-0.456 0.305-0.456 0.609zM86.291 14.277v0.609c0.114 0 0.191-0.127 0.229-0.382-0.050-0.102-0.076-0.177-0.076-0.229h-0.153zM87.357 1.714v2.284c0.102 0 0.152-0.050 0.152-0.152v-2.132h-0.152zM87.433 4.531l-0.076 0.381v0.38h0.152l0.076-0.685-0.152-0.077zM87.357 5.749v0.456h0.152v-0.456h-0.152zM88.347 29.505h0.076c0.127 0 0.38 0.483 0.761 1.446v0.305c0 0.076-0.076 0.152-0.229 0.229h-0.533c-0.051 0-0.177-0.126-0.382-0.38 0.052-1.066 0.155-1.599 0.307-1.599z"></path>
<path d="M95.999 1.029h0.305c0.356 0 0.635 0.051 0.837 0.152 0.23-0.102 0.483-0.152 0.762-0.152 0.203 0 0.66 0.026 1.371 0.076 0.1-0.050 0.177-0.076 0.229-0.076 0.253 0.102 0.431 0.152 0.533 0.152 0.355-0.102 0.634-0.152 0.837-0.152 0.267 0 0.469 0.127 0.609 0.38v0.229c0 0.064-0.050 0.343-0.152 0.837v0.229l1.066 4.797 1.218 5.863c0.253 0.673 0.558 2.12 0.915 4.34 0.507 2.297 0.761 3.668 0.761 4.111 0.102 0.013 0.152 0.064 0.152 0.152v1.676c0.355 0.229 0.533 0.635 0.533 1.218 0.202 0 0.33 0.609 0.38 1.826 0.141 0 0.267 0.711 0.38 2.133 0.685 0.925 1.091 1.738 1.218 2.436-0.076 0-0.152 0.076-0.229 0.229-1.015-0.050-1.776-0.076-2.284-0.076h-0.99c-0.141 0-0.292-0.050-0.457-0.152-0.329 0.103-0.558 0.152-0.685 0.152h-0.838c-0.076 0-0.177-0.102-0.305-0.305v-0.076c0.152-0.482 0.229-0.787 0.229-0.914v-0.914c-0.152-0.445-0.305-1.206-0.456-2.285-0.139-0.064-0.267-0.419-0.38-1.067-0.292 0-0.545-0.126-0.761-0.38-0.508 0.051-0.888 0.076-1.141 0.076h-2.742c-0.963 0-1.522 0.356-1.675 1.066-0.114 0.724-0.267 1.409-0.456 2.057-0.051 0.088-0.076 0.215-0.076 0.38v1.066c0 0.254 0.050 0.559 0.152 0.914-0.103 0.305-0.203 0.456-0.305 0.456h-0.229c-0.165 0-0.292-0.024-0.38-0.076l-0.456 0.076h-0.23c-0.394 0-0.748-0.024-1.066-0.076l-0.534 0.076c-0.152 0-0.329-0.024-0.533-0.076-0.482 0.052-0.939 0.076-1.37 0.076h-0.533c-0.102 0-0.152-0.050-0.152-0.152v-0.076c0-0.229 0.229-0.634 0.685-1.218 0-0.202 0.127-0.736 0.38-1.599 0.508-2.653 1.041-5.090 1.599-7.311 0.152-1.014 0.534-2.817 1.142-5.405 0-0.215 0.102-0.418 0.305-0.609v-0.076c0-0.114-0.025-0.215-0.076-0.305 0.356-1.623 0.534-2.665 0.534-3.122 0.164 0 0.29-0.533 0.38-1.599 0.253-0.774 0.659-2.525 1.218-5.254 0.202-0.698 0.305-1.104 0.305-1.218v-0.989c0-0.267-0.026-0.697-0.076-1.294 0.189-0.153 0.367-0.229 0.531-0.229zM90.974 28.744v0.609c0 0.254-0.026 0.635-0.076 1.141h0.076c0.102 0 0.152-0.050 0.152-0.152v-1.599h-0.152zM94.781 25.013v0.229c0.102 0 0.152-0.050 0.152-0.152v-0.076h-0.152zM95.618 7.957v0.382c0.012 0.102 0.065 0.152 0.152 0.152v-0.533h-0.152zM95.923 12.754v0.305c0 0.66 0.076 0.99 0.229 0.99 0.051-0.597 0.076-1.028 0.076-1.294v-0.076l0.305-0.456v-0.229c-0.177 0.33-0.382 0.584-0.609 0.761zM96.075 6.816c0 0.103-0.026 0.153-0.076 0.153 0 0.215 0.127 0.546 0.38 0.99 0 0.965 0.076 1.447 0.229 1.447v-0.154c0-0.749-0.126-1.561-0.38-2.437h-0.153zM96.304 14.506v0.229c0.051 0 0.127 0.026 0.229 0.076l0.229-0.305v-0.229c-0.165 0.152-0.318 0.229-0.457 0.229zM96.455 5.902v0.305h0.076v-0.305h-0.076zM96.455 15.571v0.076l0.076 0.38h0.076l0.076-0.38-0.152-0.076h-0.076zM96.608 19.987v0.456c0 0.065 0.229 0.292 0.685 0.685h2.589c0.152 0 0.305-0.355 0.456-1.066-0.406-2.144-0.888-4.402-1.446-6.777 0-0.546-0.103-1.053-0.306-1.523h-0.076c-0.165 0-0.367 0.788-0.609 2.361-0.291 0.977-0.494 2.094-0.61 3.35-0.152 0-0.278 0.559-0.38 1.676-0.202 0.202-0.304 0.483-0.304 0.837zM96.836 3.846v0.838h0.076v-0.838h-0.076zM97.14 12.983c-0.202 0.533-0.305 0.863-0.305 0.99 0.203 0 0.33-0.305 0.38-0.914v-0.076h-0.076zM96.836 23.11v0.609c0.103 0 0.152-0.051 0.152-0.152v-0.305c0.001-0.103-0.049-0.153-0.152-0.153zM97.064 2.018l0.229 0.305c0 0.215-0.050 0.418-0.152 0.609 0.203 0 0.382 0.812 0.534 2.436 0.165 0 0.418 0.635 0.761 1.903l0.152-0.076-0.076-0.381v-0.533c-0.102-0.735-0.152-1.142-0.152-1.218v-0.454l-0.23 0.152h-0.152c-0.152-0.050-0.229-0.203-0.229-0.456v-2.056c-0.051-0.152-0.203-0.229-0.457-0.229h-0.229zM97.064 5.902v0.305c0.013 0.102 0.064 0.152 0.152 0.152h0.076v-0.228l-0.076-0.38c-0.1 0.012-0.152 0.063-0.152 0.152zM97.293 11.307l-0.076 0.685v0.229h0.076c0-0.382 0.077-0.609 0.23-0.685-0.051-0.102-0.076-0.177-0.076-0.229h-0.154zM97.216 12.298v0.38h0.076v-0.38h-0.076zM97.522 6.891l-0.076 0.38v0.305c0 0.318 0.229 0.826 0.685 1.523 0 0.356 0.076 0.711 0.229 1.067h0.076v-0.991c0-0.152-0.229-0.584-0.685-1.294 0-0.659-0.076-0.99-0.229-0.99zM99.883 21.892c0 0.076-0.103 0.177-0.305 0.305h-0.152c-0.191-0.152-0.343-0.229-0.456-0.229l-0.152 0.229v0.152c0 0.267 0.1 0.445 0.305 0.534 0.024 0 0.152-0.103 0.38-0.306h0.076c0.202 0.102 0.305 0.254 0.305 0.457h0.076l0.076-0.534v-0.456c-0.001-0.102-0.051-0.152-0.153-0.152zM99.046 23.795c-0.103 0.33-0.152 0.559-0.152 0.685h0.229c0.1 0 0.152-0.050 0.152-0.152v-0.305c-0.001-0.076-0.077-0.153-0.229-0.229zM99.273 6.434c-0.103 0.318-0.152 0.521-0.152 0.609 0.1 0.38 0.152 0.635 0.152 0.761 0 0.089-0.052 0.241-0.152 0.457 0.1 0.355 0.152 0.66 0.152 0.914v0.609h0.076c0.076 0 0.177-0.382 0.305-1.142l-0.076-0.38v-1.294c0-0.279-0.103-0.456-0.305-0.533zM99.807 12.45l-0.152 0.305c0.152 0.368 0.229 0.597 0.229 0.685h0.152v-0.152c-0.001-0.559-0.077-0.838-0.229-0.838zM99.883 23.643v0.305h0.076v-0.305h-0.076zM100.415 15.571v0.152c0 0.114 0.025 0.215 0.076 0.305-0.051 0.089-0.076 0.191-0.076 0.305v0.305c0.012 0.102 0.064 0.152 0.152 0.152l0.076-0.152v-1.218h-0.076c-0.102 0.013-0.152 0.065-0.152 0.153zM100.492 14.582v0.152h0.152v-0.152h-0.152zM100.492 24.251v0.076c0.012 0.103 0.064 0.152 0.152 0.152 0.103 0 0.152-0.050 0.152-0.152v-0.305h-0.076c-0.076 0.001-0.152 0.077-0.228 0.229zM100.644 21.892v0.914c0.012 0.103 0.064 0.153 0.152 0.153v-1.067h-0.152zM100.719 5.064v0.38h0.152v-0.38h-0.152zM101.024 18.464l-0.076 0.152v0.305c0 0.076 0.076 0.152 0.229 0.229h0.076v-0.229c0-0.266-0.076-0.418-0.229-0.456zM101.253 20.825l-0.076 0.152c0.202 0.229 0.305 0.357 0.305 0.38v0.61c0 0.051-0.025 0.076-0.076 0.076l0.076 0.152v1.371c0 0.267-0.025 0.697-0.076 1.294l0.229 0.152h0.076v-1.066c0-0.241 0.026-0.494 0.076-0.761-0.050-0.203-0.076-0.406-0.076-0.61 0.051-0.888 0.076-1.421 0.076-1.6-0.254-0.099-0.432-0.151-0.533-0.151zM101.404 15.647c0 0.165-0.026 0.292-0.076 0.38 0.103 0.356 0.152 0.66 0.152 0.914v0.305c0 0.051-0.025 0.076-0.076 0.076 0.051 0.103 0.076 0.178 0.076 0.229l0.533-0.077c0.103 0.127 0.152 0.229 0.152 0.305-0.102 0.165-0.152 0.317-0.152 0.456 0.152 0.177 0.229 0.38 0.229 0.609h0.076l0.076-0.457-0.076-0.38c0.051-0.343 0.076-0.621 0.076-0.838-0.050-0.177-0.076-0.279-0.076-0.305-0.278 0.254-0.431 0.38-0.456 0.38-0.164 0-0.267-0.329-0.305-0.99v-0.609h-0.153zM101.481 13.288c0 0.051-0.025 0.076-0.076 0.076 0 0.051 0.026 0.076 0.076 0.076l-0.076 0.382v0.076l0.076 0.38h-0.076l0.152 0.38-0.076 0.457c0.013 0.102 0.065 0.152 0.152 0.152l0.152-0.229c-0.102-0.165-0.152-0.318-0.152-0.457v-0.076c0-0.177 0.026-0.406 0.076-0.685-0.063-0.355-0.139-0.532-0.228-0.532zM101.709 19.987v0.152c0.013 0.103 0.065 0.152 0.152 0.152l0.076-0.152v-0.152h-0.228zM102.089 15.039v0.152c0.103 0.356 0.152 0.635 0.152 0.837h0.152v-0.076c0-0.127-0.076-0.431-0.229-0.914h-0.075zM102.7 20.14l-0.077 0.305 0.153 0.076h0.076c0.102 0 0.152-0.050 0.152-0.152-0.051-0.102-0.076-0.177-0.076-0.229h-0.228zM103.309 18.16v0.229h0.152v-0.38c-0.1 0.012-0.152 0.064-0.152 0.152zM103.613 30.723l0.38 0.076c0.102-0.164 0.153-0.291 0.153-0.38h-0.153c-0.253 0.127-0.38 0.229-0.38 0.305zM104.832 25.621v0.152h0.076v-0.152h-0.076zM104.908 30.267v0.152h0.076v-0.152h-0.076zM105.365 28.135v0.534c0.012 0.102 0.064 0.152 0.152 0.152v-0.686h-0.152z"></path>
<path d="M108.257 1.029h0.076c0.103 0 0.356 0.051 0.762 0.152 0.38-0.102 0.634-0.152 0.761-0.152 0.457 0.102 0.787 0.152 0.991 0.152 0.202 0 0.533-0.050 0.99-0.152l0.685 0.076c0.343-0.050 0.621-0.076 0.837-0.076l0.152 0.229-0.38 0.99c0.051 0.559 0.076 1.041 0.076 1.447v1.37c0 0.076-0.050 0.483-0.152 1.218v1.98c0 0.355 0.051 0.635 0.152 0.837-0.102 0.406-0.152 0.888-0.152 1.447v0.152c0 0.178 0.051 0.609 0.152 1.294-0.152 0.597-0.229 1.536-0.229 2.817v1.523h0.076c0.103 0 0.203-0.203 0.305-0.609-0.050-0.431-0.076-0.787-0.076-1.067v-0.99c0.685-1.726 1.218-2.691 1.6-2.894 0.203-0.673 1.090-2.296 2.665-4.872 0-0.165 0.431-0.926 1.294-2.285l0.915-1.599-0.076-0.38v-0.075c0-0.356 0.152-0.533 0.456-0.533 0.127 0 0.329 0.026 0.609 0.076 0.279-0.050 0.482-0.076 0.61-0.076l0.533 0.152c0.191-0.102 0.393-0.152 0.609-0.152h3.426c0.102 0.013 0.152 0.064 0.152 0.152v0.229c0 0.065-0.456 0.571-1.371 1.523-0.229 0.583-1.396 2.665-3.501 6.243-0.559 1.079-0.991 1.84-1.295 2.285-0.318 0.482-0.648 1.117-0.991 1.903-0.253 0.267-0.38 0.521-0.38 0.762v0.076c0.812 1.879 1.218 2.919 1.218 3.122 0.558 0.965 0.862 1.701 0.914 2.208 0.66 1.218 0.991 1.902 0.991 2.056 0.267 0.938 0.672 1.878 1.218 2.817 1.37 3.363 2.158 5.19 2.361 5.482 0.102 0 0.356 0.305 0.761 0.914 0.152 0.051 0.23 0.203 0.23 0.456v0.076c0 0.103-0.052 0.152-0.153 0.152h-0.685l-0.456-0.076c-0.051 0-0.077 0.026-0.077 0.076-0.596-0.050-1.028-0.076-1.294-0.076h-1.979c-0.267 0-0.699 0.026-1.295 0.076l-0.229-0.305v-0.761c0-0.406-0.229-0.99-0.686-1.751 0-0.165-0.355-1.004-1.066-2.514l-1.141-2.664-1.676-4.036c-0.177-0.050-0.279-0.076-0.305-0.076-0.165 0.673-0.291 1.053-0.38 1.141-0.394 0.826-0.926 1.738-1.6 2.742-0.102 0.202-0.152 0.482-0.152 0.837v0.761c0.103 0.863 0.152 1.346 0.152 1.446v2.97c0 0.62 0.127 1.231 0.38 1.826v0.152c0 0.076-0.102 0.152-0.305 0.229-0.445-0.050-0.723-0.076-0.837-0.076-0.229 0-0.38 0.026-0.456 0.076-0.432-0.050-0.788-0.076-1.066-0.076h-1.371c-0.267 0-0.698 0.026-1.295 0.076l-0.229-0.305c0-0.152 0.178-0.685 0.533-1.599-0.050-0.533-0.076-0.837-0.076-0.914 0.103-0.456 0.152-0.788 0.152-0.991v-2.97c0-0.267-0.025-0.494-0.076-0.685 0.051-0.267 0.076-0.521 0.076-0.761v-3.503c-0.102-0.735-0.152-1.142-0.152-1.218 0-0.025 0.051-0.406 0.152-1.142v-1.675c0-2.068-0.050-3.566-0.152-4.492 0.103-0.203 0.152-0.482 0.152-0.838v-2.814c-0.102-0.735-0.152-1.142-0.152-1.218v-1.294c0.103-0.735 0.152-1.142 0.152-1.218v-1.37c0-0.215-0.202-0.571-0.609-1.067v-0.152c-0.001-0.077 0.076-0.153 0.228-0.229zM109.323 2.018l0.076 0.38h0.076l0.076-0.305-0.152-0.076h-0.076zM109.628 23.49l0.076 0.38c-0.152 0.343-0.229 0.62-0.229 0.837v0.152c0.013 0.103 0.064 0.152 0.152 0.152 0-0.050 0.102-0.202 0.305-0.456v-0.152l0.457-3.579-0.076-0.456 0.076-0.685-0.076-0.456c-0.356 0.28-0.584 1.7-0.685 4.264zM109.552 25.47l-0.076 0.38c0.013 0.103 0.064 0.152 0.152 0.152l0.076-0.152-0.076-0.38h-0.076zM109.78 27.373l0.076 0.305-0.076 1.067c0.051 0.278 0.076 0.482 0.076 0.609h0.076v-1.98h-0.152zM109.857 29.734v0.761h0.076v-0.761h-0.076zM110.314 9.251l-0.076 0.382c0.050 0.736 0.076 1.141 0.076 1.218h0.076l0.076-0.382v-1.218h-0.152zM110.542 12.45l-0.076 0.533v0.609c0 0.050-0.026 0.076-0.076 0.076 0.152 0.406 0.229 0.736 0.229 0.99h0.076c0.1 0 0.152-0.050 0.152-0.152v-1.903c0-0.102-0.052-0.152-0.152-0.152h-0.153zM110.619 26.155v1.98h0.076c0-1.421 0.176-2.132 0.533-2.132-0.051-0.609-0.076-1.066-0.076-1.37 0-0.178 0.126-0.406 0.38-0.685 0-0.267-0.026-0.698-0.076-1.295-0.090 0-0.369 1.168-0.838 3.502zM110.619 29.886v0.305c0.012 0.103 0.063 0.152 0.152 0.152v-0.076l-0.076-0.38h-0.076zM110.999 16.028v3.655h0.076c0.050-0.597 0.076-1.028 0.076-1.294v-2.361h-0.152zM111.38 28.135v1.295h0.152v-0.533l-0.076-0.762h-0.076zM111.836 9.861l-0.076 0.38c0.050 0.089 0.076 0.191 0.076 0.305h0.076v-0.685h-0.076zM111.989 5.673c0 0.076 0.025 0.38 0.076 0.914 0 0.368-0.051 1.155-0.152 2.361 0.126 0 0.229-0.203 0.305-0.609v-2.132c0-0.254 0.103-0.533 0.305-0.838 0.050-1.243 0.076-2.234 0.076-2.97v-0.076l-0.076-0.533c-0.141 0-0.267 1.041-0.38 3.122-0.065 0.001-0.115 0.254-0.153 0.762zM114.196 14.506v0.076h0.077l0.229-0.837c-0.139-0.001-0.242 0.253-0.306 0.761zM115.186 15.115l-0.761 1.979 0.152 0.076c0.114-0.076 0.318-0.456 0.609-1.142h0.229c0.153 0 0.23 0.178 0.23 0.533h0.076v-0.609c-0.001-0.305-0.179-0.584-0.534-0.837zM114.882 12.83h0.229l0.305-0.229c-0.102-0.38-0.152-0.736-0.152-1.067h-0.076c-0.141 0.001-0.243 0.433-0.306 1.295zM119.145 9.404v0.229h0.076v-0.229h-0.076zM122.116 2.627c0 0.229-0.103 0.483-0.305 0.762v1.599c0.102 0.736 0.152 1.142 0.152 1.218 0.102 0 0.152-0.050 0.152-0.152v-0.839c0-0.114 0.076-0.444 0.229-0.99-0.103-0.508-0.152-0.838-0.152-0.99 0.050-0.279 0.076-0.482 0.076-0.609h-0.152zM121.963 24.48v0.229h0.076v-0.229h-0.076zM122.192 28.821v0.914c0.102 0 0.152-0.050 0.152-0.152v-0.761h-0.152z"></path>
<path d="M127.521 1.029c0.152 0 0.355 0.051 0.609 0.152 0.356-0.102 0.635-0.152 0.837-0.152l0.991 0.152c0.329-0.102 0.558-0.152 0.686-0.152h1.446c0.164 0 0.52 0.051 1.065 0.152 0.152 0 0.356-0.050 0.609-0.152 0.254 0 0.38 0.026 0.38 0.076 1.091-0.050 1.904-0.076 2.438-0.076h4.949c0.456 0 0.685 0.533 0.685 1.599 0.253 1.726 0.38 2.843 0.38 3.35l-0.305 0.152c-0.395-0.050-0.799-0.229-1.218-0.533l-0.152 0.076h-0.609c-0.177 0-0.406-0.026-0.686-0.076-0.102 0.050-0.177 0.076-0.229 0.076-0.152 0-0.229-0.026-0.229-0.076-0.507 0.050-0.887 0.076-1.141 0.076h-2.437c-0.064 0-0.343-0.050-0.837-0.152h-0.534c-0.102 0-0.355 0.050-0.761 0.152-0.254-0.088-0.38-0.215-0.38-0.381 0.103-0.85 0.279-1.662 0.533-2.436-0.102-0.482-0.152-0.863-0.152-1.142v-0.075c-0.355-0.050-0.559-0.076-0.609-0.076l-0.076 0.152v0.99l-0.152 1.37c0.103 0.673 0.202 1.079 0.305 1.218 0 0.064-0.278 0.47-0.837 1.218v0.152c0 0.356 0.050 0.635 0.152 0.838-0.103 0.203-0.152 0.482-0.152 0.838v1.6c0 0.203 0.050 0.533 0.152 0.99-0.103 0.47-0.152 0.749-0.152 0.837 0 0.609 0.533 1.015 1.599 1.218 0.089 0 0.292-0.050 0.609-0.152l0.457 0.076c1.231 0 2.347-0.203 3.35-0.609h0.305c0.103 0.012 0.152 0.064 0.152 0.152v0.38c0 0.177 0.026 0.406 0.076 0.685-0.103 0.203-0.152 0.38-0.152 0.533 0.050 0.152 0.103 0.229 0.152 0.229l-0.076 0.533v2.437l0.076 0.533-0.229 0.152h-0.152c-1.028-0.406-1.611-0.609-1.751-0.609-0.357 0.051-0.559 0.076-0.61 0.076-0.089 0-0.444-0.076-1.065-0.229-0.191 0.102-0.394 0.152-0.61 0.152-0.050 0-0.126-0.025-0.229-0.076-0.202 0.051-0.38 0.076-0.533 0.076l-0.305-0.076c-0.164 0.102-0.317 0.152-0.456 0.152h-0.152l-0.229-0.152c0.064-1.967 0.164-3.185 0.305-3.654-0.038-0.305-0.191-0.457-0.456-0.457-0.103 0.165-0.152 0.292-0.152 0.382-0.051 1.561-0.076 2.576-0.076 3.046-0.103 0.33-0.152 0.558-0.152 0.685v0.076c0.393 0 0.62 0.103 0.685 0.305l-0.456 0.609c0.050 2.436 0.076 4.315 0.076 5.635v1.751c0 0.229 0.202 0.661 0.609 1.295l0.533-0.076h0.076c0.178 0 0.406 0.025 0.685 0.076l0.533-0.153c0.851 0.052 1.511 0.077 1.981 0.077h1.902c0.216 0 0.418 0.025 0.609 0.076 0.203-0.051 0.406-0.076 0.609-0.076h1.295c0.191 0 0.621-0.153 1.295-0.457h0.152c0.076 0 0.152 0.076 0.229 0.229-0.279 3.148-0.533 4.721-0.761 4.721-0.090 0.051-0.191 0.076-0.305 0.076h-2.362c-2.169 0-3.845 0.026-5.025 0.076-1.002-0.050-2.576-0.076-4.72-0.076h-0.915c-0.253 0-0.38-0.050-0.38-0.152-0.254 0.152-0.456 0.229-0.609 0.229h-0.229c-0.114 0-0.191-0.126-0.229-0.38 0.305-0.773 0.456-1.256 0.456-1.446 0-0.749-0.026-1.256-0.076-1.523 0.050-1.052 0.076-2.018 0.076-2.893v-2.055c0-0.749-0.026-1.257-0.076-1.523 0.050-0.534 0.076-1.117 0.076-1.752v-5.485c0-0.177-0.026-0.406-0.076-0.685 0.050-0.102 0.076-0.177 0.076-0.229l-0.076-0.914 0.076-1.067c0-0.393-0.026-0.749-0.076-1.067 0.050-1.688 0.076-3.16 0.076-4.416v-2.816l-0.076-0.38h0.076l-0.456-1.447v-0.076c0.097-0.203 0.251-0.305 0.453-0.305zM128.13 1.942v0.305l0.533 2.588h0.076c0.051-0.177 0.076-0.279 0.076-0.305 0-0.241-0.152-0.977-0.456-2.208 0-0.254-0.050-0.38-0.152-0.38h-0.077zM128.282 8.11l-0.152 0.305c0 1.193 0.152 2.030 0.456 2.513l-0.229 1.294 0.456 2.208v0.685c0.038 0.305 0.114 0.456 0.229 0.456 0-0.254 0.026-0.38 0.076-0.38-0.088-0.33-0.191-1.168-0.305-2.513v-2.056c0-0.127-0.126-0.635-0.38-1.523l0.076-0.38c0.001-0.379-0.075-0.582-0.228-0.608zM128.435 28.364c0 0.152-0.025 0.229-0.076 0.229 0.051 0.102 0.076 0.177 0.076 0.229h0.076v-0.456h-0.076zM128.739 5.293c0 0.026-0.025 0.127-0.076 0.305 0 0.229 0.203 1.091 0.61 2.588 0.305 1.511 0.456 2.754 0.456 3.731h-0.076l0.076 0.152v0.153c0 0.050-0.025 0.076-0.076 0.076 0.076 0.203 0.152 0.305 0.229 0.305 0-0.050 0.025-0.076 0.076-0.076 0-0.050-0.025-0.127-0.076-0.229 0.051-1.117 0.127-1.929 0.229-2.437-0.356 0-0.66-1.244-0.915-3.731-0.050 0-0.177-0.279-0.38-0.838h-0.077zM129.806 1.485l-0.076 0.153c0.152 0.685 0.229 1.168 0.229 1.447v0.837c0.013 0.102 0.064 0.152 0.152 0.152v-0.913c0-0.152 0.076-0.457 0.229-0.914-0.064-0.508-0.242-0.762-0.533-0.762zM130.111 27.069l-0.076 0.38v1.067h0.076c0-0.661 0.102-1.118 0.305-1.371l-0.152-0.076h-0.153zM130.72 28.973v0.076c0 0.278 0.024 0.635 0.076 1.066-0.052 0.089-0.076 0.191-0.076 0.305h0.152v-0.152c0-0.164 0.024-0.292 0.076-0.38-0.051-0.609-0.127-0.914-0.228-0.914zM130.948 13.897v0.533c0.101 0 0.152-0.050 0.152-0.152l-0.076-0.38h-0.076zM131.253 1.866v0.913c0.305 0.318 0.456 0.621 0.456 0.914 0.114 0 0.191-0.177 0.229-0.533l-0.076-0.914h0.076c-0.051-0.406-0.178-0.609-0.38-0.609-0.204 0.077-0.305 0.154-0.305 0.23zM132.775 27.526c0 0.025-0.050 0.406-0.152 1.142v0.456h0.152c0.202-0.761 0.305-1.194 0.305-1.295v-0.152c0-0.102-0.050-0.152-0.152-0.152h-0.153zM133.536 13.744c-0.202 0.102-0.305 0.939-0.305 2.512-0.103 0.012-0.152 0.064-0.152 0.152v0.229h0.152c0.254-0.66 0.38-1.015 0.38-1.067 0-0.050-0.050-0.305-0.152-0.762 0.152-0.267 0.229-0.52 0.229-0.761v-0.152c0-0.101-0.050-0.152-0.153-0.152zM134.298 1.866c0 0.888-0.126 1.903-0.38 3.046l0.152 0.229c0.61-0.050 0.915-0.127 0.915-0.229 0.051-1.675 0.127-2.513 0.229-2.513-0.102-0.38-0.152-0.635-0.152-0.761h-0.61c-0.103-0.001-0.153 0.075-0.153 0.228zM134.069 29.505c0.051 0.103 0.076 0.178 0.076 0.229h0.152c0.114-0.050 0.318-0.406 0.61-1.066 0.253-0.065 0.38-0.14 0.38-0.229v-0.381c0-0.076-0.076-0.152-0.229-0.229-0.241 0-0.47 0.406-0.686 1.218-0.037 0.001-0.138 0.154-0.304 0.457zM134.298 15.8c0.141 0 0.318-0.279 0.534-0.837l-0.076-0.153v-0.533c0-0.127 0.051-0.355 0.152-0.685l-0.152-0.076h-0.076c-0.128 0-0.255 0.761-0.382 2.284zM134.983 15.952l-0.076 0.382v0.076c0.013 0.102 0.064 0.152 0.152 0.152 0-0.050 0.025-0.254 0.076-0.609h-0.152z"></path>
<path d="M145.966 0.953l0.914 0.229c0.456-0.102 0.788-0.152 0.99-0.152 0.152 0 0.33 0.051 0.534 0.152 0.191-0.102 0.394-0.152 0.609-0.152h0.229c0.938 0 1.497 0.711 1.676 2.132 0.253 0.152 0.811 1.345 1.675 3.578l1.903 4.569c0 0.114 0.127 0.418 0.381 0.914 0 0.152 0.305 0.888 0.914 2.208 0.102 0.736 0.278 1.168 0.533 1.294 0 0.127 0.305 0.838 0.914 2.132 0.050 0.761 0.178 1.142 0.38 1.142h0.152c0.152-0.050 0.229-0.203 0.229-0.457v-2.741c0-0.546 0.026-0.977 0.076-1.294-0.050-0.367-0.076-0.825-0.076-1.37v-3.579c-0.102-0.736-0.152-1.142-0.152-1.218v-1.98c0-0.355 0.051-0.635 0.152-0.837-0.102-0.381-0.152-0.583-0.152-0.609 0.103-0.38 0.152-0.735 0.152-1.067v-0.685c0-0.165-0.229-0.774-0.685-1.827v-0.076c0.164-0.152 0.292-0.229 0.38-0.229 0.203 0 0.305 0.026 0.305 0.076l0.915-0.076h3.883c0.076 0 0.152 0.076 0.229 0.229v0.229c-0.202 0.191-0.38 0.698-0.533 1.523l0.076 0.914v1.447c0 0.065-0.050 0.343-0.152 0.838v3.273c0 0.356 0.050 0.635 0.152 0.838-0.050 0.279-0.076 0.483-0.076 0.609 0 0.114 0.026 0.215 0.076 0.305l-0.076 0.533c0 0.165 0.026 0.597 0.076 1.294l-0.152 0.609 0.152 0.685c-0.103 0.203-0.152 0.483-0.152 0.838v2.665c0 0.546 0.026 1.003 0.076 1.37-0.050 0.318-0.076 0.749-0.076 1.294v0.152c0 0.33 0.050 1.346 0.152 3.047-0.103 0.456-0.152 0.788-0.152 0.99v0.533l-0.229 0.305v0.609l0.152 0.229v0.076c0 0.14-0.050 0.292-0.152 0.457 0.050 1.129 0.103 1.815 0.152 2.056-0.050 0.088-0.076 0.571-0.076 1.446 0.076 0 0.278 0.229 0.609 0.685v0.152l-0.152 0.229-0.914-0.076h-0.456c-0.47 0-1.13 0.026-1.98 0.076-0.102-0.050-0.177-0.076-0.229-0.076-0.203 0.052-0.381 0.076-0.534 0.076-0.24 0-0.469-0.355-0.685-1.066-0.229-0.317-0.761-1.56-1.599-3.732-0.165-0.202-1.46-3.272-3.884-9.212-0.368-0.711-0.673-1.447-0.914-2.208-0.432-1.18-0.711-1.79-0.837-1.827v-0.685c0-0.191-0.127-0.393-0.38-0.609v-0.231c0-0.038 0.126-0.165 0.38-0.38v-0.229l-0.38 0.076c-0.076 0-0.305-0.177-0.685-0.533-0.153 0.546-0.23 0.876-0.23 0.99v0.076c0.102 0.863 0.153 1.345 0.153 1.447v0.914c0 0.165-0.052 0.521-0.153 1.067 0.165 0.456 0.268 0.685 0.306 0.685-0.052 0.685-0.076 1.194-0.076 1.523v0.837c0 0.914-0.026 1.802-0.076 2.664 0.050 0.445 0.076 0.826 0.076 1.142-0.052 0.926-0.076 1.511-0.076 1.752l0.076 0.685c-0.153 0.698-0.23 1.13-0.23 1.294 0.153 0.254 0.23 0.509 0.23 0.761v0.153c0 0.71-0.026 1.676-0.076 2.893 0.012 0.355 0.24 0.812 0.685 1.37v0.152c0 0.026-0.052 0.103-0.152 0.229-0.597-0.050-1.029-0.076-1.295-0.076h-2.893c-0.267 0-0.698 0.026-1.294 0.076-0.103-0.164-0.152-0.317-0.152-0.456l0.837-1.294c-0.051-0.761-0.076-1.32-0.076-1.676v-0.685c0-0.241 0.025-0.494 0.076-0.762-0.152-0.825-0.229-3.337-0.229-7.537v-3.503c0-0.406 0.025-0.939 0.076-1.599-0.051-0.088-0.076-0.215-0.076-0.38l0.076-0.685c0-0.050-0.026-0.254-0.076-0.609 0.050-0.343 0.076-0.621 0.076-0.838 0-0.254-0.051-0.38-0.152-0.38 0.050-0.838 0.076-1.473 0.076-1.903v-3.12c0-0.050 0.050-0.254 0.152-0.609-0.103-0.165-0.152-0.317-0.152-0.456 0-0.088 0.102-0.317 0.305-0.685-0.103-0.292-0.203-1.028-0.305-2.208-0.038 0-0.165-0.203-0.38-0.609v-0.229c-0.001-0.165 0.43-0.267 1.292-0.305zM146.043 3.161l-0.305 1.142v0.229l0.076 0.456c-0.103 0.203-0.152 0.38-0.152 0.533 0.102 0.165 0.152 0.292 0.152 0.38h0.152c0.050-0.457 0.102-1.345 0.152-2.665v-0.076h-0.075zM146.043 25.241c0.102 0.318 0.152 0.521 0.152 0.609h0.076c0.202-1.408 0.305-2.5 0.305-3.273v-0.456c-0.24-0.001-0.418 1.040-0.532 3.121zM146.88 28.288c-0.202 0.52-0.38 1.154-0.533 1.902v0.533c0.012 0.103 0.065 0.152 0.152 0.152 0-0.406 0.152-1.066 0.456-1.979v-0.609h-0.075zM146.804 1.562l-0.152 0.229c0.216 0.064 0.368 0.191 0.456 0.38v1.447h0.076l0.076-0.38v-0.306c0-0.267-0.025-0.698-0.076-1.294l-0.38-0.076zM146.88 26.992v0.305h0.076v-0.305h-0.076zM147.26 15.115v0.685c0.103 0 0.152-0.050 0.152-0.152v-0.38c0.001-0.103-0.049-0.153-0.152-0.153zM148.327 1.638c-0.152 0.305-0.306 2.055-0.457 5.254-0.102 0.355-0.253 1.167-0.456 2.436l0.076 0.533c-0.050 1.409-0.076 2.55-0.076 3.426l0.152 0.076 0.152-0.533v-0.762c0.038-0.305 0.114-0.456 0.229-0.456l-0.076-0.761c0.254-2.944 0.381-4.746 0.381-5.407 0.102 0 0.203-0.685 0.305-2.055v-1.294c0-0.266-0.076-0.418-0.229-0.456zM147.565 30.267h0.152v-0.152c-0.101 0.012-0.152 0.064-0.152 0.152zM147.945 17.475v0.305h0.152v-0.152c0.001-0.102-0.049-0.153-0.152-0.153zM148.251 18.846c0.038 0.559 0.114 0.837 0.229 0.837 0.253-0.926 0.38-1.409 0.38-1.447v-0.228l-0.609 0.838zM148.403 20.748l-0.076 0.533v1.218c0.013 0.102 0.064 0.152 0.152 0.152h0.076v-0.076c0-0.089-0.025-0.698-0.076-1.827h-0.076zM148.479 11.841c-0.051 0.267-0.076 0.419-0.076 0.457l0.076 0.38c-0.051 0-0.076 0.026-0.076 0.076h0.152v-0.914h-0.076zM148.936 6.13v0.076c0 1.473-0.076 2.361-0.229 2.665 0.051 0.279 0.076 0.482 0.076 0.609-0.102 0.685-0.152 1.117-0.152 1.294v0.153h0.076c0.127 0 0.229-0.305 0.305-0.914-0.051-0.267-0.076-0.52-0.076-0.762l0.305-0.914c0-0.647 0.127-2.119 0.381-4.417 0-0.038 0.126-0.52 0.38-1.447-0.090-0.291-0.242-0.52-0.456-0.685-0.254 0-0.381 1.193-0.381 3.578-0.051 0.001-0.127 0.255-0.229 0.763zM150.383 3.846c0 0.102-0.026 0.152-0.076 0.152l0.076 0.381v0.152c-0.216 1.7-0.343 2.588-0.38 2.665 0 0.050 0.024 0.076 0.076 0.076 0 0.635-0.152 1.37-0.456 2.208-0.052 0.279-0.076 0.483-0.076 0.609 0.050 0.102 0.076 0.177 0.076 0.229h0.076c0.456-1.32 0.685-2.234 0.685-2.741 0.102-0.508 0.202-0.812 0.305-0.914-0.103-0.229-0.152-0.482-0.152-0.761l0.229-0.762v-0.305c-0.001-0.659-0.128-0.99-0.381-0.99zM150.383 10.166c0 0.152 0.102 0.508 0.305 1.067h0.076l0.076-0.38-0.076-0.914h-0.152c-0.076-0.001-0.153 0.075-0.229 0.228zM154.038 13.059v0.305l0.076 0.382h0.076c0-0.152 0.025-0.229 0.076-0.229-0.063-0.306-0.139-0.457-0.228-0.457zM154.189 14.733v0.305h0.076v-0.305h-0.076zM154.57 18.16v0.152c0.013 0.102 0.064 0.152 0.152 0.152l0.076-0.152v-0.152h-0.228zM154.57 19.76v0.229h0.152c-0.051-0.102-0.076-0.177-0.076-0.229h-0.076zM157.311 26.917v0.229h0.229v-0.076c0-0.102-0.050-0.152-0.152-0.152h-0.077zM160.814 21.892v3.273h0.076c0-0.355 0.025-0.533 0.076-0.533l-0.076-0.152v-2.285c0-0.051 0.025-0.076 0.076-0.076-0.051-0.102-0.076-0.177-0.076-0.229h-0.076zM160.814 25.394v1.676h0.076c0-0.102 0.025-0.152 0.076-0.152l-0.076-0.153v-0.686c0-0.050 0.025-0.076 0.076-0.076-0.051-0.050-0.076-0.253-0.076-0.609h-0.076z"></path>
</svg>
