<!-- Generated by IcoMoon.io -->
<svg version="1.1" xmlns="http://www.w3.org/2000/svg" width="500" height="100" viewBox="0 0 34 32">
<title>winkelkar</title>
<path d="M0.69 10.33c0.707-1.792 1.231-2.141 3.214-2.141 7.171 0 14.34-0.014 21.507 0.019 0.75 0.004 1.024-0.22 1.151-0.94 0.358-2.043 1.366-3.711 3.145-4.828 0.908-0.569 1.879-1.038 2.827-1.544 0.504-0.27 0.974-0.281 1.275 0.295 0.289 0.554 0.093 0.956-0.444 1.232-0.742 0.383-1.472 0.789-2.219 1.162-1.51 0.754-2.403 1.961-2.797 3.596-1.201 5.003-2.422 10.002-3.645 14.998-0.582 2.38-1.957 3.451-4.397 3.452-4.302 0.003-8.603 0.001-12.904-0.001-0.236 0-0.548 0.062-0.696-0.062-0.265-0.216-0.616-0.567-0.596-0.834 0.026-0.313 0.376-0.637 0.653-0.878 0.126-0.108 0.413-0.030 0.629-0.030 4.444-0.001 8.89 0.004 13.335-0.003 1.238-0.001 2.132-0.825 2.178-2.038-0.259 0-0.516 0-0.774 0-4.78 0-9.558 0-14.338 0-2.275 0-3.79-1.079-4.515-3.24-0.871-2.593-1.729-5.192-2.592-7.788 0.001-0.142 0.001-0.285 0.001-0.428zM24.996 9.899c-7.047 0-14.094 0-21.139 0-1.329 0-1.544 0.299-1.126 1.537 0.753 2.209 1.503 4.418 2.253 6.628 0.446 1.315 1.351 1.995 2.72 1.998 5.018 0.008 10.033 0.003 15.050 0.003 0.351 0 0.676 0.059 0.799-0.464 0.73-3.106 1.5-6.203 2.256-9.301 0.021-0.090 0.014-0.187 0.026-0.399-0.322-0.001-0.579-0.001-0.839-0.001z"></path>
<path d="M5.745 28.826c0.003-1.528 1.255-2.766 2.79-2.759 1.529 0.008 2.744 1.2 2.755 2.701 0.011 1.568-1.181 2.78-2.735 2.785-1.562 0.005-2.814-1.211-2.81-2.727zM8.505 29.84c0.543 0.016 1.059-0.49 1.058-1.034 0-0.548-0.503-1.016-1.073-0.999-0.553 0.015-0.967 0.451-0.966 1.015 0.004 0.541 0.446 1.001 0.981 1.018z"></path>
<path d="M17.489 28.838c0-1.54 1.232-2.771 2.774-2.771 1.513 0.001 2.756 1.204 2.784 2.694 0.028 1.529-1.206 2.787-2.744 2.795-1.56 0.009-2.814-1.201-2.814-2.717zM20.207 29.839c0.555 0.036 1.052-0.43 1.068-1.004 0.016-0.555-0.395-0.999-0.952-1.028-0.578-0.029-1.067 0.417-1.080 0.985-0.015 0.516 0.444 1.013 0.965 1.047z"></path>
</svg>
